<?xml version="1.0" encoding="UTF-8"?>
<!DOCTYPE svg PUBLIC "-//W3C//DTD SVG 1.1//EN" "http://www.w3.org/Graphics/SVG/1.1/DTD/svg11.dtd">
<!-- Creator: CorelDRAW -->
<svg xmlns="http://www.w3.org/2000/svg" xml:space="preserve" width="6.82666in" height="6.82666in" style="shape-rendering:geometricPrecision; text-rendering:geometricPrecision; image-rendering:optimizeQuality; fill-rule:evenodd; clip-rule:evenodd"
viewBox="0 0 6.82666 6.82666"
 xmlns:xlink="http://www.w3.org/1999/xlink">
 <defs>
  <style type="text/css">
   <![CDATA[
    .fil0 {fill:#FF5722}
    .fil1 {fill:#FFFFFE}
   ]]>
  </style>
 </defs>
 <g id="Layer_x0020_1">
  <metadata id="CorelCorpID_0Corel-Layer"/>
  <rect class="fil0" width="6.82666" height="6.82666" rx="0.853335" ry="0.853335"/>
  <path class="fil1" d="M2.10689 0.853331l2.61289 0c0.0821614,0 0.156201,0.0365709 0.209276,0.0954724 0.0503583,0.055878 0.081622,0.13226 0.081622,0.215634l0 3.68222 -3.19468 0 0 -3.68222c0,-0.0833701 0.0312598,-0.159752 0.0816181,-0.215638 0.0530866,-0.0589016 0.127114,-0.0954685 0.20928,-0.0954685zm1.30644 4.30355c0.0718701,0 0.136953,0.0291417 0.184067,0.076252 0.0471102,0.0471142 0.076252,0.112197 0.076252,0.184067 0,0.0718701 -0.0291417,0.136953 -0.076252,0.184067 -0.0471142,0.0471102 -0.112197,0.076252 -0.184067,0.076252 -0.0718701,0 -0.136953,-0.0291417 -0.184067,-0.076252 -0.0471102,-0.0471142 -0.076252,-0.112197 -0.076252,-0.184067 0,-0.0718701 0.0291417,-0.136953 0.076252,-0.184067 0.0471142,-0.0471102 0.112197,-0.076252 0.184067,-0.076252zm-1.18982 0.220752l0.369846 0 0 0.124717 -0.369846 0 0 -0.124717zm2.00979 0l0.369846 0 0 0.124717 -0.369846 0 0 -0.124717zm0.77737 -0.41098l0 0.695571c0,0.083374 -0.0312638,0.159748 -0.081622,0.215634 -0.0530866,0.0589055 -0.127114,0.0954724 -0.209276,0.0954724l-2.61289 0c-0.0821614,0 -0.156201,-0.0365709 -0.209276,-0.0954724 -0.0503583,-0.055878 -0.081622,-0.13226 -0.081622,-0.215634l0 -0.695571 3.19468 0z"/>
 </g>
</svg>
