<?xml version="1.0" encoding="UTF-8"?>
<!DOCTYPE svg PUBLIC "-//W3C//DTD SVG 1.1//EN" "http://www.w3.org/Graphics/SVG/1.1/DTD/svg11.dtd">
<!-- Creator: CorelDRAW -->
<svg xmlns="http://www.w3.org/2000/svg" xml:space="preserve" width="6.82666in" height="6.82666in" style="shape-rendering:geometricPrecision; text-rendering:geometricPrecision; image-rendering:optimizeQuality; fill-rule:evenodd; clip-rule:evenodd"
viewBox="0 0 6.82666 6.82666"
 xmlns:xlink="http://www.w3.org/1999/xlink">
 <defs>
  <style type="text/css">
   <![CDATA[
    .fil0 {fill:#66BB6A}
    .fil1 {fill:#FFFFFE}
    .fil2 {fill:#FFFFFE;fill-rule:nonzero}
   ]]>
  </style>
 </defs>
 <g id="Layer_x0020_1">
  <metadata id="CorelCorpID_0Corel-Layer"/>
  <rect class="fil0" width="6.82666" height="6.82666" rx="0.853335" ry="0.853335"/>
  <g id="_470058792">
   <path id="_470058552" class="fil1" d="M1.15952 1.50486l0 3.81694 -0.306189 0 0 -3.81694 0.306189 0zm4.3835 0l0 3.28208 -0.247862 0 0 -3.28208 0.247862 0zm-0.401154 0l0 3.28208 -0.247862 0 0 -3.28208 0.247862 0zm-0.40115 0l0 3.28208 -0.247862 0 0 -3.28208 0.247862 0zm-0.401154 0l0 3.28208 -0.247862 0 0 -3.28208 0.247862 0zm1.63377 0l0 3.81694 -0.306193 0 0 -3.81694 0.306193 0zm-2.00576 0l0 3.81694 -0.306193 0 0 -3.81694 0.306193 0zm-0.430315 0l0 3.28208 -0.247866 0 0 -3.28208 0.247866 0zm-0.371992 0l0 3.81694 -0.306193 0 0 -3.81694 0.306193 0zm-0.430311 0l0 3.28208 -0.247862 0 0 -3.28208 0.247862 0zm-0.401154 0l0 3.28208 -0.247862 0 0 -3.28208 0.247862 0zm-0.401146 0l0 3.28208 -0.247862 0 0 -3.28208 0.247862 0zm-0.40115 0l0 3.28208 -0.247862 0 0 -3.28208 0.247862 0z"/>
   <path id="_470058744" class="fil2" d="M1.44722 4.89635c0.0356299,0 0.0634055,0.0127362 0.0833976,0.0381102 0.0238425,0.0299961 0.0358031,0.079811 0.0358031,0.149453 0,0.0693858 -0.0120472,0.119291 -0.0360591,0.149713 -0.0198228,0.0250354 -0.0475118,0.0375118 -0.0831417,0.0375118 -0.0356339,0 -0.0644331,-0.0136772 -0.0863071,-0.041189 -0.021874,-0.0274291 -0.032811,-0.0763937 -0.032811,-0.146803 0,-0.0691299 0.0120472,-0.118862 0.0360591,-0.149197 0.0198228,-0.0250354 0.0475118,-0.0375984 0.0830591,-0.0375984zm2.82019 0.368547l0 -0.0738307 -0.150224 0 0 -0.0616102 0.159276 -0.233106 0.0590472 0 0 0.232854 0.0455472 0 0 0.0618622 -0.0455472 0 0 0.0738307 -0.0680984 0zm0 -0.135693l0 -0.125441 -0.0843425 0.125441 0.0843425 0zm0.243815 0.0412717l0.0700709 -0.00717717c0.00196457,0.0158071 0.00794488,0.0283661 0.0177717,0.0375984 0.00982677,0.00931102 0.0211929,0.0139252 0.0340079,0.0139252 0.0146969,0 0.0271732,-0.00598031 0.0373425,-0.0178583 0.0101693,-0.0119646 0.0152992,-0.0299961 0.0152992,-0.0540039 0,-0.0224724 -0.00504331,-0.0393937 -0.0152126,-0.0506732 -0.0100827,-0.0112795 -0.0232441,-0.0169173 -0.0393937,-0.0169173 -0.0201654,0 -0.0382795,0.00897244 -0.0543425,0.0268307l-0.0570827 -0.00829134 0.0360591 -0.190976 0.186028 0 0 0.0657913 -0.132709 0 -0.0110197 0.0623819c0.0157244,-0.0078622 0.0317008,-0.0117953 0.0481063,-0.0117953 0.0311929,0 0.0576772,0.0113661 0.0792992,0.0340118 0.0217008,0.0227283 0.0325551,0.0522126 0.0325551,0.0884409 0,0.0301654 -0.00871654,0.0571654 -0.0262323,0.0808346 -0.0239252,0.0323898 -0.0569961,0.0485394 -0.099378,0.0485394 -0.0339252,0 -0.0615236,-0.00905906 -0.0828898,-0.0272638 -0.0213622,-0.0181969 -0.0341772,-0.0426378 -0.0382795,-0.0733976zm0.618008 -0.182697l-0.0681063 0.00752362c-0.00162205,-0.0140157 -0.00598031,-0.0243543 -0.0129882,-0.0311063 -0.00700394,-0.00666535 -0.0161496,-0.00999606 -0.0273425,-0.00999606 -0.0147874,0 -0.0273425,0.00666535 -0.037685,0.0200827 -0.0102559,0.0133307 -0.0166614,0.0410984 -0.0193937,0.083311 0.0175984,-0.0206772 0.0393071,-0.0310197 0.0653661,-0.0310197 0.0293937,0 0.0545157,0.0111929 0.0754528,0.0335866 0.020937,0.0222992 0.0314449,0.0511811 0.0314449,0.0865551 0,0.0375984 -0.0110236,0.0676811 -0.0330669,0.0904094 -0.0219606,0.0226457 -0.0503346,0.0340118 -0.0848543,0.0340118 -0.037,0 -0.0675039,-0.0143583 -0.0913465,-0.0431535 -0.0238386,-0.0287992 -0.0358031,-0.0759646 -0.0358031,-0.141591 0,-0.067248 0.0123898,-0.115701 0.0372559,-0.145437 0.0248661,-0.0297362 0.0571654,-0.0446063 0.0968976,-0.0446063 0.0278622,0 0.0509331,0.0078622 0.0692165,0.0234173 0.0182835,0.0156339 0.0299094,0.0382756 0.0349528,0.0680118zm-0.159453 0.153472c0,0.022815 0.0052126,0.0405039 0.0157244,0.0528937 0.0105079,0.0124764 0.0225591,0.0187126 0.0360591,0.0187126 0.0130709,0 0.0238386,-0.00512598 0.0325591,-0.0152953 0.0087126,-0.0101693 0.0129843,-0.0269173 0.0129843,-0.0500748 0,-0.0238386 -0.00461024,-0.0413543 -0.0140157,-0.0524646 -0.00931102,-0.0111102 -0.0210157,-0.0166654 -0.0350315,-0.0166654 -0.0135,0 -0.0249528,0.00529921 -0.0342638,0.0158976 -0.00939764,0.0105945 -0.0140157,0.026315 -0.0140157,0.0469961zm0.301839 -0.173039l0 -0.0652795 0.240543 0 0 0.0510118c-0.0198268,0.0195669 -0.0399921,0.0475945 -0.0605827,0.0841693 -0.0205118,0.0364882 -0.0361457,0.0753661 -0.0469134,0.116465 -0.0107677,0.041189 -0.016063,0.0779331 -0.0158937,0.110319l-0.0678504 0c0.00119685,-0.0507598 0.011626,-0.102457 0.0314449,-0.155177 0.0197402,-0.052811 0.0461457,-0.0998937 0.0792126,-0.141508l-0.159961 0zm-3.8244 -0.0135c-0.00846063,0 -0.0160669,0.00273228 -0.0227323,0.00811811 -0.00666142,0.0054685 -0.011878,0.0152126 -0.0155472,0.0292244 -0.0047874,0.0182008 -0.00726378,0.0487913 -0.00726378,0.0918583 0,0.0430709 0.00222047,0.0726339 0.00649213,0.0886969 0.00435433,0.0161535 0.00982677,0.0268346 0.0164055,0.0322165 0.00666535,0.00529921 0.014185,0.0080315 0.0226457,0.0080315 0.00854331,0 0.0161496,-0.00273228 0.022815,-0.00820472 0.00666535,-0.00538189 0.011878,-0.015122 0.0155512,-0.0291378 0.0047874,-0.0180315 0.00726378,-0.0485315 0.00726378,-0.0916024 0,-0.0430669 -0.00222441,-0.0726299 -0.00649606,-0.0887835 -0.00435433,-0.016063 -0.00982677,-0.0268307 -0.0164055,-0.0322992 -0.00666535,-0.00538583 -0.014185,-0.00811811 -0.0227283,-0.00811811zm0.441807 0.310185l-0.0703268 0 0 -0.265154c-0.0257205,0.0240984 -0.0559685,0.041874 -0.0908307,0.0533228l0 -0.0638307c0.0182835,-0.00598031 0.0382795,-0.0173465 0.059811,-0.0340945 0.0215354,-0.0168307 0.0363189,-0.0364055 0.0442638,-0.0587913l0.0570827 0 0 0.368547zm0.438299 -0.0653701l0 0.0653701 -0.246606 0c0.00273228,-0.0246929 0.0106811,-0.0481063 0.0240945,-0.0702402 0.0133346,-0.0221339 0.0397362,-0.0514409 0.0790433,-0.0880118 0.0317874,-0.0294843 0.051189,-0.049563 0.0583622,-0.0600709 0.00965748,-0.0145276 0.0145276,-0.0288858 0.0145276,-0.0430709 0,-0.0156378 -0.00418898,-0.0276811 -0.0126496,-0.0361417 -0.00846063,-0.00846063 -0.0200787,-0.0126496 -0.0349449,-0.0126496 -0.0146969,0 -0.0263228,0.00444094 -0.0350354,0.013248 -0.00863386,0.00888583 -0.0136732,0.0235827 -0.0150394,0.0440906l-0.0700669 -0.00700787c0.00418504,-0.0387087 0.0172598,-0.0664803 0.0393071,-0.0833976 0.0220433,-0.0168346 0.0495551,-0.0252953 0.082626,-0.0252953 0.0362323,0 0.064685,0.00983071 0.0853661,0.029311 0.0206811,0.0195669 0.0310157,0.0438346 0.0310157,0.0728858 0,0.0164961 -0.00298425,0.0322165 -0.00888583,0.0471693 -0.00589764,0.0149567 -0.0152953,0.0305945 -0.0281102,0.0469134 -0.00854724,0.0108504 -0.0239252,0.0264921 -0.0460591,0.0468268 -0.0222165,0.0203386 -0.036315,0.0339252 -0.0422126,0.0405906 -0.0058937,0.00666142 -0.0107677,0.0131575 -0.0144409,0.0194803l0.139709 0zm0.140685 -0.0320433l0.0680157 -0.00820472c0.00222441,0.0173465 0.0080315,0.0305945 0.0176024,0.0397362 0.00948425,0.00922835 0.0210236,0.0138425 0.0345236,0.0138425 0.0145276,0 0.0267441,-0.00555118 0.0366575,-0.0165787 0.00991339,-0.0110197 0.0148701,-0.0258031 0.0148701,-0.0445197 0,-0.017685 -0.00470472,-0.0317008 -0.0142717,-0.0420394 -0.00948819,-0.0104252 -0.0211063,-0.0155512 -0.0347795,-0.0155512 -0.00897244,0 -0.0197402,0.00170866 -0.0322992,0.0052126l0.00777559 -0.057252c0.0190551,0.000425197 0.0335827,-0.00367717 0.0435787,-0.0123898 0.01,-0.00880315 0.0150433,-0.0204252 0.0150433,-0.0349488 0,-0.0123937 -0.00367717,-0.0222165 -0.0110276,-0.0295669 -0.00734646,-0.00734646 -0.0171732,-0.0110236 -0.029311,-0.0110236 -0.0120433,0 -0.0222992,0.00418898 -0.0307598,0.012563 -0.00854724,0.0082874 -0.0137559,0.0205039 -0.0155512,0.0364843l-0.0648583 -0.010937c0.0045315,-0.0222165 0.0112795,-0.0399882 0.0204252,-0.0532362 0.00905906,-0.0132402 0.0217874,-0.0236693 0.0380236,-0.0312717 0.0163228,-0.0076063 0.0345236,-0.0114528 0.054689,-0.0114528 0.0346063,0 0.0622953,0.0110276 0.0831457,0.0330669 0.0171732,0.0180315 0.0258031,0.0383701 0.0258031,0.0611024 0,0.0322126 -0.0176024,0.0579331 -0.0528071,0.0770709 0.0210157,0.0045315 0.0377677,0.0146142 0.0504134,0.0303346 0.012563,0.0156378 0.0188819,0.0346102 0.0188819,0.0568268 0,0.0322165 -0.0117913,0.0596457 -0.0352874,0.082374 -0.0235,0.0226457 -0.052811,0.0340118 -0.0878425,0.0340118 -0.0332402,0 -0.0607559,-0.00957087 -0.0826299,-0.028626 -0.021874,-0.0191417 -0.0345236,-0.0440945 -0.0380236,-0.0750276z"/>
  </g>
 </g>
</svg>
