<?xml version="1.0" encoding="UTF-8"?>
<!DOCTYPE svg PUBLIC "-//W3C//DTD SVG 1.1//EN" "http://www.w3.org/Graphics/SVG/1.1/DTD/svg11.dtd">
<!-- Creator: CorelDRAW -->
<svg xmlns="http://www.w3.org/2000/svg" xml:space="preserve" width="6.82666in" height="6.82666in" style="shape-rendering:geometricPrecision; text-rendering:geometricPrecision; image-rendering:optimizeQuality; fill-rule:evenodd; clip-rule:evenodd"
viewBox="0 0 6.82666 6.82666"
 xmlns:xlink="http://www.w3.org/1999/xlink">
 <defs>
  <style type="text/css">
   <![CDATA[
    .fil0 {fill:#795548}
    .fil2 {fill:#FFFFFE}
    .fil1 {fill:#FFFFFE;fill-rule:nonzero}
   ]]>
  </style>
 </defs>
 <g id="Layer_x0020_1">
  <metadata id="CorelCorpID_0Corel-Layer"/>
  <rect class="fil0" width="6.82666" height="6.82666" rx="0.853335" ry="0.853335"/>
  <path class="fil1" d="M0.952846 1.38059c-0.0586811,0.00390945 -0.103079,0.0546535 -0.0991693,0.113335 0.00390945,0.0586811 0.0546535,0.103079 0.113335,0.0991693l0.605 -0.0414961 1.05624 3.08088c0.0190984,0.055689 0.0797283,0.0853504 0.135417,0.066252 0.055689,-0.0190984 0.0853504,-0.0797283 0.066252,-0.135417l-1.08135 -3.15412c-0.013937,-0.0467598 -0.0587953,-0.0793268 -0.109512,-0.0758504l1.1811e-005 0.000181102 -0.686228 0.0470669zm2.02366 3.20283c-0.055689,0.0190984 -0.0853504,0.0797283 -0.066252,0.135417 0.0190984,0.055689 0.0797283,0.0853504 0.135417,0.066252l2.85551 -0.978984c0.055689,-0.0190984 0.0853504,-0.0797283 0.066252,-0.135417 -0.0190984,-0.055689 -0.0797283,-0.0853504 -0.135417,-0.066252l-2.85551 0.978984z"/>
  <path class="fil1" d="M2.72848 4.49122c0.168976,0 0.321969,0.0685039 0.432717,0.179252 0.110748,0.110748 0.179252,0.26374 0.179252,0.432717 0,0.168976 -0.0685039,0.321972 -0.179252,0.43272 -0.110748,0.110748 -0.26374,0.179248 -0.432717,0.179248 -0.168976,0 -0.321969,-0.0685039 -0.432717,-0.179252 -0.110748,-0.110748 -0.179252,-0.26374 -0.179252,-0.432717 0,-0.168976 0.0685039,-0.321969 0.179252,-0.432717 0.110748,-0.110748 0.26374,-0.179252 0.432717,-0.179252zm0.281882 0.330087c-0.0721299,-0.0721299 -0.171791,-0.116748 -0.281882,-0.116748 -0.110091,0 -0.209752,0.0446181 -0.281882,0.116748 -0.0721299,0.0721299 -0.116748,0.171791 -0.116748,0.281882 0,0.110091 0.0446181,0.209752 0.116748,0.281882 0.0721299,0.0721299 0.171791,0.116748 0.281882,0.116748 0.110091,0 0.209752,-0.0446142 0.281882,-0.116744 0.0721299,-0.0721299 0.116748,-0.171795 0.116748,-0.281886 0,-0.110091 -0.0446181,-0.209752 -0.116748,-0.281882z"/>
  <circle class="fil2" cx="2.72848" cy="5.10319" r="0.31719"/>
  <path class="fil1" d="M2.28971 1.7198l0.884969 -0.32372c0.0812677,-0.0297244 0.167331,-0.0235 0.240508,0.0104764 0.0733346,0.0340551 0.133756,0.0959213 0.163551,0.177378l0.729047 1.993c0.0297244,0.0812717 0.0234921,0.167335 -0.0104843,0.240508 -0.0340512,0.0733386 -0.0959213,0.133756 -0.177374,0.163547l-0.884965 0.323724c-0.0812677,0.0297244 -0.167339,0.0234961 -0.240516,-0.0104803 -0.0733307,-0.0340472 -0.133752,-0.0959173 -0.163547,-0.177374l-0.729039 -1.993c-0.0297283,-0.0812677 -0.0235,-0.167335 0.0104764,-0.240512 0.0340472,-0.0733346 0.0959173,-0.133752 0.177374,-0.163551z"/>
  <path class="fil1" d="M4.013 1.65963l0.704744 -0.257795c0.0647205,-0.0236693 0.133256,-0.0187165 0.191531,0.00834252 0.0584016,0.0271181 0.10652,0.0763858 0.130244,0.14126l0.580583 1.58713c0.0236732,0.0647244 0.0187087,0.13326 -0.00835039,0.191531 -0.0271142,0.0584055 -0.0763858,0.10652 -0.141252,0.130244l-0.704748 0.257799c-0.0647165,0.0236693 -0.13326,0.0187126 -0.191531,-0.00834646 -0.0584016,-0.0271142 -0.10652,-0.0763819 -0.130244,-0.141252l-0.580575 -1.58714c-0.0236732,-0.0647165 -0.0187165,-0.133256 0.00834252,-0.191531 0.0271142,-0.0584016 0.0763819,-0.106516 0.141256,-0.130248z"/>
 </g>
</svg>
