<?xml version="1.0" encoding="UTF-8"?>
<!DOCTYPE svg PUBLIC "-//W3C//DTD SVG 1.1//EN" "http://www.w3.org/Graphics/SVG/1.1/DTD/svg11.dtd">
<!-- Creator: CorelDRAW -->
<svg xmlns="http://www.w3.org/2000/svg" xml:space="preserve" width="6.82666in" height="6.82666in" style="shape-rendering:geometricPrecision; text-rendering:geometricPrecision; image-rendering:optimizeQuality; fill-rule:evenodd; clip-rule:evenodd"
viewBox="0 0 6.82666 6.82666"
 xmlns:xlink="http://www.w3.org/1999/xlink">
 <defs>
  <style type="text/css">
   <![CDATA[
    .fil0 {fill:#FFCA28}
    .fil1 {fill:#FFFFFE}
    .fil2 {fill:#FFFFFE;fill-rule:nonzero}
   ]]>
  </style>
 </defs>
 <g id="Layer_x0020_1">
  <metadata id="CorelCorpID_0Corel-Layer"/>
  <rect class="fil0" width="6.82666" height="6.82666" rx="0.853335" ry="0.853335"/>
  <g id="_470060328">
   <path id="_470059920" class="fil1" d="M3.84737 0.862811l0.0522362 0.11363 0.181858 0.39561 0.420059 -0.197197 0.112972 -0.0530315 0.0145669 0.124197 0.0506575 0.432071 0.46039 -0.0577362 0.123882 -0.0155315 -0.0245315 0.122634 -0.0854252 0.427039 0.455264 0.0872756 0.122807 0.0235472 -0.0611535 0.108921 -0.213205 0.379724 0.406028 0.223689 0.109547 0.0603543 -0.0919331 0.0847992 -0.320028 0.295185 0.317039 0.338224 0.0854409 0.0911575 -0.11363 0.0522362 -0.39561 0.181858 0.197197 0.420059 0.0530315 0.112972 -0.124197 0.0145669 -0.432071 0.0506575 0.0577362 0.46039 0.0155315 0.123882 -0.122638 -0.0245315 -0.427035 -0.0854252 -0.0872756 0.455264 -0.0235472 0.122807 -0.108921 -0.0611535 -0.379724 -0.213205 -0.223689 0.406028 -0.0603543 0.109547 -0.0847992 -0.0919331 -0.295189 -0.320031 -0.338228 0.317043 -0.0911535 0.0854409 -0.0522362 -0.11363 -0.181854 -0.39561 -0.420059 0.197197 -0.112972 0.0530315 -0.0145669 -0.124197 -0.0506575 -0.432071 -0.46039 0.0577362 -0.123882 0.0155315 0.0245315 -0.122638 0.0854252 -0.427035 -0.455268 -0.0872756 -0.122807 -0.0235472 0.0611535 -0.108921 0.213209 -0.379724 -0.406028 -0.223689 -0.109551 -0.0603543 0.091937 -0.0847992 0.320031 -0.295189 -0.317043 -0.338228 -0.0854409 -0.0911535 0.11363 -0.0522362 0.39561 -0.181854 -0.197197 -0.420059 -0.0530315 -0.112972 0.124197 -0.0145669 0.432071 -0.0506575 -0.0577362 -0.46039 -0.0155315 -0.123882 0.122634 0.0245315 0.427039 0.0854252 0.0872756 -0.455268 0.0235472 -0.122807 0.108921 0.0611535 0.379724 0.213209 0.223689 -0.406028 0.0603543 -0.109551 0.0847992 0.091937 0.295185 0.320024 0.338224 -0.317035 0.0911575 -0.0854409zm-0.434043 0.864646c0.465524,0 0.887,0.188701 1.19209,0.493787 0.305087,0.305087 0.493787,0.726563 0.493787,1.19209 0,0.465524 -0.188701,0.887 -0.493787,1.19209 -0.305087,0.305087 -0.726563,0.493787 -1.19209,0.493787 -0.465524,0 -0.887,-0.188701 -1.19209,-0.493787 -0.305087,-0.305087 -0.493787,-0.726563 -0.493787,-1.19209 0,-0.465524 0.188701,-0.887 0.493787,-1.19209 0.305087,-0.305087 0.726563,-0.493787 1.19209,-0.493787z"/>
   <path id="_470060112" class="fil2" d="M2.35523 2.59072l0.303669 0c0.0601299,0 0.105051,0.00248031 0.134591,0.0076063 0.0295354,0.00495669 0.0558858,0.0153898 0.0792323,0.0313031 0.0233425,0.0159213 0.042622,0.0369646 0.058189,0.0634961 0.0155591,0.0263504 0.0233425,0.056063 0.0233425,0.0887835 0,0.0355512 -0.00954724,0.0682638 -0.0286496,0.0979803 -0.0192795,0.0297126 -0.0452756,0.052 -0.0779961,0.0668504 0.0461614,0.0134449 0.0818858,0.0364331 0.106646,0.0687992 0.024937,0.0325433 0.037315,0.0707441 0.037315,0.114606 0,0.0344843 -0.00795276,0.0680906 -0.0240512,0.100811 -0.0160906,0.0325394 -0.0380236,0.0587165 -0.0657874,0.0781732 -0.0277677,0.0194488 -0.0620827,0.0314803 -0.102933,0.0360748 -0.0254685,0.00265748 -0.0871929,0.00442126 -0.184996,0.00512992l-0.258571 0 0 -0.759614zm0.153516 0.126461l0 0.175614 0.100457 0c0.0597756,0 0.0969213,-0.000877953 0.111421,-0.00264961 0.0261732,-0.00300787 0.0468661,-0.0120236 0.0618976,-0.0270591 0.0150354,-0.0150315 0.0224646,-0.0348386 0.0224646,-0.0594213 0,-0.0235276 -0.00636614,-0.0426299 -0.0192795,-0.0573031 -0.0130866,-0.0146811 -0.0323661,-0.0235276 -0.0578307,-0.0265315 -0.0152087,-0.00176772 -0.0588976,-0.00264961 -0.131055,-0.00264961l-0.0880748 0zm0 0.302075l0 0.203031 0.141839 0c0.0553622,0 0.090378,-0.00141732 0.105236,-0.00459843 0.022811,-0.00406693 0.0413819,-0.0143268 0.0557087,-0.0302402 0.0143228,-0.0160984 0.0215748,-0.0376732 0.0215748,-0.0645551 0,-0.022815 -0.00565748,-0.0420906 -0.016622,-0.0580118 -0.0111417,-0.0159134 -0.027063,-0.0275866 -0.0479291,-0.0348386 -0.0208701,-0.00725197 -0.0663228,-0.0107874 -0.136008,-0.0107874l-0.123799 0zm0.929925 0.155988l0.145201 0.0242283c-0.0187441,0.0532323 -0.0481024,0.0937362 -0.0884291,0.121504 -0.0401457,0.0279409 -0.0905472,0.0417402 -0.151035,0.0417402 -0.095685,0 -0.166425,-0.0311299 -0.212409,-0.0937362 -0.0362559,-0.0500512 -0.0544685,-0.113366 -0.0544685,-0.189594 0,-0.0912559 0.023874,-0.162709 0.071622,-0.214354 0.0475787,-0.0516417 0.107886,-0.0774646 0.180756,-0.0774646 0.0818858,0 0.146441,0.0270591 0.193835,0.0811772 0.0472205,0.054122 0.0698622,0.136894 0.0679134,0.248488l-0.364858 0c0.00105906,0.0431535 0.0127323,0.0767598 0.0351929,0.100634 0.0224606,0.0240512 0.0505866,0.0360787 0.0840079,0.0360787 0.0228189,0 0.0419134,-0.00618898 0.0574803,-0.0185709 0.0155669,-0.0125551 0.0274134,-0.0325433 0.0351929,-0.0601299zm0.00831496 -0.14715c-0.00106299,-0.0422677 -0.0118504,-0.0742795 -0.0325433,-0.0962047 -0.020689,-0.0219331 -0.0459803,-0.0328976 -0.0756969,-0.0328976 -0.0318346,0 -0.0580118,0.0116693 -0.0787008,0.0348386 -0.0206929,0.0229961 -0.0309488,0.0544764 -0.0305945,0.0942638l0.217535 0zm0.212051 0.165189l0.146087 -0.0222874c0.00618898,0.0282992 0.018748,0.049874 0.0378465,0.0645551 0.0189252,0.0146811 0.0454567,0.0221102 0.0797677,0.0221102 0.0376693,0 0.0659646,-0.00689764 0.0848898,-0.0208701 0.0129094,-0.00954724 0.0192795,-0.0226378 0.0192795,-0.0387323 0,-0.0111417 -0.00353543,-0.0203425 -0.0104331,-0.0275866 -0.00725197,-0.00690157 -0.0235276,-0.0132677 -0.0486417,-0.0191024 -0.117433,-0.0258228 -0.19189,-0.0495197 -0.22337,-0.0709213 -0.0435079,-0.0297126 -0.0652638,-0.0710984 -0.0652638,-0.123976 0,-0.0475787 0.018748,-0.0877283 0.0564173,-0.120094 0.0376732,-0.0325394 0.0960394,-0.048811 0.175091,-0.048811 0.0753465,0 0.131409,0.0123819 0.16802,0.0367913 0.0366102,0.0245827 0.0617244,0.0608386 0.0755197,0.108941l-0.137244 0.0252913c-0.00583465,-0.0213976 -0.0169803,-0.0378465 -0.0334252,-0.0491654 -0.0164528,-0.0114961 -0.0397953,-0.0171535 -0.0702126,-0.0171535 -0.0383819,0 -0.0657953,0.00530315 -0.0824173,0.0160906 -0.0109646,0.0076063 -0.0164488,0.0175079 -0.0164488,0.0295394 0,0.0104331 0.00477559,0.0190945 0.0145,0.0263465 0.0130906,0.00973228 0.0583661,0.0233504 0.136008,0.0410354 0.0774646,0.0175079 0.131583,0.0390866 0.162354,0.0647323 0.0304213,0.0259921 0.0456339,0.0620748 0.0456339,0.108232 0,0.0504055 -0.0210472,0.0939134 -0.0633189,0.130173 -0.0420906,0.0362559 -0.104343,0.0542953 -0.186937,0.0542953 -0.0749921,0 -0.134236,-0.0152087 -0.178098,-0.0456339 -0.043685,-0.0302402 -0.0721614,-0.071626 -0.0856024,-0.123799zm0.893673 -0.393157l0 0.11602 -0.0993976 0 0 0.221783c0,0.0449213 0.00088189,0.0710984 0.00283071,0.0785236 0.00194488,0.00742913 0.00618898,0.0134409 0.0129094,0.0183898 0.00672047,0.00477953 0.0150354,0.00725197 0.0245827,0.00725197 0.013622,0 0.0330748,-0.00477165 0.0587205,-0.0139724l0.012378 0.112843c-0.0339567,0.0145 -0.0721575,0.021752 -0.115134,0.021752 -0.0261772,0 -0.049874,-0.00442126 -0.0709213,-0.0130906 -0.0210433,-0.00883858 -0.0364331,-0.0203386 -0.0463346,-0.0343071 -0.00990945,-0.0139724 -0.0166299,-0.0328976 -0.0205197,-0.0567717 -0.00300787,-0.0168071 -0.00459449,-0.0511142 -0.00459449,-0.102579l0 -0.239823 -0.0668583 0 0 -0.11602 0.0668583 0 0 -0.109476 0.146083 -0.0848937 0 0.19437 0.0993976 0zm-2.34577 1.42343l0 -0.75961 0.246012 0c0.0932047,0 0.154043,0.00388976 0.182343,0.0114961 0.0435079,0.0113189 0.0801181,0.0360787 0.109476,0.0742795 0.0293583,0.0382047 0.0440394,0.0875472 0.0440394,0.147858 0,0.0466929 -0.00849213,0.0859528 -0.0254685,0.11761 -0.0169803,0.0318346 -0.038378,0.0567717 -0.0645551,0.0749882 -0.026,0.0180433 -0.0525276,0.030063 -0.0794134,0.0359055 -0.0366063,0.00725197 -0.0896614,0.0109606 -0.159169,0.0109606l-0.0999252 0 0 0.286512 -0.153339 0zm0.153339 -0.631035l0 0.215417 0.0838307 0c0.0604882,0 0.100984,-0.00388976 0.121327,-0.0118504 0.0203386,-0.00796063 0.036252,-0.0203386 0.0479252,-0.037315 0.0115,-0.0169803 0.0173346,-0.0366102 0.0173346,-0.0590748 0,-0.0275866 -0.00813386,-0.0504055 -0.0244055,-0.0684449 -0.0160945,-0.0178622 -0.0367913,-0.0291772 -0.0615512,-0.0335984 -0.0183898,-0.00353937 -0.0551772,-0.00513386 -0.110358,-0.00513386l-0.0741024 0zm0.692756 0.631035l-0.145555 0 0 -0.550205 0.135118 0 0 0.0781693c0.0231732,-0.0369646 0.0440394,-0.0613701 0.0624331,-0.0730433 0.0185748,-0.0116732 0.0394409,-0.017685 0.0629606,-0.017685 0.033252,0 0.0650866,0.00919291 0.0958583,0.0275866l-0.0450984 0.126811c-0.0244055,-0.0157402 -0.0472205,-0.0237008 -0.0682677,-0.0237008 -0.0205118,0 -0.0376693,0.00548425 -0.051815,0.0168031 -0.0143268,0.0111378 -0.0252913,0.0314803 -0.0334291,0.0608425 -0.0081378,0.0293543 -0.0122047,0.0909016 -0.0122047,0.184461l0 0.169961zm0.273602 -0.624846l0 -0.134764 0.145555 0 0 0.134764 -0.145555 0zm0 0.624846l0 -0.550205 0.145555 0 0 0.550205 -0.145555 0zm0.774642 -0.387496l-0.14361 0.0258228c-0.00477165,-0.0286535 -0.0157362,-0.0502283 -0.0328976,-0.0647323 -0.0171535,-0.0145039 -0.0392598,-0.021752 -0.0664961,-0.021752 -0.0364331,0 -0.0652638,0.0125512 -0.0868386,0.0374882 -0.0215748,0.0251142 -0.0323622,0.0670354 -0.0323622,0.125752 0,0.0652598 0.0109606,0.111421 0.0328937,0.138303 0.0219291,0.0268858 0.0512913,0.0403228 0.0882559,0.0403228 0.0277638,0 0.0502244,-0.00778346 0.0679094,-0.0235236 0.017689,-0.0157362 0.0300669,-0.0427992 0.0373189,-0.081l0.143079 0.0242283c-0.0148543,0.0656181 -0.0435079,0.115315 -0.0855984,0.148744 -0.0420906,0.0335984 -0.0985079,0.0502283 -0.169433,0.0502283 -0.0804724,0 -0.144669,-0.0252913 -0.192425,-0.0760512 -0.0479252,-0.0507598 -0.0717992,-0.12115 -0.0717992,-0.210996 0,-0.0907283 0.0240512,-0.161476 0.0719764,-0.212051 0.0481102,-0.0507598 0.113016,-0.0760512 0.194902,-0.0760512 0.0670315,0 0.120264,0.0145 0.159882,0.0433307 0.0394409,0.0288268 0.0679134,0.0728622 0.0852441,0.131937zm0.428882 0.212406l0.145201 0.0242283c-0.0187441,0.0532362 -0.0481024,0.0937362 -0.0884291,0.121504 -0.0401457,0.0279449 -0.0905472,0.0417441 -0.151035,0.0417441 -0.095685,0 -0.166425,-0.0311339 -0.212409,-0.0937402 -0.0362559,-0.0500512 -0.0544685,-0.113366 -0.0544685,-0.189594 0,-0.0912559 0.023874,-0.162709 0.071622,-0.214354 0.0475787,-0.0516378 0.107886,-0.0774606 0.180756,-0.0774606 0.0818858,0 0.146441,0.0270551 0.193835,0.0811772 0.0472205,0.0541181 0.0698622,0.13689 0.0679134,0.248484l-0.364858 0c0.00105906,0.0431535 0.0127323,0.0767598 0.0351929,0.100634 0.0224606,0.0240512 0.0505827,0.0360827 0.0840079,0.0360827 0.0228189,0 0.0419134,-0.00618898 0.0574803,-0.0185709 0.0155669,-0.0125551 0.0274134,-0.0325433 0.0351929,-0.0601339zm0.00831496 -0.14715c-0.00106299,-0.0422677 -0.0118504,-0.0742795 -0.0325433,-0.0962047 -0.020689,-0.0219331 -0.0459803,-0.0328976 -0.0756969,-0.0328976 -0.0318346,0 -0.0580118,0.0116693 -0.0787008,0.0348386 -0.0206929,0.0229961 -0.0309488,0.0544764 -0.0305945,0.0942638l0.217535 0z"/>
  </g>
 </g>
</svg>
