<?xml version="1.0" encoding="UTF-8"?>
<!DOCTYPE svg PUBLIC "-//W3C//DTD SVG 1.1//EN" "http://www.w3.org/Graphics/SVG/1.1/DTD/svg11.dtd">
<!-- Creator: CorelDRAW -->
<svg xmlns="http://www.w3.org/2000/svg" xml:space="preserve" width="6.82666in" height="6.82666in" style="shape-rendering:geometricPrecision; text-rendering:geometricPrecision; image-rendering:optimizeQuality; fill-rule:evenodd; clip-rule:evenodd"
viewBox="0 0 6.82666 6.82666"
 xmlns:xlink="http://www.w3.org/1999/xlink">
 <defs>
  <style type="text/css">
   <![CDATA[
    .fil0 {fill:#FFCA28}
    .fil1 {fill:#FFFFFE;fill-rule:nonzero}
   ]]>
  </style>
 </defs>
 <g id="Layer_x0020_1">
  <metadata id="CorelCorpID_0Corel-Layer"/>
  <rect class="fil0" width="6.82666" height="6.82666" rx="0.853335" ry="0.853335"/>
  <polygon class="fil1" points="3.52,3.7635 3.52,5.87569 3.30667,5.87569 3.30667,3.7635 "/>
  <path class="fil1" d="M4.43755 3.75537c-0.00648819,0.0381575 -0.0318071,0.0708898 -0.0649213,0.0909567 -0.0235197,0.0142559 -0.0535354,0.0238386 -0.0823622,0.0238386l-1.75435 0c-0.0292874,0 -0.0595197,-0.00961417 -0.0827717,-0.0238937 -0.033752,-0.0207047 -0.0590276,-0.0545276 -0.0643386,-0.0942441l-5.51181e-005 7.87402e-006c-0.0182874,-0.135969 -0.0119252,-0.287827 0.00725984,-0.425303 0.023685,-0.169756 0.0681969,-0.32263 0.110913,-0.400413l0.000417323 -0.000413386c0.0229803,-0.0414409 0.0521142,-0.0775039 0.0856929,-0.119071l0.00347638 -0.00430315 0.000417323 -0.000417323c0.0456535,-0.0558701 0.0968386,-0.118681 0.133697,-0.197866 0.0357323,-0.0767835 0.0595236,-0.172504 0.0542756,-0.299665 -0.00408268,-0.0952874 -0.0365827,-0.178957 -0.0807992,-0.249776 -0.0665118,-0.106528 -0.159866,-0.18461 -0.226295,-0.231252 -0.0259803,-0.0182362 -0.0512598,-0.0440787 -0.0701575,-0.0699528 -0.0234685,-0.0321339 -0.0392402,-0.0693189 -0.0407126,-0.102846l-8.66142e-005 3.93701e-006c-0.00448031,-0.0962402 0.0121496,-0.178224 0.0379803,-0.24611 0.0255512,-0.0671496 0.0604488,-0.120764 0.0929016,-0.160815l-0.000145669 -0.000114173c0.0178543,-0.0227126 0.0532008,-0.0453819 0.0922953,-0.0604016 0.0293071,-0.0112559 0.0634409,-0.0202992 0.0941732,-0.023 0.118831,-0.0104606 0.204185,-0.0252953 0.259685,-0.0583858 0.0473228,-0.0282126 0.0788425,-0.0769409 0.100772,-0.159594l0.0257756 -0.0971299 0.0979764 0.0196299c0.0325709,0.00652362 0.139492,0.00979528 0.247496,0.00972047 0.106665,-7.87402e-005 0.210555,-0.0032874 0.241327,-0.00970079l0.0986142 -0.0205551 0.0259685 0.0976378c0.0220472,0.0829134 0.0534409,0.131732 0.100618,0.159929 0.0554331,0.033126 0.140748,0.0479606 0.25989,0.0584488l-3.93701e-006 3.54331e-005c0.0323583,0.00279528 0.0659567,0.0114843 0.0941102,0.0222441 0.0384921,0.0147165 0.073378,0.0373898 0.0916417,0.059874 0.0369606,0.045374 0.077252,0.108878 0.103654,0.190988 0.0199449,0.0620472 0.0319094,0.134484 0.0283346,0.217299 -0.0015748,0.033622 -0.0176063,0.0709567 -0.0412756,0.103102 -0.0184252,0.0250236 -0.0434921,0.0504961 -0.0697992,0.0692756l-0.000413386 0.000417323c-0.0664291,0.0466378 -0.159799,0.124732 -0.226224,0.231287 -0.0440945,0.0707323 -0.0764488,0.15437 -0.0803425,0.24974 -0.0108307,0.253579 0.0990118,0.388732 0.186913,0.496882l0.000527559 0.000649606 -4.33071e-005 3.54331e-005c0.016815,0.0205118 0.0324606,0.0396142 0.0474409,0.0595512 0.0167874,0.0223307 0.031378,0.0438504 0.0430197,0.0654528l-0.000114173 6.29921e-005c0.0432283,0.0782874 0.0874882,0.229843 0.111055,0.397953 0.0193307,0.137886 0.0256929,0.290386 0.00731496,0.426866l-0.000417323 0.00333465z"/>
  <path class="fil1" d="M2.75513 5.76902c-0.0589094,0 -0.106669,0.0477598 -0.106669,0.106669 0,0.0589094 0.0477598,0.106669 0.106669,0.106669l1.31642 0c0.0589094,0 0.106669,-0.0477598 0.106669,-0.106669 0,-0.0589094 -0.0477598,-0.106669 -0.106669,-0.106669l-1.31642 0z"/>
 </g>
</svg>
