<?xml version="1.0" encoding="UTF-8"?>
<!DOCTYPE svg PUBLIC "-//W3C//DTD SVG 1.1//EN" "http://www.w3.org/Graphics/SVG/1.1/DTD/svg11.dtd">
<!-- Creator: CorelDRAW -->
<svg xmlns="http://www.w3.org/2000/svg" xml:space="preserve" width="6.82666in" height="6.82666in" style="shape-rendering:geometricPrecision; text-rendering:geometricPrecision; image-rendering:optimizeQuality; fill-rule:evenodd; clip-rule:evenodd"
viewBox="0 0 6.82666 6.82666"
 xmlns:xlink="http://www.w3.org/1999/xlink">
 <defs>
  <style type="text/css">
   <![CDATA[
    .fil0 {fill:#8BC34A}
    .fil1 {fill:#FFFFFE}
    .fil2 {fill:#FFFFFE;fill-rule:nonzero}
   ]]>
  </style>
 </defs>
 <g id="Layer_x0020_1">
  <metadata id="CorelCorpID_0Corel-Layer"/>
  <rect class="fil0" width="6.82666" height="6.82666" rx="0.853335" ry="0.853335"/>
  <g id="_470071632">
   <g>
    <path id="_470056128" class="fil1" d="M1.47585 1.46006l0.34178 0c-0.00585039,0.0444409 -0.00870472,0.0892756 -0.00870472,0.133531 0,0.011748 0.000251969,0.0235079 0.000673228,0.035248 -0.0179409,0.0219134 -0.0289843,0.051752 -0.0289843,0.0846457 0,0.0672638 0.0461693,0.121791 0.103122,0.121791 0.0569488,0 0.103118,-0.0545276 0.103118,-0.121791 0,-0.0468465 -0.0223976,-0.0875079 -0.0552283,-0.107882 -4.72441e-005,-0.00400394 -6.29921e-005,-0.00801181 -6.29921e-005,-0.0120118 0,-0.0440512 0.0033622,-0.0891142 0.0104055,-0.133531l0.548154 0c0.00704331,0.0444173 0.0104055,0.0894803 0.0104055,0.133531 0,0.00399606 -1.1811e-005,0.008 -5.11811e-005,0.0120039 -0.0328386,0.020374 -0.0552441,0.0610394 -0.0552441,0.10789 0,0.0672638 0.0461693,0.121791 0.103122,0.121791 0.0569528,0 0.103118,-0.0545276 0.103118,-0.121791 0,-0.0329016 -0.0110472,-0.062752 -0.029,-0.0846693 0.000413386,-0.0117323 0.000692913,-0.0234882 0.000692913,-0.0352244 0,-0.0442559 -0.00285433,-0.0890906 -0.00870472,-0.133531l0.337075 0 0.443417 1.59051 -2.35781 0 0.438713 -1.59051z"/>
    <path id="_470056176" class="fil2" d="M2.52778 1.66149c0.00080315,-0.0106693 0.00142913,-0.0219882 0.00187795,-0.0338858 0.000362205,-0.00965748 0.000543307,-0.0210118 0.000543307,-0.0340157 0,-0.150472 -0.036437,-0.286122 -0.0953504,-0.383791 -0.0566969,-0.0940079 -0.134114,-0.152157 -0.218803,-0.152157 -0.084685,0 -0.162102,0.0581496 -0.218799,0.152157 -0.0589134,0.0976693 -0.0953504,0.233319 -0.0953504,0.383791 0,0.0144331 0.000259843,0.0275945 0.000775591,0.0394567 0.000570866,0.0131063 0.00143307,0.0261969 0.00257087,0.0392283l-0.0628031 0.00759449c-0.00124803,-0.0142756 -0.00218898,-0.0286299 -0.0028189,-0.0430276 -0.000681102,-0.0156496 -0.00102362,-0.0300866 -0.00102362,-0.043252 0,-0.166165 0.0409764,-0.317189 0.107217,-0.427016 0.0684528,-0.113496 0.163945,-0.183693 0.270232,-0.183693 0.106291,0 0.201783,0.0701969 0.270236,0.183693 0.0662402,0.109827 0.107217,0.26085 0.107217,0.427016 0,0.0107638 -0.00026378,0.0231772 -0.000791339,0.0372244 -0.000444882,0.011811 -0.00115354,0.024185 -0.00212598,0.0371024l-0.0628031 -0.0064252z"/>
    <ellipse id="_470055984" class="fil1" cx="1.88374" cy="1.71348" rx="0.0734531" ry="0.0867547"/>
    <ellipse id="_470072160" class="fil1" cx="2.54836" cy="1.71348" rx="0.0734531" ry="0.0867547"/>
   </g>
   <g>
    <path id="_470071728" class="fil1" d="M2.91299 3.45978l0.512287 0c-0.00876772,0.0666142 -0.0130433,0.133815 -0.0130433,0.20015 0,0.0176102 0.000374016,0.0352362 0.00100787,0.0528346 -0.0268898,0.0328465 -0.0434409,0.0775709 -0.0434409,0.126874 0,0.100819 0.0692008,0.182555 0.154563,0.182555 0.0853661,0 0.154567,-0.0817362 0.154567,-0.182555 0,-0.0702165 -0.0335709,-0.131165 -0.0827835,-0.161705 -6.69291e-005,-0.006 -9.44882e-005,-0.0120079 -9.44882e-005,-0.0180039 0,-0.0660315 0.00503937,-0.133575 0.0155984,-0.20015l0.821622 0c0.010563,0.0665748 0.0156024,0.134118 0.0156024,0.20015 0,0.00599213 -2.3622e-005,0.0119961 -8.26772e-005,0.0179961 -0.0492205,0.0305354 -0.0827992,0.0914882 -0.0827992,0.161713 0,0.100819 0.0692008,0.182555 0.154567,0.182555 0.0853622,0 0.154567,-0.0817362 0.154567,-0.182555 0,-0.0493189 -0.0165669,-0.094063 -0.0434724,-0.126913 0.00061811,-0.0175827 0.00103543,-0.0352008 0.00103543,-0.0527953 0,-0.0663346 -0.00427559,-0.133535 -0.0130433,-0.20015l0.50524 0 0.664634 2.384 -3.53411 0 0.657583 -2.384z"/>
    <path id="_470071608" class="fil2" d="M4.48971 3.7617c0.00120472,-0.0159961 0.00214961,-0.0329567 0.0028189,-0.0507953 0.00053937,-0.0144724 0.000814961,-0.0314921 0.000814961,-0.0509843 0,-0.225539 -0.0546181,-0.42887 -0.142921,-0.575264 -0.0849843,-0.140909 -0.201024,-0.228063 -0.327961,-0.228063 -0.126937,0 -0.242976,0.0871535 -0.327961,0.228063 -0.0883031,0.146394 -0.142921,0.349724 -0.142921,0.575264 0,0.0216339 0.000393701,0.0413583 0.00116535,0.0591417 0.000854331,0.0196457 0.00214567,0.0392638 0.00385433,0.0587992l-0.0941378 0.0113819c-0.00187008,-0.0213937 -0.00328346,-0.0429094 -0.00422441,-0.0644921 -0.00101969,-0.0234528 -0.00153543,-0.0450945 -0.00153543,-0.0648307 0,-0.249067 0.0614213,-0.475433 0.160709,-0.640051 0.102602,-0.170118 0.245732,-0.275339 0.405051,-0.275339 0.159319,0 0.302449,0.10522 0.405051,0.275339 0.0992913,0.164618 0.160709,0.390984 0.160709,0.640051 0,0.0161339 -0.000397638,0.0347402 -0.00118898,0.0557992 -0.000665354,0.0177008 -0.00172441,0.036252 -0.00318504,0.0556063l-0.0941378 -0.00962598z"/>
    <ellipse id="_470071368" class="fil1" cx="3.52437" cy="3.83963" rx="0.110099" ry="0.130036"/>
    <ellipse id="_470072016" class="fil1" cx="4.52056" cy="3.83963" rx="0.110099" ry="0.130036"/>
   </g>
  </g>
 </g>
</svg>
