<?xml version="1.0" encoding="UTF-8"?>
<!DOCTYPE svg PUBLIC "-//W3C//DTD SVG 1.1//EN" "http://www.w3.org/Graphics/SVG/1.1/DTD/svg11.dtd">
<!-- Creator: CorelDRAW -->
<svg xmlns="http://www.w3.org/2000/svg" xml:space="preserve" width="6.82666in" height="6.82666in" style="shape-rendering:geometricPrecision; text-rendering:geometricPrecision; image-rendering:optimizeQuality; fill-rule:evenodd; clip-rule:evenodd"
viewBox="0 0 6.82666 6.82666"
 xmlns:xlink="http://www.w3.org/1999/xlink">
 <defs>
  <style type="text/css">
   <![CDATA[
    .fil0 {fill:#C0CA33}
    .fil1 {fill:#FFFFFE}
    .fil2 {fill:#FFFFFE;fill-rule:nonzero}
   ]]>
  </style>
 </defs>
 <g id="Layer_x0020_1">
  <metadata id="CorelCorpID_0Corel-Layer"/>
  <rect class="fil0" width="6.82666" height="6.82666" rx="0.853335" ry="0.853335"/>
  <g id="_477835296">
   <g>
    <g>
     <path id="_477835992" class="fil1" d="M2.97846 2.09277l0.161929 -0.115646 0.00108268 0.0013622 0.14285 -0.104154 0.0793228 -0.0566496c0.0465827,0.0517087 0.0899764,0.107894 0.128039,0.167331 -0.0454252,0.0542559 -0.0504173,0.134287 -0.00738189,0.194547 0.0510709,0.0715118 0.150441,0.0880787 0.221953,0.0370079 0.0715079,-0.0510709 0.0880787,-0.150441 0.0370079,-0.221953 -0.0193307,-0.0270669 -0.0455866,-0.0462559 -0.074626,-0.0568898 -0.0463937,-0.0792913 -0.101327,-0.154122 -0.161421,-0.222579l0.318079 -0.227161c0.10848,-0.0774764 0.272343,-0.0293976 0.370622,0.101909l1.73325 2.31573c0.0655157,0.0875276 0.0563898,0.20413 -0.0159055,0.25576l-1.08352 0.773815c-0.0722992,0.0516339 -0.185524,0.0224685 -0.247087,-0.067937l-1.62806 -2.39086c-0.0923425,-0.135606 -0.084622,-0.306161 0.0238583,-0.383638zm0.730378 0.72972l0.569717 -0.406874 0.961701 1.3466 -0.569717 0.406874 -0.961701 -1.3466z"/>
     <path id="_477835176" class="fil2" d="M3.1797 1.94802l0.0648307 -0.0454252c-0.138933,-0.174358 -0.213476,-0.30252 -0.220098,-0.359539 -0.00129528,-0.0111457 0.000854331,-0.0164724 0.00541732,-0.0168386 0.0218622,-0.00175197 0.0578504,0.0109724 0.102559,0.0357244 0.154693,0.0856417 0.381154,0.303508 0.492421,0.571224 0.00829528,0.0198858 0.0311457,0.0292835 0.0510276,0.0209921 0.0198858,-0.00829528 0.0292874,-0.0311457 0.0209921,-0.0510315 -0.118504,-0.285138 -0.360815,-0.517795 -0.526543,-0.609543 -0.0578189,-0.0320079 -0.109189,-0.0480827 -0.146772,-0.0450709 -0.0548937,0.00440157 -0.0843307,0.0374055 -0.076626,0.103732 0.00810236,0.069815 0.083878,0.208894 0.232791,0.395776z"/>
    </g>
    <circle id="_477835224" class="fil1" transform="matrix(0.66418 -0.474338 0.474338 0.66418 3.6377 2.09458)" r="0.100232"/>
   </g>
   <g>
    <g>
     <path id="_477835800" class="fil1" d="M2.57607 1.99868l-0.197547 -0.0238583 -0.000299213 0.00171654 -0.175295 -0.0229213 -0.0967717 -0.011689c-0.0160906,0.0677165 -0.0272362,0.137823 -0.0321457,0.208236 0.065874,0.0258346 0.108626,0.0936772 0.099748,0.167193 -0.0105354,0.0872402 -0.0897992,0.149417 -0.177043,0.138882 -0.0872402,-0.0105354 -0.149421,-0.0897953 -0.138882,-0.177039 0.00398819,-0.0330197 0.0178307,-0.0624488 0.0382126,-0.0857047 0.00270472,-0.0918228 0.0150394,-0.183831 0.0349606,-0.272717l-0.388051 -0.0468661c-0.132343,-0.0159843 -0.253098,0.104764 -0.276398,0.267118l-0.410894 2.8632c-0.0155315,0.10822 0.048374,0.206173 0.136575,0.216827l1.32186 0.159642c0.0882008,0.0106496 0.173587,-0.0692283 0.184268,-0.178079l0.282563 -2.8787c0.0160276,-0.16328 -0.0725118,-0.30926 -0.204858,-0.325244zm-0.291134 0.990551l-0.695035 -0.0839409 -0.198406 1.64281 0.695039 0.0839409 0.198402 -1.64281z"/>
     <path id="_477835560" class="fil2" d="M2.33007 1.96813l-0.0786693 -0.00878346c0.0383346,-0.219622 0.042311,-0.367831 0.0207835,-0.421043 -0.00420472,-0.0104055 -0.00864567,-0.0140472 -0.0128268,-0.012185 -0.0200236,0.00894488 -0.0455079,0.0373661 -0.072878,0.0805236 -0.0946969,0.149319 -0.188992,0.449083 -0.158291,0.73737 0.00225197,0.0214291 -0.0132913,0.0406339 -0.0347205,0.0428858 -0.0214252,0.00225197 -0.0406299,-0.0132913 -0.0428819,-0.0347205 -0.0327008,-0.307047 0.0684094,-0.62739 0.169862,-0.787358 0.0353976,-0.055811 0.0727717,-0.0945433 0.107201,-0.109917 0.0502835,-0.0224567 0.091937,-0.0076063 0.116976,0.0542992 0.0263583,0.0651535 0.0265315,0.223531 -0.0145551,0.458929z"/>
    </g>
    <circle id="_477835728" class="fil1" transform="matrix(-0.810281 -0.0978582 -0.0978584 0.810281 1.9984 2.31632)" r="0.100232"/>
   </g>
  </g>
 </g>
</svg>
