<?xml version="1.0" encoding="UTF-8"?>
<!DOCTYPE svg PUBLIC "-//W3C//DTD SVG 1.1//EN" "http://www.w3.org/Graphics/SVG/1.1/DTD/svg11.dtd">
<!-- Creator: CorelDRAW -->
<svg xmlns="http://www.w3.org/2000/svg" xml:space="preserve" width="6.82666in" height="6.82666in" style="shape-rendering:geometricPrecision; text-rendering:geometricPrecision; image-rendering:optimizeQuality; fill-rule:evenodd; clip-rule:evenodd"
viewBox="0 0 6.82666 6.82666"
 xmlns:xlink="http://www.w3.org/1999/xlink">
 <defs>
  <style type="text/css">
   <![CDATA[
    .fil0 {fill:#66BB6A}
    .fil1 {fill:#FFFFFE}
   ]]>
  </style>
 </defs>
 <g id="Layer_x0020_1">
  <metadata id="CorelCorpID_0Corel-Layer"/>
  <rect class="fil0" width="6.82666" height="6.82666" rx="0.853335" ry="0.853335"/>
  <g id="_318669144">
   <path id="_318669576" class="fil1" d="M1.85565 0.983024l0.732882 0 0 0.235705c0,0.0608268 0.024811,0.116055 0.0647756,0.156016 0.0399606,0.0399646 0.095189,0.0647756 0.156016,0.0647756l1.20802 0c0.0608268,0 0.116055,-0.024811 0.156016,-0.0647756 0.0399646,-0.0399606 0.0647756,-0.095189 0.0647756,-0.156016l0 -0.235705 0.732882 0c0.0756339,0 0.144315,0.030874 0.194043,0.0805984 0.0497283,0.0497283 0.0806024,0.118433 0.0806024,0.194047l0 4.44102c0,0.0756181 -0.0308819,0.144311 -0.0806142,0.194035 -0.0497244,0.0497283 -0.118413,0.0806102 -0.194031,0.0806102l-3.11537 0c-0.0756142,0 -0.144315,-0.030874 -0.194047,-0.0806024 -0.0497244,-0.0497244 -0.0805984,-0.118409 -0.0805984,-0.194043l0 -4.44102c0,-0.0756378 0.0308622,-0.144327 0.0805906,-0.194055 0.0497323,-0.0497283 0.118417,-0.0805906 0.194055,-0.0805906zm1.48681 2.27142l0 -0.273382c-0.0853346,-0.0245118 -0.147941,-0.0612756 -0.187827,-0.110736 -0.0396575,-0.0494646 -0.0597126,-0.109402 -0.0597126,-0.179807 0,-0.0712992 0.0225079,-0.131232 0.0675118,-0.179803 0.0452323,-0.0485709 0.105165,-0.0764213 0.180028,-0.0839961l0 -0.0646142 0.0944724 0 0 0.0646142c0.0692913,0.00846063 0.124327,0.0318583 0.165323,0.0708465 0.0407717,0.0389921 0.0668386,0.0911339 0.0782008,0.156409l-0.165094 0.0216142c-0.0100276,-0.0514685 -0.0360945,-0.0862244 -0.0784291,-0.104492l0 0.25511c0.1045,0.0282953 0.175795,0.065063 0.213445,0.110071 0.0378819,0.0450039 0.0568228,0.102709 0.0568228,0.173339 0,0.0786535 -0.0238425,0.145047 -0.0712992,0.198969 -0.047685,0.0541378 -0.114079,0.0871181 -0.198969,0.099374l0 0.122094 -0.0944724 0 0 -0.11898c-0.0753031,-0.00912992 -0.136579,-0.0372087 -0.183587,-0.0842205 -0.0470157,-0.0467874 -0.0768701,-0.113181 -0.0900157,-0.198965l0.170445 -0.0182717c0.00690945,0.0347598 0.0200512,0.0648386 0.0392165,0.0900157 0.018937,0.0251772 0.0403228,0.0434488 0.0639409,0.054811zm0.176461 -1.17185l-0.000322835 -3.54331e-005 -0.00543701 -0.000645669 -0.00547638 -0.000606299 -0.00547638 -0.000570866 -0.00548031 -0.000543307 -0.00551969 -0.000511811 -0.00549606 -0.000464567 -0.00550394 -0.000433071 -0.00551181 -0.000405512 -0.00553937 -0.000370079 -0.00555118 -0.000330709 -0.00555118 -0.00030315 -0.00556299 -0.000259843 -0.00555906 -0.000232283 -0.00559055 -0.00019685 -0.00558661 -0.000153543 -0.00557874 -0.000125984 -0.00562205 -8.66142e-005 -0.00560236 -5.51181e-005 -0.00561811 -2.3622e-005 0 0.0998622 0.00498819 1.5748e-005 0.00498425 4.33071e-005 0.00495276 7.87402e-005 0.00498031 0.000114173 0.00495669 0.000141732 0.0049252 0.000173228 0.00495276 0.000200787 0.00492913 0.000232283 0.00491339 0.00026378 0.00490945 0.000295276 0.0048937 0.000330709 0.00490945 0.000354331 0.00489764 0.000393701 0.00487795 0.000413386 0.00484646 0.000440945 0.00487008 0.000488189 0.00485433 0.0005 0.00482677 0.000543307 0.00485433 0.000566929 0.000318898 3.54331e-005 0.0119449 -0.0991339zm-0.168972 -0.00406299l-0.00348819 0.000251969 -0.00550394 0.000433071 -0.00549606 0.000464567 -0.00551969 0.000511811 -0.00548031 0.000543307 -0.00547638 0.000570866 -0.00547638 0.000606299 -0.00543701 0.000645669 -0.00544882 0.000665354 -0.00544882 0.000712598 -0.00542126 0.000744094 -0.00541732 0.000771654 -0.00540945 0.000811024 -0.00538976 0.00084252 -0.00538976 0.000874016 -0.00537795 0.000905512 -0.00534646 0.000944882 -0.00533465 0.000964567 -0.0053622 0.00101181 -0.00362205 0.000704724 0.0194291 0.0979567 0.003 -0.000594488 0.00469291 -0.00088189 0.00475591 -0.000862205 0.00475197 -0.000834646 0.00474409 -0.000799213 0.00476772 -0.000779528 0.00477165 -0.000744094 0.00478346 -0.000712598 0.0047874 -0.000685039 0.00480709 -0.000661417 0.00479921 -0.000622047 0.0048189 -0.000598425 0.00485433 -0.000566929 0.00482677 -0.000543307 0.00485433 -0.0005 0.00487008 -0.000488189 0.00484646 -0.000440945 0.00487795 -0.000413386 0.00489764 -0.000393701 0.00348819 -0.000251969 -0.00757874 -0.099563zm-0.207417 0.0407126l-0.0031063 0.00101969 -0.00505512 0.00169291 -0.00505512 0.00172835 -0.00504331 0.00175984 -0.00501575 0.00178346 -0.00498425 0.00181102 -0.00499213 0.00183858 -0.00499213 0.00187795 -0.00495669 0.00190551 -0.00494882 0.00193701 -0.00493701 0.00196063 -0.00492126 0.00199213 -0.00490157 0.00202362 -0.00487795 0.00204331 -0.00487402 0.00207874 -0.00485827 0.00211024 -0.00483465 0.00212992 -0.00483465 0.00216535 -0.00481102 0.00219685 -0.00478346 0.00221654 -0.0016811 0.000791339 0.042815 0.0902126 0.00109843 -0.000519685 0.00424409 -0.00196457 0.00425984 -0.00194094 0.00425984 -0.00191339 0.00429528 -0.00188976 0.00429921 -0.00186614 0.00429528 -0.00183071 0.00433465 -0.0018189 0.00433858 -0.00179134 0.00434252 -0.00175984 0.00435827 -0.00173622 0.00437795 -0.00170866 0.0043937 -0.00168504 0.00438189 -0.00165354 0.00441339 -0.00162598 0.00445276 -0.00161417 0.00444094 -0.00157874 0.00444488 -0.00155118 0.00444882 -0.00152362 0.00448819 -0.0015 0.00310236 -0.00102362 -0.0314213 -0.0947795zm-0.191327 0.0897992l-0.00230709 0.00144882 -0.00444094 0.0028189 -0.0043937 0.00284252 -0.00438189 0.0028622 -0.00436614 0.00289764 -0.00434252 0.00291339 -0.00432283 0.00294094 -0.0043189 0.00297244 -0.00429528 0.00299213 -0.00425197 0.00300787 -0.00426378 0.00305118 -0.00424803 0.00307874 -0.0042126 0.00309055 -0.00418504 0.00311417 -0.00418504 0.00314173 -0.00414961 0.00316535 -0.00414173 0.00319685 -0.00411024 0.0032126 -0.00409055 0.00323228 -0.00408268 0.00326772 -0.00290551 0.00235827 0.0630945 0.0773976 0.00244488 -0.00198425 0.0036063 -0.00288583 0.00363386 -0.00287402 0.00364961 -0.00285433 0.00366142 -0.0028189 0.0036811 -0.00280315 0.00369291 -0.00278346 0.00372047 -0.00276378 0.00373622 -0.00274409 0.00373622 -0.00270866 0.00375984 -0.00268898 0.00379921 -0.0026811 0.00379134 -0.00264961 0.00381496 -0.00262598 0.00383465 -0.00261024 0.00385827 -0.00258268 0.00385827 -0.00255906 0.00388976 -0.00253937 0.00389764 -0.00251969 0.0038937 -0.00248425 0.00230709 -0.00145276 -0.0533661 -0.0843898zm-0.163898 0.13313l-3.93701e-006 3.93701e-006 -0.00359843 0.00375591 -0.00359449 0.0037874 -0.00357874 0.0038189 -0.00353543 0.00382677 -0.00350787 0.00383465 -0.00350394 0.00387402 -0.00348819 0.00390945 -0.00343701 0.00389764 -0.0034252 0.00392913 -0.00341732 0.00397244 -0.00337795 0.00397244 -0.00335433 0.00398819 -0.00333465 0.00401969 -0.00331496 0.00403543 -0.00328346 0.00405906 -0.00327165 0.00407874 -0.00323228 0.00409449 -0.0032126 0.00411024 -0.00319685 0.00414173 -0.00316142 0.00414961 -0.00104331 0.00138583 0.0799724 0.0597953 0.000677165 -0.000889764 0.00280709 -0.00368504 0.0028189 -0.00365748 0.00285433 -0.00365354 0.00287008 -0.00363386 0.00288583 -0.0036063 0.00291732 -0.00359449 0.0029252 -0.0035748 0.00295276 -0.00355118 0.00297638 -0.00354331 0.003 -0.00352362 0.00300394 -0.00348819 0.00304331 -0.00349213 0.00307087 -0.00348031 0.00306299 -0.00342913 0.00309055 -0.00342913 0.00313386 -0.00342126 0.00314173 -0.00340157 0.00314567 -0.00335433 0.00317717 -0.00335039 0.0032126 -0.00334646 3.93701e-006 -3.93701e-006 -0.0718701 -0.0693307zm-0.127327 0.168823l-0.00120472 0.00208268 -0.00259843 0.00455512 -0.00258268 0.00457874 -0.00255118 0.00459843 -0.0025315 0.00461811 -0.0025 0.0046378 -0.00246457 0.00464173 -0.00244488 0.00466929 -0.00241339 0.00467717 -0.00237795 0.0046811 -0.00237402 0.00472835 -0.00233465 0.00474409 -0.00229134 0.00472047 -0.00227953 0.00476772 -0.00225591 0.00479528 -0.00221654 0.00478346 -0.00220079 0.00480709 -0.00216142 0.00483858 -0.00212992 0.00483465 -0.00211417 0.00485433 -0.00131496 0.00308268 0.0919764 0.0388898 0.00107087 -0.00250394 0.00186614 -0.00429921 0.00188976 -0.00429134 0.00191339 -0.00426378 0.00193701 -0.00425591 0.00196457 -0.00424803 0.00198425 -0.00420866 0.00201575 -0.0042126 0.00204724 -0.00422441 0.00205906 -0.00417323 0.00207874 -0.00415354 0.00212598 -0.00417323 0.0021378 -0.00414567 0.00215748 -0.00412205 0.00219685 -0.00412205 0.00220472 -0.00409055 0.00222835 -0.00408268 0.00225197 -0.00405906 0.0022874 -0.00405906 0.00231496 -0.00404331 0.00120079 -0.00208268 -0.0865669 -0.0497717zm-0.0827717 0.194535l-0.000700787 0.00244094 -0.00145276 0.00516929 -0.00142126 0.00518898 -0.0013937 0.00520866 -0.00135039 0.00520472 -0.00132283 0.00519685 -0.00129528 0.00523228 -0.00125984 0.00524016 -0.00124016 0.00527559 -0.00119685 0.00527559 -0.00116142 0.00525591 -0.0011378 0.00529921 -0.00110236 0.00531496 -0.00107087 0.00529528 -0.00103937 0.00533858 -0.00100787 0.0053622 -0.000964567 0.00533071 -0.000944882 0.00535039 -0.000905512 0.00537795 -0.000877953 0.00538976 -0.000125984 0.000775591 0.0987165 0.0150866 2.3622e-005 -0.000153543 0.000775591 -0.00477165 0.000799213 -0.00474409 0.000838583 -0.00475197 0.000858268 -0.00475197 0.000885827 -0.00469685 0.00092126 -0.0047126 0.000952756 -0.00472441 0.000968504 -0.0046811 0.00100394 -0.00466929 0.00103937 -0.00469685 0.00105512 -0.00464961 0.00108268 -0.00462992 0.00112205 -0.00464173 0.00114567 -0.00463386 0.00117323 -0.00463386 0.00120079 -0.0046063 0.00122441 -0.0045748 0.00125591 -0.00458661 0.00127559 -0.00456299 0.000700787 -0.00244094 -0.0960472 -0.0272953zm-0.0331378 0.208823l-0.000129921 0.0037126 -0.000153543 0.00559055 -0.000125984 0.00557874 -8.66142e-005 0.00561811 -5.11811e-005 0.0056063 -2.3622e-005 0.00561811 2.3622e-005 0.00561417 5.11811e-005 0.0056063 8.66142e-005 0.00562205 0.000125984 0.0055748 0.000153543 0.00559055 0.00019685 0.00558661 0.000232283 0.00556299 0.00026378 0.00555906 0.000299213 0.00555512 0.000330709 0.00555118 0.000374016 0.00553543 0.000401575 0.00551181 0.000433071 0.00550787 0.000141732 0.0016378 0.0994685 -0.00879921 -8.66142e-005 -0.00102756 -0.000389764 -0.00489764 -0.000358268 -0.00490945 -0.000330709 -0.00488976 -0.000291339 -0.00490945 -0.000267717 -0.00491339 -0.000232283 -0.00493307 -0.000200787 -0.00495276 -0.000173228 -0.0049252 -0.000141732 -0.00495276 -0.000110236 -0.00498031 -8.26772e-005 -0.00495669 -4.33071e-005 -0.00498031 -1.5748e-005 -0.00498819 1.5748e-005 -0.00499213 4.33071e-005 -0.00498031 8.26772e-005 -0.00495276 0.000110236 -0.00498425 0.000141732 -0.00495276 0.000129921 -0.00371654 -0.099811 -0.00314567zm0.0178189 0.210409l0.000385827 0.00187008 0.0011378 0.00529921 0.00116142 0.00525591 0.00119685 0.00527953 0.00124016 0.00527559 0.00125984 0.00523622 0.00129528 0.00523228 0.00132283 0.00520079 0.00135039 0.00520079 0.0013937 0.0052126 0.00142126 0.00518504 0.00145276 0.00517323 0.00147638 0.00514173 0.00151181 0.00514961 0.00154331 0.00513386 0.0015748 0.00510236 0.0016063 0.00511024 0.0016378 0.00509449 0.00166535 0.00507087 0.00169291 0.00505512 0.000669291 0.00195669 0.0943819 -0.0325945 -0.000464567 -0.00135827 -0.0015 -0.00448425 -0.00147638 -0.00449213 -0.00144094 -0.00449606 -0.00141732 -0.00450394 -0.0013937 -0.00453543 -0.00136614 -0.0045315 -0.00133465 -0.00454331 -0.0013189 -0.0045748 -0.00127559 -0.00456299 -0.00125591 -0.00458268 -0.00122441 -0.00457874 -0.00120079 -0.0046063 -0.00117323 -0.00462992 -0.00114567 -0.0046378 -0.00112205 -0.00464173 -0.00108268 -0.00462992 -0.00105512 -0.00464961 -0.00103937 -0.00469291 -0.00100394 -0.00467323 -0.000385827 -0.00187008 -0.0977008 0.0206339zm0.0682559 0.200181l0.00145669 0.003 0.00233465 0.00474409 0.00237402 0.00472835 0.00237795 0.0046811 0.00241339 0.00467717 0.00244488 0.00467323 0.00246457 0.0046378 0.0025 0.00464173 0.0025315 0.00461417 0.00255118 0.00459843 0.00258268 0.00458268 0.00259843 0.00455512 0.00262992 0.00454724 0.00265354 0.00451575 0.00268898 0.00451969 0.00272047 0.00450394 0.00273228 0.0044685 0.00275984 0.00445276 0.0027874 0.00442913 0.00282283 0.00444094 0.00146063 0.00225591 0.0837323 -0.0544094 -0.00113386 -0.00176378 -0.00248819 -0.00388976 -0.0024685 -0.00393701 -0.00245276 -0.00395276 -0.0024252 -0.00396457 -0.0023937 -0.00396457 -0.00237008 -0.00398819 -0.0023622 -0.00401969 -0.00232283 -0.00401969 -0.00231496 -0.00404331 -0.0022874 -0.00405512 -0.00225197 -0.00406299 -0.00222835 -0.00408268 -0.00220472 -0.00408661 -0.00219685 -0.00412598 -0.00215748 -0.00412205 -0.0021378 -0.00414567 -0.00212598 -0.00417323 -0.00207874 -0.00415354 -0.00205906 -0.00417323 -0.00145276 -0.003 -0.0897047 0.0438661zm0.114531 0.177488l0.000807087 0.000980315 0.00335433 0.00398819 0.00337795 0.00397244 0.00341732 0.00397244 0.0034252 0.00392913 0.00343701 0.0038937 0.00348819 0.00390945 0.00350394 0.00387402 0.00350787 0.00383858 0.00353543 0.00382283 0.00357874 0.0038189 0.00359449 0.0037874 0.00359843 0.00375591 0.00362598 0.00373622 0.00366929 0.00374016 0.00367323 0.00368898 0.00368898 0.00367323 0.00374016 0.00366929 0.00373622 0.00362598 0.00375591 0.00359843 0.0037874 0.00359449 0.00038189 0.000358268 0.0680157 -0.0731102 8.26772e-005 7.87402e-005 -0.00335039 -0.00317717 -0.00334252 -0.0032126 -0.00332677 -0.00322047 -0.00327953 -0.00322047 -0.00328346 -0.00326772 -0.00326378 -0.00327953 -0.00322047 -0.00327953 -0.00322047 -0.00332677 -0.0032126 -0.00334646 -0.00317717 -0.00334646 -0.00314567 -0.00335827 -0.00314173 -0.00340157 -0.00313386 -0.00342126 -0.00309055 -0.0034252 -0.00306299 -0.00342913 -0.00307087 -0.00348425 -0.00304331 -0.00348819 -0.00300394 -0.00349213 -0.003 -0.00351969 -0.00297638 -0.00354724 -0.000811024 -0.000976378 -0.076626 0.0640236zm0.153929 0.144894l0.00266535 0.00195669 0.00424803 0.00308268 0.00426378 0.00304724 0.00425197 0.00300787 0.00429528 0.00299606 0.0043189 0.0029685 0.00432283 0.00294094 0.00434252 0.00291339 0.00436614 0.00290157 0.00438189 0.00285827 0.0043937 0.00284252 0.00444094 0.00282283 0.00442913 0.0027874 0.00445276 0.00275984 0.00446457 0.00273228 0.00450787 0.00272047 0.00451969 0.00268898 0.00451575 0.00264961 0.00454724 0.00263386 0.00455512 0.00259843 0.00261024 0.00147244 0.0487402 -0.0871496 -0.00208661 -0.0011811 -0.00404724 -0.00231102 -0.00401575 -0.00232283 -0.00401969 -0.00236614 -0.00398819 -0.00236614 -0.00396457 -0.0023937 -0.00396457 -0.00242913 -0.00395276 -0.00245276 -0.00393701 -0.0024685 -0.0038937 -0.00248425 -0.00389764 -0.00251575 -0.00388976 -0.00254331 -0.00385827 -0.00255512 -0.00385827 -0.00258661 -0.00383465 -0.00261024 -0.00381496 -0.00262598 -0.00379134 -0.00264961 -0.00379921 -0.0026811 -0.00375984 -0.00268898 -0.00373622 -0.00270472 -0.00266535 -0.00196063 -0.0588583 0.0806654zm0.184169 0.103555l0.00174803 0.000720472 0.00492126 0.00199213 0.00493701 0.00196457 0.00494882 0.00193307 0.00495669 0.00190551 0.00499213 0.00187795 0.00499213 0.00184252 0.00498425 0.00180709 0.00501575 0.0017874 0.00504331 0.00175591 0.00505512 0.00172835 0.00505512 0.00169291 0.00507087 0.00166535 0.00509055 0.0016378 0.00511417 0.0016063 0.00510236 0.00157087 0.00513386 0.00154724 0.00514961 0.00151181 0.00514173 0.00147244 0.00517323 0.00145669 0.00266929 0.000732283 0.0260906 -0.0963898 -0.00207087 -0.000566929 -0.00456299 -0.00127953 -0.00457874 -0.0013189 -0.00454331 -0.00133071 -0.0045315 -0.00136614 -0.00453543 -0.0013937 -0.0045 -0.00141732 -0.00449606 -0.00144488 -0.00449213 -0.00147244 -0.00448819 -0.0015 -0.00444882 -0.00152362 -0.00444488 -0.00155512 -0.00444094 -0.00157874 -0.00445276 -0.00161024 -0.00441339 -0.00162992 -0.00438189 -0.00165354 -0.0043937 -0.00168504 -0.00437795 -0.00170866 -0.00435827 -0.00173622 -0.00434252 -0.00175591 -0.00174409 -0.000720472 -0.0377874 0.0924291zm0.204098 0.0558976l0.00487795 0.000692913 0.00542126 0.000744094 0.00544882 0.000712598 0.00544882 0.000669291 0.00543701 0.000641732 0.00547638 0.000606299 0.00547638 0.000570866 0.00548031 0.000543307 0.00551969 0.000511811 0.00549606 0.000464567 0.00550394 0.000437008 0.00551181 0.000401575 0.00553937 0.000374016 0.00555118 0.000330709 0.00555118 0.000299213 0.00556299 0.00026378 0.00555906 0.000232283 0.00559055 0.00019685 0.00558661 0.000153543 0.0013622 3.14961e-005 0.00191732 -0.0998346 -0.00076378 -2.3622e-005 -0.00495669 -0.000137795 -0.0049252 -0.000173228 -0.00495276 -0.000200787 -0.00492913 -0.00023622 -0.00491339 -0.00026378 -0.00490945 -0.000295276 -0.0048937 -0.000326772 -0.00490945 -0.000358268 -0.00489764 -0.000389764 -0.00487795 -0.000413386 -0.00484646 -0.000444882 -0.00487008 -0.000484252 -0.00485433 -0.000503937 -0.00482677 -0.000543307 -0.00485433 -0.000566929 -0.0048189 -0.000598425 -0.00479921 -0.00061811 -0.00480709 -0.000665354 -0.00487795 -0.000692913 -0.0138346 0.0988937zm0.211134 0.00505512l0.00420079 -0.000417323 0.00547638 -0.000570866 0.00547638 -0.000606299 0.00543701 -0.000641732 0.00544882 -0.000669291 0.00544882 -0.000712598 0.00542126 -0.000744094 0.00541732 -0.000771654 0.00540945 -0.000811024 0.00538976 -0.000838583 0.00538976 -0.000877953 0.00537795 -0.000905512 0.00534646 -0.000944882 0.00533465 -0.000964567 0.0053622 -0.00100787 0.00533465 -0.00104331 0.00529528 -0.00106693 0.00531496 -0.00110236 0.00529921 -0.0011378 0.00325591 -0.000720472 -0.0218189 -0.0974449 -0.00269685 0.000598425 -0.00467323 0.00100394 -0.0046811 0.000968504 -0.00472441 0.000952756 -0.0047126 0.00092126 -0.00469291 0.000885827 -0.00475591 0.000858268 -0.00475197 0.000838583 -0.00474409 0.000799213 -0.00476772 0.000775591 -0.00477165 0.000744094 -0.00478346 0.000716535 -0.0047874 0.000681102 -0.00480709 0.000665354 -0.00479921 0.00061811 -0.0048189 0.000598425 -0.00485433 0.000566929 -0.00482677 0.000543307 -0.00485433 0.000503937 -0.00420079 0.000413386 0.0100866 0.0993465zm0.206331 -0.045815l0.0030748 -0.00109449 0.00498425 -0.00180709 0.00499213 -0.00184252 0.00499213 -0.00187795 0.00495669 -0.00190551 0.00494882 -0.00193307 0.00493701 -0.00196457 0.00492126 -0.00199213 0.00490157 -0.00202362 0.00487795 -0.00204331 0.00487402 -0.00207874 0.00485827 -0.00211024 0.00483465 -0.00212992 0.00483465 -0.00216535 0.00481102 -0.00219685 0.00478346 -0.00221654 0.00479134 -0.00225591 0.00477165 -0.00227953 0.00471654 -0.00229134 0.00474803 -0.00233465 0.00184646 -0.000929134 -0.0450118 -0.0891378 -0.00127559 0.000637795 -0.00417323 0.00205906 -0.00422047 0.00205118 -0.0042126 0.00201575 -0.0042126 0.00198031 -0.00424409 0.0019685 -0.00425984 0.00193701 -0.00425984 0.00191339 -0.00429528 0.00188976 -0.00429921 0.00186614 -0.00429528 0.00183465 -0.00433465 0.00181496 -0.00433858 0.00179528 -0.00434252 0.00175591 -0.00435827 0.00173622 -0.00437795 0.00170866 -0.0043937 0.00168504 -0.00438189 0.00165354 -0.00441339 0.00162992 -0.00445276 0.00161024 -0.00307087 0.00109449 0.0337677 0.0939724zm0.189043 -0.0944685l0.00197244 -0.00131102 0.00434252 -0.00291339 0.00432283 -0.00294094 0.0043189 -0.0029685 0.00429528 -0.00299606 0.00425197 -0.00300787 0.00426378 -0.00304724 0.00424803 -0.00308268 0.0042126 -0.00309055 0.00418504 -0.00311024 0.00418504 -0.00314567 0.00414961 -0.00316535 0.00414173 -0.00319685 0.00411024 -0.0032126 0.00409055 -0.00323228 0.00408268 -0.00326772 0.00405512 -0.00328346 0.00403937 -0.00331496 0.00401969 -0.00333858 0.00398819 -0.00335039 0.00316929 -0.00269685 -0.0649213 -0.0758701 -0.00271654 0.00231496 -0.00354724 0.00297638 -0.00355118 0.00295276 -0.0035748 0.0029252 -0.00359449 0.00291339 -0.0036063 0.00288976 -0.00363386 0.00287008 -0.00364961 0.00285433 -0.00366142 0.0028189 -0.0036811 0.00280709 -0.00369291 0.00278346 -0.00372047 0.00275984 -0.00373622 0.00274803 -0.00373622 0.00270472 -0.00375984 0.00268898 -0.00379921 0.0026811 -0.00379134 0.00264961 -0.00381496 0.00262598 -0.00383465 0.00261024 -0.00385827 0.00258661 -0.00197244 0.00130709 0.0554094 0.0830748zm0.160768 -0.13728l0.0030315 -0.0033189 0.00350394 -0.00387402 0.00348819 -0.00390945 0.00343701 -0.0038937 0.0034252 -0.00392913 0.00341732 -0.00397244 0.00337795 -0.00397244 0.00335433 -0.00398819 0.00333465 -0.00402362 0.00331496 -0.00403543 0.00328346 -0.00405512 0.00327165 -0.00408268 0.00323228 -0.00409449 0.0032126 -0.0041063 0.00319685 -0.00414173 0.00316142 -0.00414961 0.00314567 -0.00418504 0.00311024 -0.00418898 0.00309449 -0.00420866 0.00307874 -0.00424803 0.00124016 -0.00173228 -0.0813976 -0.0578425 -0.00088189 0.00122835 -0.00270472 0.00373622 -0.00274803 0.00373228 -0.00275984 0.00372441 -0.00278346 0.00369291 -0.00280709 0.0036811 -0.0028189 0.00365748 -0.00285433 0.00365354 -0.00287008 0.00363386 -0.00288583 0.0036063 -0.00291732 0.00359449 -0.0029252 0.0035748 -0.00295276 0.00355118 -0.00297638 0.00354724 -0.003 0.00351969 -0.00300394 0.00349213 -0.00304331 0.00348819 -0.00307087 0.00348425 -0.00306299 0.00342913 -0.00309055 0.0034252 -0.00303543 0.00331496 0.073878 0.067185zm0.122988 -0.171689l0.00101969 -0.00185433 0.0025 -0.00464173 0.00246457 -0.0046378 0.00244488 -0.00467323 0.00241339 -0.00467717 0.00237795 -0.0046811 0.00237402 -0.00472835 0.00233465 -0.00474409 0.00229134 -0.00472047 0.00227953 -0.00476772 0.00225591 -0.00479134 0.00221654 -0.0047874 0.00220079 -0.00480709 0.00216142 -0.00483858 0.00212992 -0.00483071 0.00211417 -0.00485827 0.00207874 -0.00487795 0.00203937 -0.00487795 0.00202362 -0.00490157 0.00199606 -0.00492126 0.00128346 -0.00322441 -0.0928937 -0.036626 -0.00105906 0.00264961 -0.00175591 0.00434252 -0.00179134 0.00433465 -0.0018189 0.00433465 -0.00183465 0.00429921 -0.00186614 0.00429921 -0.00188976 0.00429528 -0.00191339 0.00425984 -0.00193701 0.00425984 -0.00196457 0.00424409 -0.00198425 0.00420866 -0.00201575 0.00421654 -0.00204724 0.00422047 -0.00205906 0.00417323 -0.00207874 0.00415354 -0.00212598 0.00417323 -0.0021378 0.00414567 -0.00215748 0.00412205 -0.00219685 0.00412598 -0.00220472 0.00408661 -0.00101575 0.00185827 0.087748 0.0476654zm0.0779685 -0.196571l0.000673228 -0.00259843 0.00132283 -0.00520079 0.00129528 -0.00523228 0.00125984 -0.00523622 0.00124016 -0.00527559 0.00119685 -0.00527953 0.00116142 -0.00525591 0.0011378 -0.00529921 0.00110236 -0.00531496 0.00107087 -0.00529528 0.00103937 -0.00533465 0.00100787 -0.00536614 0.000964567 -0.00533071 0.000944882 -0.00534646 0.000905512 -0.00538189 0.000877953 -0.00538583 0.000838583 -0.0053937 0.000814961 -0.00540551 0.000771654 -0.00541732 0.000740157 -0.00538976 -0.0989764 -0.0132126 -0.000661417 0.00476772 -0.000681102 0.0047874 -0.000716535 0.00477953 -0.000744094 0.00477559 -0.000775591 0.00476772 -0.000799213 0.00474409 -0.000838583 0.00475197 -0.000858268 0.00475197 -0.000885827 0.00469685 -0.00092126 0.0047126 -0.000952756 0.00472441 -0.000968504 0.0046811 -0.00100394 0.00467323 -0.00103937 0.00469291 -0.00105512 0.00464961 -0.00108268 0.00462992 -0.00112205 0.00464173 -0.00114567 0.0046378 -0.00117323 0.00462992 -0.000677165 0.00260236 0.0967126 0.0248543zm0.028 -0.209571l3.93701e-005 -0.00474803 2.3622e-005 -0.00561417 -2.3622e-005 -0.00561811 -5.11811e-005 -0.0056063 -8.66142e-005 -0.00561811 -0.000125984 -0.00557874 -0.000153543 -0.00559055 -0.00019685 -0.00558661 -0.000232283 -0.00556299 -0.00026378 -0.00555906 -0.000299213 -0.00555118 -0.000330709 -0.00555512 -0.000374016 -0.00553543 -0.000401575 -0.00551181 -0.000433071 -0.00550394 -0.000468504 -0.00549606 -0.000511811 -0.00552362 -0.00053937 -0.00548031 -0.000570866 -0.00547638 -0.000106299 -0.00096063 -0.0992126 0.0113583 3.93701e-005 0.000314961 0.000503937 0.00485433 0.000488189 0.00487008 0.000440945 0.00484252 0.000413386 0.00488189 0.000389764 0.00489764 0.000358268 0.00490945 0.000330709 0.0048937 0.000291339 0.00490945 0.000267717 0.00491339 0.000232283 0.00492913 0.000200787 0.00495276 0.000173228 0.0049252 0.000141732 0.00495276 0.000110236 0.00498425 8.26772e-005 0.00495276 4.33071e-005 0.00498031 1.5748e-005 0.00499213 -1.5748e-005 0.00498819 -3.93701e-005 0.00474803 0.0998504 0.000625984zm-0.0229528 -0.209909l-0.000496063 -0.00211811 -0.00125984 -0.00524016 -0.00129528 -0.00523228 -0.00132283 -0.00519685 -0.00135039 -0.00520472 -0.0013937 -0.00520866 -0.00142126 -0.00518898 -0.00145276 -0.00516929 -0.00147638 -0.00514173 -0.00151181 -0.00515354 -0.00154331 -0.00513386 -0.0015748 -0.00510236 -0.0016063 -0.00511024 -0.0016378 -0.00509449 -0.00166535 -0.00507087 -0.00169291 -0.00505118 -0.00172835 -0.00505512 -0.00175591 -0.00504724 -0.00178346 -0.00501181 -0.00181102 -0.00498819 -0.000720472 -0.00194882 -0.0935669 0.034878 0.000511811 0.00137795 0.00161024 0.00444882 0.00158268 0.00444488 0.00155118 0.00444094 0.00152362 0.00445276 0.0015 0.00448819 0.00147638 0.00448819 0.00144094 0.00449606 0.00141732 0.00450394 0.0013937 0.00453543 0.00136614 0.0045315 0.00133465 0.00454331 0.0013189 0.0045748 0.00127559 0.00456299 0.00125591 0.00458661 0.00122441 0.0045748 0.00120079 0.0046063 0.00117323 0.00463386 0.00114567 0.00463386 0.00112205 0.00464173 0.000496063 0.00211811 0.0971457 -0.0230945zm-0.0731693 -0.198398l-0.00141732 -0.00275591 -0.00244488 -0.00466929 -0.00246457 -0.00464173 -0.0025 -0.0046378 -0.0025315 -0.00461811 -0.00255118 -0.00459843 -0.00258268 -0.00457874 -0.00259843 -0.00455512 -0.00262992 -0.00455118 -0.00265354 -0.00451181 -0.00268898 -0.00451969 -0.00272047 -0.00450787 -0.00273228 -0.0044685 -0.00275984 -0.00444882 -0.0027874 -0.00443307 -0.00282283 -0.00443701 -0.00284252 -0.00439764 -0.00285827 -0.00438189 -0.00289764 -0.00436614 -0.00291732 -0.00434252 -0.00170866 -0.00251181 -0.0824134 0.0563819 0.00137795 0.00202756 0.00258661 0.00385433 0.00255906 0.0038622 0.00253937 0.00388583 0.00251575 0.00390157 0.00248819 0.0038937 0.0024685 0.00393307 0.00245276 0.00395276 0.0024252 0.00396457 0.0023937 0.00396457 0.00237008 0.00398819 0.0023622 0.00402362 0.00232283 0.00401575 0.00231496 0.00404331 0.0022874 0.00405906 0.00225197 0.00405906 0.00222835 0.00408268 0.00220472 0.00409055 0.00219685 0.00412205 0.00215748 0.00412205 0.00142126 0.00275591 0.0885984 -0.0460512zm-0.118819 -0.174614l-0.000555118 -0.000637795 -0.00343701 -0.00389764 -0.00348819 -0.00390945 -0.00350394 -0.00387402 -0.00350787 -0.00383465 -0.00353543 -0.00382677 -0.00357874 -0.0038189 -0.00359449 -0.0037874 -0.00359843 -0.00375591 -0.00362598 -0.00373228 -0.00366929 -0.00374016 -0.00367323 -0.00369291 -0.00368898 -0.00366929 -0.00374016 -0.00367323 -0.00373622 -0.00362598 -0.00375591 -0.00359843 -0.0037874 -0.00359449 -0.0038189 -0.00357874 -0.00382283 -0.00353543 -0.00383465 -0.00350394 -0.00387795 -0.00350787 -0.000716535 -0.000633858 -0.066248 0.0747087 0.000232283 0.000212598 0.0034252 0.00309449 0.00342126 0.00312992 0.00340157 0.00314567 0.00335827 0.00314567 0.00335039 0.00317323 0.00334252 0.0032126 0.00332677 0.00322441 0.00327953 0.00322047 0.00328346 0.00326378 0.00326378 0.00327953 0.00322047 0.00328346 0.00322047 0.00332283 0.0032126 0.00334646 0.00317717 0.00335039 0.00314567 0.00335433 0.00314173 0.00340157 0.00313386 0.00342126 0.00309055 0.00342913 0.00306299 0.00342913 0.00307087 0.00348031 0.000559055 0.000641732 0.0750748 -0.0658425zm-0.157425 -0.14111l-0.00240157 -0.00166929 -0.0043189 -0.00297244 -0.00432283 -0.00294094 -0.00434252 -0.00291339 -0.00436614 -0.00289764 -0.00438189 -0.0028622 -0.0043937 -0.00284252 -0.00444094 -0.0028189 -0.00442913 -0.0027874 -0.00445276 -0.00276378 -0.00446457 -0.00272835 -0.00450787 -0.00272441 -0.00451969 -0.00268898 -0.00451575 -0.00264961 -0.00454724 -0.00263386 -0.00455512 -0.00259843 -0.00457874 -0.00257874 -0.00460236 -0.00255512 -0.00461417 -0.00252756 -0.00464173 -0.0025 -0.00288189 -0.00153543 -0.0466024 0.0883189 0.00237008 0.00125984 0.00409055 0.00220472 0.00407874 0.00223228 0.00406299 0.00225197 0.00405512 0.0022874 0.00404724 0.00231102 0.00401575 0.00232283 0.00401969 0.00236614 0.00398819 0.00237008 0.00396457 0.00238976 0.00396457 0.00242913 0.00395276 0.00245276 0.00393701 0.0024685 0.0038937 0.00248425 0.00389764 0.00251969 0.00388976 0.00253937 0.00385827 0.00255906 0.00385827 0.00258268 0.00383465 0.00261024 0.00381496 0.00262598 0.00240157 0.00167323 0.0568858 -0.0820709zm-0.186681 -0.0990039l-0.00167717 -0.000649606 -0.00499213 -0.00187795 -0.00499213 -0.00183858 -0.00498425 -0.00181102 -0.00501575 -0.00178346 -0.00504331 -0.00175984 -0.00505512 -0.00172835 -0.00505512 -0.00169291 -0.00507087 -0.00166535 -0.00509055 -0.00163386 -0.00511417 -0.00161024 -0.00510236 -0.00157087 -0.00513386 -0.00154331 -0.00514961 -0.00151181 -0.00514173 -0.00147638 -0.00517323 -0.00145669 -0.00518504 -0.00141732 -0.0052126 -0.00139764 -0.00520079 -0.00135039 -0.00520079 -0.00132283 -0.00251969 -0.000625984 -0.0236929 0.0970079 0.0019252 0.000480315 0.00462992 0.00117323 0.00461024 0.00119685 0.0045748 0.00122835 0.00458268 0.00125197 0.00456299 0.00127953 0.00457874 0.0013189 0.00454331 0.00133071 0.0045315 0.00136614 0.00453543 0.00139764 0.0045 0.00141339 0.00449606 0.00144488 0.00449213 0.00147638 0.00448819 0.0015 0.00444882 0.00152362 0.00444488 0.00155118 0.00444094 0.00157874 0.00445276 0.00161417 0.00441339 0.00162598 0.00438189 0.00165354 0.00167717 0.000645669 0.0354921 -0.0933346zm-0.310724 -0.385626c0.33089,0 0.630465,0.13413 0.847315,0.35098 0.216854,0.216854 0.35098,0.516429 0.35098,0.847319 0,0.330886 -0.134126,0.630465 -0.35098,0.847315 -0.21685,0.21685 -0.516425,0.35098 -0.847315,0.35098 -0.33089,0 -0.630465,-0.13413 -0.847315,-0.35098 -0.216854,-0.21685 -0.35098,-0.516429 -0.35098,-0.847315 0,-0.33089 0.134126,-0.630465 0.35098,-0.847319 0.21685,-0.21685 0.516425,-0.35098 0.847315,-0.35098zm0.70611 0.492185c-0.180701,-0.180697 -0.43035,-0.292465 -0.70611,-0.292465 -0.27576,0 -0.525409,0.111768 -0.70611,0.292465 -0.180697,0.180705 -0.292469,0.430354 -0.292469,0.706114 0,0.27576 0.111772,0.525409 0.292469,0.70611 0.180701,0.180697 0.43035,0.292465 0.70611,0.292465 0.27576,0 0.525409,-0.111768 0.70611,-0.292465 0.180697,-0.180701 0.292469,-0.43035 0.292469,-0.70611 0,-0.27576 -0.111772,-0.525409 -0.292469,-0.706114zm-0.776984 0.329126c-0.0258425,0.00868898 -0.0461181,0.0236181 -0.0614882,0.0443386 -0.0151575,0.0209449 -0.0227283,0.0441181 -0.0227283,0.0692953 0,0.0229488 0.00690551,0.0445591 0.0207205,0.0641693 0.0140354,0.0198268 0.0352008,0.035874 0.0634961,0.048122l0 -0.225925zm0.0944724 0.694488c0.032752,-0.00601575 0.0592638,-0.0211654 0.0797638,-0.0452283 0.0204961,-0.0242874 0.030752,-0.0525827 0.030752,-0.0853346 0,-0.0291929 -0.00869291,-0.0541457 -0.0258504,-0.075311 -0.0171535,-0.0211654 -0.0454528,-0.0374331 -0.0846654,-0.0485748l0 0.254449zm-1.27636 1.97517c-0.0601654,0 -0.108941,0.0487756 -0.108941,0.108937 0,0.0601614 0.0487756,0.108937 0.108941,0.108937l2.50552 0c0.0601654,0 0.108941,-0.0487756 0.108941,-0.108937 0,-0.0601614 -0.0487756,-0.108937 -0.108941,-0.108937l-2.50552 0zm0 -0.715874c-0.0601654,0 -0.108941,0.0487756 -0.108941,0.108937 0,0.0601654 0.0487756,0.108941 0.108941,0.108941l2.50552 0c0.0601654,0 0.108941,-0.0487756 0.108941,-0.108941 0,-0.0601614 -0.0487756,-0.108937 -0.108941,-0.108937l-2.50552 0z"/>
   <path id="_318669192" class="fil1" d="M2.80932 0.853335c-0.0298228,0 -0.0579213,0.0118031 -0.0789921,0.0328701 -0.0210669,0.0210669 -0.0328661,0.0491732 -0.0328661,0.0789882l0 0.253535c0,0.0298189 0.0118071,0.0579252 0.0328701,0.0789882 0.021063,0.021063 0.0491693,0.0328701 0.0789882,0.0328701l1.20802 0c0.0298189,0 0.0579252,-0.0118071 0.0789882,-0.0328701 0.021063,-0.021063 0.0328701,-0.0491693 0.0328701,-0.0789882l0 -0.253535c0,-0.029815 -0.0117992,-0.0579213 -0.0328661,-0.0789882 -0.0210709,-0.0210669 -0.0491693,-0.0328701 -0.0789921,-0.0328701l-1.20802 0z"/>
  </g>
 </g>
</svg>
