<?xml version="1.0" encoding="UTF-8"?>
<!DOCTYPE svg PUBLIC "-//W3C//DTD SVG 1.1//EN" "http://www.w3.org/Graphics/SVG/1.1/DTD/svg11.dtd">
<!-- Creator: CorelDRAW -->
<svg xmlns="http://www.w3.org/2000/svg" xml:space="preserve" width="6.82666in" height="6.82666in" style="shape-rendering:geometricPrecision; text-rendering:geometricPrecision; image-rendering:optimizeQuality; fill-rule:evenodd; clip-rule:evenodd"
viewBox="0 0 6.82666 6.82666"
 xmlns:xlink="http://www.w3.org/1999/xlink">
 <defs>
  <style type="text/css">
   <![CDATA[
    .fil0 {fill:#424242}
    .fil1 {fill:#FFFFFE;fill-rule:nonzero}
   ]]>
  </style>
 </defs>
 <g id="Layer_x0020_1">
  <metadata id="CorelCorpID_0Corel-Layer"/>
  <rect class="fil0" width="6.82666" height="6.82666" rx="0.853335" ry="0.853335"/>
  <path class="fil1" d="M5.12126 1.33336l-0.64076 -0.369945 0.000110236 -0.00019685c-0.214693,-0.123811 -0.466752,-0.139421 -0.699933,-0.0648031 -0.237319,0.0759449 -0.45476,0.244563 -0.595016,0.487496l-1.90948 3.30731 2.21721 1.28011 1.90944 -3.30725 0.00019685 0.000114173c0.140122,-0.242906 0.177362,-0.51552 0.124457,-0.759087 -0.0519803,-0.239315 -0.191575,-0.449819 -0.406228,-0.573748zm-0.399984 -0.0169764c0.0530157,0.0306063 0.0886024,0.0797874 0.10328,0.134567 0.014626,0.0545945 0.00835039,0.114898 -0.0222835,0.167969 -0.0307362,0.0532323 -0.0799173,0.0889213 -0.134571,0.103563 -0.0547087,0.0146575 -0.115126,0.00838976 -0.168256,-0.0222835 -0.0530079,-0.0306063 -0.0885984,-0.0797913 -0.103272,-0.134567 -0.0146024,-0.0544961 -0.00837402,-0.114697 0.0221299,-0.167697l0.000153543 -0.000566929c0.0306063,-0.0530118 0.0797953,-0.0885984 0.134567,-0.103272 0.0547165,-0.0146575 0.115122,-0.00838976 0.168248,0.0222835l3.93701e-006 3.93701e-006zm0.184213 1.53825l-1.56298 2.63538 -0.202087 -0.119303 1.56298 -2.63538 0.202083 0.119303zm-1.41906 -0.841614l-1.56298 2.63538 -0.202083 -0.119299 1.56298 -2.63538 0.202087 0.119303zm-0.484949 3.16144l-0.810886 -0.480913 0.0945 -0.159339 0.738319 -0.0107756 -0.541472 -0.321134 0.090252 -0.152169 0.810882 0.480913 -0.0975276 0.164445 -0.722642 0.0131732 0.528823 0.313634 -0.090248 0.152165zm0.484272 -0.816539l-0.810886 -0.480917 0.35652 -0.60113 0.137252 0.0813976 -0.259433 0.437445 0.179732 0.106594 0.241409 -0.407047 0.136504 0.0809567 -0.241409 0.407047 0.220701 0.130894 0.268618 -0.452925 0.136689 0.0810709 -0.365697 0.616614zm0.516299 -0.870547l-0.92565 -0.287398 0.099315 -0.167461 0.629504 0.207969 -0.469047 -0.478516 0.115441 -0.194654 0.650701 0.193752 -0.492598 -0.460335 0.097752 -0.164819 0.694098 0.677827 -0.103012 0.173701 -0.701969 -0.198122 0.510717 0.520587 -0.105252 0.177469z"/>
 </g>
</svg>
