<?xml version="1.0" encoding="UTF-8"?>
<!DOCTYPE svg PUBLIC "-//W3C//DTD SVG 1.1//EN" "http://www.w3.org/Graphics/SVG/1.1/DTD/svg11.dtd">
<!-- Creator: CorelDRAW -->
<svg xmlns="http://www.w3.org/2000/svg" xml:space="preserve" width="6.82666in" height="6.82666in" style="shape-rendering:geometricPrecision; text-rendering:geometricPrecision; image-rendering:optimizeQuality; fill-rule:evenodd; clip-rule:evenodd"
viewBox="0 0 6.82666 6.82666"
 xmlns:xlink="http://www.w3.org/1999/xlink">
 <defs>
  <style type="text/css">
   <![CDATA[
    .fil0 {fill:#8BC34A}
    .fil1 {fill:#FFFFFE;fill-rule:nonzero}
   ]]>
  </style>
 </defs>
 <g id="Layer_x0020_1">
  <metadata id="CorelCorpID_0Corel-Layer"/>
  <rect class="fil0" width="6.82666" height="6.82666" rx="0.853335" ry="0.853335"/>
  <path class="fil1" d="M3.41333 0.931504c0.685323,0 1.30578,0.277791 1.75491,0.726917 0.449126,0.449126 0.726921,1.06959 0.726921,1.75491 0,0.685327 -0.277791,1.30578 -0.726921,1.75491 -0.449126,0.44913 -1.06958,0.726921 -1.75491,0.726921 -0.685323,0 -1.30578,-0.277795 -1.75491,-0.726921 -0.449126,-0.449126 -0.726917,-1.06959 -0.726917,-1.75491 0,-0.685323 0.277791,-1.30578 0.726917,-1.75491 0.449126,-0.449126 1.06959,-0.726917 1.75491,-0.726917zm-1.75999 1.42089c-0.0508543,-0.0294528 -0.115965,-0.0121063 -0.145417,0.038748 -0.0294528,0.0508543 -0.0121063,0.115965 0.038748,0.145417l1.49333 0.862181c0.0168189,0.00974016 0.0351969,0.0143583 0.0533268,0.0143425l0 0.000244094c0,0.0883543 0.0358268,0.168358 0.0937362,0.226268 0.0579094,0.0579094 0.137913,0.0937362 0.226268,0.0937362 0.0454094,0 0.0886142,-0.00946457 0.127744,-0.0265276l0.840307 1.45546 0.0920787 -0.0533307 -0.843165 -1.46041c0.00315748,-0.00291339 0.00626378,-0.00588976 0.00930315,-0.00892913 0.0579094,-0.0579094 0.0937362,-0.137913 0.0937362,-0.226268 0,-0.023815 -0.0026063,-0.0470236 -0.00754331,-0.0693543 0.00441339,-0.00179528 0.00875591,-0.00389764 0.013,-0.00633858l1.25864 -0.726673c0.0508543,-0.0292244 0.0683898,-0.0941457 0.0391654,-0.145 -0.0292244,-0.0508543 -0.0941457,-0.0683898 -0.145,-0.0391654l-1.25864 0.726673c-0.0061811,0.00355118 -0.0118701,0.0076378 -0.0170433,0.0121535 -0.0551732,-0.0451811 -0.125717,-0.0722992 -0.202583,-0.0722992 -0.0883543,0 -0.168358,0.0358268 -0.226268,0.0937362 -0.010752,0.010752 -0.0207441,0.0222717 -0.0298858,0.0344606 -0.00332677,-0.00248819 -0.00682677,-0.00481102 -0.0105079,-0.00694488l-1.49333 -0.862181zm1.83543 0.9855c-0.0192913,-0.0192913 -0.0459646,-0.0312323 -0.0754331,-0.0312323 -0.0294685,0 -0.0561417,0.0119409 -0.0754331,0.0312323 -0.0192913,0.0192913 -0.0312323,0.0459646 -0.0312323,0.0754331 0,0.0294685 0.0119409,0.0561417 0.0312323,0.0754331 0.0192913,0.0192913 0.0459646,0.0312323 0.0754331,0.0312323 0.0294685,0 0.0561417,-0.0119409 0.0754331,-0.0312323 0.0192913,-0.0192913 0.0312323,-0.0459646 0.0312323,-0.0754331 0,-0.0294685 -0.0119409,-0.0561417 -0.0312323,-0.0754331z"/>
 </g>
</svg>
