<?xml version="1.0" encoding="UTF-8"?>
<!DOCTYPE svg PUBLIC "-//W3C//DTD SVG 1.1//EN" "http://www.w3.org/Graphics/SVG/1.1/DTD/svg11.dtd">
<!-- Creator: CorelDRAW -->
<svg xmlns="http://www.w3.org/2000/svg" xml:space="preserve" width="6.82666in" height="6.82666in" style="shape-rendering:geometricPrecision; text-rendering:geometricPrecision; image-rendering:optimizeQuality; fill-rule:evenodd; clip-rule:evenodd"
viewBox="0 0 6.82666 6.82666"
 xmlns:xlink="http://www.w3.org/1999/xlink">
 <defs>
  <style type="text/css">
   <![CDATA[
    .fil0 {fill:#EC407A}
    .fil1 {fill:#FFFFFE}
   ]]>
  </style>
 </defs>
 <g id="Layer_x0020_1">
  <metadata id="CorelCorpID_0Corel-Layer"/>
  <rect class="fil0" width="6.82666" height="6.82666" rx="0.853335" ry="0.853335"/>
  <g id="_477831288">
   <path id="_477831624" class="fil1" d="M1.22744 3.19584c0.369744,-0.0177402 0.692921,-0.0152559 1.01302,0.00479921 0.320756,0.0200945 0.637374,0.0575984 0.993756,0.109913 0.483583,0.0709843 0.868413,0.125961 1.24656,0.135169 0.377449,0.00919291 0.755472,-0.0265669 1.23103,-0.136472l0.122524 -0.028315 0.00835827 0.126059c0.041937,0.632689 0.0187638,1.2032 -0.00551575,1.80116 -0.00738976,0.181929 -0.0148819,0.366382 -0.0204724,0.548736l-0.00269291 0.0877244 -0.0862402 0.0150472c-0.577571,0.100764 -1.03026,0.132197 -1.4796,0.103543 -0.44802,-0.0285709 -0.889283,-0.116791 -1.44596,-0.25552 -0.316512,-0.0788701 -0.584228,-0.129984 -0.852665,-0.156772 -0.268465,-0.0267874 -0.539925,-0.0295394 -0.864031,-0.0117283l-0.124705 0.00685433 0.0122795 -0.124311c0.0189488,-0.191791 0.0389213,-0.363043 0.058626,-0.53202 0.0614882,-0.52728 0.120433,-1.03271 0.0937992,-1.58187l-0.0051811 -0.106866 0.107118 -0.0051378zm2.14498 1.77328l0.0402953 -0.349598c-0.105516,-0.0439173 -0.180161,-0.100157 -0.22387,-0.169287 -0.0434252,-0.0690984 -0.0602323,-0.148697 -0.0498543,-0.238732 0.0105079,-0.0911772 0.0481142,-0.1645 0.112831,-0.219984 0.0649961,-0.0554449 0.145744,-0.0822244 0.242591,-0.080878l0.00952756 -0.082626 0.120807 0.0139252 -0.00951969 0.082626c0.0873583,0.0210354 0.154283,0.0590669 0.200965,0.114969 0.0463937,0.0558701 0.0720472,0.126386 0.0769567,0.211543l-0.214315 0.00330315c-0.00523622,-0.0672953 -0.0334488,-0.115583 -0.0848898,-0.145189l-0.0375984 0.326236c0.129453,0.0515866 0.215213,0.109102 0.256728,0.172209 0.0418071,0.0631417 0.0575236,0.139724 0.0471102,0.230047 -0.0115906,0.100575 -0.0518661,0.181969 -0.1205,0.243925 -0.0689528,0.0622047 -0.15872,0.0945906 -0.269079,0.097748l-0.0179961 0.156138 -0.120807 -0.0139213 0.0175354 -0.15215c-0.0949567,-0.0227835 -0.169173,-0.0677126 -0.222362,-0.13476 -0.0532244,-0.0667598 -0.0816181,-0.156067 -0.0857835,-0.267701l0.220657 0.00175984c0.00370866,0.0454646 0.0160866,0.0858661 0.036878,0.120882 0.0205079,0.0349921 0.0451654,0.0615039 0.0736929,0.0795157zm0.101012 -0.876413c-0.0343346,0.00729921 -0.0624567,0.0234055 -0.0851732,0.0476339 -0.0224606,0.0245472 -0.0355669,0.053063 -0.0392756,0.0852638 -0.00338189,0.0293465 0.00226378,0.058 0.0170433,0.0851063 0.0150236,0.0274291 0.0397323,0.0510591 0.0741063,0.0709016l0.0332992 -0.288906zm0.0184528 0.902024c0.0427638,-0.00287008 0.0789055,-0.0183386 0.108665,-0.0460866 0.0297874,-0.0280354 0.0470709,-0.0627087 0.0518976,-0.104591 0.00430315,-0.0373268 -0.00313386,-0.0705197 -0.0219528,-0.100114 -0.018815,-0.0295945 -0.0526063,-0.0545669 -0.10111,-0.0745906l-0.0375 0.325382zm-1.42592 -1.05933c0.118602,0 0.225996,0.0480827 0.303732,0.125823 0.0777362,0.0777402 0.125823,0.18513 0.125823,0.303736 0,0.118602 -0.0480866,0.225992 -0.125823,0.303732 -0.0777362,0.0777402 -0.18513,0.125823 -0.303732,0.125823 -0.118606,0 -0.225996,-0.0480827 -0.303736,-0.125823 -0.0777402,-0.0777402 -0.125823,-0.18513 -0.125823,-0.303732 0,-0.118606 0.0480827,-0.225996 0.125823,-0.303736 0.0777402,-0.0777402 0.18513,-0.125823 0.303736,-0.125823zm2.72133 0.21478c0.118602,0 0.225992,0.0480827 0.303732,0.125823 0.0777402,0.0777362 0.125823,0.18513 0.125823,0.303732 0,0.118606 -0.0480827,0.225996 -0.125823,0.303736 -0.0777402,0.0777402 -0.18513,0.125823 -0.303732,0.125823 -0.118606,0 -0.225996,-0.0480827 -0.303736,-0.125823 -0.0777362,-0.0777402 -0.125823,-0.18513 -0.125823,-0.303736 0,-0.118602 0.0480866,-0.225996 0.125823,-0.303732 0.0777402,-0.0777402 0.18513,-0.125823 0.303736,-0.125823z"/>
   <path id="_477831792" class="fil1" d="M1.3647 1.22257c0.289161,-0.0489567 0.543602,-0.0776063 0.797283,-0.0921339 0.254209,-0.014563 0.506807,-0.0150394 0.792087,-0.00763386 0.387102,0.0100551 0.695012,0.0168622 0.993335,-0.0116969 0.297768,-0.0285039 0.591732,-0.0924252 0.955398,-0.223898l0.0936969 -0.033874 0.0185079 0.0983661c0.0928898,0.493697 0.128677,0.944654 0.166193,1.4173 0.0114134,0.143803 0.0229803,0.289598 0.0358504,0.433567l0.00618898 0.0692598 -0.0664134 0.0200039c-0.444772,0.133941 -0.797874,0.201528 -1.15404,0.221531 -0.35511,0.0199449 -0.710559,-0.00767323 -1.16157,-0.0640906 -0.256433,-0.0320709 -0.471854,-0.0469291 -0.685543,-0.0425827 -0.213709,0.00434252 -0.427496,0.0278819 -0.680748,0.0725787l-0.0974449 0.0171969 -0.00211024 -0.0989449c-0.00325197,-0.152654 -0.00375591,-0.289252 -0.00425591,-0.424031 -0.00155512,-0.420575 -0.00304331,-0.823724 -0.0759843,-1.25317l-0.0141929 -0.0835669 0.0837677 -0.014185zm1.85511 1.19176l-0.00140551 -0.278807c-0.0871575,-0.0245551 -0.151197,-0.0617244 -0.192122,-0.111965 -0.0407008,-0.0502402 -0.0614567,-0.11126 -0.0618189,-0.183067 -0.000366142,-0.0727126 0.0222717,-0.133949 0.0679252,-0.18372 0.045878,-0.0497638 0.106854,-0.0784764 0.183161,-0.0865827l-0.000330709 -0.0658976 0.0963465 -0.000484252 0.000334646 0.0658937c0.0707047,0.00827559 0.126949,0.0318543 0.168961,0.0714094 0.0417835,0.0395551 0.0686378,0.0925906 0.080563,0.15911l-0.168264 0.0228898c-0.0104921,-0.0524409 -0.0372559,-0.087752 -0.0805197,-0.106169l0.00131102 0.260177c0.106713,0.0283189 0.179614,0.0654409 0.218248,0.11115 0.0388583,0.0457087 0.0584724,0.104461 0.0588346,0.176492 0.000405512,0.0802087 -0.0235669,0.148047 -0.071689,0.20328 -0.0483465,0.0554567 -0.115894,0.0894291 -0.202402,0.102362l0.000625984 0.12452 -0.0963425 0.000488189 -0.000614173 -0.121339c-0.0768465,-0.00892913 -0.13948,-0.0372441 -0.187665,-0.0849488 -0.048185,-0.0474724 -0.0789764,-0.115035 -0.0928228,-0.202449l0.173736 -0.0195079c0.00722047,0.0354094 0.0207835,0.0660197 0.0404528,0.0915945 0.0194449,0.0255827 0.0413504,0.0441024 0.0654961,0.0555709zm-0.00352756 -0.698945c-0.026315,0.00899213 -0.0469094,0.0243228 -0.0624843,0.0455315 -0.0153425,0.021437 -0.0229528,0.0451063 -0.0228189,0.0707874 0.00011811,0.0234016 0.00727165,0.0454055 0.0214646,0.0653307 0.0144134,0.0201535 0.0360866,0.0364016 0.065,0.0487559l-0.00116142 -0.230406zm0.0999213 0.707776c0.0333661,-0.00630709 0.0603268,-0.0218937 0.0811102,-0.0465394 0.0207795,-0.0248701 0.0310866,-0.0537835 0.0309213,-0.087185 -0.000153543,-0.0297677 -0.00914173,-0.0551693 -0.026748,-0.0766693 -0.0176024,-0.0214961 -0.0465472,-0.037937 -0.0865945,-0.0490984l0.00131102 0.259492zm-1.22192 -0.698256c0.0932953,-0.0112323 0.182319,0.0164252 0.250831,0.0702126 0.0685039,0.0537874 0.116496,0.133709 0.127724,0.227 0.0112323,0.0932953 -0.0164252,0.182319 -0.0702126,0.250831 -0.0537874,0.0685079 -0.133709,0.116496 -0.227,0.127724 -0.0932953,0.0112323 -0.182319,-0.0164213 -0.250827,-0.0702126 -0.0685118,-0.0537874 -0.1165,-0.133709 -0.127728,-0.227 -0.0112323,-0.0932953 0.0164252,-0.182319 0.0702126,-0.250827 0.0537874,-0.0685118 0.133709,-0.1165 0.227,-0.127728zm2.16091 -0.0887087c0.0932953,-0.0112323 0.182319,0.0164252 0.250831,0.0702126 0.0685079,0.0537874 0.116496,0.133709 0.127728,0.227 0.0112283,0.0932953 -0.0164252,0.182319 -0.0702165,0.250831 -0.0537874,0.0685079 -0.133709,0.116496 -0.227,0.127724 -0.0932953,0.0112323 -0.182319,-0.0164213 -0.250827,-0.0702126 -0.0685079,-0.0537874 -0.1165,-0.133709 -0.127728,-0.227 -0.0112323,-0.0932953 0.0164252,-0.182319 0.0702126,-0.250831 0.0537874,-0.0685079 0.133709,-0.116496 0.227,-0.127724z"/>
  </g>
 </g>
</svg>
