<?xml version="1.0" encoding="UTF-8"?>
<!DOCTYPE svg PUBLIC "-//W3C//DTD SVG 1.1//EN" "http://www.w3.org/Graphics/SVG/1.1/DTD/svg11.dtd">
<!-- Creator: CorelDRAW -->
<svg xmlns="http://www.w3.org/2000/svg" xml:space="preserve" width="6.82666in" height="6.82666in" style="shape-rendering:geometricPrecision; text-rendering:geometricPrecision; image-rendering:optimizeQuality; fill-rule:evenodd; clip-rule:evenodd"
viewBox="0 0 6.82666 6.82666"
 xmlns:xlink="http://www.w3.org/1999/xlink">
 <defs>
  <style type="text/css">
   <![CDATA[
    .fil0 {fill:#9E9E9E}
    .fil1 {fill:#FFFFFE;fill-rule:nonzero}
   ]]>
  </style>
 </defs>
 <g id="Layer_x0020_1">
  <metadata id="CorelCorpID_0Corel-Layer"/>
  <rect class="fil0" width="6.82666" height="6.82666" rx="0.853335" ry="0.853335"/>
  <g id="_470063232">
   <path id="_477826656" class="fil1" d="M1.18669 2.0737l0.101362 -0.654268c0.0069252,-0.0447165 0.0215827,-0.0932953 0.0421535,-0.134929 0.0185945,-0.0376457 0.0429331,-0.0718661 0.0724449,-0.0971339 0.0419449,-0.0359291 0.0920276,-0.0542441 0.149756,-0.0453031 0.0185079,0.00286614 0.0365827,0.00845276 0.0540236,0.0170709l1.80622 0.892378 1.57473 -0.805457c0.128988,-0.0659803 0.203921,-0.000905512 0.258091,0.105 0.0175433,0.034311 0.0296142,0.067126 0.0412598,0.098811l0.00575984 0.0156024 -0.000255906 9.05512e-005 0.226028 0.608138 -4.33157 0z"/>
   <path id="_470067816" class="fil1" d="M5.95657 3.52485l-1.44033 0c-0.00450787,0 -0.0086811,0.00191339 -0.0117638,0.00499606 -0.00307874,0.00308268 -0.00499606,0.00725984 -0.00499606,0.0117638l0 0.777323c0,0.00450787 0.00191732,0.00868504 0.00499606,0.0117638 0.00308661,0.00308661 0.00725984,0.005 0.0117638,0.005l1.44033 0c0.0045,0 0.00867717,-0.00191339 0.0117598,-0.005 0.00308268,-0.00308661 0.005,-0.00725591 0.005,-0.0117638l0 -0.777323c0,-0.0045 -0.00191732,-0.00867717 -0.005,-0.0117598 -0.00308268,-0.00308661 -0.00725984,-0.005 -0.0117598,-0.005zm-0.917106 0.158437c0.068,0 0.129764,0.0277638 0.174492,0.0724921 0.0447323,0.0447283 0.0724961,0.106492 0.0724961,0.174492 0,0.068 -0.0277638,0.129764 -0.0724961,0.174492 -0.0447283,0.0447283 -0.106492,0.0724921 -0.174492,0.0724921 -0.068,0 -0.129764,-0.0277638 -0.174492,-0.0724921 -0.0447244,-0.0447283 -0.0724882,-0.106492 -0.0724882,-0.174492 0,-0.068 0.0277638,-0.129764 0.0724882,-0.174492 0.0447283,-0.0447283 0.106492,-0.0724921 0.174492,-0.0724921z"/>
   <path id="_470062944" class="fil1" d="M1.13421 2.1737l4.55824 0c0.0773622,0 0.147614,0.031563 0.198465,0.0824173 0.0508504,0.0508504 0.0824173,0.121102 0.0824173,0.198461l0 0.872839 0 0.00233858 -1.39411 0c-0.0583543,0 -0.111343,0.0238071 -0.149697,0.0621575 -0.0383504,0.0383543 -0.0621575,0.0913386 -0.0621575,0.149697l0 0.777323c0,0.0583622 0.0238071,0.111343 0.0621575,0.149697 0.0383465,0.0383504 0.0913386,0.0621614 0.149697,0.0621614l1.39411 0 0 0.00233465 0 0.872843c0,0.0773622 -0.0315709,0.147614 -0.0824213,0.198457 -0.0508425,0.0508543 -0.121094,0.0824213 -0.198461,0.0824213l-4.55824 0c-0.0773622,0 -0.147614,-0.031563 -0.198465,-0.0824134 -0.0508504,-0.0508543 -0.0824173,-0.121106 -0.0824173,-0.198465l0 -2.95139c0,-0.0773661 0.0315669,-0.147614 0.0824173,-0.198461 0.0508465,-0.0508543 0.121094,-0.0824173 0.198465,-0.0824173z"/>
  </g>
 </g>
</svg>
