<?xml version="1.0" encoding="UTF-8"?>
<!DOCTYPE svg PUBLIC "-//W3C//DTD SVG 1.1//EN" "http://www.w3.org/Graphics/SVG/1.1/DTD/svg11.dtd">
<!-- Creator: CorelDRAW -->
<svg xmlns="http://www.w3.org/2000/svg" xml:space="preserve" width="6.82666in" height="6.82666in" style="shape-rendering:geometricPrecision; text-rendering:geometricPrecision; image-rendering:optimizeQuality; fill-rule:evenodd; clip-rule:evenodd"
viewBox="0 0 6.82666 6.82666"
 xmlns:xlink="http://www.w3.org/1999/xlink">
 <defs>
  <style type="text/css">
   <![CDATA[
    .fil0 {fill:#EC407A}
    .fil2 {fill:#FFFFFE}
    .fil1 {fill:#FFFFFE;fill-rule:nonzero}
   ]]>
  </style>
 </defs>
 <g id="Layer_x0020_1">
  <metadata id="CorelCorpID_0Corel-Layer"/>
  <rect class="fil0" width="6.82666" height="6.82666" rx="0.853335" ry="0.853335"/>
  <g id="_470068296">
   <path id="_470068680" class="fil1" d="M3.41022 1.27632c0.115697,0 0.220457,0.0469055 0.296291,0.12274 0.0758346,0.0758268 0.12274,0.180587 0.12274,0.296287 0,0.115697 -0.0469055,0.220457 -0.12274,0.296291 -0.0758346,0.0758346 -0.180594,0.12274 -0.296291,0.12274 -0.115701,0 -0.220461,-0.0469055 -0.296287,-0.12274 -0.0758346,-0.0758346 -0.12274,-0.180594 -0.12274,-0.296291 0,-0.115701 0.0469055,-0.220461 0.12274,-0.296287 0.0758268,-0.0758346 0.180587,-0.12274 0.296287,-0.12274zm0.145457 0.273575c-0.0372165,-0.0372165 -0.0886457,-0.0602362 -0.145457,-0.0602362 -0.056811,0 -0.10824,0.0230236 -0.145453,0.0602362 -0.0372126,0.0372126 -0.0602362,0.0886417 -0.0602362,0.145453 0,0.056811 0.0230197,0.10824 0.0602362,0.145457 0.0372126,0.0372126 0.0886417,0.0602362 0.145453,0.0602362 0.056811,0 0.10824,-0.0230197 0.145457,-0.0602362 0.0372165,-0.0372165 0.0602362,-0.0886457 0.0602362,-0.145457 0,-0.056811 -0.0230236,-0.10824 -0.0602362,-0.145453z"/>
   <path id="_470068368" class="fil1" d="M3.18995 1.74868c0.0294528,-0.0508543 0.0121063,-0.115965 -0.038748,-0.145417 -0.0508543,-0.0294528 -0.115965,-0.0121063 -0.145417,0.038748l-1.18106 2.04566c-0.0294528,0.0508543 -0.0121063,0.115965 0.038748,0.145417 0.0508543,0.0294528 0.115965,0.0121063 0.145417,-0.038748l1.18106 -2.04566z"/>
   <path id="_470068752" class="fil1" d="M3.82087 1.64201c-0.0294528,-0.0508543 -0.094563,-0.0682008 -0.145417,-0.038748 -0.0508543,0.0294528 -0.0682008,0.094563 -0.038748,0.145417l1.18106 2.04566c0.0294528,0.0508543 0.094563,0.0682008 0.145417,0.038748 0.0508543,-0.0294528 0.0682008,-0.094563 0.038748,-0.145417l-1.18106 -2.04566z"/>
   <path id="_470068224" class="fil2" d="M1.28537 3.35872l4.25592 0c0.118925,0 0.226961,0.0485748 0.305213,0.126831 0.078252,0.078252 0.126831,0.186291 0.126831,0.305209l0 1.32754c0,0.118917 -0.0485787,0.226957 -0.126831,0.305209 -0.0782598,0.078252 -0.186295,0.126831 -0.305213,0.126831l-4.25592 0c-0.118917,0 -0.226961,-0.0485748 -0.305213,-0.126831 -0.078252,-0.078252 -0.126831,-0.186291 -0.126831,-0.305209l0 -1.32754c0,-0.118925 0.0485748,-0.226961 0.126831,-0.305213 0.078252,-0.078252 0.186291,-0.126827 0.305213,-0.126827zm0.384118 1.10149c0,-0.0939331 0.013937,-0.172638 0.0420315,-0.236331 0.0210157,-0.046752 0.0495394,-0.0889961 0.0857835,-0.126315 0.0362441,-0.0370984 0.0759134,-0.0647638 0.11902,-0.0827756 0.0574724,-0.0244488 0.123528,-0.0364606 0.198587,-0.0364606 0.135748,0 0.244264,0.0420315 0.325756,0.126315 0.0814961,0.084063 0.122244,0.201157 0.122244,0.351063 0,0.148831 -0.0405315,0.265067 -0.121382,0.349134 -0.0808504,0.0838504 -0.188941,0.125886 -0.324043,0.125886 -0.137039,0 -0.24598,-0.0418189 -0.326831,-0.125244 -0.0808504,-0.0836378 -0.121165,-0.198799 -0.121165,-0.345272zm0.191508 -0.00622047c0,0.104224 0.0242323,0.183358 0.0722717,0.237189 0.048248,0.0538307 0.10937,0.0806339 0.183575,0.0806339 0.0739843,0 0.13489,-0.0265945 0.1825,-0.0802087 0.0473937,-0.0533976 0.0712008,-0.13339 0.0712008,-0.240189 0,-0.105508 -0.0231614,-0.184213 -0.0692717,-0.236331 -0.0463228,-0.0518937 -0.10787,-0.0778425 -0.184429,-0.0778425 -0.0767756,0 -0.138543,0.026374 -0.185508,0.0789173 -0.046748,0.0525394 -0.0703386,0.131677 -0.0703386,0.237831zm0.847094 0.461079l0 -0.921083 0.298307 0c0.11302,0 0.186791,0.00471654 0.221102,0.013937 0.0527598,0.0137244 0.0971496,0.043752 0.132752,0.0900709 0.0355984,0.0463228 0.0533976,0.106154 0.0533976,0.179283 0,0.0566181 -0.0102953,0.104228 -0.0308819,0.142614 -0.0205866,0.0386024 -0.0465354,0.0688425 -0.0782756,0.0909291 -0.0315236,0.021874 -0.0636929,0.0364567 -0.0962913,0.0435354 -0.0443937,0.00879134 -0.108728,0.0132953 -0.193012,0.0132953l-0.121165 0 0 0.347417 -0.185933 0zm0.185933 -0.765177l0 0.261209 0.10165 0c0.0733465,0 0.122457,-0.00472047 0.147122,-0.0143701 0.0246575,-0.00964961 0.0439567,-0.0246614 0.0581142,-0.045248 0.0139409,-0.0205906 0.0210157,-0.0443937 0.0210157,-0.0716299 0,-0.0334528 -0.00986614,-0.0611181 -0.0295945,-0.0829921 -0.0195157,-0.0216614 -0.0446063,-0.0353858 -0.0746299,-0.040748 -0.0223031,-0.00429134 -0.0669094,-0.00622047 -0.133819,-0.00622047l-0.0898583 0zm0.672319 0.765177l0 -0.921083 0.682827 0 0 0.155906 -0.496894 0 0 0.204161 0.462362 0 0 0.155051 -0.462362 0 0 0.250701 0.51448 0 0 0.155264 -0.700413 0zm0.859965 0l0 -0.921083 0.181 0 0.377012 0.615055 0 -0.615055 0.17285 0 0 0.921083 -0.186787 0 -0.37122 -0.600689 0 0.600689 -0.172854 0z"/>
  </g>
 </g>
</svg>
