<?xml version="1.0" encoding="UTF-8"?>
<!DOCTYPE svg PUBLIC "-//W3C//DTD SVG 1.1//EN" "http://www.w3.org/Graphics/SVG/1.1/DTD/svg11.dtd">
<!-- Creator: CorelDRAW -->
<svg xmlns="http://www.w3.org/2000/svg" xml:space="preserve" width="6.82666in" height="6.82666in" style="shape-rendering:geometricPrecision; text-rendering:geometricPrecision; image-rendering:optimizeQuality; fill-rule:evenodd; clip-rule:evenodd"
viewBox="0 0 6.82666 6.82666"
 xmlns:xlink="http://www.w3.org/1999/xlink">
 <defs>
  <style type="text/css">
   <![CDATA[
    .fil0 {fill:#FFCA28}
    .fil1 {fill:#FFFFFE}
   ]]>
  </style>
 </defs>
 <g id="Layer_x0020_1">
  <metadata id="CorelCorpID_0Corel-Layer"/>
  <rect class="fil0" width="6.82666" height="6.82666" rx="0.853335" ry="0.853335"/>
  <path class="fil1" d="M2.10689 0.853331l2.61289 0c0.0821614,0 0.156201,0.0365709 0.209276,0.0954724 0.0503583,0.055878 0.081622,0.13226 0.081622,0.215634l0 3.68222 -3.19468 0 0 -3.68222c0,-0.0833701 0.0312598,-0.159752 0.0816181,-0.215638 0.0530866,-0.0589016 0.127114,-0.0954685 0.20928,-0.0954685zm0.979799 3.14987c0.0493701,0 0.0940748,0.0200157 0.126433,0.0523701 0.0323583,0.0323661 0.052374,0.0770669 0.052374,0.126437 0,0.0493701 -0.0200157,0.0940748 -0.052378,0.126433 -0.0323543,0.0323583 -0.0770591,0.052374 -0.126429,0.052374 -0.0493661,0 -0.0940709,-0.0200157 -0.126429,-0.052374 -0.0323622,-0.0323583 -0.0523819,-0.077063 -0.0523819,-0.126433 0,-0.0493701 0.0200197,-0.0940709 0.0523819,-0.126437 0.0323543,-0.0323543 0.0770591,-0.0523701 0.126429,-0.0523701zm-0.904126 -1.70993c-0.027189,0 -0.0492283,0.0220394 -0.0492283,0.0492244 0,0.027185 0.0220394,0.0492244 0.0492283,0.0492244l0.322807 0 0.0852677 0.137512 0.243441 1.39647 0.0484528 -0.00826772 -0.0484921 0.00845276c0.00420472,0.0241299 0.0253228,0.0410709 0.0490551,0.0407717l1.41282 0c0.027189,0 0.0492244,-0.0220394 0.0492244,-0.0492244 0,-0.027185 -0.0220354,-0.0492283 -0.0492244,-0.0492283l-1.37207 0 -0.0336811 -0.193201 1.39231 0c0.038315,0 0.0713819,-0.0152835 0.0960748,-0.0399764 0.0245079,-0.0245039 0.0402992,-0.0585866 0.0439055,-0.0957717l0.0729134 -0.751016c0.000496063,-0.00509843 0.000740157,-0.00904724 0.000740157,-0.0118622 0,-0.0357008 -0.0153819,-0.0677244 -0.0395709,-0.0914961 -0.0228937,-0.0225 -0.054189,-0.0375669 -0.0876299,-0.0408071 -0.00557087,-0.00053937 -0.0101063,-0.000818898 -0.0135236,-0.000818898l-1.64507 0 -0.0239291 -0.137236c-0.00080315,-0.00697244 -0.00312205,-0.0138858 -0.00706299,-0.0202402l-0.000161417 9.84252e-005 -0.102642 -0.165524c-0.0081063,-0.016063 -0.024752,-0.0270827 -0.0439685,-0.0270827l-0.349984 0zm1.90568 0.399209l0 0.301913 0.336079 0 -0.00988976 0.0735472 -0.326189 0 0 0.208134 0.310606 0 -0.00958268 0.0735512 -0.301024 0 0 0.276154 -0.0668583 0 0 -0.276154 -0.411319 0 0 0.276154 -0.0668543 0 0 -0.276154 -0.411319 0 0 0.276154 -0.0668583 0 0 -0.276154 -0.256803 0 -0.0151457 -0.0735512 0.271949 0 0 -0.208134 -0.281791 0 -0.015626 -0.0735472 0.297417 0 0 -0.301913 0.0668583 0 0 0.301913 0.411319 0 0 -0.301913 0.0668543 0 0 0.301913 0.411319 0 0 -0.301913 0.0668583 0zm-0.0668583 0.583594l0 -0.208134 -0.411319 0 0 0.208134 0.411319 0zm-0.889492 0l0.411319 0 0 -0.208134 -0.411319 0 0 0.208134zm0.881539 0.72713c0.0493701,0 0.0940748,0.0200157 0.126433,0.0523701 0.0323583,0.0323661 0.052378,0.0770669 0.052378,0.126437 0,0.0493701 -0.0200197,0.0940748 -0.052378,0.126433 -0.0323583,0.0323583 -0.077063,0.052374 -0.126433,0.052374 -0.0493661,0 -0.0940748,-0.0200157 -0.126433,-0.052374 -0.0323583,-0.0323583 -0.0523701,-0.077063 -0.0523701,-0.126433 0,-0.0493701 0.0200118,-0.0940709 0.0523701,-0.126437 0.0323583,-0.0323543 0.077063,-0.0523701 0.126433,-0.0523701zm-0.600098 1.15368c0.0718701,0 0.136953,0.0291417 0.184067,0.076252 0.0471102,0.0471142 0.076252,0.112197 0.076252,0.184067 0,0.0718701 -0.0291417,0.136953 -0.076252,0.184067 -0.0471142,0.0471102 -0.112197,0.076252 -0.184067,0.076252 -0.0718701,0 -0.136953,-0.0291417 -0.184067,-0.076252 -0.0471102,-0.0471142 -0.076252,-0.112197 -0.076252,-0.184067 0,-0.0718701 0.0291417,-0.136953 0.076252,-0.184067 0.0471142,-0.0471102 0.112197,-0.076252 0.184067,-0.076252zm-1.18982 0.220752l0.369846 0 0 0.124717 -0.369846 0 0 -0.124717zm2.00979 0l0.369846 0 0 0.124717 -0.369846 0 0 -0.124717zm0.77737 -0.41098l0 0.695571c0,0.083374 -0.0312638,0.159748 -0.081622,0.215634 -0.0530866,0.0589055 -0.127114,0.0954724 -0.209276,0.0954724l-2.61289 0c-0.0821614,0 -0.156201,-0.0365709 -0.209276,-0.0954724 -0.0503583,-0.055878 -0.081622,-0.13226 -0.081622,-0.215634l0 -0.695571 3.19468 0z"/>
 </g>
</svg>
