<?xml version="1.0" encoding="UTF-8"?>
<!DOCTYPE svg PUBLIC "-//W3C//DTD SVG 1.1//EN" "http://www.w3.org/Graphics/SVG/1.1/DTD/svg11.dtd">
<!-- Creator: CorelDRAW -->
<svg xmlns="http://www.w3.org/2000/svg" xml:space="preserve" width="6.82666in" height="6.82666in" style="shape-rendering:geometricPrecision; text-rendering:geometricPrecision; image-rendering:optimizeQuality; fill-rule:evenodd; clip-rule:evenodd"
viewBox="0 0 6.82666 6.82666"
 xmlns:xlink="http://www.w3.org/1999/xlink">
 <defs>
  <style type="text/css">
   <![CDATA[
    .fil0 {fill:#42A5F5}
    .fil1 {fill:#FFFFFE}
   ]]>
  </style>
 </defs>
 <g id="Layer_x0020_1">
  <metadata id="CorelCorpID_0Corel-Layer"/>
  <rect class="fil0" width="6.82666" height="6.82666" rx="0.853335" ry="0.853335"/>
  <path class="fil1" d="M3.84704 0.862681l0.0476181 0.103591 0.186441 0.405583 0.43011 -0.201917 0.102992 -0.0483465 0.0132756 0.11322 0.0519449 0.443008 0.471409 -0.0591181 0.112937 -0.0141654 -0.0223661 0.111803 -0.0875748 0.437787 0.466213 0.0893819 0.111957 0.0214646 -0.055752 0.0992953 -0.218575 0.389287 0.415791 0.229071 0.0998701 0.0550236 -0.083811 0.0773031 -0.328098 0.302626 0.324661 0.346362 0.0778937 0.0830984 -0.103591 0.0476181 -0.405583 0.186441 0.201917 0.43011 0.0483465 0.102992 -0.11322 0.0132756 -0.443008 0.0519449 0.0591142 0.471409 0.0141614 0.112937 -0.111799 -0.0223661 -0.437787 -0.0875748 -0.089378 0.466213 -0.0214646 0.111957 -0.0992953 -0.055752 -0.389291 -0.218575 -0.229067 0.415791 -0.0550197 0.0998701 -0.0773071 -0.083811 -0.30263 -0.328098 -0.346358 0.324661 -0.0830984 0.0778937 -0.0476181 -0.103591 -0.186445 -0.405583 -0.43011 0.201917 -0.102992 0.0483465 -0.0132756 -0.11322 -0.0519449 -0.443008 -0.471406 0.0591142 -0.112937 0.0141614 0.0223661 -0.111799 0.0875748 -0.437787 -0.466213 -0.089378 -0.111957 -0.0214646 0.055752 -0.0992953 0.218575 -0.389291 -0.415791 -0.229067 -0.0998661 -0.0550197 0.0838071 -0.0773071 0.328098 -0.30263 -0.324661 -0.346358 -0.0778937 -0.0830984 0.103591 -0.0476181 0.405583 -0.186445 -0.201917 -0.43011 -0.0483465 -0.102992 0.11322 -0.0132756 0.443008 -0.0519449 -0.0591181 -0.471406 -0.0141654 -0.112937 0.111803 0.0223661 0.437787 0.0875748 0.0893819 -0.466213 0.0214646 -0.111957 0.0992953 0.055752 0.389287 0.218575 0.229071 -0.415791 0.0550236 -0.0998661 0.0773031 0.0838071 0.302626 0.328098 0.346362 -0.324661 0.0830984 -0.0778937zm0.158307 2.68236c0.0931732,0 0.177531,0.0377717 0.238598,0.0988425 0.0610709,0.0610669 0.0988425,0.145433 0.0988425,0.238598 0,0.0931654 -0.0377717,0.177531 -0.0988425,0.238598 -0.0610669,0.0610709 -0.145429,0.0988425 -0.238598,0.0988425 -0.0931654,0 -0.177524,-0.0377717 -0.238594,-0.0988425 -0.0610669,-0.0610669 -0.0988465,-0.145433 -0.0988465,-0.238598 0,-0.0931654 0.0377756,-0.177531 0.0988425,-0.238598 0.0610709,-0.0610709 0.145433,-0.0988425 0.238598,-0.0988425zm0.416213 -0.944024l-1.82054 1.82054c-0.0540906,0.0540827 -0.141831,0.0540827 -0.195917,0 -0.0540827,-0.0540866 -0.0540827,-0.141827 0,-0.195917l1.82054 -1.82054c0.0540906,-0.0540827 0.141831,-0.0540827 0.195917,0 0.0540827,0.0540866 0.0540827,0.141827 0,0.195917zm-1.4075 -0.134894c0.0931693,0 0.177531,0.0377717 0.238598,0.0988386 0.0610709,0.0610709 0.0988425,0.145429 0.0988425,0.238602 0,0.0931654 -0.0377717,0.177524 -0.0988425,0.238594 -0.0610669,0.0610669 -0.145429,0.0988425 -0.238598,0.0988425 -0.0931654,0 -0.177531,-0.0377756 -0.238598,-0.0988425 -0.0610669,-0.0610709 -0.0988425,-0.145429 -0.0988425,-0.238594 0,-0.0931693 0.0377756,-0.177531 0.0988425,-0.238602 0.0610669,-0.0610669 0.145433,-0.0988386 0.238598,-0.0988386z"/>
 </g>
</svg>
