<?xml version="1.0" encoding="UTF-8"?>
<!DOCTYPE svg PUBLIC "-//W3C//DTD SVG 1.1//EN" "http://www.w3.org/Graphics/SVG/1.1/DTD/svg11.dtd">
<!-- Creator: CorelDRAW -->
<svg xmlns="http://www.w3.org/2000/svg" xml:space="preserve" width="6.82666in" height="6.82666in" style="shape-rendering:geometricPrecision; text-rendering:geometricPrecision; image-rendering:optimizeQuality; fill-rule:evenodd; clip-rule:evenodd"
viewBox="0 0 6.82666 6.82666"
 xmlns:xlink="http://www.w3.org/1999/xlink">
 <defs>
  <style type="text/css">
   <![CDATA[
    .fil0 {fill:#424242}
    .fil1 {fill:#FFFFFE}
    .fil2 {fill:#FFFFFE;fill-rule:nonzero}
   ]]>
  </style>
 </defs>
 <g id="Layer_x0020_1">
  <metadata id="CorelCorpID_0Corel-Layer"/>
  <rect class="fil0" width="6.82666" height="6.82666" rx="0.853335" ry="0.853335"/>
  <g id="_318673200">
   <path id="_318674256" class="fil1" d="M1.06288 2.89817l0.326154 0 0.087937 0 0.0227402 0.0855866c0.0273386,0.102902 0.0945236,0.193299 0.186815,0.258138 0.0927874,0.0651969 0.210819,0.104118 0.339909,0.104118 0.129091,0 0.247118,-0.0389213 0.339909,-0.104118 0.0922913,-0.0648425 0.159472,-0.15524 0.186815,-0.258138l0.0227402 -0.0855866 0.0879331 0 0.426929 0c0.00704724,0 0.0152598,0.00053937 0.0245079,0.00156693 0.0458386,0.00512992 0.0892717,0.0249213 0.12176,0.0540394 0.038748,0.0347244 0.0632835,0.0822126 0.0632835,0.136268 0,0.00520472 -0.000425197,0.0116654 -0.00127953,0.0193465l-0.251906 2.25039c-0.00582283,0.0520276 -0.0304921,0.0995394 -0.068685,0.133484 -0.0365709,0.0325157 -0.0846732,0.0526457 -0.139591,0.0526457l-1.52406 0c-0.0549252,0 -0.103024,-0.0201299 -0.139594,-0.0526457 -0.0381969,-0.0339409 -0.0628583,-0.0814409 -0.0686811,-0.133484l-0.251906 -2.25039c-0.000850394,-0.0076811 -0.00127953,-0.0141378 -0.00127953,-0.0193504 0,-0.0540551 0.0245394,-0.101539 0.0632835,-0.136268 0.0324843,-0.0291102 0.0759252,-0.0489055 0.12176,-0.0540354 0.00924409,-0.00102756 0.0174606,-0.00156693 0.0245079,-0.00156693zm1.01394 1.19628c0.104787,0 0.199673,0.0424882 0.268346,0.111165 0.0686772,0.0686732 0.111165,0.163555 0.111165,0.268346 0,0.104787 -0.0424882,0.199669 -0.111165,0.268346 -0.068685,0.0686732 -0.163563,0.111165 -0.268346,0.111165 -0.104787,0 -0.199669,-0.0424921 -0.268346,-0.111165 -0.0686732,-0.0686772 -0.111165,-0.163559 -0.111165,-0.268346 0,-0.104791 0.0424803,-0.199673 0.111165,-0.268346 0.0686772,-0.0686772 0.163559,-0.111165 0.268346,-0.111165z"/>
   <path id="_318673896" class="fil2" d="M1.82 2.4024c-0.00778346,-0.0597047 -0.0625079,-0.101791 -0.122205,-0.0940079 -0.0597047,0.00779134 -0.101791,0.0625079 -0.0940079,0.122213l0.0923031 0.708102c0.0229528,0.0284134 0.0502953,0.0534646 0.0802677,0.0745276 0.0478819,0.0336378 0.101929,0.0568701 0.158472,0.0700866l-0.114831 -0.880921z"/>
   <path id="_318674208" class="fil2" d="M2.30659 2.43061c0.00779134,-0.0597047 -0.0342992,-0.114421 -0.094,-0.122213 -0.0597008,-0.00778346 -0.114421,0.0343031 -0.122209,0.0940079l-0.115815 0.888508c0.0250394,0.00373228 0.0503937,0.00559055 0.0757598,0.00559055 0.0495236,0 0.0989961,-0.00706693 0.146185,-0.0214173l0.110079 -0.844476z"/>
   <path id="_318674304" class="fil2" d="M2.63125 2.43573c0.0106181,-0.0592283 -0.0287953,-0.115858 -0.0880197,-0.126476 -0.0592323,-0.010622 -0.115866,0.0287874 -0.126484,0.0880197l-0.152945 0.851504c0.0209961,-0.010185 0.0412402,-0.0220197 0.0604843,-0.0355433 0.0669252,-0.0470197 0.120685,-0.113898 0.141902,-0.193744l0.0453976 -0.170831 0.0454921 0 0.0741732 -0.412929z"/>
   <path id="_318674232" class="fil2" d="M2.91952 2.44866c0.0106181,-0.0592244 -0.0287913,-0.115858 -0.0880157,-0.126476 -0.0592323,-0.0106181 -0.115866,0.0287874 -0.126484,0.0880197l-0.0789803 0.438461 0.221429 0 0.0720512 -0.400004z"/>
   <path id="_318674328" class="fil2" d="M3.60627 2.722l2.22899 0 0.138067 0 -0.0256024 0.135768 -0.497535 2.63824 -0.0176614 0.0936496 -0.0948031 0 -1.23393 0 -0.0948031 0 -0.0176614 -0.0936496 -0.497528 -2.63824 -0.0256063 -0.135768 0.138071 0zm2.18141 0.117799l-2.13383 0 0.108157 0.573528 1.91752 0 0.108157 -0.573528z"/>
   <polygon id="_318673296" class="fil2" points="5.06569,2.81162 5.40263,1.32662 5.42295,1.237 5.5142,1.237 5.94997,1.237 5.94997,1.46642 5.60543,1.46642 5.30065,2.8177 "/>
  </g>
 </g>
</svg>
