<?xml version="1.0" encoding="UTF-8"?>
<!DOCTYPE svg PUBLIC "-//W3C//DTD SVG 1.1//EN" "http://www.w3.org/Graphics/SVG/1.1/DTD/svg11.dtd">
<!-- Creator: CorelDRAW -->
<svg xmlns="http://www.w3.org/2000/svg" xml:space="preserve" width="6.82666in" height="6.82666in" style="shape-rendering:geometricPrecision; text-rendering:geometricPrecision; image-rendering:optimizeQuality; fill-rule:evenodd; clip-rule:evenodd"
viewBox="0 0 6.82666 6.82666"
 xmlns:xlink="http://www.w3.org/1999/xlink">
 <defs>
  <style type="text/css">
   <![CDATA[
    .fil0 {fill:#FF5722}
    .fil1 {fill:#FFFFFE}
   ]]>
  </style>
 </defs>
 <g id="Layer_x0020_1">
  <metadata id="CorelCorpID_0Corel-Layer"/>
  <rect class="fil0" width="6.82666" height="6.82666" rx="0.853335" ry="0.853335"/>
  <g id="_323557480">
   <path id="_323558080" class="fil1" d="M2.00534 0.853331l0 1.18963 0.973343 0 0 -1.18963 -0.973343 0zm0.216299 0.351484l0.54074 0 0 0.162224 -0.54074 0 0 -0.162224zm0 0.324445l0.54074 0 0 0.16222 -0.54074 0 0 -0.16222z"/>
   <g>
    <path id="_323558008" class="fil1" d="M5.35662 2.65256l0.540728 2.17648 0.0332717 0.133921 -0.138039 0 -4.75849 0 -0.138039 0 0.0332717 -0.133921 0.540728 -2.17648 0.0204685 -0.082378 0.0843031 0 3.67703 0 0.0843031 0 0.0204685 0.082378zm-3.40122 0.580028l0.216295 0 0 0.216299 -0.216295 0 0 -0.216299zm3.29644 1.08148l0.216299 0 0 0.216295 -0.216299 0 0 -0.216295zm-3.89333 0l0.216299 0 0 0.216295 -0.216299 0 0 -0.216295zm3.58367 -0.54074l0.203571 0 0 0.216299 -0.203571 0 0 -0.216299zm-3.25716 0l0.203571 0 0 0.216299 -0.203571 0 0 -0.216299zm2.79185 0l0.203575 0 0 0.216299 -0.203575 0 0 -0.216299zm-0.465307 0l0.203579 0 0 0.216299 -0.203579 0 0 -0.216299zm-0.465307 0l0.203575 0 0 0.216299 -0.203575 0 0 -0.216299zm-0.465307 0l0.203571 0 0 0.216299 -0.203571 0 0 -0.216299zm-0.465311 0l0.203575 0 0 0.216299 -0.203575 0 0 -0.216299zm-0.465307 0l0.203575 0 0 0.216299 -0.203575 0 0 -0.216299zm2.54532 0.54074l0.216299 0 0 0.216295 -0.216299 0 0 -0.216295zm-0.556189 0l0.216299 0 0 0.216295 -0.216299 0 0 -0.216295zm-0.556189 0l0.216299 0 0 0.216295 -0.216299 0 0 -0.216295zm-0.556189 0l0.216299 0 0 0.216295 -0.216299 0 0 -0.216295zm-0.556189 0l0.216299 0 0 0.216295 -0.216299 0 0 -0.216295zm-0.556189 0l0.216299 0 0 0.216295 -0.216299 0 0 -0.216295zm2.74438 -1.08148l0.216299 0 0 0.216299 -0.216299 0 0 -0.216299zm-0.540736 0l0.216295 0 0 0.216299 -0.216295 0 0 -0.216299zm-0.540736 0l0.216295 0 0 0.216299 -0.216295 0 0 -0.216299zm-0.54074 0l0.216299 0 0 0.216299 -0.216299 0 0 -0.216299zm-0.540736 0l0.216299 0 0 0.216299 -0.216299 0 0 -0.216299z"/>
    <path id="_323557360" class="fil1" d="M0.89428 5.07111l5.03811 0 0 0.902224 -5.03811 0 0 -0.902224zm2.51905 0.26835c0.0504646,0 0.0961535,0.0204567 0.129224,0.0535354 0.0330787,0.0330748 0.0535354,0.0787677 0.0535354,0.129224 0,0.0504646 -0.0204567,0.0961535 -0.0535354,0.129224 -0.0330709,0.0330787 -0.0787598,0.0535354 -0.129224,0.0535354 -0.0504646,0 -0.0961535,-0.0204567 -0.129224,-0.0535354 -0.0330787,-0.0330709 -0.0535354,-0.0787598 -0.0535354,-0.129224 0,-0.0504567 0.0204567,-0.0961496 0.0535354,-0.129224 0.0330709,-0.0330787 0.0787598,-0.0535354 0.129224,-0.0535354z"/>
    <polygon id="_323557288" class="fil1" points="1.49181,1.5563 1.8972,1.5563 1.8972,2.04296 1.8972,2.15111 2.00535,2.15111 2.97868,2.15111 3.08683,2.15111 3.08683,2.04296 3.08683,1.5563 5.33486,1.5563 5.33486,2.46204 1.49181,2.46204 "/>
   </g>
  </g>
 </g>
</svg>
