<?xml version="1.0" encoding="UTF-8"?>
<!DOCTYPE svg PUBLIC "-//W3C//DTD SVG 1.1//EN" "http://www.w3.org/Graphics/SVG/1.1/DTD/svg11.dtd">
<!-- Creator: CorelDRAW -->
<svg xmlns="http://www.w3.org/2000/svg" xml:space="preserve" width="6.82666in" height="6.82666in" style="shape-rendering:geometricPrecision; text-rendering:geometricPrecision; image-rendering:optimizeQuality; fill-rule:evenodd; clip-rule:evenodd"
viewBox="0 0 6.82666 6.82666"
 xmlns:xlink="http://www.w3.org/1999/xlink">
 <defs>
  <style type="text/css">
   <![CDATA[
    .fil0 {fill:#EF5350}
    .fil1 {fill:#FFFFFE}
   ]]>
  </style>
 </defs>
 <g id="Layer_x0020_1">
  <metadata id="CorelCorpID_0Corel-Layer"/>
  <rect class="fil0" width="6.82666" height="6.82666" rx="0.853335" ry="0.853335"/>
  <path class="fil1" d="M3.50072 1.00572l0.196539 0.315165 0.228138 -0.254933 0.119744 -0.133811 0.0540984 0.171063 0.111961 0.354067 0.284201 -0.190075 0.149173 -0.0997677 0.00985433 0.179083 0.0203937 0.370862 0.323055 -0.11361 0.16913 -0.0594764 -0.0349409 0.175646 -0.0724843 0.364319 0.340724 -0.0296575 0.17863 -0.0155433 -0.077685 0.161756 -0.160878 0.33498 0.33739 0.0560039 0.177067 0.0293937 -0.115378 0.137244 -0.238929 0.284217 0.313079 0.138244 0.16428 0.0725433 -0.146256 0.104504 -0.301909 0.215724 0.268717 0.211654 0.14102 0.111071 -0.167457 0.0647795 -0.34635 0.13398 0.20776 0.27198 0.109028 0.142732 -0.178327 0.0211024 -0.36889 0.0436457 0.133594 0.31511 0.0699016 0.16487 -0.177654 -0.0238701 -0.367886 -0.0494252 0.0510236 0.338374 0.0267835 0.177638 -0.166583 -0.0674803 -0.344228 -0.139441 -0.0346732 0.339894 -0.0182402 0.17876 -0.144394 -0.106657 -0.2985 -0.220492 -0.118244 0.320945 -0.0620827 0.1685 -0.113366 -0.13926 -0.234476 -0.288035 -0.194465 0.281626 -0.101961 0.147669 -0.0750906 -0.16289 -0.155492 -0.337335 -0.258449 0.224465 -0.135173 0.117402 -0.0322638 -0.176685 -0.0666929 -0.365244 -0.306201 0.153173 -0.16048 0.0802756 0.0126693 -0.178815 0.0262362 -0.370374 -0.334685 0.0722126 -0.175008 0.0377559 0.0568386 -0.170346 0.117551 -0.352295 -0.341634 -0.0132677 -0.179665 -0.00698031 0.0971535 -0.150445 0.201547 -0.312118 -0.32772 -0.0978504 -0.17178 -0.0512913 0.131724 -0.121756 0.272854 -0.252209 -0.293228 -0.176366 -0.153992 -0.0926102 0.157996 -0.0852441 0.326744 -0.176283 -0.240181 -0.243772 -0.125862 -0.127744 0.174331 -0.0432992 0.360193 -0.0894567 -0.172059 -0.295921 -0.0900236 -0.154831 0.17935 0.00140945 0.371362 0.00292913 -0.0931102 -0.329579 -0.0487402 -0.172543 0.173319 0.0459606 0.359272 0.0952756 -0.0082126 -0.342114 -0.00430315 -0.179394 0.15652 0.0876614 0.323933 0.181425 0.0770315 -0.333004 0.0404961 -0.175051 0.129748 0.123783 0.268811 0.256449 0.157469 -0.303461 0.0828189 -0.159602 0.0950315 0.15239zm-1.028 1.41161l0.30913 0c0.0612126,0 0.106949,0.00252362 0.137016,0.00774016 0.0300669,0.00504331 0.0568898,0.0156654 0.0806575,0.0318701 0.0237677,0.0162047 0.0433898,0.0376299 0.0592362,0.0646339 0.0158425,0.0268268 0.0237638,0.0570748 0.0237638,0.0903819 0,0.036189 -0.00972441,0.0694961 -0.0291654,0.0997402 -0.019626,0.030252 -0.0460945,0.052937 -0.0794016,0.0680591 0.0469921,0.013685 0.0833583,0.0370866 0.108567,0.0700394 0.0253858,0.033126 0.0379882,0.0720157 0.0379882,0.116665 0,0.0351063 -0.00810236,0.069315 -0.0244882,0.102622 -0.0163819,0.0331299 -0.0387087,0.0597756 -0.0669724,0.0795827 -0.0282677,0.0198031 -0.0631969,0.0320472 -0.104783,0.0367283 -0.0259291,0.00269685 -0.0887598,0.0045 -0.188327,0.00522047l-0.26322 0 0 -0.773283zm0.156276 0.128728l0 0.178783 0.102264 0c0.0608543,0 0.0986654,-0.000901575 0.113429,-0.00270079 0.0266457,-0.00305906 0.0477087,-0.0122402 0.0630157,-0.0275472 0.0152992,-0.0153031 0.0228622,-0.0354685 0.0228622,-0.0604921 0,-0.0239449 -0.00648425,-0.0433937 -0.019622,-0.0583346 -0.0133228,-0.0149409 -0.0329488,-0.0239488 -0.058874,-0.0270039 -0.0154843,-0.00180315 -0.0599567,-0.00270472 -0.133417,-0.00270472l-0.0896575 0zm0 0.307512l0 0.206689 0.144394 0c0.0563504,0 0.0920039,-0.00143701 0.107126,-0.00467717 0.0232244,-0.00414567 0.0421299,-0.0145866 0.0567126,-0.0307913 0.0145827,-0.0163819 0.0219646,-0.0383465 0.0219646,-0.0657126 0,-0.0232283 -0.00575984,-0.0428504 -0.0169213,-0.0590551 -0.0113425,-0.0162047 -0.0275472,-0.0280866 -0.0487913,-0.0354685 -0.0212441,-0.00738189 -0.0675197,-0.0109843 -0.138457,-0.0109843l-0.126028 0zm0.991134 0.337043l0 -0.0839016c-0.0205236,0.0298858 -0.0473543,0.0534724 -0.0804764,0.0707559 -0.033311,0.0171063 -0.0684213,0.025748 -0.105327,0.025748 -0.0376299,0 -0.0712953,-0.00828346 -0.101185,-0.0246654 -0.0298858,-0.016563 -0.0514921,-0.0397913 -0.0649961,-0.0696772 -0.0133228,-0.0298898 -0.0199843,-0.0712953 -0.0199843,-0.124051l0 -0.354323 0.148177 0 0 0.257283c0,0.0788583 0.00269685,0.127106 0.00827953,0.144929 0.00540157,0.0176457 0.0153031,0.031689 0.0297087,0.0421299 0.0144016,0.0104449 0.0327638,0.0154843 0.0549094,0.0154843 0.0253858,0 0.0480709,-0.00683858 0.0680551,-0.0207008 0.0199843,-0.0140433 0.0336732,-0.0311496 0.0410512,-0.0516732 0.00738189,-0.0207087 0.0111614,-0.0711181 0.0111614,-0.151236l0 -0.236217 0.148177 0 0 0.560114 -0.137551 0zm0.220909 -0.560114l0.157717 0 0.133953 0.397713 0.13089 -0.397713 0.153394 0 -0.197685 0.539047 -0.0354646 0.0975827c-0.0129646,0.0325906 -0.0253858,0.0576142 -0.0370906,0.0748976 -0.0118858,0.0172835 -0.0253858,0.0311496 -0.040689,0.0419528 -0.0153031,0.0106181 -0.0340276,0.0190827 -0.0563543,0.0250236 -0.0223228,0.00594094 -0.0475315,0.009 -0.0757953,0.009 -0.0284488,0 -0.0563543,-0.00305906 -0.0839016,-0.009l-0.0131457 -0.116126c0.0232283,0.0046811 0.0441142,0.00684252 0.0628386,0.00684252 0.0343898,0 0.0599528,-0.0100827 0.0765197,-0.030248 0.016378,-0.0201693 0.0291654,-0.0459134 0.0379882,-0.0772402l-0.213173 -0.561732zm-1.48697 1.76694l0 -0.77328 0.151957 0 0.316516 0.516362 0 -0.516362 0.145114 0 0 0.77328 -0.156819 0 -0.311654 -0.504299 0 0.504299 -0.145114 0zm0.743213 -0.288067c0,-0.0491535 0.0122441,-0.0968661 0.0363701,-0.142953 0.0243071,-0.0459094 0.0586969,-0.0812008 0.103165,-0.105327 0.0444724,-0.0243071 0.0941654,-0.0365472 0.149075,-0.0365472 0.0846181,0 0.154118,0.0275472 0.208311,0.0826417 0.054189,0.0550906 0.0811969,0.124587 0.0811969,0.208665 0,0.084622 -0.0273661,0.154839 -0.0819173,0.21065 -0.0547323,0.055811 -0.123508,0.0835394 -0.206512,0.0835394 -0.0514882,0 -0.10028,-0.0115236 -0.146913,-0.034748 -0.0466299,-0.0232244 -0.0820984,-0.057252 -0.106406,-0.102083 -0.024126,-0.0448307 -0.0363701,-0.0993819 -0.0363701,-0.163839zm0.151957 0.00792126c0,0.0556339 0.0131457,0.098122 0.0396142,0.12765 0.0262835,0.0295276 0.0588701,0.0442913 0.0975827,0.0442913 0.0387047,0 0.0711142,-0.0147638 0.0972205,-0.0442913 0.0262874,-0.0295276 0.0394291,-0.072374 0.0394291,-0.128728 0,-0.0547323 -0.0131417,-0.0970472 -0.0394291,-0.126571 -0.0261063,-0.0295276 -0.0585157,-0.0442913 -0.0972205,-0.0442913 -0.0387126,0 -0.0712992,0.0147638 -0.0975827,0.0442913 -0.0264685,0.0295236 -0.0396142,0.0721969 -0.0396142,0.12765zm0.646713 0.280146l-0.177339 -0.56011 0.144031 0 0.104965 0.367102 0.0965039 -0.367102 0.142953 0 0.0934449 0.367102 0.107122 -0.367102 0.146012 0 -0.179858 0.56011 -0.142417 0 -0.0965 -0.360264 -0.0948819 0.360264 -0.144035 0z"/>
 </g>
</svg>
