<?xml version="1.0" encoding="UTF-8"?>
<!DOCTYPE svg PUBLIC "-//W3C//DTD SVG 1.1//EN" "http://www.w3.org/Graphics/SVG/1.1/DTD/svg11.dtd">
<!-- Creator: CorelDRAW -->
<svg xmlns="http://www.w3.org/2000/svg" xml:space="preserve" width="6.82666in" height="6.82666in" style="shape-rendering:geometricPrecision; text-rendering:geometricPrecision; image-rendering:optimizeQuality; fill-rule:evenodd; clip-rule:evenodd"
viewBox="0 0 6.82666 6.82666"
 xmlns:xlink="http://www.w3.org/1999/xlink">
 <defs>
  <style type="text/css">
   <![CDATA[
    .fil0 {fill:#EF5350}
    .fil2 {fill:#212121;fill-rule:nonzero}
    .fil1 {fill:#FFFFFE;fill-rule:nonzero}
   ]]>
  </style>
 </defs>
 <g id="Layer_x0020_1">
  <metadata id="CorelCorpID_0Corel-Layer"/>
  <rect class="fil0" width="6.82666" height="6.82666" rx="0.853335" ry="0.853335"/>
  <path class="fil1" d="M5.44499 3.5528c0.144673,0.078626 0.263358,0.166354 0.350701,0.261079 0.114906,0.124614 0.177642,0.261933 0.177642,0.408043 0,0.317445 -0.300402,0.595685 -0.786075,0.788902 -0.456256,0.181516 -1.08362,0.293787 -1.77393,0.293787 -0.690307,0 -1.31767,-0.112272 -1.77393,-0.293787 -0.485673,-0.193217 -0.786071,-0.471457 -0.786071,-0.788902 0,-0.146114 0.0627362,-0.283429 0.177654,-0.408047 0.0873346,-0.0947126 0.206012,-0.182437 0.350669,-0.261051l-0.00289764 0.0355787 0.0327441 0.00261811c0.00887008,0.0226339 0.0197913,0.0441929 0.0320945,0.062815 0.0286693,0.0433898 0.0627795,0.084252 0.0984764,0.12198 0.159161,0.16824 0.374815,0.290516 0.58876,0.373996 0.400193,0.15615 0.855906,0.205039 1.28251,0.205039 0.426646,0 0.882417,-0.0488976 1.28264,-0.205094 0.213925,-0.0834882 0.429575,-0.20578 0.588705,-0.374039 0.0356654,-0.0377126 0.0697559,-0.0785551 0.0983976,-0.121917 0.0122953,-0.0186181 0.0232087,-0.0401614 0.0320669,-0.0627795l0.0327402 -0.00261811 -0.00289764 -0.0356024z"/>
  <path class="fil1" d="M5.20719 3.70243c-0.189374,0.200224 -0.679319,0.54576 -1.79385,0.54576 -1.11436,0 -1.60433,-0.345429 -1.79378,-0.545673 -0.0419331,-0.0443268 -0.0697165,-0.0813701 -0.0869646,-0.107476 -0.025689,-0.038878 -0.0355906,-0.0857638 -0.0376654,-0.104346l-0.0011811 -9.44882e-005c0.159858,-1.9622 0.909657,-2.19077 1.44933,-2.1468 0.133122,0.0108425 0.249543,0.0384606 0.341197,0.0601969 0.0594331,0.0140945 0.106831,0.0253386 0.129055,0.0253386 0.0222283,0 0.0696299,-0.0112441 0.129067,-0.0253425 0.0916654,-0.0217441 0.20811,-0.0493661 0.34124,-0.0602087 0.539673,-0.0439606 1.28943,0.184638 1.44927,2.14682l-0.0011811 9.44882e-005c-0.00207874,0.0185827 -0.0119764,0.0654567 -0.0376457,0.104323 -0.0172283,0.0260827 -0.0449843,0.0631024 -0.0868898,0.107413zm-1.58802 0.00662598c-0.0586811,0.00414173 -0.102894,0.0550709 -0.098752,0.113752 0.00414173,0.0586811 0.0550709,0.102894 0.113752,0.098752 0.255504,-0.018622 0.478417,-0.0533543 0.668539,-0.104252 0.194681,-0.0521181 0.356551,-0.121866 0.485421,-0.209327 0.0485551,-0.0329055 0.0612402,-0.0989449 0.0283346,-0.1475 -0.0329055,-0.0485551 -0.0989449,-0.0612402 -0.1475,-0.0283346 -0.108051,0.0733307 -0.248535,0.133087 -0.421256,0.179327 -0.177272,0.0474567 -0.386846,0.0799646 -0.628539,0.0975827z"/>
  <path class="fil2" d="M1.70608 3.69076l-0.00220079 0.0067874 0.00145669 0.000220472c8.26772e-005,-0.001 0.000362205,-0.00360236 0.000744094,-0.00700787z"/>
  <path class="fil2" d="M1.70875 3.66141c-0.000716535,0.00837402 -0.00148031,0.0165748 -0.00217323,0.0250197 0.00124016,-0.0107008 0.00301181,-0.0249528 0.00346063,-0.0258661l-0.0012874 0.000846457z"/>
  <path class="fil2" d="M5.12057 3.6908c0.000377953,0.00337795 0.000645669,0.0059685 0.000728346,0.0069685l0.00146063 -0.000220472 -0.00218898 -0.00674803z"/>
  <path class="fil2" d="M5.11663 3.66055c0.000456693,0.000948819 0.00216535,0.0147913 0.00338976,0.0254252 -0.000700787,-0.00824409 -0.00143307,-0.0163622 -0.00213386,-0.0245945l-0.00125591 -0.000830709z"/>
 </g>
</svg>
