<?xml version="1.0" encoding="UTF-8"?>
<!DOCTYPE svg PUBLIC "-//W3C//DTD SVG 1.1//EN" "http://www.w3.org/Graphics/SVG/1.1/DTD/svg11.dtd">
<!-- Creator: CorelDRAW -->
<svg xmlns="http://www.w3.org/2000/svg" xml:space="preserve" width="6.82666in" height="6.82666in" style="shape-rendering:geometricPrecision; text-rendering:geometricPrecision; image-rendering:optimizeQuality; fill-rule:evenodd; clip-rule:evenodd"
viewBox="0 0 6.82666 6.82666"
 xmlns:xlink="http://www.w3.org/1999/xlink">
 <defs>
  <style type="text/css">
   <![CDATA[
    .fil0 {fill:#9E9E9E}
    .fil1 {fill:#FFFFFE}
    .fil2 {fill:#212121;fill-rule:nonzero}
    .fil3 {fill:#FFFFFE;fill-rule:nonzero}
   ]]>
  </style>
 </defs>
 <g id="Layer_x0020_1">
  <metadata id="CorelCorpID_0Corel-Layer"/>
  <rect class="fil0" width="6.82666" height="6.82666" rx="0.853335" ry="0.853335"/>
  <path class="fil1" d="M4.56425 1.61565l1.40907 1.04144 -1.88759 2.55391 -1.40907 -1.04144 0.0952087 -0.128823 0.00152362 0.000181102c0.0104331,0.00123622 0.0204882,0.00106693 0.0308071,-0.000185039 0.062626,-0.0060315 0.125701,-0.0082126 0.188528,-0.0112008 0.0989606,-0.00470472 0.197941,-0.00874803 0.296929,-0.0127165 0.0407874,-0.0016378 0.0815827,-0.00324803 0.12237,-0.00485433 0.0842795,-0.00332283 0.168528,-0.00731102 0.252768,-0.0115315 0.0260512,-0.00130709 0.0521024,-0.00266142 0.0781614,-0.00387402 0.00879134,-0.000409449 0.0210039,-0.00174409 0.0298228,-0.00103937l0.0289528 0.00456299c0.130583,0.0206024 0.244543,-0.0553425 0.29965,-0.171386 0.0180472,-0.0380118 0.0285276,-0.0795906 0.0311811,-0.121559 0.00265354,-0.0419173 -0.00246063,-0.0844331 -0.0155512,-0.12437 -0.0412598,-0.125886 -0.144193,-0.200232 -0.275224,-0.208504l-0.00340157 -0.000212598c-0.00281496,-0.000181102 -0.00562205,-0.000255906 -0.00843701,-0.000251969 -0.078563,-0.00118504 -0.156732,-0.00766535 -0.234197,-0.0210079 -0.0587559,-0.0101181 -0.116803,-0.0244173 -0.175008,-0.0372598 -0.032811,-0.00724016 -0.0654055,-0.0140039 -0.0979213,-0.0202362 0.407531,-0.551366 0.827953,-1.12021 1.24142,-1.67965zm-0.029378 1.88826l-0.199874 -0.170744c-0.0712165,0.0470866 -0.137197,0.0698976 -0.198268,0.0681654 -0.060937,-0.00189764 -0.117276,-0.0246693 -0.168752,-0.0686417 -0.0521299,-0.0445354 -0.0818976,-0.0984213 -0.0892953,-0.161657 -0.00726378,-0.0634016 0.00980709,-0.124618 0.0510236,-0.184087l-0.0472402 -0.0403543 0.059 -0.0690669 0.0472402 0.0403543c0.0494685,-0.0453701 0.100949,-0.0709961 0.155055,-0.0766181 0.0539724,-0.00546063 0.108374,0.00804724 0.163201,0.0405118l-0.087315 0.134205c-0.0438898,-0.0248189 -0.0855827,-0.0274646 -0.125382,-0.0079252l0.186524 0.159335c0.0859488,-0.0587283 0.157358,-0.0878976 0.21378,-0.087311 0.0565591,0.000409449 0.110583,0.0226102 0.16222,0.0667205 0.0575039,0.049122 0.0911575,0.108024 0.100937,0.176398 0.00980709,0.0686732 -0.00755512,0.137815 -0.0516102,0.207531l0.0892638 0.0762559 -0.059 0.0690709 -0.0869843 -0.074311c-0.0537205,0.0493583 -0.112512,0.0766181 -0.17624,0.081626 -0.0635787,0.00514961 -0.130764,-0.0144882 -0.201693,-0.0584567l0.0930984 -0.136024c0.0297244,0.0166535 0.0599291,0.0258307 0.0903031,0.0275472 0.0302362,0.00187402 0.0569488,-0.00235039 0.0800079,-0.0125236zm-0.501071 -0.428043c-0.0097874,0.0243268 -0.0115433,0.0484724 -0.00599606,0.0726535 0.00585433,0.0241575 0.0180591,0.0441732 0.0364685,0.0598976 0.0167795,0.0143268 0.0368937,0.0227795 0.0598583,0.0249252 0.0232677,0.00212205 0.0482126,-0.00333465 0.0748465,-0.0163701l-0.165177 -0.141106zm0.566756 0.364681c0.0160551,-0.0277008 0.0215394,-0.0565472 0.016752,-0.0865669 -0.00496063,-0.0301496 -0.0192402,-0.0553189 -0.043189,-0.0757795 -0.0213386,-0.0182244 -0.0450118,-0.0274567 -0.0712047,-0.0281339 -0.026185,-0.000673228 -0.055752,0.00985827 -0.0883898,0.0315709l0.186031 0.158909z"/>
  <polygon class="fil2" points="3.77648,2.54346 3.77648,2.54346 3.77649,2.54346 3.77649,2.54346 "/>
  <g id="_477826152">
   <path id="_477826032" class="fil1" d="M3.83107 3.49009c-0.000594488,-3.93701e-006 -0.0011811,-3.93701e-006 -0.00176378,-1.1811e-005 -0.0852717,-0.00121654 -0.169232,-0.00821654 -0.253283,-0.0226969 -0.0608543,-0.0104803 -0.120118,-0.0250236 -0.180323,-0.0383031 -0.140476,-0.0309882 -0.265402,-0.0517205 -0.409886,-0.0600394l-0.00438583 -0.000251969 -0.145465 0.00222047 0.0484213 -0.130236c0.00403543,-0.0257795 0.0134882,-0.0507402 0.0256339,-0.0737047 0.0437638,-0.0827559 0.124591,-0.14737 0.217071,-0.165681 0.035374,-0.00700787 0.0716811,-0.0064685 0.106819,0.00171654 0.0524449,0.0122205 0.0979488,0.0358976 0.136504,0.0739016l0.0014685 0.00144882 0.00677559 0.00576378c0.00525197,0.00226378 0.0115315,0.00126772 0.015874,-0.00294488 0.0013937,-0.00157874 0.00274409,-0.00342126 0.00402756,-0.0050748l0.401559 -0.515972c0.00314961,-0.00522441 0.00157087,-0.012563 -0.00076378,-0.0177441 -0.00134646,-0.00298819 -0.00259055,-0.00600394 -0.00388976,-0.00900787l-0.000106299 -0.000216535c-0.000488189,-0.00092126 -0.000984252,-0.00183858 -0.00146457,-0.00275984 -0.00160236,-0.00308661 -0.00312992,-0.00617323 -0.00460236,-0.00931102 -0.0129252,-0.0252008 -0.0288071,-0.0495906 -0.0484016,-0.0701102 -0.0167244,-0.0175157 -0.0361811,-0.032122 -0.0589173,-0.0408268l-0.00874803 -0.00335433c-0.300307,-0.105862 -0.580933,-0.159807 -0.886689,-0.0456142 -0.0908465,0.0339291 -0.178024,0.0782047 -0.264114,0.122598 -0.149394,0.0770433 -0.291209,0.146094 -0.453307,0.194272 -0.172323,0.0512126 -0.349055,0.0742283 -0.527469,0.0770157 0.00833858,0.0371142 0.0112165,0.0764252 0.00823228,0.11965l-0.0565433 0.818406c-0.00184646,0.0266772 -0.00666535,0.0525669 -0.0140906,0.0774843l1.30782 0.154748c0.00149606,-7.87402e-006 0.00321654,-0.000188976 0.00445669,-0.000311024 0.0644016,-0.00627953 0.131024,-0.00867323 0.195689,-0.011748 0.0992441,-0.00471654 0.198528,-0.00877165 0.297795,-0.0127559 0.0408189,-0.00163386 0.0816378,-0.00324803 0.122453,-0.00485827 0.0838661,-0.00329921 0.167693,-0.00727165 0.251516,-0.0114764 0.0261969,-0.00131102 0.0523898,-0.00267717 0.0785866,-0.0038937 0.0163622,-0.00076378 0.0364961,-0.00240157 0.0525079,0.000122047l0.0297874 0.00470079c0.0782244,-0.00106299 0.142122,-0.0340079 0.176496,-0.106413 0.0117087,-0.0246535 0.0184567,-0.0518189 0.0201772,-0.0790276 0.00172047,-0.0271654 -0.00151575,-0.0549213 -0.01,-0.0808071 -0.0262717,-0.0801378 -0.0880472,-0.12337 -0.172063,-0.128677l-0.00339764 -0.000216535z"/>
   <path id="_477826392" class="fil3" d="M1.43667 3.68521c-0.00888976,0.0828386 -0.0541339,0.152004 -0.112287,0.199217 -0.0595394,0.0483268 -0.137209,0.0752559 -0.201457,0.0686693l-2.75591e-005 0.000413386 -0.0417402 -0.0041811c-0.0702047,-0.00716142 -0.130902,-0.0495 -0.17224,-0.112299 -0.0388622,-0.0590551 -0.0601969,-0.136213 -0.054748,-0.217693l2.75591e-005 3.93701e-006 0.0535394 -0.833311 0 -0.000456693c0.00358661,-0.0537283 0.018311,-0.103531 0.0410709,-0.14589 0.0245551,-0.0457087 0.0581142,-0.0825079 0.0970984,-0.106409 0.0192953,-0.0118307 0.0407087,-0.0207244 0.0638189,-0.0262087 0.0224213,-0.0053189 0.0450236,-0.0070748 0.0672795,-0.00481496l0.041752 0.00416929c0.068563,0.00700394 0.147614,0.0671535 0.203772,0.143449 0.0536417,0.0728701 0.0762913,0.13339 0.0706811,0.216937l-0.0565394 0.818406z"/>
  </g>
 </g>
</svg>
