<?xml version="1.0" encoding="UTF-8"?>
<!DOCTYPE svg PUBLIC "-//W3C//DTD SVG 1.1//EN" "http://www.w3.org/Graphics/SVG/1.1/DTD/svg11.dtd">
<!-- Creator: CorelDRAW -->
<svg xmlns="http://www.w3.org/2000/svg" xml:space="preserve" width="6.82666in" height="6.82666in" style="shape-rendering:geometricPrecision; text-rendering:geometricPrecision; image-rendering:optimizeQuality; fill-rule:evenodd; clip-rule:evenodd"
viewBox="0 0 6.82666 6.82666"
 xmlns:xlink="http://www.w3.org/1999/xlink">
 <defs>
  <style type="text/css">
   <![CDATA[
    .fil0 {fill:#795548}
    .fil1 {fill:#FFFFFE}
   ]]>
  </style>
 </defs>
 <g id="Layer_x0020_1">
  <metadata id="CorelCorpID_0Corel-Layer"/>
  <rect class="fil0" width="6.82666" height="6.82666" rx="0.853335" ry="0.853335"/>
  <path class="fil1" d="M0.96 2.18666l4.90667 0 0.106669 0 0 0.106669 0 2.24 0 0.106669 -0.106669 0 -4.90667 0 -0.106669 0 0 -0.106669 0 -2.24 0 -0.106669 0.106669 0zm0.53578 0.466425l3.73089 0 0 0.133811 -3.73089 0 0 -0.133811zm0 0.533346l2.66422 0 0 0.133811 -2.66422 0 0 -0.133811zm2.86089 0.853319l1.06667 0 0 0.133811 -1.06667 0 0 -0.133811zm0.119504 -0.389559c-0.0293386,0.00080315 -0.0524724,0.0252441 -0.0516693,0.0545827 0.00080315,0.0293386 0.0252441,0.0524724 0.0545827,0.0516693 0.070748,-0.00199213 0.0562283,-0.0359488 0.0630236,-0.0200669 0.00706299,0.0165276 0.0184449,0.0431417 0.0848268,0.0752835 0.099189,0.0480236 0.141689,-0.011185 0.179811,-0.0644567l9.84252e-005 7.08661e-005 1.1811e-005 -1.5748e-005 2.3622e-005 1.5748e-005 0.000956693 -0.00138583c0.00805906,-0.011252 0.0155984,-0.021685 0.0190906,-0.0239764 0.00149606,-0.000980315 0.00604724,0.0147165 0.0394567,0.0655787l0.0113425 0.0172638c0.0460748,0.0701457 0.0925079,0.072 0.136902,0.0428346 0.0288976,-0.0189803 0.0482323,-0.0520157 0.0655472,-0.0816024 0.00648425,-0.0110827 -0.0247402,-0.0205906 -0.00627559,-0.0207244 0.014748,-0.000102362 0.029626,0.027437 0.0401496,0.0469331 0.015189,0.0281299 0.0271772,0.0503346 0.0583898,0.0569685 0.0629528,0.013378 0.0975591,-0.0808268 0.182024,-0.478122 0.00609843,-0.0287638 -0.0122756,-0.0570276 -0.0410394,-0.063126 -0.0287638,-0.00609843 -0.0570276,0.0122756 -0.063126,0.0410394 -0.0517008,0.243173 -0.0433701,0.350193 -0.0474055,0.383787 -0.0229134,-0.0418071 -0.0562638,-0.0942559 -0.129409,-0.0937323 -0.0422953,0.000307087 -0.0623071,0.0344803 -0.0849764,0.0732283 -0.00734252,0.0125433 -0.0152362,0.0260276 -0.0220669,0.0354685 0.000208661,-0.000527559 0.000244094,-0.000968504 3.54331e-005,-0.00128346l-0.0113425 -0.0172638c-0.0798031,-0.121492 -0.135508,-0.12952 -0.186535,-0.0959961 -0.0206063,0.0135315 -0.0337874,0.0315945 -0.0474331,0.0506496l-0.00102362 0.00138189 0.0433701 0.0310394 -0.0433346 -0.0308346c-0.0133701,0.0186811 -0.0282677,0.0394882 -0.0469882,0.0304252 -0.0304331,-0.0147362 -0.032122,-0.0186772 -0.0331654,-0.0211181 -0.0182598,-0.0426772 -0.0207756,-0.0485512 -0.16385,-0.0445157zm0.487209 0.101551c-0.00466535,0.00485433 -0.012189,0.0104528 -0.00708268,0.00709843 0.00207874,-0.00136614 0.00447244,-0.00383858 0.00708268,-0.00709843zm0.236299 -0.00822047c-0.00738189,-3.93701e-006 -0.0155827,-0.000740157 -0.00515354,0.00147638 0.00222047,0.000472441 0.00388189,1.5748e-005 0.00515354,-0.00147638zm-3.81302 0.296228l1.06667 0 0 0.133811 -1.06667 0 0 -0.133811z"/>
 </g>
</svg>
