<?xml version="1.0" encoding="UTF-8"?>
<!DOCTYPE svg PUBLIC "-//W3C//DTD SVG 1.1//EN" "http://www.w3.org/Graphics/SVG/1.1/DTD/svg11.dtd">
<!-- Creator: CorelDRAW -->
<svg xmlns="http://www.w3.org/2000/svg" xml:space="preserve" width="6.82666in" height="6.82666in" style="shape-rendering:geometricPrecision; text-rendering:geometricPrecision; image-rendering:optimizeQuality; fill-rule:evenodd; clip-rule:evenodd"
viewBox="0 0 6.82666 6.82666"
 xmlns:xlink="http://www.w3.org/1999/xlink">
 <defs>
  <style type="text/css">
   <![CDATA[
    .fil0 {fill:#7E57C2}
    .fil1 {fill:#FFFFFE}
    .fil2 {fill:#FFFFFE;fill-rule:nonzero}
   ]]>
  </style>
 </defs>
 <g id="Layer_x0020_1">
  <metadata id="CorelCorpID_0Corel-Layer"/>
  <rect class="fil0" width="6.82666" height="6.82666" rx="0.853335" ry="0.853335"/>
  <path class="fil1" d="M2.68277 2.28252l0.123311 0.523358c0.0215748,0.0915512 -0.0272362,0.134547 -0.0801378,0.18111 -0.00741732,0.00652756 -0.0149094,0.013122 -0.0174331,0.0154882l-0.185398 0.17376 -0.036563 0.019685 -1.14918 0.270772c-0.0479449,0.0112953 -0.0962795,0.00187402 -0.135528,-0.0224055 -0.0393071,-0.024315 -0.0694016,-0.0635276 -0.0807559,-0.111732l-0.174417 -0.740248c-0.0112953,-0.0479488 -0.00187008,-0.0962835 0.0224016,-0.135531 0.0243228,-0.039315 0.0635276,-0.0693976 0.111732,-0.0807559l1.13932 -0.268445 0.030937 -0.000940945 0.246362 0.0408071c0.0334606,0.00553937 0.0671339,0.0122126 0.0983031,0.0276969 0.0421299,0.0209252 0.0743268,0.0533819 0.0870472,0.107382zm-1.47502 0.687354l0.0591575 -0.020748c0.00879528,0.0212244 0.0200079,0.0356535 0.0336575,0.0433425 0.013563,0.0076378 0.029815,0.00930315 0.0487913,0.00483071 0.020063,-0.00472835 0.0341457,-0.0128898 0.0421063,-0.0245236 0.00804724,-0.0115787 0.0106299,-0.0235039 0.00773228,-0.0357874 -0.00187008,-0.00792913 -0.00560236,-0.0141024 -0.0112126,-0.0186063 -0.00556299,-0.00459449 -0.0141693,-0.00765354 -0.0258386,-0.00916929 -0.00792126,-0.00109055 -0.0257323,-0.00198031 -0.0533307,-0.00285827 -0.0355394,-0.00105906 -0.0615787,-0.0065748 -0.0781024,-0.0164646 -0.0232953,-0.0138701 -0.038063,-0.0340197 -0.0442874,-0.0604449 -0.00401181,-0.0170236 -0.00329528,-0.0339252 0.00212598,-0.050874 0.00543701,-0.0168661 0.0156496,-0.0311693 0.0305669,-0.0428898 0.0150118,-0.0116575 0.0342992,-0.0203031 0.0580236,-0.0258937 0.0388228,-0.00914567 0.0700945,-0.00683465 0.0940433,0.00687795 0.0238937,0.013815 0.0399488,0.035878 0.048189,0.0663425l-0.0616339 0.0176378c-0.0067126,-0.0165472 -0.015374,-0.0275512 -0.0259016,-0.0329488 -0.0105472,-0.00547244 -0.0245787,-0.00610236 -0.042122,-0.0019685 -0.018122,0.00426772 -0.0314213,0.0115866 -0.0397283,0.0220748 -0.00540157,0.00668898 -0.00707874,0.0143858 -0.00504724,0.0230079 0.00187008,0.00793307 0.00655512,0.0139685 0.0140551,0.0181024 0.00952362,0.00530709 0.0304016,0.00825984 0.0625512,0.00881102 0.0321732,0.000625984 0.0564921,0.00334252 0.0729567,0.00816142 0.0164764,0.00489764 0.0304921,0.0134843 0.0421496,0.0259213 0.0115827,0.0124449 0.0198543,0.0291969 0.0248228,0.0502638 0.00450394,0.0191181 0.00384252,0.0382244 -0.00208661,0.0571772 -0.00591339,0.0190315 -0.0168622,0.0347402 -0.0329252,0.0470551 -0.0160472,0.0124016 -0.0375315,0.0217244 -0.0643465,0.0280433 -0.0390354,0.00919685 -0.0713071,0.00654331 -0.0968189,-0.00803543 -0.0255236,-0.0145787 -0.0447283,-0.0400787 -0.0575472,-0.076437zm0.607551 -0.0285394l-0.0678661 0.0159921 -0.0448307 -0.0695118 -0.123445 0.0290827 -0.0075748 0.0818583 -0.0661378 0.0155866 0.0416181 -0.362169 0.0659252 -0.0155315 0.202311 0.304693zm-0.145925 -0.105004l-0.0717559 -0.113862 -0.0125 0.133713 0.0842559 -0.0198504zm0.180654 0.0968189l-0.0780157 -0.331102 0.0623307 -0.014689 0.0647559 0.274831 0.154996 -0.0365197 0.0132638 0.0562717 -0.217331 0.0512087zm0.261831 -0.0616929l-0.0786535 -0.333823 0.228906 -0.0539331 0.013315 0.0565 -0.166579 0.039252 0.017437 0.0739882 0.155 -0.0365197 0.0132402 0.0561929 -0.155 0.0365236 0.0214094 0.0908543 0.172469 -0.0406339 0.0132598 0.0562756 -0.234803 0.0553228zm0.567571 -0.378295c0.012248,0.0519764 -0.0199567,0.104039 -0.071937,0.116287 -0.0519764,0.0122441 -0.104039,-0.0199606 -0.116287,-0.071937 -0.0122441,-0.0519803 0.0199606,-0.104043 0.0719409,-0.116287 0.0519764,-0.012248 0.104039,0.0199606 0.116283,0.071937z"/>
  <path class="fil1" d="M5.92089 4.80715l8.26772e-005 -9.44882e-005 0.0815591 0.067374c0.0906772,0.0748976 0.103512,0.209665 0.0286102,0.300339 -0.0406024,0.0491535 -0.100787,0.0774685 -0.164472,0.0774685l-4.90667 0c-0.117783,0 -0.213335,-0.0955512 -0.213335,-0.213335 0,-0.066189 0.0312953,-0.126161 0.0816929,-0.167795l2.36696 -1.95531 0.0821535 -0.0680315c0.00191732,-0.00158268 0.00385039,-0.00312205 0.00579921,-0.00462598 0.0834724,-0.0689528 0.165185,-0.0784252 0.26998,0.0081378l2.36764 1.95588zm-2.50756 -1.51837l-1.86033 1.53679 3.72065 0 -1.86033 -1.53679z"/>
  <g id="_470069664">
   <path id="_470069616" class="fil2" d="M3.18154 1.84565c0.0370433,-0.0213819 0.075878,-0.0375236 0.115461,-0.0481299 0.0406299,-0.0108898 0.0823583,-0.0164724 0.124122,-0.0164724 0.132535,0 0.252543,0.0537362 0.339406,0.140598 0.0868622,0.0868622 0.140598,0.20687 0.140598,0.339406 0,0.132535 -0.0537362,0.252543 -0.140598,0.339406 -0.0868622,0.0868622 -0.20687,0.140598 -0.339406,0.140598l0 -0.213339c0.0736496,0 0.140327,-0.0298504 0.188571,-0.0780945 0.0482441,-0.0482441 0.0780945,-0.114921 0.0780945,-0.188571 0,-0.0736496 -0.0298504,-0.140327 -0.0780945,-0.188571 -0.0482441,-0.0482441 -0.114921,-0.0780945 -0.188571,-0.0780945 -0.0237677,0 -0.0470039,0.00304331 -0.069122,0.0089685 -0.0231772,0.00620866 -0.0449252,0.0150866 -0.064626,0.0264606l-0.105835 -0.184165z"/>
   <polygon id="_470069280" class="fil2" points="3.54921,2.52904 3.54921,2.91227 3.33587,2.91227 3.33587,2.52904 "/>
  </g>
  <path class="fil2" d="M3.80979 2.13686c0.00409055,0.00651969 0.00720866,0.0133465 0.00933858,0.0204882 0.00990945,0.0330827 -0.000799213,0.0666024 -0.0293386,0.0993583 -0.0195118,0.0223898 -0.0489567,0.0459134 -0.0866299,0.0695906 -0.0910945,0.0572441 -0.237319,0.119984 -0.410394,0.171819 -0.158299,0.0474134 -0.309953,0.0771969 -0.427165,0.0870157 -0.134177,0.0112402 -0.232906,-0.00682677 -0.264354,-0.056874 -0.00409055,-0.00652362 -0.00720866,-0.0133504 -0.00933858,-0.0204882 -0.00990945,-0.0330866 0.000799213,-0.0666063 0.0293465,-0.0993661 0.0195118,-0.0223937 0.0489685,-0.0459213 0.0866378,-0.0695945 0.0910984,-0.0572402 0.237315,-0.11998 0.410378,-0.171811 0.158303,-0.0474173 0.309961,-0.0771969 0.427169,-0.0870197 0.134185,-0.0112362 0.232909,0.00683858 0.26435,0.0568819zm-0.163012 0.0993819c0.028874,-0.0181457 0.0502598,-0.0348071 0.0628386,-0.0492087 -0.0225472,-0.00736614 -0.0782362,-0.00733071 -0.154996,-0.000901575 -0.11126,0.0093189 -0.255366,0.0376339 -0.405921,0.0827283 -0.164008,0.0491181 -0.300843,0.107488 -0.384425,0.160004 -0.0288898,0.0181496 -0.0502835,0.0348268 -0.0628543,0.0492205 0.0225433,0.00736614 0.0782323,0.00733071 0.155004,0.000897638 0.11126,-0.00932283 0.255362,-0.0376339 0.405913,-0.0827283 0.16402,-0.049122 0.300862,-0.107492 0.384441,-0.160012z"/>
 </g>
</svg>
