<?xml version="1.0" encoding="UTF-8"?>
<!DOCTYPE svg PUBLIC "-//W3C//DTD SVG 1.1//EN" "http://www.w3.org/Graphics/SVG/1.1/DTD/svg11.dtd">
<!-- Creator: CorelDRAW -->
<svg xmlns="http://www.w3.org/2000/svg" xml:space="preserve" width="6.82666in" height="6.82666in" style="shape-rendering:geometricPrecision; text-rendering:geometricPrecision; image-rendering:optimizeQuality; fill-rule:evenodd; clip-rule:evenodd"
viewBox="0 0 6.82666 6.82666"
 xmlns:xlink="http://www.w3.org/1999/xlink">
 <defs>
  <style type="text/css">
   <![CDATA[
    .fil0 {fill:#00838F}
    .fil2 {fill:#FFFFFE}
    .fil1 {fill:#FFFFFE;fill-rule:nonzero}
   ]]>
  </style>
 </defs>
 <g id="Layer_x0020_1">
  <metadata id="CorelCorpID_0Corel-Layer"/>
  <rect class="fil0" width="6.82666" height="6.82666" rx="0.853335" ry="0.853335"/>
  <g id="_477833472">
   <path id="_477833760" class="fil1" d="M1.85565 0.983024l0.732882 0 0 0.235705c0,0.0608268 0.024811,0.116055 0.0647717,0.156016 0.0399646,0.0399646 0.0951929,0.0647756 0.15602,0.0647756l1.20802 0c0.0608268,0 0.116055,-0.024811 0.15602,-0.0647756 0.0399606,-0.0399606 0.0647717,-0.095189 0.0647717,-0.156016l0 -0.235705 0.732882 0c0.0756339,0 0.144319,0.030874 0.194043,0.0805984 0.0497283,0.0497283 0.0806024,0.118433 0.0806024,0.194047l0 4.44102c0,0.0756181 -0.0308819,0.144311 -0.0806102,0.194035 -0.0497244,0.0497283 -0.118417,0.0806102 -0.194035,0.0806102l-3.11537 0c-0.0756142,0 -0.144319,-0.030874 -0.194047,-0.0806024 -0.0497244,-0.0497244 -0.0805984,-0.118409 -0.0805984,-0.194043l0 -4.44102c0,-0.0756378 0.0308622,-0.144327 0.0805906,-0.194055 0.0497283,-0.0497283 0.118417,-0.0805906 0.194055,-0.0805906zm0.304921 0.954484c-0.0601614,0 -0.108937,0.0487756 -0.108937,0.108941 0,0.0601614 0.0487756,0.108937 0.108937,0.108937l2.50553 0c0.0601614,0 0.108937,-0.0487756 0.108937,-0.108937 0,-0.0601654 -0.0487756,-0.108941 -0.108937,-0.108941l-2.50553 0zm0 2.86349c-0.0601614,0 -0.108937,0.0487795 -0.108937,0.108941 0,0.0601614 0.0487756,0.108937 0.108937,0.108937l2.50553 0c0.0601614,0 0.108937,-0.0487756 0.108937,-0.108937 0,-0.0601614 -0.0487756,-0.108941 -0.108937,-0.108941l-2.50553 0zm0 -0.71587c-0.0601614,0 -0.108937,0.0487756 -0.108937,0.108937 0,0.0601614 0.0487756,0.108937 0.108937,0.108937l2.50553 0c0.0601614,0 0.108937,-0.0487756 0.108937,-0.108937 0,-0.0601614 -0.0487756,-0.108937 -0.108937,-0.108937l-2.50553 0zm0 -0.715874c-0.0601614,0 -0.108937,0.0487756 -0.108937,0.108937 0,0.0601654 0.0487756,0.108941 0.108937,0.108941l2.50553 0c0.0601614,0 0.108937,-0.0487756 0.108937,-0.108941 0,-0.0601614 -0.0487756,-0.108937 -0.108937,-0.108937l-2.50553 0zm0 -0.715874c-0.0601614,0 -0.108937,0.0487756 -0.108937,0.108937 0,0.0601654 0.0487756,0.108941 0.108937,0.108941l2.50553 0c0.0601614,0 0.108937,-0.0487756 0.108937,-0.108941 0,-0.0601614 -0.0487756,-0.108937 -0.108937,-0.108937l-2.50553 0z"/>
   <path id="_477833640" class="fil2" d="M2.80932 0.853335c-0.0298228,0 -0.0579252,0.0118031 -0.0789921,0.032874 -0.0210669,0.021063 -0.0328661,0.0491693 -0.0328661,0.0789843l0 0.253535c0,0.0298189 0.0118071,0.0579252 0.0328701,0.0789882 0.0210591,0.021063 0.0491693,0.0328701 0.0789882,0.0328701l1.20802 0c0.0298189,0 0.0579291,-0.0118071 0.0789882,-0.0328701 0.021063,-0.021063 0.0328701,-0.0491693 0.0328701,-0.0789882l0 -0.253535c0,-0.029815 -0.0117992,-0.0579213 -0.0328661,-0.0789843 -0.0210669,-0.0210709 -0.0491693,-0.032874 -0.0789921,-0.032874l-1.20802 0z"/>
  </g>
 </g>
</svg>
