<?xml version="1.0" encoding="UTF-8"?>
<!DOCTYPE svg PUBLIC "-//W3C//DTD SVG 1.1//EN" "http://www.w3.org/Graphics/SVG/1.1/DTD/svg11.dtd">
<!-- Creator: CorelDRAW -->
<svg xmlns="http://www.w3.org/2000/svg" xml:space="preserve" width="6.82666in" height="6.82666in" style="shape-rendering:geometricPrecision; text-rendering:geometricPrecision; image-rendering:optimizeQuality; fill-rule:evenodd; clip-rule:evenodd"
viewBox="0 0 6.82666 6.82666"
 xmlns:xlink="http://www.w3.org/1999/xlink">
 <defs>
  <style type="text/css">
   <![CDATA[
    .fil0 {fill:#009688}
    .fil1 {fill:#FFFFFE}
   ]]>
  </style>
 </defs>
 <g id="Layer_x0020_1">
  <metadata id="CorelCorpID_0Corel-Layer"/>
  <rect class="fil0" width="6.82666" height="6.82666" rx="0.853335" ry="0.853335"/>
  <g id="_470066016">
   <path id="_470066928" class="fil1" d="M1.81529 2.00708l0.819087 0 0 0.527386c-0.0646181,0.0412559 -0.107472,0.113587 -0.107472,0.195937 0,0.128295 0.104,0.232295 0.232291,0.232295 0.128295,0 0.232295,-0.104 0.232295,-0.232295 0,-0.0904488 -0.0517008,-0.168819 -0.127157,-0.207185l0 -0.516138 1.13597 0 0 0.536898c-0.0568622,0.0423425 -0.0936929,0.110079 -0.0936929,0.186425 0,0.128295 0.104,0.232295 0.232291,0.232295 0.128295,0 0.232295,-0.104 0.232295,-0.232295 0,-0.0958583 -0.058063,-0.178138 -0.140937,-0.213622l0 -0.509701 0.781114 0c0.0797835,0 0.150087,0.0293898 0.202949,0.0768465l-0.000200787 0.000224409c0.0554724,0.0499055 0.0909882,0.11913 0.0975984,0.194827l0.297303 3.4027c0.000629921,0.0071811 0.000937008,0.014189 0.000937008,0.0210039 0,0.0750354 -0.034189,0.141539 -0.0882992,0.190173 -0.0487638,0.0438307 -0.114677,0.0730984 -0.184921,0.0792323 -0.00940551,0.000822835 -0.0187795,0.00124409 -0.028063,0.00124409l-3.79069 0c-0.00928346,0 -0.0186535,-0.00042126 -0.0280748,-0.00124409 -0.0702362,-0.00613386 -0.136142,-0.0354016 -0.184909,-0.0792283 -0.0541102,-0.0486339 -0.0883031,-0.115126 -0.0883031,-0.190173 0,-0.00681496 0.000311024,-0.0138268 0.000940945,-0.0210079l0.297303 -3.4027c0.00664567,-0.0761024 0.0420866,-0.145409 0.0973898,-0.195051 0.052874,-0.0474646 0.123173,-0.0768465 0.202957,-0.0768465zm-0.419488 3.16141l4.03739 0 0.0281732 0.229957 -4.09606 0 0.0305 -0.229957z"/>
   <path id="_470067240" class="fil1" d="M2.68827 2.71391l0.122177 0 0 -1.26989c0,-0.124531 0.0497008,-0.242878 0.137665,-0.330846 0.0879646,-0.0879606 0.206315,-0.137661 0.330843,-0.137661l0.306728 0c0.124531,0 0.242882,0.0497008 0.330846,0.137661 0.0879646,0.0879685 0.137665,0.206315 0.137665,0.330846l0 1.26989 0.122177 0 0 -1.26989c0,-0.157098 -0.0624803,-0.306224 -0.173476,-0.417213 -0.110988,-0.110992 -0.26011,-0.173472 -0.417213,-0.173472l-0.306728 0c-0.157098,0 -0.30622,0.0624803 -0.417213,0.173472 -0.110992,0.110988 -0.173472,0.260114 -0.173472,0.417213l0 1.26989z"/>
   <circle id="_470067000" class="fil1" cx="2.75902" cy="2.73208" r="0.128469"/>
   <circle id="_470066232" class="fil1" cx="4.11668" cy="2.73208" r="0.128469"/>
  </g>
 </g>
</svg>
