<?xml version="1.0" encoding="UTF-8"?>
<!DOCTYPE svg PUBLIC "-//W3C//DTD SVG 1.1//EN" "http://www.w3.org/Graphics/SVG/1.1/DTD/svg11.dtd">
<!-- Creator: CorelDRAW -->
<svg xmlns="http://www.w3.org/2000/svg" xml:space="preserve" width="6.82666in" height="6.82666in" style="shape-rendering:geometricPrecision; text-rendering:geometricPrecision; image-rendering:optimizeQuality; fill-rule:evenodd; clip-rule:evenodd"
viewBox="0 0 6.82666 6.82666"
 xmlns:xlink="http://www.w3.org/1999/xlink">
 <defs>
  <style type="text/css">
   <![CDATA[
    .fil0 {fill:#607D8B}
    .fil1 {fill:#FFFFFE}
   ]]>
  </style>
 </defs>
 <g id="Layer_x0020_1">
  <metadata id="CorelCorpID_0Corel-Layer"/>
  <rect class="fil0" width="6.82666" height="6.82666" rx="0.853335" ry="0.853335"/>
  <path class="fil1" d="M1.21824 1.91213l4.39017 0c0.100461,0 0.19172,0.0410236 0.257807,0.10711 0.0660866,0.0660866 0.10711,0.157343 0.10711,0.257803l0 2.27257c0,0.100457 -0.0410236,0.191717 -0.10711,0.257803 -0.0660945,0.0660866 -0.157346,0.10711 -0.257807,0.10711l-4.39017 0c-0.100461,0 -0.191713,-0.0410236 -0.257807,-0.10711 -0.0660866,-0.0660866 -0.10711,-0.157346 -0.10711,-0.257803l0 -2.27257c0,-0.100461 0.0410236,-0.191717 0.10711,-0.257803 0.0660866,-0.0660866 0.157346,-0.10711 0.257807,-0.10711zm3.35411 2.3242l0.367709 0 0 0.213339 -0.367709 0 0 -0.213339zm0.518744 0l0.367709 0 0 0.213339 -0.367709 0 0 -0.213339zm-3.97512 -1.56967l4.5947 0 0.0998858 0 0 0.0794803 0 0.326835 0 0.0794803 -0.0998858 0 -4.5947 0 -0.0998858 0 0 -0.0794803 0 -0.326835 0 -0.0794803 0.0998858 0z"/>
 </g>
</svg>
