<?xml version="1.0" encoding="UTF-8"?>
<!DOCTYPE svg PUBLIC "-//W3C//DTD SVG 1.1//EN" "http://www.w3.org/Graphics/SVG/1.1/DTD/svg11.dtd">
<!-- Creator: CorelDRAW -->
<svg xmlns="http://www.w3.org/2000/svg" xml:space="preserve" width="6.82666in" height="6.82666in" style="shape-rendering:geometricPrecision; text-rendering:geometricPrecision; image-rendering:optimizeQuality; fill-rule:evenodd; clip-rule:evenodd"
viewBox="0 0 6.82666 6.82666"
 xmlns:xlink="http://www.w3.org/1999/xlink">
 <defs>
  <style type="text/css">
   <![CDATA[
    .fil0 {fill:#424242}
    .fil1 {fill:#FFFFFE}
   ]]>
  </style>
 </defs>
 <g id="Layer_x0020_1">
  <metadata id="CorelCorpID_0Corel-Layer"/>
  <rect class="fil0" width="6.82666" height="6.82666" rx="0.853335" ry="0.853335"/>
  <path class="fil1" d="M4.14118 1.47259c-0.0709094,0.178539 -0.178748,0.375697 -0.308866,0.530224 0.536264,0.307929 1.13114,1.03503 1.40849,1.77712 0.123327,0.329996 0.185445,0.664933 0.154433,0.970886 -0.0321063,0.316768 -0.162102,0.601319 -0.423528,0.81772 -0.360776,0.29863 -0.971551,0.46161 -1.92233,0.38665 -0.573102,-0.045189 -0.969866,-0.208815 -1.22867,-0.446894 -0.263929,-0.242783 -0.382209,-0.558854 -0.395854,-0.904665 -0.0131969,-0.334461 0.0728701,-0.696134 0.219315,-1.04354 0.266244,-0.631606 0.736681,-1.22245 1.17171,-1.5148 -0.154496,-0.14672 -0.278409,-0.340406 -0.353028,-0.521433 -0.0905118,-0.219571 -0.108992,-0.432224 -0.0283937,-0.547362 0.00502362,-0.00718504 0.0093622,-0.0129528 0.0129921,-0.0172559l0.000216535 0.000181102c0.15163,-0.179693 0.327319,-0.096252 0.52076,-0.00437402 0.104028,0.0494055 0.215402,0.102299 0.304921,0.0913071 0.0614764,-0.0100906 0.153106,-0.0382874 0.251685,-0.0686299 0.20298,-0.0624646 0.432591,-0.13313 0.582354,-0.100571 0.0225157,0.0048937 0.0429213,0.0147717 0.0612598,0.0292953 0.060315,0.0477638 0.078752,0.140795 0.0615787,0.25798 -0.0125157,0.0853898 -0.0434803,0.193409 -0.0890512,0.308157zm-0.429551 2.89246c-0.0163898,-0.0179291 -0.0370984,-0.0313307 -0.0585079,-0.0425276 -0.0466142,-0.0243346 -0.0976181,-0.0391024 -0.148248,-0.0524055l0 0.392354c0.082185,-0.00927559 0.176512,-0.0391024 0.21965,-0.115858 0.0206181,-0.036622 0.024689,-0.081689 0.0163346,-0.122449 -0.00453937,-0.022126 -0.0139606,-0.0423819 -0.0292283,-0.0591142zm0.0124921 0.182327c0.000145669,-0.00026378 0.000248031,-0.000452756 0.000401575,-0.00076378 -0.000153543,0.000255906 -0.000255906,0.0005 -0.000401575,0.00076378zm-0.604756 -0.8095c-0.0141102,0.0206142 -0.0229724,0.0440433 -0.0253976,0.0689921 -0.00246457,0.0249291 -0.00111024,0.0527087 0.00840945,0.076189 0.0090315,0.0224213 0.0279173,0.0389449 0.0474724,0.0522598 0.0218701,0.0149134 0.0460157,0.0265472 0.0705551,0.036378 0.020563,0.0083189 0.0437441,0.0162283 0.0686811,0.0238898l0 -0.355016c-0.0630433,0.0134528 -0.131972,0.042185 -0.16972,0.0973071zm0.606772 0.805874c-0.000503937,0.000901575 -0.00105906,0.00185827 -0.00161417,0.0028622 0.00065748,-0.00114567 0.00116142,-0.00201181 0.00161417,-0.0028622zm0.231945 -0.0342677c-0.0112874,0.103953 -0.0664134,0.197984 -0.148756,0.261827 -0.0869646,0.0674291 -0.196067,0.0987795 -0.304453,0.107591l0 0.11489c0,0.0307402 -0.0134606,0.0604803 -0.0364488,0.0808346 -0.0316417,0.0279685 -0.0781457,0.0348661 -0.1165,0.017185 -0.0379409,-0.0174291 -0.0628386,-0.0563386 -0.0628386,-0.0980197l0 -0.125571c-0.0185906,-0.00352362 -0.0370394,-0.00775197 -0.0552795,-0.0127441 -0.101291,-0.0278701 -0.195272,-0.0820866 -0.263906,-0.16237 -0.0341732,-0.0400118 -0.0620866,-0.0854055 -0.0813307,-0.134441 -0.00503543,-0.0127992 -0.00952362,-0.0258543 -0.0134567,-0.0390512 -0.0035748,-0.0119449 -0.00724803,-0.0240472 -0.00851575,-0.0364843 -0.00211417,-0.0209252 0.00201181,-0.0421811 0.0117362,-0.0608228 0.0200157,-0.038252 0.0621457,-0.0613307 0.105181,-0.0575 0.042374,0.00377953 0.0794606,0.0331535 0.0928189,0.0735197 0.00412992,0.0124528 0.00690157,0.0251929 0.0114921,0.0374882 0.00457874,0.0121929 0.0101299,0.0240906 0.0166299,0.035378 0.0127953,0.0222756 0.0288701,0.0428386 0.0473583,0.0606693 0.0381063,0.036685 0.0866772,0.0605748 0.137272,0.0747795l0 -0.42687c-0.0989685,-0.0256457 -0.201165,-0.0586969 -0.282906,-0.122244 -0.0397087,-0.0309488 -0.0734134,-0.0692913 -0.0954882,-0.114752 -0.0232835,-0.0479606 -0.0329606,-0.101386 -0.033311,-0.154441 -0.000397638,-0.053874 0.00983071,-0.107346 0.0323031,-0.156417 0.0210709,-0.0459567 0.0513465,-0.0872283 0.0885394,-0.121441 0.0794646,-0.073122 0.184988,-0.113933 0.290862,-0.128909l0 -0.11928c0,-0.0307283 0.0134528,-0.0604646 0.0364803,-0.0808228 0.0315945,-0.0279685 0.078063,-0.0348661 0.116504,-0.017185 0.0379016,0.0174331 0.0628031,0.0562874 0.0628031,0.0980079l0 0.11863c0.0140984,0.00175591 0.0281575,0.0039252 0.0421654,0.00645276 0.103965,0.0187953 0.205657,0.0617283 0.281693,0.136705 0.0359764,0.0354724 0.0654567,0.077815 0.0862244,0.123917 0.00579528,0.0128976 0.0108386,0.0260472 0.0152087,0.0394488 0.00409055,0.0125512 0.00822047,0.0253976 0.0101772,0.0385079 0.0031378,0.0208031 -3.93701e-005,0.042374 -0.00901575,0.0614685 -0.0182913,0.0391142 -0.0592638,0.064 -0.102445,0.0621417 -0.0423701,-0.00187008 -0.0807756,-0.0294724 -0.0959488,-0.0690945 -0.00452362,-0.0117913 -0.00679921,-0.0242402 -0.011378,-0.0360315 -0.00469291,-0.0118819 -0.0106929,-0.0232205 -0.0176457,-0.0339528 -0.0135,-0.020878 -0.0309882,-0.0387008 -0.0509449,-0.0534685 -0.0432795,-0.0319055 -0.095689,-0.0485354 -0.148091,-0.0578465l0 0.408476c0.0622795,0.0149094 0.124614,0.0311929 0.184276,0.0547244 0.0902047,0.0355748 0.175665,0.0900945 0.224839,0.176063 -0.00759843,-0.0133543 -0.0150551,-0.0264449 0.000307087,0.000464567 0.0150197,0.0263937 0.00785827,0.0138543 0.00030315,0.000590551 0.0391614,0.0690433 0.0520118,0.151583 0.0434843,0.23zm-0.235118 0.0399528c-0.000602362,0.00111024 -0.0012126,0.00211811 -0.00161417,0.00287795 0.000350394,-0.00065748 0.000905512,-0.00166142 0.00161417,-0.00287795z"/>
 </g>
</svg>
