<?xml version="1.0" encoding="UTF-8"?>
<!DOCTYPE svg PUBLIC "-//W3C//DTD SVG 1.1//EN" "http://www.w3.org/Graphics/SVG/1.1/DTD/svg11.dtd">
<!-- Creator: CorelDRAW -->
<svg xmlns="http://www.w3.org/2000/svg" xml:space="preserve" width="6.82666in" height="6.82666in" style="shape-rendering:geometricPrecision; text-rendering:geometricPrecision; image-rendering:optimizeQuality; fill-rule:evenodd; clip-rule:evenodd"
viewBox="0 0 6.82666 6.82666"
 xmlns:xlink="http://www.w3.org/1999/xlink">
 <defs>
  <style type="text/css">
   <![CDATA[
    .fil0 {fill:#3F51B5}
    .fil2 {fill:#FFFFFE}
    .fil1 {fill:#FFFFFE;fill-rule:nonzero}
   ]]>
  </style>
 </defs>
 <g id="Layer_x0020_1">
  <metadata id="CorelCorpID_0Corel-Layer"/>
  <rect class="fil0" width="6.82666" height="6.82666" rx="0.853335" ry="0.853335"/>
  <g id="_477830808">
   <path id="_477830472" class="fil1" d="M1.45204 4.37034l0.218012 0 0 -0.214315 0.0558307 0 0 0.214315 0.152937 0 0 -0.214315 0.0558307 0 0 0.214315 0.218016 0 0 0.0632244 -0.218016 0 0 0.145543 0.218016 0 0 0.0632244 -0.218016 0 0 0.214319 -0.0558307 0 0 -0.214319 -0.152937 0 0 0.214319 -0.0558307 0 0 -0.214319 -0.218012 0 0 -0.0632244 0.218012 0 0 -0.145543 -0.218012 0 0 -0.0632244zm0.42678 0.0632244l-0.152937 0 0 0.145543 0.152937 0 0 -0.145543z"/>
   <path id="_477830640" class="fil2" d="M1.68713 2.17431l3.94879 0c0.0922008,0 0.175969,0.0376535 0.236614,0.0983031 0.0606535,0.0606496 0.0983031,0.144409 0.0983031,0.236614l0 2.04408c0,0.0922126 -0.0376496,0.175965 -0.0983031,0.236618 -0.0606496,0.0606535 -0.144413,0.0983031 -0.236614,0.0983031l-0.0550354 0 0 -1.89826c0,-0.11861 -0.0471142,-0.231579 -0.130933,-0.315402 -0.0838189,-0.083815 -0.196803,-0.130933 -0.315402,-0.130933l-3.78234 0 0 -0.0344094c0,-0.0922047 0.0376535,-0.175965 0.0983071,-0.236614 0.0606457,-0.0606496 0.144413,-0.0983031 0.236614,-0.0983031z"/>
   <path id="_477830832" class="fil2" d="M1.18576 2.65505l3.94879 0c0.0922047,0 0.175969,0.0376535 0.236618,0.0983031 0.0606496,0.0606535 0.0982992,0.144409 0.0982992,0.236618l0 2.04408c0,0.0922087 -0.0376496,0.175965 -0.0982992,0.236614 -0.0606535,0.0606535 -0.144413,0.0983031 -0.236618,0.0983031l-3.94879 0c-0.0922008,0 -0.175961,-0.0376496 -0.236614,-0.0983031 -0.0606535,-0.0606496 -0.0983071,-0.144406 -0.0983071,-0.236614l0 -2.04408c0,-0.0922087 0.0376535,-0.175965 0.0983071,-0.236618 0.0606457,-0.0606496 0.144413,-0.0983031 0.236614,-0.0983031zm0.616587 1.42643c0.117311,0 0.223528,0.0475551 0.300409,0.124441 0.0768898,0.0768858 0.124445,0.183102 0.124445,0.300417 0,0.117311 -0.0475591,0.223535 -0.124441,0.300413 -0.0768858,0.0768898 -0.183102,0.124445 -0.300413,0.124445 -0.117319,0 -0.223531,-0.0475551 -0.300417,-0.124445 -0.0768858,-0.0768819 -0.124441,-0.183098 -0.124441,-0.300413 0,-0.117315 0.0475551,-0.223531 0.124441,-0.300417 0.0768858,-0.0768858 0.183102,-0.124441 0.300417,-0.124441zm2.8669 0.688701l0.33074 0 0 0.156063 -0.33074 0 0 -0.156063zm-0.466591 0l0.33074 0 0 0.156063 -0.33074 0 0 -0.156063zm-3.21514 -1.64825l4.34528 0 0 0.557083 -4.34528 0 0 -0.557083z"/>
  </g>
 </g>
</svg>
