<?xml version="1.0" encoding="UTF-8"?>
<!DOCTYPE svg PUBLIC "-//W3C//DTD SVG 1.1//EN" "http://www.w3.org/Graphics/SVG/1.1/DTD/svg11.dtd">
<!-- Creator: CorelDRAW -->
<svg xmlns="http://www.w3.org/2000/svg" xml:space="preserve" width="6.82666in" height="6.82666in" style="shape-rendering:geometricPrecision; text-rendering:geometricPrecision; image-rendering:optimizeQuality; fill-rule:evenodd; clip-rule:evenodd"
viewBox="0 0 6.82666 6.82666"
 xmlns:xlink="http://www.w3.org/1999/xlink">
 <defs>
  <style type="text/css">
   <![CDATA[
    .fil0 {fill:#795548}
    .fil1 {fill:#FFFFFE}
    .fil2 {fill:#FFFFFE;fill-rule:nonzero}
   ]]>
  </style>
 </defs>
 <g id="Layer_x0020_1">
  <metadata id="CorelCorpID_0Corel-Layer"/>
  <rect class="fil0" width="6.82666" height="6.82666" rx="0.853335" ry="0.853335"/>
  <g id="_470065896">
   <path id="_470066472" class="fil1" d="M1.0898 2.03051l4.64706 0c0.0651378,0 0.124287,0.0265748 0.167094,0.0693819 0.0428071,0.0427992 0.0693819,0.101949 0.0693819,0.167091l0 2.2927c0,0.0651378 -0.0265748,0.124287 -0.0693819,0.167094 -0.0428071,0.0428071 -0.101957,0.0693819 -0.167094,0.0693819l-4.64706 0c-0.0651378,0 -0.124287,-0.0265748 -0.167094,-0.0693819 -0.0428071,-0.0428071 -0.0693819,-0.101957 -0.0693819,-0.167094l0 -2.2927c0,-0.0651417 0.0265748,-0.124291 0.0693819,-0.167091 0.0428071,-0.0428071 0.101949,-0.0693819 0.167094,-0.0693819zm2.32353 0.237709c0.316201,0 0.60248,0.128177 0.809709,0.335406 0.207228,0.207228 0.335406,0.493508 0.335406,0.809709 0,0.316201 -0.128177,0.60248 -0.335406,0.809709 -0.207228,0.207228 -0.493508,0.335406 -0.809709,0.335406 -0.316201,0 -0.60248,-0.128177 -0.809709,-0.335406 -0.207228,-0.207228 -0.335406,-0.493508 -0.335406,-0.809709 0,-0.316201 0.128177,-0.60248 0.335406,-0.809709 0.207228,-0.207228 0.493508,-0.335406 0.809709,-0.335406zm2.3736 -0.10087l-0.525185 0c-0.00314173,0.0099685 -0.00597638,0.0200945 -0.00848425,0.0303583 -0.00865354,0.0354291 -0.0132559,0.0736772 -0.0132559,0.114315 0,0.132035 0.0535079,0.251563 0.14002,0.338075 0.0864961,0.0864961 0.206035,0.140012 0.338071,0.140012 0.0346299,0 0.0665315,-0.00307874 0.0955354,-0.00892126l0.00397244 -0.000818898 0 -0.58235c0,-0.00828346 -0.00349606,-0.0159291 -0.00911811,-0.0215512 -0.00562205,-0.00562205 -0.0132677,-0.00911811 -0.0215551,-0.00911811zm0 2.51736l-0.525185 0c-0.00314173,-0.0099685 -0.00597638,-0.0200945 -0.00848819,-0.0303622 -0.00865354,-0.0354252 -0.013252,-0.0736732 -0.013252,-0.114311 0,-0.132035 0.0535079,-0.251563 0.14002,-0.338075 0.0864961,-0.0864961 0.206035,-0.140012 0.338071,-0.140012 0.0346299,0 0.0665315,0.0030748 0.0955354,0.00892126l0.00397244 0.000818898 0 0.58235c0,0.00828346 -0.0035,0.0159291 -0.00911811,0.0215512 -0.00562205,0.00562205 -0.0132677,0.00911811 -0.0215551,0.00911811zm-4.7472 0l0.525185 0c0.00314173,-0.0099685 0.00597638,-0.0200945 0.00848819,-0.0303622 0.00865354,-0.0354252 0.013252,-0.0736732 0.013252,-0.114311 0,-0.132035 -0.0535079,-0.251563 -0.14002,-0.338075 -0.0864961,-0.0864961 -0.206035,-0.140012 -0.338071,-0.140012 -0.0346299,0 -0.0665315,0.0030748 -0.0955354,0.00892126l-0.00397244 0.000818898 0 0.58235c0,0.00828346 0.0035,0.0159291 0.00911811,0.0215512 0.00562205,0.00562205 0.0132677,0.00911811 0.0215551,0.00911811zm0 -2.51736l0.525185 0c0.00314173,0.0099685 0.00597638,0.0200945 0.00848819,0.0303622 0.00865354,0.0354252 0.013252,0.0736732 0.013252,0.114311 0,0.132035 -0.0535079,0.251563 -0.14002,0.338075 -0.0864961,0.0864961 -0.206035,0.140012 -0.338071,0.140012 -0.0346299,0 -0.0665315,-0.0030748 -0.0955354,-0.00892126l-0.00397244 -0.000818898 0 -0.58235c0,-0.00828346 0.0035,-0.0159291 0.00911811,-0.0215512 0.00562205,-0.00562205 0.0132677,-0.00911811 0.0215551,-0.00911811z"/>
   <path id="_470065152" class="fil2" d="M3.40441 4.11022l0 -0.138382c-0.0693268,-0.00866535 -0.125516,-0.0241575 -0.168843,-0.0464764 -0.0433268,-0.0223189 -0.080878,-0.0585551 -0.112386,-0.108185 -0.0315118,-0.0498898 -0.0498937,-0.110547 -0.054878,-0.182232l0.139165 -0.0262559c0.0107677,0.074311 0.0296732,0.128929 0.0569843,0.16385 0.0388583,0.0493661 0.0855984,0.0766732 0.139957,0.082185l0 -0.44061c-0.0569843,-0.0107677 -0.115016,-0.0328228 -0.174618,-0.0661732 -0.0441181,-0.0246811 -0.0779882,-0.0588189 -0.101886,-0.102406 -0.0238937,-0.0435906 -0.0357087,-0.0929528 -0.0357087,-0.148362 0,-0.0984646 0.0349252,-0.178291 0.104504,-0.239213 0.0467441,-0.0412244 0.116063,-0.0661693 0.207709,-0.0753583l0 -0.0661732 0.0816614 0 0 0.0661732c0.0803465,0.00761417 0.144421,0.031248 0.191425,0.0706339 0.0606535,0.0501535 0.0968898,0.119213 0.109232,0.206917l-0.143106 0.0215276c-0.00814173,-0.0543543 -0.0252087,-0.0961063 -0.0512047,-0.124988 -0.0257323,-0.0288858 -0.061185,-0.0480512 -0.106346,-0.0572402l0 0.399122c0.0695866,0.0175984 0.115799,0.031248 0.138382,0.0409646 0.043063,0.0189055 0.078248,0.0420118 0.105295,0.069063 0.027311,0.0273031 0.048315,0.0596024 0.0627559,0.0968898 0.0147047,0.0375512 0.0220591,0.0779882 0.0220591,0.121579 0,0.0961024 -0.0307244,0.175925 -0.0916417,0.239996 -0.0609173,0.0643346 -0.139961,0.0984685 -0.23685,0.103197l0 0.139957 -0.0816614 0zm0 -1.21234c-0.0538346,0.0081378 -0.0963701,0.0296693 -0.127354,0.0645945 -0.0309843,0.0349213 -0.0464803,0.0761457 -0.0464803,0.123937 0,0.0470039 0.0131299,0.0866496 0.0396535,0.118425 0.0265197,0.0317717 0.0711614,0.0572441 0.134181,0.0761457l0 -0.383102zm0.0816614 0.956846c0.0538268,-0.00655906 0.0982047,-0.0299291 0.13339,-0.0698465 0.035185,-0.0399094 0.0527795,-0.0895394 0.0527795,-0.148622 0,-0.0501535 -0.0126024,-0.0905866 -0.0372874,-0.121047 -0.0249409,-0.0304606 -0.0745709,-0.0577677 -0.148882,-0.0819291l0 0.421445z"/>
  </g>
 </g>
</svg>
