<?xml version="1.0" encoding="UTF-8"?>
<!DOCTYPE svg PUBLIC "-//W3C//DTD SVG 1.1//EN" "http://www.w3.org/Graphics/SVG/1.1/DTD/svg11.dtd">
<!-- Creator: CorelDRAW -->
<svg xmlns="http://www.w3.org/2000/svg" xml:space="preserve" width="6.82666in" height="6.82666in" style="shape-rendering:geometricPrecision; text-rendering:geometricPrecision; image-rendering:optimizeQuality; fill-rule:evenodd; clip-rule:evenodd"
viewBox="0 0 6.82666 6.82666"
 xmlns:xlink="http://www.w3.org/1999/xlink">
 <defs>
  <style type="text/css">
   <![CDATA[
    .fil0 {fill:#3F51B5}
    .fil2 {fill:#FFFFFE}
    .fil1 {fill:#FFFFFE;fill-rule:nonzero}
   ]]>
  </style>
 </defs>
 <g id="Layer_x0020_1">
  <metadata id="CorelCorpID_0Corel-Layer"/>
  <rect class="fil0" width="6.82666" height="6.82666" rx="0.853335" ry="0.853335"/>
  <path class="fil1" d="M1.63186 2.09562c0.0741535,0.0724173 0.836988,0.836953 1.66219,2.4357l0.000232283 -0.00011811c0.000641732,0.00124016 0.00124803,0.00248819 0.00183465,0.00374409 0.0317205,0.0545709 0.266807,0.438575 0.600972,0.436484l-3.93701e-006 -0.000409449c0.00248425,-1.5748e-005 0.00494094,5.51181e-005 0.00738583,0.000204724 0.0508937,-0.00214567 0.349945,-0.0271496 0.470228,-0.319472l0.0983346 0.0404173 -0.0986417 -0.0405906c0.0213937,-0.0519882 0.0791417,-0.0780315 0.13172,-0.0608189 0.0973189,0.0264882 1.46698,0.40826 1.42798,0.915366l-0.000188976 -1.5748e-005 -1.9685e-005 0.000255906 0.000311024 2.3622e-005c-0.000291339,0.00379921 -0.000783465,0.00753543 -0.00145669,0.0112047 -0.00894094,0.0705157 -0.076626,0.369815 -0.582531,0.369815l-1.65793 0c-0.00283858,0 -0.00564961,-0.000114173 -0.00843307,-0.000330709 -0.0765551,6.69291e-005 -0.56815,-0.0100787 -0.766937,-0.278461l-0.000145669 0.000114173 -0.00176378 -0.00227953 -0.000228346 0.000169291c-0.00109055,-0.00149606 -0.0021378,-0.00301181 -0.00314173,-0.00454331 -0.0449449,-0.0584055 -0.381075,-0.499618 -0.733618,-1.08502l0.00030315 -0.000185039 -1.9685e-005 -3.54331e-005 -0.000409449 0.000248031c-0.00148031,-0.00245669 -0.00284252,-0.00494488 -0.00410236,-0.0074685 -0.0233858,-0.0366339 -0.131555,-0.196445 -0.238913,-0.196445 -0.00303937,0 -0.00605118,-0.000129921 -0.00902756,-0.00038189 -0.0180591,0.000988189 -0.0978858,0.0154803 -0.0978858,0.19526l-0.000417323 0 -3.93701e-006 1.27273 0.000413386 0c0,0.0589094 -0.0477559,0.106665 -0.106665,0.106665l0 3.93701e-006 -0.293484 0c-0.0589094,0 -0.106669,-0.0477598 -0.106669,-0.106669l0 -1.26076c-0.183839,-0.274768 -0.389272,-0.737205 -0.465736,-1.18208 -0.038122,-0.221795 -0.0448583,-0.440984 -0.00239764,-0.634024 0.0448937,-0.20411 0.14372,-0.379031 0.316091,-0.499248 0.0983307,-0.0685748 0.218913,-0.117984 0.365035,-0.143114l-2.3622e-005 -0.000149606c0.0376535,-0.0064685 0.0740827,0.00765354 0.0977638,0.0342126z"/>
  <g id="_318679752">
   <g>
    <path id="_318679824" class="fil2" d="M3.0668 1.56938l0.147957 -0.105665 0.000988189 0.00124409 0.13052 -0.0951654 0.0724803 -0.0517598c0.042563,0.047248 0.0822087,0.0985827 0.116988,0.15289 -0.0415039,0.0495748 -0.0460669,0.122701 -0.00674409,0.17776 0.0466614,0.0653386 0.137457,0.0804764 0.202799,0.033811 0.0653386,-0.0466614 0.0804803,-0.137457 0.033815,-0.202795 -0.0176614,-0.0247323 -0.0416535,-0.0422638 -0.068185,-0.0519843 -0.0423898,-0.0724449 -0.0925866,-0.140819 -0.147492,-0.203366l0.290626 -0.207559c0.099122,-0.0707913 0.248843,-0.0268622 0.338642,0.0931142l1.58367 2.11589c0.0598622,0.0799764 0.0515236,0.186512 -0.0145354,0.233689l-0.990008 0.707035c-0.0660591,0.0471772 -0.169512,0.0205276 -0.22576,-0.0620748l-1.48756 -2.18453c-0.084374,-0.123906 -0.0773189,-0.279744 0.0217992,-0.350531zm0.667346 0.666748l0.520551 -0.37176 0.878709 1.23039 -0.520551 0.371764 -0.878709 -1.23039z"/>
    <path id="_318679440" class="fil1" d="M3.25067 1.43713l0.0592323 -0.0415039c-0.126941,-0.159311 -0.195051,-0.276413 -0.201102,-0.328512 -0.0011811,-0.010185 0.000783465,-0.0150512 0.00495276,-0.0153858 0.0199724,-0.00160236 0.0528583,0.0100276 0.0937087,0.0326417 0.141339,0.078248 0.34826,0.277315 0.449925,0.521925 0.00757874,0.0181693 0.0284567,0.0267598 0.046626,0.0191811 0.0181654,-0.00757874 0.0267559,-0.0284567 0.0191772,-0.046626 -0.10828,-0.260531 -0.329677,-0.47311 -0.481102,-0.556941 -0.0528307,-0.029248 -0.0997638,-0.0439331 -0.134106,-0.0411811 -0.0501575,0.00401969 -0.0770512,0.0341772 -0.0700118,0.0947835 0.00740157,0.0637874 0.0766378,0.190862 0.212701,0.361618z"/>
   </g>
   <circle id="_318679272" class="fil2" transform="matrix(0.606862 -0.433404 0.433403 0.606862 3.66915 1.57104)" r="0.100232"/>
  </g>
 </g>
</svg>
