<?xml version="1.0" encoding="UTF-8"?>
<!DOCTYPE svg PUBLIC "-//W3C//DTD SVG 1.1//EN" "http://www.w3.org/Graphics/SVG/1.1/DTD/svg11.dtd">
<!-- Creator: CorelDRAW -->
<svg xmlns="http://www.w3.org/2000/svg" xml:space="preserve" width="6.82666in" height="6.82666in" style="shape-rendering:geometricPrecision; text-rendering:geometricPrecision; image-rendering:optimizeQuality; fill-rule:evenodd; clip-rule:evenodd"
viewBox="0 0 6.82666 6.82666"
 xmlns:xlink="http://www.w3.org/1999/xlink">
 <defs>
  <style type="text/css">
   <![CDATA[
    .fil0 {fill:#607D8B}
    .fil1 {fill:#FFFFFE}
    .fil2 {fill:#FFFFFE;fill-rule:nonzero}
   ]]>
  </style>
 </defs>
 <g id="Layer_x0020_1">
  <metadata id="CorelCorpID_0Corel-Layer"/>
  <rect class="fil0" width="6.82666" height="6.82666" rx="0.853335" ry="0.853335"/>
  <path class="fil1" d="M4.74646 2.40909c0.708402,0 1.17333,0.668996 1.17333,1.33333 0,0.0258819 -0.000905512,0.0545945 -0.00267717,0.0859764 -0.00167717,0.0297323 -0.00408661,0.0583031 -0.00718898,0.0856929 0.0159764,0.0360472 -0.0595276,0.0950591 -0.105835,0.0950039l-2.11527 0c-0.0571299,0 -0.103772,-0.0449173 -0.106539,-0.101358 -0.00276378,-0.0254488 -0.00493701,-0.0518976 -0.00648425,-0.0793386 -0.00177165,-0.0313819 -0.00267717,-0.0600945 -0.00267717,-0.0859764 0,-0.364992 0.129425,-0.696335 0.338669,-0.936965 0.212953,-0.244894 0.508004,-0.39637 0.834665,-0.39637zm0 0.392594c0.0618465,0 0.111976,0.0501299 0.111976,0.111976 0,0.0618425 -0.0501299,0.111972 -0.111976,0.111972 -0.0618425,0 -0.111972,-0.0501299 -0.111972,-0.111972 0,-0.0618465 0.0501299,-0.111976 0.111972,-0.111976z"/>
  <path class="fil2" d="M4.16091 2.70571c-0.00674803,-0.0251811 -0.0119882,-0.0519331 -0.015689,-0.0800472 -0.00377165,-0.0286654 -0.00567323,-0.0557992 -0.00567323,-0.0812047 0,-0.17215 0.0697874,-0.328012 0.182614,-0.440839 0.112827,-0.112827 0.268693,-0.182614 0.440839,-0.182614 0.17215,0 0.328012,0.0697874 0.440839,0.182614 0.112827,0.112827 0.182614,0.268689 0.182614,0.440839 0,0.0297835 -0.00226378,0.060063 -0.00674803,0.0905748 -0.00439764,0.0299252 -0.0109803,0.0595315 -0.0197008,0.0885591l-0.204165 -0.0608346c0.00577165,-0.0192126 0.010126,-0.0387913 0.0130315,-0.0585591 0.0028189,-0.019189 0.00424409,-0.0391575 0.00424409,-0.0597402 0,-0.113264 -0.0459016,-0.215795 -0.12011,-0.290004 -0.0742087,-0.0742087 -0.17674,-0.12011 -0.290004,-0.12011 -0.11326,0 -0.215795,0.0459016 -0.290004,0.12011 -0.0742087,0.0742087 -0.12011,0.17674 -0.12011,0.290004 0,0.019748 0.00106299,0.0376929 0.00316929,0.0537008 0.00217717,0.0165551 0.00574803,0.0341181 0.010689,0.0525512l-0.205835 0.055z"/>
  <path class="fil2" d="M3.825 5.05496c0.0163228,0.0512283 0.0170315,0.110303 0.0048189,0.165098 -0.0235787,0.105835 -0.182823,0.299209 -0.288646,0.342949 -0.0341929,0.0141299 -0.0714724,0.0218346 -0.108783,0.0218346 -0.0442795,0 -0.0893701,-0.0110748 -0.128114,-0.032622 -0.0379764,-0.0210315 -0.146665,-0.0900748 -0.181146,-0.0977992 -0.00609449,-0.00136614 -0.0139685,-0.00210236 -0.0232008,-0.00210236 -0.0507126,0 -0.156902,0.0736535 -0.204295,0.0999016 -0.000370079,0 -0.0651772,0.0264764 -0.0775039,0.0293307 -0.0265157,0.00613386 -0.0542402,0.00935039 -0.0818819,0.00935039 -0.0276496,0 -0.0553898,-0.00321654 -0.0819134,-0.00935433 -0.0276654,-0.00640157 -0.0539449,-0.0162835 -0.0774685,-0.0293268 -0.0330197,-0.0182874 -0.154421,-0.0917795 -0.181126,-0.0977992 -0.0129606,-0.00290551 -0.0334921,-0.00290945 -0.0464488,0 -0.0267677,0.006 -0.147906,0.0794331 -0.181063,0.0977992 -0.0235354,0.0130472 -0.049811,0.0229291 -0.0774724,0.0293268 -0.0265157,0.0061378 -0.0542598,0.00935433 -0.0819134,0.00935433 -0.123886,0 -0.225008,-0.0750394 -0.329409,-0.132878 -2.75591e-005,4.72441e-005 -0.0101102,-0.00338189 -0.0110669,-0.00359843 -0.0132047,-0.00296063 -0.0446339,-0.00352756 -0.0569843,0.00332677l-0.170563 0.0944685c-0.0196575,0.0109055 -0.0406614,0.0191181 -0.0624016,0.0244843 -0.0217953,0.00537402 -0.0439016,0.0081378 -0.0657165,0.0081378 -0.194772,0 -0.406079,-0.260606 -0.405831,-0.440933 1.5748e-005,-0.0165236 0.000988189,-0.0316732 0.00294882,-0.0450945 0.00201575,-0.0137756 0.00544882,-0.028437 0.0103661,-0.0438543 0.158106,-0.55263 0.513701,-1.55863 0.819591,-2.02826l1.26496 0c0.308811,0.477476 0.660236,1.4689 0.820268,2.02826zm-2.04935 -2.11927c-0.000976378,-0.00882677 -0.00342913,-0.0135827 -0.00664567,-0.0213937l-0.110327 -0.254799 -0.0106614 0.0774646c-0.00853543,0.0620984 -0.0408937,0.11765 -0.0862323,0.157185 -0.0457244,0.0398622 -0.105177,0.064563 -0.167425,0.064563l-0.158248 0c-0.032811,0 -0.0644291,-0.00672047 -0.0934331,-0.0195079 -0.0294646,-0.0129843 -0.0558701,-0.0324173 -0.0777756,-0.0576063 -0.0216378,-0.0248937 -0.0370787,-0.0536811 -0.0458858,-0.0848465 -0.00851969,-0.0301417 -0.0106929,-0.062248 -0.00611811,-0.0948268l0.149776 -1.06237c0.00720472,-0.0511339 0.0303622,-0.104244 0.062374,-0.149335 0.0319291,-0.0449685 0.0743031,-0.0842165 0.120063,-0.107799l0.23185 -0.119618c0.0166024,-0.00856299 0.0348622,-0.0152441 0.0542244,-0.0199055 0.0196063,-0.00471654 0.0386732,-0.00714173 0.0566496,-0.00714173 0.0438622,0 0.0863465,0.0118819 0.123445,0.0333268 0.0368819,0.0213189 0.0681024,0.0521535 0.0897126,0.0902165l4.33071e-005 -2.3622e-005c0.00114961,0.00201575 0.0784528,0.136272 0.221559,0.226587 0.0684646,0.0432047 0.152362,0.0756142 0.249969,0.0756142 0.0978189,0 0.181795,-0.0324173 0.250264,-0.0756299 0.143114,-0.0903228 0.21928,-0.22289 0.22039,-0.224906l0.000417323 -0.000830709c0.0216102,-0.0384331 0.0530039,-0.0695512 0.0901614,-0.0910236 0.0370984,-0.0214449 0.0795945,-0.0333307 0.123457,-0.0333307 0.0182835,0 0.0375,0.00242913 0.0570945,0.00715354 0.0189173,0.00456693 0.0370197,0.011252 0.0537795,0.019937l0.231835 0.119575c0.0461102,0.0237913 0.0885433,0.0632402 0.12028,0.108374 0.031685,0.0450591 0.0544134,0.0983622 0.0611811,0.149949l0.151787 1.15411c0.00428346,0.0324921 0.00181496,0.0645827 -0.0069685,0.0947953 -0.00905118,0.031122 -0.0246063,0.0597717 -0.0462087,0.0844173 -0.0218346,0.0248661 -0.0483071,0.0441299 -0.0779921,0.0571693 -0.0291063,0.0127795 -0.0605984,0.0194843 -0.093063,0.0194843l-0.15826 0c-0.0625315,0 -0.122012,-0.0249134 -0.167531,-0.065122 -0.0454094,-0.0401063 -0.0774094,-0.0960748 -0.0851457,-0.158327l-0.017815 -0.143252 -0.104787 0.231728c-0.00372835,0.00745276 -0.00535039,0.0111929 -0.00622835,0.0199528l-1.19356 0z"/>
 </g>
</svg>
