<?xml version="1.0" encoding="UTF-8"?>
<!DOCTYPE svg PUBLIC "-//W3C//DTD SVG 1.1//EN" "http://www.w3.org/Graphics/SVG/1.1/DTD/svg11.dtd">
<!-- Creator: CorelDRAW -->
<svg xmlns="http://www.w3.org/2000/svg" xml:space="preserve" width="6.82666in" height="6.82666in" style="shape-rendering:geometricPrecision; text-rendering:geometricPrecision; image-rendering:optimizeQuality; fill-rule:evenodd; clip-rule:evenodd"
viewBox="0 0 6.82666 6.82666"
 xmlns:xlink="http://www.w3.org/1999/xlink">
 <defs>
  <style type="text/css">
   <![CDATA[
    .fil0 {fill:#607D8B}
    .fil1 {fill:#FFFFFE}
    .fil2 {fill:#FFFFFE;fill-rule:nonzero}
   ]]>
  </style>
 </defs>
 <g id="Layer_x0020_1">
  <metadata id="CorelCorpID_0Corel-Layer"/>
  <rect class="fil0" width="6.82666" height="6.82666" rx="0.853335" ry="0.853335"/>
  <path class="fil1" d="M1.26812 1.73394l4.29043 0c0.0848346,0 0.161894,0.0360472 0.217689,0.0940984 0.0557874,0.0580591 0.0904291,0.138244 0.0904291,0.226524l0 2.42481c0,0.0882756 -0.0346417,0.168461 -0.0904291,0.22652 -0.0557953,0.0580591 -0.132854,0.0941024 -0.217689,0.0941024l-4.29043 0c-0.0848346,0 -0.161894,-0.0360433 -0.217689,-0.0941024 -0.0557913,-0.0580551 -0.0904291,-0.13824 -0.0904291,-0.22652l0 -2.42481c0,-0.0882795 0.0346299,-0.168461 0.0904291,-0.226524 0.0557953,-0.0580512 0.13285,-0.0940984 0.217689,-0.0940984zm1.89666 2.27004c0.053811,0 0.102539,0.0218189 0.137811,0.0570906 0.0352717,0.0352717 0.0570866,0.084 0.0570866,0.137811 0,0.053815 -0.021815,0.102543 -0.0570906,0.137815 -0.0352677,0.0352677 -0.0839961,0.0570866 -0.137807,0.0570866 -0.053815,0 -0.102539,-0.0218189 -0.137815,-0.0570866 -0.0352717,-0.0352717 -0.0570866,-0.084 -0.0570866,-0.137815 0,-0.053811 0.021815,-0.102539 0.0570866,-0.137811 0.0352717,-0.0352717 0.084,-0.0570906 0.137815,-0.0570906zm-0.985508 -1.86383c-0.0296339,0 -0.0536575,0.0240236 -0.0536575,0.0536575 0,0.0296299 0.0240236,0.0536535 0.0536575,0.0536535l0.351862 0 0.0929488 0.149886 0.265346 1.52216 0.052815 -0.00901575 -0.0528583 0.00921654c0.00458268,0.0263031 0.0276063,0.0447677 0.0534685,0.0444409l1.53998 0c0.0296339,0 0.0536575,-0.0240236 0.0536575,-0.0536575 0,-0.0296299 -0.0240236,-0.0536535 -0.0536575,-0.0536535l-1.49556 0 -0.0367126 -0.210591 1.51762 0c0.0417638,0 0.0778071,-0.0166654 0.104717,-0.0435748 0.0267165,-0.0267165 0.0439291,-0.0638622 0.0478622,-0.104398l0.0794764 -0.81861c0.00053937,-0.00555512 0.00080315,-0.00985827 0.00080315,-0.0129291 0,-0.0389134 -0.0167677,-0.0738228 -0.0431299,-0.0997283 -0.0249567,-0.0245276 -0.059063,-0.0409488 -0.0955197,-0.0444843 -0.00607087,-0.000582677 -0.0110157,-0.000889764 -0.0147323,-0.000889764l-1.79314 0 -0.0260787 -0.149591c-0.00088189,-0.00759843 -0.00340551,-0.0151299 -0.00770472,-0.022063l-0.000169291 0.000106299 -0.111886 -0.180417c-0.00883465,-0.0175079 -0.0269764,-0.0295197 -0.0479291,-0.0295197l-0.381484 0zm2.0772 0.435142l0 0.329083 0.366327 0 -0.0107756 0.0801693 -0.355551 0 0 0.226866 0.338567 0 -0.0104449 0.0801693 -0.328122 0 0 0.301012 -0.072874 0 0 -0.301012 -0.448339 0 0 0.301012 -0.072874 0 0 -0.301012 -0.448339 0 0 0.301012 -0.072874 0 0 -0.301012 -0.279917 0 -0.0165118 -0.0801693 0.296429 0 0 -0.226866 -0.307157 0 -0.0170315 -0.0801693 0.324189 0 0 -0.329083 0.072874 0 0 0.329083 0.448339 0 0 -0.329083 0.072874 0 0 0.329083 0.448339 0 0 -0.329083 0.072874 0zm-0.072874 0.636118l0 -0.226866 -0.448339 0 0 0.226866 0.448339 0zm-0.969551 0l0.448339 0 0 -0.226866 -0.448339 0 0 0.226866zm0.960886 0.792575c0.053811,0 0.102539,0.0218189 0.137811,0.0570906 0.0352717,0.0352717 0.0570866,0.084 0.0570866,0.137811 0,0.053815 -0.021815,0.102543 -0.0570906,0.137815 -0.0352677,0.0352677 -0.0839961,0.0570866 -0.137807,0.0570866 -0.053815,0 -0.102539,-0.0218189 -0.137815,-0.0570866 -0.0352717,-0.0352717 -0.0570866,-0.084 -0.0570866,-0.137815 0,-0.053811 0.021815,-0.102539 0.0570866,-0.137811 0.0352717,-0.0352717 0.084,-0.0570906 0.137815,-0.0570906z"/>
  <path class="fil2" d="M0.96 4.90418c-0.0589094,0 -0.106669,0.0477598 -0.106669,0.106669 0,0.0589094 0.0477598,0.106669 0.106669,0.106669l4.90667 0c0.0589094,0 0.106669,-0.0477598 0.106669,-0.106669 0,-0.0589094 -0.0477598,-0.106669 -0.106669,-0.106669l-4.90667 0z"/>
 </g>
</svg>
