<?xml version="1.0" encoding="UTF-8"?>
<!DOCTYPE svg PUBLIC "-//W3C//DTD SVG 1.1//EN" "http://www.w3.org/Graphics/SVG/1.1/DTD/svg11.dtd">
<!-- Creator: CorelDRAW -->
<svg xmlns="http://www.w3.org/2000/svg" xml:space="preserve" width="6.82666in" height="6.82666in" style="shape-rendering:geometricPrecision; text-rendering:geometricPrecision; image-rendering:optimizeQuality; fill-rule:evenodd; clip-rule:evenodd"
viewBox="0 0 6.82666 6.82666"
 xmlns:xlink="http://www.w3.org/1999/xlink">
 <defs>
  <style type="text/css">
   <![CDATA[
    .fil0 {fill:#009688}
    .fil1 {fill:#FFFFFE;fill-rule:nonzero}
   ]]>
  </style>
 </defs>
 <g id="Layer_x0020_1">
  <metadata id="CorelCorpID_0Corel-Layer"/>
  <rect class="fil0" width="6.82666" height="6.82666" rx="0.853335" ry="0.853335"/>
  <path class="fil1" d="M1.45759 3.84l3.91148 0 0.106669 0 0 0.100965 0 1.4559c0,0.114634 -0.0494724,0.218776 -0.129169,0.294209 -0.0796929,0.0754331 -0.18972,0.12226 -0.310831,0.12226l-3.24482 0c-0.12111,0 -0.231138,-0.0468268 -0.310831,-0.12226 -0.0796969,-0.0754331 -0.129169,-0.179575 -0.129169,-0.294209l0 -1.4559 0 -0.100965 0.106669 0zm0.782398 0.290917c0,-0.0589094 -0.0477598,-0.106669 -0.106669,-0.106669 -0.0589094,0 -0.106669,0.0477598 -0.106669,0.106669l0 1.28c0,0.0589094 0.0477598,0.106669 0.106669,0.106669 0.0589094,0 0.106669,-0.0477598 0.106669,-0.106669l0 -1.28zm2.56003 0c0,-0.0589094 -0.0477598,-0.106669 -0.106669,-0.106669 -0.0589094,0 -0.106669,0.0477598 -0.106669,0.106669l0 1.28c0,0.0589094 0.0477598,0.106669 0.106669,0.106669 0.0589094,0 0.106669,-0.0477598 0.106669,-0.106669l0 -1.28zm-0.640008 0c0,-0.0589094 -0.0477598,-0.106669 -0.106669,-0.106669 -0.0589094,0 -0.106669,0.0477598 -0.106669,0.106669l0 1.28c0,0.0589094 0.0477598,0.106669 0.106669,0.106669 0.0589094,0 0.106669,-0.0477598 0.106669,-0.106669l0 -1.28zm-0.640008 0c0,-0.0589094 -0.0477598,-0.106669 -0.106669,-0.106669 -0.0589094,0 -0.106669,0.0477598 -0.106669,0.106669l0 1.28c0,0.0589094 0.0477598,0.106669 0.106669,0.106669 0.0589094,0 0.106669,-0.0477598 0.106669,-0.106669l0 -1.28zm-0.640008 0c0,-0.0589094 -0.0477598,-0.106669 -0.106669,-0.106669 -0.0589094,0 -0.106669,0.0477598 -0.106669,0.106669l0 1.28c0,0.0589094 0.0477598,0.106669 0.106669,0.106669 0.0589094,0 0.106669,-0.0477598 0.106669,-0.106669l0 -1.28z"/>
  <polygon class="fil1" points="1.17333,2.87999 5.65333,2.87999 5.76,2.87999 5.76,2.98666 5.76,3.62666 5.76,3.73333 5.65333,3.73333 1.17333,3.73333 1.06666,3.73333 1.06666,3.62666 1.06666,2.98666 1.06666,2.87999 "/>
  <polygon class="fil1" points="3.19728,1.17815 2.11875,3.04621 1.93458,2.93954 3.01311,1.07148 "/>
  <polygon class="fil1" points="3.70689,1.07148 4.78542,2.93954 4.60125,3.04621 3.52272,1.17815 "/>
  <path class="fil1" d="M3.36 0.804811c0.103079,0 0.196413,0.0417913 0.26398,0.109354 0.067563,0.0675669 0.109354,0.160902 0.109354,0.26398 0,0.103079 -0.0417913,0.196413 -0.109354,0.263976 -0.0675669,0.0675669 -0.160902,0.109358 -0.26398,0.109358 -0.103079,0 -0.196413,-0.0417913 -0.26398,-0.109358 -0.067563,-0.067563 -0.109354,-0.160898 -0.109354,-0.263976 0,-0.103079 0.0417913,-0.196413 0.109354,-0.26398 0.0675669,-0.067563 0.160902,-0.109354 0.26398,-0.109354zm0.113146 0.260189c-0.0289449,-0.0289449 -0.0689528,-0.0468504 -0.113146,-0.0468504 -0.0441929,0 -0.0842008,0.0179055 -0.113146,0.0468504 -0.0289449,0.0289449 -0.0468504,0.0689528 -0.0468504,0.113146 0,0.0441929 0.0179094,0.0842008 0.0468504,0.113142 0.0289488,0.0289488 0.0689528,0.0468543 0.113146,0.0468543 0.0441929,0 0.0841969,-0.0179055 0.113146,-0.0468543 0.0289409,-0.0289409 0.0468504,-0.0689488 0.0468504,-0.113142 0,-0.0441929 -0.0179055,-0.0842008 -0.0468504,-0.113146z"/>
 </g>
</svg>
