<?xml version="1.0" encoding="UTF-8"?>
<!DOCTYPE svg PUBLIC "-//W3C//DTD SVG 1.1//EN" "http://www.w3.org/Graphics/SVG/1.1/DTD/svg11.dtd">
<!-- Creator: CorelDRAW -->
<svg xmlns="http://www.w3.org/2000/svg" xml:space="preserve" width="6.82666in" height="6.82666in" style="shape-rendering:geometricPrecision; text-rendering:geometricPrecision; image-rendering:optimizeQuality; fill-rule:evenodd; clip-rule:evenodd"
viewBox="0 0 6.82666 6.82666"
 xmlns:xlink="http://www.w3.org/1999/xlink">
 <defs>
  <style type="text/css">
   <![CDATA[
    .fil0 {fill:#795548}
    .fil1 {fill:#FFFFFE}
    .fil2 {fill:#FFFFFE;fill-rule:nonzero}
   ]]>
  </style>
 </defs>
 <g id="Layer_x0020_1">
  <metadata id="CorelCorpID_0Corel-Layer"/>
  <rect class="fil0" width="6.82666" height="6.82666" rx="0.853335" ry="0.853335"/>
  <path class="fil1" d="M1.01333 2.83643l0.426665 0 0.106669 0 0 0.0940512 0 0.75237 0 0.0940512 -0.106669 0 -0.426665 0 -0.106669 0 0 -0.0940512 0 -0.75237 0 -0.0940512 0.106669 0zm0.127642 0.192181l0.171386 0 0 0.171386 -0.171386 0 0 -0.171386zm0 0.384724l0.171386 0 0 0.171386 -0.171386 0 0 -0.171386z"/>
  <path class="fil1" d="M3.94791 1.20309l1.51566 0 0.106669 0 0 0.106669 0 4.54698 0 0.106669 -0.106669 0 -1.51566 0 -0.106669 0 0 -0.106669 0 -4.54698 0 -0.106669 0.106669 0zm-1.53278 1.89668l0.349768 -0.349764 0.0754213 -0.0754134 0.0754134 0.0754134 0.349764 0.349764 -0.150835 0.150835 -0.167677 -0.167677 0 1.25815 -0.213339 0 0 -1.25815 -0.167681 0.167677 -0.150835 -0.150835zm2.01626 0.665295l0.167681 0.167677 0 -1.25815 0.213339 0 0 1.25815 0.167677 -0.167677 0.150835 0.150835 -0.349764 0.349764 -0.0754173 0.0754134 -0.0754173 -0.0754134 -0.349768 -0.349764 0.150835 -0.150835zm-2.34891 -2.56197l1.51566 0 0.106669 0 0 0.106669 0 4.54698 0 0.106669 -0.106669 0 -1.51566 0 -0.106669 0 0 -0.106669 0 -4.54698 0 -0.106669 0.106669 0z"/>
  <polygon class="fil2" points="1.62605,5.97333 1.62605,0.959996 1.62605,0.853327 1.73272,0.853327 5.81333,0.853327 5.92,0.853327 5.92,0.959996 5.92,5.97333 5.70666,5.97333 5.70666,1.06667 1.83939,1.06667 1.83939,5.97333 "/>
 </g>
</svg>
