<?xml version="1.0" encoding="UTF-8"?>
<!DOCTYPE svg PUBLIC "-//W3C//DTD SVG 1.1//EN" "http://www.w3.org/Graphics/SVG/1.1/DTD/svg11.dtd">
<!-- Creator: CorelDRAW -->
<svg xmlns="http://www.w3.org/2000/svg" xml:space="preserve" width="6.82666in" height="6.82666in" style="shape-rendering:geometricPrecision; text-rendering:geometricPrecision; image-rendering:optimizeQuality; fill-rule:evenodd; clip-rule:evenodd"
viewBox="0 0 6.82666 6.82666"
 xmlns:xlink="http://www.w3.org/1999/xlink">
 <defs>
  <style type="text/css">
   <![CDATA[
    .fil0 {fill:#7E57C2}
    .fil1 {fill:#FFFFFE}
    .fil2 {fill:#FFFFFE;fill-rule:nonzero}
   ]]>
  </style>
 </defs>
 <g id="Layer_x0020_1">
  <metadata id="CorelCorpID_0Corel-Layer"/>
  <rect class="fil0" width="6.82666" height="6.82666" rx="0.853335" ry="0.853335"/>
  <g id="_318665280">
   <path id="_318665904" class="fil1" d="M5.32518 3.81854l-0.000291339 -0.000283465 -0.00488976 -0.00480709 -0.00495276 -0.00480709 -0.00498031 -0.00476772 -0.00501181 -0.00474409 -0.0050748 -0.00474016 -0.00507874 -0.00468504 -0.00511811 -0.00465748 -0.00514961 -0.00462992 -0.00519685 -0.00461811 -0.00524016 -0.00459055 -0.00526378 -0.00456299 -0.00530709 -0.00452756 -0.00532283 -0.00449606 -0.00538583 -0.00448819 -0.00541339 -0.00444094 -0.00542126 -0.00440551 -0.0055 -0.00440551 -0.00550787 -0.00435433 -0.00554331 -0.00433465 -0.0766654 0.0988583 0.00492913 0.00384646 0.00489764 0.00386614 0.00484252 0.00388583 0.00484646 0.00393307 0.00479528 0.00394094 0.00474409 0.00395669 0.00474803 0.00400394 0.00470079 0.00401181 0.00466142 0.00403543 0.00463386 0.00405906 0.00459449 0.00408268 0.00458268 0.00412205 0.00454724 0.00414567 0.00451575 0.00416142 0.00445276 0.00415354 0.00444882 0.00421654 0.00441732 0.00422835 0.00436614 0.00424409 0.00437008 0.0042874 0.000287402 0.000283465 0.0879331 -0.0889764zm0.320071 1.61691c-0.443807,0.616933 -1.33013,0.709854 -1.93069,0.244118 -0.439343,-0.340709 -0.615713,-0.894756 -0.496441,-1.4028 0.0442205,0.0352362 0.0885433,0.0703386 0.132917,0.105378 0.0256496,0.0202559 0.0513346,0.0404606 0.0769094,0.060811 0.00893701,0.00711024 0.0237992,0.0174567 0.0314134,0.0258583l0.0138228 0.0165551 -0.000192913 0.00197638 -0.000614173 0.00656299 -0.000283465 0.00335039 0.0118661 0.000992126c0.099685,0.118701 0.261193,0.138921 0.399232,0.0790866 0.0459449,-0.0199134 0.0879173,-0.0489843 0.123173,-0.0845 0.0352008,-0.0354724 0.0639567,-0.0775827 0.0835079,-0.123606 0.0615669,-0.144906 0.0275197,-0.290764 -0.0830748,-0.400693l-0.00302362 -0.00300394c-0.00222441,-0.00220866 -0.00451575,-0.00432283 -0.00687795,-0.00637795 -0.0295551,-0.0266969 -0.0583661,-0.0541142 -0.086315,-0.0823661l0.00151181 -0.00137402 0.0045 -0.00403937 0.00448425 -0.00397638 0.00452756 -0.00395276 0.00456693 -0.00394882 0.00455512 -0.00388976 0.00458268 -0.00385433 0.00462992 -0.00385433 0.00461417 -0.0037874 0.00462992 -0.00375591 0.00467323 -0.00373228 0.00469291 -0.00370472 0.00472047 -0.00368504 0.00472047 -0.00364173 0.00472441 -0.00359055 0.00476378 -0.00357087 0.00477165 -0.00353937 0.00256693 -0.00187795 -0.0741299 -0.10076 -0.00256693 0.00187795 -0.00540945 0.004 -0.00538583 0.00404331 -0.00538189 0.00409055 -0.00533465 0.00411417 -0.00530315 0.00413386 -0.00529528 0.0041811 -0.00526772 0.00422047 -0.00527559 0.00426772 -0.00524016 0.00431102 -0.00518504 0.00431102 -0.00519685 0.00437008 -0.00516929 0.00441732 -0.00512205 0.00441732 -0.00512598 0.00448819 -0.00511811 0.0045315 -0.00504724 0.00453937 -0.00270472 0.00244882c-0.0117008,-0.0135315 -0.0232008,-0.027248 -0.0344961,-0.0411575 -0.0472362,-0.0582087 -0.0903465,-0.11976 -0.134811,-0.180083l-0.00511811 -0.0069252c1.07765,-1.05207 3.06974,0.383386 1.99412,1.87859zm-0.484228 -1.75065l-0.00364567 -0.00242913 -0.00578346 -0.00379921 -0.00579921 -0.00375197 -0.00585827 -0.00373622 -0.00583858 -0.00367323 -0.00585827 -0.00363386 -0.00588976 -0.00360236 -0.00587402 -0.00353937 -0.00590551 -0.00351969 -0.00594094 -0.00347638 -0.00593701 -0.00343307 -0.00596063 -0.0033937 -0.00597244 -0.00334646 -0.00598425 -0.00330709 -0.00600394 -0.00326772 -0.00602362 -0.00323228 -0.00601969 -0.00317323 -0.00601969 -0.0031378 -0.00608268 -0.00311811 -0.00412992 -0.00207874 -0.0559646 0.111882 0.00342126 0.00172047 0.00533071 0.00272835 0.0053622 0.00279528 0.00534252 0.00282283 0.0053189 0.00285039 0.00531102 0.00288976 0.00529528 0.00292913 0.00528346 0.00296063 0.00526772 0.003 0.00526378 0.00303543 0.00523228 0.00307087 0.00522835 0.0031063 0.00524016 0.00316535 0.00519685 0.00317323 0.00519291 0.00322441 0.00519291 0.00325984 0.00513386 0.00327953 0.00515354 0.00333858 0.00514567 0.00337008 0.00364173 0.00242913 0.068937 -0.104382zm-0.236587 -0.118933l-0.0038622 -0.00137402 -0.00629921 -0.00220472 -0.00633465 -0.00217323 -0.00634252 -0.00213386 -0.00633465 -0.00207874 -0.00632283 -0.00203937 -0.00635827 -0.00200787 -0.00638583 -0.00197244 -0.00637008 -0.00191732 -0.00637795 -0.00188583 -0.0063937 -0.00184646 -0.00640551 -0.00180315 -0.00640157 -0.00176378 -0.00640157 -0.00172047 -0.00642126 -0.00168504 -0.00642913 -0.00164173 -0.00642126 -0.00159843 -0.00644882 -0.00157087 -0.00644882 -0.00151575 -0.00643307 -0.00148031 -0.00227559 -0.000507874 -0.0268701 0.122173 0.00148425 0.000330709 0.0057126 0.00131496 0.00570079 0.00134646 0.00568898 0.00137795 0.00570079 0.0014252 0.00568504 0.00145276 0.00566929 0.00148425 0.00568504 0.0015315 0.00566929 0.00155512 0.00564961 0.00159449 0.00564961 0.00162598 0.00564567 0.00166929 0.0056378 0.00170472 0.0056063 0.00172835 0.00562205 0.00177559 0.00564173 0.0018189 0.00561417 0.00184646 0.00559055 0.00187402 0.0055748 0.00191339 0.00559449 0.00195669 0.00385827 0.00137402 0.0416575 -0.117953zm-0.258346 -0.0579882l-0.00339764 -0.000338583 -0.00656299 -0.000614173 -0.0065315 -0.000559055 -0.00653543 -0.000535433 -0.00654724 -0.000484252 -0.00653543 -0.000448819 -0.00653937 -0.000405512 -0.00655118 -0.000374016 -0.00655118 -0.000326772 -0.00652362 -0.000291339 -0.00655512 -0.000259843 -0.00657087 -0.000212598 -0.00654331 -0.000169291 -0.0065315 -0.000133858 -0.00655906 -9.44882e-005 -0.00653543 -5.51181e-005 -0.00655512 -1.9685e-005 -0.00653543 2.75591e-005 -0.0065315 5.90551e-005 -0.00655118 0.000102362 -0.00468504 0.000102362 0.00303937 0.125059 0.00394488 -9.05512e-005 0.0057874 -9.05512e-005 0.00579921 -5.11811e-005 0.00580709 -1.9685e-005 0.00578346 1.5748e-005 0.00580709 5.11811e-005 0.00578346 7.87402e-005 0.00580709 0.000122047 0.00580709 0.000149606 0.00577559 0.000188976 0.0057874 0.000224409 0.0058189 0.000259843 0.00579134 0.000287402 0.00579134 0.000330709 0.00579921 0.000362205 0.00580315 0.000401575 0.00578346 0.000433071 0.00579921 0.000464567 0.00579528 0.000503937 0.00576378 0.000531496 0.0033937 0.000338583 0.0119606 -0.12452zm-0.264465 0.0059685l-3.93701e-006 0 -0.00644488 0.000952756 -0.00646457 0.000992126 -0.00647638 0.00103543 -0.00643307 0.00107087 -0.00642126 0.0011063 -0.00644094 0.00114173 -0.00645669 0.00119685 -0.00638976 0.00121654 -0.00640945 0.00125984 -0.00642913 0.00130709 -0.0063937 0.00134252 -0.00638189 0.00137008 -0.0063937 0.00141732 -0.00638189 0.00145669 -0.0063622 0.00149213 -0.00637008 0.0015315 -0.00634252 0.00157087 -0.00633465 0.00159843 -0.00634646 0.00164961 -0.00631496 0.0016811 -0.00209843 0.000570866 0.0332638 0.120591 0.00135433 -0.000362205 0.0056063 -0.00149606 0.00559843 -0.00145276 0.00562992 -0.0014252 0.00562992 -0.0013937 0.00562598 -0.00135433 0.00564961 -0.00132283 0.00564173 -0.0012874 0.00564567 -0.00125197 0.00566929 -0.00122441 0.00567717 -0.00118504 0.00565354 -0.00114961 0.00568898 -0.00111417 0.00570866 -0.00109449 0.00566929 -0.00103937 0.00569291 -0.00101575 0.00572835 -0.000984252 0.00572441 -0.000956693 0.00568898 -0.000909449 0.0057126 -0.000877953 0.00575197 -0.00084252 3.93701e-006 -3.93701e-006 -0.0179252 -0.123807zm-0.255654 0.069374l-0.00279134 0.0011378 -0.00606693 0.00251575 -0.00607087 0.00254724 -0.00605906 0.00259449 -0.00604724 0.00262992 -0.00603543 0.00267323 -0.00600394 0.00270079 -0.00600787 0.00274803 -0.00597638 0.00277953 -0.00595276 0.00280315 -0.00597638 0.0028622 -0.00595276 0.00290157 -0.0058937 0.00291732 -0.00591732 0.00296457 -0.00591732 0.00301575 -0.00586614 0.00303543 -0.00586614 0.0030748 -0.00585433 0.00312598 -0.00582283 0.00314567 -0.00581496 0.00318898 -0.00366929 0.00203937 0.0611929 0.10911 0.00298425 -0.00165748 0.00514567 -0.00282283 0.00516929 -0.00279921 0.00516535 -0.00274803 0.00518898 -0.00272441 0.00520079 -0.00269685 0.00520079 -0.00264961 0.00522835 -0.00262205 0.00526772 -0.00260236 0.00524409 -0.00255512 0.00524803 -0.00251575 0.00530709 -0.0025 0.00529921 -0.00246457 0.00529921 -0.00242126 0.00533858 -0.00239764 0.00532283 -0.00235827 0.00534252 -0.00232283 0.00534646 -0.00229134 0.00537795 -0.00225984 0.0053937 -0.00223228 0.00279134 -0.0011378 -0.0474921 -0.115732zm-0.677295 1.04651l5.51181e-005 0.00159055 0.000259843 0.00652362 0.000291339 0.00652362 0.000334646 0.00655118 0.000377953 0.00652362 0.000409449 0.00649213 0.000448819 0.00654724 0.000496063 0.00652756 0.000527559 0.00649213 0.000562992 0.00649606 0.000610236 0.0065315 0.000649606 0.00650787 0.000681102 0.00647638 0.000720472 0.00648425 0.00076378 0.00651969 0.000799213 0.00647244 0.000838583 0.00647244 0.00088189 0.0065 0.000913386 0.00646063 0.000952756 0.00644094 0.000992126 0.0064685 0.000102362 0.000649606 0.123461 -0.0201575 2.3622e-005 0.000133858 -0.000877953 -0.00570866 -0.000846457 -0.00575197 -0.000814961 -0.00574016 -0.000775591 -0.00570866 -0.000740157 -0.00575197 -0.000712598 -0.00575197 -0.000673228 -0.00572047 -0.000637795 -0.00576378 -0.000610236 -0.00578346 -0.000570866 -0.00574803 -0.000535433 -0.00573622 -0.0005 -0.00578346 -0.000472441 -0.00579134 -0.000433071 -0.00576378 -0.000401575 -0.00575197 -0.000362205 -0.00580315 -0.000338583 -0.0057874 -0.000295276 -0.00576378 -0.00026378 -0.00579134 -0.000224409 -0.00579528 -5.51181e-005 -0.00159055 -0.125012 0.00455906zm0.0411496 0.26161l0.0011378 0.00398425 0.00183858 0.00631102 0.00188189 0.0062874 0.00190551 0.00624409 0.00194882 0.00626378 0.00199213 0.00625197 0.00202362 0.00623228 0.00205906 0.00622047 0.00209843 0.00622047 0.00214567 0.00619685 0.00216535 0.00618504 0.00222835 0.00620472 0.00224803 0.00615748 0.0022874 0.00615354 0.00232677 0.00612992 0.00237008 0.00615748 0.00240945 0.00612992 0.00243701 0.00609055 0.00248031 0.00609843 0.00251575 0.00607087 0.00145276 0.00346063 0.115157 -0.0488622 -0.00116142 -0.00276378 -0.00223228 -0.0053937 -0.00219291 -0.00538583 -0.00216535 -0.00542913 -0.00212992 -0.00540551 -0.00208661 -0.00540945 -0.00205906 -0.00544882 -0.0020315 -0.00546063 -0.002 -0.00546457 -0.00194882 -0.00545276 -0.00192913 -0.00548425 -0.00189764 -0.00550394 -0.00185433 -0.00549606 -0.00183465 -0.00551575 -0.00179528 -0.00552756 -0.00175984 -0.00552756 -0.00172047 -0.00553543 -0.00170079 -0.0055748 -0.00165748 -0.00554724 -0.00161811 -0.00554331 -0.0011378 -0.00398425 -0.120197 0.0346654zm0.102823 0.243906l0.00117717 0.00205118 0.00334252 0.00575591 0.00337795 0.00573228 0.00341339 0.00570866 0.00344488 0.00569291 0.0035 0.00569291 0.00352756 0.00565748 0.00355118 0.00561417 0.00359055 0.00561811 0.00364173 0.00561417 0.0036811 0.00559449 0.00370472 0.00555512 0.00373622 0.00553937 0.00379134 0.0055315 0.00382283 0.00551575 0.00384646 0.00547244 0.00389764 0.0054685 0.00393307 0.00545276 0.00396063 0.00540551 0.004 0.00541339 0.00208661 0.00277165 0.0998228 -0.0753898 -0.00161024 -0.00214961 -0.00353937 -0.00477165 -0.00351575 -0.0048189 -0.00347638 -0.00480709 -0.00343701 -0.00483071 -0.00342126 -0.0048622 -0.00337008 -0.00485827 -0.00333858 -0.00487795 -0.0033189 -0.00490945 -0.0032874 -0.00492913 -0.00324016 -0.0049252 -0.00320472 -0.00494488 -0.00318504 -0.00498031 -0.00316535 -0.00501181 -0.00312205 -0.00500394 -0.00306693 -0.00499606 -0.00305512 -0.00503937 -0.00301969 -0.00505512 -0.00298425 -0.00506299 -0.00294882 -0.0050748 -0.00117717 -0.00205512 -0.108366 0.0624961zm0.159134 0.212024l0.00429528 0.00443307 0.00479921 0.00489764 0.00485039 0.00488583 0.00487402 0.00484646 0.00488976 0.00481102 0.00495669 0.00480709 0.00498031 0.00476772 0.00500787 0.00474409 0.0050748 0.00474016 0.00508268 0.0046811 0.00511811 0.00465748 0.00514961 0.00463386 0.00519291 0.00461811 0.00524016 0.00459055 0.00526772 0.00456299 0.00530315 0.00452756 0.00532677 0.00449606 0.00538583 0.00448819 0.00540945 0.00444094 0.00132283 0.00107874 0.0785433 -0.0973661 -0.000740157 -0.000602362 -0.00479528 -0.00394094 -0.00474803 -0.00395669 -0.00474803 -0.00400394 -0.00470079 -0.00401181 -0.00465748 -0.00403543 -0.00463386 -0.00405906 -0.00459449 -0.00408268 -0.00458661 -0.00412598 -0.00454331 -0.00414173 -0.00451575 -0.00416142 -0.00445669 -0.00415748 -0.00444882 -0.00421654 -0.00441732 -0.00422441 -0.0043622 -0.00424409 -0.00437008 -0.0042874 -0.00431496 -0.00429134 -0.00427165 -0.00430315 -0.00425197 -0.00434252 -0.00429134 -0.00443307 -0.089622 0.0872795zm0.205138 0.167094l0.00447638 0.00281496 0.00585827 0.0036378 0.00588583 0.00360236 0.00587402 0.00353937 0.00590945 0.00351969 0.00593701 0.00347638 0.00594094 0.00343307 0.00595669 0.00338976 0.00597638 0.00335039 0.00598425 0.00330709 0.00600394 0.00326772 0.00602362 0.00323228 0.00601575 0.00316929 0.00602362 0.00314173 0.00608268 0.00311417 0.00608268 0.00307087 0.00605906 0.00300394 0.0061063 0.00298819 0.00612205 0.00294094 0.00377165 0.0017874 0.0532087 -0.113213 -0.00312205 -0.00148031 -0.00539764 -0.00259449 -0.00537795 -0.00263386 -0.00540945 -0.00268504 -0.00537008 -0.00270472 -0.00533071 -0.00273228 -0.00536614 -0.00279134 -0.00534252 -0.00282283 -0.00531496 -0.00285039 -0.00531102 -0.0028937 -0.00529921 -0.0029252 -0.00527953 -0.00296063 -0.00527165 -0.003 -0.00526378 -0.00303937 -0.00522835 -0.00306693 -0.00523228 -0.00311024 -0.00524016 -0.00316535 -0.00519685 -0.00316929 -0.00519291 -0.00322441 -0.00447638 -0.0028189 -0.0662756 0.106094zm0.239429 0.113047l0.00388189 0.00127559 0.00632283 0.00204331 0.00635433 0.00200394 0.00638976 0.00197638 0.00637008 0.00191732 0.00637795 0.00188583 0.0063937 0.00184252 0.00640551 0.00180709 0.00640157 0.00175984 0.00639764 0.00172441 0.0064252 0.00168504 0.0064252 0.00164173 0.0064252 0.00159843 0.00644488 0.00156693 0.00644882 0.00151969 0.00643701 0.00148031 0.00648031 0.00144882 0.0064685 0.00139764 0.00643307 0.00135827 0.00648819 0.00132677 0.00254724 0.0005 0.0238701 -0.122791 -0.00175197 -0.000346457 -0.0057126 -0.00116929 -0.00575197 -0.0012126 -0.00572047 -0.00123622 -0.00569291 -0.00127165 -0.00570866 -0.00131496 -0.00570472 -0.00135039 -0.00568504 -0.00137795 -0.00570079 -0.00142126 -0.00568898 -0.00145276 -0.00566535 -0.00148819 -0.00568504 -0.00152756 -0.00566929 -0.00155512 -0.00564961 -0.00159449 -0.00564961 -0.00162992 -0.00564567 -0.00166929 -0.00564173 -0.00170079 -0.00560236 -0.00172835 -0.00562205 -0.00177953 -0.00564567 -0.00181496 -0.00388189 -0.00127559 -0.0387126 0.118949zm0.259669 0.0516102l0.00295669 0.000224409 0.00653937 0.000444882 0.00653543 0.000409449 0.00655512 0.000370079 0.00655118 0.000330709 0.00652362 0.000291339 0.00655512 0.000255906 0.00657087 0.000212598 0.00653937 0.000169291 0.00653543 0.000137795 0.00655512 9.44882e-005 0.00653937 5.51181e-005 0.00655118 1.5748e-005 0.00653937 -2.3622e-005 0.0065315 -5.90551e-005 0.00655118 -0.000102362 0.00653543 -0.000137795 0.00654331 -0.000181102 0.00654331 -0.000216535 0.00652362 -0.000259843 0.00519685 -0.000232283 -0.00601575 -0.124953 -0.0044685 0.000204724 -0.00579528 0.000228346 -0.00577559 0.000192913 -0.00579134 0.00015748 -0.00579921 0.000122047 -0.00578346 9.05512e-005 -0.00580315 5.51181e-005 -0.00580315 1.9685e-005 -0.00578346 -1.5748e-005 -0.00580709 -5.11811e-005 -0.00578346 -8.26772e-005 -0.00581102 -0.00011811 -0.00580709 -0.000153543 -0.00577165 -0.000188976 -0.0057874 -0.000220472 -0.00582283 -0.000259843 -0.0057874 -0.000291339 -0.00579134 -0.000330709 -0.00580315 -0.000362205 -0.00579921 -0.000401575 -0.00296063 -0.000220472 -0.00892126 0.12478zm0.264543 -0.0124803l0.00554724 -0.000952756 0.00644488 -0.00114567 0.00645276 -0.00119291 0.0063937 -0.00122047 0.00640945 -0.00125591 0.00642913 -0.00130709 0.0063937 -0.00134252 0.00638189 -0.00137402 0.00638976 -0.00141732 0.00638189 -0.00145276 0.00636614 -0.00149213 0.00637008 -0.00153543 0.00634252 -0.00156693 0.00633465 -0.00160236 0.00634252 -0.00164567 0.0063189 -0.0016811 0.00632677 -0.00172441 0.00629528 -0.00175591 0.00629134 -0.00179528 0.00631102 -0.00184252 0.00255118 -0.000759843 -0.0361693 -0.119752 -0.00181496 0.00053937 -0.00554331 0.00161811 -0.00559055 0.00159055 -0.00559449 0.00156299 -0.00558268 0.00151969 -0.00561024 0.00149213 -0.00559843 0.00145669 -0.00562598 0.0014252 -0.00563386 0.0013937 -0.00562205 0.00135433 -0.00564961 0.00132283 -0.00564567 0.0012874 -0.00564173 0.00125197 -0.00567323 0.00122047 -0.00567323 0.00118504 -0.00565354 0.00114961 -0.00568898 0.00111417 -0.0057126 0.00109449 -0.00566929 0.00104331 -0.00568898 0.00101575 -0.00555118 0.000956693 0.0215591 0.12322zm0.253563 -0.0755394l0.00243307 -0.00105906 0.0060315 -0.00266929 0.00600394 -0.00270079 0.00601181 -0.00274803 0.00597638 -0.00277953 0.00594882 -0.00280709 0.00597638 -0.0028622 0.00595669 -0.00290157 0.0058937 -0.00291339 0.00591732 -0.00296457 0.00591339 -0.00301575 0.00586614 -0.00303543 0.00586614 -0.0030748 0.00585433 -0.00312598 0.00582283 -0.00314567 0.0058189 -0.00319291 0.00579921 -0.00322835 0.00577165 -0.00325984 0.00575984 -0.00329921 0.00575591 -0.00334646 0.00374803 -0.00220472 -0.0638425 -0.107575 -0.00307874 0.00181102 -0.0050748 0.00294882 -0.0051063 0.00291732 -0.00512598 0.00289764 -0.00511811 0.00284646 -0.00514567 0.00282283 -0.00516929 0.00279921 -0.00516142 0.00275197 -0.00518898 0.00272441 -0.00520472 0.00269685 -0.00519685 0.00264567 -0.00522835 0.00262205 -0.00527165 0.0026063 -0.00524016 0.00255512 -0.00525197 0.00251181 -0.00530315 0.0025 -0.00529921 0.00246457 -0.00530315 0.00242126 -0.00533465 0.00240157 -0.00532283 0.00235827 -0.00243307 0.00105512 0.0502756 0.114551zm0.228091 -0.134736l0.00266535 -0.00205906 0.00530315 -0.00413386 0.00529528 -0.00418504 0.00527165 -0.00421654 0.00527165 -0.00427165 0.00524409 -0.00430709 0.0051811 -0.00431102 0.00519685 -0.00437402 0.00517323 -0.00441339 0.00512205 -0.00442126 0.00512598 -0.00448425 0.00511417 -0.00453543 0.00505118 -0.00453543 0.00503937 -0.00457087 0.00502756 -0.00462992 0.00500394 -0.00465748 0.00497244 -0.00469291 0.00495276 -0.00473228 0.0049252 -0.00476772 0.00486614 -0.00476772 -0.0878346 -0.0890709 -0.00431102 0.00421654 -0.00435827 0.00422047 -0.00437402 0.0041811 -0.00440157 0.00415354 -0.0044252 0.00412598 -0.00444094 0.00408268 -0.00447244 0.00406299 -0.0045 0.00403937 -0.00448425 0.00397244 -0.00452756 0.00395669 -0.00457087 0.00394882 -0.00455118 0.00388976 -0.00458268 0.00385433 -0.00463386 0.00385039 -0.00461417 0.00379134 -0.00462992 0.00375197 -0.00466929 0.00373622 -0.00469291 0.00370472 -0.00472047 0.00368504 -0.00266535 0.00205906 0.0766575 0.0988543zm0.18861 -0.185972l0.00368504 -0.00466929 0.00433465 -0.00554331 0.00429134 -0.00557874 0.00425197 -0.00558661 0.00422835 -0.00563386 0.00415748 -0.00561811 0.00413386 -0.00564961 0.00410236 -0.00568504 0.00403543 -0.0056811 0.00401181 -0.00570472 0.00396457 -0.00573228 0.00393307 -0.00574803 0.00388189 -0.00576772 0.00383465 -0.00576772 0.00379528 -0.00578346 0.00375591 -0.00579921 0.00373622 -0.00585433 0.00366929 -0.00584252 0.0036378 -0.00585827 0.000633858 -0.00103543 -0.106937 -0.0649173 -0.000200787 0.000338583 -0.00322441 0.00519291 -0.00325984 0.00519291 -0.00328346 0.00513386 -0.00333465 0.00515354 -0.00337008 0.00514567 -0.00341732 0.00513386 -0.00343307 0.00509843 -0.00347638 0.00508661 -0.00350787 0.00506693 -0.00355512 0.00505512 -0.00360236 0.00505906 -0.00361024 0.00501181 -0.00366535 0.00501181 -0.0037126 0.00501575 -0.00372441 0.0049685 -0.00377953 0.00496457 -0.0038189 0.00494882 -0.00384252 0.00492913 -0.00368504 0.00466929 0.0983661 0.0772795zm0.138429 -0.225425l0.0011378 -0.00248031 0.00277165 -0.00614961 0.00273622 -0.00617323 0.0026811 -0.00616142 0.00265748 -0.00619291 0.00262205 -0.00622835 0.0025748 -0.00622441 0.0025315 -0.00623622 0.00248819 -0.00622047 0.00245276 -0.00625984 0.00241339 -0.00626772 0.0023622 -0.00625984 0.00233071 -0.00629134 0.00229528 -0.00630315 0.00224016 -0.00629528 0.00220472 -0.00629921 0.00216929 -0.00633465 0.00213386 -0.00634252 0.00207874 -0.00633465 0.00204331 -0.00632283 0.000779528 -0.00248819 -0.119406 -0.0372992 -0.000551181 0.00175197 -0.00181496 0.00564567 -0.00185039 0.00561417 -0.00187008 0.00558661 -0.00191339 0.0055748 -0.00195669 0.00559449 -0.00199213 0.00557874 -0.00201969 0.00555512 -0.00205512 0.00554724 -0.00210236 0.00555906 -0.00212598 0.00553543 -0.00216929 0.00551969 -0.00220866 0.00553937 -0.00223622 0.00550394 -0.00227559 0.0055 -0.00230315 0.00547244 -0.00235039 0.00548031 -0.0023937 0.00548819 -0.00242126 0.0054685 -0.00245276 0.00545276 -0.0011378 0.00247638 0.113902 0.0517205zm0.0798819 -0.252575l0.000708661 -0.00381496 0.00116535 -0.00650787 0.00112205 -0.00648425 0.00108661 -0.00650787 0.00104331 -0.00651575 0.001 -0.00651181 0.00096063 -0.00651575 0.000925197 -0.00650394 0.00088189 -0.00652362 0.00084252 -0.00650394 0.000811024 -0.00653543 0.00076378 -0.00655512 0.000724409 -0.00651969 0.000685039 -0.00652756 0.000645669 -0.00652362 0.000614173 -0.00656299 0.000559055 -0.0065315 0.000531496 -0.00653543 0.000488189 -0.00654724 0.000444882 -0.00653543 0.00023622 -0.00380315 -0.12487 -0.00744882 -0.000192913 0.00306299 -0.000401575 0.00580315 -0.000429134 0.00578346 -0.000468504 0.00579921 -0.0005 0.00579528 -0.000531496 0.00576378 -0.00057874 0.00579134 -0.000606299 0.00579134 -0.000641732 0.00579134 -0.000673228 0.00575984 -0.000712598 0.00576772 -0.000751969 0.00579528 -0.000779528 0.00575984 -0.000818898 0.00578346 -0.000850394 0.00576772 -0.000889764 0.00574803 -0.00092126 0.00575591 -0.00096063 0.00574016 -0.000992126 0.00576772 -0.00102756 0.00573622 -0.000708661 0.00381496 0.123067 0.022437zm0.0164252 -0.264083l-6.29921e-005 -0.00105906 -0.000409449 -0.00649213 -0.000448819 -0.00655118 -0.000496063 -0.00652362 -0.000527559 -0.00649213 -0.000566929 -0.00649606 -0.000606299 -0.0065315 -0.000649606 -0.00651181 -0.000681102 -0.00647638 -0.000720472 -0.00648425 -0.00076378 -0.00651575 -0.000799213 -0.00647638 -0.000838583 -0.0064685 -0.00088189 -0.00650394 -0.000917323 -0.00645669 -0.000952756 -0.00644488 -0.000992126 -0.00646457 -0.00103543 -0.00647638 -0.00107087 -0.00643307 -0.00110236 -0.00642126 -0.00114567 -0.00644094 -0.000220472 -0.00117717 -0.122945 0.0230945 7.08661e-005 0.000393701 0.00101575 0.00568898 0.000984252 0.00572835 0.000952756 0.00572441 0.000913386 0.00568898 0.000874016 0.0057126 0.000846457 0.00575197 0.000818898 0.00574016 0.000775591 0.00570866 0.000740157 0.00574803 0.000712598 0.00575591 0.000669291 0.00572047 0.000637795 0.00576378 0.000614173 0.00577953 0.000570866 0.00574803 0.000535433 0.00574016 0.0005 0.00577953 0.000472441 0.00579528 0.000433071 0.00576378 0.000401575 0.00575197 0.000362205 0.00580315 5.90551e-005 0.00105906 0.124874 -0.00754331zm-0.0475197 -0.260547l-0.00109055 -0.0035 -0.00199213 -0.00625591 -0.00201969 -0.00622835 -0.00205906 -0.00622047 -0.00210236 -0.00622047 -0.00214173 -0.00619685 -0.00216535 -0.00618504 -0.00223228 -0.00620472 -0.00224409 -0.00616142 -0.00229134 -0.00614961 -0.00232283 -0.00613386 -0.00237402 -0.00615748 -0.00240945 -0.00612598 -0.00243307 -0.00609055 -0.00248031 -0.00610236 -0.00251575 -0.00606693 -0.00255118 -0.00607087 -0.00259055 -0.00605906 -0.00263386 -0.00604724 -0.00266929 -0.00603543 -0.0016811 -0.00373228 -0.113937 0.0516535 0.00138189 0.00306693 0.00235433 0.00532283 0.00232677 0.00534252 0.00229134 0.00534646 0.00225984 0.00537795 0.00223228 0.0053937 0.00219291 0.00538583 0.00216535 0.0054252 0.00212992 0.00540945 0.00208268 0.00540945 0.00206299 0.00544882 0.0020315 0.00546063 0.002 0.00546457 0.00194882 0.00544882 0.00192913 0.00548819 0.0018937 0.00550394 0.00185827 0.00549213 0.00183465 0.00551969 0.00179134 0.00552756 0.00176378 0.00552756 0.00109055 0.00349606 0.119315 -0.0375669zm-0.108791 -0.241331l-0.00116535 -0.0019252 -0.0035 -0.00569685 -0.00352362 -0.00565354 -0.00355118 -0.00561811 -0.00359055 -0.00561811 -0.00364567 -0.00561417 -0.00367717 -0.00559055 -0.00370472 -0.00555512 -0.00373622 -0.00553937 -0.00379134 -0.00553543 -0.00382283 -0.00551181 -0.00385039 -0.00547244 -0.0038937 -0.00547244 -0.00393701 -0.00544882 -0.00395669 -0.00540945 -0.004 -0.00540945 -0.00404724 -0.00538583 -0.00408661 -0.00538189 -0.00411417 -0.00533465 -0.00413386 -0.00530315 -0.00201575 -0.00255512 -0.0979252 0.0778465 0.00153543 0.00195276 0.00368504 0.00472047 0.00364173 0.00472047 0.00359055 0.00472835 0.00357087 0.00475984 0.00353937 0.00477165 0.00351575 0.0048189 0.00347638 0.00480315 0.00343307 0.00483465 0.00342126 0.0048622 0.00337402 0.00485827 0.00333858 0.00487795 0.00331496 0.00490945 0.00329134 0.00492913 0.00323622 0.0049252 0.00320472 0.00494488 0.00318898 0.00497638 0.00316535 0.00501575 0.00311811 0.005 0.00307087 0.005 0.00116535 0.0019252 0.106791 -0.0651496zm-1.2384 0.816827l0.209878 -0.270638c-0.0656614,-0.0897795 -0.0994173,-0.17424 -0.100925,-0.253823 -0.0012874,-0.0794134 0.024874,-0.154142 0.0789252,-0.223839 0.0547362,-0.0705827 0.123028,-0.112638 0.20487,-0.126173 0.0820669,-0.0133583 0.16278,0.00508268 0.242709,0.0550551l0.0496024 -0.0639646 0.0935236 0.0725276 -0.0496063 0.0639646c0.0620984,0.0615787 0.0986181,0.126988 0.109272,0.197059 0.0104291,0.0699055 -0.00379134,0.141528 -0.0426614,0.214878l-0.180031 -0.10535c0.0295827,-0.0586496 0.0304646,-0.113067 0.00258268,-0.163657l-0.195854 0.252551c0.0817244,0.108236 0.124079,0.199366 0.126803,0.272827 0.00294488,0.0736339 -0.0226063,0.145303 -0.0768307,0.215224 -0.0603819,0.0778622 -0.134957,0.125283 -0.223331,0.142228 -0.0887677,0.0169921 -0.179811,-0.00133465 -0.273256,-0.054374l-0.0937362 0.12087 -0.0935236 -0.0725276 0.0913425 -0.117783c-0.0675394,-0.0668543 -0.106646,-0.141689 -0.117094,-0.224319 -0.0106181,-0.0824094 0.0107992,-0.171063 0.0636417,-0.266071l0.18276 0.112764c-0.0198465,0.0397165 -0.0299252,0.0795827 -0.0302835,0.11922 -0.000582677,0.0394606 0.00656693,0.0739685 0.0212244,0.10335zm0.526154 -0.678472c-0.0322559,-0.0112402 -0.0637874,-0.0120276 -0.0949134,-0.00331496 -0.0310787,0.00910236 -0.0563661,0.0262244 -0.0756969,0.0511496 -0.0176142,0.0227165 -0.0273701,0.0494173 -0.028748,0.0794331 -0.00133071,0.0304055 0.00730709,0.0625354 0.0259134,0.0963858l0.173445 -0.223654zm-0.439642 0.760039c0.0370394,0.019189 0.0749213,0.0245433 0.113681,0.0164606 0.0389409,-0.00830709 0.070811,-0.0284488 0.0959528,-0.0608701 0.0224094,-0.0288976 0.0329646,-0.0602717 0.0322283,-0.0943976 -0.000728346,-0.034122 -0.0162598,-0.0719488 -0.0465236,-0.113083l-0.195339 0.25189z"/>
   <path id="_318665640" class="fil1" d="M3.91558 4.05426c-0.000555118,-0.000492126 -0.00111024,-0.000976378 -0.00165354,-0.00146457 -0.0793583,-0.0714134 -0.152713,-0.147193 -0.219996,-0.230102 -0.0487165,-0.0600236 -0.0925866,-0.122559 -0.138382,-0.184685 -0.106854,-0.144957 -0.207504,-0.267437 -0.336819,-0.394335l-0.0039252 -0.00385039 -0.138921 -0.117776 0.152953 -0.0828386c0.0250433,-0.0209724 0.0545236,-0.0367047 0.0848937,-0.0483386 0.109433,-0.0419331 0.23885,-0.0362205 0.341094,0.0227244 0.0391142,0.0225472 0.0728858,0.0529724 0.0992559,0.0896417 0.0393583,0.0547283 0.0627323,0.114539 0.067752,0.18213l0.000188976 0.00257087 0.0016378 0.0110157c0.00308268,0.00646457 0.00982283,0.0107008 0.0173898,0.0103071 0.00261024,-0.00034252 0.00540157,-0.000964567 0.00797244,-0.00146457 0.273705,-0.150378 0.54511,-0.19515 0.803614,-0.155382 0.00727165,-0.00232677 0.0118307,-0.0105433 0.0139016,-0.0173465 0.00119291,-0.00393307 0.00250394,-0.00779528 0.00375591,-0.0116969l7.87402e-005 -0.000295276c0.000295276,-0.00126772 0.000590551,-0.00253937 0.000897638,-0.00380315 0.00102756,-0.00423228 0.00212992,-0.00839764 0.00333071,-0.0125669 0.00858661,-0.0344016 0.0137126,-0.0704724 0.0121575,-0.105961 -0.00133071,-0.0302913 -0.00762992,-0.0600827 -0.0218819,-0.0870276l-0.00548031 -0.0103661c-0.195791,-0.347228 -0.415811,-0.629307 -0.798063,-0.773634 -0.113575,-0.0428819 -0.232217,-0.0729882 -0.349933,-0.102094 -0.20428,-0.0504921 -0.394827,-0.102276 -0.587295,-0.190445 -0.204602,-0.0937323 -0.390126,-0.217669 -0.560567,-0.362059 -0.0227244,0.0418465 -0.0524016,0.0812717 -0.0908346,0.119547l-0.727669 0.724701c-0.0237205,0.0236181 -0.0495945,0.0440433 -0.077122,0.0614094l1.10502 1.22351c0.00141732,0.00122441 0.00318504,0.00247244 0.00445669,0.00338189 0.0658701,0.0471457 0.130626,0.0997913 0.194106,0.150177 0.0974173,0.0773307 0.194327,0.155319 0.291165,0.233366 0.039815,0.0320945 0.0796142,0.0642087 0.119402,0.0963228 0.0817598,0.066 0.164031,0.131331 0.246496,0.196441 0.0257717,0.0203465 0.0515787,0.0406457 0.0772677,0.0610866 0.0160551,0.0127638 0.036378,0.0278071 0.0493898,0.0433819l0.0242008 0.0289724c0.0745945,0.0634606 0.161961,0.0850591 0.25402,0.0451496 0.0313465,-0.0135866 0.0600906,-0.033626 0.0841339,-0.0578543 0.0240079,-0.0241811 0.0438268,-0.0530039 0.0571614,-0.0843937 0.0412795,-0.0971732 0.0186811,-0.188819 -0.056122,-0.263051l-0.00302756 -0.00300394z"/>
   <path id="_318665616" class="fil2" d="M1.49824 2.26512c-0.0766339,0.070748 -0.176268,0.0986496 -0.26998,0.0952244 -0.0959331,-0.00351575 -0.191323,-0.0421339 -0.246445,-0.101287l-0.000366142 0.000366142 -0.0358898 -0.0383346c-0.0602638,-0.0645984 -0.0825827,-0.154516 -0.0697913,-0.247764 0.0120354,-0.0876772 0.0555118,-0.177972 0.127783,-0.250272l2.75591e-005 2.75591e-005 0.737118 -0.741228 0.000374016 -0.000429134c0.0476535,-0.0476772 0.102571,-0.0824843 0.158925,-0.10365 0.0608031,-0.0228386 0.122756,-0.0298701 0.179189,-0.0202717 0.027937,0.00475197 0.0554409,0.0140118 0.0817441,0.0278898 0.0255118,0.0134646 0.0482559,0.0304331 0.067374,0.0509016l0.0359094 0.0383307c0.0588425,0.0630984 0.0837835,0.184925 0.0738386,0.303106 -0.00949213,0.112874 -0.0380157,0.188575 -0.112146,0.262689l-0.727665 0.724701z"/>
  </g>
 </g>
</svg>
