<?xml version="1.0" encoding="UTF-8"?>
<!DOCTYPE svg PUBLIC "-//W3C//DTD SVG 1.1//EN" "http://www.w3.org/Graphics/SVG/1.1/DTD/svg11.dtd">
<!-- Creator: CorelDRAW -->
<svg xmlns="http://www.w3.org/2000/svg" xml:space="preserve" width="6.82666in" height="6.82666in" style="shape-rendering:geometricPrecision; text-rendering:geometricPrecision; image-rendering:optimizeQuality; fill-rule:evenodd; clip-rule:evenodd"
viewBox="0 0 6.82666 6.82666"
 xmlns:xlink="http://www.w3.org/1999/xlink">
 <defs>
  <style type="text/css">
   <![CDATA[
    .fil0 {fill:#EC407A}
    .fil1 {fill:#FFFFFE;fill-rule:nonzero}
   ]]>
  </style>
 </defs>
 <g id="Layer_x0020_1">
  <metadata id="CorelCorpID_0Corel-Layer"/>
  <rect class="fil0" width="6.82666" height="6.82666" rx="0.853335" ry="0.853335"/>
  <g id="_318664224">
   <path id="_318664680" class="fil1" d="M4.4937 5.26705c0.181858,0.0185315 0.340098,0.0410551 0.467551,0.0666102 0.271677,0.0544764 0.430264,0.142094 0.430264,0.258638 0,0.138382 -0.261512,0.242909 -0.684311,0.300043 -0.370307,0.0500433 -0.879102,0.0809961 -1.4386,0.0809961 -0.559496,0 -1.06829,-0.0309528 -1.4386,-0.0809961 -0.422799,-0.0571339 -0.684315,-0.161661 -0.684315,-0.300043 0,-0.114047 0.149898,-0.199878 0.408118,-0.253858 0.114846,-0.0240079 0.255748,-0.0454488 0.417075,-0.063563 0.00495669,0.00512205 0.00993701,0.0102244 0.0149843,0.0152717 0.22735,0.22735 0.525366,0.353047 0.848016,0.353047l0.789295 0c0.32265,0 0.620661,-0.125701 0.848012,-0.353047 0.00761024,-0.00761024 0.0151102,-0.015311 0.0225079,-0.0230984z"/>
   <path id="_318664728" class="fil1" d="M1.67718 2.48604l3.10271 0 0.117236 0 -0.00879134 0.116953 -0.136083 1.80992c-0.0234449,0.311929 -0.154004,0.596224 -0.358039,0.800256 -0.19835,0.19835 -0.465413,0.321161 -0.771031,0.321161l-0.789295 0c-0.305614,0 -0.572677,-0.122807 -0.771035,-0.321161 -0.204028,-0.204031 -0.334587,-0.488323 -0.358035,-0.800256l-0.136083 -1.80992 -0.00879134 -0.116953 0.117236 0z"/>
   <path id="_318663864" class="fil1" d="M4.73901 3.13862l0.49287 0c0.123606,0 0.235906,0.0504921 0.317248,0.131827 0.0813346,0.0813425 0.131831,0.193642 0.131831,0.317248l0 0.300016c0,0.123598 -0.0504961,0.235906 -0.131831,0.317244 -0.0813425,0.0813386 -0.193642,0.131831 -0.317248,0.131831l-0.582953 0 0.0516024 -0.686311 0 0.468571 0.53135 0c0.0635039,0 0.121323,-0.0260591 0.163299,-0.0680354 0.0419764,-0.0419803 0.0680394,-0.0997953 0.0680394,-0.163299l0 -0.300016c0,-0.0635039 -0.0260591,-0.121323 -0.0680394,-0.163299 -0.0419764,-0.0419803 -0.0997953,-0.0680394 -0.163299,-0.0680394l-0.50924 0 0.0163701 -0.217736z"/>
   <path id="_318664296" class="fil1" d="M3.02395 1.05035c0.0488504,-0.0347559 0.0602717,-0.102539 0.0255157,-0.15139 -0.0347598,-0.0488504 -0.102543,-0.0602756 -0.15139,-0.0255157 -0.411941,0.29424 -0.372945,0.497713 -0.233776,0.692551 0.0295276,0.0413386 0.0629528,0.0797835 0.0969213,0.118854 0.102622,0.118039 0.211803,0.243622 0.106657,0.418874 -0.0307638,0.0514331 -0.0140079,0.118083 0.0374252,0.148843 0.0514331,0.0307638 0.118079,0.0140079 0.148843,-0.0374252 0.186094,-0.310161 0.0237874,-0.49685 -0.128772,-0.672331 -0.0305512,-0.0351378 -0.060622,-0.0697244 -0.0841654,-0.102689 -0.0686457,-0.0961024 -0.0780394,-0.203504 0.18274,-0.389772z"/>
   <path id="_318663768" class="fil1" d="M3.72723 1.22891c0.0488465,-0.0347598 0.0602717,-0.102543 0.0255157,-0.151394 -0.0347598,-0.0488465 -0.102543,-0.0602717 -0.151394,-0.0255157 -0.411941,0.294244 -0.372941,0.497717 -0.233772,0.692555 0.0295276,0.0413346 0.0629488,0.0797835 0.0969213,0.11885 0.102622,0.118039 0.211803,0.243626 0.106654,0.418878 -0.0307638,0.0514331 -0.0140079,0.118079 0.0374252,0.148843 0.051437,0.0307638 0.118083,0.0140079 0.148846,-0.0374252 0.186094,-0.310161 0.0237874,-0.49685 -0.128772,-0.672331 -0.0305512,-0.0351378 -0.060622,-0.0697244 -0.0841693,-0.102689 -0.0686417,-0.0961063 -0.0780354,-0.203504 0.182744,-0.389772z"/>
  </g>
 </g>
</svg>
