<?xml version="1.0" encoding="UTF-8"?>
<!DOCTYPE svg PUBLIC "-//W3C//DTD SVG 1.1//EN" "http://www.w3.org/Graphics/SVG/1.1/DTD/svg11.dtd">
<!-- Creator: CorelDRAW -->
<svg xmlns="http://www.w3.org/2000/svg" xml:space="preserve" width="6.82666in" height="6.82666in" style="shape-rendering:geometricPrecision; text-rendering:geometricPrecision; image-rendering:optimizeQuality; fill-rule:evenodd; clip-rule:evenodd"
viewBox="0 0 6.82666 6.82666"
 xmlns:xlink="http://www.w3.org/1999/xlink">
 <defs>
  <style type="text/css">
   <![CDATA[
    .fil0 {fill:#FF9800}
    .fil1 {fill:#FFFFFE}
   ]]>
  </style>
 </defs>
 <g id="Layer_x0020_1">
  <metadata id="CorelCorpID_0Corel-Layer"/>
  <rect class="fil0" width="6.82666" height="6.82666" rx="0.853335" ry="0.853335"/>
  <path class="fil1" d="M1.33333 0.853331l4.16 0c0.132122,0 0.25215,0.0539685 0.339091,0.140909 0.0869409,0.0869409 0.140909,0.206969 0.140909,0.339091l0 4.16c0,0.132122 -0.0539685,0.25215 -0.140909,0.339091 -0.0869409,0.0869409 -0.206969,0.140909 -0.339091,0.140909l-4.16 0c-0.132122,0 -0.25215,-0.0539685 -0.339091,-0.140909 -0.0869409,-0.0869409 -0.140909,-0.206969 -0.140909,-0.339091l0 -4.16c0,-0.132122 0.0539685,-0.25215 0.140909,-0.339091 0.0869409,-0.0869409 0.206969,-0.140909 0.339091,-0.140909zm3.32591 1.47863c0.045437,-0.0454331 0.045437,-0.11911 0,-0.164543 -0.0454331,-0.045437 -0.11911,-0.045437 -0.164543,0l-2.32728 2.32728c-0.045437,0.0454331 -0.045437,0.11911 0,0.164543 0.0454331,0.045437 0.11911,0.045437 0.164543,0l2.32728 -2.32728zm-1.87337 -0.0792205c0.122996,0 0.234374,0.0498701 0.314988,0.130484 0.0806181,0.0806142 0.130488,0.191984 0.130488,0.314992 0,0.122996 -0.0498701,0.234374 -0.130488,0.314988 -0.0806142,0.0806142 -0.191992,0.130488 -0.314988,0.130488 -0.123008,0 -0.234378,-0.049874 -0.314988,-0.130488 -0.0806181,-0.0806142 -0.130488,-0.191992 -0.130488,-0.314988 0,-0.123008 0.0498701,-0.234378 0.130488,-0.314992 0.0806102,-0.0806142 0.19198,-0.130484 0.314988,-0.130484zm1.25491 1.34256c0.123008,0 0.234378,0.0498701 0.314988,0.130488 0.0806181,0.0806142 0.130488,0.191988 0.130488,0.314988 0,0.123008 -0.0498701,0.234378 -0.130488,0.314988 -0.0806102,0.0806142 -0.19198,0.130488 -0.314988,0.130488 -0.122996,0 -0.234374,-0.049874 -0.314988,-0.130488 -0.0806181,-0.0806102 -0.130488,-0.19198 -0.130488,-0.314988 0,-0.123 0.0498701,-0.234374 0.130488,-0.314988 0.0806142,-0.0806181 0.191992,-0.130488 0.314988,-0.130488zm-2.59109 1.56737c-0.000488189,-0.0854213 -0.0886181,-0.141634 -0.166177,-0.105193 -0.0409567,0.0196496 -0.0662992,0.0597795 -0.0665551,0.105193l0 0.0211378c0.000562992,0.179669 0.111567,0.337189 0.279598,0.399882 0.0294055,0.0106299 0.0582362,0.0178976 0.0892283,0.0221654 0.0843071,0.0111457 0.151091,-0.0678898 0.126882,-0.149272 -0.0136575,-0.0437559 -0.0502874,-0.0750906 -0.0957717,-0.0813661 -0.0685906,-0.0099252 -0.125575,-0.0540512 -0.152539,-0.11789 -0.00973622,-0.0235157 -0.0146654,-0.0480591 -0.0146654,-0.0735197l0 -0.0211378zm3.92243 -3.56275c0.0195,0.080874 0.11398,0.115614 0.181543,0.0672087 0.0382087,-0.0281535 0.0556535,-0.0749173 0.0448307,-0.121197 -0.0355709,-0.151472 -0.151193,-0.27122 -0.300748,-0.313409 -0.0376063,-0.0103937 -0.0749331,-0.0154449 -0.113941,-0.015563l-0.0500354 0c-0.0854213,0.000488189 -0.141634,0.0886181 -0.105197,0.166177 0.0196496,0.0409567 0.0597795,0.0662953 0.105197,0.0665551l0.0500354 0c0.0899764,0 0.167811,0.0629213 0.188315,0.150228zm-3.07272 3.77704c-0.0854213,0.000488189 -0.141634,0.0886181 -0.105193,0.166177 0.0196457,0.0409567 0.0597795,0.0662992 0.105193,0.0665551l0.465457 0c0.0854213,-0.000488189 0.141634,-0.0886181 0.105197,-0.166177 -0.0196496,-0.0409567 -0.0597835,-0.0662953 -0.105197,-0.0665551l-0.465457 0zm1.16364 0c-0.0854213,0.000488189 -0.141634,0.0886181 -0.105193,0.166177 0.0196496,0.0409567 0.0597795,0.0662992 0.105193,0.0665551l0.465457 0c0.0854213,-0.000488189 0.141634,-0.0886181 0.105197,-0.166177 -0.0196496,-0.0409567 -0.0597795,-0.0662953 -0.105197,-0.0665551l-0.465457 0zm-1.82019 -4.16c-0.0854213,0.000488189 -0.141634,0.0886181 -0.105193,0.166177 0.0196496,0.0409567 0.0597795,0.0662953 0.105193,0.0665551l0.465453 0c0.0854213,-0.000488189 0.141634,-0.0886181 0.105197,-0.166177 -0.0196496,-0.0409567 -0.0597795,-0.0662992 -0.105197,-0.0665551l-0.465453 0zm2.79274 0.232732c0.0854213,-0.000488189 0.14163,-0.0886181 0.105193,-0.166177 -0.0196496,-0.0409567 -0.0597795,-0.0662992 -0.105193,-0.0665551l-0.465461 0c-0.0854213,0.000488189 -0.14163,0.0886181 -0.105193,0.166177 0.0196496,0.0409567 0.0597795,0.0662953 0.105193,0.0665551l0.465461 0zm-1.16365 0c0.0854213,-0.000488189 0.141634,-0.0886181 0.105197,-0.166177 -0.0196496,-0.0409567 -0.0597795,-0.0662992 -0.105197,-0.0665551l-0.465457 0c-0.0854213,0.000488189 -0.141634,0.0886181 -0.105193,0.166177 0.0196496,0.0409567 0.0597795,0.0662953 0.105193,0.0665551l0.465457 0zm1.35474 3.92727c-0.0854213,0.000488189 -0.141634,0.0886181 -0.105193,0.166177 0.0196496,0.0409567 0.0597795,0.0662992 0.105193,0.0665551l0.465457 0c0.0854213,-0.000488189 0.141634,-0.0886181 0.105197,-0.166177 -0.0196496,-0.0409567 -0.0597795,-0.0662953 -0.105197,-0.0665551l-0.465457 0zm0.75028 -0.313717c0.000488189,0.0854213 0.0886181,0.141634 0.166177,0.105193 0.0409567,-0.0196496 0.0662992,-0.0597795 0.0665551,-0.105193l0 -0.465457c-0.000488189,-0.0854213 -0.0886181,-0.141634 -0.166177,-0.105197 -0.0409567,0.0196496 -0.0662953,0.0597795 -0.0665551,0.105197l0 0.465457zm0 -1.16364c0.000488189,0.0854213 0.0886181,0.141634 0.166177,0.105193 0.0409567,-0.0196496 0.0662992,-0.0597795 0.0665551,-0.105193l0 -0.465457c-0.000488189,-0.0854213 -0.0886181,-0.141634 -0.166177,-0.105197 -0.0409567,0.0196496 -0.0662953,0.0597795 -0.0665551,0.105197l0 0.465457zm0 -1.16364c0.000488189,0.0854213 0.0886181,0.14163 0.166177,0.105193 0.0409567,-0.0196496 0.0662992,-0.0597795 0.0665551,-0.105193l0 -0.465457c-0.000488189,-0.0854252 -0.0886181,-0.141634 -0.166177,-0.105197 -0.0409567,0.0196496 -0.0662953,0.0597795 -0.0665551,0.105197l0 0.465457zm-3.92727 -1.06422c-0.000488189,-0.0854213 -0.0886181,-0.141634 -0.166177,-0.105197 -0.0409567,0.0196496 -0.0662992,0.0597835 -0.0665551,0.105197l0 0.465457c0.000488189,0.0854213 0.0886181,0.141634 0.166177,0.105197 0.0409567,-0.0196496 0.0662953,-0.0597835 0.0665551,-0.105197l0 -0.465457zm0 1.16364c-0.000488189,-0.0854213 -0.0886181,-0.141634 -0.166177,-0.105197 -0.0409567,0.0196496 -0.0662992,0.0597835 -0.0665551,0.105197l0 0.465457c0.000488189,0.0854213 0.0886181,0.141634 0.166177,0.105197 0.0409567,-0.0196496 0.0662953,-0.0597835 0.0665551,-0.105197l0 -0.465457zm0 1.16364c-0.000488189,-0.0854213 -0.0886181,-0.141634 -0.166177,-0.105193 -0.0409567,0.0196457 -0.0662992,0.0597795 -0.0665551,0.105193l0 0.465457c0.000488189,0.0854213 0.0886181,0.141634 0.166177,0.105197 0.0409567,-0.0196496 0.0662953,-0.0597835 0.0665551,-0.105197l0 -0.465457z"/>
 </g>
</svg>
