<?xml version="1.0" encoding="UTF-8"?>
<!DOCTYPE svg PUBLIC "-//W3C//DTD SVG 1.1//EN" "http://www.w3.org/Graphics/SVG/1.1/DTD/svg11.dtd">
<!-- Creator: CorelDRAW -->
<svg xmlns="http://www.w3.org/2000/svg" xml:space="preserve" width="6.82666in" height="6.82666in" style="shape-rendering:geometricPrecision; text-rendering:geometricPrecision; image-rendering:optimizeQuality; fill-rule:evenodd; clip-rule:evenodd"
viewBox="0 0 6.82666 6.82666"
 xmlns:xlink="http://www.w3.org/1999/xlink">
 <defs>
  <style type="text/css">
   <![CDATA[
    .fil0 {fill:#FF5722}
    .fil1 {fill:#FFFFFE}
    .fil2 {fill:#FFFFFE;fill-rule:nonzero}
   ]]>
  </style>
 </defs>
 <g id="Layer_x0020_1">
  <metadata id="CorelCorpID_0Corel-Layer"/>
  <rect class="fil0" width="6.82666" height="6.82666" rx="0.853335" ry="0.853335"/>
  <g id="_318675408">
   <path id="_318675360" class="fil1" d="M4.90187 2.56793l-0.00034252 -4.33071e-005 -0.00586614 -0.000688976 -0.00590551 -0.00065748 -0.00590157 -0.000614173 -0.00590945 -0.000586614 -0.00595669 -0.000547244 -0.0059252 -0.000503937 -0.00594094 -0.000468504 -0.00594488 -0.000433071 -0.0059685 -0.000401575 -0.00598819 -0.000358268 -0.00598819 -0.000326772 -0.006 -0.000283465 -0.00599213 -0.000248031 -0.0060315 -0.000212598 -0.00602362 -0.000165354 -0.00601575 -0.000137795 -0.00606299 -9.44882e-005 -0.00604331 -5.51181e-005 -0.00605906 -2.3622e-005 0 0.107693 0.00538189 1.5748e-005 0.00537008 4.72441e-005 0.00534646 9.05512e-005 0.00537008 0.00011811 0.00534252 0.000149606 0.00531496 0.000188976 0.00534252 0.000216535 0.00531496 0.000251969 0.00529528 0.000283465 0.00529528 0.000318898 0.00527953 0.000354331 0.00529528 0.000385827 0.00527559 0.00042126 0.00526772 0.000448819 0.00522441 0.000476378 0.00525197 0.000523622 0.00523228 0.000543307 0.00520866 0.000582677 0.00523228 0.000614173 0.000346457 3.93701e-005 0.012878 -0.106913zm1.07074 0.931079c0.0235551,0.653815 -0.530362,1.1846 -1.1846,1.1846 -0.47861,0 -0.890878,-0.283858 -1.07776,-0.692386 0.0486732,0.000641732 0.0973425,0.0011378 0.146012,0.00156693 0.0281339,0.000248031 0.0562677,0.000440945 0.0844016,0.000791339 0.00983071,0.000122047 0.0253976,-0.000681102 0.0350118,0.00101969l0.0181339 0.0039685 0.000913386 0.00144488 0.00304331 0.00479134 0.0015748 0.00242913 0.00859843 -0.00558661c0.130433,0.0281575 0.250969,-0.0432874 0.313307,-0.156811 0.020748,-0.0377874 0.0339646,-0.0797047 0.0392087,-0.122465 0.00523622,-0.0427047 0.00257874,-0.0865157 -0.00839764,-0.128142 -0.0345669,-0.131055 -0.134669,-0.212315 -0.267898,-0.228752l-0.00364173 -0.000448819c-0.0026811,-0.000326772 -0.00535433,-0.000559055 -0.00804724,-0.000708661 -0.034185,-0.00257087 -0.068248,-0.00602362 -0.102165,-0.0104961l0.000299213 -0.00173228 0.000933071 -0.00512205 0.000952756 -0.00507087 0.000992126 -0.00507874 0.00102756 -0.00509449 0.00104331 -0.00504724 0.00108661 -0.00504331 0.00111811 -0.00506299 0.0011378 -0.00501181 0.00116929 -0.00499606 0.00120866 -0.00500394 0.00123622 -0.00499606 0.00126772 -0.00499606 0.00129134 -0.0049685 0.00132283 -0.00493701 0.00135433 -0.00494094 0.00137795 -0.0049252 0.000755906 -0.00262992 -0.103583 -0.029437 -0.000755906 0.00262992 -0.00157087 0.0055748 -0.0015315 0.00559449 -0.0015 0.00562205 -0.00146063 0.00561024 -0.0014252 0.00561024 -0.00139764 0.0056378 -0.00135827 0.00564961 -0.00133465 0.00568898 -0.00129134 0.00569291 -0.00125197 0.00566929 -0.00122835 0.00571654 -0.00118898 0.00573228 -0.00115354 0.00570866 -0.00112205 0.00575197 -0.00108661 0.00578346 -0.00104331 0.00575197 -0.000543307 0.00309449c-0.0151024,-0.00303543 -0.0301614,-0.00629528 -0.0451811,-0.00980315 -0.0628425,-0.0146732 -0.124638,-0.0338071 -0.186709,-0.0513819l-0.0071378 -0.00201181c0.178075,-1.28421 2.2905,-1.35863 2.34759,0.225953zm-1.25296 -0.935461l-0.00375984 0.000271654 -0.00593701 0.000468504 -0.00592913 0.000503937 -0.00595276 0.000547244 -0.00590945 0.000586614 -0.00590551 0.000614173 -0.00590551 0.00065748 -0.0058622 0.000688976 -0.00587402 0.000724409 -0.00587402 0.000767717 -0.00585433 0.000799213 -0.00584252 0.000834646 -0.00583071 0.000874016 -0.00581496 0.000905512 -0.00580709 0.000948819 -0.00580315 0.000976378 -0.00576772 0.00101575 -0.00575197 0.00104331 -0.00578346 0.00109055 -0.00390551 0.000759843 0.0209567 0.105638 0.00322835 -0.000637795 0.00507087 -0.000952756 0.00512205 -0.000933071 0.00512205 -0.000897638 0.00512205 -0.000866142 0.0051378 -0.000834646 0.00514961 -0.00080315 0.00515354 -0.000771654 0.00516535 -0.00073622 0.00518504 -0.000712598 0.00517717 -0.000673228 0.00519685 -0.000641732 0.00523622 -0.000614173 0.00520472 -0.000582677 0.00523622 -0.000543307 0.00525197 -0.000523622 0.00522047 -0.000476378 0.00526772 -0.000448819 0.00527953 -0.00042126 0.00375984 -0.000271654 -0.00817323 -0.107374zm-0.223685 0.0439055l-0.00335039 0.00110236 -0.00545276 0.00182283 -0.00545276 0.00186614 -0.00544094 0.0018937 -0.00540551 0.00192913 -0.00537795 0.00194882 -0.00538189 0.00198425 -0.00538583 0.00202756 -0.00534646 0.00205512 -0.00533465 0.00208268 -0.00532283 0.00211811 -0.00530709 0.00215354 -0.00528346 0.00217717 -0.00526378 0.00220472 -0.00525984 0.00224409 -0.00523622 0.00227165 -0.0052126 0.00230315 -0.00521654 0.00233071 -0.00518504 0.00237008 -0.00516142 0.00238976 -0.00181102 0.000854331 0.0461732 0.0972874 0.00118504 -0.000562992 0.00457874 -0.00211811 0.00459055 -0.00209055 0.00459449 -0.00206299 0.00462992 -0.00203937 0.00463386 -0.00200787 0.0046378 -0.00198031 0.00467717 -0.00196063 0.00467717 -0.00193307 0.0046811 -0.0018937 0.00470472 -0.00187402 0.00472047 -0.00184252 0.00473228 -0.0018189 0.00472835 -0.00177953 0.00475984 -0.00175591 0.00479921 -0.00174016 0.00479528 -0.00170472 0.0047874 -0.00167717 0.00480315 -0.0016378 0.00483465 -0.00161811 0.00335433 -0.00110236 -0.0338898 -0.102217zm-0.206339 0.0968425l-0.00248819 0.00156299 -0.0047874 0.00304331 -0.00474016 0.00306693 -0.00472441 0.00308268 -0.0047126 0.00312598 -0.0046811 0.00314173 -0.00466142 0.00317323 -0.00465748 0.00320472 -0.00462992 0.00322835 -0.00459055 0.00324409 -0.00459449 0.00328346 -0.00458268 0.00332283 -0.00453937 0.00333465 -0.00451575 0.00335433 -0.00451181 0.0033937 -0.00447638 0.00341339 -0.00446457 0.00344488 -0.00443307 0.00346457 -0.00441339 0.00348819 -0.00440157 0.00352362 -0.00313386 0.00253937 0.0680394 0.0834724 0.00264173 -0.00214173 0.00388583 -0.00311417 0.00392126 -0.00309449 0.00393701 -0.0030748 0.00394488 -0.00304331 0.00397244 -0.00302756 0.00398031 -0.00299606 0.00401575 -0.00298425 0.00402756 -0.00296063 0.00402756 -0.00291732 0.00405512 -0.00290157 0.00409843 -0.0028937 0.00409055 -0.00285827 0.00411417 -0.00283071 0.0041378 -0.00281102 0.00415748 -0.0027874 0.00416142 -0.00275984 0.00419291 -0.00274016 0.00420472 -0.00271654 0.00420079 -0.00267717 0.00248819 -0.00156299 -0.0575551 -0.0910157zm-0.176756 0.143579l-3.93701e-006 3.93701e-006 -0.00387795 0.00404724 -0.00387795 0.00408661 -0.00385827 0.00411811 -0.00381102 0.00412205 -0.00378346 0.0041378 -0.00377953 0.0041811 -0.00376378 0.00421654 -0.00370472 0.00420079 -0.00369291 0.00423622 -0.00368504 0.00427953 -0.00364173 0.0042874 -0.00361811 0.00429921 -0.00360236 0.00433858 -0.00357087 0.00435433 -0.00354331 0.00437402 -0.00352362 0.00440157 -0.00348819 0.00441339 -0.00346457 0.00443307 -0.00344488 0.0044685 -0.00341339 0.00447244 -0.00112205 0.00149606 0.0862441 0.0644882 0.000728346 -0.000964567 0.00302756 -0.00397244 0.00303937 -0.00394488 0.00307874 -0.00393701 0.00309449 -0.00392126 0.00311417 -0.00388583 0.00314173 -0.00387795 0.00316142 -0.00385827 0.0031811 -0.00382677 0.0032126 -0.00382283 0.00323228 -0.00379921 0.00324016 -0.00376772 0.00328346 -0.00375984 0.00330709 -0.00375591 0.00330709 -0.00370079 0.00333465 -0.00369291 0.00337795 -0.00368898 0.0033937 -0.00366929 0.00338976 -0.00362205 0.00342126 -0.00361024 0.00346457 -0.0036063 3.93701e-006 -7.87402e-006 -0.0775079 -0.0747638zm-0.137315 0.182063l-0.00129921 0.00224409 -0.00280315 0.00491339 -0.00277953 0.00493701 -0.00275591 0.00496063 -0.00272835 0.00498031 -0.00269291 0.005 -0.00265748 0.00500394 -0.00264173 0.00503937 -0.00259843 0.00504331 -0.00256693 0.00505118 -0.00255906 0.00509843 -0.00251969 0.00511417 -0.00247244 0.00509449 -0.00246063 0.0051378 -0.00242913 0.00517323 -0.00238976 0.00515748 -0.00237008 0.00518898 -0.00233465 0.0052126 -0.00229921 0.0052126 -0.00227559 0.00523622 -0.00141732 0.00332283 0.099189 0.0419449 0.00115354 -0.00270472 0.00201181 -0.00463386 0.00203937 -0.00462992 0.00206299 -0.00459449 0.00209055 -0.00459055 0.00211811 -0.00457874 0.00214173 -0.00454331 0.00217323 -0.00454331 0.00220866 -0.00455118 0.00221654 -0.00450394 0.00224803 -0.00448031 0.0022874 -0.0045 0.00230709 -0.00447244 0.00233071 -0.00444094 0.0023622 -0.00444882 0.00237795 -0.00441339 0.00240945 -0.00439764 0.00242913 -0.00438189 0.00246457 -0.00437402 0.00249213 -0.0043622 0.00129921 -0.00224803 -0.0933622 -0.0536732zm0.0913425 1.06921l0.000874016 0.00105118 0.00361811 0.00430315 0.00364173 0.00428346 0.00368504 0.00428346 0.00369291 0.00423622 0.00370472 0.00420079 0.00376378 0.00421654 0.00377953 0.00417717 0.00378346 0.0041378 0.00381102 0.00412205 0.00385827 0.00412205 0.00387795 0.00408661 0.00387795 0.00404724 0.00391339 0.0040315 0.00395669 0.00402756 0.00396063 0.00398425 0.00398031 0.00395669 0.0040315 0.00396063 0.0040315 0.00390945 0.00404724 0.00388189 0.00408268 0.00387402 0.000413386 0.000389764 0.0733543 -0.0788425 8.66142e-005 7.87402e-005 -0.00361024 -0.00342126 -0.00361024 -0.0034685 -0.00358268 -0.00347244 -0.00353937 -0.00347638 -0.00353543 -0.00351969 -0.00352362 -0.00353937 -0.00347244 -0.00353543 -0.00347638 -0.00358661 -0.00346457 -0.00361024 -0.00342126 -0.0036063 -0.00338976 -0.00362205 -0.0033937 -0.00366929 -0.00337795 -0.00369291 -0.00333465 -0.00369291 -0.00330709 -0.00370079 -0.00330709 -0.00375591 -0.00328346 -0.00375984 -0.00324016 -0.00376378 -0.00323228 -0.00379921 -0.0032126 -0.00382283 -0.000874016 -0.00105512 -0.0826378 0.0690512zm0.166004 0.156256l0.00287402 0.00211417 0.00458268 0.00332283 0.00459449 0.00328346 0.00459055 0.00324016 0.00462992 0.00323228 0.00465748 0.00320472 0.00466142 0.00317323 0.0046811 0.00314173 0.0047126 0.00312598 0.00472441 0.00308268 0.00474016 0.00306693 0.0047874 0.00304331 0.00477953 0.00300394 0.00479921 0.00297638 0.0048189 0.00294488 0.0048622 0.00294094 0.00487008 0.00289764 0.00487008 0.00285433 0.00490551 0.00284252 0.00491339 0.00280315 0.00281496 0.00158661 0.052563 -0.0939882 -0.00225197 -0.00126772 -0.0043622 -0.00249213 -0.00433465 -0.00250787 -0.00433465 -0.00254724 -0.00430315 -0.00255906 -0.00427165 -0.00257874 -0.00427559 -0.00261811 -0.00426378 -0.00264567 -0.00424409 -0.00266142 -0.00420079 -0.00267717 -0.00420472 -0.00271654 -0.00419291 -0.00274409 -0.00416142 -0.00275591 -0.00415748 -0.0027874 -0.0041378 -0.00281496 -0.00411417 -0.00283071 -0.00409055 -0.00285827 -0.00409843 -0.0028937 -0.00405512 -0.00290157 -0.00402756 -0.00291732 -0.00287402 -0.00211024 -0.0634764 0.0869921zm0.198618 0.111677l0.00188583 0.000775591 0.00530709 0.00214961 0.00532283 0.00211811 0.00533465 0.00208268 0.00534646 0.00205512 0.00538583 0.00202756 0.00538189 0.00198819 0.00537795 0.00194882 0.00540551 0.00192913 0.00544094 0.0018937 0.00545276 0.00186614 0.00545276 0.00182283 0.00546457 0.00179528 0.00549606 0.00176772 0.00550787 0.00173228 0.00550787 0.00169291 0.00553543 0.00166535 0.00555118 0.00163386 0.00554724 0.00159055 0.0055748 0.00156693 0.00288189 0.000787402 0.0281339 -0.103949 -0.00222835 -0.000610236 -0.0049252 -0.00138189 -0.00493307 -0.00142126 -0.00490157 -0.00143307 -0.00488583 -0.00147638 -0.00488976 -0.00150394 -0.00485827 -0.00152362 -0.00484646 -0.00155906 -0.00484646 -0.00159055 -0.00483465 -0.00161811 -0.00480315 -0.00164173 -0.0047874 -0.00167323 -0.00479528 -0.00170472 -0.00479921 -0.00174016 -0.00475984 -0.00175591 -0.00472835 -0.00178346 -0.00473228 -0.00181496 -0.00472047 -0.00184646 -0.00470472 -0.00187008 -0.0046811 -0.00189764 -0.00188583 -0.000775591 -0.040748 0.0996811zm0.22011 0.0602835l0.00525591 0.000751969 0.00585433 0.000799213 0.00587402 0.000767717 0.00587402 0.000720472 0.0058622 0.000692913 0.00590551 0.00065748 0.00590551 0.000614173 0.00590945 0.000582677 0.00595276 0.000551181 0.00592913 0.000503937 0.00593701 0.000468504 0.00594488 0.000433071 0.00597244 0.000401575 0.00598425 0.000358268 0.00599213 0.000326772 0.00599606 0.000279528 0.00599606 0.000251969 0.00602756 0.000212598 0.00602756 0.000165354 0.00146457 3.54331e-005 0.00206693 -0.107669 -0.000822835 -1.9685e-005 -0.00534252 -0.000153543 -0.00531102 -0.000185039 -0.00534252 -0.000216535 -0.00531496 -0.000251969 -0.00529921 -0.000287402 -0.00529528 -0.000318898 -0.00527559 -0.000350394 -0.00529528 -0.000385827 -0.00527953 -0.00042126 -0.00526772 -0.000448819 -0.00522047 -0.000480315 -0.00525197 -0.000519685 -0.00523622 -0.000543307 -0.00520472 -0.000586614 -0.00523622 -0.000610236 -0.00519685 -0.000645669 -0.00517717 -0.000669291 -0.00518504 -0.000712598 -0.00525591 -0.000751969 -0.0149213 0.106654zm0.227697 0.00544882l0.0045315 -0.000444882 0.00590157 -0.000614173 0.00590551 -0.00065748 0.00586614 -0.000692913 0.00587402 -0.000720472 0.00587402 -0.000767717 0.00585039 -0.000799213 0.00584252 -0.000834646 0.00583071 -0.000874016 0.00581496 -0.000909449 0.00580709 -0.000944882 0.00580315 -0.000976378 0.00576772 -0.00101969 0.00575197 -0.00103937 0.00578346 -0.00109055 0.00575591 -0.00112205 0.00570866 -0.00114961 0.00573228 -0.00118898 0.0057126 -0.00122835 0.00351181 -0.000775591 -0.0235315 -0.105087 -0.00290551 0.000641732 -0.00503937 0.00108268 -0.00504724 0.00104724 -0.00509843 0.00102362 -0.00507874 0.000996063 -0.00506693 0.000952756 -0.00512205 0.000929134 -0.00512598 0.000897638 -0.00511811 0.000866142 -0.00514173 0.000834646 -0.00514567 0.00080315 -0.00515748 0.000771654 -0.00516535 0.000740157 -0.00518504 0.000712598 -0.00517323 0.000669291 -0.00520079 0.000645669 -0.00523228 0.000610236 -0.00520866 0.000586614 -0.00523228 0.000543307 -0.0045315 0.000444882 0.0108819 0.107138zm0.222512 -0.0494055l0.00331496 -0.0011811 0.00537795 -0.00194882 0.00538189 -0.00198819 0.00538583 -0.00202756 0.00534646 -0.00205512 0.00533465 -0.00208268 0.00532283 -0.00211811 0.00531102 -0.00214961 0.00528346 -0.00217717 0.00525984 -0.00220472 0.00525984 -0.00224409 0.00524016 -0.00227165 0.00520866 -0.00230315 0.00521654 -0.00233465 0.00518898 -0.00236614 0.00515748 -0.00238976 0.00516929 -0.00243307 0.00514173 -0.00246063 0.00509055 -0.00247244 0.00511811 -0.00251969 0.00199213 -0.001 -0.0485394 -0.0961299 -0.00137402 0.000692913 -0.00450394 0.00221654 -0.00455118 0.0022126 -0.00454331 0.00217323 -0.00454331 0.0021378 -0.00457874 0.00211811 -0.00459055 0.00209055 -0.00459449 0.00206299 -0.00462992 0.00203937 -0.0046378 0.00201181 -0.0046378 0.00198031 -0.00467323 0.00196063 -0.00467717 0.00192913 -0.00468504 0.00189764 -0.00470079 0.00187008 -0.00472441 0.00184646 -0.00473228 0.00181496 -0.00472441 0.00178346 -0.00476378 0.00175591 -0.00479921 0.00174016 -0.00331496 0.0011811 0.0364173 0.101343zm0.203874 -0.101878l0.00212992 -0.00141339 0.0046811 -0.00314173 0.00466535 -0.00317323 0.00465354 -0.00320472 0.00462992 -0.00323228 0.00459055 -0.00324016 0.00459449 -0.00328346 0.00458268 -0.00332283 0.00453937 -0.00333858 0.00451575 -0.00335433 0.00451181 -0.0033937 0.00447638 -0.00340945 0.0044685 -0.00344488 0.00443307 -0.0034685 0.00440945 -0.00348425 0.00440551 -0.00352756 0.00437008 -0.00353937 0.00435827 -0.0035748 0.00433465 -0.00360236 0.00430315 -0.00361417 0.00341339 -0.00290157 -0.0700118 -0.0818268 -0.00292913 0.00249606 -0.00382283 0.0032126 -0.00383071 0.00317717 -0.00385433 0.00316142 -0.00387795 0.00314567 -0.00388976 0.00311024 -0.00391732 0.00309843 -0.00394094 0.0030748 -0.00394094 0.00303937 -0.00397638 0.0030315 -0.00397638 0.00299606 -0.00401575 0.00298031 -0.0040315 0.00296063 -0.00402756 0.00291732 -0.00405118 0.00290157 -0.00409843 0.0028937 -0.00409055 0.00285827 -0.00411417 0.00283071 -0.0041378 0.00281496 -0.00415748 0.0027874 -0.00212992 0.00140945 0.0597559 0.0895945zm0.173378 -0.148051l0.00327165 -0.00357874 0.00377953 -0.00417717 0.00375984 -0.00421654 0.00370472 -0.00420079 0.00369685 -0.00423622 0.00368504 -0.00428346 0.00364173 -0.00428346 0.00361417 -0.00430315 0.00360236 -0.00433465 0.0035748 -0.00435827 0.00353937 -0.00437008 0.00352756 -0.00440551 0.00348425 -0.00440945 0.0034685 -0.00443307 0.00344488 -0.0044685 0.00340945 -0.00447638 0.0033937 -0.00451181 0.00335433 -0.00451575 0.00333465 -0.00453543 0.00332677 -0.00458661 0.00133071 -0.0018622 -0.0877795 -0.0623819 -0.000952756 0.00132283 -0.00291732 0.00402756 -0.00296063 0.0040315 -0.00298031 0.00401575 -0.00299606 0.00397638 -0.0030315 0.00397638 -0.00303937 0.00394094 -0.0030748 0.00394094 -0.00309843 0.00391732 -0.00311024 0.00388976 -0.00314567 0.00387795 -0.00316142 0.00385433 -0.00317717 0.00383071 -0.0032126 0.00382283 -0.00323622 0.00379921 -0.00324016 0.00376378 -0.00328346 0.00375984 -0.00330709 0.00375591 -0.00330709 0.00370079 -0.00333465 0.00369291 -0.00327165 0.00357874 0.0796732 0.0724528zm0.132638 -0.185154l0.00109843 -0.00200394 0.00269685 -0.005 0.00265748 -0.00500394 0.0026378 -0.00504331 0.00260236 -0.00504331 0.00256693 -0.00504724 0.00255512 -0.00509843 0.00251969 -0.00511811 0.00247244 -0.00509055 0.00246063 -0.0051378 0.00243307 -0.00517323 0.00238976 -0.00515748 0.00236614 -0.00518898 0.00233465 -0.00521654 0.00230315 -0.00520866 0.00227165 -0.00524016 0.00224016 -0.00525591 0.00220866 -0.00526378 0.00217717 -0.00528346 0.00214961 -0.00531102 0.00138976 -0.00347638 -0.100181 -0.0395039 -0.00114173 0.00285827 -0.00189764 0.00468504 -0.00192913 0.00467717 -0.00196063 0.00467323 -0.00198031 0.0046378 -0.00201181 0.0046378 -0.00203937 0.00462992 -0.00206299 0.00459449 -0.00209055 0.00459055 -0.00211811 0.00457874 -0.0021378 0.00454331 -0.00217323 0.00454331 -0.0022126 0.00455118 -0.00221654 0.00450394 -0.00224409 0.00448031 -0.00229134 0.0045 -0.00230709 0.0044685 -0.00232677 0.00444488 -0.00236614 0.00444882 -0.00237795 0.00441339 -0.00109449 0.002 0.0946299 0.0514055zm0.0840866 -0.211992l0.000724409 -0.00280315 0.00142913 -0.00561024 0.0013937 -0.00564173 0.00135827 -0.00564567 0.00133858 -0.00568898 0.00129134 -0.00569685 0.00125197 -0.00566535 0.00122835 -0.00571654 0.00118898 -0.00573228 0.00114961 -0.00570866 0.00112205 -0.00575591 0.00109055 -0.00578346 0.00103937 -0.00575197 0.00101969 -0.00576772 0.000976378 -0.00580315 0.000944882 -0.00580709 0.000909449 -0.00581496 0.000874016 -0.00583071 0.000834646 -0.00584252 0.000795276 -0.00581102 -0.10674 -0.014252 -0.000708661 0.00514173 -0.000740157 0.00516929 -0.000771654 0.00515354 -0.00080315 0.00514567 -0.000834646 0.00514173 -0.000866142 0.00511811 -0.000897638 0.00512598 -0.000929134 0.00512205 -0.000952756 0.00506693 -0.000996063 0.00508268 -0.00102362 0.00509449 -0.00104724 0.00504724 -0.00108268 0.00503937 -0.00111811 0.00506299 -0.00114173 0.00501575 -0.00116929 0.00499606 -0.00120866 0.00500394 -0.00123622 0.00499606 -0.00126772 0.00499606 -0.000724409 0.00280709 0.104299 0.0268031zm0.0301929 -0.226012l4.72441e-005 -0.00511811 2.3622e-005 -0.00605906 -2.3622e-005 -0.00605512 -5.90551e-005 -0.00604724 -9.44882e-005 -0.00606299 -0.000133858 -0.00601181 -0.000169291 -0.00602756 -0.000208661 -0.00602756 -0.000251969 -0.00599606 -0.000279528 -0.00599606 -0.000326772 -0.00599213 -0.000358268 -0.00598425 -0.000401575 -0.00597244 -0.000433071 -0.00594488 -0.000468504 -0.00593701 -0.000503937 -0.00592913 -0.000551181 -0.00595276 -0.000582677 -0.00590945 -0.00061811 -0.00590157 -0.000114173 -0.00103937 -0.106992 0.012252 4.33071e-005 0.000334646 0.000543307 0.00523622 0.000519685 0.00525197 0.000476378 0.00522047 0.000452756 0.00526772 0.00042126 0.00527953 0.000385827 0.00529528 0.000350394 0.00527559 0.000318898 0.00529528 0.000287402 0.00529921 0.000248031 0.00531496 0.000220472 0.00534252 0.000185039 0.00531496 0.000153543 0.00533858 0.00011811 0.00537008 8.66142e-005 0.00534646 4.72441e-005 0.00537008 1.5748e-005 0.00538189 -1.5748e-005 0.00538189 -4.33071e-005 0.00512205 0.107685 0.000673228zm-0.024752 -0.226378l-0.000535433 -0.00228346 -0.00135827 -0.00564961 -0.0013937 -0.0056378 -0.00142913 -0.00561024 -0.00145669 -0.00561024 -0.00150394 -0.00562205 -0.0015315 -0.00559449 -0.00156693 -0.0055748 -0.00159055 -0.00554331 -0.00163386 -0.00555512 -0.00166535 -0.00553543 -0.00169291 -0.00550787 -0.00173228 -0.00550787 -0.00176772 -0.00549606 -0.00179528 -0.00546457 -0.00182283 -0.00545276 -0.00186614 -0.00545276 -0.00189764 -0.00544094 -0.0019252 -0.00540551 -0.00194882 -0.00537795 -0.000779528 -0.00210236 -0.100906 0.0376181 0.000551181 0.00148031 0.00174016 0.00479921 0.00170472 0.00479528 0.00167323 0.0047874 0.00164173 0.00480315 0.00161811 0.00483858 0.00159055 0.00484252 0.00155906 0.00484646 0.00152362 0.00485827 0.00150394 0.0048937 0.00147244 0.00488189 0.00143701 0.00490157 0.00142126 0.00493307 0.00138189 0.0049252 0.00135433 0.00494094 0.0013189 0.00493701 0.00129134 0.0049685 0.00126772 0.00499606 0.00123622 0.00499606 0.00120866 0.00500394 0.000535433 0.0022874 0.104768 -0.0249094zm-0.0789055 -0.213961l-0.0015315 -0.0029685 -0.0026378 -0.00503937 -0.00265748 -0.00500394 -0.00269685 -0.005 -0.00272835 -0.00498031 -0.00275197 -0.00496063 -0.00278346 -0.00493701 -0.00280315 -0.00491339 -0.00284252 -0.00490551 -0.00285433 -0.00486614 -0.00289764 -0.00487402 -0.00294094 -0.0048622 -0.00294488 -0.0048189 -0.00297638 -0.00479921 -0.00300394 -0.00477953 -0.00304724 -0.0047874 -0.00306299 -0.00474016 -0.00308268 -0.00472441 -0.00312598 -0.0047126 -0.00314567 -0.0046811 -0.00184252 -0.00270866 -0.088878 0.0608031 0.00148819 0.00218898 0.0027874 0.00415748 0.00275591 0.00416142 0.00274409 0.00419291 0.0027126 0.00420472 0.0026811 0.00420079 0.00266142 0.00424803 0.00264567 0.00425984 0.00261811 0.00427559 0.00257874 0.00427165 0.00255906 0.00430315 0.00254724 0.00433465 0.00250787 0.00433465 0.00249213 0.0043622 0.00246457 0.00437402 0.00242913 0.00438189 0.00240551 0.00439764 0.00237795 0.00441339 0.00236614 0.00444882 0.00232677 0.00444094 0.0015315 0.0029685 0.0955551 -0.0496614zm-0.128146 -0.188307l-0.000598425 -0.000688976 -0.00370472 -0.00420079 -0.00375984 -0.00421654 -0.00377953 -0.0041811 -0.00378346 -0.0041378 -0.00381496 -0.00412205 -0.00385827 -0.00411811 -0.00387402 -0.00408661 -0.00388189 -0.00404724 -0.00390945 -0.0040315 -0.00396063 -0.0040315 -0.00395669 -0.00398031 -0.00398425 -0.00396063 -0.0040315 -0.00395669 -0.00402756 -0.00391339 -0.00404724 -0.00387795 -0.00408661 -0.00387795 -0.00412205 -0.00385827 -0.00412205 -0.00381102 -0.0041378 -0.00378346 -0.00417717 -0.00377953 -0.000771654 -0.000685039 -0.0714488 0.0805709 0.000251969 0.000228346 0.00369291 0.00333465 0.00369291 0.00337795 0.00366929 0.0033937 0.00362205 0.00338976 0.0036063 0.00342126 0.00361024 0.00346457 0.00358661 0.00347638 0.00353543 0.00347244 0.00353937 0.00352362 0.00351969 0.00353543 0.00347638 0.00353937 0.00347244 0.00358661 0.0034685 0.0036063 0.00342126 0.00361024 0.00338976 0.00362205 0.00338976 0.00366929 0.00337795 0.00368898 0.00333465 0.00369291 0.00330709 0.00370079 0.00330709 0.00375591 0.000602362 0.000688976 0.0809646 -0.0710039zm-0.169776 -0.152177l-0.00258661 -0.00180315 -0.00465354 -0.00320472 -0.00466535 -0.00317323 -0.0046811 -0.00314173 -0.00470866 -0.00312598 -0.00472835 -0.00308268 -0.00473622 -0.00306693 -0.00479134 -0.00304331 -0.00477559 -0.00300787 -0.00480315 -0.00297638 -0.00481496 -0.00294488 -0.0048622 -0.00293701 -0.00487402 -0.00289764 -0.00487008 -0.00285827 -0.00490551 -0.00284252 -0.00490945 -0.00279921 -0.00493701 -0.00278346 -0.00496063 -0.00275591 -0.00498031 -0.00272441 -0.005 -0.00269685 -0.00311417 -0.00165354 -0.0502559 0.0952441 0.00255512 0.00135827 0.00440945 0.00237795 0.00440157 0.00240945 0.00438189 0.00242913 0.00437008 0.00246457 0.00436614 0.00249213 0.00433071 0.00250787 0.00433858 0.00254724 0.00429921 0.00255512 0.00427165 0.00257874 0.00427953 0.00262205 0.00425984 0.00264173 0.00424409 0.00266535 0.00420079 0.00267717 0.00420866 0.00271654 0.00419291 0.00274016 0.00416142 0.00275984 0.00415748 0.0027874 0.0041378 0.00281102 0.00411417 0.00283071 0.00258661 0.00180709 0.0613465 -0.0885039zm-0.201319 -0.106776l-0.00181102 -0.00069685 -0.00538583 -0.00202756 -0.00538189 -0.00198425 -0.00537795 -0.00194882 -0.00540551 -0.00192913 -0.00544094 -0.0018937 -0.00545276 -0.00186614 -0.00544882 -0.00182283 -0.00546457 -0.00179921 -0.0055 -0.00176378 -0.00550787 -0.00173228 -0.00550394 -0.00169291 -0.00553937 -0.00166535 -0.00555118 -0.00163386 -0.00554331 -0.00159055 -0.00557874 -0.00157087 -0.00559055 -0.0015315 -0.00562205 -0.0015 -0.00561024 -0.00146063 -0.00561024 -0.0014252 -0.00272047 -0.000677165 -0.0255472 0.104618 0.0020748 0.000515748 0.00499606 0.00126772 0.0049685 0.00129134 0.00493701 0.00132283 0.00494094 0.00135433 0.0049252 0.00137795 0.00492913 0.0014252 0.00490157 0.00143307 0.00488583 0.00147638 0.0048937 0.0015 0.00485827 0.00152756 0.00484252 0.00155906 0.00484646 0.00159055 0.00483858 0.00161811 0.00479921 0.0016378 0.00479134 0.00167717 0.00479134 0.00170472 0.00479921 0.00174016 0.00476378 0.00175591 0.00472441 0.00177953 0.00180709 0.00069685 0.0382795 -0.100657zm-0.411531 1.20898l0 -0.294831c-0.0920315,-0.0264291 -0.159551,-0.0660787 -0.202563,-0.119421 -0.0427677,-0.0533425 -0.0643937,-0.11798 -0.0643937,-0.193909 0,-0.0768898 0.0242677,-0.141524 0.0728071,-0.193909 0.0487756,-0.0523819 0.113413,-0.0824173 0.19415,-0.0905866l0 -0.0696811 0.101882 0 0 0.0696811c0.0747244,0.00912992 0.134079,0.0343583 0.178287,0.0764094 0.0439764,0.0420472 0.0720866,0.0982756 0.0843386,0.168677l-0.178047 0.023311c-0.010815,-0.0555079 -0.0389252,-0.0929882 -0.0845787,-0.112697l0 0.27513c0.112693,0.0305157 0.189583,0.0701654 0.230189,0.118701 0.0408504,0.0485354 0.0612756,0.110768 0.0612756,0.186937 0,0.0848228 -0.0257126,0.156425 -0.0768937,0.214575 -0.0514213,0.0583898 -0.123024,0.0939528 -0.214571,0.107169l0 0.131673 -0.101882 0 0 -0.128311c-0.0812165,-0.00985039 -0.147295,-0.040126 -0.197996,-0.0908268 -0.0506969,-0.0504567 -0.0828976,-0.122063 -0.0970709,-0.214575l0.183815 -0.0197047c0.00744882,0.0374882 0.021626,0.0699252 0.0422913,0.0970787 0.0204213,0.0271535 0.0434882,0.0468543 0.0689606,0.0591102zm0 -0.739118c-0.027874,0.00937402 -0.0497402,0.0254724 -0.0663189,0.0478189 -0.0163386,0.0225866 -0.0245079,0.0475787 -0.0245079,0.0747283 0,0.024748 0.00744882,0.0480551 0.0223465,0.0692008 0.0151378,0.0213858 0.0379646,0.038689 0.0684803,0.0519016l0 -0.24365zm0.101882 0.748969c0.0353189,-0.00648819 0.0639134,-0.0228307 0.0860197,-0.0487756 0.0221063,-0.0261969 0.0331614,-0.0567087 0.0331614,-0.0920315 0,-0.0314803 -0.00937402,-0.0583898 -0.027878,-0.0812165 -0.0184961,-0.0228268 -0.0490157,-0.0403661 -0.0913031,-0.0523819l0 0.274406z"/>
   <path id="_318675576" class="fil1" d="M4.06732 3.47191c-0.000633858,-4.33071e-005 -0.00126772,-7.87402e-005 -0.0018937,-0.000125984 -0.0916614,-0.00671654 -0.181539,-0.0195669 -0.271047,-0.0404724 -0.0648071,-0.0151299 -0.127642,-0.0345276 -0.191567,-0.0526339 -0.149165,-0.0422362 -0.282248,-0.0724567 -0.437157,-0.090563l-0.00470472 -0.000551181 -0.156634 -0.00683071 0.0603465 -0.137039c0.00597244,-0.0274803 0.0177283,-0.0537323 0.032248,-0.0776693 0.0523228,-0.0862559 0.143378,-0.150646 0.244028,-0.164484 0.0385,-0.00529921 0.0775276,-0.00241732 0.114807,0.00861417 0.0714843,0.0211535 0.0999606,0.0479685 0.150587,0.096437 0.00550787,0.00277165 0.0123228,0.00209843 0.0172638,-0.00216142 0.118354,-0.211382 0.262815,-0.454543 0.469354,-0.53485 0.00372047,-0.00542126 0.00248819,-0.0134134 0.00030315,-0.0191339 -0.00309843,-0.00812598 -0.00627559,-0.0155354 -0.00947638,-0.0235512 -0.0123071,-0.0279291 -0.0278465,-0.0551732 -0.0476299,-0.0784961 -0.0214606,-0.0252992 -0.0402717,-0.0383701 -0.0699921,-0.051815 -0.31637,-0.132921 -0.61485,-0.20874 -0.951028,-0.105264 -0.0998819,0.0307441 -0.196476,0.0728543 -0.291906,0.115157 -0.165602,0.0734173 -0.322547,0.138717 -0.499988,0.180272 -0.188638,0.0441772 -0.380224,0.0577362 -0.572343,0.0494291 0.00661811,0.0404567 0.00722441,0.0829291 0.00127165,0.129244l-0.112693 0.87687c-0.00367323,0.0285827 -0.0105,0.0561299 -0.0200669,0.0824646l1.39717 0.249362c0.0016063,8.26772e-005 0.00347244,0 0.00481102,-5.11811e-005 0.069685,-0.00267717 0.141512,-0.00102756 0.211276,-0.000240157 0.107063,0.00121654 0.21413,0.00314173 0.321181,0.00514961 0.0440157,0.000826772 0.0880315,0.00167717 0.132043,0.00253543 0.0904331,0.00176378 0.180866,0.00280315 0.271315,0.00359055 0.0282638,0.000248031 0.0565276,0.000440945 0.0847874,0.000791339 0.0176535,0.000216535 0.0394173,-0.000271654 0.0564843,0.00345669l0.031748 0.00694488c0.0842205,0.0038189 0.155047,-0.0275787 0.196618,-0.103295 0.0141575,-0.0257795 0.0231378,-0.0545748 0.0267165,-0.0837402 0.00357087,-0.0291181 0.00185039,-0.0591811 -0.0056378,-0.0875669 -0.023185,-0.087878 -0.0869055,-0.138303 -0.176953,-0.149339l-0.00364567 -0.000444882z"/>
   <path id="_318675816" class="fil2" d="M1.47902 3.53009c-0.014811,0.0885551 -0.0678661,0.160094 -0.133425,0.207205 -0.0671142,0.0482165 -0.152378,0.0722677 -0.221079,0.0611102l-5.90551e-005 0.000440945 -0.0446378 -0.00714173c-0.0750748,-0.0121575 -0.137693,-0.0615512 -0.178185,-0.131732 -0.0380669,-0.0659921 -0.056126,-0.150354 -0.0451024,-0.237665l3.14961e-005 7.87402e-006 0.110406 -0.893102 2.75591e-005 -0.000488189c0.00726378,-0.0575748 0.0262638,-0.11022 0.0534331,-0.15435 0.029315,-0.0476142 0.067748,-0.0850787 0.111201,-0.108323 0.0215118,-0.0115039 0.0451063,-0.0197165 0.0703228,-0.0241496 0.0244567,-0.00429921 0.0488819,-0.00475591 0.072685,-0.000917323l0.0446496 0.00713386c0.073315,0.011878 0.154551,0.0815984 0.21013,0.167236 0.0530906,0.0817953 0.073626,0.148339 0.0622953,0.237862l-0.112693 0.876874z"/>
  </g>
 </g>
</svg>
