<?xml version="1.0" encoding="UTF-8"?>
<!DOCTYPE svg PUBLIC "-//W3C//DTD SVG 1.1//EN" "http://www.w3.org/Graphics/SVG/1.1/DTD/svg11.dtd">
<!-- Creator: CorelDRAW -->
<svg xmlns="http://www.w3.org/2000/svg" xml:space="preserve" width="6.82666in" height="6.82666in" style="shape-rendering:geometricPrecision; text-rendering:geometricPrecision; image-rendering:optimizeQuality; fill-rule:evenodd; clip-rule:evenodd"
viewBox="0 0 6.82666 6.82666"
 xmlns:xlink="http://www.w3.org/1999/xlink">
 <defs>
  <style type="text/css">
   <![CDATA[
    .fil0 {fill:#C0CA33}
    .fil1 {fill:#FFFFFE}
   ]]>
  </style>
 </defs>
 <g id="Layer_x0020_1">
  <metadata id="CorelCorpID_0Corel-Layer"/>
  <rect class="fil0" width="6.82666" height="6.82666" rx="0.853335" ry="0.853335"/>
  <path class="fil1" d="M4.21425 1.2654l-0.00374803 0.0233937c-0.0259134,0.161772 -0.129028,0.296335 -0.261094,0.388618 -0.152681,0.106693 -0.340795,0.156693 -0.525906,0.156693 -0.185213,0 -0.373504,-0.0499409 -0.526276,-0.156693 -0.132094,-0.0922992 -0.235075,-0.226913 -0.260752,-0.38874l-0.00368898 -0.0232717 -0.375854 0c-0.184587,0 -0.365165,0.0309213 -0.536705,0.0999409 -0.171228,0.0688898 -0.322496,0.171268 -0.454709,0.299669 -0.131795,0.127996 -0.237744,0.276091 -0.309043,0.445783 -0.0715118,0.170197 -0.103146,0.350228 -0.103146,0.534441l0 0.574673 0.971713 0 0 -0.624571 0.186528 0 3.93701e-006 2.96592 2.80524 0 0 -2.96592 0.184811 0 0 0.600803 0.971713 0 0 -0.550906c0,-0.183429 -0.0307283,-0.36311 -0.100177,-0.533291 -0.0689055,-0.168874 -0.171102,-0.31765 -0.299941,-0.446488l-0.000433071 -0.000429134c-0.128831,-0.128835 -0.277189,-0.23102 -0.446122,-0.299819 -0.170768,-0.0695394 -0.350917,-0.0998071 -0.534878,-0.0998071l-0.377531 0zm0.072 1.40241l-0.591185 0 0 0.535827c0.112193,0.0340591 0.219283,0.0538543 0.319882,0.0555394 0.0961457,0.00161417 0.186957,-0.0132283 0.271303,-0.0479449l0 -0.543421zm-0.605961 -0.0825827l0.62074 0 0.0677717 0 0 0.0677756 0 0.556772 0 0.0410984 -0.037063 0.019c-0.10022,0.0513819 -0.20852,0.0731969 -0.323268,0.0712677 -0.111713,-0.00187008 -0.228783,-0.0261496 -0.349894,-0.0672953l-0.046063 -0.0156496 0 -0.0484213 0 -0.556772 0 -0.0677756 0.0677756 0z"/>
 </g>
</svg>
