<?xml version="1.0" encoding="UTF-8"?>
<!DOCTYPE svg PUBLIC "-//W3C//DTD SVG 1.1//EN" "http://www.w3.org/Graphics/SVG/1.1/DTD/svg11.dtd">
<!-- Creator: CorelDRAW -->
<svg xmlns="http://www.w3.org/2000/svg" xml:space="preserve" width="6.82666in" height="6.82666in" style="shape-rendering:geometricPrecision; text-rendering:geometricPrecision; image-rendering:optimizeQuality; fill-rule:evenodd; clip-rule:evenodd"
viewBox="0 0 6.82666 6.82666"
 xmlns:xlink="http://www.w3.org/1999/xlink">
 <defs>
  <style type="text/css">
   <![CDATA[
    .fil0 {fill:#FF5722}
    .fil1 {fill:#FFFFFE}
    .fil2 {fill:#FFFFFE;fill-rule:nonzero}
   ]]>
  </style>
 </defs>
 <g id="Layer_x0020_1">
  <metadata id="CorelCorpID_0Corel-Layer"/>
  <rect class="fil0" width="6.82666" height="6.82666" rx="0.853335" ry="0.853335"/>
  <g id="_470064336">
   <g>
    <path id="_470064432" class="fil1" d="M1.2945 1.79296l0.236035 -0.168571 0.00157874 0.00198819 0.208224 -0.151823 0.11563 -0.0825787c0.0679016,0.075378 0.13115,0.157276 0.186638,0.243917 -0.0662165,0.0790827 -0.0734921,0.195744 -0.0107638,0.283583 0.0744449,0.10424 0.219291,0.12839 0.323531,0.0539449 0.10424,-0.0744449 0.128394,-0.219291 0.0539488,-0.323531 -0.0281772,-0.0394528 -0.0664528,-0.0674252 -0.10878,-0.0829291 -0.067626,-0.115575 -0.147705,-0.224657 -0.235299,-0.324441l0.46365 -0.331126c0.158134,-0.112933 0.396984,-0.0428543 0.540244,0.148551l2.5265 3.37556c0.0954961,0.127587 0.0821929,0.297547 -0.023189,0.372811l-1.5794 1.12796c-0.105382,0.0752638 -0.270429,0.032748 -0.360161,-0.0990315l-2.37316 -3.48506c-0.134606,-0.197673 -0.123358,-0.446287 0.0347756,-0.55922zm1.06464 1.06369l0.830449 -0.593087 1.40184 1.96289 -0.830453 0.593087 -1.40183 -1.96289z"/>
    <path id="_470065080" class="fil2" d="M1.58784 1.58197l0.0945 -0.0662126c-0.202516,-0.254157 -0.311173,-0.440972 -0.320823,-0.524087 -0.00188976,-0.016248 0.00124409,-0.0240157 0.0078937,-0.0245472 0.0318701,-0.00255512 0.0843307,0.0159961 0.1495,0.0520748 0.225484,0.124835 0.555591,0.442409 0.71778,0.83265 0.0120945,0.0289843 0.0453976,0.042689 0.0743858,0.0305984 0.0289843,-0.0120906 0.042685,-0.0453976 0.0305945,-0.0743819 -0.17274,-0.415638 -0.525949,-0.754772 -0.76752,-0.888512 -0.0842795,-0.0466575 -0.159157,-0.0700866 -0.213945,-0.0656929 -0.0800157,0.00640945 -0.122921,0.0545197 -0.111693,0.151205 0.011811,0.101764 0.122268,0.304492 0.339327,0.576906z"/>
   </g>
   <circle id="_470063952" class="fil1" transform="matrix(0.968149 -0.691424 0.691424 0.968149 2.25545 1.7956)" r="0.100232"/>
  </g>
 </g>
</svg>
