<?xml version="1.0" encoding="UTF-8"?>
<!DOCTYPE svg PUBLIC "-//W3C//DTD SVG 1.1//EN" "http://www.w3.org/Graphics/SVG/1.1/DTD/svg11.dtd">
<!-- Creator: CorelDRAW -->
<svg xmlns="http://www.w3.org/2000/svg" xml:space="preserve" width="6.82666in" height="6.82666in" style="shape-rendering:geometricPrecision; text-rendering:geometricPrecision; image-rendering:optimizeQuality; fill-rule:evenodd; clip-rule:evenodd"
viewBox="0 0 6.82666 6.82666"
 xmlns:xlink="http://www.w3.org/1999/xlink">
 <defs>
  <style type="text/css">
   <![CDATA[
    .fil0 {fill:#AB47BC}
    .fil1 {fill:#FFFFFE}
    .fil2 {fill:#FFFFFE;fill-rule:nonzero}
   ]]>
  </style>
 </defs>
 <g id="Layer_x0020_1">
  <metadata id="CorelCorpID_0Corel-Layer"/>
  <rect class="fil0" width="6.82666" height="6.82666" rx="0.853335" ry="0.853335"/>
  <path class="fil1" d="M1.21824 1.04666l4.39017 0c0.100461,0 0.19172,0.0410236 0.257807,0.10711 0.0660866,0.0660866 0.10711,0.157343 0.10711,0.257803l0 2.27257c0,0.100457 -0.0410236,0.191717 -0.10711,0.257803 -0.0660945,0.0660866 -0.157346,0.10711 -0.257807,0.10711l-1.76699 0 0 -0.24474c0,-0.189602 -0.0753937,-0.369992 -0.209366,-0.503965 -0.133972,-0.133972 -0.314362,-0.209366 -0.503965,-0.209366l-0.280008 0c-0.189602,0 -0.369992,0.0753937 -0.503965,0.209366 -0.133972,0.133972 -0.209366,0.314362 -0.209366,0.503965l0 0.24474 -0.916516 0c-0.100461,0 -0.191713,-0.0410236 -0.257807,-0.10711 -0.0660866,-0.0660866 -0.10711,-0.157346 -0.10711,-0.257803l0 -2.27257c0,-0.100461 0.0410236,-0.191717 0.10711,-0.257803 0.0660866,-0.0660866 0.157346,-0.10711 0.257807,-0.10711zm3.35411 2.3242l0.367709 0 0 0.213339 -0.367709 0 0 -0.213339zm0.518744 0l0.367709 0 0 0.213339 -0.367709 0 0 -0.213339zm-3.97512 -1.56967l4.5947 0 0.0998858 0 0 0.0794803 0 0.326835 0 0.0794803 -0.0998858 0 -4.5947 0 -0.0998858 0 0 -0.0794803 0 -0.326835 0 -0.0794803 0.0998858 0z"/>
  <path class="fil2" d="M2.84809 3.19765l0.280008 0c0.166941,0 0.318638,0.0682205 0.428539,0.178126 0.109906,0.109902 0.178126,0.261598 0.178126,0.428539l0 0.462346 0 0.106669 -0.106669 0 -1.28 0 -0.106669 0 0 -0.106669 0 -0.462346c0,-0.166941 0.0682205,-0.318638 0.178126,-0.428539 0.109902,-0.109906 0.261598,-0.178126 0.428539,-0.178126zm0.280008 0.213339l-0.280008 0c-0.108051,0 -0.20637,0.0442835 -0.277705,0.115622 -0.0713386,0.0713346 -0.115622,0.169654 -0.115622,0.277705l0 0.355677 1.06666 0 0 -0.355677c0,-0.108051 -0.0442835,-0.20637 -0.115622,-0.277705 -0.0713346,-0.0713386 -0.169654,-0.115622 -0.277705,-0.115622z"/>
  <path class="fil1" d="M2.19907 4.15999l1.57804 0c0.0617953,0 0.117906,0.0252087 0.158508,0.065811 0.0406024,0.0406024 0.0658071,0.0967087 0.0658071,0.158504l0 1.36471c0,0.0617953 -0.0252047,0.117906 -0.0658071,0.158508 -0.0406024,0.0406024 -0.0967126,0.0658071 -0.158508,0.0658071l-1.57804 0c-0.0617953,0 -0.117906,-0.0252047 -0.158508,-0.0658071 -0.0406024,-0.0406024 -0.0658071,-0.0967126 -0.0658071,-0.158508l0 -1.36471c0,-0.0617953 0.0252047,-0.117902 0.0658071,-0.158504 0.0406024,-0.0406024 0.0967126,-0.065811 0.158508,-0.065811zm0.78902 0.675382c0.0535236,0 0.101996,0.0217047 0.137083,0.0567874 0.0350827,0.0350866 0.0567874,0.0835591 0.0567874,0.137083 0,0.0535315 -0.0217047,0.102004 -0.0567874,0.137083 -0.0189094,0.0189055 -0.0417047,0.0339213 -0.0670827,0.0437559l0 0.273827c0,0.0386575 -0.0313425,0.07 -0.07,0.07 -0.0386575,0 -0.07,-0.0313425 -0.07,-0.07l0 -0.273823c-0.0253819,-0.00983071 -0.0481772,-0.0248543 -0.0670827,-0.0437598 -0.0350827,-0.0350787 -0.0567874,-0.0835512 -0.0567874,-0.137083 0,-0.0535236 0.0217047,-0.101996 0.0567874,-0.137083 0.0350787,-0.0350827 0.0835512,-0.0567874 0.137083,-0.0567874z"/>
 </g>
</svg>
