<?xml version="1.0" encoding="UTF-8"?>
<!DOCTYPE svg PUBLIC "-//W3C//DTD SVG 1.1//EN" "http://www.w3.org/Graphics/SVG/1.1/DTD/svg11.dtd">
<!-- Creator: CorelDRAW -->
<svg xmlns="http://www.w3.org/2000/svg" xml:space="preserve" width="6.82666in" height="6.82666in" style="shape-rendering:geometricPrecision; text-rendering:geometricPrecision; image-rendering:optimizeQuality; fill-rule:evenodd; clip-rule:evenodd"
viewBox="0 0 6.82666 6.82666"
 xmlns:xlink="http://www.w3.org/1999/xlink">
 <defs>
  <style type="text/css">
   <![CDATA[
    .fil0 {fill:#3F51B5}
    .fil1 {fill:#FFFFFE}
   ]]>
  </style>
 </defs>
 <g id="Layer_x0020_1">
  <metadata id="CorelCorpID_0Corel-Layer"/>
  <rect class="fil0" width="6.82666" height="6.82666" rx="0.853335" ry="0.853335"/>
  <path class="fil1" d="M0.853335 1.49333l5.12 0 0 3.92607 -5.12 0 0 -3.92607zm0.918665 0.488913l0 2.71909 -0.213339 0 0 -2.71909 0.213339 0zm3.08088 0l0 2.33065 -0.16 0 0 -2.33065 0.16 0zm0.415118 0l0 2.71909 -0.213339 0 0 -2.71909 0.213339 0zm-0.77689 0l0 2.71909 -0.213339 0 0 -2.71909 0.213339 0zm-0.415114 0l0 2.33065 -0.16 0 0 -2.33065 0.16 0zm-0.361772 0l0 2.71909 -0.213339 0 0 -2.71909 0.213339 0zm-0.415118 0l0 2.33065 -0.16 0 0 -2.33065 0.16 0zm-0.388441 0l0 2.33065 -0.16 0 0 -2.33065 0.16 0zm-0.388445 0l0 2.33065 -0.16 0 0 -2.33065 0.16 0zm-0.388445 0l0 2.33065 -0.16 0 0 -2.33065 0.16 0zm-0.530252 -0.257827l0 0.0991063 -0.198205 0 0 -0.0991063 0.198205 0zm-0.221535 0.000850394c-0.0789449,0.00552362 -0.15228,0.0407638 -0.207287,0.097374l0.0712913 0.0688425c0.0383189,-0.0393543 0.0886339,-0.0635551 0.143575,-0.0674016l-0.00757874 -0.098815zm-0.271854 0.194472c-0.0172283,0.0403701 -0.0254882,0.0817165 -0.0257244,0.125579l0 0.0890394 0.0991063 0 0 -0.0890394c7.87402e-005,-0.0302677 0.00594882,-0.0589961 0.0178268,-0.0868346l-0.0912087 -0.0387441zm-0.0257244 0.313717l0.0991063 0 0 0.198205 -0.0991063 0 0 -0.198205zm0 0.297307l0.0991063 0 0 0.198205 -0.0991063 0 0 -0.198205zm0 0.297307l0.0991063 0 0 0.198205 -0.0991063 0 0 -0.198205zm0 0.297307l0.0991063 0 0 0.198205 -0.0991063 0 0 -0.198205zm0 0.297307l0.0991063 0 0 0.198205 -0.0991063 0 0 -0.198205zm0 0.297307l0.0991063 0 0 0.198205 -0.0991063 0 0 -0.198205zm0 0.297307l0.0991063 0 0 0.198205 -0.0991063 0 0 -0.198205zm0 0.297303l0.0991063 0 0 0.198205 -0.0991063 0 0 -0.198205zm0 0.297307l0.0991063 0 0 0.198205 -0.0991063 0 0 -0.198205zm0.00384646 0.304992c0.0122323,0.0783622 0.0530118,0.148287 0.114079,0.198661l0.0626654 -0.0767756c-0.0421969,-0.034437 -0.0704961,-0.0837874 -0.0788976,-0.137583l-0.0978465 0.0156969zm0.216004 0.255024c0.0330669,0.0110197 0.0662323,0.0162047 0.101059,0.0163898l0.111283 0 0 -0.0991063 -0.111283 0c-0.023937,-6.29921e-005 -0.0470669,-0.00374803 -0.0697874,-0.0113189l-0.0312717 0.0940354zm0.311445 0.0163898l0 -0.0991063 0.198205 0 0 0.0991063 -0.198205 0zm0.297307 0l0 -0.0991063 0.198205 0 0 0.0991063 -0.198205 0zm0.297307 0l0 -0.0991063 0.198205 0 0 0.0991063 -0.198205 0zm0.297307 0l0 -0.0991063 0.198205 0 0 0.0991063 -0.198205 0zm0.297307 0l0 -0.0991063 0.198205 0 0 0.0991063 -0.198205 0zm0.297307 0l0 -0.0991063 0.198201 0 0 0.0991063 -0.198201 0zm0.297303 0l0 -0.0991063 0.198205 0 0 0.0991063 -0.198205 0zm0.297307 0l0 -0.0991063 0.198205 0 0 0.0991063 -0.198205 0zm0.297307 0l0 -0.0991063 0.198205 0 0 0.0991063 -0.198205 0zm0.297307 0l0 -0.0991063 0.198205 0 0 0.0991063 -0.198205 0zm0.297307 0l0 -0.0991063 0.198205 0 0 0.0991063 -0.198205 0zm0.297307 0l0 -0.0991063 0.198205 0 0 0.0991063 -0.198205 0zm0.297307 0l0 -0.0991063 0.198201 0 0 0.0991063 -0.198201 0zm0.30772 -0.00768504c0.0767323,-0.0170512 0.145323,-0.0628465 0.191051,-0.126709l-0.0807047 -0.0575079c-0.0310748,0.0439291 -0.0796654,0.075874 -0.132118,0.0875315l0.0217717 0.096685zm0.24074 -0.232197l0.000267717 -0.00102756 0.000484252 -0.00190157 0.000476378 -0.00190945 0.000464567 -0.00190945 0.000464567 -0.00196457 0.000448819 -0.00197244 0.000429134 -0.00192913 0.000417323 -0.00193307 0.000401575 -0.00191732 0.000413386 -0.0020315 0.000377953 -0.00194094 0.000374016 -0.00193701 0.000370079 -0.00204724 0.00034252 -0.00194488 0.000330709 -0.00194882 0.000326772 -0.00199606 0.000314961 -0.00200394 0.000295276 -0.00196457 0.000291339 -0.00201181 0.000275591 -0.00200394 0.000259843 -0.0019685 0.000251969 -0.00201575 0.000244094 -0.00202362 0.000220472 -0.00202756 0.000216535 -0.00202362 0.000192913 -0.00197638 0.000192913 -0.00203543 0.000173228 -0.0020315 0.000165354 -0.00203543 0.000145669 -0.00203937 0.000137795 -0.00203543 0.000122047 -0.00204331 0.000110236 -0.00199606 0.000102362 -0.00209843 8.26772e-005 -0.00204724 7.08661e-005 -0.002 6.29921e-005 -0.00210236 4.33071e-005 -0.00205512 3.14961e-005 -0.00205118 1.9685e-005 -0.00205906 1.1811e-005 -0.00205906 0 -0.128811 -0.0991063 0 0 0.128811 -3.93701e-006 0.00143701 -1.1811e-005 0.00142913 -2.3622e-005 0.00142913 -3.14961e-005 0.00142913 -3.93701e-005 0.00137008 -5.51181e-005 0.00147244 -5.51181e-005 0.00141732 -6.69291e-005 0.0013622 -7.87402e-005 0.00145669 -8.26772e-005 0.00140157 -9.84252e-005 0.00140157 -0.000102362 0.00140157 -0.000110236 0.0013937 -0.00011811 0.0013937 -0.000133858 0.00138976 -0.000141732 0.00142913 -0.000141732 0.00138583 -0.00015748 0.00137795 -0.000161417 0.00137008 -0.000173228 0.00137008 -0.000185039 0.00140945 -0.000185039 0.00137008 -0.00019685 0.0013622 -0.000208661 0.00139764 -0.000212598 0.00135039 -0.000224409 0.00135433 -0.00023622 0.0013937 -0.000248031 0.00138976 -0.000232283 0.00128346 -0.00026378 0.00138189 -0.000267717 0.00137402 -0.000259843 0.00127559 -0.000291339 0.00138189 -0.000291339 0.00136614 -0.000307087 0.00135433 -0.000295276 0.00130709 -0.000311024 0.00130709 -0.000322835 0.00135039 -0.000338583 0.00134646 -0.000338583 0.00134646 -0.000267717 0.00102756 0.0959528 0.0247717zm0.0104252 -0.308933l-0.0991063 0 0 -0.198201 0.0991063 0 0 0.198201zm0 -0.297303l-0.0991063 0 0 -0.198205 0.0991063 0 0 0.198205zm0 -0.297307l-0.0991063 0 0 -0.198205 0.0991063 0 0 0.198205zm0 -0.297307l-0.0991063 0 0 -0.198205 0.0991063 0 0 0.198205zm0 -0.297307l-0.0991063 0 0 -0.198205 0.0991063 0 0 0.198205zm0 -0.297307l-0.0991063 0 0 -0.198205 0.0991063 0 0 0.198205zm0 -0.297307l-0.0991063 0 0 -0.198205 0.0991063 0 0 0.198205zm0 -0.297307l-0.0991063 0 0 -0.198201 0.0991063 0 0 0.198201zm0 -0.297303l-0.0991063 0 0 -0.198205 0.0991063 0 0 0.198205zm-0.0144803 -0.310862c-0.0236693,-0.0757441 -0.0739921,-0.138839 -0.141677,-0.179992l-0.0511378 0.0848898c0.0468071,0.0283504 0.0818858,0.0723661 0.0982323,0.124673l0.0945827 -0.0295709zm-0.251071 -0.220957l-0.000704724 -0.000122047 -0.00194882 -0.000334646 -0.00199606 -0.000322835 -0.00200394 -0.000314961 -0.0019685 -0.000295276 -0.00200787 -0.000295276 -0.00200394 -0.000271654 -0.0019685 -0.000259843 -0.00201575 -0.000251969 -0.00202362 -0.000244094 -0.00202756 -0.000220472 -0.00202362 -0.000216535 -0.00197638 -0.00019685 -0.00203543 -0.000188976 -0.0020315 -0.000173228 -0.00203543 -0.000165354 -0.00203937 -0.000145669 -0.00203543 -0.000141732 -0.00204724 -0.00011811 -0.00199213 -0.000110236 -0.00209843 -0.000102362 -0.00204724 -8.66142e-005 -0.002 -6.69291e-005 -0.00210236 -6.29921e-005 -0.00205512 -4.33071e-005 -0.00205118 -3.54331e-005 -0.00205906 -1.5748e-005 -0.00206299 -1.1811e-005 -0.151055 0 0 0.0991063 0.151055 0 0.00144094 3.93701e-006 0.00142913 1.1811e-005 0.00142913 2.3622e-005 0.00142913 3.14961e-005 0.00137008 3.93701e-005 0.0014685 5.51181e-005 0.00142126 5.51181e-005 0.0013622 6.29921e-005 0.00145669 8.26772e-005 0.00140157 8.26772e-005 0.00140157 9.44882e-005 0.00140157 0.000102362 0.0013937 0.000114173 0.0013937 0.00011811 0.00138976 0.000129921 0.00142913 0.000145669 0.00138583 0.000141732 0.00137795 0.00015748 0.00137008 0.000161417 0.00136614 0.000169291 0.00141339 0.000188976 0.00137008 0.000185039 0.0013622 0.00019685 0.00139764 0.000208661 0.00135039 0.000212598 0.00135433 0.000224409 0.0013937 0.00023622 0.000704724 0.000122047 0.0168976 -0.0976496zm-0.30552 -0.00481496l0 0.0991063 -0.198205 0 0 -0.0991063 0.198205 0zm-0.297307 0l0 0.0991063 -0.198205 0 0 -0.0991063 0.198205 0zm-0.297307 0l0 0.0991063 -0.198205 0 0 -0.0991063 0.198205 0zm-0.297307 0l0 0.0991063 -0.198205 0 0 -0.0991063 0.198205 0zm-0.297307 0l0 0.0991063 -0.198205 0 0 -0.0991063 0.198205 0zm-0.297307 0l0 0.0991063 -0.198201 0 0 -0.0991063 0.198201 0zm-0.297303 0l0 0.0991063 -0.198205 0 0 -0.0991063 0.198205 0zm-0.297307 0l0 0.0991063 -0.198205 0 0 -0.0991063 0.198205 0zm-0.297307 0l0 0.0991063 -0.198201 0 0 -0.0991063 0.198201 0zm-0.297303 0l0 0.0991063 -0.198205 0 0 -0.0991063 0.198205 0zm-0.297307 0l0 0.0991063 -0.198205 0 0 -0.0991063 0.198205 0zm-0.297307 0l0 0.0991063 -0.198205 0 0 -0.0991063 0.198205 0z"/>
 </g>
</svg>
