<?xml version="1.0" encoding="UTF-8"?>
<!DOCTYPE svg PUBLIC "-//W3C//DTD SVG 1.1//EN" "http://www.w3.org/Graphics/SVG/1.1/DTD/svg11.dtd">
<!-- Creator: CorelDRAW -->
<svg xmlns="http://www.w3.org/2000/svg" xml:space="preserve" width="6.82666in" height="6.82666in" style="shape-rendering:geometricPrecision; text-rendering:geometricPrecision; image-rendering:optimizeQuality; fill-rule:evenodd; clip-rule:evenodd"
viewBox="0 0 6.82666 6.82666"
 xmlns:xlink="http://www.w3.org/1999/xlink">
 <defs>
  <style type="text/css">
   <![CDATA[
    .fil0 {fill:#009688}
    .fil1 {fill:#FFFFFE}
    .fil2 {fill:#FFFFFE;fill-rule:nonzero}
   ]]>
  </style>
 </defs>
 <g id="Layer_x0020_1">
  <metadata id="CorelCorpID_0Corel-Layer"/>
  <rect class="fil0" width="6.82666" height="6.82666" rx="0.853335" ry="0.853335"/>
  <g id="_323552104">
   <path id="_323552656" class="fil1" d="M0.908831 3.95837l4.73894 0 0.108945 0 0 0.0888386c0.0726575,0.063315 0.0468976,0.151642 0.0127165,0.247996 0.00587795,0.0111024 0.0092126,0.0237638 0.0092126,0.0372047 0,0.0206929 -0.00789764,0.0395394 -0.0208307,0.0537008 0.00348031,0.00895276 0.0053937,0.0186811 0.0053937,0.0288622 0,0.0320787 -0.0189606,0.0597205 -0.0462913,0.0723386 -0.00388976,0.0511693 0.00529528,0.101567 0.0397992,0.148882l0 0.0888386 -0.108945 0 -4.73894 0 -0.108945 0 0 -0.0888386 0 -0.588984 0 -0.0888386 0.108945 0zm1.4707 0.0701693l0 0.626323 -0.108941 0 0 -0.626323 0.108941 0z"/>
   <path id="_323553064" class="fil2" d="M5.69703 3.71397c0.0596969,0.00634646 0.11324,-0.0369055 0.119583,-0.0965984 0.00634646,-0.0596969 -0.0369016,-0.11324 -0.0965984,-0.119583 -0.629185,-0.0683976 -0.721976,-0.329374 -0.81822,-0.600063 -0.124803,-0.351031 -0.254346,-0.715354 -1.14215,-0.826894 -0.0596969,-0.0072874 -0.114,0.0352047 -0.121283,0.0948976 -0.0072874,0.0596969 0.0352008,0.114 0.0948976,0.121283 0.75424,0.0947638 0.860776,0.394374 0.963417,0.683055 0.119598,0.336386 0.234906,0.660693 1.00035,0.743902z"/>
   <path id="_323552584" class="fil2" d="M5.79969 3.41485c0.0596929,0.00634646 0.113236,-0.0369055 0.119583,-0.0965984 0.00634252,-0.0596969 -0.0369055,-0.11324 -0.0966024,-0.119587 -0.326685,-0.0355118 -0.33587,-0.187295 -0.345382,-0.344693 -0.0157165,-0.26002 -0.0320354,-0.529862 -0.615535,-0.603169 -0.0596969,-0.00728346 -0.114,0.0352047 -0.121283,0.0948976 -0.0072874,0.0596969 0.0352047,0.114 0.0948976,0.121287 0.40378,0.0507283 0.414535,0.228476 0.424886,0.399752 0.0151654,0.250827 0.0297953,0.492705 0.539437,0.54811z"/>
  </g>
 </g>
</svg>
