<?xml version="1.0" encoding="UTF-8"?>
<!DOCTYPE svg PUBLIC "-//W3C//DTD SVG 1.1//EN" "http://www.w3.org/Graphics/SVG/1.1/DTD/svg11.dtd">
<!-- Creator: CorelDRAW -->
<svg xmlns="http://www.w3.org/2000/svg" xml:space="preserve" width="6.82666in" height="6.82666in" style="shape-rendering:geometricPrecision; text-rendering:geometricPrecision; image-rendering:optimizeQuality; fill-rule:evenodd; clip-rule:evenodd"
viewBox="0 0 6.82666 6.82666"
 xmlns:xlink="http://www.w3.org/1999/xlink">
 <defs>
  <style type="text/css">
   <![CDATA[
    .fil0 {fill:#66BB6A}
    .fil1 {fill:#FFFFFE;fill-rule:nonzero}
   ]]>
  </style>
 </defs>
 <g id="Layer_x0020_1">
  <metadata id="CorelCorpID_0Corel-Layer"/>
  <rect class="fil0" width="6.82666" height="6.82666" rx="0.853335" ry="0.853335"/>
  <path class="fil1" d="M1.45906 4.05389l1.00301 0 -0.501508 0.868634 -0.501504 -0.868634zm1.18687 0.000165354c0.106984,0.00299606 0.20389,0.0478937 0.27474,0.118748 0.0733701,0.0733661 0.118913,0.174669 0.118913,0.286173l0 1.32499 0 0.106669 -0.106669 0 -1.92 0 -0.106669 0 0 -0.106669 0 -1.32499c0,-0.111504 0.0455433,-0.212807 0.118913,-0.286173 0.0655354,-0.0655394 0.153354,-0.10887 0.250839,-0.117374l0.615508 1.06609 0.069063 0.119618 0.069063 -0.119618 0.616303 -1.06747z"/>
  <path class="fil1" d="M1.97292 2.52449c0.206169,0 0.392839,0.0835787 0.527965,0.218705 0.135126,0.135118 0.218705,0.321791 0.218705,0.527965 0,0.206173 -0.0835787,0.392846 -0.218705,0.527965 -0.135126,0.135126 -0.321795,0.218705 -0.527965,0.218705 -0.206173,0 -0.392846,-0.0835787 -0.527965,-0.218705 -0.135126,-0.135118 -0.218705,-0.321791 -0.218705,-0.527965 0,-0.206173 0.0835787,-0.392846 0.218705,-0.527965 0.135118,-0.135126 0.321791,-0.218705 0.527965,-0.218705z"/>
  <g id="_477821472">
   <path id="_477821400" class="fil1" d="M5.8909 0.923657c0.0366063,0 0.0662874,0.0296811 0.0662874,0.0662874 0,0.0366102 -0.0296811,0.0662874 -0.0662874,0.0662874l-0.434701 0 -0.114831 0.185173 -0.327815 1.88051 -0.065248 -0.0111339 0.0652992 0.0113819c-0.00566142,0.0324961 -0.0341024,0.0553071 -0.0660551,0.0549055l-1.90254 0c-0.0366063,0 -0.0662874,-0.0296811 -0.0662874,-0.0662874 0,-0.0366102 0.0296811,-0.0662874 0.0662874,-0.0662874l1.84765 0 0.0453543 -0.260169 -1.87491 0c-0.0515984,0 -0.096126,-0.0205866 -0.12937,-0.0538346 -0.0330079,-0.0330039 -0.0542717,-0.0788937 -0.0591299,-0.128972l-0.098189 -1.01133c-0.000665354,-0.0068622 -0.000992126,-0.0121811 -0.000992126,-0.0159724 0,-0.0480787 0.0207165,-0.0912047 0.0532835,-0.123209 0.0308346,-0.0302992 0.0729685,-0.0505866 0.118008,-0.0549528 0.0075,-0.000724409 0.0136102,-0.00110236 0.0182047,-0.00110236l2.21529 0 0.0322165 -0.184807c0.00109055,-0.00938976 0.00420472,-0.0186929 0.00951969,-0.0272559l0.000212598 0.000129921 0.13822 -0.222894c0.0109173,-0.0216299 0.0333307,-0.0364685 0.0592126,-0.0364685l0.471299 0zm-2.56623 0.537583l0 0.406555 -0.452567 0 0.013315 0.0990433 0.439252 0 0 0.28028 -0.418272 0 0.0129055 0.0990433 0.405366 0 0 0.371878 0.0900315 0 0 -0.371878 0.55389 0 0 0.371878 0.0900315 0 0 -0.371878 0.55389 0 0 0.371878 0.0900276 0 0 -0.371878 0.345819 0 0.0203976 -0.0990433 -0.366217 0 0 -0.28028 0.379469 0 0.0210433 -0.0990433 -0.400512 0 0 -0.406555 -0.0900276 0 0 0.406555 -0.55389 0 0 -0.406555 -0.0900315 0 0 0.406555 -0.55389 0 0 -0.406555 -0.0900315 0zm0.0900315 0.785878l0 -0.28028 0.55389 0 0 0.28028 -0.55389 0zm1.19781 0l-0.55389 0 0 -0.28028 0.55389 0 0 0.28028z"/>
   <g>
    <path id="_477821736" class="fil1" d="M4.67338 3.22628c-0.0664843,0 -0.126681,0.0269528 -0.170256,0.0705315 -0.0435748,0.0435748 -0.0705276,0.103772 -0.0705276,0.170256 0,0.0664803 0.0269528,0.126681 0.0705276,0.170256 0.0435748,0.0435709 0.103772,0.0705276 0.170256,0.0705276 0.0664803,0 0.126681,-0.0269567 0.170256,-0.0705276 0.0435748,-0.0435748 0.0705315,-0.103776 0.0705315,-0.170256 0,-0.0664843 -0.0269567,-0.126681 -0.0705315,-0.170256 -0.0435709,-0.0435787 -0.103772,-0.0705315 -0.170256,-0.0705315z"/>
    <path id="_477821256" class="fil1" d="M3.42541 3.22628c-0.0664803,0 -0.126681,0.0269528 -0.170256,0.0705315 -0.0435748,0.0435748 -0.0705276,0.103772 -0.0705276,0.170256 0,0.0664803 0.0269528,0.126681 0.0705315,0.170256 0.0435709,0.0435709 0.103772,0.0705276 0.170252,0.0705276 0.0664803,0 0.126681,-0.0269567 0.170256,-0.0705276 0.0435748,-0.0435748 0.0705315,-0.103776 0.0705315,-0.170256 0,-0.0664843 -0.0269567,-0.126681 -0.0705315,-0.170256 -0.0435709,-0.0435787 -0.103772,-0.0705315 -0.170256,-0.0705315z"/>
   </g>
  </g>
 </g>
</svg>
