<?xml version="1.0" encoding="UTF-8"?>
<!DOCTYPE svg PUBLIC "-//W3C//DTD SVG 1.1//EN" "http://www.w3.org/Graphics/SVG/1.1/DTD/svg11.dtd">
<!-- Creator: CorelDRAW -->
<svg xmlns="http://www.w3.org/2000/svg" xml:space="preserve" width="6.82666in" height="6.82666in" style="shape-rendering:geometricPrecision; text-rendering:geometricPrecision; image-rendering:optimizeQuality; fill-rule:evenodd; clip-rule:evenodd"
viewBox="0 0 6.82666 6.82666"
 xmlns:xlink="http://www.w3.org/1999/xlink">
 <defs>
  <style type="text/css">
   <![CDATA[
    .fil0 {fill:#C0CA33}
    .fil1 {fill:#FFFFFE}
    .fil2 {fill:#FFFFFE;fill-rule:nonzero}
   ]]>
  </style>
 </defs>
 <g id="Layer_x0020_1">
  <metadata id="CorelCorpID_0Corel-Layer"/>
  <rect class="fil0" width="6.82666" height="6.82666" rx="0.853335" ry="0.853335"/>
  <path class="fil1" d="M1.53043 1.98126l4.19858 0c0.0588504,0 0.112291,0.0240118 0.150969,0.062685 0.0386732,0.0386693 0.062685,0.0921102 0.062685,0.150965l0 2.07144c0,0.0588504 -0.0240118,0.112291 -0.062685,0.150969 -0.0386772,0.0386732 -0.0921181,0.062685 -0.150969,0.062685l-0.114429 0 0 -1.76086c0,-0.0851024 -0.0337795,-0.166248 -0.0939291,-0.226394 -0.0601496,-0.0601417 -0.141291,-0.0939213 -0.22639,-0.0939213l-3.97749 0 0 -0.203913c0,-0.0588543 0.0240118,-0.112295 0.062685,-0.150965 0.0386772,-0.0386732 0.0921102,-0.062685 0.150972,-0.062685z"/>
  <path class="fil1" d="M1.09569 2.50548l4.19858 0c0.0588504,0 0.112291,0.0240118 0.150969,0.062685 0.0386732,0.0386693 0.062685,0.0921102 0.062685,0.150965l0 2.07144c0,0.0588504 -0.0240118,0.112291 -0.062685,0.150969 -0.0386772,0.0386732 -0.0921181,0.062685 -0.150969,0.062685l-4.19858 0c-0.0588543,0 -0.112295,-0.0240118 -0.150972,-0.062685 -0.0386732,-0.0386772 -0.062685,-0.0921181 -0.062685,-0.150969l0 -2.07144c0,-0.0588543 0.0240118,-0.112295 0.062685,-0.150965 0.0386772,-0.0386732 0.0921102,-0.062685 0.150972,-0.062685zm2.09929 0.214768c0.285685,0 0.544339,0.115807 0.731567,0.303035 0.187228,0.187232 0.303035,0.445882 0.303035,0.731567 0,0.285685 -0.115807,0.544335 -0.303035,0.731567 -0.187228,0.187228 -0.445882,0.303035 -0.731567,0.303035 -0.285685,0 -0.544335,-0.115807 -0.731567,-0.303035 -0.187228,-0.187232 -0.303035,-0.445882 -0.303035,-0.731567 0,-0.285685 0.115807,-0.544335 0.303035,-0.731567 0.187232,-0.187228 0.445882,-0.303035 0.731567,-0.303035zm2.14453 -0.0911339l-0.4745 0c-0.00283858,0.00900394 -0.00540157,0.0181535 -0.00766535,0.0274291 -0.0078189,0.0320079 -0.0119764,0.0665669 -0.0119764,0.10328 0,0.119295 0.0483425,0.227287 0.126508,0.305449 0.0781457,0.0781496 0.18615,0.1265 0.305445,0.1265 0.0312874,0 0.0601102,-0.00277953 0.086315,-0.00805906l0.00358661 -0.000740157 0 -0.52615c0,-0.00748425 -0.00315748,-0.0143937 -0.00823622,-0.0194724 -0.00507874,-0.00507874 -0.0119882,-0.00823622 -0.0194764,-0.00823622zm0 2.27442l-0.4745 0c-0.00283858,-0.00900787 -0.00540157,-0.0181575 -0.00766929,-0.0274331 -0.0078189,-0.0320079 -0.0119724,-0.066563 -0.0119724,-0.10328 0,-0.119291 0.0483425,-0.227283 0.126508,-0.305449 0.0781457,-0.0781457 0.18615,-0.1265 0.305445,-0.1265 0.0312874,0 0.0601102,0.00277953 0.086315,0.00806299l0.00358661 0.000740157 0 0.52615c0,0.00748425 -0.00316142,0.0143898 -0.00823622,0.0194685 -0.00507874,0.00508268 -0.0119882,0.00824016 -0.0194764,0.00824016zm-4.28906 0l0.4745 0c0.00283858,-0.00900787 0.00540157,-0.0181575 0.00766929,-0.0274331 0.0078189,-0.0320079 0.0119724,-0.066563 0.0119724,-0.10328 0,-0.119291 -0.0483425,-0.227283 -0.126508,-0.305449 -0.0781457,-0.0781457 -0.18615,-0.1265 -0.305441,-0.1265 -0.0312913,0 -0.0601142,0.00277953 -0.0863189,0.00806299l-0.00358661 0.000740157 0 0.52615c0,0.00748425 0.00316142,0.0143898 0.00823622,0.0194685 0.00507874,0.00508268 0.0119882,0.00824016 0.0194764,0.00824016zm0 -2.27442l0.4745 0c0.00283858,0.00900394 0.00540157,0.0181535 0.00766929,0.0274291 0.0078189,0.0320079 0.0119724,0.0665669 0.0119724,0.10328 0,0.119295 -0.0483425,0.227287 -0.126508,0.305449 -0.0781457,0.0781496 -0.18615,0.1265 -0.305441,0.1265 -0.0312913,0 -0.0601142,-0.00277953 -0.0863189,-0.00805906l-0.00358661 -0.000740157 0 -0.52615c0,-0.00748425 0.00316142,-0.0143937 0.00823622,-0.0194724 0.00507874,-0.00507874 0.0119882,-0.00823622 0.0194764,-0.00823622z"/>
  <path class="fil2" d="M3.18691 4.38449l0 -0.125028c-0.0626378,-0.00783071 -0.113402,-0.0218268 -0.152547,-0.0419921 -0.0391457,-0.0201654 -0.0730748,-0.0529016 -0.101543,-0.0977402 -0.0284685,-0.0450787 -0.0450748,-0.099878 -0.0495827,-0.164646l0.125736 -0.0237244c0.00972835,0.0671378 0.026811,0.116484 0.0514843,0.148035 0.0351102,0.0446024 0.0773386,0.0692756 0.126453,0.0742559l0 -0.398091c-0.0514843,-0.00972441 -0.103913,-0.0296535 -0.157768,-0.0597835 -0.0398583,-0.0222992 -0.0704606,-0.0531417 -0.0920512,-0.0925236 -0.0215866,-0.0393819 -0.0322638,-0.0839843 -0.0322638,-0.134043 0,-0.0889646 0.0315551,-0.161087 0.0944213,-0.216126 0.0422283,-0.037248 0.104862,-0.0597835 0.187661,-0.0680906l0 -0.0597835 0.0737795 0 0 0.0597835c0.0725945,0.00688189 0.130484,0.0282362 0.172949,0.0638189 0.0548031,0.045315 0.0875433,0.107709 0.0986929,0.186949l-0.129295 0.0194528c-0.00735827,-0.0491102 -0.0227756,-0.0868307 -0.0462638,-0.112929 -0.023248,-0.0260945 -0.0552795,-0.0434134 -0.0960827,-0.0517126l0 0.360602c0.0628701,0.0158976 0.104622,0.0282323 0.125028,0.0370118 0.0389055,0.0170787 0.0706969,0.0379567 0.0951339,0.0623937 0.0246732,0.0246732 0.0436496,0.0538543 0.0566969,0.0875433 0.0132874,0.0339252 0.0199291,0.0704606 0.0199291,0.109843 0,0.0868307 -0.0277559,0.158949 -0.0827953,0.216839 -0.0550394,0.058126 -0.126453,0.0889646 -0.213992,0.0932362l0 0.126449 -0.0737795 0zm0 -1.09534c-0.0486378,0.00735039 -0.0870709,0.0268071 -0.115067,0.0583622 -0.0279921,0.0315512 -0.0419921,0.0687992 -0.0419921,0.111976 0,0.0424685 0.0118622,0.0782874 0.0358268,0.106996 0.0239606,0.0287047 0.0642913,0.0517205 0.121232,0.0687992l0 -0.346134zm0.0737795 0.864504c0.0486339,-0.00592913 0.0887283,-0.0270394 0.12052,-0.0631024 0.0317874,-0.036063 0.047685,-0.0809016 0.047685,-0.13428 0,-0.045315 -0.0113898,-0.0818504 -0.033689,-0.10937 -0.0225354,-0.0275197 -0.067374,-0.0521929 -0.134516,-0.0740197l0 0.380772z"/>
 </g>
</svg>
