<?xml version="1.0" encoding="UTF-8"?>
<!DOCTYPE svg PUBLIC "-//W3C//DTD SVG 1.1//EN" "http://www.w3.org/Graphics/SVG/1.1/DTD/svg11.dtd">
<!-- Creator: CorelDRAW -->
<svg xmlns="http://www.w3.org/2000/svg" xml:space="preserve" width="6.82666in" height="6.82666in" style="shape-rendering:geometricPrecision; text-rendering:geometricPrecision; image-rendering:optimizeQuality; fill-rule:evenodd; clip-rule:evenodd"
viewBox="0 0 6.82666 6.82666"
 xmlns:xlink="http://www.w3.org/1999/xlink">
 <defs>
  <style type="text/css">
   <![CDATA[
    .fil0 {fill:#EF5350}
    .fil1 {fill:#FFFFFE;fill-rule:nonzero}
   ]]>
  </style>
 </defs>
 <g id="Layer_x0020_1">
  <metadata id="CorelCorpID_0Corel-Layer"/>
  <rect class="fil0" width="6.82666" height="6.82666" rx="0.853335" ry="0.853335"/>
  <path class="fil1" d="M4.00811 0.832768c0.055689,0 0.110303,0.00463386 0.163472,0.0135157 0.0581142,0.165772 0.096815,0.338307 0.11828,0.515248l-0.563508 0c0.0214646,-0.176941 0.0601654,-0.349476 0.11828,-0.515248 0.0531693,-0.00888583 0.107783,-0.0135157 0.163476,-0.0135157zm0.27037 0.0375945c0.163213,0.0465118 0.30913,0.134071 0.42587,0.250807 0.0703819,0.0703819 0.130146,0.151378 0.176713,0.240362l-0.498827 0c-0.00770079,-0.0675197 -0.017811,-0.134657 -0.0305157,-0.201252 -0.018878,-0.0989449 -0.043311,-0.195732 -0.0732402,-0.289917zm0.65298 0.604362c0.0333858,0.0899016 0.0539961,0.185996 0.0596732,0.286094l-0.590047 0c0.00146457,-0.0956181 -0.00110236,-0.191138 -0.00818898,-0.286094l0.538563 0zm0.0596732 0.399287c-0.00567323,0.100098 -0.0262992,0.196193 -0.0596732,0.286094l-0.558256 0c0.0115039,-0.0950197 0.0197913,-0.190484 0.024315,-0.286094l0.593614 0zm-0.110071 0.399287c-0.046563,0.0889882 -0.106331,0.16998 -0.176713,0.240362 -0.12148,0.12148 -0.274567,0.21135 -0.445854,0.25626 0.0404961,-0.162626 0.0746969,-0.328728 0.0994843,-0.496622l0.523083 0zm-0.723413 0.517476c-0.0487598,0.00743701 -0.0987008,0.0112874 -0.149539,0.0112874 -0.0508425,0 -0.100783,-0.00385827 -0.149547,-0.0112874 -0.0437638,-0.168949 -0.081,-0.342185 -0.107756,-0.517476l0.514602 0c-0.0267559,0.175291 -0.0639961,0.348535 -0.10776,0.517476zm-0.399929 -0.0208543c-0.171287,-0.0449055 -0.324374,-0.13478 -0.445854,-0.25626 -0.0703819,-0.0703819 -0.130146,-0.151374 -0.176713,-0.240362l0.523083 0c0.0247835,0.167894 0.0589843,0.334 0.0994843,0.496622zm-0.672965 -0.609815c-0.0333819,-0.0899016 -0.0539961,-0.185996 -0.0596732,-0.286094l0.593614 0c0.00452362,0.0956102 0.012811,0.191075 0.024315,0.286094l-0.558256 0zm-0.0596732 -0.399287c0.00567717,-0.100094 0.0262992,-0.196193 0.0596732,-0.286094l0.538567 0c-0.00709055,0.0949567 -0.00965748,0.190476 -0.00819291,0.286094l-0.590047 0zm0.110071 -0.399287c0.0465669,-0.0889843 0.106331,-0.16998 0.176713,-0.240362 0.11674,-0.116736 0.262657,-0.204295 0.42587,-0.250807 -0.0299252,0.094185 -0.0543661,0.190965 -0.0732402,0.289913 -0.0127047,0.0665945 -0.022815,0.133736 -0.0305157,0.201256l-0.498827 0zm1.16606 0.113193l-0.586209 0c-0.00751575,0.0942598 -0.0103701,0.189602 -0.00887008,0.285681l7.87402e-006 0.000413386 0.603933 0 7.87402e-006 -0.000413386c0.0015,-0.0960787 -0.00135433,-0.191421 -0.00887008,-0.285681zm-0.566154 0.685382c-0.0119173,-0.0950236 -0.0205197,-0.190504 -0.0252205,-0.286094l0.596539 0c-0.00470079,0.0955906 -0.0133031,0.191071 -0.0252205,0.286094l-0.546098 0z"/>
  <g id="_477836352">
   <path id="_477837288" class="fil1" d="M1.55794 2.60559c-0.0445512,0 -0.0806693,0.0361181 -0.0806693,0.0806693 0,0.0445512 0.0361181,0.0806732 0.0806693,0.0806732l0.52902 0 0.139748 0.22535 0.398941 2.28854 0.0794094 -0.0135512 -0.0794724 0.0138543c0.0068937,0.0395472 0.0415039,0.0673031 0.0803898,0.066815l2.31533 0c0.0445512,0 0.0806732,-0.0361181 0.0806732,-0.0806693 0,-0.0445512 -0.036122,-0.0806693 -0.0806732,-0.0806693l-2.24855 0 -0.0551929 -0.316622 2.28171 0c0.0627913,0 0.116984,-0.0250512 0.157445,-0.0655118 0.0401654,-0.0401654 0.0660433,-0.0960118 0.0719567,-0.156961l0.119492 -1.23076c0.000811024,-0.00835433 0.00120866,-0.0148228 0.00120866,-0.019437 0,-0.0585118 -0.0252087,-0.110996 -0.0648465,-0.149945 -0.0375197,-0.036874 -0.0888031,-0.061563 -0.14361,-0.066878 -0.00912992,-0.00088189 -0.016563,-0.00133858 -0.0221575,-0.00133858l-2.69595 0 -0.0392087 -0.224909c-0.00132283,-0.0114213 -0.00511811,-0.022748 -0.0115827,-0.0331693l-0.000255906 0.000161417 -0.168217 -0.271256c-0.0132835,-0.0263228 -0.0405591,-0.0443819 -0.0720591,-0.0443819l-0.573559 0zm3.12304 0.654224l0 0.494768 0.550768 0 -0.0162047 0.120535 -0.534563 0 0 0.341094 0.509028 0 -0.0157047 0.120531 -0.493323 0 0 0.452563 -0.109563 0 0 -0.452563 -0.674071 0 0 0.452563 -0.109563 0 0 -0.452563 -0.674071 0 0 0.452563 -0.109563 0 0 -0.452563 -0.42085 0 -0.0248228 -0.120531 0.445673 0 0 -0.341094 -0.461803 0 -0.0256102 -0.120535 0.487413 0 0 -0.494768 0.109563 0 0 0.494768 0.674071 0 0 -0.494768 0.109563 0 0 0.494768 0.674071 0 0 -0.494768 0.109563 0zm-0.109563 0.956398l0 -0.341094 -0.674071 0 0 0.341094 0.674071 0zm-1.4577 0l0.674071 0 0 -0.341094 -0.674071 0 0 0.341094z"/>
   <g>
    <path id="_477837240" class="fil1" d="M3.03963 5.40783c0.0809055,0 0.154165,0.0328031 0.207197,0.0858346 0.0530276,0.0530276 0.0858307,0.126287 0.0858307,0.207197 0,0.0809055 -0.0328031,0.154165 -0.0858346,0.207197 -0.0530236,0.0530236 -0.126287,0.0858307 -0.207193,0.0858307 -0.0809094,0 -0.154165,-0.0328071 -0.207197,-0.0858307 -0.0530315,-0.0530315 -0.0858346,-0.126291 -0.0858346,-0.207197 0,-0.0809094 0.0328031,-0.154169 0.0858346,-0.207197 0.0530236,-0.0530315 0.126287,-0.0858346 0.207197,-0.0858346z"/>
    <path id="_477836808" class="fil1" d="M4.55839 5.40783c0.0809055,0 0.154165,0.0328031 0.207197,0.0858346 0.0530276,0.0530276 0.0858307,0.126287 0.0858307,0.207197 0,0.0809055 -0.0328031,0.154165 -0.0858346,0.207197 -0.0530236,0.0530236 -0.126287,0.0858307 -0.207193,0.0858307 -0.0809094,0 -0.154169,-0.0328071 -0.207197,-0.0858307 -0.0530315,-0.0530315 -0.0858346,-0.126291 -0.0858346,-0.207197 0,-0.0809094 0.0328031,-0.154169 0.0858346,-0.207197 0.0530236,-0.0530315 0.126287,-0.0858346 0.207197,-0.0858346z"/>
   </g>
  </g>
 </g>
</svg>
