<?xml version="1.0" encoding="UTF-8"?>
<!DOCTYPE svg PUBLIC "-//W3C//DTD SVG 1.1//EN" "http://www.w3.org/Graphics/SVG/1.1/DTD/svg11.dtd">
<!-- Creator: CorelDRAW -->
<svg xmlns="http://www.w3.org/2000/svg" xml:space="preserve" width="6.82666in" height="6.82666in" style="shape-rendering:geometricPrecision; text-rendering:geometricPrecision; image-rendering:optimizeQuality; fill-rule:evenodd; clip-rule:evenodd"
viewBox="0 0 6.82666 6.82666"
 xmlns:xlink="http://www.w3.org/1999/xlink">
 <defs>
  <style type="text/css">
   <![CDATA[
    .fil0 {fill:#8BC34A}
    .fil2 {fill:#FFFFFE}
    .fil1 {fill:#FFFFFE;fill-rule:nonzero}
   ]]>
  </style>
 </defs>
 <g id="Layer_x0020_1">
  <metadata id="CorelCorpID_0Corel-Layer"/>
  <rect class="fil0" width="6.82666" height="6.82666" rx="0.853335" ry="0.853335"/>
  <path class="fil1" d="M2.92363 3.31952l0 0.213339 -0.213335 0 0 -0.213339 0.213335 0zm2.98668 0l0 0.213339 -0.213335 0 0 -0.213339 0.213335 0zm-0.426669 0l0 0.213339 -0.213335 0 0 -0.213339 0.213335 0zm-0.426669 0l0 0.213339 -0.213335 0 0 -0.213339 0.213335 0zm-0.426669 0l0 0.213339 -0.213331 0 0 -0.213339 0.213331 0zm-0.426665 0l0 0.213339 -0.213335 0 0 -0.213339 0.213335 0zm-0.426669 0l0 0.213339 -0.213335 0 0 -0.213339 0.213335 0zm-0.426669 0l0 0.213339 -0.213335 0 0 -0.213339 0.213335 0z"/>
  <path class="fil2" d="M1.23345 3.81785l0.557197 -0.389539 -0.557197 -0.389524c-0.183862,-0.0669449 -0.307067,-0.242059 -0.307067,-0.438642 0,-0.257791 0.209028,-0.466819 0.466823,-0.466819 0.25778,0 0.466795,0.209043 0.466795,0.466819 0,0.0831181 -0.0219055,0.163921 -0.0635669,0.235185l0.37061 0.329811 1.43704 -1.00461c0.056378,-0.0394094 0.14437,-0.030622 0.205366,-0.00716142l0.0600315 0.0230945 -1.40672 1.25185 1.4067 1.25185 -0.0600118 0.0231024c-0.0609921,0.0234764 -0.148988,0.0322598 -0.20537,-0.00715354l-1.43703 -1.00465 -0.37061 0.329843c0.0416654,0.071252 0.063563,0.152083 0.063563,0.235181 0,0.257776 -0.209016,0.466819 -0.466795,0.466819 -0.257795,0 -0.466823,-0.209028 -0.466823,-0.466819 0,-0.196594 0.123189,-0.371689 0.307067,-0.438642zm0.955579 -0.474787c0.0470827,0 0.0852559,0.0381732 0.0852559,0.0852559 0,0.0470827 -0.0381732,0.0852559 -0.0852559,0.0852559 -0.0470866,0 -0.0852559,-0.0381732 -0.0852559,-0.0852559 0,-0.0470827 0.0381693,-0.0852559 0.0852559,-0.0852559zm-0.990484 -0.758114c0,0.113811 0.0922205,0.20602 0.206024,0.20602 0.113795,0 0.20602,-0.0922244 0.20602,-0.20602 0,-0.113783 -0.0922362,-0.206024 -0.20602,-0.206024 -0.113776,0 -0.206024,0.0922402 -0.206024,0.206024zm0 1.65517c0,0.113803 0.0922205,0.206016 0.206024,0.206016 0.113791,0 0.20602,-0.0922205 0.20602,-0.206016 0,-0.113787 -0.0922402,-0.205996 -0.20602,-0.205996 -0.113776,0 -0.206024,0.0922126 -0.206024,0.205996z"/>
 </g>
</svg>
