<?xml version="1.0" encoding="UTF-8"?>
<!DOCTYPE svg PUBLIC "-//W3C//DTD SVG 1.1//EN" "http://www.w3.org/Graphics/SVG/1.1/DTD/svg11.dtd">
<!-- Creator: CorelDRAW -->
<svg xmlns="http://www.w3.org/2000/svg" xml:space="preserve" width="6.82666in" height="6.82666in" style="shape-rendering:geometricPrecision; text-rendering:geometricPrecision; image-rendering:optimizeQuality; fill-rule:evenodd; clip-rule:evenodd"
viewBox="0 0 6.82666 6.82666"
 xmlns:xlink="http://www.w3.org/1999/xlink">
 <defs>
  <style type="text/css">
   <![CDATA[
    .fil0 {fill:#00838F}
    .fil1 {fill:#FFFFFE}
    .fil2 {fill:#FFFFFE;fill-rule:nonzero}
   ]]>
  </style>
 </defs>
 <g id="Layer_x0020_1">
  <metadata id="CorelCorpID_0Corel-Layer"/>
  <rect class="fil0" width="6.82666" height="6.82666" rx="0.853335" ry="0.853335"/>
  <path class="fil1" d="M1.13599 0.969484l4.55468 0c0.0778386,0 0.148531,0.0317717 0.199709,0.0829488 0.0511811,0.0511811 0.0829528,0.121878 0.0829528,0.199713l0 3.98446c0,0.0778346 -0.0317717,0.148535 -0.0829528,0.199709 -0.0511732,0.0511811 -0.121874,0.0829528 -0.199709,0.0829528l-4.55468 0c-0.0778346,0 -0.148531,-0.0317717 -0.199713,-0.0829528 -0.0511772,-0.0511772 -0.0829488,-0.12187 -0.0829488,-0.199709l0 -3.98446c0,-0.0778465 0.0317717,-0.148535 0.0829488,-0.199713 0.0511772,-0.0511772 0.121866,-0.0829488 0.199713,-0.0829488zm1.14637 2.12057c0.0852323,0 0.154323,0.0690906 0.154323,0.154323 0,0.0852323 -0.0690906,0.154323 -0.154323,0.154323 -0.0852323,0 -0.154323,-0.0690906 -0.154323,-0.154323 0,-0.0852323 0.0690906,-0.154323 0.154323,-0.154323zm0 -0.51552c0.184957,0 0.352417,0.0749803 0.473642,0.196201 0.12122,0.12122 0.196201,0.288685 0.196201,0.473642 0,0.184957 -0.0749803,0.352421 -0.196201,0.473642 -0.121224,0.12122 -0.288685,0.196201 -0.473642,0.196201 -0.184957,0 -0.352421,-0.0749803 -0.473642,-0.196201 -0.12122,-0.12122 -0.196201,-0.288685 -0.196201,-0.473642 0,-0.184957 0.0749803,-0.352421 0.196201,-0.473642 0.12122,-0.12122 0.288685,-0.196201 0.473642,-0.196201zm0.322807 0.347035c-0.0826063,-0.0826024 -0.196736,-0.133697 -0.322807,-0.133697 -0.126071,0 -0.240205,0.0510945 -0.322807,0.133697 -0.0826024,0.0826024 -0.133697,0.196736 -0.133697,0.322807 0,0.126071 0.0510945,0.240205 0.133697,0.322807 0.0826024,0.0826024 0.196736,0.133697 0.322807,0.133697 0.126071,0 0.240201,-0.0510945 0.322807,-0.133697 0.0826024,-0.0826024 0.133697,-0.196736 0.133697,-0.322807 0,-0.126071 -0.0510945,-0.240205 -0.133697,-0.322807zm2.80393 0.913807l-0.112642 0c-0.0170157,0 -0.0325669,0.00703937 -0.0439055,0.018378 -0.0113346,0.0113346 -0.018378,0.0268858 -0.018378,0.0439016l0 0.382969c0,0.0170157 0.00703937,0.032563 0.018378,0.0439016 0.0113386,0.0113386 0.0268898,0.018378 0.0439055,0.018378l0.112642 0c0.0170157,0 0.032563,-0.00703937 0.0439016,-0.018378 0.0113386,-0.0113386 0.018378,-0.0268858 0.018378,-0.0439016l0 -0.382969c0,-0.0170157 -0.00703937,-0.032563 -0.018378,-0.0439016 -0.0113346,-0.0113386 -0.0268898,-0.018378 -0.0439016,-0.018378zm0 -1.68953l-0.112642 0c-0.0170157,0 -0.0325669,0.00703937 -0.0439055,0.018378 -0.0113386,0.0113346 -0.018378,0.0268898 -0.018378,0.0439016l0 0.382969c0,0.0170157 0.00703937,0.032563 0.018378,0.0439016 0.0113386,0.0113386 0.0268898,0.018378 0.0439055,0.018378l0.112642 0c0.0170157,0 0.032563,-0.00703937 0.0439016,-0.018378 0.0113386,-0.0113386 0.018378,-0.0268858 0.018378,-0.0439016l0 -0.382969c0,-0.0170157 -0.00703937,-0.032563 -0.018378,-0.0439016 -0.0113346,-0.0113386 -0.0268898,-0.018378 -0.0439016,-0.018378zm-4.11119 -0.841449l4.05486 0 0.0533346 0 0 0.0533346 0 0.574776 0.00299213 0c0.0759055,0 0.144843,0.0309843 0.194736,0.0808819 0.0499016,0.0499016 0.0808819,0.118835 0.0808819,0.194736l0 0.382969c0,0.0759016 -0.0309803,0.144835 -0.0808819,0.194736 -0.0499016,0.0499016 -0.118835,0.0808819 -0.194736,0.0808819l-0.00299213 0 0 0.755323 0.00299213 0c0.0759055,0 0.144843,0.0309843 0.194736,0.0808819 0.0499016,0.0499016 0.0808819,0.118835 0.0808819,0.194736l0 0.382969c0,0.0759016 -0.0309803,0.144835 -0.0808819,0.194736 -0.0499016,0.0499016 -0.118835,0.0808819 -0.194736,0.0808819l-0.00299213 0 0 0.631079 0 0.0533346 -0.0533346 0 -4.05486 0 -0.0533346 0 0 -0.0533346 0 -3.82959 0 -0.0533346 0.0533346 0zm4.00153 0.106669l-3.94819 0 0 3.72292 3.94819 0 0 -0.577744 -0.00298031 0c-0.0759016,0 -0.144839,-0.0309803 -0.19474,-0.0808819 -0.0499016,-0.0499016 -0.0808819,-0.118835 -0.0808819,-0.194736l0 -0.382969c0,-0.0759016 0.0309803,-0.144839 0.0808819,-0.194736 0.0499016,-0.0499016 0.118831,-0.0808819 0.19474,-0.0808819l0.00298031 0 0 -0.755323 -0.00298031 0c-0.0759016,0 -0.144839,-0.0309803 -0.19474,-0.0808819 -0.0499016,-0.0499016 -0.0808819,-0.118835 -0.0808819,-0.194736l0 -0.382969c0,-0.0759055 0.0309843,-0.144843 0.0808819,-0.194736 0.0499016,-0.0499016 0.118831,-0.0808819 0.19474,-0.0808819l0.00298031 0 0 -0.521441z"/>
  <polygon class="fil2" points="1.55868,5.5888 2.45976,5.5888 2.45976,5.92671 1.55868,5.92671 "/>
  <polygon class="fil2" points="4.3669,5.5888 5.26798,5.5888 5.26798,5.92671 4.3669,5.92671 "/>
 </g>
</svg>
