<svg xmlns="http://www.w3.org/2000/svg" viewBox="0 0 512 512"><title>Calculator01</title><g id="Calculator_01" data-name="Calculator 01"><g id="Calculator_01-2" data-name="Calculator 01"><path d="M353.3978,137.5474H265.9731V246.025H374.4517V158.6041A21.0572,21.0572,0,0,0,353.3978,137.5474Zm-6.993,69.4127h-59.85V187.01h59.85Z"/><path d="M137.5483,353.3959a21.06,21.06,0,0,0,21.0577,21.0567h87.4209V265.975H137.5483Zm30.4608-52.7573,14.1047-14.1046,14.1075,14.1075L210.33,286.534l14.1046,14.1046-14.1084,14.1075,14.1084,14.1084L210.33,342.9592l-14.1084-14.1085-14.1075,14.1075-14.1047-14.1037,14.1075-14.1084Z"/><path d="M137.5483,158.6041V246.025H246.0269V137.5474H158.606A21.06,21.06,0,0,0,137.5483,158.6041ZM166.2962,187.01h19.95V167.06h19.95v19.95h19.95v19.95h-19.95v19.95h-19.95V206.96h-19.95Z"/><path d="M265.9731,374.4526h87.4247a21.059,21.059,0,0,0,21.0539-21.0567V265.975H265.9731Zm20.5818-84.6944h59.85v19.95h-59.85Zm0,30.0258h59.85v19.95h-59.85Z"/></g></g></svg>