<svg xmlns="http://www.w3.org/2000/svg" viewBox="0 0 512 512"><title>Dollar_Cash</title><g id="Dollar_Cash" data-name="Dollar Cash"><g id="Dollar_Cash-2" data-name="Dollar Cash"><path d="M382.6431,168.7824H129.3474c-16.226,0-29.38,11.5007-29.38,25.6851V317.5391c0,14.1844,13.1575,25.6785,29.38,25.6785H382.6459c16.23,0,29.3864-11.4941,29.3864-25.6785V194.4675C412.0294,180.2831,398.8719,168.7824,382.6431,168.7824ZM266.88,300.8913V313.09H248.2532V301.4793c-15.2123-1.7688-26.3871-9.35-31.558-21.4529l-.6546-1.5323,17.2862-7.3188.6489,1.5333c2.7959,6.6329,12.445,11.6337,22.4437,11.6337,4.4983,0,19.1815-.8274,19.1815-11.4675,0-5.586-6.2738-8.9281-19.7372-10.52-15.0053-1.6824-35.5671-3.9938-35.5671-26.5933,0-13.8956,10.4168-23.6009,27.9566-26.1582v-10.69H266.88v10.7332c8.1225,1.4164,18.8927,4.93,24.8909,17.19l.7477,1.5257-15.903,7.3587-.7714-1.2739c-2.84-4.6845-11.1559-8.3553-18.943-8.3553-5.26,0-17.4962.9405-17.4962,9.6681,0,6.2777,7.8774,7.7178,18.1783,8.9548,15.9733,1.9683,37.8518,4.6644,37.8518,28.16C295.435,290.201,281.337,299.3086,266.88,300.8913Z"/></g></g></svg>