<svg xmlns="http://www.w3.org/2000/svg" viewBox="0 0 512 512"><title>Euro_Cash</title><g id="Euro_Cash" data-name="Euro Cash"><g id="Euro_Cash-2" data-name="Euro Cash"><path d="M382.6431,168.7824H129.3474c-16.226,0-29.38,11.5007-29.38,25.6851V317.5391c0,14.1845,13.1575,25.6785,29.38,25.6785H382.6459c16.23,0,29.3864-11.494,29.3864-25.6785V194.4675C412.0294,180.2831,398.8719,168.7824,382.6431,168.7824ZM273.1271,312.9943a57.0242,57.0242,0,0,1-51.5708-32.8909H200.34v-19.95h16.0027c-.1-1.3766-.209-2.7531-.209-4.1562s.1093-2.78.209-4.1563H200.34v-19.95h21.2163A56.9262,56.9262,0,0,1,311.0254,213.42l-13.2667,14.9026a36.9761,36.9761,0,0,0-52.7013,3.5682h28.24v19.95H236.3326a34.826,34.826,0,0,0,0,8.3125h36.9645v19.95h-28.24a36.982,36.982,0,0,0,53.1839,3.135l13.5261,14.6632A56.8407,56.8407,0,0,1,273.1271,312.9943Z"/></g></g></svg>