<svg xmlns="http://www.w3.org/2000/svg" viewBox="0 0 512 512"><title>Pound_Cash_x2</title><g id="Pound_Cash_x2" data-name="Pound Cash x2"><g id="Pound_Cash_x2-2" data-name="Pound Cash x2"><path d="M378.5957,164.5061h-200.39c-12.8378,0-23.2439,9.0925-23.2439,20.3169v2.7285h-10.588c-18.8654,0-34.2164,14.0374-34.2164,31.29v97.3626c0,17.2519,15.351,31.2894,34.2164,31.2894H344.768c18.8654,0,34.2154-14.0375,34.2154-31.2894v-13.72c12.6592-.1828,22.8594-9.1907,22.8594-20.2991V184.823C401.8428,173.6018,391.4336,164.5061,378.5957,164.5061ZM357.0384,316.2045c0,5.0652-5.621,9.3444-12.27,9.3444H144.3736c-6.6535,0-12.2714-4.2792-12.2714-9.3444V218.8419c0-5.0662,5.6179-9.3454,12.2714-9.3454H344.768c6.6494,0,12.27,4.2792,12.27,9.3454Z"/><path d="M250.7922,240.6772a12.3494,12.3494,0,0,1,7.4906,3.4892,4.3961,4.3961,0,0,1,1.4484,2.6481l21.945.3145a25.6648,25.6648,0,0,0-7.7654-18.3648c-6.0934-6.1843-14.9592-10.0289-23.1227-10.0289a28.7432,28.7432,0,0,0-24.9515,13.8295,27.1373,27.1373,0,0,0-.5852,26.93c.139.26.3072.5486.4535.8193H211.3236v21.945h21.4257c0,.0731.0073.1285.0073.2016,0,7.6474-17.6365,8.266-17.7713,8.266v21.945h59.5253v-21.945H253.4873a27.537,27.537,0,0,0,1.2143-8.266c0-.0731-.0073-.1285-.0073-.2016h13.215v-21.945H250.3784a82.202,82.202,0,0,0-4.4694-8.8146c-.4567-.8047-.8883-1.5654-1.28-2.2969a5.1192,5.1192,0,0,1,.0147-5.3327A7.0119,7.0119,0,0,1,250.7922,240.6772Z"/></g></g></svg>