<svg xmlns="http://www.w3.org/2000/svg" viewBox="0 0 512 512"><title>Dollar_Currency</title><g id="Dollar_Currency" data-name="Dollar Currency"><g id="Dollar_Currency-2" data-name="Dollar Currency"><path d="M255.9962,120.7124A135.2876,135.2876,0,1,0,391.2876,256,135.2877,135.2877,0,0,0,255.9962,120.7124Zm0,252.5565A117.2728,117.2728,0,1,1,373.2727,255.9962,117.4044,117.4044,0,0,1,255.9962,373.2689Z"/><path d="M255.9962,158.6773A97.3227,97.3227,0,1,0,353.3228,256,97.43,97.43,0,0,0,255.9962,158.6773Zm13.5964,151.2276v14.686H247.7873V310.6126c-18.3978-2.0577-31.9067-11.152-38.135-25.7288l-.6545-1.5324,20.2426-8.5822.6451,1.5361c3.4209,8.133,15.2085,14.2642,27.4208,14.2642,5.5128,0,23.5077-1.0241,23.5077-14.1977,0-6.9483-7.67-11.0922-24.1395-13.0473-17.9949-2.0083-42.6531-4.7643-42.6531-31.77,0-16.6649,12.5885-28.2863,33.7621-31.2854V187.4081h21.8053v12.9048c9.7688,1.6653,22.8532,5.8149,30.0884,20.6216l.7476,1.5258-18.6,8.6117-.7714-1.273c-3.4742-5.7494-13.6553-10.2581-23.1781-10.2581-6.4543,0-21.47,1.1742-21.47,12.0137,0,7.88,9.6425,9.652,22.2547,11.1549,19.1653,2.3608,45.4062,5.5926,45.4062,33.6594C304.0691,297.2034,287.0051,308.0989,269.5926,309.9049Z"/></g></g></svg>