<svg xmlns="http://www.w3.org/2000/svg" viewBox="0 0 512 512"><title>Pound_Inspect</title><g id="Pound_Inspect" data-name="Pound Inspect"><g id="Pound_Inspect-2" data-name="Pound Inspect"><path d="M394.557,332.2631l-47.9237-47.9248a126.2716,126.2716,0,1,0-59.2922,61.8191l46.67,46.67a42.8189,42.8189,0,1,0,60.5462-60.564ZM379.0492,377.312a20.8565,20.8565,0,0,1-29.5233,0l-58.6767-58.6841a104.4308,104.4308,0,1,1,28.81-30.2329l59.39,59.3905A20.86,20.86,0,0,1,379.0492,377.312Z"/><path d="M231.2173,162.6355a70.3228,70.3228,0,1,0,70.3191,70.3264A70.3238,70.3238,0,0,0,231.2173,162.6355Zm-1.8695,53.82c.3877.7315.8234,1.4923,1.28,2.2969a82.4815,82.4815,0,0,1,4.4695,8.8146h17.5309v21.945H239.4174c0,.069.0073.1285.0073.2017a27.5715,27.5715,0,0,1-1.2143,8.2659h21.0191v21.945H199.7v-21.945c.1358,0,17.7723-.6186,17.7723-8.2659,0-.0732-.0073-.1286-.0073-.2017H196.0394v-21.945h14.3813c-.1463-.2665-.3145-.5559-.4535-.8193a27.1423,27.1423,0,0,1,.5852-26.93,28.7456,28.7456,0,0,1,24.9515-13.83c8.1635,0,17.0251,3.8446,23.1258,10.0289a25.7069,25.7069,0,0,1,7.7654,18.3648l-21.945-.3145a4.413,4.413,0,0,0-1.4484-2.648,12.3669,12.3669,0,0,0-7.4947-3.4893,6.9969,6.9969,0,0,0-6.1446,3.1893A5.1158,5.1158,0,0,0,229.3478,216.4551Z"/></g></g></svg>