<svg xmlns="http://www.w3.org/2000/svg" viewBox="0 0 512 512"><title>Pound_Coins</title><g id="Pound_Coins" data-name="Pound Coins"><g id="Pound_Coins-2" data-name="Pound Coins"><path d="M228.1968,302.758a201.0933,201.0933,0,0,0,20.3424-1.0373,71.8668,71.8668,0,0,1,10.6533-21.6031,170.3448,170.3448,0,0,1-30.9957,2.6905c-42.9229,0-66.0782-13.57-66.0782-19.116V247.107c16.6022,8.702,41.42,13.1775,66.0782,13.1775s49.4694-4.4755,66.0773-13.1775v6.9493a71.5567,71.5567,0,0,1,19.95-3.8266V176.637c0-25.6491-43.2782-39.0687-86.0273-39.0687s-86.0282,13.42-86.0282,39.0687v133h.0732c1.5893,24.7152,44.0068,37.639,85.955,37.639a200.282,200.282,0,0,0,21.4225-1.1466,71.7079,71.7079,0,0,1-3.9463-19.6309c-5.4131.5121-11.209.8275-17.48.8275-42.9219,0-66.0772-13.5689-66.0772-19.1188V289.5844C178.7237,298.2855,203.5386,302.758,228.1968,302.758Zm0-145.24c42.9191,0,66.0773,13.57,66.0773,19.1188s-23.1582,19.1188-66.0773,19.1188c-42.9229,0-66.0782-13.5689-66.0782-19.1188S185.2739,157.5182,228.1968,157.5182Zm-66.0782,45.011c16.6022,8.7011,41.42,13.1765,66.0782,13.1765s49.4694-4.4754,66.0773-13.1736v18.6836c0,5.549-23.1582,19.1188-66.0773,19.1188-42.9229,0-66.0782-13.57-66.0782-19.1188Z"/><path d="M317.6659,270.0894a52.1712,52.1712,0,1,0,52.1655,52.1693A52.2319,52.2319,0,0,0,317.6659,270.0894Zm-.8046,35.7144c.3059.5652.6346,1.1532.987,1.7755.5054.8873,1.0574,1.8886,1.6226,2.9526h14.5673v19.95h-9.17c.0266.7211.0893,1.3994.0893,2.1546a24.171,24.171,0,0,1-.552,5.19h14.8333v19.95H292.3256v-19.95c2.76-.0265,12.6816-1.33,12.6816-5.19,0-.7619-.04-1.463-.0893-2.1546H289.4367v-19.95h7.98a22.5224,22.5224,0,0,1,2.3237-17.9085,23.9766,23.9766,0,0,1,20.8012-11.5415,28.0112,28.0112,0,0,1,19.1719,8.303,21.5526,21.5526,0,0,1,6.5009,15.428l-19.95-.2926a2.42,2.42,0,0,0-.7619-1.1343,8.5,8.5,0,0,0-4.9609-2.3541,4.1366,4.1366,0,0,0-3.7,1.8724A2.7444,2.7444,0,0,0,316.8613,305.8038Z"/></g></g></svg>