<svg xmlns="http://www.w3.org/2000/svg" viewBox="0 0 512 512"><title>Piggy_Bank02</title><g id="Piggy_Bank_02" data-name="Piggy Bank 02"><g id="Piggy_Bank_02-2" data-name="Piggy Bank 02"><path d="M390.8832,216.5708H376.22a112.8037,112.8037,0,0,0-44.173-54.9584l12.8581-44.023L280.709,142.1146a148.1761,148.1761,0,0,0-23.1582-1.8554c-44.3023,0-81.0369,18.9459-103.0883,48a9.9325,9.9325,0,0,0-2.6439-.399c-23.2645,0-31.1685-15.98-31.5836-16.8511a9.973,9.973,0,0,0-18.2182,8.12c.4722,1.0706,11.019,24.0625,40.8709,28.0392a110.0521,110.0521,0,0,0-10.8557,47.8667c0,36.2292,17.18,68.515,45.5126,89.5527l-7.0594,7.0585a25.0516,25.0516,0,1,0,35.4283,35.4284l20.5685-20.5685a145.9389,145.9389,0,0,0,31.0716,3.2984,143.8786,143.8786,0,0,0,38.2774-5.0578L318.1589,387.07a25.05,25.05,0,0,0,35.4246-35.4274l-10.9992-10.9991A111.647,111.647,0,0,0,376.19,293.4914h14.69a19.9524,19.9524,0,0,0,19.95-19.95V236.5208A19.95,19.95,0,0,0,390.8832,216.5708Zm-71.2015,23.7738a13.8534,13.8534,0,1,1,13.8519-13.852A13.8506,13.8506,0,0,1,319.6817,240.3446Z"/></g></g></svg>