<svg xmlns="http://www.w3.org/2000/svg" viewBox="0 0 512 512"><title>Euro_Inspect</title><g id="Euro_Inspect" data-name="Euro Inspect"><g id="Euro_Inspect-2" data-name="Euro Inspect"><path d="M394.557,332.2589l-47.9237-47.9206a126.2716,126.2716,0,1,0-59.2922,61.8191l46.67,46.67a42.82,42.82,0,1,0,60.5462-60.5682ZM379.0492,377.312a20.8565,20.8565,0,0,1-29.5233,0l-58.6768-58.6841a104.4312,104.4312,0,1,1,28.81-30.2329l59.39,59.3905A20.86,20.86,0,0,1,379.0492,377.312Z"/><path d="M231.2173,162.6313a70.3228,70.3228,0,1,0,70.3191,70.3265A70.3238,70.3238,0,0,0,231.2173,162.6313Zm-.7608,112.6071a42.32,42.32,0,0,1-40.7853-31.3113h-9.7833v-21.945h9.7833a42.2393,42.2393,0,0,1,68.8968-20.6137L243.9746,217.754a20.314,20.314,0,0,0-30.6174,4.2281h17.209v21.945h-17.209a20.3111,20.3111,0,0,0,30.8839,3.9825l14.8787,16.13A42.139,42.139,0,0,1,230.4565,275.2384Z"/></g></g></svg>