<svg id="Wallet_Denied" data-name="Wallet Denied" xmlns="http://www.w3.org/2000/svg" viewBox="0 0 512 512"><title>Wallet_Denied</title><g id="Wallet_Denied-2" data-name="Wallet Denied"><path d="M397.6587,230.1819h-6.364V217.44a43.4922,43.4922,0,0,0-33.8153-42.3406l-.04-25.09a33.5129,33.5129,0,0,0-33.4827-33.4656h-1.5732l-177.252,57.4464H141.81A43.4921,43.4921,0,0,0,98.3717,217.44v68.9435a71.6608,71.6608,0,0,1,19.95-10.7693V217.44a23.4963,23.4963,0,0,1,23.4879-23.501H347.8531a23.4877,23.4877,0,0,1,23.4878,23.501v12.7415H335.0556a24.3449,24.3449,0,0,0-24.319,24.3152v46.6963a24.3471,24.3471,0,0,0,24.319,24.3228h36.2891v12.7414a23.49,23.49,0,0,1-23.4878,23.5011H211.5347a71.5233,71.5233,0,0,1-8.6781,19.95H347.8531a43.49,43.49,0,0,0,43.4378-43.4512V325.5162h6.364a24.3473,24.3473,0,0,0,24.3192-24.3228V254.4971A24.34,24.34,0,0,0,397.6587,230.1819Zm4.3691,71.0115a4.3753,4.3753,0,0,1-4.3691,4.3728H335.0556a4.3746,4.3746,0,0,1-4.369-4.3728V254.4971a4.3731,4.3731,0,0,1,4.369-4.3653h62.6031a4.3713,4.3713,0,0,1,4.3691,4.3653Z"/><path d="M141.98,291.548a51.9546,51.9546,0,1,0,51.9593,51.9565A52.0156,52.0156,0,0,0,141.98,291.548ZM172.53,359.95l-14.1045,14.1037L141.9862,357.612l-16.4388,16.4416L111.4427,359.95l16.4388-16.4426-16.4454-16.4454,14.1046-14.1047,16.4455,16.4455,16.4454-16.4455,14.1047,14.1047-16.4455,16.4454Z"/></g></svg>