<svg xmlns="http://www.w3.org/2000/svg" viewBox="0 0 512 512"><title>Money_Bag</title><g id="Money_Bag" data-name="Money Bag"><g id="Money_Bag-2" data-name="Money Bag"><path d="M342.4347,267.609c-3.5777-34.5667-22.47-64.5981-50.8886-78.3836l16.14-39.5542v-1.9579a26.6234,26.6234,0,0,0-26.5934-26.5905H230.9076a26.6233,26.6233,0,0,0-26.5933,26.5905v1.9579l16.1395,39.5542c-28.4221,13.7855-47.3109,43.8169-50.8886,78.3836-2.8861,27.9338-22.9758,109.9682-22.9758,109.9682a475.4428,475.4428,0,0,0,109.4087,13.3c58.61,0,109.4125-13.3,109.4125-13.3S345.3181,295.5428,342.4347,267.609ZM230.9076,141.0728h50.1847a6.6469,6.6469,0,0,1,6.4667,5.1176l-14.7032,36.0231,3.7544,1.5295a83.9053,83.9053,0,0,0-41.2205,0l3.7506-1.5295L224.4372,146.19A6.6575,6.6575,0,0,1,230.9076,141.0728ZM266.3293,336.27v11.4779H248.61V336.8222c-14.2975-1.6853-24.7978-8.8246-29.6685-20.2227l-.6555-1.5323,16.4427-6.973.645,1.5361c2.6135,6.2045,11.6508,10.8832,21.0168,10.8832,4.2095,0,17.9417-.7685,17.9417-10.69,0-5.1937-5.8719-8.302-18.4765-9.7955-14.1484-1.5827-33.54-3.7467-33.54-25.1066,0-13.0976,9.7926-22.248,26.2913-24.6847V240.1711h17.7185v10.108c7.6579,1.3433,17.7555,4.6788,23.3985,16.206l.7476,1.5267L275.34,275.0142l-.7648-1.2739c-2.6505-4.3785-10.4376-7.81-17.7355-7.81-4.9144,0-16.35.8779-16.35,8.987,0,5.8321,7.372,7.1726,17.0078,8.323,15.0585,1.8582,35.684,4.4023,35.684,26.58C293.1849,326.1556,279.9419,334.7474,266.3293,336.27Z"/></g></g></svg>