<svg xmlns="http://www.w3.org/2000/svg" viewBox="0 0 512 512"><title>Pound_Cash</title><g id="Pound_Cash" data-name="Pound Cash"><g id="Pound_Cash-2" data-name="Pound Cash"><path d="M382.6431,168.7814H129.3474c-16.226,0-29.38,11.5017-29.38,25.6862V317.5391c0,14.1844,13.1575,25.6795,29.38,25.6795H382.6459c16.23,0,29.3864-11.4951,29.3864-25.6795V194.4638C412.0294,180.2831,398.8719,168.7814,382.6431,168.7814ZM249.8093,241.3938a46.7912,46.7912,0,0,0,2.6135,4.122,67.7581,67.7581,0,0,1,4.6977,7.7074h21.6724v19.95h-16.625c.0836,1.4174.1434,2.8767.1434,4.4327a34.84,34.84,0,0,1-3.0723,14.8258H292.02v19.95H224.6989v-19.95c4.0926-.0561,17.6586-1.293,17.6586-14.8258,0-1.6225-.0731-3.0722-.189-4.4327H219.9736v-19.95h13.6658c-.4921-.79-.9842-1.5922-1.45-2.4663-4.97-9.3536-4.1895-21.1745,2.0881-31.6207,7.1326-11.8645,19.6412-19.532,31.8706-19.532,9.3062,0,19.84,4.59,26.8394,11.6907,5.8786,5.9584,8.9243,13.1138,8.8112,20.6948l-19.95-.286c.0333-2.1479-1.0013-4.3016-3.0723-6.4029-3.7145-3.7706-9.1637-5.7466-12.6321-5.7466-5.207,0-11.2851,4.0574-14.7725,9.8591C248.7387,233.8051,248.1535,238.2844,249.8093,241.3938Z"/></g></g></svg>