<svg xmlns="http://www.w3.org/2000/svg" viewBox="0 0 512 512"><title>Piggy_Bank01</title><g id="Piggy_Bank_01" data-name="Piggy Bank 01"><g id="Piggy_Bank_01-2" data-name="Piggy Bank 01"><path d="M390.8849,216.5708H376.2217a112.8041,112.8041,0,0,0-44.1732-54.9584l12.8583-44.023-64.1963,24.5252a148.1748,148.1748,0,0,0-23.1581-1.8554c-44.3023,0-81.0369,18.9459-103.0921,48a9.9044,9.9044,0,0,0-2.64-.399c-23.2683,0-31.1714-15.98-31.5837-16.8511a9.9743,9.9743,0,0,0-18.221,8.12c.4722,1.0706,11.0219,24.0625,40.8709,28.0392A109.999,109.999,0,0,0,132.03,255.0344c0,36.2292,17.1808,68.515,45.5126,89.5527l-7.0585,7.0585a25.0513,25.0513,0,0,0,35.4274,35.4284L226.48,366.5055a145.9413,145.9413,0,0,0,31.0726,3.2984,143.8791,143.8791,0,0,0,38.2774-5.0578L318.1567,387.07a25.05,25.05,0,0,0,35.4245-35.4274l-10.9953-10.9991a111.647,111.647,0,0,0,33.6053-47.1523h14.69a19.9524,19.9524,0,0,0,19.95-19.95V236.5208A19.95,19.95,0,0,0,390.8849,216.5708ZM286.7193,188.5316H228.5318v-19.95h58.1875Zm32.964,51.813a13.8534,13.8534,0,1,1,13.852-13.852A13.8506,13.8506,0,0,1,319.6833,240.3446Z"/></g></g></svg>