<svg xmlns="http://www.w3.org/2000/svg" viewBox="0 0 512 512"><title>Currency_Refund</title><g id="Currency_Refund" data-name="Currency Refund"><g id="Currency_Refund-2" data-name="Currency Refund"><path d="M179.377,276.1476a74.9488,74.9488,0,1,0,74.9483-74.9484A74.9514,74.9514,0,0,0,179.377,276.1476Zm109.4751-26.277.7487,1.5257-15.4385,7.1393-.7648-1.274c-2.72-4.4982-10.716-8.02-18.2039-8.02-5.0511,0-16.7978.9015-16.7978,9.2473,0,6.0078,7.5638,7.391,17.459,8.5681,15.4185,1.899,36.5285,4.502,36.5285,27.1956,0,16.7143-13.5727,25.5094-27.5139,27.055v11.7544H246.8013V321.873c-14.65-1.7224-25.4163-9.0269-30.4075-20.6977l-.6546-1.5361,16.7741-7.1022.6451,1.5323c2.6837,6.3708,11.9539,11.1721,21.5659,11.1721,4.3263,0,18.431-.7914,18.431-10.9925,0-5.3466-6.0287-8.5453-18.9658-10.0748-14.4809-1.6188-34.3273-3.837-34.3273-25.6889,0-13.4064,10.0377-22.7725,26.9391-25.25v-10.31h18.0681v10.35C272.7059,234.6516,283.0666,238.0564,288.8521,249.8706Z"/><path d="M339.908,168.0956l-12.2493,15.7433A117.0169,117.0169,0,1,1,264.4638,159.66L240.81,184.4745l15.9334,15.1981,33.8979-35.5908.0066.01,15.1887-15.9466L289.92,132.96l-.0133.0038L254.3291,99.0552l-15.1952,15.9467L265.0518,139.69A136.7336,136.7336,0,0,0,120.8969,254.8847c-11.7078,74.4866,39.3642,144.6375,113.8546,156.3709a138.715,138.715,0,0,0,21.5394,1.6892A136.8169,136.8169,0,0,0,339.908,168.0956Z"/></g></g></svg>