<svg xmlns="http://www.w3.org/2000/svg" viewBox="0 0 512 512"><title>Dollar_Coins</title><g id="Dollar_Coins" data-name="Dollar Coins"><g id="Dollar_Coins-2" data-name="Dollar Coins"><path d="M228.1982,302.758a201.0913,201.0913,0,0,0,20.3423-1.0373,71.8692,71.8692,0,0,1,10.6533-21.6031,170.6833,170.6833,0,0,1-30.9956,2.6905c-42.9229,0-66.0781-13.57-66.0781-19.116V247.107c16.6021,8.702,41.42,13.1775,66.0781,13.1775s49.4693-4.4755,66.0772-13.1775v6.9493a71.5567,71.5567,0,0,1,19.95-3.8266V176.637c0-25.6491-43.2782-39.0687-86.0272-39.0687S142.17,150.9879,142.17,176.637v133h.073c1.59,24.7152,44.007,37.639,85.9551,37.639a200.2834,200.2834,0,0,0,21.4225-1.1466,71.7215,71.7215,0,0,1-3.9463-19.6309c-5.4131.5121-11.2091.8275-17.48.8275-42.922,0-66.0773-13.5689-66.0773-19.1188V289.5844C178.7222,298.2854,203.54,302.758,228.1982,302.758Zm0-145.24c42.9191,0,66.0772,13.57,66.0772,19.1188s-23.1581,19.1188-66.0772,19.1188c-42.9229,0-66.0781-13.5689-66.0781-19.1188S185.2753,157.5182,228.1982,157.5182ZM162.12,202.5292c16.6021,8.7011,41.42,13.1765,66.0781,13.1765s49.4693-4.4754,66.0772-13.1765v18.6865c0,5.549-23.1581,19.1188-66.0772,19.1188-42.9229,0-66.0781-13.57-66.0781-19.1188Z"/><path d="M317.6636,270.0894A52.1712,52.1712,0,1,0,369.83,322.2587,52.2311,52.2311,0,0,0,317.6636,270.0894Zm5.8652,84.9471v8.8246h-14.327v-8.4018c-10.9031-1.3766-18.9164-6.896-22.6565-15.6607l-.6555-1.5333,13.2933-5.6326.649,1.5362c1.9417,4.6084,8.6943,8.0835,15.71,8.0835,3.1293,0,13.3333-.5624,13.3333-7.7805,0-3.7306-4.3824-5.9888-13.7855-7.106-10.3436-1.1533-25.9882-2.8994-25.9882-19.5871,0-10.1413,7.4814-17.25,20.1069-19.2157v-7.7472h14.3268v7.791c5.9024,1.0839,13.5462,3.7439,17.8592,12.5514l.7475,1.5266-12.2559,5.6686-.7648-1.2729c-1.9285-3.1892-7.8631-5.7827-13.23-5.7827-4.5191,0-12.1134.8417-12.1134,6.4809,0,3.78,4.26,4.977,12.6587,5.9745,11.0086,1.3538,27.64,3.402,27.64,20.7148C344.0706,347.06,333.993,353.7464,323.5288,355.0365Z"/></g></g></svg>