<svg xmlns="http://www.w3.org/2000/svg" viewBox="0 0 512 512"><title>Credit_Card_Add</title><g id="Credit_Card_Add" data-name="Credit Card Add"><g id="Credit_Card_Add-2" data-name="Credit Card Add"><rect x="154.5904" y="282.9239" width="36.575" height="19.95"/><rect x="197.0839" y="282.9239" width="36.575" height="19.95"/><path d="M356.4083,316.1806c0,6.7431-6.9226,12.2294-15.4317,12.2294H151.91c-8.5082,0-15.4308-5.4825-15.4308-12.2294V246.2758H298.5828a64.3393,64.3393,0,0,1-4.6483-68.6812H151.91c-19.5073,0-35.3808,14.4372-35.3808,32.1832V316.1844c0,17.7422,15.87,32.1793,35.3808,32.1793H340.98c19.5073,0,35.3809-14.4371,35.3809-32.1793V267.6527a64.1,64.1,0,0,1-19.95,5.0141v43.5138Z"/><path d="M350.7853,163.6363A44.6833,44.6833,0,1,0,395.47,208.3214,44.7341,44.7341,0,0,0,350.7853,163.6363Zm27.036,54.6563H360.76v17.0639H340.81V218.2926H323.7435v-19.95H340.81v-17.06h19.95v17.06h17.061Z"/></g></g></svg>