<svg xmlns="http://www.w3.org/2000/svg" viewBox="0 0 512 512"><title>Currency_Exchange</title><g id="Currency_Exchange" data-name="Currency Exchange"><g id="Currency_Exchange-2" data-name="Currency Exchange"><path d="M307.3612,222.3577c.2394-2.7332.3829-5.4863.3829-8.2793a95.04,95.04,0,1,0-95.039,95.0485h.057a85.0533,85.0533,0,1,0,94.5991-86.7692ZM212.7051,289.174a75.0951,75.0951,0,1,1,75.089-75.0985A75.1826,75.1826,0,0,1,212.7051,289.174Z"/><path d="M351.8668,178.4182l-20.7613-13.9621-11.1387,16.5556L368.2952,213.52l33.2634-49.4456-16.5548-11.1387-13.832,20.5617A65.5637,65.5637,0,0,0,307.95,124.8953v19.95A45.5966,45.5966,0,0,1,351.8668,178.4182Z"/><path d="M160.1369,339.44l20.7584,13.9622,11.1388-16.5547-48.3256-32.509-33.2671,49.4465,16.5557,11.1387,13.832-20.5617a65.573,65.573,0,0,0,63.2215,48.601v-19.95A45.6111,45.6111,0,0,1,160.1369,339.44Z"/><path d="M214.1881,200.27c-9.5057-1.13-16.7808-2.4539-16.7808-8.2033,0-7.7073,10.108-8.8578,16.1357-8.8578,7.2021,0,14.8932,3.3848,17.5028,7.7007l.7686,1.274,14.9824-6.936-.7486-1.5267c-5.5727-11.3847-15.55-14.6831-23.1154-16.0131V157.72H205.39v9.9417c-16.2953,2.4178-25.9749,11.4618-25.9749,24.4055,0,21.12,19.1691,23.2617,33.1541,24.8283,12.4383,1.4658,18.2343,4.5381,18.2343,9.6558,0,9.7783-13.5527,10.54-17.706,10.54-9.2465,0-18.1679-4.6189-20.7443-10.7407l-.6451-1.539-16.2792,6.9027.6546,1.5323c4.8117,11.269,15.1857,18.3274,29.3065,19.99v10.8h17.5427V252.6912c13.45-1.5058,26.5308-10.0083,26.5308-26.1374C249.4663,204.6221,229.0812,202.1084,214.1881,200.27Z"/></g></g></svg>