<svg xmlns="http://www.w3.org/2000/svg" viewBox="0 0 512 512"><title>Euro_Currency</title><g id="Euro_Currency" data-name="Euro Currency"><g id="Euro_Currency-2" data-name="Euro Currency"><path d="M255.9981,120.7124A135.2876,135.2876,0,1,0,391.2857,256,135.2877,135.2877,0,0,0,255.9981,120.7124Zm-.0693,252.55A117.2728,117.2728,0,1,1,373.2043,255.99,117.4047,117.4047,0,0,1,255.9288,373.2623Z"/><path d="M255.9288,158.6706a97.3228,97.3228,0,1,0,97.3255,97.3228A97.43,97.43,0,0,0,255.9288,158.6706Zm17.2,154.3228a57.0127,57.0127,0,0,1-51.5669-32.891H200.3443v-19.95H216.348c-.1-1.3765-.21-2.7531-.21-4.1562s.11-2.7787.21-4.1563H200.3443V231.89h21.2173a56.9229,56.9229,0,0,1,89.4652-18.47L297.76,228.3227a36.9725,36.9725,0,0,0-52.6974,3.5672h28.2359v19.95H236.3379a34.6876,34.6876,0,0,0,0,8.3125h36.9607v19.95H245.0627a36.9786,36.9786,0,0,0,53.18,3.136l13.5261,14.6632A56.8322,56.8322,0,0,1,273.1285,312.9934Z"/></g></g></svg>