<svg xmlns="http://www.w3.org/2000/svg" viewBox="0 0 512 512"><title>Bank01</title><g id="Bank_01" data-name="Bank 01"><g id="Bank_01-2" data-name="Bank 01"><path d="M410.3049,191.0542,260.4776,115.1511a9.9677,9.9677,0,0,0-9.0146,0L100.9669,191.3934a9.9739,9.9739,0,0,0,4.5058,18.8727h27.7438V342.7844h-4.8478a9.9738,9.9738,0,0,0-9.975,9.975v35.1918a9.9743,9.9743,0,0,0,9.975,9.975H383.5653a9.9726,9.9726,0,0,0,9.975-9.975V352.7594a9.972,9.972,0,0,0-9.975-9.975h-2.2677V210.2632h25.1636a.25.25,0,0,0,.0665,0,9.9761,9.9761,0,0,0,3.7772-19.209Zm-154.336-55.823,108.7341,55.082H147.2376Zm105.3825,75.032V342.621h-26.125V210.2632Zm-92.4749,0V342.621H242.4257V210.2632Zm-92.8007,0V342.621H153.1665V210.2632ZM373.5941,377.9724h-235.25V362.7306H373.59v15.2418Z"/></g></g></svg>