<svg xmlns="http://www.w3.org/2000/svg" viewBox="0 0 512 512"><title>Credit_Card_None</title><g id="Credit_Card_None" data-name="Credit Card None"><g id="Credit_Card_None-2" data-name="Credit Card None"><path d="M355.1809,170.9265l28.2758-28.2758-14.1046-14.1046-42.0708,42.0717H161.4665c-19.5073,0-35.3809,14.4372-35.3809,32.1822V309.2038c0,16.3058,13.42,29.792,30.7363,31.87l-28.2758,28.2758,14.1047,14.1046,42.0707-42.0717H350.5326c19.5082,0,35.3818-14.4372,35.3818-32.1793V202.8C385.9172,186.4913,372.5013,173.0052,355.1809,170.9265ZM176.466,321.4332h-15c-8.5082,0-15.4309-5.4834-15.4309-12.2294V239.299H258.5963L221.9482,275.95H206.6437v15.3045Zm189.5012-12.2294c0,6.7431-6.9226,12.2294-15.4308,12.2294H204.6753L230.2075,295.9h13.0112V282.8888l43.5907-43.587h79.1578Z"/><rect x="164.1502" y="275.95" width="36.575" height="19.95"/></g></g></svg>