<svg xmlns="http://www.w3.org/2000/svg" viewBox="0 0 512 512"><title>Currency_Circulating</title><g id="Currency_Circulating" data-name="Currency Circulating"><g id="Currency_Circulating-2" data-name="Currency Circulating"><path d="M321.1586,256.0009a67.4676,67.4676,0,1,0-67.468,67.4709A67.4683,67.4683,0,0,0,321.1586,256.0009ZM220.3009,278.0362l-.6545-1.5333,15.0651-6.384.645,1.5361c2.318,5.5034,10.3541,9.6558,18.69,9.6558,3.7373,0,15.9268-.6811,15.9268-9.4164,0-4.5514-5.22-7.2884-16.4227-8.6184-12.0327-1.3433-30.2337-3.3782-30.2337-22.69,0-11.8037,8.7846-20.0592,23.5837-22.2841v-9.0535h16.226v9.0934c6.8827,1.2274,15.9106,4.2626,20.9779,14.6072l.7476,1.5257-13.8718,6.4172-.7648-1.273c-2.31-3.8171-9.3765-6.9226-15.7633-6.9226-5.4131,0-14.49,1.0241-14.49,7.89,0,5.0911,6.5436,6.2748,15.0955,7.2951,13.5755,1.6729,32.166,3.9634,32.166,24.0131,0,14.687-11.8569,22.45-24.0929,23.8707v10.317h-16.226v-9.8249C234.0864,294.7039,224.6738,288.2734,220.3009,278.0362Z"/><path d="M413.3038,236.2105l-24.6914,25.9151A136.7256,136.7256,0,0,0,273.4211,117.9773,137.3883,137.3883,0,0,0,132.8971,186.07l17.39,9.7755a117.3613,117.3613,0,0,1,120.0353-58.1637,116.7639,116.7639,0,0,1,98.3269,123.8562l-24.8178-23.6512L328.6361,253.82l35.5879,33.8989-.0133.0066L380.16,302.91l15.182-15.9163v-.01l33.9055-35.5775Z"/><path d="M241.6807,374.3177a116.766,116.766,0,0,1-98.3269-123.8562l24.8178,23.654,15.1952-15.9362L147.78,224.28l.0133-.0066L131.8426,209.089l-15.1819,15.9163v.01l-33.9084,35.58,15.9439,15.1952,24.6914-25.915A136.6237,136.6237,0,0,0,259.6128,395.668,137.52,137.52,0,0,0,379.1067,325.93l-17.39-9.7755A117.3625,117.3625,0,0,1,241.6807,374.3177Z"/></g></g></svg>