<svg xmlns="http://www.w3.org/2000/svg" viewBox="0 0 512 512"><title>Credit_Card_Denied</title><g id="Credit_Card_Denied" data-name="Credit Card Denied"><g id="Credit_Card_Denied-2" data-name="Credit Card Denied"><path d="M356.4112,316.1806c0,6.7431-6.9227,12.2294-15.4309,12.2294H151.91c-8.5082,0-15.4309-5.4825-15.4309-12.2294V246.2758h162.11a64.3023,64.3023,0,0,1-4.6483-68.6812H151.91c-19.5073,0-35.3809,14.4372-35.3809,32.1832V316.1844c0,17.7422,15.87,32.1793,35.3809,32.1793H340.98c19.5073,0,35.3809-14.4371,35.3809-32.1793V267.6527a64.0537,64.0537,0,0,1-19.95,5.0141Z"/><rect x="154.5941" y="282.9239" width="36.575" height="19.95"/><rect x="197.0838" y="282.9239" width="36.575" height="19.95"/><path d="M350.7853,163.6363A44.6833,44.6833,0,1,0,395.47,208.3214,44.7384,44.7384,0,0,0,350.7853,163.6363Zm26.1782,56.7482-14.1047,14.1046-12.0669-12.0668L338.726,234.4891l-14.1047-14.1046,12.066-12.0669-12.066-12.0659L338.726,182.147l12.0659,12.066,12.0669-12.066,14.1047,14.1047-12.0669,12.0659Z"/></g></g></svg>