<svg xmlns="http://www.w3.org/2000/svg" viewBox="0 0 512 512"><title>Bank02</title><g id="Bank_02" data-name="Bank 02"><g id="Bank_02-2" data-name="Bank 02"><path d="M410.304,191.0542,260.4757,115.1511a9.9656,9.9656,0,0,0-9.0136,0L100.9659,191.3934a9.9737,9.9737,0,0,0,4.5049,18.8727h27.7438V342.7844H128.4a9.9744,9.9744,0,0,0-9.975,9.975v35.1918a9.975,9.975,0,0,0,9.975,9.975H383.5976a9.9726,9.9726,0,0,0,9.975-9.975V352.7594a9.972,9.972,0,0,0-9.975-9.975H381.3V210.2632h25.1636a.25.25,0,0,0,.0665,0,9.9754,9.9754,0,0,0,3.7744-19.209Zm-154.337-55.823,108.7341,55.082H147.2366ZM361.35,210.2632V342.621h-26.124V210.2632Zm-134.08,83.64-.6555-1.5323,13.3-5.63.645,1.5334c1.9418,4.6084,8.6954,8.0825,15.7111,8.0825,3.1284,0,13.3295-.5614,13.3295-7.7805,0-3.7306-4.3757-5.9878-13.7855-7.105-10.3407-1.1571-25.9882-2.9061-25.9882-19.588,0-10.1413,7.4851-17.25,20.1068-19.2148v-7.751h14.3241v7.7938c5.9014,1.084,13.546,3.744,17.8581,12.5485l.7486,1.5267-12.2493,5.6686-.7714-1.273c-1.9285-3.1891-7.8641-5.7826-13.2269-5.7826-3.6442,0-12.1134.6318-12.1134,6.4838,0,3.7771,4.2626,4.9741,12.6616,5.9754,11.01,1.3529,27.6345,3.4011,27.6345,20.7148,0,12.5884-10.0785,19.2784-20.5418,20.5646v8.8246H249.9326V309.561C239.0266,308.1873,231.0133,302.6649,227.2694,293.9031Zm-51.1955-83.64V342.621H153.1646V210.2632ZM373.6226,377.9724H138.375V362.7306H373.6226Z"/></g></g></svg>