<svg xmlns="http://www.w3.org/2000/svg" viewBox="0 0 512 512"><title>Euro_Cash_x2</title><g id="Euro_Cash_x2" data-name="Euro Cash x2"><g id="Euro_Cash_x2-2" data-name="Euro Cash x2"><path d="M378.5973,164.5061h-200.39c-12.8378,0-23.244,9.0925-23.244,20.3169v2.7285H144.3752c-18.8654,0-34.2164,14.0374-34.2164,31.29v97.3626c0,17.2519,15.351,31.2894,34.2164,31.2894h200.39c18.8654,0,34.2165-14.0375,34.2165-31.2894v-13.72c12.6581-.1828,22.8593-9.1907,22.8593-20.2991V184.823C401.8412,173.5986,391.4351,164.5061,378.5973,164.5061Zm-21.56,151.6984c0,5.0652-5.6148,9.3444-12.2715,9.3444h-200.39c-6.6535,0-12.2714-4.2792-12.2714-9.3444V218.8419c0-5.0662,5.6179-9.3454,12.2714-9.3454h200.39c6.6567,0,12.2715,4.2792,12.2715,9.3454Z"/><path d="M257.3512,291.6261a24.1249,24.1249,0,0,1-21.4361-13.1346H257.48v-21.945H235.9151a24.0856,24.0856,0,0,1,37.4674-7.037l14.5861-16.3929a46.01,46.01,0,0,0-75.29,23.43H200.7007v21.945h11.9778a46.011,46.011,0,0,0,75.89,22.8887l-14.8714-16.1369A24.0523,24.0523,0,0,1,257.3512,291.6261Z"/></g></g></svg>