<svg xmlns="http://www.w3.org/2000/svg" viewBox="0 0 512 512"><title>Pound_Currency</title><g id="Pound_Currency" data-name="Pound Currency"><g id="Pound_Currency-2" data-name="Pound Currency"><path d="M255.9268,158.6706a97.3228,97.3228,0,1,0,97.3256,97.3227A97.431,97.431,0,0,0,255.9268,158.6706Zm-6.118,82.7231a46.78,46.78,0,0,0,2.6135,4.123,67.5951,67.5951,0,0,1,4.6978,7.7074h21.6723v19.95h-16.625c.0836,1.4164.1434,2.8757.1434,4.4317a34.8487,34.8487,0,0,1-3.0722,14.8267h32.7806v19.95H224.7013v-19.95c4.09-.057,17.66-1.2939,17.66-14.8267,0-1.6226-.0731-3.0723-.19-4.4317H219.9731v-19.95h13.6658c-.4921-.7914-.9842-1.5932-1.4526-2.4672-4.9675-9.3537-4.1895-21.1707,2.0881-31.6179,7.1317-11.8664,19.6442-19.5338,31.8735-19.5338,9.3062,0,19.84,4.5884,26.8394,11.6906,5.8786,5.9584,8.9243,13.1139,8.8113,20.6948l-19.95-.2859c.0332-2.148-1.0014-4.3026-3.0724-6.404-3.7145-3.77-9.1636-5.7456-12.6321-5.7456-5.207,0-11.285,4.0565-14.7763,9.862C248.7411,233.8051,248.153,238.2844,249.8088,241.3937Z"/><path d="M256,120.7124A135.2876,135.2876,0,1,0,391.2876,256,135.2892,135.2892,0,0,0,256,120.7124Zm-.0732,252.5537A117.2728,117.2728,0,1,1,373.2024,255.9933,117.4072,117.4072,0,0,1,255.9268,373.2661Z"/></g></g></svg>