<svg xmlns="http://www.w3.org/2000/svg" viewBox="0 0 512 512"><title>Wallet</title><g id="Wallet"><g id="Wallet-2" data-name="Wallet"><path d="M393.4868,237.057h-6.3641V224.3156a43.4961,43.4961,0,0,0-33.8219-42.3406l-.0332-25.09a33.5129,33.5129,0,0,0-33.4828-33.4656h-1.5789l-177.249,57.4426h-3.3222a43.4921,43.4921,0,0,0-43.4378,43.4512V345.13a43.4944,43.4944,0,0,0,43.4378,43.451H343.6821A43.4944,43.4944,0,0,0,387.12,345.13V332.3885h6.364a24.35,24.35,0,0,0,24.3192-24.3228V261.3732A24.3368,24.3368,0,0,0,393.4868,237.057ZM367.1727,345.1337a23.49,23.49,0,0,1-23.4878,23.5012h-206.05a23.4989,23.4989,0,0,1-23.4878-23.5012V224.3156a23.4963,23.4963,0,0,1,23.4878-23.5011H343.6821A23.4878,23.4878,0,0,1,367.17,224.3156V237.057H330.8837a24.3464,24.3464,0,0,0-24.3191,24.3162v46.6925a24.35,24.35,0,0,0,24.3191,24.3228h36.289Zm30.6869-37.068a4.377,4.377,0,0,1-4.369,4.3728H330.8837a4.3777,4.3777,0,0,1-4.3691-4.3728V261.3732a4.3721,4.3721,0,0,1,4.3691-4.3662h62.6031a4.3714,4.3714,0,0,1,4.369,4.3662v46.6925Z"/></g></g></svg>