<svg xmlns="http://www.w3.org/2000/svg" viewBox="0 0 512 512"><title>Dollar_Cash_x2</title><g id="Dollar_Cash_x2" data-name="Dollar Cash x2"><g id="Dollar_Cash_x2-2" data-name="Dollar Cash x2"><path d="M378.5972,164.5061H178.207c-12.8378,0-23.2439,9.0925-23.2439,20.3169v2.7285h-10.588c-18.8652,0-34.2163,14.0374-34.2163,31.29v97.3626c0,17.2519,15.3511,31.2894,34.2163,31.2894h200.39c18.8654,0,34.2164-14.0375,34.2164-31.2894v-13.72c12.6582-.1828,22.8594-9.1907,22.8594-20.2991V184.823C401.8412,173.5986,391.4351,164.5061,378.5972,164.5061Zm-21.56,151.6984c0,5.0652-5.6148,9.3444-12.2714,9.3444h-200.39c-6.6535,0-12.2713-4.2792-12.2713-9.3444V218.8419c0-5.0662,5.6178-9.3454,12.2713-9.3454h200.39c6.6566,0,12.2714,4.2792,12.2714,9.3454Z"/><path d="M244.9668,259.3043c-9.2346-1.1046-13.9277-2.4244-13.9277-6.5762,0-6.2031,8.3506-7.1279,13.3279-7.1279,5.9,0,12.4251,2.8528,14.5464,6.36l.8485,1.4014,13.4743-6.2366-.8235-1.6783c-4.7359-9.6923-13.1524-12.6152-19.6408-13.8034V223.07H237.0081v8.5251c-13.8839,2.1621-22.1164,9.9818-22.1164,21.133,0,18.346,17.2122,20.2741,28.59,21.55,10.3435,1.2216,15.161,3.7056,15.161,7.8124,0,7.9441-11.2214,8.5627-14.6594,8.5627-7.7173,0-15.1494-3.8226-17.2854-8.8919l-.71-1.69-14.6269,6.1958.7211,1.6866c4.1141,9.6339,12.9287,15.7053,24.9222,17.2268V314.42h15.7638v-9.7039c11.51-1.4191,22.5887-8.778,22.5887-22.6284C275.3648,263.05,257.0773,260.7934,244.9668,259.3043Z"/></g></g></svg>