<svg xmlns="http://www.w3.org/2000/svg" viewBox="0 0 512 512"><title>Calculator05</title><g id="Calculator_05" data-name="Calculator 05"><g id="Calculator_05-2" data-name="Calculator 05"><rect x="315.0192" y="142.9538" width="13.3" height="20.5086"/><path d="M353.3926,97.6435H158.6046a31.0717,31.0717,0,0,0-31.0327,31.0356V383.3209a31.0717,31.0717,0,0,0,31.0327,31.0356h194.788a31.0741,31.0741,0,0,0,31.0355-31.0356V128.6791A31.07,31.07,0,0,0,353.3926,97.6435Zm-54.9984,28.6853h46.55v53.7586h-46.55ZM246.0255,394.4064H158.6046a11.0972,11.0972,0,0,1-11.0827-11.0855V311.6272h98.5036Zm0-102.7291H147.5219V208.9018h98.5036Zm118.4526,91.6436a11.1,11.1,0,0,1-11.0855,11.0855H265.9755V311.6272h98.5026Zm0-91.6436H265.9755V208.9018h98.5026Z"/><polygon points="186.251 279.969 206.201 279.969 206.201 260.019 226.151 260.019 226.151 240.069 206.201 240.069 206.201 220.12 186.251 220.12 186.251 240.069 166.301 240.069 166.301 260.019 186.251 260.019 186.251 279.969"/><polygon points="301.267 278.258 315.372 264.153 329.476 278.258 343.581 264.153 329.476 250.044 343.581 235.937 329.476 221.832 315.372 235.941 301.267 221.832 287.162 235.937 301.267 250.044 287.162 264.153 301.267 278.258"/><rect x="166.3015" y="345.3627" width="59.85" height="19.95"/><rect x="285.4467" y="360.9436" width="59.85" height="19.95"/><rect x="285.4467" y="329.7751" width="59.85" height="19.95"/></g></g></svg>