<svg xmlns="http://www.w3.org/2000/svg" viewBox="0 0 512 512"><title>Calculator02</title><g id="Calculator_02" data-name="Calculator 02"><g id="Calculator_02-2" data-name="Calculator 02"><path d="M353.3978,110.9435H158.606a31.0717,31.0717,0,0,0-31.0327,31.0356V370.0209a31.0717,31.0717,0,0,0,31.0327,31.0356H353.3978a31.0684,31.0684,0,0,0,31.0289-31.0356V141.9791A31.0642,31.0642,0,0,0,353.3978,110.9435Zm-146.719,270.163H158.606a11.0973,11.0973,0,0,1-11.0827-11.0856V339.3378h59.1555Zm0-61.7187H147.5233V280.5917h59.1555Zm0-58.7461H147.5233v-38.44h59.1555Zm78.6923,120.4648H226.6288V339.3378h58.7423Zm0-61.7187H226.6288V280.5917h58.7423Zm0-58.7461H226.6288v-38.44h58.7423Zm13.0274-121.0129h46.5433v53.7586H298.3985Zm66.0782,230.3921a11.0941,11.0941,0,0,1-11.0789,11.0856H305.3211V339.3378h59.1556Zm0-50.6331H305.3211V280.5917h59.1556Zm0-58.7461H305.3211v-38.44h59.1556Z"/><rect x="315.0235" y="156.2538" width="13.2933" height="20.5086"/></g></g></svg>