<svg xmlns="http://www.w3.org/2000/svg" viewBox="0 0 512 512"><title>Dollar_Inspect</title><g id="Dollar_Inspect" data-name="Dollar Inspect"><g id="Dollar_Inspect-2" data-name="Dollar Inspect"><path d="M394.5571,332.2589l-47.9237-47.9206a126.2718,126.2718,0,1,0-59.2923,61.8191l46.67,46.67a42.82,42.82,0,1,0,60.5463-60.5682ZM379.0493,377.312a20.8567,20.8567,0,0,1-29.5234,0l-58.6767-58.6841a104.4312,104.4312,0,1,1,28.81-30.2329l59.3905,59.3905A20.86,20.86,0,0,1,379.0493,377.312Z"/><path d="M231.2173,162.6313a70.3228,70.3228,0,1,0,70.3191,70.3265A70.3238,70.3238,0,0,0,231.2173,162.6313Zm7.6766,106.2912v9.707H223.13v-9.2431c-11.9892-1.5142-20.8038-7.5856-24.9222-17.2268l-.72-1.6856,14.6259-6.1958.71,1.6888c2.136,5.07,9.5649,8.8919,17.2854,8.8919,3.438,0,14.6634-.6176,14.6634-8.5586,0-4.1037-4.8175-6.5866-15.164-7.8155-11.379-1.2729-28.5912-3.1967-28.5912-21.5469,0-11.1554,8.2336-18.9751,22.1174-21.1362v-8.5261h15.7639v8.5732c6.4884,1.1923,14.9006,4.1183,19.6439,13.8034l.8234,1.6793L245.887,217.567l-.8443-1.4c-2.1214-3.5081-8.6464-6.3609-14.55-6.3609-4.0086,0-13.3279.6949-13.3279,7.1321,0,4.1549,4.6889,5.4716,13.9277,6.5731,12.11,1.488,30.4012,3.7411,30.4012,22.7862C261.4868,260.1476,250.4045,267.5034,238.8939,268.9225Z"/></g></g></svg>