<svg xmlns="http://www.w3.org/2000/svg" viewBox="0 0 512 512"><title>Calculator04</title><g id="Calculator_04" data-name="Calculator 04"><g id="Calculator_04-2" data-name="Calculator 04"><path d="M185.6825,372.8751a25.2717,25.2717,0,0,0,25.2681,25.2681h90.0942a25.2726,25.2726,0,0,0,25.2727-25.2681V267.97H185.6825Zm87.2454-79.7875,16.9255,16.9256-50.7847,50.7836-16.9256-16.9245Z"/><path d="M301.0448,113.8568H210.9506a25.2717,25.2717,0,0,0-25.2681,25.2681V244.03h140.635V139.1249A25.2726,25.2726,0,0,0,301.0448,113.8568Zm-11.1,88.2543-16.9255,16.9255-16.929-16.929-16.93,16.929-16.9256-16.9255,16.93-16.929-16.93-16.93L239.16,151.3263l16.93,16.93,16.929-16.93,16.9255,16.9256-16.9255,16.93Z"/></g></g></svg>