<?xml version="1.0" encoding="UTF-8"?>
<!DOCTYPE svg PUBLIC "-//W3C//DTD SVG 1.1//EN" "http://www.w3.org/Graphics/SVG/1.1/DTD/svg11.dtd">
<!-- Creator: CorelDRAW -->
<svg xmlns="http://www.w3.org/2000/svg" xml:space="preserve" width="2048px" height="2048px" style="shape-rendering:geometricPrecision; text-rendering:geometricPrecision; image-rendering:optimizeQuality; fill-rule:evenodd; clip-rule:evenodd"
viewBox="0 0 2048 2048"
 xmlns:xlink="http://www.w3.org/1999/xlink">
 <defs>
  <style type="text/css">
   <![CDATA[
    .fil2 {fill:none}
    .fil1 {fill:#90A4AE}
    .fil0 {fill:#CFD8DC}
    .fil5 {fill:#F44336}
    .fil6 {fill:#F9A825}
    .fil7 {fill:#FBC02D}
    .fil8 {fill:#004D40;fill-rule:nonzero}
    .fil9 {fill:#00695C;fill-rule:nonzero}
    .fil3 {fill:#00796B;fill-rule:nonzero}
    .fil4 {fill:#F9A825;fill-rule:nonzero}
   ]]>
  </style>
   <clipPath id="id0">
    <path d="M1024 0c565.539,0 1024,458.461 1024,1024 0,565.539 -458.461,1024 -1024,1024 -565.539,0 -1024,-458.461 -1024,-1024 0,-565.539 458.461,-1024 1024,-1024z"/>
   </clipPath>
 </defs>
 <g id="Layer_x0020_1">
  <metadata id="CorelCorpID_0Corel-Layer"/>
  <path class="fil0" d="M1024 0c565.539,0 1024,458.461 1024,1024 0,565.539 -458.461,1024 -1024,1024 -565.539,0 -1024,-458.461 -1024,-1024 0,-565.539 458.461,-1024 1024,-1024z"/>
  <g style="clip-path:url(#id0)">
   <g id="_461743400">
    <g>
     <polygon id="_4600567841" class="fil1" points="1450.77,764.966 2586.66,1900.85 2588.41,1902.84 2590.11,1904.88 2591.75,1906.95 2593.35,1909.07 2594.89,1911.23 2596.39,1913.43 2597.83,1915.67 2599.22,1917.95 2600.55,1920.27 2601.84,1922.64 2603.08,1925.04 2604.26,1927.49 2605.4,1929.99 2606.48,1932.52 2607.51,1935.1 2608.49,1937.72 2609.42,1940.38 2610.3,1943.09 2611.13,1945.84 2611.92,1948.64 2612.65,1951.48 2613.33,1954.36 2613.96,1957.29 2614.54,1960.26 2615.07,1963.28 2615.55,1966.34 2615.99,1969.44 2616.37,1972.59 2616.71,1975.79 2616.99,1979.03 2617.23,1982.32 1481.35,846.439 1481.11,843.151 1480.83,839.909 1480.49,836.711 1480.11,833.56 1479.67,830.454 1479.19,827.394 1478.66,824.377 1478.08,821.405 1477.45,818.477 1476.77,815.596 1476.03,812.756 1475.25,809.962 1474.42,807.21 1473.54,804.503 1472.61,801.839 1471.63,799.217 1470.6,796.64 1469.51,794.105 1468.38,791.612 1467.2,789.162 1465.96,786.755 1464.67,784.39 1463.33,782.066 1461.95,779.784 1460.51,777.544 1459.01,775.346 1457.47,773.188 1455.87,771.071 1454.23,768.996 1452.53,766.961 "/>
     <polygon id="_460073344" class="fil1" points="1481.35,846.439 2617.23,1982.32 2617.41,1985.3 2617.58,1988.34 2617.74,1991.41 2617.88,1994.53 2618.02,1997.68 2618.14,2000.86 2618.25,2004.07 2618.35,2007.3 2618.44,2010.56 2618.52,2013.83 2618.6,2017.11 2618.66,2020.4 2618.72,2023.69 2618.77,2026.99 2618.81,2030.28 2618.84,2033.56 2618.87,2036.83 2618.89,2040.08 2618.91,2043.32 2618.92,2046.53 2618.93,2049.71 2618.93,2052.86 2618.93,2055.98 2618.93,2059.05 2618.92,2062.08 2618.91,2065.07 2618.9,2068 2618.88,2070.88 2618.87,2073.69 2618.85,2076.45 2618.84,2079.14 2618.82,2081.75 1482.94,945.868 1482.96,943.253 1482.97,940.567 1482.99,937.813 1483,934.996 1483.02,932.118 1483.03,929.186 1483.04,926.202 1483.05,923.17 1483.05,920.095 1483.05,916.979 1483.05,913.829 1483.04,910.646 1483.03,907.436 1483.01,904.201 1482.99,900.947 1482.96,897.676 1482.93,894.395 1482.89,891.105 1482.84,887.812 1482.78,884.518 1482.72,881.227 1482.64,877.946 1482.56,874.675 1482.47,871.422 1482.37,868.188 1482.26,864.977 1482.13,861.794 1482,858.644 1481.86,855.529 1481.7,852.454 1481.53,849.422 "/>
     <polygon id="_460060840" class="fil1" points="1482.94,945.868 2618.82,2081.75 2618.81,2083.97 1482.93,948.087 "/>
     <polygon id="_460069816" class="fil1" points="1482.93,948.087 2618.81,2083.97 2618.79,2087.1 1482.91,951.216 "/>
     <polygon id="_460071976" class="fil1" points="1482.91,951.216 2618.79,2087.1 2669.03,2221.21 1533.15,1085.33 "/>
     <polygon id="_460076056" class="fil1" points="1533.15,1085.33 2669.03,2221.21 2686.36,2260.36 1550.48,1124.48 "/>
     <polygon id="_460058728" class="fil1" points="1584,1127.2 2719.88,2263.08 2719.88,2285.48 1584,1149.6 "/>
     <polygon id="_460056808" class="fil1" points="1584,1149.6 2719.88,2285.48 2719.88,2392.75 1584,1256.87 "/>
     <polygon id="_460063624" class="fil1" points="1584,1256.87 2719.88,2392.75 2719.88,2415.15 1584,1279.27 "/>
     <polygon id="_460052128" class="fil1" points="1584,1279.27 2719.88,2415.15 2697.48,2415.15 1561.6,1279.27 "/>
     <polygon id="_460050712" class="fil1" points="1561.6,1279.27 2697.48,2415.15 2675.09,2415.15 1539.21,1279.27 "/>
     <polygon id="_460048480" class="fil1" points="1539.21,1279.27 2675.09,2415.15 2675.09,2437.48 1539.21,1301.6 "/>
     <polygon id="_460056736" class="fil1" points="1539.21,1301.6 2675.09,2437.48 2675.09,2459.88 1539.21,1324 "/>
     <polygon id="_460063984" class="fil1" points="1539.21,1324 2675.09,2459.88 2652.69,2459.88 1516.81,1324 "/>
     <polygon id="_460061704" class="fil1" points="1404.82,1279.27 2540.7,2415.15 2520.78,2415.15 2500.05,2415.15 2478.55,2415.15 2456.35,2415.15 2433.49,2415.15 2410.04,2415.15 2386.06,2415.15 2361.59,2415.15 2336.71,2415.15 2311.46,2415.15 2285.9,2415.15 2260.1,2415.15 2234.1,2415.15 2207.96,2415.15 2181.74,2415.15 2155.5,2415.15 2129.29,2415.15 2103.18,2415.15 2077.21,2415.15 2051.45,2415.15 2025.95,2415.15 2000.77,2415.15 1975.97,2415.15 1951.6,2415.15 1927.72,2415.15 1904.39,2415.15 1881.66,2415.15 1859.59,2415.15 1838.25,2415.15 1817.68,2415.15 1797.94,2415.15 1779.09,2415.15 643.204,1279.27 662.054,1279.27 681.794,1279.27 702.366,1279.27 723.713,1279.27 745.779,1279.27 768.506,1279.27 791.839,1279.27 815.718,1279.27 840.088,1279.27 864.89,1279.27 890.07,1279.27 915.569,1279.27 941.33,1279.27 967.296,1279.27 993.412,1279.27 1019.62,1279.27 1045.86,1279.27 1072.08,1279.27 1098.21,1279.27 1124.22,1279.27 1150.02,1279.27 1175.58,1279.27 1200.83,1279.27 1225.71,1279.27 1250.18,1279.27 1274.16,1279.27 1297.61,1279.27 1320.46,1279.27 1342.67,1279.27 1364.17,1279.27 1384.9,1279.27 "/>
     <polygon id="_460060432" class="fil1" points="1427.22,1324 2563.1,2459.88 2540.7,2459.88 1404.82,1324 "/>
     <polygon id="_460073032" class="fil1" points="1516.81,1324 2652.69,2459.88 2563.1,2459.88 1427.22,1324 "/>
     <polygon id="_460052056" class="fil1" points="643.204,1279.27 1779.09,2415.15 1779.09,2437.48 643.204,1301.6 "/>
     <polygon id="_460059784" class="fil1" points="643.204,1301.6 1779.09,2437.48 1779.09,2459.88 643.204,1324 "/>
     <polygon id="_460058776" class="fil1" points="643.204,1324 1779.09,2459.88 1756.69,2459.88 620.804,1324 "/>
     <polygon id="_460066864" class="fil1" points="509.182,1279.27 1645.06,2415.15 1622.28,2415.15 486.4,1279.27 "/>
     <polygon id="_460070056" class="fil1" points="486.4,1279.27 1622.28,2415.15 1599.88,2415.15 463.999,1279.27 "/>
     <polygon id="_460073152" class="fil1" points="620.804,1324 1756.69,2459.88 1667.46,2459.88 531.583,1324 "/>
     <polygon id="_460063216" class="fil1" points="531.583,1324 1667.46,2459.88 1645.06,2459.88 509.182,1324 "/>
    </g>
    <path id="_461727992" class="fil1" d="M672.939 723.997l690.597 0 3.49961 0.350788c35.5359,5.71654 62.6327,18.2728 81.9331,38.6646 19.5248,20.6291 30.1087,48.1087 32.3799,83.426 2.01024,31.5579 1.76102,71.9339 1.59095,99.4288l-0.0141732 2.21929 -0.0188977 3.12874 50.2465 134.117 17.3291 39.1453c3.7063,0.896457 7.41142,1.80354 11.1177,2.72008l22.4008 0 0 22.4008 0 107.271 0 22.4008 -22.4008 0 -22.3914 0 0 22.3299 0 22.4008 -22.4008 0 -89.5926 0 -22.3996 0 0 -22.4008 0 -22.3299c-207.834,0.0011811 -565.491,0.0011811 -761.612,0l0 22.3299 0 22.4008 -22.3996 0 -89.2217 0 -22.4008 0 0 -22.4008 0 -22.3299 -22.7823 0 -22.4008 0 0 -22.4008 0 -107.271 0 -22.4008 22.4008 0c4.18347,-1.03937 8.36812,-2.06693 12.5528,-3.0815l11.4827 -24.8799 54.4288 -145.282 0 -5.95512 0 -97.3217c0,-32.6256 12.1264,-63.8953 31.1103,-87.0024 19.8154,-24.1193 47.2713,-39.678 76.9654,-39.678z"/>
   </g>
  </g>
  <path class="fil2" d="M1024 0c565.539,0 1024,458.461 1024,1024 0,565.539 -458.461,1024 -1024,1024 -565.539,0 -1024,-458.461 -1024,-1024 0,-565.539 458.461,-1024 1024,-1024z"/>
  <path class="fil3" d="M564.864 948l0 -97.3217c0,-32.6256 12.1264,-63.8953 31.1103,-87.0024 19.8166,-24.1193 47.2713,-39.678 76.9654,-39.678l690.597 0 3.49961 0.350788c35.5359,5.71654 62.6327,18.2728 81.9331,38.6646 19.526,20.6291 30.1087,48.1087 32.3799,83.4249 2.00906,31.5591 1.75984,71.9339 1.58977,99.43l-0.0129921 2.21929 -0.133465 22.3134 -22.1799 0 -873.348 0 -22.4008 0 0 -22.4008z"/>
  <polygon class="fil4" points="611.837,955.787 536.308,1157.39 494.484,1141.81 570.012,940.213 "/>
  <polygon class="fil4" points="1478.78,940.213 1554.31,1141.81 1512.49,1157.39 1436.96,955.787 "/>
  <path class="fil5" d="M1080.67 870.662l198.775 0c12.7122,0 23.113,10.4008 23.113,23.113l0 64.6477c0,12.711 -10.4008,23.1118 -23.113,23.1118l-198.775 0c-12.711,0 -23.113,-10.3996 -23.113,-23.1118l0 -64.6477c0,-12.7134 10.4008,-23.113 23.113,-23.113z"/>
  <path class="fil5" d="M768.469 870.662l198.776 0c12.7122,0 23.1118,10.4008 23.1118,23.113l0 64.6477c0,12.711 -10.4008,23.1118 -23.1118,23.1118l-198.776 0c-12.711,0 -23.1118,-10.3996 -23.1118,-23.1118l0 -64.6477c0,-12.7134 10.3996,-23.113 23.1118,-23.113z"/>
  <path class="fil6" d="M569.895 970.4c318.833,-53.2418 624.334,-58.2213 912.377,0l79.3323 179.201 -1074.41 0 82.7032 -179.201z"/>
  <path class="fil7" d="M569.895 970.4c318.833,-53.2418 574.065,31.3784 862.107,89.5997l129.602 89.6009 -1074.41 0 82.7032 -179.201z"/>
  <path class="fil8" d="M463.999 1256.87l0 -107.273 0 -22.4008 22.4008 0c356.762,-88.6146 715.153,-89.0221 1075.2,0l22.4008 0 0 22.4008 0 107.273 0 22.4008 -22.4008 0 -22.3914 0 0 22.3288 0 22.4008 -22.4008 0 -89.5926 0 -22.3996 0 0 -22.4008 0 -22.3288 -761.612 0 0 22.3288 0 22.4008 -22.4008 0 -89.2217 0 -22.3996 0 0 -22.4008 0 -22.3288 -22.7823 0 -22.4008 0 0 -22.4008z"/>
  <path class="fil9" d="M1539.21 1279.27l0 22.3288 0 22.4008 -22.4008 0 -89.5926 0 -22.3996 0 0 -22.4008 0 -22.3288 -761.612 0 0 22.3288 0 22.4008 -22.4008 0 -89.2217 0 -22.3996 0 0 -22.4008 0 -22.3288c-93.3768,0 1263.45,0 1030.03,0z"/>
 </g>
</svg>
