<?xml version="1.0" encoding="UTF-8"?>
<!DOCTYPE svg PUBLIC "-//W3C//DTD SVG 1.1//EN" "http://www.w3.org/Graphics/SVG/1.1/DTD/svg11.dtd">
<!-- Creator: CorelDRAW -->
<svg xmlns="http://www.w3.org/2000/svg" xml:space="preserve" width="2048px" height="2048px" style="shape-rendering:geometricPrecision; text-rendering:geometricPrecision; image-rendering:optimizeQuality; fill-rule:evenodd; clip-rule:evenodd"
viewBox="0 0 2048 2048"
 xmlns:xlink="http://www.w3.org/1999/xlink">
 <defs>
  <style type="text/css">
   <![CDATA[
    .fil2 {fill:none}
    .fil8 {fill:#424242}
    .fil1 {fill:#90A4AE}
    .fil0 {fill:#CFD8DC}
    .fil6 {fill:#FFE082}
    .fil7 {fill:#FFECB3}
    .fil5 {fill:#039BE5;fill-rule:nonzero}
    .fil4 {fill:#29B6F6;fill-rule:nonzero}
    .fil3 {fill:#F9A825;fill-rule:nonzero}
   ]]>
  </style>
   <clipPath id="id0">
    <path d="M1024 0c565.539,0 1024,458.461 1024,1024 0,565.539 -458.461,1024 -1024,1024 -565.539,0 -1024,-458.461 -1024,-1024 0,-565.539 458.461,-1024 1024,-1024z"/>
   </clipPath>
 </defs>
 <g id="Layer_x0020_1">
  <metadata id="CorelCorpID_0Corel-Layer"/>
  <path class="fil0" d="M1024 0c565.539,0 1024,458.461 1024,1024 0,565.539 -458.461,1024 -1024,1024 -565.539,0 -1024,-458.461 -1024,-1024 0,-565.539 458.461,-1024 1024,-1024z"/>
  <g style="clip-path:url(#id0)">
   <g id="_461747744">
    <g>
     <path id="_4613287521" class="fil1" d="M1613.77 2405.83l0 0zm-1135.88 -1135.88l0 0z"/>
     <polygon id="_461354024" class="fil1" points="1122.21,571.352 2258.09,1707.23 2265.84,1716.43 2273.15,1726 2280.01,1735.94 2286.4,1746.23 2292.3,1756.86 2297.69,1767.8 2302.56,1779.06 2306.89,1790.6 2310.67,1802.43 2313.87,1814.52 2316.48,1826.85 2318.48,1839.43 2319.87,1852.22 2320.19,1856.68 2320.44,1861.13 2320.61,1865.57 2320.7,1869.99 2320.72,1874.4 2320.66,1878.8 2320.52,1883.17 2320.3,1887.53 2320.01,1891.88 2319.65,1896.2 2319.21,1900.51 2318.7,1904.79 2318.11,1909.06 2317.46,1913.3 2316.73,1917.52 2315.93,1921.72 2315.06,1925.9 2314.12,1930.06 2313.11,1934.19 2312.04,1938.29 2310.89,1942.37 2309.68,1946.42 2308.4,1950.44 2307.05,1954.44 2305.64,1958.4 2304.16,1962.34 2302.62,1966.25 2301.02,1970.13 2299.35,1973.97 2297.62,1977.78 2295.83,1981.56 2293.98,1985.31 1158.09,849.426 1159.95,845.681 1161.74,841.9 1163.47,838.088 1165.14,834.243 1166.74,830.366 1168.28,826.459 1169.76,822.521 1171.17,818.555 1172.52,814.56 1173.8,810.536 1175.01,806.484 1176.15,802.406 1177.23,798.303 1178.24,794.174 1179.18,790.02 1180.05,785.842 1180.85,781.642 1181.58,777.42 1182.23,773.175 1182.82,768.909 1183.33,764.624 1183.77,760.318 1184.13,755.993 1184.42,751.651 1184.64,747.291 1184.78,742.914 1184.84,738.52 1184.82,734.112 1184.73,729.689 1184.56,725.252 1184.31,720.803 1183.98,716.339 1182.6,703.545 1180.6,690.971 1177.99,678.634 1174.79,666.545 1171.01,654.721 1166.68,643.175 1161.81,631.921 1156.41,620.974 1150.52,610.35 1144.13,600.061 1137.27,590.122 1129.96,580.548 "/>
     <polygon id="_461351192" class="fil1" points="1545.62,1178.03 2681.51,2313.91 2681.46,2313.96 1545.58,1178.08 "/>
     <polygon id="_461339024" class="fil1" points="1568.05,1197.7 2703.93,2333.58 2704.92,2334.67 2705.88,2335.79 2706.81,2336.92 2707.71,2338.08 2708.58,2339.26 2709.43,2340.46 2710.24,2341.69 2711.03,2342.93 2711.79,2344.2 2712.51,2345.48 2713.2,2346.79 1577.32,1210.91 1576.63,1209.6 1575.9,1208.32 1575.15,1207.05 1574.36,1205.81 1573.55,1204.58 1572.7,1203.38 1571.83,1202.2 1570.93,1201.04 1569.99,1199.91 1569.04,1198.79 "/>
     <polygon id="_461338304" class="fil1" points="1577.32,1210.91 2713.2,2346.79 2713.87,2348.12 2714.49,2349.47 2715.09,2350.83 2715.65,2352.21 2716.17,2353.6 2716.67,2355 2717.12,2356.41 2717.54,2357.83 2717.93,2359.27 2718.28,2360.71 2718.6,2362.16 2718.88,2363.62 2719.13,2365.08 2719.34,2366.55 2719.52,2368.03 2719.66,2369.51 1583.78,1233.63 1583.64,1232.15 1583.46,1230.67 1583.25,1229.2 1583,1227.73 1582.72,1226.28 1582.4,1224.83 1582.05,1223.38 1581.66,1221.95 1581.24,1220.53 1580.78,1219.11 1580.29,1217.71 1579.77,1216.32 1579.21,1214.95 1578.61,1213.59 1577.98,1212.24 "/>
     <polygon id="_461350136" class="fil1" points="1583.78,1233.63 2719.66,2369.51 2719.68,2369.74 1583.8,1233.86 "/>
     <polygon id="_461336312" class="fil1" points="1583.8,1233.86 2719.68,2369.74 2719.78,2371.22 2719.85,2372.71 2719.88,2374.2 2719.87,2375.68 2719.84,2377.17 2719.76,2378.65 2719.65,2380.13 2719.5,2381.61 2719.32,2383.09 2719.1,2384.56 2718.85,2386.02 2718.56,2387.48 2718.23,2388.93 2717.87,2390.37 2717.46,2391.8 2717.03,2393.23 1581.15,1257.34 1581.58,1255.92 1581.98,1254.49 1582.35,1253.05 1582.67,1251.6 1582.97,1250.14 1583.22,1248.67 1583.44,1247.2 1583.62,1245.73 1583.77,1244.25 1583.88,1242.77 1583.95,1241.29 1583.99,1239.8 1584,1238.31 1583.97,1236.83 1583.9,1235.34 "/>
     <polygon id="_461334944" class="fil1" points="1581.15,1257.34 2717.03,2393.23 2716.56,2394.63 2716.05,2396.01 2715.52,2397.39 2714.95,2398.74 2714.34,2400.08 2713.7,2401.41 2713.03,2402.72 2712.33,2404.01 2711.6,2405.28 2710.84,2406.54 2710.04,2407.77 2709.22,2408.99 2708.36,2410.19 2707.48,2411.37 2706.56,2412.53 2705.62,2413.67 1569.74,1277.78 1570.68,1276.65 1571.6,1275.49 1572.48,1274.31 1573.34,1273.11 1574.16,1271.89 1574.96,1270.65 1575.72,1269.4 1576.45,1268.12 1577.15,1266.83 1577.82,1265.53 1578.46,1264.2 1579.06,1262.86 1579.63,1261.5 1580.17,1260.13 1580.68,1258.75 "/>
     <polygon id="_461355488" class="fil1" points="1569.74,1277.78 2705.62,2413.67 2703.79,2415.83 1567.91,1279.94 "/>
     <polygon id="_461337656" class="fil1" points="1567.91,1279.94 2703.79,2415.83 2702.82,2416.85 2701.82,2417.84 2700.81,2418.81 2699.77,2419.76 2698.72,2420.67 2697.64,2421.56 2696.55,2422.43 2695.44,2423.27 2694.31,2424.08 2693.16,2424.86 2692,2425.62 2690.82,2426.35 2689.63,2427.05 2688.41,2427.72 2687.19,2428.37 2685.95,2428.98 2684.69,2429.57 2683.42,2430.13 2682.14,2430.66 2680.85,2431.16 2679.54,2431.63 2678.22,2432.07 2676.89,2432.48 2675.55,2432.86 2674.2,2433.22 2672.84,2433.54 2671.47,2433.83 2670.09,2434.08 2668.7,2434.31 2667.3,2434.51 2665.9,2434.67 2664.49,2434.8 1528.61,1298.92 1530.02,1298.79 1531.42,1298.63 1532.82,1298.43 1534.21,1298.2 1535.59,1297.94 1536.96,1297.65 1538.32,1297.33 1539.67,1296.98 1541.01,1296.6 1542.34,1296.19 1543.66,1295.75 1544.97,1295.28 1546.26,1294.78 1547.54,1294.25 1548.81,1293.69 1550.07,1293.1 1551.31,1292.48 1552.53,1291.84 1553.74,1291.17 1554.94,1290.47 1556.12,1289.74 1557.28,1288.98 1558.43,1288.2 1559.56,1287.38 1560.67,1286.55 1561.76,1285.68 1562.84,1284.79 1563.89,1283.87 1564.93,1282.93 1565.94,1281.96 1566.94,1280.96 "/>
     <polygon id="_461342240" class="fil1" points="1528.61,1298.92 2664.49,2434.8 2662.62,2434.93 2660.75,2435 2658.89,2435.01 2657.02,2434.96 2655.16,2434.86 2653.3,2434.7 2651.44,2434.48 2649.6,2434.21 2647.76,2433.88 2645.93,2433.49 2644.12,2433.05 2642.32,2432.56 2640.54,2432 2638.77,2431.4 2637.02,2430.73 2635.3,2430.01 1499.42,1294.13 1501.14,1294.85 1502.89,1295.51 1504.66,1296.12 1506.44,1296.67 1508.24,1297.17 1510.05,1297.61 1511.88,1298 1513.71,1298.33 1515.56,1298.6 1517.41,1298.82 1519.27,1298.98 1521.14,1299.08 1523,1299.13 1524.87,1299.11 1526.74,1299.05 "/>
     <polygon id="_461342888" class="fil1" points="1499.42,1294.13 2635.3,2430.01 2620.09,2423.4 1484.21,1287.52 "/>
     <polygon id="_461347736" class="fil1" points="1393.41,1207.52 2529.29,2343.4 2486.48,2307 1350.6,1171.12 "/>
     <polygon id="_461359424" class="fil1" points="1258.28,1092.97 2394.17,2228.86 2215,2076.95 1079.12,941.066 "/>
     <polygon id="_461349152" class="fil1" points="1079.12,941.066 2215,2076.95 2211.67,2079.26 2208.3,2081.53 2204.89,2083.74 2201.45,2085.9 2197.96,2088 2194.44,2090.05 2190.87,2092.04 2187.28,2093.98 2183.64,2095.86 2179.97,2097.68 2176.26,2099.44 2172.52,2101.15 2168.75,2102.79 2164.94,2104.38 2161.1,2105.9 2157.22,2107.36 2153.32,2108.76 2149.38,2110.1 2145.41,2111.38 2141.41,2112.59 2137.38,2113.73 2133.32,2114.82 2129.24,2115.83 2125.12,2116.78 2120.98,2117.66 2116.81,2118.47 2112.61,2119.22 2108.39,2119.89 2104.14,2120.5 2099.87,2121.04 2095.57,2121.5 2091.25,2121.89 2090.13,2121.98 2089,2122.07 2087.88,2122.15 2086.76,2122.22 2085.64,2122.29 2084.52,2122.36 2083.4,2122.42 2082.29,2122.47 946.406,986.591 947.524,986.535 948.642,986.475 949.762,986.41 950.881,986.341 952.002,986.266 953.123,986.186 954.245,986.101 955.368,986.011 959.69,985.618 963.987,985.154 968.26,984.617 972.507,984.011 976.73,983.336 980.926,982.591 985.097,981.777 989.24,980.896 993.355,979.947 997.442,978.933 1001.5,977.851 1005.53,976.705 1009.53,975.494 1013.5,974.22 1017.43,972.882 1021.34,971.481 1025.22,970.018 1029.06,968.494 1032.87,966.909 1036.64,965.264 1040.38,963.559 1044.09,961.796 1047.76,959.974 1051.39,958.094 1054.99,956.159 1058.55,954.166 1062.08,952.118 1065.57,950.016 1069.01,947.858 1072.42,945.647 1075.79,943.383 "/>
     <polygon id="_461350352" class="fil1" points="1273.21,1248.57 2409.09,2384.45 2407.68,2384.54 2406.27,2384.56 2404.87,2384.51 2403.48,2384.41 2402.09,2384.24 2400.73,2384.01 2399.37,2383.72 2398.03,2383.37 2396.71,2382.96 2395.41,2382.5 2394.13,2381.97 2392.88,2381.38 2391.65,2380.74 2390.44,2380.04 2389.26,2379.28 2388.12,2378.47 1252.23,1242.59 1253.38,1243.4 1254.56,1244.16 1255.76,1244.86 1257,1245.5 1258.25,1246.09 1259.53,1246.61 1260.83,1247.08 1262.15,1247.49 1263.49,1247.84 1264.84,1248.13 1266.21,1248.36 1267.59,1248.53 1268.99,1248.63 1270.39,1248.67 1271.8,1248.65 "/>
     <polygon id="_461330096" class="fil1" points="1347.64,1323.47 2483.52,2459.35 2476.52,2453.4 1340.64,1317.52 "/>
     <polygon id="_461358872" class="fil1" points="1340.64,1317.52 2476.52,2453.4 2475.37,2452.38 2474.29,2451.31 1338.41,1315.42 1339.49,1316.5 "/>
     <polygon id="_461357792" class="fil1" points="1350.6,1171.12 2486.48,2307 2428.83,2375.09 1292.95,1239.21 "/>
     <polygon id="_461329328" class="fil1" points="1292.95,1239.21 2428.83,2375.09 2427.83,2376.08 2426.8,2377.02 2425.72,2377.91 2424.61,2378.75 2423.46,2379.54 2422.29,2380.27 2421.08,2380.95 2419.84,2381.57 2418.58,2382.14 2417.29,2382.64 2415.97,2383.1 2414.63,2383.49 2413.28,2383.82 2411.9,2384.09 2410.5,2384.3 2409.09,2384.45 1273.21,1248.57 1274.62,1248.42 1276.02,1248.21 1277.4,1247.94 1278.75,1247.61 1280.09,1247.21 1281.41,1246.76 1282.7,1246.25 1283.96,1245.69 1285.2,1245.07 1286.41,1244.39 1287.58,1243.66 1288.73,1242.87 1289.84,1242.03 1290.92,1241.14 1291.95,1240.2 "/>
     <polygon id="_461350472" class="fil1" points="1408.28,1363.05 2544.17,2498.93 2542.62,2499.02 2541.09,2499.03 2539.56,2498.97 2538.05,2498.84 2536.55,2498.63 2535.06,2498.34 2533.59,2497.99 2532.15,2497.56 2530.72,2497.07 2529.32,2496.5 2527.95,2495.86 2526.61,2495.16 2525.3,2494.39 2524.02,2493.55 2522.78,2492.65 2521.58,2491.68 1385.69,1355.79 1386.9,1356.76 1388.14,1357.67 1389.42,1358.51 1390.73,1359.28 1392.07,1359.98 1393.44,1360.62 1394.84,1361.18 1396.26,1361.68 1397.71,1362.11 1399.18,1362.46 1400.66,1362.74 1402.17,1362.95 1403.68,1363.09 1405.21,1363.15 1406.74,1363.14 "/>
     <polygon id="_461359040" class="fil1" points="1385.69,1355.79 2521.58,2491.68 2483.52,2459.42 1347.64,1323.54 "/>
     <polygon id="_461338952" class="fil1" points="1252.23,1242.59 2388.12,2378.47 2341.59,2339.04 1205.71,1203.16 "/>
     <polygon id="_461355440" class="fil1" points="1205.71,1203.16 2341.59,2339.04 2341.51,2338.98 1205.63,1203.09 "/>
     <polygon id="_461339672" class="fil1" points="1205.63,1203.09 2341.51,2338.98 2340.36,2337.95 2339.26,2336.87 1203.38,1200.99 1204.48,1202.06 "/>
     <polygon id="_461331512" class="fil1" points="1484.21,1287.52 2620.09,2423.4 2565.26,2488.08 1429.38,1352.19 "/>
     <polygon id="_461354960" class="fil1" points="1429.38,1352.19 2565.26,2488.08 2564.24,2489.23 2563.16,2490.33 2562.04,2491.36 2560.87,2492.34 2559.66,2493.25 2558.41,2494.1 2557.12,2494.89 2555.8,2495.61 2554.44,2496.27 2553.05,2496.86 2551.63,2497.38 2550.19,2497.83 2548.72,2498.22 2547.22,2498.53 2545.7,2498.77 2544.17,2498.93 1408.28,1363.05 1409.82,1362.88 1411.34,1362.64 1412.83,1362.33 1414.31,1361.95 1415.75,1361.5 1417.17,1360.98 1418.56,1360.39 1419.92,1359.73 1421.24,1359.01 1422.53,1358.22 1423.78,1357.37 1424.99,1356.46 1426.16,1355.48 1427.28,1354.44 1428.36,1353.35 "/>
     <polygon id="_461355152" class="fil1" points="946.406,986.591 2082.29,2122.47 2081.18,2125.75 2080.05,2129.01 2078.9,2132.25 2077.73,2135.47 2076.54,2138.66 2075.33,2141.84 2074.09,2144.99 2072.84,2148.12 2071.57,2151.22 2070.28,2154.29 2068.98,2157.34 2067.65,2160.36 2066.31,2163.36 2064.96,2166.32 2063.58,2169.25 2062.2,2172.15 2060.79,2175.01 2059.38,2177.84 2057.95,2180.64 2056.51,2183.4 2055.05,2186.13 2053.58,2188.81 2052.11,2191.46 2050.62,2194.07 2049.12,2196.64 2047.61,2199.16 2046.09,2201.65 2044.56,2204.09 2043.02,2206.48 2041.48,2208.83 2039.93,2211.13 2038.37,2213.39 902.489,1077.51 904.047,1075.25 905.599,1072.95 907.143,1070.6 908.679,1068.2 910.207,1065.76 911.727,1063.28 913.236,1060.75 914.736,1058.19 916.226,1055.58 917.703,1052.93 919.17,1050.25 920.625,1047.52 922.068,1044.76 923.498,1041.96 924.914,1039.13 926.314,1036.26 927.702,1033.37 929.075,1030.44 930.431,1027.47 931.771,1024.48 933.095,1021.46 934.402,1018.41 935.69,1015.34 936.961,1012.23 938.213,1009.11 939.445,1005.96 940.658,1002.78 941.851,999.583 943.021,996.365 944.172,993.126 945.301,989.867 "/>
     <polygon id="_461335496" class="fil1" points="902.489,1077.51 2038.37,2213.39 2055.96,2231.22 920.077,1095.34 "/>
     <polygon id="_461333288" class="fil1" points="920.077,1095.34 2055.96,2231.22 2229.12,2406.82 1093.24,1270.94 "/>
     <polygon id="_461336120" class="fil1" points="1093.24,1270.94 2229.12,2406.82 2230.27,2408.03 2231.38,2409.27 2232.42,2410.55 2233.42,2411.85 2234.36,2413.19 2235.25,2414.55 2236.09,2415.94 2236.87,2417.36 2237.6,2418.8 2238.27,2420.26 2238.89,2421.74 2239.45,2423.24 2239.96,2424.75 2240.41,2426.28 2240.81,2427.82 2241.15,2429.37 1105.27,1293.49 1104.93,1291.94 1104.53,1290.4 1104.08,1288.87 1103.57,1287.35 1103.01,1285.86 1102.39,1284.38 1101.72,1282.92 1100.99,1281.48 1100.21,1280.06 1099.37,1278.67 1098.48,1277.31 1097.54,1275.97 1096.54,1274.66 1095.49,1273.39 1094.39,1272.15 "/>
     <polygon id="_461331584" class="fil1" points="1105.27,1293.49 2241.15,2429.37 2241.43,2430.95 2241.66,2432.53 2241.83,2434.12 2241.94,2435.73 2241.99,2437.34 2241.98,2438.95 2241.92,2440.57 2241.79,2442.18 2241.61,2443.8 2241.37,2445.42 2241.06,2447.03 2240.7,2448.64 2240.27,2450.24 2239.79,2451.83 2239.24,2453.41 2238.63,2454.97 1102.75,1319.09 1103.36,1317.52 1103.91,1315.95 1104.39,1314.36 1104.82,1312.76 1105.18,1311.15 1105.49,1309.54 1105.73,1307.92 1105.91,1306.3 1106.04,1304.68 1106.1,1303.07 1106.11,1301.45 1106.06,1299.84 1105.95,1298.24 1105.78,1296.65 1105.55,1295.06 "/>
     <polygon id="_461333240" class="fil1" points="1102.75,1319.09 2238.63,2454.97 2238.6,2454.96 1102.72,1319.08 "/>
     <polygon id="_461346272" class="fil1" points="1102.72,1319.08 2238.6,2454.96 2237.93,2456.5 2237.22,2458 2236.44,2459.47 2235.62,2460.9 2234.75,2462.3 2233.83,2463.66 2232.86,2464.98 2231.84,2466.26 2230.79,2467.5 2229.69,2468.69 2228.55,2469.85 2227.37,2470.96 2226.16,2472.03 2224.9,2473.04 2223.62,2474.02 2222.3,2474.94 1086.42,1339.06 1087.74,1338.13 1089.02,1337.16 1090.28,1336.14 1091.49,1335.08 1092.67,1333.97 1093.81,1332.81 1094.91,1331.61 1095.96,1330.37 1096.98,1329.09 1097.94,1327.77 1098.87,1326.41 1099.74,1325.02 1100.56,1323.58 1101.33,1322.12 1102.05,1320.61 "/>
     <polygon id="_461343152" class="fil1" points="1086.42,1339.06 2222.3,2474.94 2220.93,2475.82 2219.54,2476.66 2218.12,2477.44 2216.67,2478.17 2215.19,2478.85 2213.69,2479.47 2212.17,2480.05 2210.63,2480.56 2209.06,2481.02 2207.48,2481.42 2205.88,2481.76 2204.26,2482.05 2202.63,2482.27 2200.98,2482.43 2199.33,2482.53 2197.66,2482.56 1061.78,1346.68 1063.45,1346.64 1065.1,1346.55 1066.75,1346.39 1068.38,1346.16 1069.99,1345.88 1071.59,1345.54 1073.18,1345.14 1074.74,1344.68 1076.29,1344.16 1077.81,1343.59 1079.31,1342.97 1080.79,1342.29 1082.24,1341.55 1083.66,1340.77 1085.05,1339.94 "/>
     <polygon id="_461358104" class="fil1" points="1061.78,1346.68 2197.66,2482.56 2162.67,2482.56 1026.79,1346.68 "/>
     <polygon id="_461335664" class="fil1" points="1026.79,1346.68 2162.67,2482.56 2162.67,2652.45 1026.79,1516.57 "/>
     <polygon id="_461344856" class="fil1" points="1026.79,1516.57 2162.67,2652.45 2162.61,2654.73 2162.44,2656.98 2162.15,2659.19 2161.76,2661.38 2161.26,2663.52 2160.66,2665.63 2159.96,2667.69 2159.16,2669.71 2158.26,2671.67 2157.28,2673.59 2156.2,2675.45 2155.04,2677.26 2153.8,2679 2152.47,2680.69 2151.07,2682.3 2149.6,2683.85 1013.71,1547.97 1015.19,1546.42 1016.59,1544.81 1017.92,1543.12 1019.16,1541.38 1020.32,1539.57 1021.4,1537.71 1022.38,1535.79 1023.27,1533.82 1024.07,1531.81 1024.78,1529.74 1025.38,1527.64 1025.88,1525.49 1026.27,1523.31 1026.56,1521.09 1026.73,1518.85 "/>
     <polygon id="_461355344" class="fil1" points="1013.71,1547.97 2149.6,2683.85 2148.04,2685.34 2146.41,2686.75 2144.72,2688.08 2142.97,2689.34 2141.16,2690.5 2139.29,2691.59 2137.36,2692.58 2135.39,2693.48 2133.37,2694.29 2131.3,2694.99 2129.19,2695.6 2127.04,2696.1 2124.86,2696.5 2122.64,2696.78 2120.39,2696.96 2118.11,2697.02 982.227,1561.14 984.505,1561.08 986.755,1560.9 988.974,1560.62 991.159,1560.22 993.309,1559.72 995.418,1559.11 997.485,1558.4 999.509,1557.6 1001.48,1556.7 1003.41,1555.71 1005.27,1554.62 1007.09,1553.45 1008.84,1552.2 1010.53,1550.87 1012.16,1549.46 "/>
     <polygon id="_461338376" class="fil1" points="802.764,1398.56 1938.65,2534.44 1921.17,2534.44 785.292,1398.56 "/>
     <polygon id="_461336144" class="fil1" points="763.905,1398.56 1899.79,2534.44 1899.79,2652.45 763.905,1516.57 "/>
     <polygon id="_461359208" class="fil1" points="785.292,1398.56 1921.17,2534.44 1920.94,2534.44 785.057,1398.56 "/>
     <polygon id="_461338064" class="fil1" points="785.057,1398.56 1920.94,2534.44 1899.79,2534.44 763.905,1398.56 "/>
     <polygon id="_461343008" class="fil1" points="982.227,1561.14 2118.11,2697.02 1983.2,2697.02 847.323,1561.14 "/>
     <polygon id="_461359592" class="fil1" points="847.323,1561.14 1983.2,2697.02 1980.93,2696.96 1978.68,2696.78 1976.46,2696.5 1974.27,2696.1 1972.12,2695.6 1970.01,2694.99 1967.95,2694.29 1965.92,2693.48 1963.95,2692.58 1962.03,2691.59 1960.16,2690.5 1958.34,2689.34 1956.59,2688.08 1954.9,2686.75 1953.27,2685.34 817.393,1549.46 819.018,1550.87 820.709,1552.2 822.462,1553.45 824.275,1554.62 826.145,1555.71 828.068,1556.7 830.042,1557.6 832.065,1558.4 834.132,1559.11 836.241,1559.72 838.391,1560.22 840.576,1560.62 842.795,1560.9 845.045,1561.08 "/>
     <polygon id="_461337560" class="fil1" points="763.905,1516.57 1899.79,2652.45 1899.73,2654.73 1899.55,2656.98 1899.27,2659.19 1898.88,2661.38 1898.38,2663.52 1897.78,2665.63 1897.07,2667.69 1896.27,2669.71 1895.38,2671.67 1894.39,2673.59 1893.32,2675.45 1892.16,2677.26 1890.91,2679 1889.59,2680.69 1888.19,2682.3 1886.71,2683.85 750.833,1547.97 752.308,1546.42 753.71,1544.8 755.033,1543.12 756.277,1541.38 757.438,1539.57 758.513,1537.71 759.499,1535.79 760.393,1533.82 761.193,1531.81 761.894,1529.74 762.497,1527.64 762.996,1525.49 763.39,1523.31 763.673,1521.09 763.847,1518.85 "/>
     <polygon id="_461350496" class="fil1" points="464.092,1302.13 1599.97,2438.01 1599.88,2438.01 464,1302.13 "/>
     <polygon id="_461359832" class="fil1" points="508.344,1346.68 1644.23,2482.56 1642.56,2482.53 1640.91,2482.43 1639.26,2482.28 1637.63,2482.06 1636,2481.78 1634.4,2481.45 1632.8,2481.05 1631.23,2480.6 1629.67,2480.09 1628.14,2479.52 1626.62,2478.9 1625.13,2478.22 1623.67,2477.49 1622.23,2476.7 1620.82,2475.86 1619.44,2474.97 483.56,1339.09 484.94,1339.98 486.35,1340.82 487.787,1341.6 489.252,1342.34 490.743,1343.02 492.255,1343.64 493.791,1344.21 495.346,1344.72 496.922,1345.17 498.514,1345.56 500.122,1345.9 501.744,1346.18 503.379,1346.39 505.026,1346.55 506.68,1346.64 "/>
     <polygon id="_461329784" class="fil1" points="577.528,1561.14 1713.41,2697.02 1711.13,2696.96 1708.88,2696.79 1706.67,2696.5 1704.48,2696.11 1702.34,2695.61 1700.23,2695.01 1698.17,2694.31 1696.15,2693.5 1694.19,2692.61 1692.27,2691.62 1690.41,2690.55 1688.6,2689.39 1686.86,2688.14 1685.17,2686.82 549.292,1550.94 550.974,1552.26 552.72,1553.51 554.524,1554.67 556.387,1555.74 558.304,1556.73 560.272,1557.62 562.289,1558.42 564.351,1559.12 566.457,1559.73 568.603,1560.23 570.786,1560.62 573.003,1560.9 575.25,1561.08 "/>
     <polygon id="_461347832" class="fil1" points="532.961,1346.68 1668.84,2482.56 1644.23,2482.56 508.344,1346.68 "/>
     <polygon id="_461353304" class="fil1" points="483.56,1339.09 1619.44,2474.97 1618.1,2474.03 1616.8,2473.05 1615.53,2472.02 479.652,1336.14 480.919,1337.17 482.222,1338.15 "/>
     <polygon id="_461344424" class="fil1" points="719.347,1561.14 1855.23,2697.02 1713.41,2697.02 577.528,1561.14 "/>
     <polygon id="_461353016" class="fil1" points="750.833,1547.97 1886.71,2683.85 1885.16,2685.34 1883.53,2686.75 1881.84,2688.08 1880.09,2689.33 1878.27,2690.5 1876.4,2691.59 1874.48,2692.58 1872.51,2693.48 1870.48,2694.29 1868.42,2694.99 1866.31,2695.6 1864.16,2696.1 1861.97,2696.5 1859.76,2696.78 1857.51,2696.96 1855.23,2697.02 719.347,1561.14 721.625,1561.08 723.875,1560.9 726.093,1560.62 728.279,1560.22 730.427,1559.72 732.537,1559.11 734.604,1558.4 736.626,1557.6 738.601,1556.7 740.523,1555.7 742.393,1554.62 744.206,1553.45 745.959,1552.2 747.65,1550.87 749.275,1549.45 "/>
    </g>
    <path id="_461741432" class="fil1" d="M477.892 1269.95l0 0zm436.419 -782.225c137.6,-11.3374 258.336,91.017 269.673,228.614 3.92717,47.6681 -5.78977,93.3131 -25.8898,133.087l387.531 328.599 -0.046063 0.0543308 17.1461 14.5323c6.01772,5.1 10.9866,11.2784 14.5961,18.2953 3.63189,7.05945 5.78622,14.8158 6.46182,22.7185l0.0188977 0.230315c0.628347,7.91457 -0.225591,15.9225 -2.65512,23.4874 -2.41299,7.51418 -6.30355,14.4225 -11.4059,20.4414l-1.82953 2.15906c-10.2685,11.0232 -24.2173,17.7343 -39.3048,18.978 -9.94253,0.818505 -20.0374,-0.810237 -29.1898,-4.79055l-15.2043 -6.61064 -54.8292 64.6737c-5.34804,6.30709 -12.8563,10.174 -21.098,10.8532 -8.24174,0.679134 -16.2815,-1.9063 -22.591,-7.25434l-38.0504 -32.2512 -0.00708662 -0.0744095 -6.99922 -5.94922c-6.26221,-5.32205 -10.063,-12.7984 -10.7374,-20.9811l-0.198425 -2.3941c-0.0318898,-7.34764 2.56772,-14.3976 7.35591,-20.0587l5.98819 -7.08071 -0.00590552 -0.0755906 50.3705 -59.4071 -42.8138 -36.3992 -57.6437 68.0859c-5.22402,5.42363 -12.1736,8.73662 -19.7421,9.36024 -7.55552,0.622441 -14.9398,-1.5 -20.9764,-5.97874l-46.526 -39.43 -0.0755906 -0.0649607c-6.3,-5.35985 -10.2012,-12.8386 -10.8815,-21.0898 -0.681497,-8.27835 2.00551,-16.2957 7.33111,-22.6441l5.84646 -6.96851 -0.00236221 -0.0248032 50.3587 -59.393 -179.165 -151.908c-35.2925,24.9862 -77.5335,41.1366 -123.751,44.9445 -2.99528,0.246851 -5.98347,0.43937 -8.96221,0.579922 -11.6752,35.0457 -27.2622,67.1127 -43.917,90.9154l17.5878 17.8358 173.16 175.599c6.29646,6.33544 10.3677,14.2429 12.0284,22.5496 1.6689,8.34804 0.894095,17.2843 -2.51221,25.5981l-0.034252 -0.0129921c-3.40276,8.27953 -9.17717,15.189 -16.3039,19.9819 -7.17993,4.83189 -15.7311,7.61693 -24.6331,7.61693l-34.9961 0 0 169.893c0,12.215 -5.00552,23.3327 -13.0713,31.4008 -8.1189,8.12363 -19.2697,13.1658 -31.4882,13.1658l-134.903 0c-12.2185,0 -23.3693,-5.04213 -31.4882,-13.1658 -8.06694,-8.06812 -13.0713,-19.1858 -13.0713,-31.4008l0 -118.01 -17.4721 0 -0.23504 0 -21.1524 0 0 118.01c0,12.2138 -5.00788,23.3315 -13.0713,31.3996 -8.12008,8.12245 -19.2709,13.1669 -31.4859,13.1669l-141.82 0c-12.215,0 -23.3327,-5.00788 -31.3996,-13.0736l-0.0933072 -0.0933072c-8.06457,-8.06694 -13.0736,-19.1835 -13.0736,-31.3996l0 -169.893 -24.6166 0c-8.89135,0 -17.5075,-2.69173 -24.7843,-7.58859 -7.22717,-4.86024 -13.024,-11.8063 -16.3713,-20.3681 -1.04055,-2.65276 -1.82008,-5.36575 -2.34213,-8.10119l0 -0.0933072c-0.501969,-2.6374 -0.752363,-5.45315 -0.754725,-8.39646l-0.0921261 0 0 -0.112205 0.0921261 -0.0933072c0.0307087,-6.08741 1.2189,-12.0012 3.5315,-17.3776 2.29725,-5.33859 5.72835,-10.3146 10.2685,-14.5949l220.299 -213.826c-1.39606,-1.55433 -2.79921,-3.35906 -4.20355,-5.40119 -41.5323,-60.3768 -33.3638,-164.539 3.28347,-235.857 -5.9752,-18.2528 -9.92835,-37.4894 -11.5748,-57.4689 -11.3374,-137.597 91.017,-258.334 228.614,-269.672z"/>
   </g>
  </g>
  <path class="fil2" d="M1024 0c565.539,0 1024,458.461 1024,1024 0,565.539 -458.461,1024 -1024,1024 -565.539,0 -1024,-458.461 -1024,-1024 0,-565.539 458.461,-1024 1024,-1024z"/>
  <path class="fil3" d="M770.957 795.648c-3.28701,2.26063 -3.79134,3.01654 -6.98504,6.21024 -46.0181,46.0181 -70.0276,165.046 -30.9236,221.894 0.0425197,0.0637796 0.00472441,-0.0248032 0.15,0.120473l-33.6662 33.6673c-1.83662,-1.83662 -3.68977,-4.12087 -5.5441,-6.81733 -52.0654,-75.6898 -26.0232,-220.191 36.3166,-282.531 4.84016,-4.84016 7.84371,-7.66772 13.9701,-11.8819l26.6823 39.3378z"/>
  <path class="fil4" d="M785.057 1398.56l-21.1524 0 0 118.01c0,12.2138 -5.00788,23.3315 -13.0713,31.3996 -8.12008,8.12245 -19.2709,13.1669 -31.4859,13.1669l-141.82 0c-12.215,0 -23.3327,-5.00788 -31.3996,-13.0736l-0.0933072 -0.0933072c-8.06457,-8.06694 -13.0736,-19.1835 -13.0736,-31.3996l0 -169.893 -24.6166 0c-8.89135,0 -17.5075,-2.69173 -24.7843,-7.58859 -7.22717,-4.86024 -13.024,-11.8063 -16.3713,-20.3681 -1.04055,-2.65276 -1.82008,-5.36575 -2.34213,-8.10119l0 -0.0933072c-0.501969,-2.6374 -0.752363,-5.45315 -0.754725,-8.39646l-0.0921261 0 0 -0.112205 0.0921261 -0.0933072c0.0307087,-6.08741 1.2189,-12.0012 3.5315,-17.3776 2.29725,-5.33859 5.72835,-10.3146 10.2638,-14.5996l0.00472441 0.00472441 282.317 -274.021 0.0011811 0.0011811c7.0252,-6.90237 15.7807,-10.9075 24.8469,-12.1099l0 414.739z"/>
  <path class="fil5" d="M920.077 1095.34l173.16 175.599c6.29646,6.33544 10.3677,14.2429 12.0284,22.5496 1.6689,8.34804 0.894095,17.2843 -2.51221,25.5981l-0.034252 -0.0129921c-3.40276,8.27953 -9.17717,15.189 -16.3039,19.9819 -7.17993,4.83189 -15.7311,7.61693 -24.6331,7.61693l-34.9961 0 0 169.893c0,12.215 -5.00552,23.3327 -13.0713,31.4008 -8.1189,8.12363 -19.2697,13.1658 -31.4882,13.1658l-134.903 0c-12.2185,0 -23.3693,-5.04213 -31.4882,-13.1658 -8.06694,-8.06812 -13.0713,-19.1858 -13.0713,-31.4008l0 -118.01 -17.4721 0 -0.23504 0 0 -414.739c0.291733,-0.0389764 0.585827,-0.0744095 0.878741,-0.10748 1.84016,-0.207874 3.68859,-0.3 5.53819,-0.27874l0 0.00236221c11.3209,0.153543 22.6169,4.55552 31.0831,13.0169l0.186614 0.185433 29.2406 29.6528 68.093 69.0508z"/>
  <path class="fil6" d="M1207.93 1152.37l0.00236221 0.0248032 -5.84646 6.96851c-5.32559,6.34843 -8.0126,14.3658 -7.33111,22.6441 0.680315,8.25119 4.5815,15.7299 10.8815,21.0898l0.0755906 0.0649607 46.526 39.43c6.03662,4.47874 13.4209,6.60119 20.9764,5.97874 7.56851,-0.623623 14.5181,-3.93662 19.7421,-9.36024l57.6437 -68.0859 42.8138 36.3992 -50.3705 59.4071 0.00590552 0.0755906 -5.98819 7.08071c-4.78819,5.66103 -7.3878,12.711 -7.35591,20.0587l0.198425 2.3941c0.67441,8.18268 4.4752,15.6591 10.7374,20.9811l6.99922 5.94922 0.00708662 0.0744095 38.0504 32.2512c6.30945,5.34804 14.3492,7.93347 22.591,7.25434 8.24174,-0.679134 15.75,-4.54607 21.098,-10.8532l54.8292 -64.6737 15.2043 6.61064c9.15237,3.98032 19.2473,5.60906 29.1898,4.79055 15.0874,-1.2437 29.0362,-7.95473 39.3048,-18.978l1.82953 -2.15906c5.10237,-6.0189 8.99292,-12.9272 11.4059,-20.4414 2.42953,-7.56497 3.28347,-15.5728 2.65512,-23.4874l-0.0188977 -0.230315c-0.675591,-7.90276 -2.82992,-15.6591 -6.46182,-22.7185 -3.60945,-7.01693 -8.57835,-13.1953 -14.5961,-18.2953l-17.1461 -14.5323 0.046063 -0.0543308 -410.413 -348.003 -78.2186 92.2831 201.292 170.668 -50.3587 59.393z"/>
  <path class="fil7" d="M914.311 487.725c137.599,-11.3386 258.336,91.017 269.673,228.614 11.3374,137.599 -91.017,258.334 -228.616,269.672 -137.597,11.3386 -258.334,-91.017 -269.672,-228.616 -11.3374,-137.597 91.017,-258.333 228.614,-269.671zm11.8406 143.693c58.239,-4.79882 109.342,38.5229 114.141,96.7619 4.79882,58.239 -38.524,109.341 -96.7631,114.139 -58.239,4.79882 -109.341,-38.5229 -114.139,-96.7619 -4.79882,-58.239 38.5229,-109.341 96.7619,-114.139z"/>
  <ellipse class="fil8" cx="785.057" cy="1084.55" rx="33.8585" ry="42.5414"/>
  <path class="fil3" d="M829.151 732.501c224.609,-17.1402 126.17,318.429 42.9615,377.681 -32.2028,22.9323 -63.3272,29.5028 -106.317,-1.20473 -1.4563,-24.5079 11.0976,-35.224 27.528,-38.6882 23.4768,16.7693 35.9705,12.0933 51.2611,1.20473 45.5646,-32.4473 155.741,-266.179 -10.0654,-300.919 -5.37048,-11.6386 -7.31339,-24.2847 -5.36811,-38.074z"/>
 </g>
</svg>
