<?xml version="1.0" encoding="UTF-8"?>
<!DOCTYPE svg PUBLIC "-//W3C//DTD SVG 1.1//EN" "http://www.w3.org/Graphics/SVG/1.1/DTD/svg11.dtd">
<!-- Creator: CorelDRAW -->
<svg xmlns="http://www.w3.org/2000/svg" xml:space="preserve" width="2048px" height="2048px" style="shape-rendering:geometricPrecision; text-rendering:geometricPrecision; image-rendering:optimizeQuality; fill-rule:evenodd; clip-rule:evenodd"
viewBox="0 0 2048 2048"
 xmlns:xlink="http://www.w3.org/1999/xlink">
 <defs>
  <style type="text/css">
   <![CDATA[
    .fil2 {fill:none}
    .fil1 {fill:#303F9F}
    .fil0 {fill:#5C6BC0}
    .fil5 {fill:#D32F2F}
    .fil6 {fill:#D32F2F;fill-rule:nonzero}
    .fil7 {fill:#EF5350;fill-rule:nonzero}
    .fil3 {fill:#F57F17;fill-rule:nonzero}
    .fil4 {fill:#F9A825;fill-rule:nonzero}
    .fil8 {fill:#FFF59D;fill-rule:nonzero}
   ]]>
  </style>
   <clipPath id="id0">
    <path d="M1024 0c565.539,0 1024,458.461 1024,1024 0,565.539 -458.461,1024 -1024,1024 -565.539,0 -1024,-458.461 -1024,-1024 0,-565.539 458.461,-1024 1024,-1024z"/>
   </clipPath>
 </defs>
 <g id="Layer_x0020_1">
  <metadata id="CorelCorpID_0Corel-Layer"/>
  <path class="fil0" d="M1024 0c565.539,0 1024,458.461 1024,1024 0,565.539 -458.461,1024 -1024,1024 -565.539,0 -1024,-458.461 -1024,-1024 0,-565.539 458.461,-1024 1024,-1024z"/>
  <g style="clip-path:url(#id0)">
   <g id="_461729408">
    <g>
     <polygon id="_4613510001" class="fil1" points="1584,843.715 2719.88,1979.6 2719.88,2236.29 1584,1100.4 "/>
     <polygon id="_461352008" class="fil1" points="1584,1100.4 2719.88,2236.29 2719.88,2259.62 1584,1123.74 "/>
     <polygon id="_461335088" class="fil1" points="1584,1123.74 2719.88,2259.62 2696.55,2259.62 1560.66,1123.74 "/>
     <polygon id="_461359280" class="fil1" points="1560.66,1123.74 2696.55,2259.62 2486.53,2259.62 1350.65,1123.74 "/>
     <polygon id="_461359856" class="fil1" points="1000.62,792.882 2136.5,1928.76 2136.5,2067.03 1000.62,931.151 "/>
     <polygon id="_461336456" class="fil1" points="1047.87,983.728 2183.75,2119.61 2183.75,2326.74 1047.87,1190.86 "/>
     <polygon id="_461337344" class="fil1" points="1047.87,973.312 2183.75,2109.19 2183.75,2119.61 1047.87,983.728 "/>
     <polygon id="_461337056" class="fil1" points="1093.96,1123.74 2229.84,2259.62 2206.51,2259.62 1070.63,1123.74 "/>
     <polygon id="_461336768" class="fil1" points="1584,820.38 2719.88,1956.26 2719.88,1979.6 1584,843.715 "/>
     <polygon id="_461339720" class="fil1" points="1303.98,1123.74 2439.86,2259.62 2229.84,2259.62 1093.96,1123.74 "/>
     <polygon id="_461355656" class="fil1" points="1000.62,773.71 2136.5,1909.59 2136.5,1928.76 1000.62,792.882 "/>
     <polygon id="_461348816" class="fil1" points="1047.87,1190.86 2183.75,2326.74 2183.66,2326.74 1047.78,1190.86 "/>
     <polygon id="_461357576" class="fil1" points="1047.78,1190.86 2183.66,2326.74 2183.73,2446.28 1047.85,1310.4 "/>
     <polygon id="_461334152" class="fil1" points="1047.85,1310.4 2183.73,2446.28 2183.75,2469.53 1047.87,1333.64 "/>
     <polygon id="_461342384" class="fil1" points="1047.87,1333.64 2183.75,2469.53 2160.49,2469.53 1024.61,1333.65 "/>
     <polygon id="_461346224" class="fil1" points="1024.61,1333.65 2160.49,2469.53 1984.32,2469.55 848.441,1333.66 "/>
     <polygon id="_461345672" class="fil1" points="848.441,1333.66 1984.32,2469.55 1973.15,2469.55 837.273,1333.67 "/>
     <polygon id="_461352464" class="fil1" points="837.273,1333.67 1973.15,2469.55 1949.9,2469.55 814.021,1333.67 "/>
     <polygon id="_461357408" class="fil1" points="814.021,1333.67 1949.9,2469.55 1833.23,2469.55 697.348,1333.67 "/>
     <polygon id="_461359760" class="fil1" points="697.348,1333.67 1833.23,2469.55 1809.89,2469.55 674.012,1333.67 "/>
     <polygon id="_461354360" class="fil1" points="674.012,1333.67 1809.89,2469.55 1809.81,2469.55 673.927,1333.66 "/>
     <polygon id="_461340968" class="fil1" points="673.927,1333.66 1809.81,2469.55 1623.13,2469.53 487.245,1333.65 "/>
     <polygon id="_461359136" class="fil1" points="487.245,1333.65 1623.13,2469.53 1599.88,2469.53 464.001,1333.64 "/>
     <polygon id="_461339096" class="fil1" points="1350.65,1123.74 2486.53,2259.62 2486.53,2469.64 1350.65,1333.75 "/>
     <polygon id="_461341208" class="fil1" points="1350.65,1333.75 2486.53,2469.64 2439.86,2469.64 1303.98,1333.75 "/>
    </g>
    <path id="_461723864" class="fil1" d="M1584 843.715l0 256.688 0 23.3362 -23.3362 0 -210.016 0 0 210.016 -46.6725 0 0 -210.016 -210.016 0 -23.3362 0 0 -23.3362 0 -256.688 0 -23.3351 23.3362 0 466.704 0 23.3362 0 0 23.3351zm-583.382 87.4359l39.4146 35.1662 7.83898 6.99449 0 10.4161 0 207.131 -0.090945 0 0.0720473 119.542 0.0141732 23.2429 -23.2583 0.00236221 -176.169 0.0165354 -11.1673 0.00236221 -23.2524 0.0011811 -116.673 0 -23.3362 -0.0011811 -0.0850394 -0.00236221 -186.682 -0.0165354 -23.2441 -0.00236221 0 -23.2429 -0.0011811 -326.673 0 -10.4929 7.83898 -6.91772 270.137 -238.363 15.5374 -13.7091 15.3638 13.7091 88.3997 78.8729 0 -13.9453 0 -19.1717 21.3449 0 96.652 0 21.3449 0 0 19.1717 0 138.269z"/>
   </g>
  </g>
  <path class="fil2" d="M1024 0c565.539,0 1024,458.461 1024,1024 0,565.539 -458.461,1024 -1024,1024 -565.539,0 -1024,-458.461 -1024,-1024 0,-565.539 458.461,-1024 1024,-1024z"/>
  <polygon class="fil3" points="1350.65,1100.4 1350.65,1333.75 1303.98,1333.75 1303.98,1100.4 "/>
  <polygon class="fil4" points="1093.96,820.38 1560.66,820.38 1584,820.38 1584,843.715 1584,1100.4 1584,1123.74 1560.66,1123.74 1093.96,1123.74 1070.63,1123.74 1070.63,1100.4 1070.63,843.715 1070.63,820.38 "/>
  <rect class="fil5" x="673.927" y="1123.74" width="174.515" height="209.925"/>
  <path class="fil6" d="M861.277 819.891l0 -27.0095 0 -19.1717 21.3449 0 96.652 0 21.3449 0 0 19.1717 0 147.076c-95.517,-82.3028 -90.0556,-77.5985 -139.342,-120.066z"/>
  <polygon class="fil7" points="471.839,966.317 741.976,727.954 757.514,714.245 772.877,727.954 1040.03,966.317 1047.87,973.312 1047.87,983.728 1047.87,1190.86 1047.78,1190.86 1047.85,1310.4 1047.87,1333.64 1024.61,1333.65 837.273,1333.67 814.021,1333.67 814.029,1310.42 814.091,1146.98 697.348,1146.97 697.348,1310.42 697.348,1333.67 674.012,1333.67 487.245,1333.65 464.001,1333.64 464.001,1310.4 464,983.728 464,973.235 "/>
  <path class="fil8" d="M1418.22 919.021l24.3969 0 0 127.291 23.3374 0 0 -127.291 24.3969 0 0 -21.215 -72.1312 0 0 21.215zm-33.9437 127.291l23.9729 0 0 -148.506 -20.791 0 0 88.891 -23.974 -88.891 -29.2772 0 0 148.506 21.0036 0 0 -107.561 29.0658 107.561zm-104.591 -127.291l40.3087 0 0 -21.215 -63.6449 0 0 148.506 63.6449 0 0 -21.215 -40.3087 0 0 -43.4906 32.0351 0 0 -21.215 -32.0351 0 0 -41.3705zm-74.041 0c4.10197,-0.0354331 7.14213,1.20236 9.05198,3.64252 1.90866,2.47441 2.86418,6.36378 2.82874,11.6327l0 14.6386c0,3.92363 -0.565748,7.03583 -1.69725,9.33426 -1.1315,2.29843 -2.72244,3.96024 -4.80827,4.95 -2.08701,0.954331 -4.59685,1.45039 -7.49646,1.41496l-9.12284 0 0 -45.613 11.2441 0zm37.976 127.291c-1.13268,-2.72244 -1.83898,-5.51575 -2.15669,-8.37993 -0.283465,-2.86418 -0.425197,-6.0815 -0.389764,-9.65198l0 -22.9134c0.0354331,-5.16142 -0.459449,-9.82914 -1.41378,-14.002 -0.990946,-4.1374 -2.61732,-7.70788 -4.87914,-10.6784 -2.26417,-2.96929 -5.33977,-5.30433 -9.19371,-6.92953 5.19804,-2.44016 9.01536,-6.15237 11.5264,-11.1744 2.51103,-4.98426 3.74882,-11.3138 3.74882,-18.9508l0 -11.6693c0.034252,-7.63701 -1.16811,-14.002 -3.60709,-19.0583 -2.40473,-5.0563 -6.15237,-8.83938 -11.2441,-11.3504 -5.12717,-2.50984 -11.7036,-3.74764 -19.7303,-3.74764l-35.217 0 0 148.506 23.3362 0 0 -60.463 8.06221 0c3.53504,-0.0354331 6.43583,0.601182 8.66221,1.83898 2.26299,1.2378 3.92481,3.25276 5.02205,6.01063 1.05945,2.79331 1.59095,6.47126 1.59095,11.0315l0 23.3374c0,3.00473 0.0696851,5.48032 0.140551,7.4256 0.106299,1.9441 0.248032,3.53504 0.46063,4.80827 0.175984,1.2378 0.387402,2.33386 0.670867,3.25276 0.248032,0.918898 0.531496,1.83898 0.849213,2.75788l23.7614 0z"/>
 </g>
</svg>
