<?xml version="1.0" encoding="UTF-8"?>
<!DOCTYPE svg PUBLIC "-//W3C//DTD SVG 1.1//EN" "http://www.w3.org/Graphics/SVG/1.1/DTD/svg11.dtd">
<!-- Creator: CorelDRAW -->
<svg xmlns="http://www.w3.org/2000/svg" xml:space="preserve" width="2048px" height="2048px" style="shape-rendering:geometricPrecision; text-rendering:geometricPrecision; image-rendering:optimizeQuality; fill-rule:evenodd; clip-rule:evenodd"
viewBox="0 0 2048 2048"
 xmlns:xlink="http://www.w3.org/1999/xlink">
 <defs>
  <style type="text/css">
   <![CDATA[
    .fil2 {fill:none}
    .fil8 {fill:#E53935}
    .fil9 {fill:#E57373}
    .fil1 {fill:#FB8C00}
    .fil0 {fill:#FFB74D}
    .fil7 {fill:#FFCC80}
    .fil5 {fill:#29445F;fill-rule:nonzero}
    .fil6 {fill:#47637B;fill-rule:nonzero}
    .fil3 {fill:#757575;fill-rule:nonzero}
    .fil4 {fill:#FAFAFA;fill-rule:nonzero}
   ]]>
  </style>
   <clipPath id="id0">
    <path d="M1024 0c565.539,0 1024,458.461 1024,1024 0,565.539 -458.461,1024 -1024,1024 -565.539,0 -1024,-458.461 -1024,-1024 0,-565.539 458.461,-1024 1024,-1024z"/>
   </clipPath>
 </defs>
 <g id="Layer_x0020_1">
  <metadata id="CorelCorpID_0Corel-Layer"/>
  <path class="fil0" d="M1024 0c565.539,0 1024,458.461 1024,1024 0,565.539 -458.461,1024 -1024,1024 -565.539,0 -1024,-458.461 -1024,-1024 0,-565.539 458.461,-1024 1024,-1024z"/>
  <g style="clip-path:url(#id0)">
   <g id="_461734688">
    <g>
     <polygon id="_4600638641" class="fil1" points="1180.8,519.998 2316.68,1655.88 2316.68,1924.68 1180.8,788.801 "/>
     <polygon id="_460046656" class="fil1" points="1180.8,788.801 2316.68,1924.68 2316.68,1947.08 1180.8,811.202 "/>
     <polygon id="_460051288" class="fil1" points="1482.94,1100.27 2618.82,2236.15 2618.81,2238.37 1482.93,1102.49 "/>
     <polygon id="_460064968" class="fil1" points="1482.93,1102.49 2618.81,2238.37 2618.79,2241.5 1482.91,1105.62 "/>
     <polygon id="_460069240" class="fil1" points="1180.8,811.202 2316.68,1947.08 2294.28,1947.08 1158.4,811.202 "/>
     <polygon id="_460064056" class="fil1" points="1158.4,811.202 2294.28,1947.08 2025.48,1947.08 889.596,811.202 "/>
     <polygon id="_460062544" class="fil1" points="1482.91,1105.62 2618.79,2241.5 2669.03,2375.61 1533.15,1239.73 "/>
     <polygon id="_460052608" class="fil1" points="1533.15,1239.73 2669.03,2375.61 2687.57,2417.48 1551.69,1281.6 "/>
     <polygon id="_460072744" class="fil1" points="1584,1371.2 2719.88,2507.08 2719.88,2551.88 1584,1416 "/>
     <polygon id="_460075288" class="fil1" points="1584,1416 2719.88,2551.88 2719.88,2619.15 1584,1483.27 "/>
     <polygon id="_460054048" class="fil1" points="889.596,811.202 2025.48,1947.08 2003.08,1947.08 867.197,811.202 "/>
     <polygon id="_460062112" class="fil1" points="1584,1505.67 2719.88,2641.55 2697.48,2641.55 1561.6,1505.67 "/>
     <polygon id="_460063696" class="fil1" points="1561.6,1505.67 2697.48,2641.55 2696.64,2641.55 2695.72,2641.55 2694.73,2641.55 2693.67,2641.55 2692.54,2641.55 2691.33,2641.55 2690.05,2641.55 2688.69,2641.55 2687.26,2641.55 2685.75,2641.55 2684.17,2641.55 2682.51,2641.55 2680.77,2641.55 2678.95,2641.55 2677.06,2641.55 2675.09,2641.55 1539.21,1505.67 1541.18,1505.67 1543.07,1505.67 1544.89,1505.67 1546.62,1505.67 1548.28,1505.67 1549.87,1505.67 1551.38,1505.67 1552.81,1505.67 1554.17,1505.67 1555.45,1505.67 1556.66,1505.67 1557.79,1505.67 1558.85,1505.67 1559.84,1505.67 1560.76,1505.67 "/>
     <polygon id="_460078408" class="fil1" points="1539.21,1505.67 2675.09,2641.55 2675.09,2663.88 1539.21,1528 "/>
     <polygon id="_460062928" class="fil1" points="1539.21,1528 2675.09,2663.88 2675.09,2686.28 1539.21,1550.4 "/>
     <polygon id="_460058632" class="fil1" points="1539.21,1550.4 2675.09,2686.28 2652.69,2686.28 1516.81,1550.4 "/>
     <polygon id="_460074592" class="fil1" points="1404.81,1505.67 2540.7,2641.55 1779.09,2641.55 643.204,1505.67 "/>
     <polygon id="_460063960" class="fil1" points="1427.22,1550.4 2563.1,2686.28 2540.7,2686.28 1404.81,1550.4 "/>
     <polygon id="_460056688" class="fil1" points="1516.81,1550.4 2652.69,2686.28 2563.1,2686.28 1427.22,1550.4 "/>
     <polygon id="_460055680" class="fil1" points="643.204,1505.67 1779.09,2641.55 1779.09,2663.88 643.204,1528 "/>
     <polygon id="_460064248" class="fil1" points="643.204,1528 1779.09,2663.88 1779.09,2686.28 643.204,1550.4 "/>
     <polygon id="_460064128" class="fil1" points="643.204,1550.4 1779.09,2686.28 1756.69,2686.28 620.804,1550.4 "/>
     <polygon id="_460063240" class="fil1" points="509.182,1505.67 1645.06,2641.55 1622.28,2641.55 486.4,1505.67 "/>
     <polygon id="_460060960" class="fil1" points="486.4,1505.67 1622.28,2641.55 1599.88,2641.55 463.999,1505.67 "/>
     <polygon id="_460048840" class="fil1" points="620.804,1550.4 1756.69,2686.28 1667.46,2686.28 531.583,1550.4 "/>
     <polygon id="_460076632" class="fil1" points="531.583,1550.4 1667.46,2686.28 1645.06,2686.28 509.182,1550.4 "/>
     <polygon id="_460075432" class="fil1" points="1450.77,919.368 2586.66,2055.25 2588.41,2057.25 2590.11,2059.28 2591.75,2061.36 2593.35,2063.47 2594.89,2065.63 2596.39,2067.83 2597.83,2070.07 2599.22,2072.35 2600.55,2074.67 2601.84,2077.04 2603.08,2079.45 2604.26,2081.9 2605.39,2084.39 2606.48,2086.92 2607.51,2089.5 2608.49,2092.12 2609.42,2094.79 2610.3,2097.49 2611.13,2100.24 2611.92,2103.04 2612.65,2105.88 2613.33,2108.76 2613.96,2111.69 2614.54,2114.66 2615.07,2117.68 2615.55,2120.74 2615.99,2123.84 2616.37,2127 2616.71,2130.19 2616.99,2133.43 2617.23,2136.72 1481.35,1000.84 1481.11,997.552 1480.83,994.309 1480.49,991.113 1480.11,987.962 1479.67,984.856 1479.19,981.794 1478.66,978.778 1478.08,975.806 1477.45,972.879 1476.77,969.996 1476.03,967.158 1475.25,964.363 1474.42,961.612 1473.54,958.905 1472.61,956.24 1471.63,953.619 1470.6,951.042 1469.51,948.507 1468.38,946.014 1467.2,943.565 1465.96,941.157 1464.67,938.792 1463.33,936.468 1461.95,934.187 1460.51,931.946 1459.01,929.748 1457.47,927.59 1455.87,925.474 1454.23,923.398 1452.53,921.363 "/>
     <polygon id="_460051720" class="fil1" points="1481.35,1000.84 2617.23,2136.72 2617.41,2139.71 2617.58,2142.74 2617.74,2145.81 2617.88,2148.93 2618.02,2152.08 2618.14,2155.26 2618.25,2158.47 2618.35,2161.71 2618.44,2164.96 2618.52,2168.23 2618.6,2171.51 2618.66,2174.8 2618.72,2178.09 2618.77,2181.39 2618.81,2184.68 2618.84,2187.96 2618.87,2191.23 2618.89,2194.49 2618.91,2197.72 2618.92,2200.93 2618.93,2204.11 2618.93,2207.26 2618.93,2210.38 2618.93,2213.45 2618.92,2216.49 2618.91,2219.47 2618.9,2222.4 2618.88,2225.28 2618.87,2228.1 2618.85,2230.85 2618.84,2233.54 2618.82,2236.15 1482.94,1100.27 1482.96,1097.65 1482.97,1094.97 1482.99,1092.21 1483,1089.4 1483.02,1086.52 1483.03,1083.59 1483.04,1080.6 1483.05,1077.57 1483.05,1074.5 1483.05,1071.38 1483.05,1068.23 1483.04,1065.05 1483.03,1061.84 1483.01,1058.6 1482.99,1055.35 1482.96,1052.08 1482.93,1048.8 1482.88,1045.51 1482.84,1042.21 1482.78,1038.92 1482.72,1035.63 1482.64,1032.35 1482.56,1029.08 1482.47,1025.82 1482.37,1022.59 1482.26,1019.38 1482.13,1016.2 1482,1013.05 1481.86,1009.93 1481.7,1006.86 1481.53,1003.82 "/>
     <polygon id="_460068592" class="fil1" points="1584,1281.6 2719.88,2417.48 2719.88,2439.88 1584,1304 "/>
     <polygon id="_460064656" class="fil1" points="1584,1304 2719.88,2439.88 2719.88,2507.08 1584,1371.2 "/>
     <polygon id="_460077040" class="fil1" points="1584,1483.27 2719.88,2619.15 2719.88,2641.55 1584,1505.67 "/>
     <polygon id="_460066288" class="fil1" points="1180.8,497.598 2316.68,1633.48 2316.68,1655.88 1180.8,519.998 "/>
    </g>
    <path id="_461721200" class="fil1" d="M672.939 878.399l690.597 0 3.49961 0.349607c35.5359,5.71654 62.6315,18.2728 81.9331,38.6658 19.5248,20.6291 30.1075,48.1087 32.3799,83.4249 2.00906,31.5591 1.75984,71.9339 1.58977,99.43l-0.0129921 2.21811 -0.0188977 3.1311 50.2441 134.11 18.5362 41.8701 9.913 0 22.4008 0 0 22.4008 0 67.2024 0 44.7992 0 67.2697 0 22.4008 -22.4008 0c-4.3063,0 -11.6728,0 -22.3925,0l0 22.3299 0 22.4008 -22.3996 0 -89.5926 0 -22.4008 0 0 -22.4008 0 -22.3299 -761.611 0 0 22.3299 0 22.4008 -22.3996 0 -89.2217 0 -22.4008 0 0 -22.4008 0 -22.3299 -22.7823 0 -22.4008 0 0 -22.4008 0 -67.2697 0 -44.7992 0 -67.2024 0 -22.4008 22.4008 0 11.1319 0 12.8965 -27.9449 54.4359 -145.298 0 -5.95512 0 -97.3217c0,-32.6256 12.1264,-63.8953 31.1103,-87.0024 19.8166,-24.1193 47.2713,-39.6768 76.9654,-39.6768zm507.856 -358.401l0 268.803 0 22.4008 -22.3996 0 -268.799 0 -22.3996 0 0 -22.4008 0 -268.803 0 -22.4008 22.3996 0 268.799 0 22.3996 0 0 22.4008z"/>
   </g>
  </g>
  <path class="fil2" d="M1024 0c565.539,0 1024,458.461 1024,1024 0,565.539 -458.461,1024 -1024,1024 -565.539,0 -1024,-458.461 -1024,-1024 0,-565.539 458.461,-1024 1024,-1024z"/>
  <polygon class="fil3" points="1158.4,811.202 889.596,811.202 867.197,811.202 867.197,788.801 867.197,519.998 867.197,497.598 889.596,497.598 1158.4,497.598 1180.8,497.598 1180.8,519.998 1180.8,788.801 1180.8,811.202 "/>
  <polygon class="fil4" points="911.997,766.4 1135.99,766.4 1135.99,542.398 911.997,542.398 "/>
  <path class="fil5" d="M564.864 1102.4l0 -97.3217c0,-32.6256 12.1264,-63.8953 31.1103,-87.0024 19.8166,-24.1193 47.2713,-39.6768 76.9654,-39.6768l690.597 0 3.49961 0.349607c35.5359,5.71654 62.6315,18.2728 81.9331,38.6658 19.5248,20.6291 30.1075,48.1087 32.3799,83.4249 2.00906,31.5591 1.75984,71.9339 1.58977,99.43l-0.0129921 2.21811 -0.133465 22.3134 -22.1799 0 -873.348 0 -22.4008 0 0 -22.4008z"/>
  <polygon class="fil6" points="611.837,1110.19 536.309,1311.79 494.484,1296.21 570.012,1094.61 "/>
  <polygon class="fil6" points="1478.78,1094.61 1554.31,1296.21 1512.49,1311.79 1436.96,1110.19 "/>
  <path class="fil7" d="M1080.67 1025.06l198.775 0c12.7122,0 23.113,10.402 23.113,23.113l0 64.6477c0,12.711 -10.402,23.113 -23.113,23.113l-198.775 0c-12.711,0 -23.113,-10.4008 -23.113,-23.113l0 -64.6477c0,-12.7122 10.4008,-23.113 23.113,-23.113z"/>
  <path class="fil7" d="M768.469 1025.06l198.776 0c12.7122,0 23.1118,10.402 23.1118,23.113l0 64.6477c0,12.711 -10.4008,23.113 -23.1118,23.113l-198.776 0c-12.711,0 -23.1118,-10.4008 -23.1118,-23.113l0 -64.6477c0,-12.7122 10.3996,-23.113 23.1118,-23.113z"/>
  <path class="fil8" d="M569.895 1124.8c318.833,-53.2406 624.334,-58.2213 912.376,0l79.3335 179.201 -1074.41 0 82.7032 -179.201z"/>
  <path class="fil9" d="M569.895 1124.8c318.833,-53.2406 624.334,-58.2213 912.376,0l39.6674 89.5997c-303.806,-56.993 -614.488,-92.7331 -965.813,-51.0012l13.7693 -38.5985z"/>
  <polygon class="fil6" points="463.999,1483.27 463.999,1304 463.999,1281.6 486.4,1281.6 1561.6,1281.6 1584,1281.6 1584,1304 1584,1483.27 1584,1505.67 1561.6,1505.67 1539.21,1505.67 1539.21,1528 1539.21,1550.4 1516.81,1550.4 1427.22,1550.4 1404.81,1550.4 1404.81,1528 1404.81,1505.67 643.204,1505.67 643.204,1528 643.204,1550.4 620.804,1550.4 531.583,1550.4 509.182,1550.4 509.182,1528 509.182,1505.67 486.4,1505.67 463.999,1505.67 "/>
  <polygon class="fil5" points="463.999,1416 463.999,1371.2 1584,1371.2 1584,1416 "/>
  <path class="fil5" d="M1539.21 1505.67l0 22.3299 0 22.4008 -22.3996 0 -89.5926 0 -22.4008 0 0 -22.4008 0 -22.3299 -761.611 0 0 22.3299 0 22.4008 -22.3996 0 -89.2217 0 -22.4008 0 0 -22.4008 0 -22.3299c-93.3768,0 1263.45,0 1030.03,0z"/>
  <polygon class="fil3" points="956.805,676.801 1091.21,676.801 1091.21,721.602 956.805,721.602 "/>
 </g>
</svg>
