<?xml version="1.0" encoding="UTF-8"?>
<!DOCTYPE svg PUBLIC "-//W3C//DTD SVG 1.1//EN" "http://www.w3.org/Graphics/SVG/1.1/DTD/svg11.dtd">
<!-- Creator: CorelDRAW -->
<svg xmlns="http://www.w3.org/2000/svg" xml:space="preserve" width="2048px" height="2048px" style="shape-rendering:geometricPrecision; text-rendering:geometricPrecision; image-rendering:optimizeQuality; fill-rule:evenodd; clip-rule:evenodd"
viewBox="0 0 2048 2048"
 xmlns:xlink="http://www.w3.org/1999/xlink">
 <defs>
  <style type="text/css">
   <![CDATA[
    .fil2 {fill:none}
    .fil4 {fill:#388E3C}
    .fil1 {fill:#5E35B1}
    .fil6 {fill:#616161}
    .fil0 {fill:#9575CD}
    .fil3 {fill:#BDBDBD}
    .fil8 {fill:#E8F5E9}
    .fil5 {fill:#FFFF8D}
    .fil9 {fill:#1B5E20;fill-rule:nonzero}
    .fil7 {fill:#E64A19;fill-rule:nonzero}
   ]]>
  </style>
   <clipPath id="id0">
    <path d="M1024 0c565.539,0 1024,458.461 1024,1024 0,565.539 -458.461,1024 -1024,1024 -565.539,0 -1024,-458.461 -1024,-1024 0,-565.539 458.461,-1024 1024,-1024z"/>
   </clipPath>
 </defs>
 <g id="Layer_x0020_1">
  <metadata id="CorelCorpID_0Corel-Layer"/>
  <path class="fil0" d="M1024 0c565.539,0 1024,458.461 1024,1024 0,565.539 -458.461,1024 -1024,1024 -565.539,0 -1024,-458.461 -1024,-1024 0,-565.539 458.461,-1024 1024,-1024z"/>
  <g style="clip-path:url(#id0)">
   <g id="_461745392">
    <g>
     <polygon id="_4801199201" class="fil1" points="1584,790.031 2719.88,1925.91 2719.88,1940.62 1584,804.74 "/>
     <polygon id="_480133528" class="fil1" points="1584,804.74 2719.88,1940.62 2719.88,2611.21 1584,1475.32 "/>
     <polygon id="_480134704" class="fil1" points="1584,1475.32 2719.88,2611.21 2719.88,2633.61 1584,1497.72 "/>
     <polygon id="_480127768" class="fil1" points="1584,1497.72 2719.88,2633.61 2697.48,2633.61 1561.6,1497.72 "/>
     <polygon id="_480131392" class="fil1" points="1561.6,1497.72 2697.48,2633.61 2663.74,2633.61 1527.86,1497.72 "/>
     <polygon id="_480134848" class="fil1" points="1527.86,1497.72 2663.74,2633.61 2585.48,2633.61 1449.6,1497.72 "/>
     <polygon id="_480131776" class="fil1" points="1449.6,1497.72 2585.48,2633.61 2563.08,2633.61 1427.2,1497.72 "/>
     <polygon id="_480127120" class="fil1" points="1427.2,1497.72 2563.08,2633.61 1756.68,2633.61 620.797,1497.72 "/>
     <polygon id="_480131800" class="fil1" points="620.797,1497.72 1756.68,2633.61 1756.68,2633.78 620.797,1497.9 "/>
     <polygon id="_480131680" class="fil1" points="620.797,1497.9 1756.68,2633.78 1734.28,2633.78 598.397,1497.9 "/>
     <polygon id="_480127384" class="fil1" points="598.397,1497.9 1734.28,2633.78 1622.28,2633.78 486.4,1497.9 "/>
     <polygon id="_480131704" class="fil1" points="486.4,1497.9 1622.28,2633.78 1599.88,2633.78 464,1497.9 "/>
    </g>
    <polygon id="_461751584" class="fil1" points="1036.73,553.87 1570.44,784.177 1584,790.031 1584,804.74 1584,1475.32 1584,1497.72 1561.6,1497.72 1527.86,1497.72 1449.6,1497.72 1427.2,1497.72 620.797,1497.72 620.797,1497.9 598.397,1497.9 486.4,1497.9 464,1497.9 464,1475.49 464,804.74 464,789.983 477.65,784.177 1019.14,553.87 1027.99,550.104 "/>
   </g>
  </g>
  <path class="fil2" d="M1024 0c565.539,0 1024,458.461 1024,1024 0,565.539 -458.461,1024 -1024,1024 -565.539,0 -1024,-458.461 -1024,-1024 0,-565.539 458.461,-1024 1024,-1024z"/>
  <rect class="fil3" x="575.997" y="848.121" width="951.866" height="649.604"/>
  <path class="fil4" d="M889.517 1001.89l269.264 0c15.9933,0 27.2551,6.51615 36.1229,16.3217 7.05355,7.80237 11.4992,16.7351 15.8835,25.6878l79.8379 163.005 2.17677 9.02953 0 116.19 0 25.8827 0 57.1607c0,11.5606 -5.12717,21.9886 -13.3866,29.4733 -7.70906,6.98623 -18.1618,11.3221 -29.4945,11.3221l-26.6894 0c-11.3327,0 -21.7854,-4.33583 -29.4945,-11.3221 -8.25827,-7.48347 -13.3866,-17.9114 -13.3866,-29.4733l0 -30.3768 -300.342 0 0 30.3768c0,11.5618 -5.12835,21.9886 -13.3866,29.4733 -7.70788,6.98386 -18.1618,11.3221 -29.4945,11.3221l-26.6894 0c-11.3327,0 -21.7854,-4.33583 -29.4945,-11.3221 -8.25946,-7.48465 -13.3866,-17.9126 -13.3866,-29.4733l0 -57.5871 0 -25.4563 0 -116.881 1.61221 -7.90158 67.7776 -162.314c4.04764,-9.69568 8.89843,-19.3051 16.252,-27.1914 8.99056,-9.64135 20.5358,-15.9461 36.3177,-15.9461zm47.9906 41.2796l177.398 0c24.6543,0 32.4485,13.4516 40.3323,27.0579l0.147638 0.257481 -0.0625985 0.0283465 52.5804 90.7052 15.3213 26.4295 -33.6213 0 -318.847 0 -31.3465 0 12.4819 -25.363 44.6504 -90.7347c3.00473,-6.10749 6.5504,-12.1878 12.0047,-17.2843 7.18229,-6.70394 16.3689,-11.0965 28.9607,-11.0965z"/>
  <path class="fil5" d="M847.851 1239.6c25.5496,0 46.2615,20.7118 46.2615,46.2615 0,25.5484 -20.7118,46.2591 -46.2615,46.2591 -25.5484,0 -46.2591,-20.7106 -46.2591,-46.2591 0,-25.5496 20.7106,-46.2615 46.2591,-46.2615z"/>
  <path class="fil5" d="M1212.51 1239.6c25.5496,0 46.2615,20.7118 46.2615,46.2615 0,25.5484 -20.7118,46.2591 -46.2615,46.2591 -25.5484,0 -46.2615,-20.7106 -46.2615,-46.2591 0,-25.5496 20.713,-46.2615 46.2615,-46.2615z"/>
  <path class="fil4" d="M937.508 1043.17l177.398 0c24.6543,0 32.4485,13.4516 40.3323,27.0579l0.148819 0.257481 -0.0637796 0.0283465 52.5815 90.7052 15.3201 26.4295 -33.6213 0 -318.847 0 -31.3477 0 12.4819 -25.363 44.6516 -90.7347c3.00473,-6.10749 6.54922,-12.1878 12.0047,-17.2843 7.18347,-6.70276 16.3689,-11.0965 28.9607,-11.0965z"/>
  <path class="fil6" d="M1292.8 1383.93l0 31.2307c0,11.5606 -5.12717,21.9898 -13.3866,29.4721 -7.70906,6.98741 -18.1618,11.3232 -29.4945,11.3232l-26.6894 0c-11.3315,0 -21.7854,-4.33583 -29.4957,-11.3232 -8.25709,-7.48229 -13.3866,-17.9114 -13.3866,-29.4721l0 -30.3768 -300.339 0 0 30.3768c0,11.5618 -5.12953,21.9886 -13.3878,29.4721 -7.70788,6.98623 -18.1618,11.3232 -29.4945,11.3232l-26.6894 0c-11.3327,0 -21.7854,-4.33583 -29.4945,-11.3232 -8.25946,-7.48229 -13.3866,-17.9114 -13.3866,-29.4721l0 -31.2307 525.245 0z"/>
  <polygon class="fil7" points="477.65,784.177 1019.14,553.87 1027.99,550.104 1036.73,553.87 1570.44,784.177 1584,790.031 1584,804.74 1584,1475.32 1584,1497.72 1561.6,1497.72 1449.6,1497.72 1427.2,1497.72 1427.2,1475.32 1427.2,892.92 620.797,892.92 620.797,1475.49 620.797,1497.9 598.397,1497.9 486.4,1497.9 464,1497.9 464,1475.49 464,804.74 464,789.983 "/>
  <path class="fil8" d="M1114.91 1043.17l-177.398 0c-12.5917,0 -21.7772,4.3937 -28.9607,11.0965 -5.45552,5.09646 -9.00001,11.1768 -12.0047,17.2843l-44.6516 90.7347 -12.4819 25.363 31.3477 0 318.847 0 33.6213 0 -15.3201 -26.4295 -52.5815 -90.7052 0.0637796 -0.0283465 -0.148819 -0.257481c-7.88386,-13.6063 -15.678,-27.0579 -40.3323,-27.0579z"/>
  <polygon class="fil9" points="951.78,1257.87 1108.58,1257.87 1108.58,1277.47 951.78,1277.47 "/>
  <polygon class="fil9" points="951.78,1294.25 1108.58,1294.25 1108.58,1313.85 951.78,1313.85 "/>
 </g>
</svg>
