<?xml version="1.0" encoding="UTF-8"?>
<!DOCTYPE svg PUBLIC "-//W3C//DTD SVG 1.1//EN" "http://www.w3.org/Graphics/SVG/1.1/DTD/svg11.dtd">
<!-- Creator: CorelDRAW -->
<svg xmlns="http://www.w3.org/2000/svg" xml:space="preserve" width="2048px" height="2048px" style="shape-rendering:geometricPrecision; text-rendering:geometricPrecision; image-rendering:optimizeQuality; fill-rule:evenodd; clip-rule:evenodd"
viewBox="0 0 2048 2048"
 xmlns:xlink="http://www.w3.org/1999/xlink">
 <defs>
  <style type="text/css">
   <![CDATA[
    .fil2 {fill:none}
    .fil9 {fill:#2E7D32}
    .fil6 {fill:#43A047}
    .fil7 {fill:#616161}
    .fil11 {fill:#81D4FA}
    .fil1 {fill:#8E24AA}
    .fil12 {fill:#B3E5FC}
    .fil0 {fill:#BA68C8}
    .fil8 {fill:#BDBDBD}
    .fil10 {fill:#FB8C00}
    .fil3 {fill:#D32F2F;fill-rule:nonzero}
    .fil4 {fill:#FFAB40;fill-rule:nonzero}
    .fil5 {fill:#FFB74D;fill-rule:nonzero}
   ]]>
  </style>
   <clipPath id="id0">
    <path d="M1024 0c565.539,0 1024,458.461 1024,1024 0,565.539 -458.461,1024 -1024,1024 -565.539,0 -1024,-458.461 -1024,-1024 0,-565.539 458.461,-1024 1024,-1024z"/>
   </clipPath>
 </defs>
 <g id="Layer_x0020_1">
  <metadata id="CorelCorpID_0Corel-Layer"/>
  <path class="fil0" d="M1024 0c565.539,0 1024,458.461 1024,1024 0,565.539 -458.461,1024 -1024,1024 -565.539,0 -1024,-458.461 -1024,-1024 0,-565.539 458.461,-1024 1024,-1024z"/>
  <g style="clip-path:url(#id0)">
   <g id="_461726648">
    <g>
     <path id="_4613455521" class="fil1" d="M1713.34 1882.75l0 0zm-1135.88 -1135.88l0 0z"/>
     <polygon id="_461329904" class="fil1" points="1348.31,852.935 2484.19,1988.82 2532.81,2087.26 1396.93,951.381 "/>
     <polygon id="_461337248" class="fil1" points="1396.93,951.381 2532.81,2087.26 2533.95,2089.32 2535.2,2091.29 2536.55,2093.16 2537.99,2094.95 2539.53,2096.66 1403.65,960.778 1402.11,959.07 1400.67,957.279 1399.32,955.403 1398.07,953.437 "/>
     <polygon id="_461329976" class="fil1" points="1332.43,830.522 2468.32,1966.4 2469.65,1967.88 2470.96,1969.37 2472.23,1970.88 2473.48,1972.41 2474.69,1973.95 2475.87,1975.51 2477.01,1977.08 2478.12,1978.66 2479.2,1980.27 2480.24,1981.88 2481.24,1983.51 2482.2,1985.15 2483.13,1986.8 2484.01,1988.47 1348.13,852.584 1347.25,850.92 1346.32,849.268 1345.36,847.626 1344.36,845.998 1343.32,844.384 1342.24,842.782 1341.13,841.195 1339.99,839.623 1338.81,838.065 1337.6,836.523 1336.35,834.997 1335.08,833.488 1333.77,831.996 "/>
     <polygon id="_461330504" class="fil1" points="1583.89,1102.89 2719.77,2238.77 2719.77,2238.8 1583.89,1102.91 "/>
     <polygon id="_461334728" class="fil1" points="1583.89,1102.91 2719.77,2238.8 2719.8,2241.62 1583.91,1105.74 "/>
     <polygon id="_461341736" class="fil1" points="1584,1105.74 2719.88,2241.62 2719.88,2351.2 1584,1215.32 "/>
     <polygon id="_461343824" class="fil1" points="1584,1215.32 2719.88,2351.2 2719.86,2353.24 2719.78,2355.28 2719.65,2357.33 2719.46,2359.38 2719.23,2361.42 2718.95,2363.47 2718.62,2365.52 2718.23,2367.57 2717.8,2369.61 2717.33,2371.64 2716.81,2373.67 2716.24,2375.69 2715.62,2377.71 2714.97,2379.71 2714.26,2381.7 2713.52,2383.67 2712.73,2385.64 2711.9,2387.58 2711.03,2389.51 2710.12,2391.42 2709.17,2393.32 2708.18,2395.19 2707.15,2397.04 2706.08,2398.86 2704.97,2400.67 2703.83,2402.44 2702.66,2404.19 2701.45,2405.91 2700.2,2407.6 2698.92,2409.26 2697.61,2410.89 2696.26,2412.48 1560.38,1276.6 1561.72,1275.01 1563.04,1273.38 1564.32,1271.72 1565.56,1270.03 1566.78,1268.31 1567.95,1266.56 1569.09,1264.78 1570.2,1262.98 1571.26,1261.16 1572.29,1259.31 1573.28,1257.43 1574.24,1255.54 1575.15,1253.63 1576.02,1251.7 1576.85,1249.75 1577.64,1247.79 1578.38,1245.81 1579.08,1243.82 1579.74,1241.82 1580.36,1239.81 1580.93,1237.79 1581.45,1235.76 1581.92,1233.72 1582.35,1231.68 1582.73,1229.64 1583.07,1227.59 1583.35,1225.54 1583.58,1223.49 1583.76,1221.45 1583.89,1219.4 1583.98,1217.36 "/>
     <polygon id="_461349752" class="fil1" points="1031.75,804.351 2167.63,1940.23 2169.29,1941.99 2170.86,1943.83 2172.34,1945.74 2173.74,1947.73 2175.04,1949.78 2176.24,1951.89 2177.35,1954.07 2178.35,1956.3 2179.25,1958.59 2180.03,1960.93 2180.71,1963.32 2181.27,1965.75 2181.71,1968.22 2182.03,1970.73 2182.22,1973.28 2182.29,1975.85 1046.4,839.971 1046.34,837.394 1046.15,834.849 1045.83,832.338 1045.39,829.864 1044.83,827.434 1044.15,825.047 1043.37,822.708 1042.47,820.419 1041.47,818.187 1040.36,816.01 1039.16,813.896 1037.86,811.846 1036.46,809.862 1034.98,807.95 1033.41,806.112 "/>
     <polygon id="_461346920" class="fil1" points="840.667,666.557 1976.55,1802.44 1977.95,1803.92 1979.29,1805.46 1980.55,1807.06 1981.74,1808.72 1982.84,1810.44 1983.87,1812.21 1984.81,1814.03 1985.66,1815.9 1986.42,1817.81 1987.09,1819.76 1987.67,1821.76 1988.14,1823.79 1988.52,1825.85 1988.79,1827.95 1988.95,1830.07 1989.01,1832.22 853.127,696.335 853.072,694.186 852.908,692.063 852.636,689.967 852.262,687.904 851.786,685.874 851.212,683.88 850.542,681.925 849.779,680.013 848.926,678.146 847.987,676.326 846.962,674.556 845.857,672.839 844.671,671.178 843.409,669.576 842.073,668.034 "/>
     <polygon id="_461351888" class="fil1" points="853.127,696.335 1989.01,1832.22 1989.01,1882.75 853.127,746.869 "/>
     <polygon id="_461341544" class="fil1" points="508.802,1035.71 1644.68,2171.59 1644.68,2171.68 508.802,1035.8 "/>
     <polygon id="_461331368" class="fil1" points="763.257,1221.56 1899.14,2357.45 1895.08,2353.93 1890.85,2350.61 1886.46,2347.49 1881.92,2344.58 1877.23,2341.89 1872.4,2339.42 1867.44,2337.18 1862.36,2335.18 1857.16,2333.42 1851.85,2331.92 1846.44,2330.67 1840.93,2329.68 1835.33,2328.97 1829.64,2328.54 1823.88,2328.4 1818.13,2328.54 1812.45,2328.97 1806.85,2329.68 1801.34,2330.67 1795.93,2331.91 1790.62,2333.42 1785.42,2335.18 1780.34,2337.18 1775.38,2339.42 1770.55,2341.88 1765.87,2344.58 1761.33,2347.48 1756.94,2350.6 1752.71,2353.92 1748.65,2357.43 1744.76,2361.13 1741.05,2365.01 1737.53,2369.07 1734.21,2373.29 1731.08,2377.67 1728.17,2382.21 1725.47,2386.89 1722.99,2391.71 1720.75,2396.66 1718.74,2401.74 1716.97,2406.93 1715.46,2412.24 1714.2,2417.65 1713.21,2423.15 1712.48,2428.75 1712.04,2434.43 1711.89,2440.18 576.005,1304.3 576.161,1298.55 576.603,1292.87 577.324,1287.27 578.317,1281.77 579.574,1276.36 581.09,1271.05 582.856,1265.86 584.866,1260.78 587.112,1255.83 589.588,1251.01 592.287,1246.33 595.202,1241.79 598.326,1237.41 601.65,1233.19 605.171,1229.13 608.879,1225.25 612.767,1221.55 616.829,1218.03 621.057,1214.72 625.445,1211.6 629.986,1208.69 634.673,1206 639.498,1203.53 644.455,1201.3 649.536,1199.29 654.734,1197.54 660.044,1196.03 665.457,1194.78 670.966,1193.8 676.565,1193.09 682.247,1192.66 688.003,1192.51 693.762,1192.66 699.445,1193.09 705.045,1193.8 710.556,1194.79 715.971,1196.03 721.281,1197.54 726.481,1199.3 731.564,1201.3 736.522,1203.54 741.348,1206.01 746.036,1208.7 750.577,1211.61 754.966,1214.73 759.195,1218.05 "/>
     <polygon id="_461341304" class="fil1" points="576.005,1304.3 1711.89,2440.18 1652.54,2440.18 516.662,1304.3 "/>
     <polygon id="_461359544" class="fil1" points="516.662,1304.3 1652.54,2440.18 1649.84,2440.11 1647.17,2439.91 1644.54,2439.57 1641.95,2439.11 1639.41,2438.52 1636.91,2437.81 1634.47,2436.98 1632.08,2436.03 1629.74,2434.97 1627.47,2433.81 1625.27,2432.54 1623.13,2431.17 1621.07,2429.7 1619.07,2428.13 483.193,1292.25 485.184,1293.81 487.25,1295.28 489.387,1296.66 491.593,1297.93 493.863,1299.09 496.196,1300.15 498.586,1301.09 501.031,1301.92 503.527,1302.64 506.072,1303.23 508.661,1303.69 511.291,1304.03 513.959,1304.23 "/>
     <polygon id="_461337200" class="fil1" points="531.287,839.971 1667.17,1975.85 1667.08,1975.85 531.199,839.971 "/>
     <polygon id="_461328416" class="fil1" points="577.53,746.879 1713.41,1882.76 1713.34,1882.75 577.458,746.869 "/>
     <polygon id="_461332616" class="fil1" points="620.397,789.242 1756.28,1925.12 1754.05,1925.07 1751.86,1924.9 1749.7,1924.63 1747.57,1924.25 1745.48,1923.77 1743.43,1923.19 1741.43,1922.51 1739.47,1921.74 1737.56,1920.88 1735.7,1919.93 1733.9,1918.9 1732.15,1917.78 1730.47,1916.58 1728.85,1915.31 1727.29,1913.96 1725.8,1912.54 589.917,776.653 591.407,778.075 592.965,779.424 594.587,780.7 596.273,781.897 598.019,783.016 599.822,784.051 601.68,785 603.589,785.861 605.548,786.631 607.552,787.307 609.6,787.887 611.69,788.368 613.816,788.745 615.978,789.02 618.173,789.186 "/>
     <polygon id="_461336792" class="fil1" points="748.248,1238.19 1884.13,2374.07 1887.24,2377.04 1890.21,2380.15 1893.02,2383.4 1895.68,2386.79 1898.18,2390.3 1900.51,2393.93 1902.67,2397.69 1904.65,2401.55 1906.44,2405.52 1908.05,2409.59 1909.46,2413.75 1910.66,2418 1911.66,2422.34 1912.45,2426.75 1913.02,2431.23 1913.37,2435.78 1913.48,2440.4 1913.37,2445.01 1913.02,2449.56 1912.45,2454.04 1911.66,2458.45 1910.66,2462.79 1909.46,2467.04 1908.05,2471.2 1906.44,2475.27 1904.65,2479.24 1902.67,2483.1 1900.51,2486.86 1898.18,2490.49 1895.68,2494 1893.02,2497.39 1890.21,2500.64 1887.24,2503.75 1884.13,2506.72 1880.88,2509.54 1877.49,2512.2 1873.98,2514.69 1870.35,2517.02 1866.59,2519.18 1862.73,2521.16 1858.76,2522.95 1854.69,2524.56 1850.53,2525.97 1846.28,2527.18 1841.94,2528.18 1837.53,2528.96 1833.05,2529.53 1828.5,2529.88 1823.88,2530 1819.27,2529.88 1814.72,2529.53 1810.24,2528.96 1805.83,2528.18 1801.49,2527.18 1797.24,2525.97 1793.08,2524.56 1789.01,2522.95 1785.04,2521.16 1781.18,2519.18 1777.42,2517.02 1773.79,2514.69 1770.28,2512.2 1766.89,2509.54 1763.64,2506.72 627.759,1370.84 631.009,1373.65 634.394,1376.31 637.907,1378.81 641.542,1381.14 645.295,1383.3 649.158,1385.28 653.126,1387.07 657.195,1388.68 661.359,1390.09 665.611,1391.29 669.945,1392.29 674.358,1393.08 678.843,1393.65 683.392,1394 688.003,1394.11 692.614,1394 697.164,1393.65 701.649,1393.08 706.061,1392.29 710.396,1391.29 714.648,1390.09 718.811,1388.68 722.88,1387.07 726.849,1385.28 730.712,1383.3 734.464,1381.14 738.1,1378.81 741.612,1376.31 744.997,1373.65 748.248,1370.84 751.36,1367.87 754.327,1364.76 757.143,1361.51 759.803,1358.12 762.301,1354.61 764.631,1350.97 766.789,1347.22 768.767,1343.36 770.561,1339.39 772.166,1335.32 773.574,1331.16 774.782,1326.91 775.783,1322.57 776.571,1318.16 777.14,1313.67 777.486,1309.12 777.603,1304.51 777.486,1299.9 777.14,1295.35 776.571,1290.87 775.783,1286.46 774.782,1282.12 773.574,1277.87 772.166,1273.71 770.561,1269.64 768.767,1265.67 766.789,1261.8 764.631,1258.05 762.301,1254.42 759.803,1250.9 757.143,1247.52 754.327,1244.27 751.36,1241.16 "/>
     <polygon id="_461336336" class="fil1" points="853.127,746.869 1989.01,1882.75 1988.95,1884.9 1988.79,1887.03 1988.52,1889.12 1988.14,1891.19 1987.67,1893.22 1987.09,1895.21 1986.42,1897.17 1985.66,1899.08 1984.81,1900.95 1983.87,1902.76 1982.85,1904.53 1981.74,1906.25 1980.55,1907.91 1979.29,1909.51 1977.96,1911.05 1976.55,1912.53 840.672,776.646 842.077,775.17 843.413,773.63 844.673,772.027 845.859,770.368 846.964,768.651 847.988,766.882 848.927,765.063 849.78,763.196 850.542,761.284 851.212,759.329 851.786,757.335 852.262,755.305 852.636,753.24 852.908,751.145 853.072,749.02 "/>
     <polygon id="_461329664" class="fil1" points="840.672,776.646 1976.55,1912.53 1975.06,1913.96 1973.49,1915.32 1971.86,1916.6 1970.17,1917.81 1968.42,1918.93 1966.61,1919.97 1964.75,1920.93 1962.84,1921.79 1960.88,1922.57 1958.88,1923.25 1956.83,1923.83 1954.75,1924.31 1952.62,1924.7 1950.47,1924.97 1948.28,1925.14 1946.06,1925.19 810.178,789.312 812.396,789.256 814.584,789.089 816.742,788.813 818.865,788.432 820.952,787.949 822.999,787.366 825.003,786.686 826.962,785.911 828.873,785.044 830.734,784.088 832.54,783.048 834.29,781.923 835.981,780.718 837.61,779.435 839.175,778.077 "/>
     <polygon id="_461342096" class="fil1" points="1046.4,839.971 2182.29,1975.85 2182.29,2171.59 1046.4,1035.71 "/>
     <polygon id="_461331416" class="fil1" points="1399.74,1228.99 2535.62,2364.87 2528.09,2357.54 2519.91,2351.06 2511.14,2345.45 2501.89,2340.7 2492.22,2336.82 2482.23,2333.79 2471.99,2331.63 2461.59,2330.34 2451.11,2329.9 2440.62,2330.33 2430.22,2331.63 2419.98,2333.78 2409.99,2336.8 2400.32,2340.68 2391.06,2345.43 2382.3,2351.04 2374.11,2357.51 2366.58,2364.84 2359.78,2373.04 2353.8,2382.1 2348.73,2392.02 2344.64,2402.81 2341.61,2414.46 2339.73,2426.97 2339.09,2440.35 1203.21,1304.47 1203.85,1291.09 1205.73,1278.58 1208.76,1266.93 1212.85,1256.14 1217.92,1246.22 1223.9,1237.16 1230.69,1228.96 1238.23,1221.62 1246.42,1215.15 1255.18,1209.54 1264.44,1204.8 1274.1,1200.92 1284.1,1197.9 1294.34,1195.74 1304.74,1194.45 1315.23,1194.02 1325.71,1194.45 1336.11,1195.75 1346.35,1197.91 1356.34,1200.93 1366.01,1204.82 1375.26,1209.57 1384.02,1215.18 1392.21,1221.65 "/>
     <polygon id="_461341016" class="fil1" points="1560.38,1276.6 2696.26,2412.48 2694.9,2414.02 2693.5,2415.53 2692.08,2417.01 2690.63,2418.45 2689.14,2419.86 2687.63,2421.23 2686.08,2422.56 2684.51,2423.85 2682.91,2425.11 2681.29,2426.32 2679.64,2427.49 2677.96,2428.62 2676.25,2429.7 2674.52,2430.74 2672.77,2431.73 2671,2432.67 2669.2,2433.57 2667.37,2434.41 2665.53,2435.2 2663.66,2435.95 2661.77,2436.63 2659.87,2437.27 2657.94,2437.85 2655.99,2438.37 2654.03,2438.84 2652.04,2439.24 2650.04,2439.59 2648.02,2439.88 2645.99,2440.1 2643.94,2440.26 2641.87,2440.36 2639.79,2440.39 1503.91,1304.51 1505.99,1304.48 1508.06,1304.38 1510.11,1304.22 1512.14,1303.99 1514.16,1303.71 1516.16,1303.36 1518.15,1302.95 1520.11,1302.49 1522.06,1301.96 1523.99,1301.39 1525.89,1300.75 1527.78,1300.06 1529.65,1299.32 1531.49,1298.53 1533.31,1297.68 1535.11,1296.79 1536.89,1295.85 1538.64,1294.85 1540.37,1293.82 1542.08,1292.74 1543.75,1291.61 1545.41,1290.44 1547.03,1289.23 1548.63,1287.97 1550.2,1286.68 1551.75,1285.35 1553.26,1283.98 1554.74,1282.57 1556.2,1281.13 1557.62,1279.65 1559.02,1278.14 "/>
     <polygon id="_461339456" class="fil1" points="1203.21,1304.47 2339.09,2440.35 1935.88,2440.24 800.001,1304.35 "/>
     <polygon id="_461341856" class="fil1" points="1348.13,852.584 2484.01,1988.47 2484.19,1988.82 1348.31,852.935 "/>
     <polygon id="_461331440" class="fil1" points="1558.39,1024.75 2694.27,2160.63 2697.7,2164.56 2700.91,2168.78 2703.91,2173.31 2706.68,2178.16 2709.22,2183.35 2711.51,2188.89 2713.55,2194.8 2715.31,2201.09 2716.8,2207.77 2718,2214.87 2718.9,2222.39 2719.49,2230.36 2719.77,2238.77 1583.89,1102.89 1583.61,1094.47 1583.02,1086.51 1582.12,1078.99 1580.92,1071.89 1579.43,1065.21 1577.66,1058.92 1575.63,1053.01 1573.34,1047.47 1570.8,1042.28 1568.03,1037.43 1565.03,1032.9 1561.81,1028.67 "/>
     <polygon id="_461339624" class="fil1" points="1378.56,1241.16 2514.44,2377.04 2517.41,2380.15 2520.23,2383.4 2522.89,2386.79 2525.38,2390.3 2527.71,2393.93 2529.87,2397.69 2531.85,2401.55 2533.64,2405.52 2535.25,2409.59 2536.66,2413.75 2537.86,2418 2538.87,2422.34 2539.65,2426.75 2540.22,2431.23 2540.57,2435.78 2540.69,2440.4 2540.57,2445.01 2540.22,2449.56 2539.65,2454.04 2538.87,2458.45 2537.86,2462.79 2536.66,2467.04 2535.25,2471.2 2533.64,2475.27 2531.85,2479.24 2529.87,2483.1 2527.71,2486.86 2525.38,2490.49 2522.89,2494 2520.23,2497.39 2517.41,2500.64 2514.44,2503.75 2511.33,2506.72 2508.08,2509.54 2504.69,2512.2 2501.18,2514.69 2497.55,2517.02 2493.79,2519.18 2489.93,2521.16 2485.96,2522.95 2481.89,2524.56 2477.73,2525.97 2473.48,2527.18 2469.14,2528.18 2464.73,2528.96 2460.25,2529.53 2455.7,2529.88 2451.09,2530 2446.47,2529.88 2441.92,2529.53 2437.44,2528.96 2433.03,2528.18 2428.69,2527.18 2424.44,2525.97 2420.28,2524.56 2416.21,2522.95 2412.24,2521.16 2408.38,2519.18 2404.62,2517.02 2400.99,2514.69 2397.48,2512.2 2394.09,2509.54 2390.84,2506.72 2387.73,2503.75 1251.85,1367.87 1254.96,1370.84 1258.21,1373.65 1261.59,1376.31 1265.11,1378.81 1268.74,1381.14 1272.49,1383.3 1276.36,1385.28 1280.33,1387.07 1284.4,1388.68 1288.56,1390.09 1292.81,1391.29 1297.15,1392.29 1301.56,1393.08 1306.04,1393.65 1310.59,1394 1315.2,1394.11 1319.82,1394 1324.37,1393.65 1328.85,1393.08 1333.26,1392.29 1337.6,1391.29 1341.85,1390.09 1346.01,1388.68 1350.08,1387.07 1354.05,1385.28 1357.91,1383.3 1361.67,1381.14 1365.3,1378.81 1368.81,1376.31 1372.2,1373.65 1375.45,1370.84 1378.56,1367.87 1381.53,1364.76 1384.34,1361.51 1387,1358.12 1389.5,1354.61 1391.83,1350.97 1393.99,1347.22 1395.97,1343.36 1397.76,1339.39 1399.37,1335.32 1400.78,1331.16 1401.98,1326.91 1402.98,1322.57 1403.77,1318.16 1404.34,1313.67 1404.69,1309.12 1404.8,1304.51 1404.69,1299.9 1404.34,1295.35 1403.77,1290.87 1402.98,1286.46 1401.98,1282.12 1400.78,1277.87 1399.37,1273.71 1397.76,1269.64 1395.97,1265.67 1393.99,1261.8 1391.83,1258.05 1389.5,1254.42 1387,1250.9 1384.34,1247.52 1381.53,1244.27 "/>
     <polygon id="_461337080" class="fil1" points="1503.91,1304.51 2639.79,2440.39 2563.09,2440.39 1427.2,1304.51 "/>
    </g>
    <path id="_461740544" class="fil1" d="M577.458 746.869l0 0zm770.848 106.065l48.6201 98.4461c11.661,22.4386 41.3859,28.7233 71.2264,35.0268 57.13,12.0721 114.558,24.2256 115.733,116.483l0 0.022441 0.0283465 2.82756 0.0874016 0 0 109.579c0,21.6992 -9.09804,44.465 -23.6221,61.2792 -14.3575,16.6205 -34.1929,27.913 -56.4721,27.913l-76.7032 0c-0.0011811,-147.294 -223.942,-147.334 -223.999,-0.0425197l-403.204 -0.114567c-0.0850394,-61.7823 -50.1957,-111.841 -111.998,-111.841 -61.7847,0 -111.882,50.028 -111.998,111.786l-59.3434 0c-14.4992,0 -27.6744,-5.91733 -37.2107,-15.4524 -9.5315,-9.52914 -15.4524,-22.6961 -15.4524,-37.2048l0 -148.729 0 -0.804331 0 -4.89685c0,-12.5811 2.67992,-28.0441 9.39922,-39.7737 7.37127,-12.8634 18.75,-21.7264 35.4036,-21.7264l0 0.0885827c7.30276,-0.0295276 14.8051,-0.056693 22.487,-0.0874016l-0.0011811 -195.742 -0.0885827 0c0,-13.8225 5.61615,-26.4366 14.6551,-35.615 9.13938,-9.27875 21.737,-15.0437 35.5784,-15.0437l38.9646 0 0 -0.0708662c-11.9362,0.0011811 -22.7244,-4.82008 -30.4796,-12.5882 -7.63583,-7.65119 -12.3839,-18.1925 -12.3874,-29.7744l-0.0720473 -0.00944883 0 -50.5347c0,-11.524 4.77402,-22.0736 12.4595,-29.778 7.79764,-7.81536 18.5917,-12.6709 30.489,-12.6709l189.771 0c11.8984,0 22.6914,4.85552 30.489,12.6709 7.68544,7.70434 12.4606,18.254 12.4606,29.778l0 50.5347c0,11.5335 -4.77402,22.0772 -12.4559,29.7768 -7.79882,7.81654 -18.5953,12.6662 -30.4937,12.6662l185.993 0c13.8496,0 26.4437,5.76142 35.5819,15.039 9.04135,9.17835 14.6516,21.7973 14.6516,35.6197l0 195.738c13.3169,0.0011811 28.1764,0.0011811 44.8004,0.0011811l0.0885827 0.00590552 -0.0011811 -224.003 -0.0011811 -22.2555 22.3134 -0.0578741 44.7178 -0.115748 0 -0.0885827 85.7434 0c19.976,0 41.5311,7.03819 60.163,18.3744 18.5504,11.2843 34.6772,27.2008 43.9016,45.0142l0.175984 0.350788zm-570.703 451.578c0,49.4847 -40.115,89.6009 -89.5997,89.6009 -49.4847,0 -89.5997,-40.1162 -89.5997,-89.6009 0,-49.4847 40.115,-89.5997 89.5997,-89.5997 49.4847,0 89.5997,40.115 89.5997,89.5997zm537.602 -89.5997c49.4847,0 89.5997,40.115 89.5997,89.5997 0,49.4847 -40.115,89.6009 -89.5997,89.6009 -49.4859,0 -89.6009,-40.1162 -89.6009,-89.6009 0,-49.4847 40.115,-89.5997 89.6009,-89.5997z"/>
   </g>
  </g>
  <path class="fil2" d="M1024 0c565.539,0 1024,458.461 1024,1024 0,565.539 -458.461,1024 -1024,1024 -565.539,0 -1024,-458.461 -1024,-1024 0,-565.539 458.461,-1024 1024,-1024z"/>
  <path class="fil3" d="M810.178 789.312l-189.771 0 -0.00944883 0 0 -0.0708662c-11.9362,0.0011811 -22.7244,-4.82008 -30.4784,-12.5882 -7.63819,-7.65119 -12.385,-18.1925 -12.3886,-29.7744l-0.0720473 0 0 -0.00944883 0 -50.5347c0,-11.524 4.77402,-22.0736 12.4606,-29.778 7.79646,-7.81418 18.5906,-12.6709 30.4878,-12.6709l189.771 0c11.8984,0 22.6914,4.85552 30.489,12.6709 7.68544,7.70552 12.4606,18.254 12.4606,29.778l0 50.5347c0,11.5323 -4.77402,22.076 -12.4571,29.7768 -7.79764,7.81654 -18.5941,12.6662 -30.4925,12.6662z"/>
  <path class="fil4" d="M1361.77 1000.57c-5.64922,-11.2146 -11.4815,-22.8685 -17.7036,-35.4674l-42.528 -86.1083c-4.73386,-9.46536 -14.7319,-17.9398 -23.6811,-23.3847 -9.20434,-5.59843 -21.326,-10.3465 -32.2075,-10.3465l-45.2575 0 -49.0382 0.127559 0.00236221 155.179 210.414 0z"/>
  <path class="fil4" d="M463.999 1102.91l0 -0.80315 0 -4.89804c0,-12.5799 2.67874,-28.0441 9.39922,-39.7725 7.37127,-12.8646 18.75,-21.7276 35.4036,-21.7276l0 0.0874016c111.004,-0.448819 267.818,-0.281103 407.575,-0.132284 21.5421,0.022441 40.8614,0.0448819 174.828,0.0448819l0.0885827 0.00472441 -0.00236221 -224.003 -0.0011811 -22.2555 22.3146 -0.0578741 44.7178 -0.115748 0 -0.0874016 85.7434 0c19.9748,0 41.5311,7.03701 60.163,18.3732 18.5504,11.2843 34.6772,27.1996 43.9016,45.0142l0.175984 0.350788 48.6201 98.4461c11.661,22.4386 41.3859,28.7221 71.2264,35.0268 57.1311,12.0721 114.558,24.2256 115.733,116.482l0 0.0236221 -1119.89 0z"/>
  <path class="fil5" d="M576.005 1304.3l-59.3434 0c-14.4992,0 -27.6756,-5.91851 -37.2107,-15.4524 -9.5315,-9.52914 -15.4524,-22.6961 -15.4524,-37.2048l0 -148.729 1119.89 0c0.011811,0.938977 0.0271654,1.87205 0.0271654,2.82756l0.0885827 0 0 109.579c0,21.7004 -9.09804,44.465 -23.6221,61.2792 -14.3575,16.6205 -34.1929,27.9142 -56.4721,27.9142l-76.7032 0c-0.0011811,-147.297 -223.942,-147.336 -223.999,-0.0448819l-403.204 -0.112205c-0.0850394,-61.7835 -50.1957,-111.842 -111.998,-111.842 -61.7847,0 -111.882,50.0292 -111.998,111.786z"/>
  <path class="fil6" d="M996.172 789.312c13.8484,0 26.4425,5.76142 35.5796,15.039 9.04253,9.17953 14.6528,21.7973 14.6528,35.6209l0 195.741 -515.115 0 -0.00236221 -195.741 -0.0885827 0c0,-13.8236 5.61733,-26.4378 14.6563,-35.6162 9.1382,-9.27875 21.7358,-15.0437 35.576,-15.0437l414.741 0z"/>
  <ellipse class="fil7" cx="688.003" cy="1304.51" rx="89.6" ry="89.5999"/>
  <ellipse class="fil8" cx="688.003" cy="1304.51" rx="55.4501" ry="55.4501"/>
  <ellipse class="fil7" cx="1315.2" cy="1304.51" rx="89.6" ry="89.5999"/>
  <ellipse class="fil8" cx="1315.2" cy="1304.51" rx="55.4501" ry="55.4501"/>
  <polygon class="fil9" points="810.716,959.496 837.661,932.554 665.601,932.554 665.601,894.158 839.349,894.158 810.716,865.529 837.864,838.381 898.427,898.939 912.003,912.512 898.427,926.085 837.864,986.643 "/>
  <path class="fil10" d="M1272.87 1007.57l-128.51 0 -0.00236221 -169.16 30.802 -0.0791339 -0.00354331 -0.00590552 11.7201 -0.0248032 13.5142 -0.0354331 45.2622 0c12.2244,0 25.4953,5.07048 35.8453,11.3658 10.1445,6.17245 20.9977,15.4914 26.3197,26.2654l42.5268 86.1072c5.84292,11.8311 11.7425,23.6339 17.6799,35.4189l5.11181 10.148 -100.266 0z"/>
  <path class="fil11" d="M1276.91 1000.57l0.137008 0 84.7241 0c-5.64922,-11.2146 -11.4815,-22.8685 -17.7036,-35.4674l-42.528 -86.1083c-4.73386,-9.46536 -14.7319,-17.9398 -23.6811,-23.3847 -9.20434,-5.59843 -21.326,-10.3465 -32.2075,-10.3465l-45.2575 0 -12.3508 0.0330709 -0.779528 0.0011811 89.6469 155.273z"/>
  <polygon class="fil12" points="1151.35,845.388 1151.35,1000.57 1276.91,1000.57 1187.26,845.294 "/>
 </g>
</svg>
