<?xml version="1.0" encoding="UTF-8"?>
<!DOCTYPE svg PUBLIC "-//W3C//DTD SVG 1.1//EN" "http://www.w3.org/Graphics/SVG/1.1/DTD/svg11.dtd">
<!-- Creator: CorelDRAW -->
<svg xmlns="http://www.w3.org/2000/svg" xml:space="preserve" width="2048px" height="2048px" style="shape-rendering:geometricPrecision; text-rendering:geometricPrecision; image-rendering:optimizeQuality; fill-rule:evenodd; clip-rule:evenodd"
viewBox="0 0 2048 2048"
 xmlns:xlink="http://www.w3.org/1999/xlink">
 <defs>
  <style type="text/css">
   <![CDATA[
    .fil2 {fill:none}
    .fil1 {fill:#8D6E63}
    .fil5 {fill:#A5D6A7}
    .fil0 {fill:#BCAAA4}
    .fil4 {fill:#E64A19}
    .fil8 {fill:#FBE9E7}
    .fil3 {fill:#FF7043}
    .fil6 {fill:#1B5E20;fill-rule:nonzero}
    .fil7 {fill:#43A047;fill-rule:nonzero}
   ]]>
  </style>
   <clipPath id="id0">
    <path d="M1024 0c565.539,0 1024,458.461 1024,1024 0,565.539 -458.461,1024 -1024,1024 -565.539,0 -1024,-458.461 -1024,-1024 0,-565.539 458.461,-1024 1024,-1024z"/>
   </clipPath>
 </defs>
 <g id="Layer_x0020_1">
  <metadata id="CorelCorpID_0Corel-Layer"/>
  <path class="fil0" d="M1024 0c565.539,0 1024,458.461 1024,1024 0,565.539 -458.461,1024 -1024,1024 -565.539,0 -1024,-458.461 -1024,-1024 0,-565.539 458.461,-1024 1024,-1024z"/>
  <g style="clip-path:url(#id0)">
   <g id="_461733200">
    <g>
     <polygon id="_4613490321" class="fil1" points="1584,839.879 2719.88,1975.76 2719.88,2237.91 1584,1102.03 "/>
     <polygon id="_461349632" class="fil1" points="1584,1102.03 2719.88,2237.91 2505.4,2237.91 1369.52,1102.03 "/>
     <polygon id="_461353832" class="fil1" points="1012.04,786.977 2147.92,1922.86 2147.92,2065.06 1012.04,929.176 "/>
     <polygon id="_461352992" class="fil1" points="1060.3,972.233 2196.18,2108.12 2196.18,2118.75 1060.3,982.87 "/>
     <polygon id="_461338112" class="fil1" points="1060.3,982.87 2196.18,2118.75 2196.18,2330.29 1060.3,1194.41 "/>
     <polygon id="_461327648" class="fil1" points="1321.85,1102.03 2457.73,2237.91 2243.25,2237.91 1107.37,1102.03 "/>
     <polygon id="_461345120" class="fil1" points="1012.04,767.398 2147.92,1903.28 2147.92,1922.86 1012.04,786.977 "/>
     <polygon id="_461328680" class="fil1" points="1369.52,1340.35 2505.4,2476.23 2457.73,2476.23 1321.85,1340.35 "/>
     <polygon id="_461329232" class="fil1" points="1060.3,1194.41 2196.18,2330.29 2196.08,2330.29 1060.2,1194.41 "/>
     <polygon id="_461347712" class="fil1" points="1060.2,1194.41 2196.08,2330.29 2196.16,2452.38 1060.28,1316.5 "/>
     <polygon id="_461330600" class="fil1" points="1060.28,1316.5 2196.16,2452.38 2196.17,2476.11 1060.29,1340.23 "/>
     <polygon id="_461343032" class="fil1" points="1060.29,1340.23 2196.17,2476.11 2172.42,2476.12 1036.54,1340.23 "/>
     <polygon id="_461336504" class="fil1" points="1036.54,1340.23 2172.42,2476.12 1990.12,2476.13 854.241,1340.25 "/>
     <polygon id="_461358032" class="fil1" points="854.241,1340.25 1990.12,2476.13 1981.1,2476.14 845.216,1340.25 "/>
     <polygon id="_461350400" class="fil1" points="845.216,1340.25 1981.1,2476.14 1957.35,2476.14 821.469,1340.26 "/>
     <polygon id="_461355608" class="fil1" points="821.469,1340.26 1957.35,2476.14 1838.19,2476.14 702.314,1340.26 "/>
     <polygon id="_461333960" class="fil1" points="702.314,1340.26 1838.19,2476.14 1814.36,2476.14 678.481,1340.25 "/>
     <polygon id="_461357360" class="fil1" points="678.481,1340.25 1814.36,2476.14 1802.39,2476.13 666.511,1340.25 "/>
     <polygon id="_461328440" class="fil1" points="666.511,1340.25 1802.39,2476.13 1623.62,2476.12 487.74,1340.23 "/>
     <polygon id="_461333528" class="fil1" points="487.74,1340.23 1623.62,2476.12 1599.88,2476.11 464.001,1340.23 "/>
     <polygon id="_461358392" class="fil1" points="1369.52,1102.03 2505.4,2237.91 2505.4,2476.23 1369.52,1340.35 "/>
    </g>
    <path id="_461736704" class="fil1" d="M1107.37 839.879l476.635 0 0 262.151 -214.485 0 0 238.317 -47.6658 0 0 -238.317 -214.485 0 0 -262.151zm-95.328 -52.9016l0 142.199 40.252 35.9138 8.0067 7.14331 0 10.637 0 211.539 -0.0933072 0 0.0744095 122.086 0.0141732 23.7366 -23.7532 0.00236221 -182.297 0.0177165 -9.02481 0.00236221 -23.7473 0.0011811 -119.156 0 -23.8323 -0.0011811 -11.9705 -0.00236221 -178.771 -0.0177165 -23.739 -0.00236221 0 -23.7366 -0.0011811 -333.625 0 -10.7161 8.0067 -7.06418 275.884 -243.436 15.8681 -13.9996 15.691 13.9996 90.28 80.5501 0 -15.2268 0 -19.5791 21.7996 0 98.7083 0 21.7996 0 0 19.5791z"/>
   </g>
  </g>
  <path class="fil2" d="M1024 0c565.539,0 1024,458.461 1024,1024 0,565.539 -458.461,1024 -1024,1024 -565.539,0 -1024,-458.461 -1024,-1024 0,-565.539 458.461,-1024 1024,-1024z"/>
  <path class="fil3" d="M1107.37 839.879l476.635 0 0 262.151c-403.064,0 -73.6902,0 -476.635,0l0 -262.151z"/>
  <polygon class="fil4" points="1369.52,1102.03 1369.52,1340.35 1321.85,1340.35 1321.85,1102.03 "/>
  <rect class="fil5" x="666.511" y="1119.33" width="187.73" height="220.925"/>
  <path class="fil6" d="M869.73 814.562l0 -27.5847 0 -19.5791 21.7996 0 98.7083 0 21.7996 0 0 19.5791 0 150.206c-98.6989,-85.0442 -91.7835,-79.0867 -142.308,-122.621z"/>
  <polygon class="fil7" points="472.007,965.09 747.891,721.654 763.759,707.654 779.45,721.654 1052.29,965.09 1060.3,972.233 1060.3,982.87 1060.3,1194.41 1060.2,1194.41 1060.28,1316.5 1060.29,1340.23 1036.54,1340.23 845.216,1340.25 821.469,1340.26 821.477,1316.52 821.541,1149.6 702.314,1149.58 702.314,1316.52 702.314,1340.26 678.481,1340.25 487.74,1340.23 464.001,1340.23 464.001,1316.5 464,982.87 464,972.154 "/>
  <path class="fil8" d="M1468.32 916.788c2.52756,-0.0354331 4.69489,0.432284 6.53623,1.40788 1.80591,0.975591 3.17717,2.52756 4.15276,4.69489 0.938977,2.16614 1.44449,5.01969 1.44449,8.63032l0 78.8658c0,3.61181 -0.505512,6.46418 -1.44449,8.6315 -0.975591,2.16614 -2.34685,3.71929 -4.15276,4.6937 -1.84134,0.975591 -4.00866,1.44449 -6.53623,1.40906l-13.4327 0 0 -108.333 13.4327 0zm-37.2662 129.999l37.6996 0c11.9162,-0.0354331 20.8004,-3.2504 26.7225,-9.64135 5.88544,-6.39213 8.81103,-15.6721 8.81103,-27.841l0 -76.7008c0,-12.1689 -2.92559,-21.45 -8.81103,-27.841 -5.92205,-6.39213 -14.8063,-9.60591 -26.7225,-9.64135l-37.6996 0 0 151.665zm-73.4505 0l63.0508 0 0 -21.6662 -39.2174 0 0 -129.999 -23.8335 0 0 151.665zm-87.7501 -36.4004c0,8.12599 1.40906,14.987 4.18937,20.6563 2.78032,5.6693 6.82441,10.0028 12.2055,13.0004 5.38111,2.96103 11.9894,4.44095 19.7882,4.47756 7.80119,-0.0366142 14.4083,-1.51654 19.7894,-4.47756 5.37993,-2.99764 9.4252,-7.33111 12.2055,-13.0004 2.78032,-5.6693 4.18819,-12.5303 4.18819,-20.6563l0 -78.8658c0,-8.12481 -1.40788,-15.0225 -4.18819,-20.6917 -2.78032,-5.6693 -6.8256,-9.96615 -12.2055,-12.9638 -5.38111,-2.96103 -11.9882,-4.44213 -19.7894,-4.47756 -7.79882,0.0354331 -14.4071,1.51654 -19.7882,4.47756 -5.38111,2.99764 -9.4252,7.29449 -12.2055,12.9638 -2.78032,5.6693 -4.18937,12.5669 -4.18937,20.6917l0 78.8658zm23.8335 -80.3823c0.0366142,-5.38111 1.1563,-9.20906 3.32244,-11.5559 2.20276,-2.31024 5.2004,-3.46654 9.02717,-3.39449 3.82914,-0.0720473 6.8256,1.08425 9.02835,3.39449 2.16732,2.34685 3.28583,6.17481 3.32244,11.5559l0 81.9001c-0.0366142,5.38111 -1.15512,9.20788 -3.32244,11.5559 -2.20276,2.31024 -5.19922,3.46654 -9.02835,3.39449 -3.82677,0.0720473 -6.82441,-1.08425 -9.02717,-3.39449 -2.16614,-2.34803 -3.28583,-6.17481 -3.32244,-11.5559l0 -81.9001zm-105.95 1.51654c0.0354331,6.17481 0.903544,11.6634 2.56418,16.4669 1.69725,4.80237 3.9,9.13583 6.68032,12.9638 2.74488,3.82677 5.77796,7.36654 9.1004,10.5803 3.28583,3.21378 6.60827,6.32008 9.8941,9.28111 3.32244,2.95984 6.35552,5.9941 9.1004,9.09922 2.78032,3.06969 4.98307,6.42875 6.68032,10.0028 1.66181,3.5752 2.52756,7.54725 2.56418,11.9894 0,3.5752 -0.505512,6.463 -1.51654,8.63032 -1.01221,2.16732 -2.42008,3.71929 -4.26142,4.6937 -1.84134,0.940158 -4.04528,1.44449 -6.57166,1.40906 -2.52874,0.0354331 -4.7315,-0.433465 -6.57284,-1.40906 -1.84252,-0.97441 -3.2504,-2.52638 -4.26142,-4.6937 -1.01102,-2.16732 -1.51654,-5.01969 -1.51654,-8.63032l0 -10.8331 -22.5331 0 0 9.31536c0,8.12599 1.33583,14.987 4.00748,20.6563 2.67284,5.6693 6.64489,10.0028 11.9173,13.0004 5.27244,2.96103 11.8087,4.44095 19.6087,4.47756 7.80001,-0.0366142 14.3362,-1.51654 19.6087,-4.47756 5.27126,-2.99764 9.24331,-7.33111 11.9162,-13.0004 2.67166,-5.6693 4.00866,-12.5303 4.00866,-20.6563 -0.0366142,-6.17481 -0.903544,-11.6634 -2.56418,-16.4658 -1.69725,-4.80355 -3.90118,-9.13583 -6.6815,-12.9638 -2.7437,-3.82796 -5.77678,-7.36654 -9.09922,-10.5815 -3.28583,-3.2126 -6.60827,-6.3189 -9.89528,-9.27993 -3.32126,-2.96103 -6.35434,-5.9941 -9.09922,-9.1004 -2.78032,-3.06851 -4.98307,-6.42756 -6.68032,-10.0016 -1.66063,-3.57638 -2.52874,-7.58386 -2.56418,-11.9894 0.0354331,-5.38111 1.04764,-9.20906 3.10512,-11.5559 2.05866,-2.31024 4.98307,-3.46654 8.81221,-3.39449 3.82796,-0.0720473 6.75237,1.08425 8.81103,3.39449 2.05748,2.34685 3.06851,6.17481 3.10512,11.5559l0 6.28347 22.5331 0 0 -4.76693c0,-8.12481 -1.33583,-15.0225 -3.93544,-20.6917 -2.63622,-5.6693 -6.57284,-9.96615 -11.7721,-12.9638 -5.2004,-2.96103 -11.6646,-4.44213 -19.3925,-4.47756 -7.72678,0.0354331 -14.1921,1.51654 -19.3914,4.47756 -5.2004,2.99764 -9.13583,7.29449 -11.7721,12.9638 -2.60079,5.6693 -3.93662,12.5669 -3.93662,20.6917l0 0z"/>
 </g>
</svg>
