<?xml version="1.0" encoding="UTF-8"?>
<!DOCTYPE svg PUBLIC "-//W3C//DTD SVG 1.1//EN" "http://www.w3.org/Graphics/SVG/1.1/DTD/svg11.dtd">
<!-- Creator: CorelDRAW -->
<svg xmlns="http://www.w3.org/2000/svg" xml:space="preserve" width="2048px" height="2048px" style="shape-rendering:geometricPrecision; text-rendering:geometricPrecision; image-rendering:optimizeQuality; fill-rule:evenodd; clip-rule:evenodd"
viewBox="0 0 2048 2048"
 xmlns:xlink="http://www.w3.org/1999/xlink">
 <defs>
  <style type="text/css">
   <![CDATA[
    .fil2 {fill:none}
    .fil3 {fill:#00ACC1}
    .fil4 {fill:#80DEEA}
    .fil1 {fill:#E4C230}
    .fil0 {fill:#FDD835}
   ]]>
  </style>
   <clipPath id="id0">
    <path d="M1024 0c565.539,0 1024,458.461 1024,1024 0,565.539 -458.461,1024 -1024,1024 -565.539,0 -1024,-458.461 -1024,-1024 0,-565.539 458.461,-1024 1024,-1024z"/>
   </clipPath>
 </defs>
 <g id="Layer_x0020_1">
  <metadata id="CorelCorpID_0Corel-Layer"/>
  <path class="fil0" d="M1024 0c565.539,0 1024,458.461 1024,1024 0,565.539 -458.461,1024 -1024,1024 -565.539,0 -1024,-458.461 -1024,-1024 0,-565.539 458.461,-1024 1024,-1024z"/>
  <g style="clip-path:url(#id0)">
   <g id="_461732000">
    <g>
     <polygon id="_4613404401" class="fil1" points="1440.04,648.733 2575.92,1784.62 2594.47,1806.24 2611.75,1828.56 2627.74,1851.54 2642.46,1875.12 2655.89,1899.25 2668.05,1923.89 2678.93,1948.97 2688.53,1974.46 2696.84,2000.29 2703.88,2026.43 2709.64,2052.82 2714.12,2079.41 2717.32,2106.15 2719.24,2132.99 2719.88,2159.88 2719.24,2186.77 2717.32,2213.61 2714.12,2240.35 2709.64,2266.94 2703.88,2293.33 2696.84,2319.47 2688.52,2345.31 2678.92,2370.79 2668.04,2395.88 2655.88,2420.51 2642.44,2444.64 2627.72,2468.22 2611.72,2491.2 2594.43,2513.53 2575.87,2535.15 2556.03,2556.02 1420.15,1420.14 1439.99,1399.27 1458.55,1377.64 1475.83,1355.32 1491.84,1332.34 1506.56,1308.76 1520,1284.63 1532.16,1260 1543.04,1234.91 1552.64,1209.43 1560.96,1183.59 1568,1157.45 1573.76,1131.06 1578.24,1104.47 1581.44,1077.73 1583.36,1050.89 1584,1024 1583.36,997.11 1581.44,970.269 1578.24,943.529 1573.76,916.939 1568,890.55 1560.96,864.412 1552.65,838.575 1543.05,813.088 1532.17,788.004 1520.01,763.371 1506.58,739.24 1491.86,715.659 1475.87,692.682 1458.59,670.356 "/>
     <polygon id="_461335448" class="fil1" points="1420.15,1420.14 2556.03,2556.02 2535.16,2575.86 2513.54,2594.42 2491.21,2611.71 2468.24,2627.71 2444.66,2642.43 2420.52,2655.87 2395.89,2668.03 2370.81,2678.91 2345.32,2688.52 2319.48,2696.84 2293.34,2703.88 2266.96,2709.64 2240.37,2714.12 2213.62,2717.32 2186.78,2719.24 2159.89,2719.88 2133,2719.25 2106.16,2717.33 2079.42,2714.13 2052.83,2709.65 2026.44,2703.89 2000.3,2696.85 1974.46,2688.53 1948.97,2678.94 1923.89,2668.06 1899.26,2655.9 1875.12,2642.46 1851.54,2627.74 1828.57,2611.74 1806.24,2594.47 1784.62,2575.91 648.735,1440.03 670.358,1458.58 692.684,1475.86 715.661,1491.86 739.242,1506.58 763.374,1520.02 788.007,1532.17 813.093,1543.05 838.58,1552.65 864.418,1560.97 890.557,1568.01 916.946,1573.77 943.537,1578.25 970.278,1581.45 997.119,1583.36 1024.01,1584 1050.9,1583.36 1077.74,1581.44 1104.48,1578.24 1131.07,1573.76 1157.46,1568 1183.6,1560.95 1209.44,1552.63 1234.93,1543.03 1260.01,1532.15 1284.64,1519.99 1308.77,1506.55 1332.35,1491.83 1355.33,1475.82 1377.66,1458.54 1399.28,1439.98 "/>
    </g>
    <path id="_461737280" class="fil1" d="M627.864 627.811c218.429,-218.426 573.869,-218.426 792.34,0.0519685 218.378,218.427 218.431,573.848 -0.0555119,792.275 -218.416,218.478 -573.856,218.478 -792.284,0.0519685 -218.485,-218.478 -218.485,-573.899 0,-792.379z"/>
   </g>
  </g>
  <path class="fil2" d="M1024 0c565.539,0 1024,458.461 1024,1024 0,565.539 -458.461,1024 -1024,1024 -565.539,0 -1024,-458.461 -1024,-1024 0,-565.539 458.461,-1024 1024,-1024z"/>
  <path class="fil3" d="M1420.2 627.863c-218.471,-218.478 -573.911,-218.478 -792.34,-0.0519685 -218.485,218.479 -218.485,573.9 0,792.379 218.429,218.426 573.869,218.426 792.284,-0.0519685 218.486,-218.426 218.433,-573.847 0.0555119,-792.275zm-213.952 69.4642c51.5469,0 93.3331,41.7863 93.3331,93.3331 0,51.5469 -41.7863,93.3343 -93.3331,93.3343 -51.5469,0 -93.3343,-41.7874 -93.3343,-93.3343 0,-51.5469 41.7874,-93.3331 93.3343,-93.3331zm-364.503 0c51.5469,0 93.3343,41.7863 93.3343,93.3331 0,51.5469 -41.7874,93.3343 -93.3343,93.3343 -51.5469,0 -93.3331,-41.7874 -93.3331,-93.3343 0,-51.5469 41.7863,-93.3331 93.3331,-93.3331zm503.96 449.048c3.39213,5.22048 3.94134,11.7791 1.46575,17.4957 -53.9764,127.624 -180.502,210.125 -322.284,210.125 -144.794,0 -272.044,-82.8709 -324.193,-211.126 -2.34921,-5.73544 -1.71969,-12.2114 1.65354,-17.3658 3.32362,-5.10591 12.2823,-4.8437 18.3177,-4.8437l606.671 0.0011811c6.08504,0 15.0449,0.558662 18.3685,5.713z"/>
  <path class="fil4" d="M935.083 790.66c0,-51.5469 -41.7874,-93.3331 -93.3343,-93.3331 -51.5469,0 -93.3331,41.7863 -93.3331,93.3331 0,51.5469 41.7863,93.3343 93.3331,93.3343 51.5469,0 93.3343,-41.7874 93.3343,-93.3343z"/>
  <path class="fil4" d="M1206.25 697.327c-51.5469,0 -93.3343,41.7863 -93.3343,93.3331 0,51.5469 41.7874,93.3343 93.3343,93.3343 51.5469,0 93.3331,-41.7874 93.3331,-93.3343 0,-51.5469 -41.7863,-93.3331 -93.3331,-93.3331z"/>
  <path class="fil4" d="M1327.34 1140.66l-606.671 -0.0011811c-6.03544,0 -14.9941,-0.262205 -18.3177,4.8437 -3.37323,5.15433 -4.00276,11.6303 -1.65354,17.3658 52.1493,128.255 179.399,211.126 324.193,211.126 141.782,0 268.308,-82.5012 322.284,-210.125 2.47559,-5.71654 1.92638,-12.2752 -1.46575,-17.4957 -3.32362,-5.15433 -12.2835,-5.713 -18.3685,-5.713z"/>
 </g>
</svg>
