<?xml version="1.0" encoding="UTF-8"?>
<!DOCTYPE svg PUBLIC "-//W3C//DTD SVG 1.1//EN" "http://www.w3.org/Graphics/SVG/1.1/DTD/svg11.dtd">
<!-- Creator: CorelDRAW -->
<svg xmlns="http://www.w3.org/2000/svg" xml:space="preserve" width="2048px" height="2048px" style="shape-rendering:geometricPrecision; text-rendering:geometricPrecision; image-rendering:optimizeQuality; fill-rule:evenodd; clip-rule:evenodd"
viewBox="0 0 2048 2048"
 xmlns:xlink="http://www.w3.org/1999/xlink">
 <defs>
  <style type="text/css">
   <![CDATA[
    .fil2 {fill:none}
    .fil1 {fill:#6D4C41}
    .fil0 {fill:#A1887F}
    .fil4 {fill:#F0A73F}
    .fil3 {fill:#FECA65}
    .fil6 {fill:#C62828;fill-rule:nonzero}
    .fil7 {fill:#EF5350;fill-rule:nonzero}
    .fil5 {fill:#F0A73F;fill-rule:nonzero}
   ]]>
  </style>
   <clipPath id="id0">
    <path d="M1024 0c565.539,0 1024,458.461 1024,1024 0,565.539 -458.461,1024 -1024,1024 -565.539,0 -1024,-458.461 -1024,-1024 0,-565.539 458.461,-1024 1024,-1024z"/>
   </clipPath>
 </defs>
 <g id="Layer_x0020_1">
  <metadata id="CorelCorpID_0Corel-Layer"/>
  <path class="fil0" d="M1024 0c565.539,0 1024,458.461 1024,1024 0,565.539 -458.461,1024 -1024,1024 -565.539,0 -1024,-458.461 -1024,-1024 0,-565.539 458.461,-1024 1024,-1024z"/>
  <g style="clip-path:url(#id0)">
   <g id="_461721224">
    <g>
     <path id="_4801291601" class="fil1" d="M2592.05 1853.29l0 0zm-1135.88 -1135.88l0 0z"/>
     <path id="_480131896" class="fil1" d="M1727.72 1863.78l0 0zm-1135.88 -1135.88l0 0z"/>
     <polygon id="_480122296" class="fil1" points="1443.59,695.193 2579.48,1831.08 2581.38,1833.3 2583.17,1835.62 2584.86,1838.03 2586.43,1840.55 2587.88,1843.15 2589.21,1845.85 2590.41,1848.63 2591.47,1851.5 1455.59,715.62 1454.53,712.751 1453.33,709.967 1452,707.271 1450.55,704.665 1448.98,702.152 1447.29,699.734 1445.5,697.413 "/>
     <polygon id="_480123472" class="fil1" points="1455.59,715.62 2591.47,1851.5 2592.05,1853.29 1456.17,717.404 "/>
     <polygon id="_480118624" class="fil1" points="1456.19,717.393 2592.08,1853.28 2716.71,2218.05 1580.83,1082.17 "/>
     <polygon id="_480130840" class="fil1" points="1580.83,1082.17 2716.71,2218.05 2717.18,2219.51 2717.62,2220.97 2718.02,2222.44 2718.38,2223.91 2718.7,2225.38 2718.98,2226.85 2719.22,2228.33 2719.42,2229.8 2719.59,2231.28 2719.72,2232.75 2719.81,2234.23 2719.86,2235.7 2719.88,2237.17 2719.86,2238.63 2719.81,2240.09 2719.72,2241.55 2719.59,2243 2719.43,2244.45 2719.24,2245.89 2719,2247.33 2718.74,2248.75 2718.44,2250.17 2718.11,2251.58 2717.74,2252.98 2717.35,2254.37 2716.91,2255.75 2716.45,2257.12 2715.95,2258.48 2715.43,2259.83 2714.87,2261.16 2714.28,2262.48 2713.66,2263.78 1577.77,1127.9 1578.4,1126.6 1578.99,1125.28 1579.55,1123.94 1580.07,1122.6 1580.57,1121.24 1581.03,1119.87 1581.46,1118.49 1581.86,1117.1 1582.23,1115.7 1582.56,1114.29 1582.86,1112.87 1583.12,1111.44 1583.35,1110.01 1583.55,1108.57 1583.71,1107.12 1583.84,1105.67 1583.93,1104.21 1583.98,1102.75 1584,1101.28 1583.98,1099.82 1583.93,1098.34 1583.84,1096.87 1583.71,1095.4 1583.54,1093.92 1583.34,1092.45 1583.1,1090.97 1582.82,1089.5 1582.5,1088.03 1582.14,1086.56 1581.74,1085.09 1581.3,1083.63 "/>
     <polygon id="_480129664" class="fil1" points="1577.77,1127.9 2713.66,2263.78 2712.32,2266.35 2710.87,2268.85 2709.3,2271.28 2707.61,2273.63 2705.82,2275.9 2703.91,2278.09 2701.9,2280.18 2699.78,2282.18 2697.56,2284.09 2695.24,2285.88 2692.82,2287.57 2690.31,2289.14 2687.7,2290.59 2685.01,2291.92 2682.22,2293.12 2679.35,2294.18 1543.47,1158.3 1546.34,1157.23 1549.13,1156.04 1551.82,1154.71 1554.43,1153.26 1556.94,1151.69 1559.36,1150 1561.68,1148.2 1563.9,1146.3 1566.02,1144.3 1568.03,1142.2 1569.94,1140.02 1571.73,1137.75 1573.42,1135.39 1574.99,1132.97 1576.44,1130.47 "/>
     <polygon id="_480132400" class="fil1" points="1543.47,1158.3 2679.35,2294.18 2637.89,2308.34 1502.01,1172.46 "/>
     <polygon id="_480134752" class="fil1" points="1502.01,1172.46 2637.89,2308.34 2637.79,2308.38 1501.91,1172.5 "/>
     <polygon id="_480135040" class="fil1" points="1501.91,1172.5 2637.79,2308.38 2632.7,2310.12 1496.82,1174.24 "/>
     <polygon id="_480129736" class="fil1" points="1418.68,1130.99 2554.56,2266.87 2540.04,2266.28 1404.16,1130.4 "/>
     <polygon id="_480134392" class="fil1" points="1451.09,1171.19 2586.97,2307.07 2584.41,2305.74 2581.91,2304.28 2579.48,2302.71 2577.13,2301.03 2574.86,2299.23 2572.67,2297.32 2570.57,2295.31 1434.69,1159.43 1436.79,1161.44 1438.97,1163.35 1441.25,1165.15 1443.6,1166.83 1446.03,1168.4 1448.53,1169.85 "/>
     <polygon id="_480130168" class="fil1" points="1496.82,1174.24 2632.7,2310.12 2631.24,2310.6 2629.78,2311.03 2628.32,2311.43 2626.85,2311.79 2625.37,2312.11 2623.9,2312.39 2622.43,2312.63 2620.95,2312.84 2619.48,2313 2618,2313.13 2616.53,2313.22 2615.06,2313.28 2613.59,2313.29 2612.12,2313.28 2610.66,2313.22 2609.2,2313.13 2607.75,2313.01 2606.3,2312.84 2604.86,2312.65 2603.43,2312.42 2602,2312.15 2600.58,2311.85 2599.17,2311.52 2597.77,2311.16 2596.38,2310.76 2595,2310.33 2593.63,2309.86 2592.27,2309.37 2590.93,2308.84 2589.6,2308.28 2588.28,2307.69 2586.97,2307.07 1451.09,1171.19 1452.4,1171.81 1453.71,1172.4 1455.05,1172.96 1456.39,1173.49 1457.75,1173.98 1459.12,1174.45 1460.5,1174.88 1461.89,1175.27 1463.29,1175.64 1464.7,1175.97 1466.12,1176.27 1467.55,1176.54 1468.98,1176.77 1470.42,1176.96 1471.87,1177.12 1473.32,1177.25 1474.78,1177.34 1476.24,1177.39 1477.71,1177.41 1479.18,1177.39 1480.65,1177.34 1482.12,1177.25 1483.59,1177.12 1485.07,1176.95 1486.54,1176.75 1488.02,1176.51 1489.49,1176.23 1490.96,1175.91 1492.43,1175.55 1493.9,1175.15 1495.36,1174.71 "/>
     <polygon id="_480131728" class="fil1" points="1404.16,1130.4 2540.04,2266.28 2541.07,2269.66 2541.81,2273.07 2542.27,2276.5 2542.45,2279.92 2542.37,2283.33 2542.03,2286.7 2541.43,2290.04 2540.59,2293.33 2539.51,2296.54 2538.2,2299.68 2536.67,2302.71 2534.93,2305.64 2532.97,2308.45 2530.82,2311.12 2528.47,2313.65 2525.94,2316.01 2523.23,2318.19 2520.35,2320.19 2517.31,2321.98 2514.12,2323.55 2510.77,2324.9 2507.28,2326 2503.67,2326.85 2499.92,2327.42 2496.06,2327.71 2492.09,2327.7 2488.02,2327.39 2483.85,2326.75 2479.59,2325.77 2475.25,2324.44 2470.84,2322.74 2466.36,2320.67 1330.48,1184.78 1334.95,1186.86 1339.37,1188.55 1343.71,1189.88 1347.96,1190.86 1352.14,1191.5 1356.21,1191.82 1360.18,1191.83 1364.04,1191.54 1367.79,1190.96 1371.4,1190.12 1374.89,1189.02 1378.23,1187.67 1381.43,1186.09 1384.47,1184.3 1387.35,1182.31 1390.06,1180.12 1392.59,1177.76 1394.94,1175.24 1397.09,1172.57 1399.04,1169.76 1400.79,1166.83 1402.32,1163.79 1403.63,1160.66 1404.71,1157.44 1405.55,1154.16 1406.14,1150.82 1406.49,1147.44 1406.57,1144.04 1406.39,1140.61 1405.93,1137.19 1405.19,1133.78 "/>
     <polygon id="_480126832" class="fil1" points="1330.48,1184.78 2466.36,2320.67 2465.84,2321.58 1329.96,1185.69 "/>
     <polygon id="_480130600" class="fil1" points="1329.96,1185.69 2465.84,2321.58 2462.87,2319.87 1326.99,1183.98 "/>
     <polygon id="_480130912" class="fil1" points="737.359,718.336 1873.24,1854.22 1874.87,1855.87 1876.43,1857.58 1877.93,1859.35 1879.35,1861.16 1880.7,1863.04 1881.98,1864.95 1883.19,1866.92 1884.32,1868.93 1885.37,1870.98 749.49,735.099 748.436,733.048 747.305,731.039 746.099,729.073 744.82,727.153 743.468,725.282 742.045,723.464 740.552,721.697 738.989,719.988 "/>
     <polygon id="_480130648" class="fil1" points="749.49,735.099 1885.37,1870.98 1885.99,1872.29 1886.58,1873.61 1887.14,1874.94 1887.67,1876.28 1888.17,1877.64 1888.63,1879.01 1889.06,1880.39 1889.46,1881.78 1889.83,1883.18 1890.16,1884.59 1890.46,1886.01 1890.72,1887.44 1890.95,1888.87 1891.15,1890.32 1891.31,1891.76 1891.43,1893.22 1891.52,1894.67 1891.58,1896.13 1891.6,1897.6 1891.58,1899.07 1891.53,1900.54 1891.43,1902.01 1891.3,1903.49 1891.14,1904.96 1890.93,1906.44 1890.69,1907.91 1890.41,1909.39 1890.09,1910.86 1889.73,1912.33 1889.34,1913.79 1888.9,1915.25 1888.42,1916.71 752.54,780.831 753.017,779.372 753.455,777.91 753.852,776.444 754.211,774.975 754.53,773.503 754.811,772.029 755.053,770.555 755.258,769.08 755.423,767.605 755.552,766.131 755.644,764.658 755.698,763.186 755.716,761.718 755.697,760.253 755.643,758.79 755.552,757.333 755.427,755.88 755.266,754.433 755.07,752.992 754.84,751.557 754.575,750.13 754.276,748.712 753.944,747.302 753.578,745.901 753.18,744.51 752.749,743.129 752.285,741.76 751.789,740.402 751.262,739.056 750.702,737.723 750.112,736.404 "/>
     <polygon id="_480130144" class="fil1" points="1242.42,1248.53 2378.3,2384.41 2375.63,2382.87 1239.75,1246.99 "/>
     <polygon id="_480126208" class="fil1" points="1147.63,1293.14 2283.51,2429.02 2283.6,2434.62 2283.52,2439.97 2283.27,2445.06 2282.85,2449.9 2282.25,2454.48 2281.48,2458.81 2280.54,2462.88 2279.42,2466.7 2278.13,2470.25 2276.67,2473.55 2275.03,2476.59 2273.22,2479.37 2271.23,2481.89 2269.07,2484.14 2266.73,2486.14 2264.21,2487.88 2261.52,2489.35 2258.65,2490.56 2255.6,2491.51 2252.37,2492.19 2248.96,2492.61 2245.38,2492.76 2241.62,2492.65 2237.67,2492.27 2233.55,2491.63 2229.25,2490.71 2224.76,2489.53 2220.1,2488.08 2215.25,2486.36 2210.22,2484.38 2205.01,2482.12 2199.62,2479.59 1063.74,1343.7 1069.13,1346.23 1074.34,1348.49 1079.37,1350.48 1084.22,1352.2 1088.88,1353.65 1093.37,1354.83 1097.67,1355.74 1101.79,1356.39 1105.74,1356.77 1109.5,1356.88 1113.08,1356.73 1116.49,1356.31 1119.72,1355.63 1122.76,1354.68 1125.64,1353.47 1128.33,1352 1130.85,1350.26 1133.19,1348.26 1135.35,1346 1137.34,1343.48 1139.15,1340.71 1140.79,1337.67 1142.25,1334.37 1143.54,1330.81 1144.66,1327 1145.6,1322.93 1146.37,1318.6 1146.96,1314.02 1147.39,1309.18 1147.64,1304.09 1147.72,1298.74 "/>
     <polygon id="_480123400" class="fil1" points="752.54,780.831 1888.42,1916.71 1881.42,1937.2 745.542,801.314 "/>
     <polygon id="_480120040" class="fil1" points="1063.74,1343.7 2199.62,2479.59 2185.09,2472.02 1049.21,1336.14 "/>
     <polygon id="_480118720" class="fil1" points="957.239,1288.23 2093.12,2424.11 2086.49,2420.66 950.607,1284.78 "/>
     <polygon id="_480119128" class="fil1" points="857.977,1238.98 1993.86,2374.86 1986.59,2372.01 850.705,1236.13 "/>
     <polygon id="_480123592" class="fil1" points="756.723,1199.33 1892.6,2335.21 1881.97,2331.05 746.091,1195.17 "/>
     <polygon id="_480118576" class="fil1" points="656.669,1160.15 1792.55,2296.03 1762.79,2284.38 626.913,1148.5 "/>
     <polygon id="_480131536" class="fil1" points="626.913,1148.5 1762.79,2284.38 1761.71,2287.15 1760.49,2289.83 1759.16,2292.44 1757.7,2294.95 1756.14,2297.38 1754.47,2299.72 1752.69,2301.96 1750.81,2304.1 1748.84,2306.15 1746.78,2308.1 1744.64,2309.95 1742.41,2311.69 1740.11,2313.33 1737.73,2314.85 1735.29,2316.27 1732.79,2317.57 596.91,1181.68 599.413,1180.38 601.854,1178.97 604.228,1177.44 606.53,1175.81 608.756,1174.07 610.902,1172.22 612.962,1170.27 614.932,1168.22 616.808,1166.08 618.585,1163.83 620.258,1161.5 621.824,1159.07 623.276,1156.55 624.611,1153.95 625.825,1151.27 "/>
     <polygon id="_480104608" class="fil1" points="746.091,1195.17 1881.97,2331.05 1880.75,2332.78 1879.49,2334.46 1878.19,2336.09 1876.86,2337.67 1875.49,2339.2 1874.09,2340.67 1872.67,2342.08 1871.21,2343.44 1869.72,2344.74 1868.21,2345.98 1866.67,2347.17 1865.11,2348.29 1863.53,2349.34 1861.93,2350.34 1860.3,2351.27 1858.66,2352.13 1857,2352.93 1855.32,2353.66 1853.64,2354.32 1851.93,2354.9 1850.22,2355.42 1848.5,2355.87 1846.76,2356.23 1845.02,2356.53 1843.27,2356.75 1841.52,2356.89 1839.77,2356.95 1838.01,2356.93 1836.25,2356.83 1834.5,2356.65 1832.74,2356.39 1830.99,2356.04 1829.03,2355.6 693.151,1219.72 695.106,1220.16 696.858,1220.51 698.614,1220.77 700.372,1220.95 702.129,1221.05 703.887,1221.07 705.642,1221.01 707.393,1220.87 709.14,1220.65 710.88,1220.35 712.614,1219.98 714.337,1219.54 716.052,1219.02 717.754,1218.43 719.443,1217.77 721.119,1217.05 722.777,1216.25 724.42,1215.39 726.044,1214.46 727.648,1213.46 729.232,1212.4 730.792,1211.28 732.329,1210.1 733.841,1208.86 735.327,1207.56 736.784,1206.2 738.212,1204.78 739.609,1203.31 740.975,1201.79 742.308,1200.21 743.605,1198.58 744.866,1196.9 "/>
     <polygon id="_480122248" class="fil1" points="850.705,1236.13 1986.59,2372.01 1985.41,2374.3 1984.17,2376.52 1982.88,2378.68 1981.53,2380.78 1980.13,2382.81 1978.67,2384.78 1977.17,2386.68 1975.62,2388.5 1974.03,2390.26 1972.39,2391.94 1970.72,2393.55 1969,2395.08 1967.25,2396.53 1965.47,2397.9 1963.65,2399.19 1961.8,2400.39 1959.93,2401.51 1958.03,2402.53 1956.11,2403.47 1954.16,2404.32 1952.2,2405.07 1950.22,2405.73 1948.22,2406.29 1946.22,2406.75 1944.2,2407.11 1942.17,2407.36 1940.14,2407.52 1938.1,2407.56 1936.06,2407.5 1934.02,2407.33 1931.98,2407.05 1929.95,2406.65 1927.99,2406.21 792.109,1270.33 794.065,1270.77 796.099,1271.17 798.138,1271.45 800.177,1271.62 802.217,1271.68 804.256,1271.64 806.29,1271.48 808.316,1271.23 810.335,1270.87 812.343,1270.41 814.339,1269.85 816.318,1269.19 818.281,1268.44 820.225,1267.59 822.148,1266.65 824.049,1265.62 825.922,1264.51 827.768,1263.31 829.584,1262.02 831.369,1260.65 833.121,1259.2 834.835,1257.67 836.512,1256.06 838.147,1254.38 839.741,1252.62 841.289,1250.79 842.792,1248.89 844.246,1246.93 845.648,1244.89 846.996,1242.8 848.291,1240.64 849.527,1238.41 "/>
     <polygon id="_480122200" class="fil1" points="792.109,1270.33 1927.99,2406.21 1925.62,2405.6 1923.31,2404.84 1921.06,2403.95 1918.88,2402.91 1916.77,2401.74 1914.72,2400.44 1912.76,2399.02 1910.86,2397.47 1909.04,2395.81 773.161,1259.93 774.98,1261.59 776.874,1263.13 778.843,1264.56 780.885,1265.86 782.997,1267.03 785.176,1268.06 787.424,1268.96 789.735,1269.72 "/>
     <polygon id="_480127408" class="fil1" points="950.607,1284.78 2086.49,2420.66 2085.33,2423.05 2084.11,2425.38 2082.83,2427.65 2081.49,2429.85 2080.09,2431.98 2078.63,2434.05 2077.12,2436.04 2075.56,2437.97 2073.96,2439.82 2072.3,2441.59 2070.61,2443.28 2068.87,2444.9 2067.09,2446.43 2065.27,2447.87 2063.43,2449.23 2061.54,2450.51 2059.63,2451.69 2057.69,2452.78 2055.73,2453.77 2053.74,2454.67 2051.73,2455.47 2049.7,2456.18 2047.66,2456.78 2045.6,2457.27 2043.53,2457.66 2041.45,2457.94 2039.36,2458.12 2037.27,2458.18 2035.18,2458.12 2033.09,2457.96 2030.99,2457.67 2028.91,2457.26 2026.95,2456.83 891.068,1320.94 893.024,1321.38 895.112,1321.79 897.204,1322.07 899.298,1322.24 901.391,1322.29 903.483,1322.23 905.568,1322.06 907.648,1321.78 909.718,1321.39 911.776,1320.89 913.82,1320.29 915.848,1319.59 917.857,1318.79 919.846,1317.89 921.81,1316.89 923.75,1315.81 925.661,1314.62 927.544,1313.35 929.394,1311.99 931.208,1310.54 932.987,1309.01 934.725,1307.4 936.422,1305.71 938.076,1303.93 939.683,1302.09 941.242,1300.16 942.751,1298.17 944.206,1296.1 945.605,1293.96 946.948,1291.76 948.231,1289.5 949.451,1287.17 "/>
     <polygon id="_480126808" class="fil1" points="891.068,1320.94 2026.95,2456.83 2024.46,2456.18 2022.04,2455.37 2019.69,2454.41 2017.41,2453.3 2015.21,2452.04 2013.09,2450.64 2011.05,2449.1 2009.09,2447.43 873.204,1311.55 875.164,1313.22 877.205,1314.76 879.328,1316.16 881.529,1317.41 883.805,1318.53 886.156,1319.49 888.577,1320.3 "/>
     <polygon id="_480122488" class="fil1" points="693.151,1219.72 1829.03,2355.6 1826.92,2355.07 1824.87,2354.42 1822.86,2353.66 1820.9,2352.78 1819,2351.81 1817.15,2350.73 1815.36,2349.55 1813.62,2348.27 1811.94,2346.9 1810.33,2345.43 674.445,1209.55 676.064,1211.01 677.741,1212.39 679.476,1213.67 681.269,1214.85 683.117,1215.93 685.02,1216.9 686.977,1217.77 688.985,1218.54 691.043,1219.19 "/>
     <polygon id="_480131632" class="fil1" points="990.026,1371.55 2125.91,2507.44 2123.42,2506.79 2120.99,2505.98 2118.64,2505.02 2116.37,2503.91 2114.17,2502.65 2112.04,2501.25 2110,2499.71 2108.04,2498.05 972.161,1362.16 974.122,1363.83 976.163,1365.37 978.285,1366.77 980.487,1368.03 982.763,1369.14 985.113,1370.1 987.535,1370.91 "/>
     <polygon id="_480122176" class="fil1" points="1049.21,1336.14 2185.09,2472.02 2183.93,2474.37 2182.7,2476.66 2181.42,2478.88 2180.07,2481.05 2178.67,2483.14 2177.21,2485.17 2175.71,2487.13 2174.15,2489.02 2172.55,2490.83 2170.9,2492.57 2169.21,2494.23 2167.48,2495.81 2165.71,2497.31 2163.91,2498.73 2162.07,2500.06 2160.21,2501.31 2158.31,2502.46 2156.38,2503.53 2154.43,2504.5 2152.46,2505.38 2150.47,2506.17 2148.46,2506.85 2146.44,2507.43 2144.4,2507.92 2142.35,2508.3 2140.29,2508.57 2138.22,2508.73 2136.15,2508.79 2134.08,2508.73 2132,2508.56 2129.93,2508.28 2127.86,2507.88 2125.91,2507.44 990.026,1371.55 991.981,1371.99 994.048,1372.4 996.12,1372.68 998.194,1372.85 1000.27,1372.91 1002.34,1372.85 1004.4,1372.69 1006.46,1372.41 1008.51,1372.04 1010.55,1371.55 1012.58,1370.97 1014.59,1370.28 1016.58,1369.5 1018.55,1368.62 1020.5,1367.65 1022.43,1366.58 1024.32,1365.43 1026.19,1364.18 1028.03,1362.85 1029.83,1361.43 1031.6,1359.93 1033.33,1358.35 1035.02,1356.69 1036.67,1354.95 1038.27,1353.14 1039.83,1351.25 1041.33,1349.29 1042.79,1347.26 1044.19,1345.16 1045.53,1343 1046.82,1340.78 1048.05,1338.49 "/>
     <polygon id="_480130264" class="fil1" points="596.91,1181.68 1732.79,2317.57 1731.49,2318.19 1730.17,2318.78 1728.83,2319.34 1727.49,2319.86 1726.13,2320.36 1724.76,2320.82 1723.38,2321.26 1721.99,2321.65 1720.59,2322.02 1719.18,2322.35 1717.76,2322.65 1716.33,2322.91 1714.9,2323.15 1713.46,2323.34 1712.01,2323.5 1710.56,2323.63 1709.1,2323.72 1707.64,2323.77 1706.17,2323.79 1704.71,2323.77 1703.23,2323.72 1701.76,2323.63 1700.29,2323.5 1698.81,2323.33 1697.34,2323.13 1695.86,2322.89 1694.39,2322.61 1692.92,2322.29 1691.45,2321.93 1689.98,2321.53 1688.52,2321.09 1687.06,2320.62 551.18,1184.73 552.638,1185.21 554.1,1185.65 555.566,1186.05 557.035,1186.4 558.507,1186.72 559.98,1187 561.455,1187.25 562.93,1187.45 564.406,1187.62 565.88,1187.74 567.352,1187.84 568.824,1187.89 570.292,1187.91 571.758,1187.89 573.22,1187.84 574.678,1187.75 576.13,1187.62 577.577,1187.46 579.018,1187.26 580.452,1187.03 581.879,1186.77 583.297,1186.47 584.708,1186.14 586.108,1185.77 587.5,1185.37 588.88,1184.94 590.249,1184.48 591.608,1183.98 592.953,1183.45 594.285,1182.9 595.604,1182.3 "/>
     <polygon id="_480127432" class="fil1" points="551.18,1184.73 1687.06,2320.62 1681.97,2318.88 546.089,1182.99 "/>
     <polygon id="_480127600" class="fil1" points="546.089,1182.99 1681.97,2318.88 1681.87,2318.84 545.987,1182.96 "/>
     <polygon id="_480132952" class="fil1" points="545.987,1182.96 1681.87,2318.84 1640.41,2304.68 504.527,1168.79 "/>
     <polygon id="_480128848" class="fil1" points="504.527,1168.79 1640.41,2304.68 1637.54,2303.61 1634.76,2302.42 1632.06,2301.09 1629.45,2299.64 1626.94,2298.06 1624.52,2296.38 1622.2,2294.58 1619.98,2292.68 484.101,1156.8 486.322,1158.7 488.641,1160.5 491.06,1162.18 493.572,1163.75 496.178,1165.21 498.874,1166.53 501.658,1167.73 "/>
     <polygon id="_480131248" class="fil1" points="1326.99,1183.98 2462.87,2319.87 2464.68,2324.67 2466.07,2329.53 2467.06,2334.41 2467.66,2339.3 2467.89,2344.16 2467.75,2348.98 2467.26,2353.74 2466.44,2358.4 2465.29,2362.95 2463.82,2367.37 2462.06,2371.63 2460.02,2375.7 2457.7,2379.57 2455.12,2383.22 2452.29,2386.61 2449.23,2389.73 2445.94,2392.55 2442.45,2395.05 2438.76,2397.21 2434.88,2399.01 2430.84,2400.41 2426.64,2401.4 2422.29,2401.96 2417.81,2402.06 2413.21,2401.68 2408.51,2400.79 2403.71,2399.38 2398.83,2397.41 2393.89,2394.87 2388.88,2391.74 2383.84,2387.99 2378.77,2383.59 1242.88,1247.71 1247.96,1252.11 1253,1255.86 1258,1258.99 1262.95,1261.53 1267.83,1263.49 1272.63,1264.91 1277.33,1265.79 1281.93,1266.18 1286.41,1266.08 1290.76,1265.52 1294.96,1264.53 1299,1263.12 1302.88,1261.33 1306.57,1259.17 1310.06,1256.67 1313.35,1253.85 1316.41,1250.73 1319.24,1247.33 1321.82,1243.69 1324.14,1239.82 1326.18,1235.74 1327.94,1231.49 1329.4,1227.07 1330.55,1222.52 1331.38,1217.85 1331.87,1213.1 1332.01,1208.28 1331.78,1203.41 1331.18,1198.53 1330.19,1193.65 1328.8,1188.79 "/>
     <polygon id="_480128176" class="fil1" points="1242.88,1247.71 2378.77,2383.59 2378.3,2384.41 1242.42,1248.53 "/>
     <polygon id="_480126952" class="fil1" points="1239.75,1246.99 2375.63,2382.87 2376.76,2386.72 2377.49,2390.7 2377.85,2394.79 2377.84,2398.96 2377.47,2403.17 2376.77,2407.4 2375.74,2411.62 2374.39,2415.81 2372.75,2419.92 2370.82,2423.94 2368.62,2427.83 2366.16,2431.57 2363.46,2435.12 2360.52,2438.46 2357.37,2441.55 2354.01,2444.38 2350.46,2446.9 2346.73,2449.1 2342.84,2450.93 2338.8,2452.38 2334.62,2453.42 2330.32,2454.01 2325.91,2454.12 2321.41,2453.73 2316.82,2452.81 2312.16,2451.33 2307.44,2449.25 2302.69,2446.56 2297.9,2443.22 2293.1,2439.2 1157.22,1303.32 1162.02,1307.34 1166.81,1310.68 1171.56,1313.37 1176.28,1315.44 1180.93,1316.93 1185.52,1317.85 1190.03,1318.24 1194.44,1318.12 1198.74,1317.53 1202.92,1316.5 1206.96,1315.05 1210.85,1313.21 1214.58,1311.02 1218.13,1308.49 1221.49,1305.67 1224.64,1302.57 1227.57,1299.23 1230.28,1295.68 1232.74,1291.95 1234.94,1288.06 1236.87,1284.04 1238.51,1279.92 1239.85,1275.74 1240.88,1271.52 1241.59,1267.29 1241.95,1263.07 1241.97,1258.91 1241.61,1254.82 1240.88,1250.83 "/>
    </g>
    <path id="_461729648" class="fil1" d="M1456.17 717.404l0 0zm-864.331 10.4965l0 0zm473.244 27.8256l239.984 42.7122 -9.60237 -28.1044c-5.3067,-15.5303 -3.74292,-31.8874 3.04961,-45.7323 5.4189,-11.0421 14.1413,-20.4319 25.3299,-26.4721l0.811418 -0.429922c2.59488,-1.34882 5.31969,-2.52047 8.1626,-3.49252l46.6536 -15.939 1.78347 -0.577559c14.9906,-4.59685 30.6319,-2.9067 43.9429,3.62717 13.8449,6.79134 25.0914,18.7748 30.3969,34.3016l0.575197 1.78465 0.0283465 -0.011811 124.631 364.779c5.30433,15.528 3.74174,31.8886 -3.05079,45.73 -6.79134,13.8449 -18.776,25.0914 -34.3016,30.3969l-41.4603 14.1638 -0.101575 0.034252 -5.09056 1.73977c-15.5303,5.3067 -31.8874,3.74292 -45.73,-3.04961 -13.8437,-6.79252 -25.0902,-18.776 -30.3969,-34.3016l-2.01496 -5.89725 -14.5169 -0.590552c12.5539,35.9079 -25.5969,78.5682 -73.6843,54.3874l-0.522048 0.908268 -2.96221 -1.71024c21.515,50.9433 -29.8736,114.118 -84.1087,63.7288l-0.468898 0.816142 -2.67047 -1.54134c14.2004,40.2284 -41.1426,108.41 -92.1142,46.1492 1.87677,61.1044 -25.3843,79.0005 -83.8938,50.5678l-14.524 -7.56497c-12.0815,25.3689 -35.2111,40.7776 -57.2315,35.8548l-1.95591 -0.438189c-26.9315,-6.02008 -42.4134,-40.2614 -34.4032,-76.0914l1.61693 -7.23308 -6.63189 -3.45355c-11.9799,25.8142 -35.3469,41.5748 -57.5835,36.6036l-1.95591 -0.437008c-26.9315,-6.02126 -42.4134,-40.2626 -34.4032,-76.0926l1.31221 -5.87126 -7.27205 -2.84764c-12.2339,24.6425 -34.9736,39.4807 -56.6398,34.637l-1.95591 -0.437008c-25.6536,-5.73544 -40.9181,-37.0737 -35.3859,-71.0032l-10.6323 -4.16339c-12.8551,18.7288 -32.3185,29.165 -50.9847,24.9921l-1.95591 -0.437008c-22.7386,-5.08347 -37.3146,-30.2835 -36.4819,-59.5725l-29.7555 -11.6528c-5.45552,14.9847 -16.4929,26.5583 -30.0036,33.1878 -13.8425,6.79252 -30.1996,8.35631 -45.73,3.04961l-5.09056 -1.73977 -0.101575 -0.034252 -41.4603 -14.1638c-15.5256,-5.30552 -27.5103,-16.552 -34.3016,-30.3969 -6.79252,-13.8413 -8.35512,-30.202 -3.05079,-45.73l124.631 -364.779 0.0283465 0.00944883 0.575197 -1.78228c5.30552,-15.5268 16.552,-27.5103 30.3969,-34.3016 13.3122,-6.53386 28.9524,-8.22402 43.9441,-3.62599l1.78228 0.576378 46.6536 15.9402c2.84292,0.970867 5.56772,2.14252 8.1626,3.49134l0.811418 0.429922c11.1886,6.04134 19.911,15.4299 25.3299,26.4721 6.79252,13.8449 8.35631,30.202 3.04961,45.7323l-6.99804 20.4827 235.231 0c20.3055,-38.5807 49.2544,-51.2386 84.306,-45.587z"/>
   </g>
  </g>
  <path class="fil2" d="M1024 0c565.539,0 1024,458.461 1024,1024 0,565.539 -458.461,1024 -1024,1024 -565.539,0 -1024,-458.461 -1024,-1024 0,-565.539 458.461,-1024 1024,-1024z"/>
  <path class="fil3" d="M626.879 1148.48l115.722 -347.168 290.38 0 361.525 313.132c34.6347,37.917 -10.5933,101.282 -68.1284,68.1284 23.7673,52.6996 -31.9122,119.867 -88.3914,60.2788 19.8555,39.4051 -37.5922,114.731 -90.3556,50.2807 1.87677,61.1056 -25.3843,79.0028 -83.8938,50.5689l-186.786 -97.2946 -250.073 -97.9265z"/>
  <path class="fil4" d="M734.64 1034.14l1.95591 0.438189c26.9327,6.02008 42.4134,40.2626 34.4032,76.0926l-12.3614 55.2933c-8.01024,35.8288 -36.6,60.2186 -63.5315,54.1973l-1.95591 -0.437008c-26.9315,-6.02126 -42.4134,-40.2614 -34.4032,-76.0926l12.3614 -55.2933c8.01142,-35.8311 36.5988,-60.2197 63.5315,-54.1985z"/>
  <path class="fil4" d="M833.599 1084.75l1.95591 0.437008c26.9327,6.02126 42.4134,40.2638 34.4032,76.0926l-12.3614 55.2933c-8.01024,35.8299 -36.6,60.2197 -63.5315,54.1985l-1.95591 -0.437008c-26.9315,-6.02126 -42.4134,-40.2614 -34.4032,-76.0926l12.3614 -55.2933c8.01142,-35.8311 36.5988,-60.2197 63.5315,-54.1985z"/>
  <path class="fil4" d="M932.558 1135.36l1.95591 0.437008c26.9327,6.02126 42.4134,40.2626 34.4032,76.0926l-12.3614 55.2933c-8.01024,35.8299 -36.6,60.2197 -63.5315,54.1985l-1.95591 -0.437008c-26.9315,-6.02126 -42.4134,-40.2626 -34.4032,-76.0926l12.3614 -55.2933c8.01024,-35.8311 36.5988,-60.2197 63.5315,-54.1985z"/>
  <path class="fil4" d="M1031.52 1185.97l1.95591 0.437008c26.9327,6.02126 42.4134,40.2626 34.4032,76.0926l-12.3614 55.2933c-8.01024,35.8299 -36.6,60.2186 -63.5315,54.1985l-1.95591 -0.438189c-26.9315,-6.02008 -42.4134,-40.2614 -34.4032,-76.0926l12.3614 -55.2933c8.01142,-35.8299 36.5988,-60.2186 63.5315,-54.1973z"/>
  <path class="fil4" d="M1065.08 755.727l256.135 45.5882 113.291 330.317 -30.3425 -1.23425 -274.793 -235.842 -51.0449 -4.53662c-27.3744,29.0504 -57.6957,216.261 -187.454,105.98l89.902 -194.685c20.3055,-38.5819 49.2544,-51.2398 84.306,-45.5882z"/>
  <polygon class="fil5" points="1329.96,1185.69 1237.73,1132.44 1239.07,1130.1 1331.3,1183.35 "/>
  <polygon class="fil5" points="1242.42,1248.53 1150.18,1195.28 1151.53,1192.94 1243.76,1246.19 "/>
  <path class="fil6" d="M545.987 1182.96l0.101575 0.034252 5.09056 1.73977c15.5303,5.3067 31.8874,3.74292 45.7311,-3.04843 13.8425,-6.79252 25.089,-18.7772 30.3945,-34.3028l125.235 -366.551c5.3067,-15.5303 3.74292,-31.8874 -3.04961,-45.7323 -5.41772,-11.0421 -14.1413,-20.4307 -25.3299,-26.4721l-0.812599 -0.429922 -177.36 474.762z"/>
  <path class="fil7" d="M591.805 727.889l-124.63 364.778c-5.30433,15.5303 -3.74292,31.8898 3.04961,45.7323 6.79252,13.8437 18.7772,25.0902 34.3028,30.3945l41.4603 14.165 177.36 -474.762c-2.59488,-1.34882 -5.31851,-2.52047 -8.16142,-3.49134l-46.6536 -15.9402 -1.78228 -0.576378 -0.0011811 -0.0011811c-14.9906,-4.59685 -30.6307,-2.9067 -43.9429,3.62717 -13.8449,6.79134 -25.0914,18.7748 -30.3969,34.3016l-0.574016 1.78228 -0.0011811 0.00236221 -0.0295276 -0.011811z"/>
  <path class="fil6" d="M1502.01 1172.46l-0.101575 0.034252 -5.09056 1.73977c-15.5303,5.3067 -31.8874,3.74292 -45.7311,-3.04961 -13.8425,-6.79252 -25.089,-18.776 -30.3945,-34.3016l-125.235 -366.552c-5.30552,-15.5291 -3.74292,-31.8862 3.04961,-45.7311 5.41772,-11.0421 14.1413,-20.4307 25.3299,-26.4721l0.812599 -0.429922 177.36 474.762z"/>
  <path class="fil7" d="M1456.2 717.393l124.63 364.778c5.30433,15.5291 3.74292,31.8898 -3.04961,45.7311 -6.79252,13.8449 -18.7772,25.0914 -34.3028,30.3957l-41.4603 14.165 -177.36 -474.762c2.59488,-1.34882 5.31851,-2.52047 8.16142,-3.49252l46.6536 -15.939 1.78228 -0.576378 0.0011811 -0.0011811c14.9906,-4.59685 30.6307,-2.9067 43.9429,3.62717 13.8449,6.79134 25.0914,18.7748 30.3969,34.3016l0.574016 1.78228 0.0011811 0.00236221 0.0295276 -0.011811z"/>
 </g>
</svg>
