<?xml version="1.0" encoding="UTF-8"?>
<!DOCTYPE svg PUBLIC "-//W3C//DTD SVG 1.1//EN" "http://www.w3.org/Graphics/SVG/1.1/DTD/svg11.dtd">
<!-- Creator: CorelDRAW -->
<svg xmlns="http://www.w3.org/2000/svg" xml:space="preserve" width="2048px" height="2048px" style="shape-rendering:geometricPrecision; text-rendering:geometricPrecision; image-rendering:optimizeQuality; fill-rule:evenodd; clip-rule:evenodd"
viewBox="0 0 2048 2048"
 xmlns:xlink="http://www.w3.org/1999/xlink">
 <defs>
  <style type="text/css">
   <![CDATA[
    .fil2 {fill:none}
    .fil1 {fill:#43A047}
    .fil0 {fill:#81C784}
    .fil7 {fill:#88A2B7}
    .fil6 {fill:#BBDEFB}
    .fil3 {fill:#424242;fill-rule:nonzero}
    .fil5 {fill:#D4D7D9;fill-rule:nonzero}
    .fil4 {fill:#ECEFF1;fill-rule:nonzero}
   ]]>
  </style>
   <clipPath id="id0">
    <path d="M1024 0c565.539,0 1024,458.461 1024,1024 0,565.539 -458.461,1024 -1024,1024 -565.539,0 -1024,-458.461 -1024,-1024 0,-565.539 458.461,-1024 1024,-1024z"/>
   </clipPath>
 </defs>
 <g id="Layer_x0020_1">
  <metadata id="CorelCorpID_0Corel-Layer"/>
  <path class="fil0" d="M1024 0c565.539,0 1024,458.461 1024,1024 0,565.539 -458.461,1024 -1024,1024 -565.539,0 -1024,-458.461 -1024,-1024 0,-565.539 458.461,-1024 1024,-1024z"/>
  <g style="clip-path:url(#id0)">
   <g id="_461741624">
    <g>
     <polygon id="_4600666001" class="fil1" points="741.767,525.508 1877.65,1661.39 1877.08,1660.81 1876.5,1660.26 1875.9,1659.75 740.016,523.863 740.618,524.382 741.201,524.931 "/>
     <path id="_460075336" class="fil1" d="M2314.77 1909.79l0 0zm-1135.88 -1135.88l0 0z"/>
     <polygon id="_460074712" class="fil1" points="1191.59,793.901 2327.47,1929.78 2328.1,1930.9 2328.73,1932.02 2329.36,1933.14 2330,1934.25 2330.62,1935.34 2331.23,1936.4 2331.83,1937.43 2332.4,1938.41 1196.52,802.527 1195.95,801.546 1195.35,800.521 1194.74,799.459 1194.11,798.369 1193.48,797.26 1192.85,796.14 1192.22,795.017 "/>
     <polygon id="_460057120" class="fil1" points="1138.62,803.613 2274.5,1939.5 2274.32,1939.32 2274.17,1939.19 2274.04,1939.11 2273.91,1939.05 2273.78,1939 1137.9,803.121 1138.03,803.17 1138.15,803.228 1138.29,803.311 1138.44,803.434 "/>
     <polygon id="_460057288" class="fil1" points="1137.9,803.121 2273.78,1939 2273.68,1939 1137.8,803.121 "/>
     <polygon id="_460072168" class="fil1" points="1137.8,803.121 2273.68,1939 2273.55,1938.95 1137.67,803.072 "/>
     <polygon id="_460076728" class="fil1" points="1137.67,803.072 2273.55,1938.95 2273.16,1938.86 1137.28,802.974 "/>
     <polygon id="_460072816" class="fil1" points="1137.28,802.974 2273.16,1938.86 2273.08,1938.84 2272.93,1938.84 2272.72,1938.84 2272.45,1938.85 2272.1,1938.87 2271.7,1938.9 2271.23,1938.94 2270.71,1938.98 1134.83,803.102 1135.35,803.056 1135.82,803.018 1136.22,802.991 1136.56,802.971 1136.84,802.96 1137.05,802.957 1137.2,802.961 "/>
     <polygon id="_460075552" class="fil1" points="1134.83,803.102 2270.71,1938.98 2270.27,1939.03 2269.84,1939.09 2269.42,1939.16 2269.03,1939.25 2268.65,1939.35 2268.3,1939.46 2267.98,1939.59 2267.7,1939.73 1131.82,803.851 1132.1,803.707 1132.42,803.579 1132.77,803.464 1133.15,803.365 1133.54,803.28 1133.96,803.208 1134.39,803.149 "/>
     <polygon id="_460061368" class="fil1" points="1131.82,803.851 2267.7,1939.73 2266.42,1940.42 1130.54,804.536 "/>
     <polygon id="_460054096" class="fil1" points="1130.54,804.536 2266.42,1940.42 2265.24,1941.11 2263.98,1942.06 2262.64,1943.23 2261.25,1944.58 2259.8,1946.1 2258.3,1947.73 2256.77,1949.47 2255.19,1951.27 1119.31,815.384 1120.88,813.586 1122.42,811.853 1123.92,810.213 1125.37,808.699 1126.76,807.343 1128.1,806.176 1129.36,805.23 "/>
     <polygon id="_460076392" class="fil1" points="1196.52,802.527 2332.4,1938.41 2289.34,1963.86 1153.46,827.973 "/>
     <polygon id="_460079032" class="fil1" points="1119.31,815.384 2255.19,1951.27 2251.22,1955.84 1115.33,819.961 "/>
     <polygon id="_460064800" class="fil1" points="786.014,501.15 1921.89,1637.03 1922.66,1638.21 1923.4,1639.39 1924.11,1640.58 1924.8,1641.78 1925.47,1642.98 1926.11,1644.19 1926.73,1645.4 1927.32,1646.61 1927.89,1647.83 1928.43,1649.04 1928.95,1650.26 1929.45,1651.48 1929.92,1652.69 1930.37,1653.9 1930.8,1655.11 1931.21,1656.31 795.324,520.431 794.919,519.227 794.49,518.019 794.039,516.807 793.566,515.593 793.068,514.378 792.547,513.162 792.004,511.946 791.436,510.73 790.844,509.517 790.228,508.307 789.588,507.1 788.923,505.897 788.233,504.701 787.518,503.509 786.779,502.326 "/>
     <polygon id="_460058320" class="fil1" points="795.324,520.431 1931.21,1656.31 1931.85,1658.35 1932.45,1660.39 1933.01,1662.42 1933.53,1664.46 1934,1666.49 1934.44,1668.52 1934.83,1670.55 1935.18,1672.57 1935.48,1674.6 1935.75,1676.62 1935.97,1678.63 1936.15,1680.65 1936.3,1682.66 1936.4,1684.66 1936.46,1686.67 1936.48,1688.66 800.597,552.78 800.577,550.783 800.516,548.781 800.415,546.775 800.273,544.766 800.091,542.752 799.867,540.735 799.602,538.715 799.295,536.692 798.947,534.667 798.557,532.639 798.123,530.608 797.65,528.576 797.133,526.542 796.573,524.506 795.97,522.469 "/>
     <path id="_460069912" class="fil1" d="M1865.35 1655.96l0 0zm-1135.88 -1135.88l0 0z"/>
     <polygon id="_460052728" class="fil1" points="734.688,520.704 1870.57,1656.59 1869.89,1656.39 1869.21,1656.22 1868.54,1656.09 1867.87,1655.99 1867.22,1655.93 1866.58,1655.91 1865.95,1655.92 1865.35,1655.97 729.466,520.087 730.072,520.039 730.697,520.027 731.338,520.052 731.993,520.112 732.658,520.209 733.332,520.339 734.01,520.504 "/>
     <path id="_460059232" class="fil1" d="M1832.18 1675.62l0 0zm-1135.88 -1135.88l0 0z"/>
     <polygon id="_460064488" class="fil1" points="549.234,469.816 1685.12,1605.7 1685.12,1605.7 1685.14,1605.73 1685.17,1605.78 1685.21,1605.86 549.332,469.975 549.286,469.9 549.254,469.849 549.238,469.82 "/>
     <path id="_460047424" class="fil1" d="M1907.61 1621.18l0 0zm-1135.88 -1135.88l0 0z"/>
     <path id="_460057624" class="fil1" d="M1769.51 1656.65l0 0zm-1135.88 -1135.88l0 0z"/>
     <polygon id="_460074952" class="fil1" points="1155.09,756.191 2290.97,1892.07 2290.94,1892.14 1155.06,756.26 "/>
     <polygon id="_460077064" class="fil1" points="1173.98,767.973 2309.86,1903.86 2311.41,1905.62 2313.05,1907.59 2314.78,1909.79 1178.9,773.908 1177.16,771.706 1175.53,769.733 "/>
     <polygon id="_460056976" class="fil1" points="1178.9,773.908 2314.78,1909.79 2315.68,1910.94 2316.55,1912.1 2317.4,1913.28 2318.23,1914.46 2319.04,1915.66 2319.84,1916.86 2320.62,1918.08 2321.39,1919.32 2322.16,1920.57 2322.91,1921.83 2323.67,1923.11 2324.42,1924.41 2325.17,1925.73 2325.93,1927.06 2326.7,1928.41 2327.47,1929.78 1191.59,793.901 1190.81,792.53 1190.05,791.179 1189.29,789.845 1188.54,788.531 1187.78,787.232 1187.03,785.952 1186.28,784.687 1185.51,783.436 1184.74,782.202 1183.96,780.981 1183.16,779.773 1182.35,778.577 1181.52,777.394 1180.67,776.222 1179.8,775.06 "/>
     <polygon id="_460061608" class="fil1" points="740.016,523.863 1875.9,1659.75 1875.02,1658.96 739.134,523.08 "/>
     <polygon id="_460070008" class="fil1" points="739.134,523.08 1875.02,1658.96 1874.58,1658.59 1874.1,1658.24 1873.58,1657.91 1873.03,1657.61 1872.45,1657.32 1871.85,1657.05 1871.22,1656.81 1870.57,1656.59 734.688,520.704 735.337,520.924 735.967,521.169 736.571,521.435 737.15,521.723 737.699,522.032 738.214,522.362 738.694,522.711 "/>
     <polygon id="_460069984" class="fil1" points="1027.81,750.68 2163.69,1886.56 2163.41,1888.15 2163.17,1889.74 2162.97,1891.33 2162.8,1892.92 2162.69,1894.51 2162.61,1896.09 2162.58,1897.67 2162.6,1899.25 2162.66,1900.82 2162.77,1902.38 2162.93,1903.94 2163.14,1905.48 2163.41,1907.02 2163.72,1908.54 2164.09,1910.05 2164.51,1911.54 1028.63,775.66 1028.21,774.165 1027.84,772.656 1027.53,771.134 1027.26,769.6 1027.05,768.055 1026.89,766.501 1026.78,764.938 1026.72,763.367 1026.7,761.792 1026.73,760.21 1026.81,758.624 1026.92,757.036 1027.08,755.447 1027.29,753.857 1027.53,752.267 "/>
     <polygon id="_460056280" class="fil1" points="800.597,552.78 1936.48,1688.66 1936.46,1690.69 1936.39,1692.72 1936.29,1694.75 1936.14,1696.78 1935.94,1698.8 1935.71,1700.83 1935.43,1702.85 1935.12,1704.88 1934.76,1706.9 1934.36,1708.91 1933.92,1710.93 1933.44,1712.94 1932.91,1714.95 1932.35,1716.96 1931.75,1718.96 1931.11,1720.96 795.226,585.077 795.869,583.079 796.471,581.077 797.033,579.07 797.555,577.061 798.037,575.048 798.478,573.032 798.878,571.014 799.236,568.993 799.554,566.971 799.829,564.946 800.063,562.921 800.254,560.893 800.404,558.866 800.51,556.837 800.575,554.809 "/>
     <polygon id="_460060360" class="fil1" points="777.808,490.924 1913.69,1626.81 1914.62,1627.79 1915.52,1628.78 1916.4,1629.78 1917.25,1630.79 1918.09,1631.81 1918.89,1632.84 1919.68,1633.88 1920.44,1634.92 1921.18,1635.98 1921.89,1637.03 786.014,501.15 785.298,500.093 784.558,499.042 783.798,497.997 783.012,496.96 782.205,495.931 781.373,494.911 780.518,493.898 779.639,492.897 778.736,491.906 "/>
     <polygon id="_460071352" class="fil1" points="1115.35,819.973 2251.23,1955.86 2250.27,1956.94 2249.28,1958.02 2248.28,1959.09 2247.25,1960.16 2246.21,1961.22 2245.14,1962.28 2244.04,1963.32 2242.92,1964.36 2241.78,1965.39 2240.61,1966.4 2239.41,1967.41 2238.19,1968.4 2236.94,1969.37 2235.65,1970.33 2234.34,1971.28 2233,1972.2 1097.12,836.319 1098.46,835.394 1099.77,834.451 1101.06,833.492 1102.31,832.516 1103.53,831.526 1104.73,830.522 1105.9,829.507 1107.04,828.479 1108.16,827.442 1109.26,826.394 1110.33,825.338 1111.37,824.275 1112.4,823.207 1113.4,822.133 1114.39,821.055 "/>
     <polygon id="_460064752" class="fil1" points="1028.63,775.66 2164.51,1911.54 2164.91,1912.77 2165.34,1914 2165.82,1915.23 2166.34,1916.45 2166.91,1917.66 2167.52,1918.87 2168.18,1920.08 2168.88,1921.28 2169.63,1922.47 2170.42,1923.65 2171.27,1924.83 2172.16,1925.99 2173.1,1927.15 2174.09,1928.3 2175.14,1929.43 1039.25,793.553 1038.21,792.415 1037.22,791.267 1036.28,790.11 1035.38,788.944 1034.54,787.769 1033.75,786.585 1033,785.394 1032.3,784.196 1031.64,782.991 1031.03,781.782 1030.46,780.565 1029.94,779.345 1029.46,778.12 1029.03,776.892 "/>
     <path id="_460055296" class="fil1" d="M2176.22 1930.57l0 0zm-1135.88 -1135.88l0 0z"/>
     <polygon id="_460054792" class="fil1" points="729.466,520.087 1865.35,1655.97 1863.7,1656.23 1862.08,1656.6 1860.47,1657.07 1858.89,1657.63 1857.33,1658.28 1855.79,1659.01 1854.27,1659.81 1852.77,1660.67 1851.29,1661.58 1849.83,1662.54 1848.38,1663.53 1846.95,1664.56 1845.53,1665.61 1844.13,1666.67 1842.74,1667.74 1841.37,1668.81 705.491,532.927 706.863,531.86 708.25,530.791 709.651,529.728 711.067,528.68 712.498,527.652 713.945,526.655 715.41,525.696 716.892,524.783 718.393,523.923 719.912,523.126 721.451,522.398 723.011,521.749 724.592,521.184 726.194,520.714 727.818,520.346 "/>
     <polygon id="_460072960" class="fil1" points="795.226,585.077 1931.11,1720.96 1883.74,1705.3 747.855,569.417 "/>
     <polygon id="_460060240" class="fil1" points="705.491,532.927 1841.37,1668.81 1840.42,1669.55 1839.45,1670.3 1838.44,1671.07 1837.38,1671.87 1836.24,1672.72 1835.01,1673.62 1833.67,1674.58 1832.18,1675.63 696.303,539.743 697.785,538.699 699.133,537.733 700.364,536.834 701.5,535.989 702.56,535.187 703.567,534.419 704.536,533.669 "/>
     <polygon id="_460063816" class="fil1" points="691.7,543.02 1827.58,1678.9 1826.46,1679.71 1825.33,1680.52 1824.2,1681.33 1823.07,1682.14 1821.93,1682.96 1820.79,1683.77 1819.65,1684.58 1818.5,1685.38 1817.34,1686.19 1816.19,1686.99 1815.03,1687.78 1813.86,1688.57 1812.69,1689.36 1811.51,1690.14 1810.33,1690.92 1809.14,1691.69 1807.95,1692.45 1806.75,1693.2 1805.55,1693.94 1804.34,1694.68 1803.12,1695.4 1801.9,1696.11 1800.67,1696.82 1799.43,1697.51 1798.19,1698.19 1796.94,1698.85 1795.68,1699.5 1794.41,1700.14 1793.14,1700.77 1791.86,1701.37 1790.57,1701.97 1789.27,1702.54 653.392,566.658 654.689,566.083 655.978,565.491 657.259,564.883 658.532,564.259 659.797,563.621 661.055,562.969 662.306,562.304 663.55,561.625 664.786,560.934 666.016,560.232 667.239,559.518 668.456,558.794 669.667,558.059 670.871,557.317 672.069,556.564 673.262,555.804 674.449,555.036 675.631,554.261 676.808,553.48 677.978,552.693 679.145,551.901 680.306,551.104 681.464,550.303 682.616,549.5 683.764,548.693 684.909,547.884 686.05,547.074 687.186,546.263 688.32,545.451 689.45,544.64 690.577,543.83 "/>
     <polygon id="_460070248" class="fil1" points="696.303,539.743 1832.18,1675.63 1830.71,1676.68 1829.58,1677.48 1828.75,1678.07 1828.18,1678.48 1827.82,1678.74 1827.63,1678.87 1827.56,1678.92 691.681,543.035 691.745,542.99 691.935,542.856 692.295,542.6 692.868,542.193 693.699,541.601 694.829,540.795 "/>
     <polygon id="_460069288" class="fil1" points="653.392,566.658 1789.27,1702.54 1789.08,1702.64 653.196,566.756 "/>
     <polygon id="_460058104" class="fil1" points="545.627,464 1681.51,1599.88 1685.54,1606.43 549.659,470.543 "/>
     <polygon id="_460073392" class="fil1" points="630.58,574.94 1766.46,1710.82 1764.93,1711.26 1763.4,1711.67 1761.87,1712.07 1760.36,1712.45 1758.85,1712.81 1757.34,1713.15 1755.84,1713.47 1754.35,1713.76 1752.87,1714.04 1751.4,1714.29 1749.93,1714.52 1748.47,1714.73 1747.02,1714.92 1745.58,1715.08 1744.14,1715.22 1742.72,1715.34 606.84,579.455 608.263,579.341 609.697,579.201 611.138,579.038 612.589,578.852 614.049,578.643 615.515,578.411 616.991,578.157 618.473,577.881 619.963,577.584 621.46,577.267 622.965,576.928 624.475,576.569 625.993,576.191 627.515,575.793 629.045,575.376 "/>
     <polygon id="_460071424" class="fil1" points="606.84,579.455 1742.72,1715.34 1741.35,1715.34 605.469,579.455 "/>
     <polygon id="_460055416" class="fil1" points="505.29,493.761 1641.17,1629.64 1641.3,1629.83 1641.65,1630.4 1641.92,1630.82 506.04,494.943 505.772,494.516 505.415,493.952 "/>
     <polygon id="_460062016" class="fil1" points="580.335,575.374 1716.22,1711.26 1714.87,1710.75 1713.54,1710.21 1712.22,1709.64 1710.91,1709.04 1709.62,1708.42 1708.33,1707.76 1707.05,1707.08 1705.78,1706.37 1704.53,1705.63 1703.27,1704.86 1702.03,1704.07 1700.79,1703.25 1699.56,1702.4 1698.34,1701.52 1697.12,1700.61 1695.9,1699.68 560.019,563.801 561.234,564.732 562.454,565.636 563.68,566.514 564.911,567.363 566.149,568.185 567.393,568.98 568.645,569.747 569.904,570.486 571.172,571.196 572.45,571.878 573.736,572.533 575.033,573.159 576.342,573.756 577.66,574.324 578.991,574.864 "/>
     <polygon id="_460057312" class="fil1" points="560.019,563.801 1695.9,1699.68 1695.89,1699.7 560.005,563.82 "/>
     <polygon id="_460047040" class="fil1" points="560.005,563.82 1695.89,1699.7 1693.88,1698.18 1691.91,1696.6 1689.97,1694.97 1688.06,1693.3 1686.19,1691.57 1684.35,1689.8 548.467,553.921 550.309,555.691 552.183,557.415 554.087,559.091 556.026,560.718 557.998,562.295 "/>
     <polygon id="_460054360" class="fil1" points="605.469,579.455 1741.35,1715.34 1739.64,1715.35 1737.95,1715.32 1736.28,1715.26 1734.64,1715.16 1733.01,1715.03 1731.4,1714.86 1729.81,1714.66 1728.23,1714.42 1726.68,1714.14 1725.14,1713.84 1723.62,1713.49 1722.11,1713.11 1720.61,1712.7 1719.13,1712.25 1717.67,1711.77 1716.22,1711.26 580.335,575.374 581.788,575.889 583.254,576.37 584.734,576.818 586.226,577.23 587.735,577.609 589.258,577.953 590.797,578.262 592.353,578.536 593.926,578.776 595.517,578.979 597.126,579.148 598.754,579.282 600.402,579.38 602.07,579.441 603.759,579.466 "/>
     <polygon id="_460067392" class="fil1" points="549.674,470.534 1685.55,1606.42 1686.81,1608.47 1688.07,1610.52 1689.32,1612.56 1690.57,1614.59 1691.82,1616.6 1693.07,1618.6 1694.31,1620.59 1695.56,1622.55 1696.8,1624.5 1698.04,1626.42 1699.28,1628.32 1700.52,1630.2 1701.76,1632.05 1703,1633.87 1704.24,1635.65 1705.48,1637.41 1706.72,1639.13 1707.96,1640.81 1709.21,1642.46 1710.45,1644.07 1711.7,1645.63 1712.95,1647.15 1714.21,1648.63 1715.46,1650.06 1716.72,1651.44 1717.98,1652.77 582.102,516.885 580.839,515.555 579.58,514.176 578.325,512.746 577.073,511.271 575.822,509.75 574.574,508.185 573.328,506.578 572.083,504.931 570.84,503.247 569.599,501.526 568.358,499.771 567.117,497.983 565.877,496.164 564.638,494.315 563.398,492.44 562.158,490.539 560.917,488.615 559.675,486.669 558.432,484.704 557.188,482.719 555.941,480.718 554.692,478.704 553.443,476.676 552.188,474.637 550.933,472.589 "/>
     <polygon id="_460076248" class="fil1" points="653.196,566.756 1789.08,1702.64 1787.68,1703.23 1786.29,1703.81 1784.89,1704.39 1783.49,1704.95 1782.08,1705.5 1780.67,1706.04 1779.26,1706.57 1777.85,1707.09 1776.44,1707.6 1775.02,1708.1 1773.6,1708.59 1772.17,1709.06 1770.75,1709.52 1769.32,1709.97 1767.89,1710.4 1766.46,1710.82 630.58,574.94 632.012,574.519 633.441,574.085 634.868,573.637 636.293,573.176 637.717,572.704 639.136,572.219 640.555,571.721 641.971,571.212 643.384,570.691 644.794,570.16 646.202,569.618 647.607,569.065 649.009,568.503 650.408,567.93 651.804,567.348 "/>
     <polygon id="_460047904" class="fil1" points="848.62,613.007 1984.5,1748.89 1984.5,2000.73 848.62,864.844 "/>
     <polygon id="_460046752" class="fil1" points="1037.5,847.494 2173.38,1983.38 2171.25,1982.83 2169.13,1982.23 2167.03,1981.56 2164.95,1980.83 2162.89,1980.05 2160.86,1979.2 2158.87,1978.3 2156.9,1977.34 2154.97,1976.32 2153.08,1975.26 2151.24,1974.13 2149.44,1972.96 2147.69,1971.73 2145.99,1970.45 2144.34,1969.13 2142.76,1967.75 1006.87,831.871 1008.46,833.246 1010.11,834.572 1011.81,835.849 1013.56,837.076 1015.36,838.251 1017.2,839.373 1019.09,840.442 1021.02,841.457 1022.98,842.416 1024.98,843.318 1027.01,844.164 1029.07,844.951 1031.15,845.678 1033.25,846.346 1035.37,846.95 "/>
     <polygon id="_460057144" class="fil1" points="1006.19,831.186 2142.07,1967.07 2140.89,1965.9 2139.73,1964.73 1003.85,828.847 1005.01,830.022 "/>
     <polygon id="_460060936" class="fil1" points="1070.65,847.533 2206.53,1983.41 2204.53,1983.9 2202.5,1984.31 2200.46,1984.66 2198.4,1984.94 2196.33,1985.16 2194.25,1985.31 2192.16,1985.39 2190.06,1985.41 2187.96,1985.37 2185.86,1985.26 2183.76,1985.1 2181.66,1984.87 2179.58,1984.58 2177.5,1984.24 2175.43,1983.84 2173.38,1983.38 1037.5,847.494 1039.55,847.954 1041.62,848.357 1043.69,848.702 1045.78,848.988 1047.88,849.214 1049.98,849.381 1052.08,849.486 1054.18,849.529 1056.28,849.509 1058.37,849.423 1060.45,849.276 1062.52,849.061 1064.58,848.781 1066.62,848.433 1068.64,848.017 "/>
     <polygon id="_460052656" class="fil1" points="1097.12,836.319 2233,1972.2 2231.58,1973.14 2230.13,1974.05 2228.66,1974.93 2227.15,1975.79 2225.61,1976.62 2224.04,1977.41 2222.44,1978.18 2220.81,1978.91 2219.15,1979.6 2217.45,1980.26 2215.72,1980.89 2213.95,1981.48 2212.15,1982.02 2210.31,1982.53 2208.44,1982.99 2206.53,1983.41 1070.65,847.533 1072.56,847.111 1074.43,846.647 1076.27,846.14 1078.07,845.593 1079.83,845.007 1081.57,844.383 1083.26,843.722 1084.93,843.025 1086.56,842.294 1088.16,841.53 1089.73,840.734 1091.27,839.907 1092.78,839.051 1094.25,838.168 1095.7,837.256 "/>
     <polygon id="_460052008" class="fil1" points="1575.12,1001.43 2711,2137.31 2711,2160.27 1575.12,1024.39 "/>
     <polygon id="_460072528" class="fil1" points="1575.12,1024.39 2711,2160.27 2711,2298.18 1575.12,1162.3 "/>
     <polygon id="_460076776" class="fil1" points="1575.12,1162.3 2711,2298.18 2711,2320.21 1575.12,1184.33 "/>
     <polygon id="_460052560" class="fil1" points="1575.12,1184.33 2711,2320.21 2711,2321.14 1575.12,1185.26 "/>
     <polygon id="_460054192" class="fil1" points="1249.5,861.822 2385.38,1997.7 2385.38,2022.77 1249.5,886.888 "/>
     <polygon id="_460057960" class="fil1" points="1006.87,831.871 2142.76,1967.75 2142.07,1967.07 1006.19,831.186 "/>
     <polygon id="_460051984" class="fil1" points="879.54,852.969 2015.42,1988.85 2023.14,2013.65 887.262,877.764 "/>
     <polygon id="_460046896" class="fil1" points="887.262,877.764 2023.14,2013.65 2061.29,2137.26 925.406,1001.37 "/>
     <polygon id="_460075216" class="fil1" points="1550.17,1584 2686.05,2719.88 1633.71,2719.88 497.83,1584 "/>
     <polygon id="_460051192" class="fil1" points="497.83,1584 1633.71,2719.88 1608.76,2719.88 472.879,1584 "/>
     <polygon id="_460052920" class="fil1" points="1249.5,886.888 2385.38,2022.77 2385.38,2137.3 1249.5,1001.42 "/>
     <polygon id="_460056448" class="fil1" points="1575.12,1559.55 2711,2695.43 2711,2719.88 1575.12,1584 "/>
     <polygon id="_460051384" class="fil1" points="1575.12,1584 2711,2719.88 2686.05,2719.88 1550.17,1584 "/>
     <polygon id="_460052584" class="fil1" points="1575.12,1185.26 2711,2321.14 2711,2344.66 1575.12,1208.78 "/>
     <polygon id="_460051648" class="fil1" points="1575.12,1208.78 2711,2344.66 2711,2695.43 1575.12,1559.55 "/>
    </g>
    <path id="_461720912" class="fil1" d="M1040.34 794.684l0 0zm138.551 -20.7721l0 0zm12.6933 19.989c1.66772,2.96103 3.42638,6.08032 4.93701,8.6256l-43.0642 25.4469c-2.24173,-3.77835 -3.92717,-6.76772 -5.5252,-9.60355 -3.12638,-5.54882 -5.88898,-10.4492 -8.18623,-13.337l-0.292914 -0.392126c-1.00984,-1.32284 -1.18937,-1.3878 -1.55669,-1.52008l-0.0980316 0 -0.132284 -0.0484252 -0.390945 -0.0980316c-0.11811,-0.0437008 -0.967324,-0.00826772 -2.44961,0.127559 -1.18465,0.108662 -2.29252,0.344882 -3.01181,0.748819l-1.27205 0.68504c-3.0567,1.48819 -6.99686,5.99882 -11.2323,10.8484l-3.97677 4.57678 0.0129921 0.011811c-5.08229,5.77441 -10.9913,11.4614 -18.2256,16.3465 -7.49882,5.06339 -16.1906,9.0815 -26.4756,11.2134 -10.6122,2.76969 -22.2532,2.56536 -33.1453,-0.0389764 -11.4177,-2.72835 -22.324,-8.16142 -30.6272,-15.6225l-0.68504 -0.68504c-12.7677,-12.3709 -20.8772,-26.3835 -25.3181,-41.0398 -4.93937,-16.2992 -5.18859,-32.9292 -2.18977,-48.6674l49.1315 9.20079c-1.61102,8.45906 -1.58386,17.048 0.819686,24.9803 1.99252,6.57638 5.74252,13.0406 11.7154,19.0193 2.1874,1.96536 5.29489,3.45473 8.70237,4.26851 3.26221,0.779528 6.51378,0.885827 9.16772,0.138189l2.05512 -0.490158c3.31181,-0.641339 6.24095,-2.00906 8.85827,-3.77599 3.11811,-2.10591 5.99292,-4.92874 8.63268,-7.92993l0.196063 -0.196063 3.76772 -4.19528c7.76694,-8.89371 14.9929,-17.165 26.8028,-22.9417 6.88819,-3.60945 14.5665,-5.51103 21.7949,-6.17599 9.27639,-0.850394 18.5693,0.442914 24.7654,2.80984l-0.0271654 0.0696851c9.53741,3.43583 14.302,5.25709 23.8347,17.648 4.86851,6.11811 8.5382,12.6272 12.6886,19.9925zm-462.122 -273.825l0 0zm-33.1654 19.6606l0 0zm-146.967 -69.7619c-0.115748,-0.188977 -0.145276,-0.237402 0,0zm84.2942 50.7898l0 0zm138.098 -35.4626l0 0zm-48.0331 -14.9362c8.25946,-0.961418 17.4012,0.00590552 26.0681,2.76969 7.88268,2.51221 15.5339,6.59764 21.9673,12.1654 5.80867,4.77874 10.5284,10.1941 14.2866,15.8492 4.14922,6.24686 7.20709,12.8728 9.31064,19.2803 3.55866,10.8721 5.27244,21.7099 5.27244,32.3492 0,10.8189 -1.8378,21.6508 -5.37048,32.2973l-47.3717 -15.6602c1.72914,-5.21103 2.62914,-10.7858 2.62914,-16.637 0,-5.60197 -0.885827,-11.2606 -2.72717,-16.8851 -0.785434,-2.3941 -1.91693,-4.85197 -3.43819,-7.14331 -1.23662,-1.86142 -2.67284,-3.54803 -4.30276,-4.88859l-0.881103 -0.783071c-1.1185,-1.00984 -2.68937,-1.81654 -4.44685,-2.37638 -1.80827,-0.576378 -3.63544,-0.794883 -5.22166,-0.616536 -8.85001,1.07362 -16.6878,7.1693 -23.9752,12.8398 -2.54292,1.97717 -5.03622,3.91654 -9.1878,6.81615 -4.42796,3.16063 -4.72441,3.36614 -4.60276,3.27756 -11.9705,8.61969 -24.4288,17.5902 -38.3079,23.6374l-0.196063 0.0980316c-7.41851,3.17835 -14.9776,5.97638 -22.6158,8.18386 -8.20158,2.37166 -16.1717,3.96733 -23.7402,4.51536l-1.37126 0c-9.17953,0.154725 -17.4177,-1.24488 -25.1339,-4.08071 -7.20001,-2.64449 -13.8437,-6.53504 -20.3162,-11.5736l-0.0141732 0.0188977c-21.6024,-15.9862 -36.9626,-41.0611 -53.0044,-67.252 -4.86969,-7.94764 2.87717,4.58977 -3.85158,-6.33662l42.4784 -26.2311 4.03229 6.54331 0.0141732 -0.00944883c13.448,21.9532 26.3232,42.9733 40.0855,53.1567l0.587008 0.488977c2.39055,1.88977 4.7563,3.31299 7.21418,4.21536 1.8248,0.670867 3.77008,1.05591 5.90906,1.13268 4.16929,-0.316536 8.60906,-1.21536 13.213,-2.54528 5.22756,-1.51181 10.9441,-3.65906 16.9441,-6.21733 9.12284,-4.01575 19.2248,-11.2925 28.9335,-18.2835 3.74055,-2.69173 1.20709,-0.908268 4.77284,-3.45355l0.292914 -0.196063c1.22008,-0.84567 4.14449,-3.12166 7.1315,-5.44607 12.5469,-9.75946 26.0339,-20.2524 48.8363,-23.0197l0.0980316 0zm598.534 531.065l227.945 0 24.9508 0 0 22.9547 0 137.916 0 22.024 0 0.930709 0 23.5217 0 350.771 0 24.4512 -24.9508 0 -1052.34 0 -24.9508 0 0 -24.4512 0 -350.771 0 -23.5217 0 -0.930709 0 -22.024 0 -137.916 0 -15.2469 15.4004 -5.91378 159.873 -61.3961 0 -328.823 200.467 0 0 251.837 5.11418 -1.96417 25.8059 -9.91064 7.72205 24.7949 38.1437 123.61 123.628 0.0177165 0 -139.57 200.466 0 0 25.0666 0 114.533 72.7241 0.0106299z"/>
   </g>
  </g>
  <path class="fil2" d="M1024 0c565.539,0 1024,458.461 1024,1024 0,565.539 -458.461,1024 -1024,1024 -565.539,0 -1024,-458.461 -1024,-1024 0,-565.539 458.461,-1024 1024,-1024z"/>
  <path class="fil3" d="M1027.81 750.68c-1.61102,8.45906 -1.58386,17.048 0.819686,24.9803 1.99252,6.57638 5.74252,13.0406 11.7106,19.024l0.00472441 -0.00472441c2.1874,1.96536 5.29489,3.45473 8.70237,4.26851 3.26221,0.779528 6.51378,0.885827 9.16772,0.138189l2.05512 -0.490158c3.31181,-0.641339 6.24095,-2.00906 8.85827,-3.77599 3.11811,-2.10591 5.99292,-4.92874 8.63268,-7.92993l0.196063 -0.196063c3.28347,-3.64134 3.53386,-3.92835 3.76772,-4.19528 7.76694,-8.89371 14.9929,-17.165 26.8028,-22.9417 6.88819,-3.60945 14.5665,-5.51103 21.7949,-6.17599 9.27639,-0.850394 18.5693,0.442914 24.7654,2.80984l-0.0271654 0.0696851c9.53741,3.43583 14.302,5.25709 23.8299,17.6516l0.00472441 -0.00354331c4.86851,6.11811 8.5382,12.6272 12.6886,19.9925 1.66772,2.96103 3.42638,6.08032 4.93701,8.6256l-43.0642 25.4469c-2.24173,-3.77835 -3.92717,-6.76772 -5.5252,-9.60355 -3.12638,-5.54882 -5.88898,-10.4492 -8.18623,-13.337l-0.292914 -0.392126c-1.00984,-1.32284 -1.18937,-1.3878 -1.55669,-1.52008l-0.0980316 0 -0.132284 -0.0484252 -0.390945 -0.0980316c-0.11811,-0.0437008 -0.967324,-0.00826772 -2.44961,0.127559 -1.18465,0.108662 -2.29252,0.344882 -3.01181,0.748819l-1.27205 0.68504c-3.0567,1.48819 -6.99686,5.99882 -11.2323,10.8484 -2.12599,2.43425 -3.34016,3.8563 -3.97677,4.57678l0.0129921 0.011811c-5.08229,5.77441 -10.9913,11.4614 -18.2256,16.3465 -7.49882,5.06339 -16.1906,9.0815 -26.4756,11.2134 -10.6122,2.76969 -22.2532,2.56536 -33.1453,-0.0389764 -11.4177,-2.72835 -22.324,-8.16142 -30.6272,-15.6225l-0.68504 -0.68504c-12.7677,-12.3709 -20.8772,-26.3835 -25.3181,-41.0398 -4.93937,-16.2992 -5.18859,-32.9292 -2.18977,-48.6674l49.1315 9.20079z"/>
  <path class="fil3" d="M747.855 569.417c1.72914,-5.21103 2.62914,-10.7858 2.62914,-16.637 0,-5.60197 -0.885827,-11.2606 -2.72717,-16.8851 -0.785434,-2.3941 -1.91693,-4.85197 -3.43819,-7.14331 -1.23662,-1.86142 -2.67284,-3.54803 -4.30276,-4.88859l-0.881103 -0.783071c-1.1185,-1.00984 -2.68937,-1.81654 -4.44685,-2.37638 -1.80827,-0.576378 -3.63544,-0.794883 -5.22284,-0.627166l0.0011811 0.0106299c-8.85001,1.07362 -16.6878,7.1693 -23.9752,12.8398 -2.54292,1.97717 -5.03622,3.91654 -9.19135,6.81024l0.00354331 0.00590552c-4.42796,3.16063 -4.72441,3.36614 -4.60276,3.27756 -11.9705,8.61969 -24.4288,17.5902 -38.3079,23.6374l-0.196063 0.0980316c-7.41851,3.17835 -14.9776,5.97638 -22.6158,8.18386 -8.20158,2.37166 -16.1717,3.96733 -23.7402,4.51536l-1.37126 0c-9.17953,0.154725 -17.4177,-1.24488 -25.1339,-4.08071 -7.20001,-2.64449 -13.8437,-6.53504 -20.3162,-11.5736l-0.0141732 0.0188977c-21.6024,-15.9862 -36.9626,-41.0611 -53.0044,-67.252 -4.86969,-7.94764 2.87717,4.58977 -3.85158,-6.33662l42.4784 -26.2311 4.03229 6.54331 0.0129921 -0.00944883c-0.422835,-0.694489 -0.72756,-1.19055 0.0011811,0 13.448,21.9532 26.3232,42.9733 40.0855,53.1567l0.587008 0.488977c2.39055,1.88977 4.7563,3.31299 7.21418,4.21536 1.8248,0.670867 3.77008,1.05591 5.90906,1.13268 4.16929,-0.316536 8.60906,-1.21536 13.213,-2.54528 5.22756,-1.51181 10.9441,-3.65906 16.9394,-6.22796l0.00472441 0.0106299c9.12284,-4.01575 19.2248,-11.2925 28.9335,-18.2835 3.74055,-2.69173 1.20709,-0.908268 4.77284,-3.45355l0.292914 -0.196063c1.22008,-0.84567 4.14449,-3.12166 7.1315,-5.44607 12.5469,-9.75946 26.0339,-20.2524 48.8363,-23.0197l0.0980316 0c8.25946,-0.961418 17.4012,0.00590552 26.0681,2.76969 7.88268,2.51221 15.5339,6.59764 21.965,12.1665l0.00236221 -0.0011811c5.80867,4.77874 10.5284,10.1941 14.2866,15.8492 4.14922,6.24686 7.20709,12.8728 9.31064,19.2803 3.55866,10.8721 5.27244,21.7099 5.27244,32.3492 0,10.8189 -1.8378,21.6508 -5.37048,32.2973l-47.3717 -15.6602zm-198.195 -98.8737c1.4315,2.31732 0.604725,0.960237 0.0129921,-0.00944883l-0.0129921 0.00944883z"/>
  <polygon class="fil4" points="1322.23,1001.43 1550.17,1001.43 1575.12,1001.43 1575.12,1024.39 1575.12,1162.3 1575.12,1185.26 1550.17,1185.26 497.83,1185.26 472.879,1185.26 472.879,1162.3 472.879,1024.39 472.879,1009.14 488.28,1003.23 853.735,862.88 879.54,852.969 887.262,877.764 925.406,1001.37 "/>
  <path class="fil5" d="M648.153 941.976l0 -328.969 200.467 0 0 251.984c-10.5614,4.05473 -23.061,8.85591 -200.467,76.9855z"/>
  <path class="fil5" d="M1049.03 1003.32l0 -141.494 200.466 0 0 25.0666 0 116.444c-83.4284,-0.00708662 -117.05,-0.0106299 -200.466,-0.0165354z"/>
  <polygon class="fil6" points="497.83,1184.33 1550.17,1184.33 1575.12,1184.33 1575.12,1208.78 1575.12,1559.55 1575.12,1584 1550.17,1584 497.83,1584 472.879,1584 472.879,1559.55 472.879,1208.78 472.879,1184.33 "/>
  <polygon class="fil7" points="623.108,1283.93 748.387,1283.93 773.455,1283.93 773.455,1309 773.455,1459.34 773.455,1484.4 748.387,1484.4 623.108,1484.4 598.04,1484.4 598.04,1459.34 598.04,1309 598.04,1283.93 "/>
  <polygon class="fil7" points="1299.61,1283.93 1424.89,1283.93 1449.96,1283.93 1449.96,1309 1449.96,1459.34 1449.96,1484.4 1424.89,1484.4 1299.61,1484.4 1274.54,1484.4 1274.54,1459.34 1274.54,1309 1274.54,1283.93 "/>
 </g>
</svg>
