<?xml version="1.0" encoding="UTF-8"?>
<!DOCTYPE svg PUBLIC "-//W3C//DTD SVG 1.1//EN" "http://www.w3.org/Graphics/SVG/1.1/DTD/svg11.dtd">
<!-- Creator: CorelDRAW -->
<svg xmlns="http://www.w3.org/2000/svg" xml:space="preserve" width="2048px" height="2048px" style="shape-rendering:geometricPrecision; text-rendering:geometricPrecision; image-rendering:optimizeQuality; fill-rule:evenodd; clip-rule:evenodd"
viewBox="0 0 2048 2048"
 xmlns:xlink="http://www.w3.org/1999/xlink">
 <defs>
  <style type="text/css">
   <![CDATA[
    .fil2 {fill:none}
    .fil1 {fill:#00ACC1}
    .fil0 {fill:#4DD0E1}
    .fil5 {fill:#EF5350}
    .fil6 {fill:#F57C00}
    .fil3 {fill:#FFAB40}
    .fil4 {fill:#FFB74D}
    .fil7 {fill:#212121;fill-rule:nonzero}
   ]]>
  </style>
   <clipPath id="id0">
    <path d="M1024 0c565.539,0 1024,458.461 1024,1024 0,565.539 -458.461,1024 -1024,1024 -565.539,0 -1024,-458.461 -1024,-1024 0,-565.539 458.461,-1024 1024,-1024z"/>
   </clipPath>
 </defs>
 <g id="Layer_x0020_1">
  <metadata id="CorelCorpID_0Corel-Layer"/>
  <path class="fil0" d="M1024 0c565.539,0 1024,458.461 1024,1024 0,565.539 -458.461,1024 -1024,1024 -565.539,0 -1024,-458.461 -1024,-1024 0,-565.539 458.461,-1024 1024,-1024z"/>
  <g style="clip-path:url(#id0)">
   <g id="_461745224">
    <g>
     <polygon id="_4613444721" class="fil1" points="1312.32,915.96 2448.2,2051.84 2448.2,2053.99 2448.2,2056.14 2448.2,2058.28 2448.2,2060.43 2448.2,2062.57 2448.2,2064.72 2448.2,2066.87 2448.2,2069.01 2448.2,2071.16 2448.2,2073.31 2448.2,2075.45 2448.2,2077.6 2448.2,2079.75 2448.2,2081.89 2448.2,2084.04 2448.2,2086.19 2448.2,2088.33 2448.2,2090.48 2448.2,2092.63 2448.2,2094.77 2448.2,2096.92 2448.2,2099.06 2448.2,2101.21 2448.2,2103.36 2448.2,2105.5 2448.2,2107.65 2448.2,2109.8 2448.2,2111.94 2448.2,2114.09 2448.2,2116.24 2448.2,2118.38 2448.2,2120.53 1312.32,984.647 1312.32,982.501 1312.32,980.354 1312.32,978.207 1312.32,976.061 1312.31,973.915 1312.31,971.768 1312.31,969.622 1312.31,967.476 1312.31,965.33 1312.31,963.183 1312.31,961.037 1312.31,958.891 1312.31,956.743 1312.31,954.597 1312.31,952.451 1312.31,950.304 1312.31,948.158 1312.31,946.012 1312.31,943.865 1312.31,941.718 1312.31,939.571 1312.31,937.425 1312.31,935.279 1312.31,933.132 1312.31,930.986 1312.31,928.84 1312.32,926.692 1312.32,924.546 1312.32,922.399 1312.32,920.253 1312.32,918.106 "/>
     <polygon id="_461332160" class="fil1" points="1312.32,984.647 2448.2,2120.53 2448.2,2142.9 1312.32,1007.02 "/>
     <polygon id="_461349104" class="fil1" points="660.194,561.678 1796.08,1697.56 1797.53,1699.07 1798.95,1700.62 1800.33,1702.2 1801.69,1703.83 665.808,567.949 664.453,566.321 663.067,564.733 661.646,563.185 "/>
     <polygon id="_461350376" class="fil1" points="665.808,567.949 1801.69,1703.83 1802.92,1705.38 1804.11,1706.96 1805.28,1708.57 1806.41,1710.22 1807.52,1711.89 1808.59,1713.6 1809.62,1715.34 1810.63,1717.1 1811.6,1718.9 1812.53,1720.72 1813.43,1722.57 1814.3,1724.45 1815.12,1726.35 1815.92,1728.28 1816.67,1730.23 1817.38,1732.21 1818.06,1734.21 1818.7,1736.23 1819.29,1738.27 1819.85,1740.33 1820.36,1742.41 1820.84,1744.52 1821.27,1746.64 1821.66,1748.78 1822,1750.93 1822.3,1753.1 1822.56,1755.29 1822.77,1757.49 1822.93,1759.71 1823.05,1761.94 1823.12,1764.18 1823.15,1766.44 687.265,630.553 687.241,628.299 687.169,626.056 687.051,623.826 686.886,621.61 686.676,619.407 686.419,617.22 686.119,615.049 685.775,612.893 685.386,610.754 684.955,608.634 684.482,606.532 683.967,604.45 683.411,602.386 682.815,600.345 682.178,598.324 681.501,596.326 680.787,594.35 680.034,592.398 679.243,590.47 678.415,588.567 677.552,586.691 676.652,584.84 675.716,583.016 674.747,581.221 673.743,579.454 672.704,577.717 671.634,576.009 670.531,574.333 669.396,572.687 668.23,571.075 667.034,569.495 "/>
     <polygon id="_461350448" class="fil1" points="1513.34,1279.16 2649.22,2415.05 2649.22,2580.33 1513.34,1444.44 "/>
     <polygon id="_461345576" class="fil1" points="687.265,630.553 1823.15,1766.44 1823.15,2266.51 687.265,1130.63 "/>
     <polygon id="_461335424" class="fil1" points="1545.61,1510.96 2681.49,2646.85 2681.4,2648.24 1545.52,1512.36 "/>
     <polygon id="_461356352" class="fil1" points="1545.52,1512.36 2681.4,2648.24 2681.15,2650.87 2680.74,2653.42 2680.17,2655.9 2679.47,2658.31 2678.62,2660.65 2677.63,2662.91 2676.52,2665.09 2675.28,2667.19 2673.92,2669.22 2672.44,2671.17 2670.86,2673.03 2669.17,2674.81 2667.39,2676.5 2665.51,2678.12 2663.55,2679.64 2661.51,2681.07 1525.62,1545.19 1527.67,1543.76 1529.63,1542.23 1531.51,1540.62 1533.29,1538.93 1534.98,1537.15 1536.56,1535.28 1538.04,1533.34 1539.4,1531.31 1540.64,1529.21 1541.75,1527.02 1542.74,1524.77 1543.59,1522.43 1544.29,1520.02 1544.86,1517.54 1545.27,1514.98 "/>
     <polygon id="_461328968" class="fil1" points="1525.62,1545.19 2661.51,2681.07 2659.56,2682.31 2657.54,2683.47 2655.47,2684.55 2653.33,2685.55 2651.15,2686.47 2648.92,2687.3 2646.65,2688.04 2644.35,2688.7 2642.03,2689.27 2639.68,2689.75 2637.32,2690.13 2634.95,2690.43 2632.58,2690.62 2630.21,2690.72 2627.85,2690.72 2625.5,2690.62 1489.62,1554.74 1491.97,1554.84 1494.33,1554.84 1496.7,1554.74 1499.07,1554.54 1501.44,1554.25 1503.8,1553.87 1506.15,1553.39 1508.47,1552.82 1510.77,1552.16 1513.04,1551.41 1515.27,1550.58 1517.45,1549.67 1519.58,1548.67 1521.66,1547.59 1523.68,1546.43 "/>
     <polygon id="_461350112" class="fil1" points="1489.62,1554.74 2625.5,2690.62 2251.07,2690.58 1115.19,1554.7 "/>
     <polygon id="_461332424" class="fil1" points="1115.19,1554.7 2251.07,2690.58 2250.99,2690.58 1115.11,1554.7 "/>
     <polygon id="_461358248" class="fil1" points="1115.11,1554.7 2250.99,2690.58 1907.01,2690.55 771.125,1554.67 "/>
     <polygon id="_461352704" class="fil1" points="771.125,1554.67 1907.01,2690.55 1907.01,2690.64 771.125,1554.75 "/>
     <polygon id="_461339312" class="fil1" points="771.125,1554.75 1907.01,2690.64 1854.94,2690.64 719.056,1554.75 "/>
     <polygon id="_461351720" class="fil1" points="719.056,1554.75 1854.94,2690.64 1702.21,2690.64 566.328,1554.75 "/>
     <polygon id="_461339480" class="fil1" points="566.328,1554.75 1702.21,2690.64 1699.77,2690.46 563.886,1554.58 "/>
     <polygon id="_461344568" class="fil1" points="563.886,1554.58 1699.77,2690.46 1697.98,2690.26 1696.18,2690.05 1694.36,2689.83 1692.53,2689.61 1690.68,2689.38 1688.81,2689.13 1686.93,2688.88 1685.04,2688.61 1683.14,2688.33 1681.22,2688.04 1679.3,2687.72 1677.37,2687.39 1675.44,2687.04 1673.5,2686.67 1671.56,2686.28 1669.61,2685.86 1667.66,2685.42 1665.71,2684.95 1663.76,2684.46 1661.82,2683.94 1659.87,2683.39 1657.93,2682.81 1656,2682.2 1654.07,2681.56 1652.15,2680.88 1650.24,2680.17 1648.34,2679.42 1646.45,2678.63 1644.57,2677.8 1642.71,2676.94 1640.86,2676.03 1639.03,2675.07 503.144,1539.19 504.977,1540.14 506.827,1541.05 508.692,1541.92 510.569,1542.75 512.459,1543.54 514.36,1544.29 516.271,1545 518.191,1545.68 520.119,1546.32 522.052,1546.93 523.992,1547.51 525.936,1548.06 527.882,1548.58 529.83,1549.07 531.78,1549.54 533.728,1549.98 535.675,1550.39 537.619,1550.79 539.559,1551.16 541.493,1551.51 543.422,1551.84 545.344,1552.15 547.256,1552.45 549.159,1552.73 551.05,1553 552.93,1553.25 554.796,1553.5 556.647,1553.73 558.484,1553.95 560.302,1554.17 562.104,1554.38 "/>
     <polygon id="_461354336" class="fil1" points="503.144,1539.19 1639.03,2675.07 1636.92,2673.92 1634.86,2672.71 1632.83,2671.46 1630.85,2670.15 1628.91,2668.79 1627.02,2667.38 1625.17,2665.91 489.287,1530.03 491.135,1531.5 493.03,1532.91 494.97,1534.27 496.953,1535.58 498.978,1536.83 501.043,1538.04 "/>
     <polygon id="_461338688" class="fil1" points="1537.32,1454.1 2673.2,2589.98 2674.29,2591.16 2675.28,2592.41 2676.19,2593.73 2677.01,2595.11 2677.76,2596.56 2678.43,2598.08 2679.02,2599.68 2679.55,2601.35 2680.01,2603.09 2680.42,2604.9 2680.76,2606.79 2681.05,2608.75 2681.29,2610.79 2681.48,2612.91 2681.63,2615.1 2681.74,2617.38 2681.82,2619.73 2681.86,2622.17 2681.87,2624.68 1545.99,1488.8 1545.98,1486.28 1545.94,1483.85 1545.86,1481.49 1545.75,1479.22 1545.6,1477.03 1545.41,1474.91 1545.17,1472.87 1544.88,1470.9 1544.54,1469.02 1544.13,1467.2 1543.67,1465.46 1543.14,1463.8 1542.55,1462.2 1541.88,1460.68 1541.13,1459.23 1540.31,1457.84 1539.4,1456.53 1538.4,1455.28 "/>
     <polygon id="_461327720" class="fil1" points="1546.08,1488.8 2681.96,2624.68 2681.95,2625.11 2681.94,2625.83 2681.91,2626.81 2681.87,2628.02 2681.83,2629.41 2681.78,2630.95 2681.73,2632.6 2681.67,2634.33 1545.79,1498.45 1545.84,1496.72 1545.9,1495.06 1545.95,1493.52 1545.99,1492.13 1546.03,1490.93 1546.05,1489.95 1546.07,1489.22 "/>
     <polygon id="_461340536" class="fil1" points="1545.79,1498.45 2681.67,2634.33 2681.64,2635.35 2681.61,2636.45 2681.58,2637.66 2681.55,2639.02 2681.52,2640.57 2681.5,2642.37 2681.49,2644.44 2681.49,2646.85 1545.61,1510.96 1545.61,1508.56 1545.62,1506.49 1545.64,1504.69 1545.67,1503.13 1545.69,1501.77 1545.73,1500.57 1545.76,1499.47 "/>
     <polygon id="_461350856" class="fil1" points="1087.71,603.428 2223.59,1739.31 2165.23,1739.31 1029.35,603.428 "/>
     <polygon id="_461331152" class="fil1" points="1143.05,493.147 2278.93,1629.03 2278.93,1683.97 1143.05,548.092 "/>
     <polygon id="_461358152" class="fil1" points="1201.41,548.092 2337.29,1683.97 2337.29,1739.31 1201.41,603.428 "/>
     <polygon id="_461333072" class="fil1" points="1201.41,603.428 2337.29,1739.31 2278.93,1739.31 1143.05,603.428 "/>
     <polygon id="_461358056" class="fil1" points="1143.05,603.428 2278.93,1739.31 2278.93,1817.86 1143.05,681.975 "/>
     <polygon id="_461342144" class="fil1" points="1143.05,681.975 2278.93,1817.86 2443.23,2037.71 1307.35,901.831 "/>
     <polygon id="_461342792" class="fil1" points="1307.35,901.831 2443.23,2037.71 2448.2,2051.84 1312.32,915.96 "/>
     <polygon id="_461358896" class="fil1" points="1575.87,1182.87 2711.75,2318.75 2713.69,2320.88 2715.36,2323.02 2716.76,2325.16 2717.89,2327.34 2718.77,2329.57 2719.39,2331.86 2719.76,2334.23 2719.88,2336.7 2719.76,2339.28 2719.39,2341.99 2718.79,2344.84 2717.95,2347.86 2716.88,2351.05 2715.58,2354.44 2714.05,2358.03 2712.31,2361.85 2710.35,2365.92 2708.18,2370.24 2705.79,2374.83 2703.2,2379.72 2700.41,2384.91 1564.53,1249.03 1567.32,1243.84 1569.91,1238.95 1572.3,1234.36 1574.47,1230.04 1576.43,1225.97 1578.17,1222.15 1579.7,1218.56 1581,1215.17 1582.07,1211.98 1582.91,1208.96 1583.51,1206.11 1583.88,1203.4 1584,1200.82 1583.88,1198.35 1583.51,1195.98 1582.89,1193.69 1582.01,1191.46 1580.87,1189.28 1579.48,1187.13 1577.81,1185 "/>
     <polygon id="_461354864" class="fil1" points="1564.53,1249.03 2700.41,2384.91 2698.65,2388.12 2696.92,2391.14 2695.23,2393.98 2693.56,2396.65 2691.93,2399.14 2690.32,2401.47 2688.73,2403.64 2687.17,2405.65 2685.62,2407.5 2684.09,2409.2 2682.57,2410.74 2681.06,2412.14 2679.56,2413.41 2678.06,2414.53 2676.57,2415.51 2675.08,2416.37 2673.59,2417.09 2672.09,2417.69 2670.58,2418.18 2669.07,2418.54 2667.54,2418.79 2666,2418.93 2664.44,2418.96 2662.86,2418.89 2661.26,2418.72 2659.64,2418.46 2657.98,2418.1 2656.3,2417.65 2654.59,2417.12 2652.84,2416.5 2651.05,2415.81 2649.22,2415.05 1513.34,1279.16 1515.17,1279.93 1516.96,1280.62 1518.71,1281.24 1520.42,1281.77 1522.1,1282.22 1523.76,1282.57 1525.38,1282.84 1526.98,1283.01 1528.56,1283.08 1530.12,1283.05 1531.66,1282.91 1533.19,1282.66 1534.7,1282.29 1536.21,1281.81 1537.71,1281.21 1539.2,1280.48 1540.69,1279.63 1542.18,1278.64 1543.68,1277.52 1545.18,1276.26 1546.69,1274.86 1548.2,1273.31 1549.74,1271.62 1551.28,1269.77 1552.85,1267.76 1554.44,1265.59 1556.05,1263.26 1557.68,1260.76 1559.34,1258.1 1561.04,1255.25 1562.77,1252.23 "/>
    </g>
    <path id="_461725040" class="fil1" d="M1312.32 1007.02l193.579 128.606c11.3658,7.56379 21.4512,13.8579 29.8547,19.1008 56.4662,35.237 59.6445,37.2213 28.7788,94.3028 -19.0075,35.1331 -31.4776,38.6977 -51.1878,30.1323l0 165.28c28.3748,3.86811 32.6492,17.0788 32.6492,44.3552l0.0874016 0c0,0.712205 -0.138189,4.96418 -0.28937,9.64725 -0.0850394,2.6811 -0.18189,5.64567 -0.18189,12.5173l-0.0874016 1.39488c-0.921261,14.1886 -8.77796,25.4126 -19.8957,32.8347 -10.1929,6.80315 -23.5406,10.3512 -36.0036,9.54686l-374.43 -0.0377953 -0.0779528 0 -343.988 -0.034252 0 0.0874016 -52.0689 0 -152.727 0 -2.44252 -0.174803c-18.9024,-2.14725 -41.2713,-4.99725 -60.7418,-15.3886 -22.6122,-12.0697 -39.1441,-32.2701 -39.1441,-67.8355l0 -318.404 0 -22.3264 22.3276 0 44.6516 0 0 -500.072c0,-24.1146 8.21812,-46.2969 21.4559,-62.6056 14.2654,-17.5748 34.3099,-28.4858 56.6882,-28.4858 22.376,0 42.4193,10.9122 56.6847,28.487 13.2402,16.3099 21.4571,38.4933 21.4571,62.6044l0 500.072 37.8922 0 185.371 -123.58 0 -93.241 5.05867 -14.041 171.118 -217.441 1.00748 -78.8942 -58.3619 0 0 -55.3359 58.3619 0 0 -54.9449 55.3371 0 0 54.9449 58.3619 0 0 55.3359 -58.3619 0 0 78.5469 164.296 219.856 4.97126 14.1284c-0.00472441,22.8969 -0.00236221,45.7926 -0.0011811,68.6871l0.0011811 22.3748z"/>
   </g>
  </g>
  <path class="fil2" d="M1024 0c565.539,0 1024,458.461 1024,1024 0,565.539 -458.461,1024 -1024,1024 -565.539,0 -1024,-458.461 -1024,-1024 0,-565.539 458.461,-1024 1024,-1024z"/>
  <path class="fil3" d="M1115.11 1554.7l-343.988 -0.034252 0 0.0874016 -52.0689 0 -152.727 0 -2.44252 -0.174803c-18.9024,-2.14725 -41.2713,-4.99725 -60.7418,-15.3886 -22.6122,-12.0697 -39.1441,-32.2701 -39.1441,-67.8355l0 -318.404 0 -22.3264 22.3276 0 44.6516 0 0 -500.072c0,-24.1146 8.21812,-46.2969 21.4559,-62.6056 14.2654,-17.5748 34.3099,-28.4858 56.6882,-28.4858 22.376,0 42.4193,10.9122 56.6847,28.487 13.2402,16.3099 21.4571,38.4933 21.4571,62.6044l0 500.072 37.8922 0 185.371 -123.58 0 -93.241 5.05867 -14.041 171.118 -217.441 28.4079 -0.174803 0 872.554z"/>
  <path class="fil4" d="M1143.05 681.975l164.296 219.856 4.97126 14.1284c-0.00472441,22.8969 -0.00236221,45.7926 -0.0011811,68.6871l0.0011811 22.3748 193.579 128.606c11.3658,7.56379 21.4512,13.8579 29.8547,19.1008 56.4662,35.237 59.6445,37.2213 28.7788,94.3028 -19.0075,35.1331 -31.4776,38.6977 -51.1878,30.1323l0 165.28c28.3748,3.86811 32.6492,17.0788 32.6492,44.3552l0.0874016 0c0,0.712205 -0.138189,4.96418 -0.28937,9.64725 -0.0850394,2.6811 -0.18189,5.64567 -0.18189,12.5173l-0.0874016 1.39488c-0.921261,14.1886 -8.77796,25.4126 -19.8957,32.8347 -10.1929,6.80315 -23.5406,10.3512 -36.0036,9.54686l-374.43 -0.0377953 -0.0779528 0 0 -872.554 0.809056 -0.00472441 27.1276 -0.167717z"/>
  <polygon class="fil5" points="1143.05,681.975 1086.7,682.322 1087.71,603.428 1029.35,603.428 1029.35,548.092 1087.71,548.092 1087.71,493.147 1143.05,493.147 1143.05,548.092 1201.41,548.092 1201.41,603.428 1143.05,603.428 "/>
  <path class="fil6" d="M1047.03 1175.3l106.54 0c13.0288,0 24.861,5.42599 33.4252,14.1662 8.48741,8.65985 13.7551,20.5347 13.7551,33.5244l0 197.881 0 22.3075 -22.3075 0.0011811 -156.286 0 -22.3075 -0.0011811 0 -22.3075 0 -197.881c0,-12.9898 5.26772,-24.8646 13.7551,-33.5244 8.56536,-8.74135 20.3977,-14.1662 33.4252,-14.1662z"/>
  <path class="fil6" d="M1112.01 848c20.55,0 39.1902,8.34568 52.7126,21.8421 13.565,13.539 21.9579,32.1839 21.9579,52.7268 0,20.5394 -8.39292,39.1855 -21.9603,52.7256 -13.5213,13.4965 -32.1614,21.8433 -52.7103,21.8433 -20.5477,0 -39.1831,-8.34804 -52.6973,-21.8421 -13.565,-13.5437 -21.9555,-32.191 -21.9555,-52.7268 0,-20.5394 8.38938,-39.1855 21.9532,-52.728 13.5165,-13.4953 32.152,-21.841 52.6996,-21.841z"/>
  <path class="fil7" d="M1520.8 1528.21c0.0307087,0.133465 0.0496063,0.393307 0.0625985,0.664961l0.0106299 -0.5563 -0.0732284 -0.108662z"/>
 </g>
</svg>
