<?xml version="1.0" encoding="UTF-8"?>
<!DOCTYPE svg PUBLIC "-//W3C//DTD SVG 1.1//EN" "http://www.w3.org/Graphics/SVG/1.1/DTD/svg11.dtd">
<!-- Creator: CorelDRAW -->
<svg xmlns="http://www.w3.org/2000/svg" xml:space="preserve" width="2048px" height="2048px" style="shape-rendering:geometricPrecision; text-rendering:geometricPrecision; image-rendering:optimizeQuality; fill-rule:evenodd; clip-rule:evenodd"
viewBox="0 0 2048 2048"
 xmlns:xlink="http://www.w3.org/1999/xlink">
 <defs>
  <style type="text/css">
   <![CDATA[
    .fil2 {fill:none}
    .fil1 {fill:#00897B}
    .fil0 {fill:#4DB6AC}
    .fil6 {fill:#E64A19}
    .fil5 {fill:#FF9371}
    .fil4 {fill:#FFAB91}
    .fil3 {fill:#D84315;fill-rule:nonzero}
   ]]>
  </style>
   <clipPath id="id0">
    <path d="M1024 0c565.539,0 1024,458.461 1024,1024 0,565.539 -458.461,1024 -1024,1024 -565.539,0 -1024,-458.461 -1024,-1024 0,-565.539 458.461,-1024 1024,-1024z"/>
   </clipPath>
 </defs>
 <g id="Layer_x0020_1">
  <metadata id="CorelCorpID_0Corel-Layer"/>
  <path class="fil0" d="M1024 0c565.539,0 1024,458.461 1024,1024 0,565.539 -458.461,1024 -1024,1024 -565.539,0 -1024,-458.461 -1024,-1024 0,-565.539 458.461,-1024 1024,-1024z"/>
  <g style="clip-path:url(#id0)">
   <g id="_461726072">
    <g>
     <path id="_4613348001" class="fil1" d="M2159.87 1737.21l0 0zm-1135.88 -1135.88l0 0z"/>
     <polygon id="_461343320" class="fil1" points="1584,1148.1 2719.88,2283.98 2667.76,2283.75 1531.88,1147.87 "/>
     <polygon id="_461340248" class="fil1" points="1531.88,1147.87 2667.76,2283.75 2562.03,2283.28 1426.15,1147.4 "/>
     <polygon id="_461340416" class="fil1" points="854.67,693.72 1990.55,1829.6 1990.55,1850.77 854.67,714.885 "/>
     <polygon id="_461333576" class="fil1" points="1426.15,1425.5 2562.03,2561.39 2562.03,2582.55 1426.15,1446.67 "/>
     <polygon id="_461329592" class="fil1" points="1426.15,1446.67 2562.03,2582.55 2540.86,2582.55 1404.98,1446.67 "/>
     <polygon id="_461336168" class="fil1" points="1404.98,1446.67 2540.86,2582.55 2159.93,2582.55 1024.05,1446.67 "/>
     <polygon id="_461334296" class="fil1" points="1024.05,1446.67 2159.93,2582.55 2159.88,2582.55 1024,1446.67 "/>
     <polygon id="_461354504" class="fil1" points="621.852,1147.4 1757.73,2283.28 1652,2283.75 516.122,1147.87 "/>
     <polygon id="_461341064" class="fil1" points="643.017,1446.67 1778.9,2582.55 1757.73,2582.55 621.852,1446.67 "/>
     <polygon id="_461328536" class="fil1" points="516.122,1147.87 1652,2283.75 1599.88,2283.98 463.999,1148.1 "/>
     <polygon id="_460069264" class="fil1" points="1024,1446.67 2159.88,2582.55 1778.9,2582.55 643.017,1446.67 "/>
     <polygon id="_460055920" class="fil1" points="854.67,714.885 1990.55,1850.77 1990.55,1902.54 854.67,766.654 "/>
     <polygon id="_460068520" class="fil1" points="1426.15,1147.4 2562.03,2283.28 2562.03,2561.39 1426.15,1425.5 "/>
    </g>
    <path id="_461749160" class="fil1" d="M1023.99 601.332l0 0zm14.7165 14.3681l507.968 495.957 37.3264 36.4429 -52.1256 -0.230315 -105.729 -0.468898 0 278.103 0 21.1654 -21.1666 0 -380.932 0 -0.0496063 0 -380.981 0 -21.1654 0 0 -21.1654 0 -278.103 -105.73 0.468898 -52.1233 0.230315 37.3252 -36.4429 184.037 -179.692 0 -217.08 0 -21.1654 21.1654 0 126.978 0 21.1654 0 0 21.1654 0 51.7689 154.605 -150.954 14.7248 -14.3587 0.726379 0.708662 13.9807 13.65z"/>
   </g>
  </g>
  <path class="fil2" d="M1024 0c565.539,0 1024,458.461 1024,1024 0,565.539 -458.461,1024 -1024,1024 -565.539,0 -1024,-458.461 -1024,-1024 0,-565.539 458.461,-1024 1024,-1024z"/>
  <path class="fil3" d="M685.361 936.813l0 -221.928 0 -21.1654 21.1654 0 126.978 0 21.1654 0 0 21.1654 0 56.6174c-31.4469,30.7051 -47.8052,46.6772 -169.309,165.311z"/>
  <polygon class="fil4" points="1024,1446.67 1024,1446.67 643.017,1446.67 621.852,1446.67 621.852,1425.5 621.852,1147.4 516.122,1147.87 463.999,1148.1 501.324,1111.66 1009.28,615.7 1023.99,601.332 1024,601.341 "/>
  <polygon class="fil5" points="1038.71,615.7 1546.67,1111.66 1584,1148.1 1531.88,1147.87 1426.15,1147.4 1426.15,1425.5 1426.15,1446.67 1404.98,1446.67 1024.05,1446.67 1024,1446.67 1024,601.341 1024.73,602.05 "/>
  <path class="fil6" d="M988.928 1316.71l140.895 0 0 42.3307 -190.485 0 0 -62.8229 13.6158 -4.59922c25.1882,-8.50985 32.7461,-22.011 33.2292,-38.4024l-46.8449 0 0 -42.3307 40.1256 0c-2.21575,-10.4516 -4.12323,-21.2622 -4.12323,-32.1142 0,-78.0083 75.8186,-93.5505 138.212,-93.5505l0 39.874c-37.7174,0 -98.0268,2.57362 -98.0268,53.6764 0,10.715 1.60984,21.4713 3.54803,32.1142l89.5855 0 0 42.3307 -83.0717 0c1.12087,23.6433 -5.54292,45.4843 -36.6591,63.4937z"/>
  <polygon class="fil6" points="691.562,1055.03 1009.03,737.56 1023.99,722.595 1038.96,737.56 1356.43,1055.03 1326.51,1084.96 1023.99,782.453 721.491,1084.96 "/>
 </g>
</svg>
