<?xml version="1.0" encoding="UTF-8"?>
<!DOCTYPE svg PUBLIC "-//W3C//DTD SVG 1.1//EN" "http://www.w3.org/Graphics/SVG/1.1/DTD/svg11.dtd">
<!-- Creator: CorelDRAW -->
<svg xmlns="http://www.w3.org/2000/svg" xml:space="preserve" width="2048px" height="2048px" style="shape-rendering:geometricPrecision; text-rendering:geometricPrecision; image-rendering:optimizeQuality; fill-rule:evenodd; clip-rule:evenodd"
viewBox="0 0 2048 2048"
 xmlns:xlink="http://www.w3.org/1999/xlink">
 <defs>
  <style type="text/css">
   <![CDATA[
    .fil2 {fill:none}
    .fil1 {fill:#9E9D24}
    .fil0 {fill:#AFB42B}
    .fil4 {fill:#F57F17}
    .fil3 {fill:#FFAB40}
    .fil6 {fill:#FFE0B2}
    .fil5 {fill:#FFF3E0}
   ]]>
  </style>
   <clipPath id="id0">
    <path d="M1024 0c565.539,0 1024,458.461 1024,1024 0,565.539 -458.461,1024 -1024,1024 -565.539,0 -1024,-458.461 -1024,-1024 0,-565.539 458.461,-1024 1024,-1024z"/>
   </clipPath>
 </defs>
 <g id="Layer_x0020_1">
  <metadata id="CorelCorpID_0Corel-Layer"/>
  <path class="fil0" d="M1024 0c565.539,0 1024,458.461 1024,1024 0,565.539 -458.461,1024 -1024,1024 -565.539,0 -1024,-458.461 -1024,-1024 0,-565.539 458.461,-1024 1024,-1024z"/>
  <g style="clip-path:url(#id0)">
   <g id="_461742344">
    <g>
     <polygon id="_4613311761" class="fil1" points="1584,553.598 2719.88,1689.48 2719.88,1711.88 1584,575.999 "/>
     <polygon id="_461348048" class="fil1" points="1584,575.999 2719.88,1711.88 2719.88,2607.88 1584,1472 "/>
     <polygon id="_461347616" class="fil1" points="1584,1472 2719.88,2607.88 2719.88,2630.28 1584,1494.4 "/>
     <polygon id="_461329520" class="fil1" points="1584,1494.4 2719.88,2630.28 2697.48,2630.28 1561.6,1494.4 "/>
     <polygon id="_461348192" class="fil1" points="1561.6,1494.4 2697.48,2630.28 1622.28,2630.28 486.4,1494.4 "/>
     <polygon id="_461342192" class="fil1" points="486.4,1494.4 1622.28,2630.28 1599.88,2630.28 464,1494.4 "/>
    </g>
    <polygon id="_461724008" class="fil1" points="486.4,553.598 1561.6,553.598 1584,553.598 1584,575.999 1584,1472 1584,1494.4 1561.6,1494.4 486.4,1494.4 464,1494.4 464,1472 464,575.999 464,553.598 "/>
   </g>
  </g>
  <path class="fil2" d="M1024 0c565.539,0 1024,458.461 1024,1024 0,565.539 -458.461,1024 -1024,1024 -565.539,0 -1024,-458.461 -1024,-1024 0,-565.539 458.461,-1024 1024,-1024z"/>
  <polygon class="fil3" points="486.4,553.598 1561.6,553.598 1584,553.598 1584,575.999 1584,1472 1584,1494.4 1561.6,1494.4 486.4,1494.4 464,1494.4 464,1472 464,575.999 464,553.598 "/>
  <polygon class="fil4" points="598.491,1360 598.491,687.999 598.491,665.234 620.8,665.234 1427.2,665.234 1449.51,665.234 1449.51,687.999 1449.51,1360 1449.51,1382.76 1427.2,1382.76 620.8,1382.76 598.491,1382.76 "/>
  <polygon class="fil5" points="1404.89,1331.69 1046.4,710.764 1047.23,710.764 1404.89,710.764 1404.89,1331.61 "/>
  <polygon class="fil6" points="1046.4,1337.23 1404.89,1337.23 1404.89,1331.69 1046.4,710.764 1404.89,1331.69 1046.4,710.764 "/>
  <polygon class="fil5" points="1001.6,1331.69 643.11,710.764 643.936,710.764 1001.6,710.764 1001.6,1331.61 "/>
  <polygon class="fil6" points="643.11,1337.23 1001.6,1337.23 1001.6,1331.69 643.11,710.764 1001.6,1331.69 643.11,710.764 "/>
 </g>
</svg>
