<?xml version="1.0" encoding="UTF-8"?>
<!DOCTYPE svg PUBLIC "-//W3C//DTD SVG 1.1//EN" "http://www.w3.org/Graphics/SVG/1.1/DTD/svg11.dtd">
<!-- Creator: CorelDRAW -->
<svg xmlns="http://www.w3.org/2000/svg" xml:space="preserve" width="2048px" height="2048px" style="shape-rendering:geometricPrecision; text-rendering:geometricPrecision; image-rendering:optimizeQuality; fill-rule:evenodd; clip-rule:evenodd"
viewBox="0 0 2048 2048"
 xmlns:xlink="http://www.w3.org/1999/xlink">
 <defs>
  <style type="text/css">
   <![CDATA[
    .fil2 {fill:none}
    .fil1 {fill:#D32F2F}
    .fil0 {fill:#EF5350}
    .fil5 {fill:#FFA726}
    .fil4 {fill:#FFCC80}
    .fil3 {fill:#FFE0B2}
    .fil6 {fill:#FFA726;fill-rule:nonzero}
   ]]>
  </style>
   <clipPath id="id0">
    <path d="M1024 0c565.539,0 1024,458.461 1024,1024 0,565.539 -458.461,1024 -1024,1024 -565.539,0 -1024,-458.461 -1024,-1024 0,-565.539 458.461,-1024 1024,-1024z"/>
   </clipPath>
 </defs>
 <g id="Layer_x0020_1">
  <metadata id="CorelCorpID_0Corel-Layer"/>
  <path class="fil0" d="M1024 0c565.539,0 1024,458.461 1024,1024 0,565.539 -458.461,1024 -1024,1024 -565.539,0 -1024,-458.461 -1024,-1024 0,-565.539 458.461,-1024 1024,-1024z"/>
  <g style="clip-path:url(#id0)">
   <g id="_461725376">
    <g>
     <polygon id="_4613309841" class="fil1" points="1291.9,463.999 2427.78,1599.88 2427.78,2622.76 1291.9,1486.88 "/>
     <polygon id="_461331056" class="fil1" points="1462.38,1486.88 2598.26,2622.76 2598.26,2719.88 1462.38,1584 "/>
     <polygon id="_461335232" class="fil1" points="1462.38,1584 2598.26,2719.88 2159.97,2719.88 1024.09,1584 "/>
     <polygon id="_461331992" class="fil1" points="1024.09,1584 2159.97,2719.88 2159.88,2719.88 1024,1584 "/>
     <polygon id="_461348792" class="fil1" points="1024,1584 2159.88,2719.88 1721.5,2719.88 585.619,1584 "/>
    </g>
    <polygon id="_461741384" class="fil1" points="756.106,464 1024,464 1024.82,463.999 1291.9,463.999 1291.9,1486.88 1462.38,1486.88 1462.38,1584 1024.09,1584 1024,1584 585.619,1584 585.626,1486.88 756.106,1486.88 "/>
   </g>
  </g>
  <path class="fil2" d="M1024 0c565.539,0 1024,458.461 1024,1024 0,565.539 -458.461,1024 -1024,1024 -565.539,0 -1024,-458.461 -1024,-1024 0,-565.539 458.461,-1024 1024,-1024z"/>
  <polygon class="fil3" points="1024,464 756.106,464 756.106,1486.88 585.626,1486.88 585.619,1584 1024,1584 "/>
  <polygon class="fil4" points="1291.9,1486.88 1291.9,463.999 1024.82,463.999 1024,464 1024,1584 1024.09,1584 1462.38,1584 1462.38,1486.88 "/>
  <polygon class="fil5" points="1072.71,707.542 1194.48,707.542 1194.48,829.313 1072.71,829.313 "/>
  <polygon class="fil5" points="853.523,707.542 975.294,707.542 975.294,829.313 853.523,829.313 "/>
  <polygon class="fil5" points="853.523,951.085 975.294,951.085 975.294,1072.86 853.523,1072.86 "/>
  <polygon class="fil5" points="1072.71,951.085 1194.48,951.085 1194.48,1072.86 1072.71,1072.86 "/>
  <polygon class="fil5" points="1072.71,1194.63 1194.48,1194.63 1194.48,1486.88 1072.71,1486.88 "/>
  <polygon class="fil6" points="1219.03,585.789 829.168,585.789 829.168,537.041 1219.03,537.041 "/>
  <polygon class="fil5" points="853.523,1194.63 975.295,1194.63 975.295,1486.88 853.523,1486.88 "/>
 </g>
</svg>
