<?xml version="1.0" encoding="iso-8859-1"?>
<!-- Generator: Adobe Illustrator 19.0.0, SVG Export Plug-In . SVG Version: 6.00 Build 0)  -->
<svg xmlns="http://www.w3.org/2000/svg" xmlns:xlink="http://www.w3.org/1999/xlink" version="1.1" id="Layer_1" x="0px" y="0px" viewBox="0 0 512 512" style="enable-background:new 0 0 512 512;" xml:space="preserve">
<path style="fill:#ADABB1;" d="M243.22,197.015v-49.988c0-12.17,7.64-22.97,19.011-26.873c8.057-2.765,13.253-10.361,12.928-18.902  c-0.377-9.939-8.459-18.02-18.399-18.398c-5.272-0.21-10.267,1.697-14.055,5.343c-3.791,3.649-5.879,8.556-5.879,13.815  c0,7.058-5.721,12.78-12.78,12.78c-7.058,0-12.78-5.721-12.78-12.78c0-12.271,4.869-23.715,13.711-32.228  c0,0,10.751-10.637,21.751-11.554c3.63-0.302,7.251-1.059,11.001-0.917c23.213,0.882,42.088,19.756,42.969,42.969  c0.755,19.891-11.369,37.592-30.17,44.047c-1.031,0.354-1.75,1.464-1.75,2.698v49.988H243.22z"/>
<rect x="243.22" y="168.01" style="opacity:0.38;fill:#565159;enable-background:new    ;" width="25.716" height="29.002"/>
<path style="fill:#679972;" d="M501.914,350.215L272.899,189.708c-10.144-7.11-23.655-7.11-33.799,0l-91.964,64.454l-23.573,16.522  L10.085,350.215c-4.64,3.252-2.339,10.544,3.327,10.544h147.659H363.65h134.936C504.252,360.759,506.554,353.468,501.914,350.215z   M93.043,327.826l121.301-87.051h83.169l119.096,87.051H93.043z"/>
<path style="fill:#FF6746;" d="M363.651,327.977v90.417c0,19.978-16.346,36.324-36.324,36.324H197.395  c-19.978,0-36.324-16.346-36.324-36.324v-90.417H363.651z"/>
<path style="opacity:0.16;fill:#892813;enable-background:new    ;" d="M344.901,327.977v71.668  c0,19.978-16.346,36.324-36.324,36.324H178.647c-5.156,0-10.066-1.097-14.52-3.054c5.631,12.803,18.446,21.804,33.268,21.804  h129.932c19.978,0,36.324-16.346,36.324-36.324v-90.417h-18.75V327.977z"/>
<g>
	<path style="fill:#406646;" d="M314.992,222.12h3.505l-46.246-32.412c-10.144-7.11-23.655-7.11-33.799,0l-46.246,32.412h3.505   C233.351,255.416,285.65,255.332,314.992,222.12z"/>
	<rect x="363.654" y="327.824" style="fill:#406646;" width="18.24" height="32.934"/>
	<rect x="142.832" y="327.824" style="fill:#406646;" width="18.24" height="32.934"/>
</g>
<path d="M506.28,343.985L277.266,183.478c-0.287-0.201-0.587-0.373-0.878-0.565v-32.68c20.055-8.435,32.752-28.187,31.914-50.239  c-1.032-27.165-23.119-49.253-50.284-50.284c-4.335-0.155-8.66,0.198-12.847,1.074c-4.113,0.861-6.749,4.892-5.889,9.005  c0.86,4.113,4.896,6.746,9.005,5.889c2.974-0.621,6.052-0.88,9.153-0.762c19.262,0.732,34.924,16.394,35.655,35.655  c0.627,16.512-9.435,31.206-25.037,36.562c-4.121,1.415-6.888,5.39-6.888,9.894v30.138c-3.431-0.48-6.912-0.48-10.343,0v-30.138  c0-8.921,5.575-16.828,13.872-19.676c11.256-3.865,18.513-14.469,18.061-26.386c-0.527-13.891-11.822-25.185-25.701-25.713  c-7.361-0.299-14.329,2.359-19.632,7.464c-5.294,5.096-8.21,11.948-8.21,19.296c0,2.852-2.32,5.172-5.172,5.172  s-5.172-2.32-5.172-5.172c0-10.184,4.041-19.682,11.379-26.747c3.027-2.914,3.119-7.73,0.205-10.757  c-2.914-3.027-7.731-3.119-10.757-0.205c-10.346,9.959-16.043,23.351-16.043,37.71c0,11.242,9.146,20.388,20.388,20.388  s20.388-9.146,20.388-20.388c0-3.173,1.259-6.132,3.546-8.334c2.29-2.204,5.314-3.337,8.49-3.223  c5.989,0.228,10.858,5.097,11.086,11.086c0.196,5.16-2.937,9.748-7.796,11.416c-14.443,4.959-24.149,18.649-24.149,34.069v35.887  c-0.291,0.192-0.591,0.364-0.878,0.565l-91.964,64.454c-3.441,2.411-4.275,7.156-1.864,10.597c2.411,3.441,7.156,4.276,10.597,1.864  l42.83-30.018c3.424,2.826,6.975,5.413,10.626,7.77L44.703,353.151H19.152l108.778-76.238c3.441-2.411,4.275-7.156,1.864-10.597  c-2.412-3.442-7.155-4.275-10.597-1.863L5.719,343.985c-4.813,3.373-6.859,9.406-5.09,15.012c1.768,5.606,6.906,9.371,12.784,9.371  H47.14c0.006,0,0.011,0.001,0.017,0.001c0.004,0,0.009-0.001,0.013-0.001h106.293v50.026c0,24.224,19.707,43.932,43.932,43.932  h129.931c24.224,0,43.932-19.708,43.932-43.932v-50.026h93.426c0.004,0,0.009,0.001,0.013,0.001c0.006,0,0.011-0.001,0.017-0.001  h33.871c5.878,0,11.015-3.766,12.784-9.37S511.094,347.359,506.28,343.985z M243.467,195.938c7.496-5.255,17.569-5.255,25.065,0  l36.833,25.814c-12.318,11.445-28.503,17.69-46.257,17.699c-0.014,0-0.023,0-0.038,0c-18.055,0-36.17-6.418-51.737-18.189  L243.467,195.938z M259.071,254.668c0.015,0,0.03,0,0.045,0c12.322-0.006,24.042-2.493,34.644-7.221l101.401,72.77H116.695  l102.085-73.26c0.344-0.246,0.653-0.522,0.943-0.813C232.317,251.72,245.683,254.668,259.071,254.668z M356.042,418.394  c0,15.833-12.881,28.716-28.716,28.716H197.395c-15.833,0-28.716-12.881-28.716-28.716v-68.776c0-4.203-3.406-7.608-7.608-7.608  s-7.608,3.405-7.608,7.608v3.532h-82.66l24.689-17.718h260.55L356.042,418.394L356.042,418.394z M371.258,335.434h45.106  l24.689,17.718h-69.794v-17.718H371.258z M467.154,353.151L308.219,239.093c3.476-2.527,6.764-5.346,9.839-8.444l174.789,122.502  H467.154z"/>
<path d="M246.407,378.846v-13.531c0-10.567-8.597-19.165-19.165-19.165s-19.165,8.597-19.165,19.165v13.531  c0,10.567,8.597,19.165,19.165,19.165S246.407,389.413,246.407,378.846z M231.19,378.846c0,2.139-1.808,3.948-3.948,3.948  s-3.948-1.808-3.948-3.948v-13.531c0-2.139,1.808-3.948,3.948-3.948s3.948,1.808,3.948,3.948V378.846z"/>
<path d="M294.636,377.833c-10.567,0-19.165,8.597-19.165,19.165v13.531c0,10.567,8.597,19.165,19.165,19.165  s19.165-8.597,19.165-19.165v-13.531C313.8,386.431,305.203,377.833,294.636,377.833z M298.583,410.529  c0,2.139-1.808,3.948-3.948,3.948s-3.948-1.808-3.948-3.948v-13.531c0-2.139,1.808-3.948,3.948-3.948s3.948,1.808,3.948,3.948  V410.529z"/>
<path d="M279.001,346.858c-3.811-1.768-8.335-0.111-10.103,3.701l-31.686,68.325c-1.768,3.812-0.111,8.336,3.701,10.103  c1.036,0.481,2.124,0.708,3.195,0.708c2.871,0,5.62-1.633,6.907-4.41l31.686-68.325C284.47,353.148,282.813,348.625,279.001,346.858  z"/>
<g>
</g>
<g>
</g>
<g>
</g>
<g>
</g>
<g>
</g>
<g>
</g>
<g>
</g>
<g>
</g>
<g>
</g>
<g>
</g>
<g>
</g>
<g>
</g>
<g>
</g>
<g>
</g>
<g>
</g>
</svg>
