<?xml version="1.0" encoding="iso-8859-1"?>
<!-- Generator: Adobe Illustrator 19.0.0, SVG Export Plug-In . SVG Version: 6.00 Build 0)  -->
<svg xmlns="http://www.w3.org/2000/svg" xmlns:xlink="http://www.w3.org/1999/xlink" version="1.1" id="Layer_1" x="0px" y="0px" viewBox="0 0 512 512" style="enable-background:new 0 0 512 512;" xml:space="preserve">
<path style="fill:#4AA9E7;" d="M277.591,504.088H48.976c-16.417,0-29.254-14.157-27.653-30.495L52.191,158.48  c1.591-16.236,15.241-28.615,31.556-28.615h51.993h29.626h98.015c16.314,0,29.965,12.379,31.556,28.615l16.115,146.678  L277.591,504.088z"/>
<path style="opacity:0.2;fill:#3D689C;enable-background:new    ;" d="M294.016,158.48c-1.591-16.236-15.241-28.615-31.556-28.615  h-42.58c16.314,0,29.965,12.379,31.556,28.615l16.115,146.678l-33.461,198.93h42.58l33.461-198.93L294.016,158.48z"/>
<path style="fill:#FF6746;" d="M435.507,504.396H198.995c-20.614,0-36.375-18.38-33.228-38.753l28.083-181.846  c1.491-9.655,9.8-16.78,19.57-16.78h207.663c9.769,0,18.078,7.124,19.57,16.78l28.083,181.846  C471.88,486.016,456.121,504.396,435.507,504.396z"/>
<path style="opacity:0.2;fill:#892813;enable-background:new    ;" d="M470.403,465.643L442.32,283.797  c-1.491-9.655-9.8-16.78-19.57-16.78h-41.06c9.769,0,18.078,7.124,19.57,16.78l28.083,181.846  c3.146,20.373-12.614,38.753-33.228,38.753h41.06C457.79,504.397,473.549,486.016,470.403,465.643z"/>
<circle style="fill:#3D689C;" cx="109.295" cy="190.76" r="22.851"/>
<path style="fill:#FFDC5E;" d="M363.447,60.453l-36.031,46.388c-3.76,4.841-0.31,11.89,5.82,11.89h27.974  c4.07,0,7.37,3.299,7.37,7.37v102.284h71.833V126.1c0-4.07,3.299-7.37,7.37-7.37h27.974c6.13,0,9.58-7.048,5.82-11.89  l-71.259-91.744c-2.95-3.799-8.69-3.799-11.64,0l-19.404,24.983L363.447,60.453z"/>
<path style="fill:#E5BD2B;" d="M481.964,106.842L470.608,92.22c0.248,4.143-2.944,8.173-7.679,8.173h-29.181  c-4.246,0-7.687,3.442-7.687,7.687v106.7h-57.092v13.604h71.833V126.1c0-4.07,3.299-7.37,7.37-7.37h27.974  C482.273,118.731,485.725,111.683,481.964,106.842z"/>
<g>
	<circle style="fill:#FF8E76;" cx="254.745" cy="328.007" r="22.851"/>
	<circle style="fill:#FF8E76;" cx="387.055" cy="328.007" r="22.851"/>
</g>
<path d="M448.167,282.637c-2.078-13.456-13.468-23.223-27.084-23.223H213.42c-13.616,0-25.006,9.767-27.085,23.223l-28.083,181.846  c-1.838,11.906,1.605,23.98,9.446,33.126c7.841,9.146,19.249,14.391,31.297,14.391h236.51c12.048,0,23.456-5.246,31.297-14.392  c7.841-9.146,11.284-21.219,9.445-33.125L448.167,282.637z M455.258,487.709c-4.949,5.772-12.147,9.083-19.751,9.083H198.995  c-7.604,0-14.804-3.31-19.752-9.082c-4.949-5.772-7.121-13.392-5.962-20.906l28.083-181.846c0.925-5.989,5.995-10.335,12.055-10.335  h207.663c6.06,0,11.13,4.346,12.055,10.335l28.082,181.846C462.379,474.318,460.208,481.938,455.258,487.709z"/>
<path d="M109.294,160.301c-16.793,0-30.455,13.662-30.455,30.455s13.662,30.455,30.455,30.455s30.455-13.662,30.455-30.455  S126.088,160.301,109.294,160.301z M109.294,206.003c-8.407,0-15.247-6.84-15.247-15.247s6.84-15.247,15.247-15.247  s15.247,6.84,15.247,15.247S117.701,206.003,109.294,206.003z"/>
<path d="M387.057,297.553c-16.793,0-30.454,13.662-30.454,30.455c0,3.89,0.741,7.608,2.076,11.031  c-23.764,11.606-51.796,11.606-75.56,0c1.335-3.423,2.076-7.141,2.076-11.031c0-16.793-13.662-30.455-30.455-30.455  s-30.455,13.662-30.455,30.455c0,16.793,13.662,30.455,30.455,30.455c7.316,0,14.036-2.594,19.293-6.91  c14.29,7.487,30.271,11.462,46.865,11.462c16.594,0,32.575-3.974,46.866-11.462c5.257,4.315,11.977,6.91,19.292,6.91  c16.793,0,30.455-13.662,30.455-30.455C417.513,311.215,403.851,297.553,387.057,297.553z M254.742,343.256  c-8.407,0-15.247-6.84-15.247-15.247c0-8.407,6.84-15.247,15.247-15.247c8.407,0,15.247,6.84,15.247,15.247  c0,0.988-0.102,1.952-0.283,2.887c-3.346-2.484-6.555-5.233-9.587-8.265c-2.971-2.969-7.785-2.969-10.754,0  c-2.97,2.971-2.97,7.785,0,10.754c3.266,3.266,6.719,6.274,10.329,9.027C258.138,342.949,256.477,343.256,254.742,343.256z   M387.057,343.256c-1.735,0-3.396-0.305-4.952-0.841c3.61-2.755,7.064-5.762,10.329-9.027c2.97-2.971,2.97-7.784,0-10.754  c-2.971-2.969-7.784-2.969-10.754,0c-3.031,3.032-6.241,5.781-9.586,8.264c-0.18-0.936-0.283-1.9-0.283-2.887  c0-8.407,6.84-15.247,15.246-15.247c8.407,0,15.247,6.84,15.247,15.247C402.303,336.416,395.464,343.256,387.057,343.256z"/>
<path d="M144.334,496.484H48.975c-5.767,0-11.077-2.352-14.95-6.625c-3.874-4.271-5.698-9.785-5.136-15.525l30.868-315.112  c1.216-12.402,11.528-21.754,23.988-21.754h51.993c4.2,0,7.604-3.404,7.604-7.604s-3.404-7.604-7.604-7.604h-22.412  c3.761-30.503,29.818-54.203,61.323-54.203s57.56,23.699,61.322,54.203h-70.607c-4.2,0-7.604,3.404-7.604,7.604  c0,4.2,3.404,7.604,7.604,7.604h98.016c12.46,0,22.773,9.352,23.988,21.754l7.113,72.614c0.384,3.928,3.693,6.864,7.558,6.864  c0.247,0,0.498-0.013,0.75-0.038c4.179-0.409,7.236-4.128,6.825-8.309l-7.113-72.614c-1.981-20.226-18.801-35.478-39.123-35.478  h-12.094c-3.831-38.91-36.737-69.412-76.635-69.412c-39.901,0-72.805,30.501-76.636,69.412H83.746  c-20.322,0-37.142,15.253-39.123,35.478L13.754,472.851c-0.971,9.919,2.311,19.841,9.006,27.225  c6.695,7.382,16.249,11.616,26.215,11.616h95.358c4.2,0,7.604-3.404,7.604-7.604S148.534,496.484,144.334,496.484z"/>
<path d="M496.814,114.067L410.501,2.939C409.061,1.085,406.845,0,404.496,0c-2.348,0-4.565,1.085-6.005,2.939l-25.225,32.476  c-2.576,3.316-1.976,8.094,1.34,10.669c3.316,2.575,8.094,1.977,10.669-1.34L404.495,20l70.779,91.128h-34.863  c-4.2,0-7.604,3.404-7.604,7.604V220.78h-56.626V118.731c0-4.2-3.404-7.604-7.604-7.604h-34.863l35.736-46.01  c2.576-3.316,1.976-8.094-1.34-10.669c-3.316-2.574-8.094-1.977-10.669,1.34l-45.265,58.278c-1.781,2.293-2.101,5.4-0.824,8.008  c1.276,2.607,3.927,4.26,6.829,4.26h42.793v102.05c0,4.2,3.404,7.604,7.604,7.604h71.834c4.2,0,7.604-3.404,7.604-7.604V126.335  h42.793c2.903,0,5.554-1.654,6.829-4.26C498.915,119.467,498.596,116.361,496.814,114.067z"/>
<path d="M142.206,360.538c0.516,0.105,1.03,0.157,1.537,0.157c3.534-0.001,6.702-2.479,7.441-6.077l23.787-115.92h82.431  c4.2,0,7.604-3.404,7.604-7.604c0-4.2-3.404-7.604-7.604-7.604H168.77c-3.61,0-6.723,2.539-7.449,6.075L136.287,351.56  C135.443,355.676,138.093,359.694,142.206,360.538z"/>
<g>
</g>
<g>
</g>
<g>
</g>
<g>
</g>
<g>
</g>
<g>
</g>
<g>
</g>
<g>
</g>
<g>
</g>
<g>
</g>
<g>
</g>
<g>
</g>
<g>
</g>
<g>
</g>
<g>
</g>
</svg>
