<?xml version="1.0" encoding="iso-8859-1"?>
<!-- Generator: Adobe Illustrator 19.0.0, SVG Export Plug-In . SVG Version: 6.00 Build 0)  -->
<svg xmlns="http://www.w3.org/2000/svg" xmlns:xlink="http://www.w3.org/1999/xlink" version="1.1" id="Layer_1" x="0px" y="0px" viewBox="0 0 511.999 511.999" style="enable-background:new 0 0 511.999 511.999;" xml:space="preserve">
<rect x="32.107" y="113.522" style="fill:#D7D6D9;" width="440.442" height="301.928"/>
<path style="opacity:0.72;fill:#FFFFFF;enable-background:new    ;" d="M431.412,382.047H74.409  c-6.126,0-11.091-4.966-11.091-11.091v-183.4c0-6.126,4.966-11.091,11.091-11.091h357.003c6.126,0,11.091,4.966,11.091,11.091v183.4  C442.504,377.082,437.538,382.047,431.412,382.047z"/>
<path style="fill:#565159;" d="M114.97,415.445h389.426l0,0c0,25.676-20.815,46.491-46.491,46.491H54.095  c-25.676,0-46.491-20.815-46.491-46.491l0,0h72.463H114.97z"/>
<path style="opacity:0.26;fill:#3F3C43;enable-background:new    ;" d="M460.914,415.445L460.914,415.445  c0,25.676-20.815,46.491-46.491,46.491h43.481c25.676,0,46.491-20.815,46.491-46.491l0,0H460.914z"/>
<path style="opacity:0.28;fill:#565159;enable-background:new    ;" d="M472.549,60.202H409.63h-62.92h-62.921h-62.921h-62.921  h-62.92H68.642H32.106v46.48v23.314c0,17.248,14.158,31.361,31.46,31.361l0,0c17.304,0,31.46-14.112,31.46-31.361  c0,17.248,14.158,31.361,31.46,31.361l0,0c17.304,0,31.46-14.112,31.46-31.361c0,17.248,14.158,31.361,31.46,31.361l0,0  c17.304,0,31.46-14.112,31.46-31.361c0,17.248,14.158,31.361,31.46,31.361l0,0c17.304,0,31.46-14.112,31.46-31.361  c0,17.248,14.158,31.361,31.46,31.361l0,0c17.304,0,31.46-14.112,31.46-31.361c0,17.248,14.158,31.361,31.46,31.361l0,0  c17.304,0,31.46-14.112,31.46-31.361c0,17.248,14.158,31.361,31.46,31.361l0,0c17.304,0,31.46-14.112,31.46-31.361V60.202H472.549z"/>
<path style="fill:#E0E0E2;" d="M299.303,445.57h-77.774c-4.2,0-7.604-3.405-7.604-7.604c0-4.199,3.404-7.604,7.604-7.604h77.774  c4.2,0,7.604,3.405,7.604,7.604C306.907,442.166,303.503,445.57,299.303,445.57z"/>
<polygon style="fill:#FF6746;" points="68.643,50.063 472.55,50.063 472.55,96.544 32.107,96.544 32.107,50.063 "/>
<path style="fill:#CD3B1C;" d="M95.028,50.063v69.795c0,17.248-14.158,31.361-31.46,31.361l0,0c-17.304,0-31.46-14.112-31.46-31.361  V50.063H95.028z"/>
<g>
	<path style="fill:#FF6746;" d="M157.948,50.063v69.795c0,17.248-14.158,31.361-31.46,31.361l0,0   c-17.304,0-31.46-14.112-31.46-31.361V50.063H157.948z"/>
	<path style="fill:#FF6746;" d="M283.79,50.063v69.795c0,17.248-14.158,31.361-31.46,31.361l0,0   c-17.304,0-31.46-14.112-31.46-31.361V50.063H283.79z"/>
</g>
<g>
	<path style="fill:#CD3B1C;" d="M220.87,50.063v69.795c0,17.248-14.158,31.361-31.46,31.361l0,0   c-17.304,0-31.46-14.112-31.46-31.361V50.063H220.87z"/>
	<path style="fill:#CD3B1C;" d="M346.711,50.063v69.795c0,17.248-14.158,31.361-31.46,31.361l0,0   c-17.304,0-31.46-14.112-31.46-31.361V50.063H346.711z"/>
</g>
<path style="fill:#FF6746;" d="M409.632,50.063v69.795c0,17.248-14.158,31.361-31.46,31.361l0,0  c-17.304,0-31.46-14.112-31.46-31.361V50.063H409.632z"/>
<path style="opacity:0.28;fill:#565159;enable-background:new    ;" d="M448.326,113.518v124.195  c0,84.781-68.729,153.51-153.51,153.51H32.107v24.223H472.55V113.518L448.326,113.518L448.326,113.518z"/>
<path style="fill:#CD3B1C;" d="M472.553,50.063v69.795c0,17.248-14.158,31.361-31.46,31.361l0,0  c-17.304,0-31.46-14.112-31.46-31.361V50.063H472.553z"/>
<path d="M450.108,382.047V176.464c0-4.199-3.404-7.604-7.604-7.604H63.318c-4.2,0-7.604,3.405-7.604,7.604v205.583  c0,4.199,3.404,7.604,7.604,7.604h379.186C446.704,389.651,450.108,386.247,450.108,382.047z M434.9,374.443H70.922V184.068H434.9  V374.443z"/>
<path d="M167.214,230.321h18.784l18.891,72.729c0.87,3.353,3.896,5.693,7.36,5.693h84.727c4.2,0,7.604-3.405,7.604-7.604  c0-4.199-3.404-7.604-7.604-7.604h-78.847l-3.052-11.747h91.674c4.2,0,7.604-3.405,7.604-7.604c0-4.199-3.404-7.604-7.604-7.604  h-95.624l-3.052-11.747h112.525c4.2,0,7.604-3.405,7.604-7.604s-3.404-7.604-7.604-7.604H204.127l-4.888-18.819  c-0.87-3.353-3.896-5.693-7.36-5.693h-24.665c-4.2,0-7.604,3.405-7.604,7.604S163.014,230.321,167.214,230.321z"/>
<path d="M219.955,311.641c-10.457,0-18.964,8.507-18.964,18.965s8.507,18.965,18.964,18.965c10.457,0,18.965-8.507,18.965-18.965  S230.413,311.641,219.955,311.641z M219.955,334.363c-2.071,0-3.756-1.685-3.756-3.757c0-2.072,1.685-3.757,3.756-3.757  c2.072,0,3.757,1.685,3.757,3.757C223.713,332.678,222.028,334.363,219.955,334.363z"/>
<path d="M286.928,311.641c-10.457,0-18.964,8.507-18.964,18.965s8.507,18.965,18.964,18.965s18.965-8.507,18.965-18.965  S297.385,311.641,286.928,311.641z M286.928,334.363c-2.071,0-3.756-1.685-3.756-3.757c0-2.072,1.685-3.757,3.756-3.757  c2.072,0,3.757,1.685,3.757,3.757C290.685,332.678,289,334.363,286.928,334.363z"/>
<path d="M504.396,407.841h-24.242V124.958c0-0.539-0.058-1.065-0.164-1.573c0.105-1.163,0.167-2.338,0.167-3.528V75.105  c0-0.02-0.003-0.039-0.003-0.059V50.063c0-4.199-3.404-7.604-7.604-7.604H68.643c-4.2,0-7.604,3.405-7.604,7.604  s3.404,7.604,7.604,7.604h396.302v31.274h-47.71V75.105c0-4.199-3.404-7.604-7.604-7.604c-4.2,0-7.604,3.405-7.604,7.604v13.835  h-47.713V75.105c0-4.199-3.404-7.604-7.604-7.604c-4.2,0-7.604,3.405-7.604,7.604v13.835h-47.712V75.105  c0-4.199-3.404-7.604-7.604-7.604s-7.604,3.405-7.604,7.604v13.835h-47.712V75.105c0-4.199-3.404-7.604-7.604-7.604  c-4.2,0-7.604,3.405-7.604,7.604v13.835h-47.713V75.105c0-4.199-3.404-7.604-7.604-7.604c-4.2,0-7.604,3.405-7.604,7.604v13.835  h-47.713V75.105c0-4.199-3.404-7.604-7.604-7.604s-7.604,3.405-7.604,7.604v13.835H39.711V75.105V50.063  c0-4.199-3.404-7.604-7.604-7.604s-7.604,3.405-7.604,7.604v25.042v21.439v23.314c0,1.187,0.063,2.359,0.167,3.519  c-0.107,0.51-0.167,1.038-0.167,1.581v282.884H7.604c-4.2,0-7.604,3.405-7.604,7.604c0,29.828,24.267,54.095,54.094,54.095h403.811  c29.828,0,54.095-24.267,54.095-54.095C512,411.246,508.596,407.841,504.396,407.841z M464.949,104.148v15.71  c0,13.099-10.702,23.757-23.856,23.757s-23.856-10.657-23.856-23.757v-15.71C417.236,104.148,464.949,104.148,464.949,104.148z   M402.027,104.148v15.71c0,13.099-10.702,23.757-23.856,23.757s-23.856-10.657-23.856-23.757v-15.71  C354.315,104.148,402.027,104.148,402.027,104.148z M339.107,104.148v15.71c0,13.099-10.702,23.757-23.856,23.757  s-23.856-10.657-23.856-23.757v-15.71C291.395,104.148,339.107,104.148,339.107,104.148z M276.186,104.148v15.71  c0,13.099-10.702,23.757-23.856,23.757s-23.856-10.657-23.856-23.757v-15.71C228.474,104.148,276.186,104.148,276.186,104.148z   M213.266,104.148v15.71c0,13.099-10.702,23.757-23.856,23.757c-13.154,0-23.856-10.657-23.856-23.757v-15.71  C165.553,104.148,213.266,104.148,213.266,104.148z M150.344,104.148v15.71c0,13.099-10.702,23.757-23.856,23.757  s-23.856-10.657-23.856-23.757v-15.71C102.632,104.148,150.344,104.148,150.344,104.148z M87.424,104.148v15.71  c0,13.099-10.702,23.757-23.856,23.757s-23.856-10.657-23.856-23.757v-15.71C39.712,104.148,87.424,104.148,87.424,104.148z   M457.905,454.332H54.094c-18.841,0-34.594-13.469-38.139-31.283h64.112c4.2,0,7.604-3.405,7.604-7.604s-3.404-7.604-7.604-7.604  H39.711V150.681c6.604,5.098,14.878,8.141,23.856,8.141c12.892,0,24.342-6.266,31.46-15.899c7.118,9.635,18.568,15.899,31.46,15.899  s24.342-6.266,31.46-15.899c7.118,9.635,18.568,15.899,31.46,15.899c12.892,0,24.342-6.266,31.46-15.899  c7.118,9.635,18.568,15.899,31.46,15.899c12.892,0,24.342-6.266,31.46-15.899c7.118,9.635,18.568,15.899,31.46,15.899  c12.892,0,24.342-6.266,31.46-15.899c7.118,9.635,18.568,15.899,31.46,15.899s24.342-6.266,31.46-15.899  c7.118,9.635,18.568,15.899,31.46,15.899c8.977,0,17.25-3.044,23.853-8.139V407.84H114.967c-4.2,0-7.604,3.405-7.604,7.604  c0,4.199,3.404,7.604,7.604,7.604h381.075C492.5,440.863,476.746,454.332,457.905,454.332z"/>
<path d="M299.303,430.362h-77.774c-4.2,0-7.604,3.405-7.604,7.604c0,4.199,3.404,7.604,7.604,7.604h77.774  c4.2,0,7.604-3.405,7.604-7.604C306.907,433.767,303.503,430.362,299.303,430.362z"/>
<g>
</g>
<g>
</g>
<g>
</g>
<g>
</g>
<g>
</g>
<g>
</g>
<g>
</g>
<g>
</g>
<g>
</g>
<g>
</g>
<g>
</g>
<g>
</g>
<g>
</g>
<g>
</g>
<g>
</g>
</svg>
