<?xml version="1.0" encoding="iso-8859-1"?>
<!-- Generator: Adobe Illustrator 19.0.0, SVG Export Plug-In . SVG Version: 6.00 Build 0)  -->
<svg xmlns="http://www.w3.org/2000/svg" xmlns:xlink="http://www.w3.org/1999/xlink" version="1.1" id="Layer_1" x="0px" y="0px" viewBox="0 0 512 512" style="enable-background:new 0 0 512 512;" xml:space="preserve">
<polygon style="fill:#D7D6D9;" points="7.604,366.675 484.684,366.675 484.684,268.615 432.9,232.255 402.049,147.417 7.604,143.01   7.604,188.963 "/>
<g>
	<rect x="321.617" y="268.612" style="opacity:0.3;fill:#2D2128;enable-background:new    ;" width="163.069" height="98.061"/>
	<polygon style="opacity:0.3;fill:#2D2128;enable-background:new    ;" points="7.604,366.675 314.011,366.675 314.011,329.529    7.604,343.423  "/>
	<polygon style="fill:#2D2128;" points="59.068,410.747 7.604,410.747 7.604,366.675 504.396,366.675 504.396,410.747    425.727,410.747 343.546,410.747 144.8,410.747  "/>
</g>
<polygon style="fill:#608ECF;" points="434.468,233.357 432.9,232.255 402.049,147.417 321.615,146.518 321.615,233.357 "/>
<path style="fill:#FFDC5E;" d="M452.889,268.615c-8.922,0-16.222,7.3-16.222,16.222c0,8.922,7.3,16.222,16.222,16.222h31.796  v-32.444H452.889z"/>
<polygon style="fill:#3F3C43;" points="59.068,389.456 7.604,389.456 7.604,367.42 504.396,367.42 504.396,389.456 425.727,389.456   343.546,389.456 144.8,389.456 "/>
<circle style="fill:#C7C4CB;" cx="384.639" cy="423.347" r="42.967"/>
<path style="opacity:0.14;fill:#3F3C43;enable-background:new    ;" d="M405.42,385.833c3.469,6.199,5.455,13.34,5.455,20.949  c0,23.731-19.238,42.97-42.97,42.97c-7.609,0-14.75-1.985-20.949-5.455c7.352,13.136,21.392,22.021,37.515,22.021  c23.731,0,42.97-19.238,42.97-42.97C427.441,407.225,418.555,393.184,405.42,385.833z"/>
<circle style="fill:#C7C4CB;" cx="101.832" cy="423.347" r="42.967"/>
<g>
	<circle style="fill:#2D2128;" cx="384.639" cy="423.347" r="15.975"/>
	<circle style="fill:#2D2128;" cx="101.832" cy="423.347" r="15.975"/>
</g>
<path style="opacity:0.14;fill:#3F3C43;enable-background:new    ;" d="M122.779,385.833c3.469,6.199,5.455,13.34,5.455,20.949  c0,23.731-19.238,42.97-42.97,42.97c-7.609,0-14.75-1.985-20.949-5.455c7.352,13.136,21.392,22.021,37.515,22.021  c23.731,0,42.97-19.238,42.97-42.97C144.8,407.225,135.915,393.184,122.779,385.833z"/>
<rect x="474.213" y="268.612" style="opacity:0.16;fill:#2D2128;enable-background:new    ;" width="10.473" height="32.444"/>
<path d="M504.396,359.071h-12.109v-90.456c0-2.477-1.206-4.8-3.234-6.223l-49.825-34.984l-30.033-82.589  c-1.082-2.976-3.895-4.97-7.062-5.005l-21.34-0.238c-8.978-12.465-45.54-57.111-117.442-71.672c0.07-0.797,0.113-1.601,0.113-2.415  c0-15.115-12.296-27.411-27.411-27.411c-15.115,0-27.411,12.296-27.411,27.411S220.94,92.9,236.054,92.9  c8.787,0,16.615-4.161,21.635-10.61c39.869,7.554,68.015,25.369,84.737,39.162c7.949,6.557,14.127,12.836,18.616,17.902  L7.689,135.406c-2.067-0.031-3.988,0.769-5.431,2.197C0.813,139.031,0,140.978,0,143.01v45.953c0,4.199,3.405,7.604,7.604,7.604  s7.604-3.405,7.604-7.604v-38.264l298.803,3.339v205.033H15.208v-31.533c0-4.199-3.405-7.604-7.604-7.604S0,323.338,0,327.538  v39.137v44.073c0,4.199,3.405,7.604,7.604,7.604h43.9c-0.162,1.645-0.248,3.31-0.248,4.997c0,27.886,22.687,50.574,50.574,50.574  s50.574-22.687,50.574-50.574c0-1.686-0.087-3.353-0.248-4.997h182.154c-0.162,1.645-0.248,3.31-0.248,4.997  c0,27.886,22.687,50.574,50.574,50.574c27.887,0,50.574-22.687,50.574-50.574c0-1.686-0.087-3.353-0.248-4.997h69.433  c4.2,0,7.604-3.405,7.604-7.604v-44.073C512,362.475,508.596,359.071,504.396,359.071z M236.054,77.692  c-6.729,0-12.203-5.474-12.203-12.204c0-6.729,5.474-12.203,12.203-12.203s12.204,5.474,12.204,12.203  C248.257,72.217,242.783,77.692,236.054,77.692z M477.08,295.092h-24.191c-4.752,0-8.618-3.866-8.618-8.618s3.866-8.618,8.618-8.618  h24.191V295.092z M422.444,225.753H355.87v-71.248l40.83,0.456L422.444,225.753z M340.663,154.336v71.417h-11.443v-71.545  L340.663,154.336z M329.219,240.961h11.443v76.675c0,4.199,3.404,7.604,7.604,7.604s7.604-3.405,7.604-7.604v-76.675h76.195  l30.888,21.688h-10.065c-13.138,0-23.826,10.688-23.826,23.826s10.688,23.826,23.826,23.826h24.191v48.771H329.219V240.961z   M15.208,403.143v-28.865h74.387c-15.32,3.821-27.892,14.646-34.114,28.865H15.208z M101.83,458.714  c-19.501,0-35.367-15.865-35.367-35.367c0-19.502,15.865-35.367,35.367-35.367s35.367,15.865,35.367,35.367  C137.197,442.849,121.331,458.714,101.83,458.714z M148.18,403.143c-6.222-14.218-18.794-25.042-34.114-28.865H372.4  c-15.32,3.821-27.892,14.646-34.114,28.865H148.18z M384.635,458.714c-19.501,0-35.367-15.865-35.367-35.367  c0-19.502,15.865-35.367,35.367-35.367c19.502,0,35.367,15.865,35.367,35.367C420.001,442.849,404.136,458.714,384.635,458.714z   M496.792,403.143h-65.808c-6.222-14.218-18.794-25.042-34.114-28.865h87.814h12.109V403.143z"/>
<path d="M384.635,399.769c-13.002,0-23.579,10.578-23.579,23.578c0,13.001,10.578,23.579,23.579,23.579s23.579-10.578,23.579-23.579  C408.214,410.346,397.637,399.769,384.635,399.769z M384.635,431.719c-4.616,0-8.371-3.755-8.371-8.371s3.755-8.37,8.371-8.37  s8.371,3.755,8.371,8.37C393.006,427.963,389.251,431.719,384.635,431.719z"/>
<path d="M101.83,399.769c-13.002,0-23.579,10.578-23.579,23.578c0,13.001,10.578,23.579,23.579,23.579s23.579-10.578,23.579-23.579  C125.41,410.346,114.831,399.769,101.83,399.769z M101.83,431.719c-4.616,0-8.371-3.755-8.371-8.371s3.755-8.37,8.371-8.37  s8.371,3.755,8.371,8.37C110.202,427.963,106.445,431.719,101.83,431.719z"/>
<path d="M119.723,230.572c4.199,0,7.604-3.405,7.604-7.604c0-4.199-3.405-7.604-7.604-7.604H89.378  c-4.199,0-7.604,3.405-7.604,7.604v77.005c0,4.199,3.405,7.604,7.604,7.604c4.199,0,7.604-3.405,7.604-7.604v-35.772h16.661  c4.199,0,7.604-3.405,7.604-7.604c0-4.199-3.405-7.604-7.604-7.604H96.982v-18.421H119.723z"/>
<path d="M180.67,244.741c0-16.198-13.178-29.376-29.377-29.376h-9.676c-0.475,0-0.939,0.05-1.391,0.133  c-0.451-0.083-0.914-0.133-1.391-0.133c-4.199,0-7.604,3.405-7.604,7.604v77.005c0,4.199,3.405,7.604,7.604,7.604  c4.199,0,7.604-3.405,7.604-7.604v-25.857h4.853c0.561,0,1.116-0.019,1.67-0.051l17.508,29.762c1.417,2.409,3.955,3.749,6.561,3.749  c1.31,0,2.638-0.339,3.849-1.051c3.619-2.129,4.828-6.79,2.699-10.409l-15.891-27.013  C175.515,263.821,180.67,254.872,180.67,244.741z M146.44,230.572h4.853c7.813,0,14.169,6.356,14.169,14.168  c0,7.812-6.356,14.169-14.169,14.169h-4.853V230.572z"/>
<path d="M228.591,230.572c4.199,0,7.604-3.405,7.604-7.604c0-4.199-3.405-7.604-7.604-7.604h-26.62  c-4.199,0-7.604,3.405-7.604,7.604v77.005c0,4.199,3.405,7.604,7.604,7.604h26.62c4.199,0,7.604-3.405,7.604-7.604  c0-4.199-3.405-7.604-7.604-7.604h-19.016v-23.294h13.682c4.199,0,7.604-3.405,7.604-7.604c0-4.199-3.405-7.604-7.604-7.604h-13.682  v-23.294H228.591z"/>
<path d="M277.766,230.572c4.2,0,7.604-3.405,7.604-7.604c0-4.199-3.404-7.604-7.604-7.604h-26.62c-4.199,0-7.604,3.405-7.604,7.604  v77.005c0,4.199,3.405,7.604,7.604,7.604h26.62c4.2,0,7.604-3.405,7.604-7.604c0-4.199-3.404-7.604-7.604-7.604H258.75v-23.294  h13.681c4.2,0,7.604-3.405,7.604-7.604c0-4.199-3.404-7.604-7.604-7.604H258.75v-23.294H277.766z"/>
<path d="M45.529,218.441H17.743c-4.199,0-7.604,3.405-7.604,7.604c0,4.199,3.405,7.604,7.604,7.604h27.787  c4.199,0,7.604-3.405,7.604-7.604C53.133,221.846,49.729,218.441,45.529,218.441z"/>
<path d="M45.529,286.657H17.743c-4.199,0-7.604,3.405-7.604,7.604c0,4.199,3.405,7.604,7.604,7.604h27.787  c4.199,0,7.604-3.405,7.604-7.604C53.133,290.061,49.729,286.657,45.529,286.657z"/>
<path d="M0,261.47c0,4.199,3.405,7.604,7.604,7.604h27.787c4.199,0,7.604-3.405,7.604-7.604c0-4.199-3.405-7.604-7.604-7.604H7.604  C3.405,253.866,0,257.271,0,261.47z"/>
<g>
</g>
<g>
</g>
<g>
</g>
<g>
</g>
<g>
</g>
<g>
</g>
<g>
</g>
<g>
</g>
<g>
</g>
<g>
</g>
<g>
</g>
<g>
</g>
<g>
</g>
<g>
</g>
<g>
</g>
</svg>
