<?xml version="1.0" encoding="iso-8859-1"?>
<!-- Generator: Adobe Illustrator 19.0.0, SVG Export Plug-In . SVG Version: 6.00 Build 0)  -->
<svg xmlns="http://www.w3.org/2000/svg" xmlns:xlink="http://www.w3.org/1999/xlink" version="1.1" id="Layer_1" x="0px" y="0px" viewBox="0 0 512 512" style="enable-background:new 0 0 512 512;" xml:space="preserve">
<path style="fill:#4AA9E7;" d="M124.438,211.133l1.215-13.249l260.991,0.141l24.418,269.551  c1.78,19.654-13.702,36.593-33.437,36.583l-243.284-0.132c-19.734-0.01-35.199-16.967-33.398-36.62l20.499-223.591L124.438,211.133z  "/>
<path style="opacity:0.18;fill:#3D689C;enable-background:new    ;" d="M410.458,467.578l-24.418-269.551l-36.738-0.02  l20.761,229.176c1.78,19.654-13.702,36.593-33.438,36.583l-235.941-0.128l-0.346,3.771c-1.802,19.653,13.663,36.609,33.398,36.62  l243.284,0.132C396.755,504.171,412.239,487.232,410.458,467.578z"/>
<path d="M418.869,466.87l-24.418-269.551c-0.367-4.037-3.749-7.13-7.804-7.132l-26.048-0.015L290.355,22.604  C284.508,8.657,271.491,0,256.374,0c-0.017,0-0.033,0-0.05,0c-15.138,0.02-28.157,8.713-33.973,22.689L152.683,190.06l-27.026-0.015  c-0.001,0-0.003,0-0.004,0c-4.052,0-7.436,3.088-7.807,7.123l-1.215,13.249c-0.395,4.312,2.779,8.127,7.091,8.522  c4.296,0.39,8.127-2.779,8.522-7.091l0.561-6.12l25.065,0.014c0.011,0,0.024,0.002,0.036,0.002c0.007,0,0.016-0.002,0.023-0.002  l221.551,0.12l23.772,262.423c0.661,7.284-1.694,14.269-6.629,19.669c-4.933,5.396-11.673,8.367-18.983,8.367  c-0.005,0-0.009,0-0.015,0l-243.283-0.132c-7.315-0.004-14.059-2.983-18.988-8.387c-4.928-5.405-7.275-12.393-6.607-19.677  l20.499-223.59c0.395-4.312-2.779-8.127-7.091-8.522c-4.302-0.402-8.127,2.778-8.522,7.091L93.136,466.693  c-1.06,11.555,2.817,23.1,10.637,31.673c7.82,8.573,18.96,13.495,30.564,13.502L377.62,512c0.007,0,0.015,0,0.022,0  c11.597,0,22.733-4.909,30.557-13.469C416.027,489.966,419.915,478.426,418.869,466.87z M236.825,28.714  c3.995-9.598,12.702-13.026,19.518-13.035c0.009,0,0.018,0,0.026,0c6.813,0,15.512,3.411,19.525,12.986l67.7,161.499l-173.934-0.094  L236.825,28.714z"/>
<path d="M288.462,308.15h-7.787c-2.747,0-5.298,0.853-7.405,2.308c-5.977-3.067-12.763-4.706-19.751-4.706  c-24.193,0-42.438,18.391-42.438,42.78c0,24.488,18.244,42.955,42.438,42.955c9.033,0,17.704-2.8,24.808-7.869  c4.587,4.112,11.434,7.355,21.623,7.355c22.373,0,36.271-17.248,36.271-45.012c0-43.3-35.199-77.218-80.132-77.218  c-45.413,0-80.988,34.597-80.988,78.762s35.498,78.762,80.815,78.762c15.339,0,30.266-4.188,43.17-12.111  c3.689-2.266,4.844-7.093,2.579-10.783c-2.266-3.689-7.095-4.841-10.783-2.579c-10.433,6.407-22.524,9.794-34.965,9.794  c-36.524,0-65.136-27.71-65.136-63.083s28.687-63.083,65.309-63.083c36.142,0,64.454,27.031,64.454,61.539  c0,10.242-2.337,26.975-17.288,29.107c-3.512-2.973-6.953-11.408-6.953-20.881v-38.199  C296.301,311.659,292.791,308.15,288.462,308.15z M280.212,364.502c-2.54-0.301-5.073,0.66-6.775,2.572  c-4.942,5.55-12.202,8.733-19.919,8.733c-15.505,0-26.76-11.472-26.76-27.276c0-15.703,11.254-27.101,26.76-27.101  c6.446,0,12.313,2.018,16.968,5.837c2.345,1.923,5.587,2.323,8.324,1.024c0.667-0.315,1.274-0.717,1.811-1.187v27.083  c0,3.406,0.344,7.028,1.049,10.629C281.2,364.667,280.713,364.56,280.212,364.502z"/>
<path d="M255.66,326.902c-11.36,0-20.603,9.243-20.603,20.603s9.243,20.603,20.603,20.603c4.331,0,7.839-3.509,7.839-7.839  c0-3.629-2.466-6.682-5.814-7.575c3.347-0.893,5.814-3.946,5.814-7.575v-10.377C263.5,330.411,259.99,326.902,255.66,326.902z"/>
<path d="M214.666,220.402h-57.642c-4.096,0-7.503,3.155-7.816,7.238l-2.588,33.646c-0.332,4.317,2.897,8.085,7.214,8.417  c0.205,0.017,0.408,0.023,0.609,0.023c4.057,0,7.492-3.126,7.808-7.238l2.031-26.408h50.382c4.331,0,7.839-3.509,7.839-7.839  S218.997,220.402,214.666,220.402z"/>
<g>
</g>
<g>
</g>
<g>
</g>
<g>
</g>
<g>
</g>
<g>
</g>
<g>
</g>
<g>
</g>
<g>
</g>
<g>
</g>
<g>
</g>
<g>
</g>
<g>
</g>
<g>
</g>
<g>
</g>
</svg>
