<?xml version="1.0" encoding="iso-8859-1"?>
<!-- Generator: Adobe Illustrator 19.0.0, SVG Export Plug-In . SVG Version: 6.00 Build 0)  -->
<svg xmlns="http://www.w3.org/2000/svg" xmlns:xlink="http://www.w3.org/1999/xlink" version="1.1" id="Layer_1" x="0px" y="0px" viewBox="0 0 512 512" style="enable-background:new 0 0 512 512;" xml:space="preserve">
<rect x="108.625" y="298.673" style="fill:#FFA591;" width="126.886" height="204.722"/>
<rect x="108.625" y="298.673" style="opacity:0.63;fill:#FF8E76;enable-background:new    ;" width="126.886" height="204.722"/>
<path style="fill:#FFA591;" d="M237.523,503.588h-21.936l-25.47,0.376H54.206c-25.704,0-46.542-20.838-46.542-46.542v-36.412  v-34.197v-48.87l45.996-65.86l27.737-41.785l35.132-52.926c7.784-11.727,23.747-14.952,35.474-7.168l0,0  c11.727,7.784,14.952,23.747,7.168,35.474l-35.132,52.926c0,0,38.652,37.74,4.036,89.889  C128.076,348.49,102.228,503.588,237.523,503.588"/>
<path style="fill:#FF8E76;" d="M271.476,349.855h-76.858c-14.075,0-25.591-11.516-25.591-25.591l0,0  c0-14.075,11.516-25.591,25.591-25.591h56.372l34.995,0.188c14.075,0,25.591,11.516,25.591,25.591l0,0  c0,14.075-11.516,25.591-25.591,25.591h-76.858L271.476,349.855z"/>
<path style="fill:#FFA591;" d="M272.64,349.855h-78.022c-14.075,0-25.591,11.516-25.591,25.591l0,0  c0,14.075,11.516,25.591,25.591,25.591h76.923l-62.477,0.188h76.923c14.075,0,25.591-11.516,25.591-25.591l0,0  c0-14.075-11.516-25.591-25.591-25.591h-78.022"/>
<path style="fill:#FF8E76;" d="M257.462,452.218h-50.68c-14.075,0-25.591-11.516-25.591-25.591l0,0  c0-14.075,11.516-25.591,25.591-25.591h21.936l20.454,0.188h21.936c14.075,0,25.591,11.516,25.591,25.591l0,0  c0,14.075-11.516,25.591-25.591,25.591h-50.68L257.462,452.218z"/>
<path style="fill:#FFA591;" d="M220.833,452.218h21.936c14.075,0,25.591,11.516,25.591,25.591l0,0  c0,14.075-11.516,25.591-25.591,25.591h-21.936h14.684h-21.936c-14.075,0-25.591-11.516-25.591-25.591l0,0  c0-14.075,11.516-25.591,25.591-25.591h21.936H220.833z"/>
<path style="fill:#FFDC5E;" d="M409.078,200.622h85.709c5.252,0,9.55-4.297,9.55-9.55V17.586c0-5.252-4.298-9.55-9.55-9.55H210.972  c-5.252,0-9.55,4.298-9.55,9.55v173.486c0,5.252,4.298,9.55,9.55,9.55h44.446v61.703l61.702-61.703h58.112h33.846V200.622z"/>
<g style="opacity:0.36;">
	<path style="fill:#E5BD2B;" d="M495.886,8.036h-26.591v146.893c0,5.252-4.298,9.55-9.55,9.55h-85.709H340.19h-58.112   l-36.142,36.142h10.58v61.703l61.702-61.703h58.112h33.845h85.709c5.252,0,9.55-4.297,9.55-9.55V17.586   C505.436,12.334,501.138,8.036,495.886,8.036z"/>
</g>
<g>
	<polygon style="fill:#E5BD2B;" points="268.861,68.591 279.761,87.918 301.51,92.312 286.498,108.651 289.039,130.693    268.861,121.464 248.683,130.693 251.225,108.651 236.212,92.312 257.962,87.918  "/>
	<polygon style="fill:#E5BD2B;" points="352.88,68.591 363.779,87.918 385.528,92.312 370.515,108.651 373.058,130.693    352.88,121.464 332.702,130.693 335.243,108.651 320.231,92.312 341.979,87.918  "/>
	<polygon style="fill:#E5BD2B;" points="438.266,68.591 449.165,87.918 470.914,92.312 455.902,108.651 458.444,130.693    438.266,121.464 418.088,130.693 420.629,108.651 405.617,92.312 427.366,87.918  "/>
</g>
<path d="M319.24,324.452c0-18.337-14.918-33.255-33.255-33.255c-4.234,0-7.664,3.43-7.664,7.664s3.43,7.664,7.664,7.664  c9.885,0,17.927,8.042,17.927,17.927c0,9.885-8.042,17.927-17.927,17.927h-11.673c-0.54-0.121-1.098-0.189-1.673-0.189h-1.164  h-76.858c-9.885,0-17.927-8.042-17.927-17.927c0-9.885,8.042-17.927,17.927-17.927h12.313h44.06c4.234,0,7.664-3.43,7.664-7.664  c0-4.234-3.43-7.664-7.664-7.664h-44.06h-12.312h-45.834c-0.66-3.421-1.518-6.584-2.477-9.45  c-3.583-10.71-8.943-18.796-12.668-23.56l31.918-48.085c4.897-7.377,6.622-16.245,4.859-24.973s-6.798-16.229-14.175-21.126  c-15.279-10.14-35.957-5.962-46.097,9.315l-62.819,94.636L1.382,333.551C0.482,334.84,0,336.371,0,337.941v48.87  c0,4.234,3.43,7.664,7.664,7.664s7.664-3.43,7.664-7.664v-46.46l44.614-63.882c0.035-0.049,0.068-0.099,0.103-0.149l62.869-94.713  c2.632-3.966,6.677-6.674,11.39-7.626c4.712-0.953,9.492-0.027,13.459,2.606c3.966,2.632,6.675,6.678,7.627,11.391  c0.953,4.713,0.027,9.492-2.606,13.459l-35.132,52.926c-2.036,3.068-1.602,7.149,1.032,9.722c0.083,0.082,8.465,8.527,13.085,22.336  c6.294,18.816,2.902,38.273-10.08,57.831c-2.34,3.525-1.38,8.282,2.148,10.623c3.524,2.34,8.282,1.381,10.623-2.148  c11.403-17.18,15.371-32.986,15.635-46.391h16.536c-3.328,5.178-5.268,11.327-5.268,17.927c0,10.281,4.691,19.486,12.044,25.591  c-7.352,6.105-12.044,15.31-12.044,25.592c0,13.458,8.041,25.067,19.567,30.294c-4.625,5.713-7.403,12.98-7.403,20.886  c0,11.983,6.372,22.503,15.904,28.357c-5.637,5.961-9.104,13.993-9.104,22.825c0,6.838,2.076,13.2,5.63,18.491H54.206  c-21.438,0.002-38.878-17.439-38.878-38.876v-36.412c0-4.234-3.43-7.664-7.664-7.664S0,416.776,0,421.009v36.412  c0,29.89,24.317,54.206,54.206,54.206h135.912c0.038,0,0.076,0,0.112-0.001l25.412-0.375h21.88  c18.337,0,33.255-14.918,33.255-33.255c0-6.599-1.94-12.749-5.268-17.927h5.595c18.336,0,33.255-14.918,33.255-33.255  c0-7.518-2.511-14.458-6.733-20.035c12.611-4.729,21.613-16.905,21.613-31.147c0-10.281-4.691-19.486-12.044-25.591  C314.549,343.938,319.24,334.733,319.24,324.452z M255.45,477.997c0,9.885-8.042,17.927-17.927,17.927h-0.337  c-0.538-0.12-1.095-0.188-1.669-0.188h-21.936c-9.885,0-17.927-8.042-17.927-17.927c0-9.885,8.042-17.927,17.927-17.927h0.337  c0.538,0.12,1.095,0.188,1.669,0.188h4.837h17.098C247.408,460.07,255.45,468.113,255.45,477.997z M271.106,444.742h-11.975  c-0.538-0.12-1.095-0.188-1.669-0.188h-21.944h-21.936h-6.801c-9.885,0-17.927-8.042-17.927-17.927  c0-9.885,8.042-17.927,17.927-17.927h0.612c0.538,0.12,1.095,0.188,1.669,0.188h40.108h21.936c9.885,0,17.927,8.042,17.927,17.927  C289.033,436.7,280.991,444.742,271.106,444.742z M303.912,375.634c0,9.885-8.042,17.927-17.927,17.927h-12.776  c-0.538-0.12-1.095-0.188-1.669-0.188h-42.823h-21.936h-12.163c-9.885,0-17.927-8.042-17.927-17.928  c0-9.885,8.042-17.927,17.927-17.927h11.673c0.54,0.121,1.098,0.189,1.673,0.189h1.164h76.858  C295.869,357.707,303.912,365.749,303.912,375.634z"/>
<path d="M494.786,0.372H210.972c-9.492,0-17.215,7.722-17.215,17.214v173.485c0,9.492,7.722,17.214,17.215,17.214h36.782v54.038  c0,3.099,1.867,5.895,4.731,7.081c0.948,0.393,1.944,0.584,2.931,0.584c1.995,0,3.955-0.779,5.422-2.244l59.457-59.458h54.937  c4.234,0,7.664-3.43,7.664-7.664c0-4.234-3.43-7.664-7.664-7.664H317.12c-2.033,0-3.981,0.807-5.42,2.244l-48.618,48.619v-43.199  c0-4.234-3.43-7.664-7.664-7.664h-44.446c-1.022,0-1.886-0.865-1.886-1.886V17.586c0-1.023,0.865-1.886,1.886-1.886h283.814  c1.022,0,1.885,0.863,1.885,1.886v173.485c0,1.022-0.863,1.886-1.885,1.886h-85.71c-4.234,0-7.664,3.43-7.664,7.664  c0,4.234,3.43,7.664,7.664,7.664h85.71c9.491,0,17.213-7.722,17.213-17.214V17.586C512,8.094,504.278,0.372,494.786,0.372z"/>
<path d="M308.798,89.944c-0.854-2.63-3.059-4.596-5.771-5.144l-18.313-3.699l-9.178-16.274c-1.358-2.409-3.91-3.898-6.675-3.898  c-2.766,0-5.317,1.49-6.676,3.898l-9.176,16.274L234.696,84.8c-2.71,0.548-4.917,2.514-5.771,5.144  c-0.855,2.63-0.226,5.517,1.645,7.554l12.641,13.757l-2.14,18.559c-0.318,2.748,0.872,5.453,3.109,7.079  c1.333,0.968,2.913,1.464,4.505,1.464c1.082,0,2.169-0.229,3.186-0.695l16.99-7.77l16.991,7.77c2.517,1.152,5.456,0.856,7.692-0.769  c2.237-1.626,3.426-4.331,3.109-7.079l-2.14-18.559l12.641-13.757C309.024,95.461,309.654,92.575,308.798,89.944z M280.854,103.465  c-1.506,1.639-2.226,3.852-1.97,6.064l0.985,8.542l-7.82-3.577c-1.012-0.463-2.1-0.695-3.187-0.695  c-1.087,0-2.176,0.232-3.187,0.695l-7.819,3.577l0.985-8.542c0.255-2.211-0.464-4.425-1.97-6.064l-5.818-6.332l8.428-1.702  c2.182-0.441,4.065-1.809,5.158-3.747l4.223-7.49l4.225,7.49c1.092,1.938,2.976,3.306,5.157,3.747l8.428,1.702L280.854,103.465z"/>
<path d="M387.046,84.799L368.733,81.1l-9.178-16.274c-1.358-2.409-3.91-3.898-6.675-3.898c-2.766,0-5.317,1.49-6.676,3.898  L337.027,81.1l-18.313,3.699c-2.711,0.548-4.917,2.514-5.771,5.144c-0.855,2.63-0.226,5.517,1.645,7.554l12.641,13.757l-2.14,18.559  c-0.318,2.748,0.872,5.453,3.109,7.079c1.332,0.968,2.913,1.464,4.505,1.464c1.082,0,2.169-0.229,3.186-0.695l16.99-7.77  l16.991,7.77c2.516,1.152,5.455,0.856,7.692-0.769c2.237-1.626,3.426-4.331,3.109-7.079l-2.14-18.559l12.641-13.757  c1.871-2.036,2.501-4.922,1.645-7.554C391.962,87.313,389.756,85.348,387.046,84.799z M364.873,103.465  c-1.506,1.639-2.226,3.852-1.97,6.064l0.985,8.542l-7.82-3.577c-1.012-0.463-2.1-0.695-3.187-0.695  c-1.087,0-2.176,0.232-3.187,0.695l-7.819,3.577l0.985-8.542c0.255-2.211-0.464-4.425-1.97-6.064l-5.818-6.332l8.428-1.702  c2.182-0.441,4.065-1.809,5.158-3.747l4.223-7.49l4.225,7.49c1.092,1.938,2.976,3.306,5.157,3.747l8.428,1.702L364.873,103.465z"/>
<path d="M410.475,129.814c-0.318,2.747,0.872,5.453,3.109,7.079c2.236,1.625,5.177,1.921,7.692,0.769l16.991-7.77l16.991,7.77  c1.018,0.466,2.105,0.695,3.186,0.695c1.593,0,3.173-0.496,4.505-1.464c2.237-1.626,3.426-4.331,3.109-7.079l-2.14-18.559  l12.641-13.757c1.871-2.036,2.501-4.922,1.645-7.554c-0.854-2.63-3.06-4.596-5.771-5.144L454.119,81.1l-9.178-16.274  c-1.358-2.409-3.91-3.898-6.675-3.898c-2.766,0-5.317,1.49-6.676,3.898L422.413,81.1L404.1,84.799  c-2.71,0.548-4.917,2.514-5.771,5.144c-0.855,2.63-0.226,5.516,1.645,7.554l12.64,13.757L410.475,129.814z M428.884,95.431  c2.182-0.441,4.065-1.809,5.158-3.747l4.223-7.49l4.225,7.49c1.092,1.938,2.976,3.306,5.157,3.747l8.428,1.702l-5.818,6.332  c-1.506,1.639-2.226,3.852-1.97,6.064l0.985,8.542l-7.82-3.577c-1.012-0.463-2.1-0.695-3.187-0.695  c-1.087,0-2.176,0.232-3.187,0.695l-7.82,3.577l0.985-8.542c0.255-2.211-0.464-4.425-1.97-6.064l-5.816-6.332L428.884,95.431z"/>
<g>
</g>
<g>
</g>
<g>
</g>
<g>
</g>
<g>
</g>
<g>
</g>
<g>
</g>
<g>
</g>
<g>
</g>
<g>
</g>
<g>
</g>
<g>
</g>
<g>
</g>
<g>
</g>
<g>
</g>
</svg>
