<?xml version="1.0" encoding="iso-8859-1"?>
<!-- Generator: Adobe Illustrator 19.0.0, SVG Export Plug-In . SVG Version: 6.00 Build 0)  -->
<svg xmlns="http://www.w3.org/2000/svg" xmlns:xlink="http://www.w3.org/1999/xlink" version="1.1" id="Layer_1" x="0px" y="0px" viewBox="0 0 512 512" style="enable-background:new 0 0 512 512;" xml:space="preserve">
<g>
	<path style="fill:#CD3B1C;" d="M254.694,127.332l157.029-81.411c24.223-12.558,54.336-6.324,70.703,15.507   c4.488,5.986,7.952,12.779,10.128,20.112c0,0,21.066-66.475-53.216-72.934l-24.31,6.492L254.694,127.332z"/>
	<path style="fill:#CD3B1C;" d="M257.305,127.332L100.276,45.921c-24.223-12.558-54.336-6.324-70.703,15.507   c-4.488,5.986-7.952,12.779-10.128,20.112c0,0-10.937-69.145,53.216-72.919c0,0,21.609-1.073,42.543,14.46   S257.305,127.332,257.305,127.332"/>
</g>
<g>
	<path style="fill:#6EAC34;" d="M135.28,153.629h271.085c21.717,0,41.531,19.814,41.531,44.031v35.506   c0,9.826-8.04,17.866-17.866,17.866H79.359c-9.826,0-17.866-8.04-17.866-17.866V197.66c0-24.217,19.814-44.031,44.031-44.031   H135.28z"/>
	<path style="fill:#6EAC34;" d="M105.205,504.403c-22.94,0-41.709-18.77-41.709-41.709V296.245c0-7.366,6.027-13.394,13.394-13.394   h46.507h24.136h263.255h23.717c7.366,0,13.394,6.027,13.394,13.394v166.449c0,22.94-18.77,41.709-41.709,41.709H130.384H105.205z"/>
</g>
<g>
	<rect x="105.648" y="153.631" style="fill:#C6E0A9;" width="59.388" height="97.403"/>
	<rect x="226.48" y="153.631" style="fill:#C6E0A9;" width="59.388" height="97.403"/>
	<rect x="345.013" y="153.631" style="fill:#C6E0A9;" width="59.388" height="97.403"/>
	<polygon style="fill:#C6E0A9;" points="105.649,504.403 105.649,283.048 165.038,283.048 165.038,503.879  "/>
	<rect x="226.48" y="283.052" style="fill:#C6E0A9;" width="59.388" height="221.355"/>
	<rect x="340.262" y="283.052" style="fill:#C6E0A9;" width="59.388" height="221.355"/>
</g>
<polygon style="fill:#548229;" points="394.248,282.851 85.096,282.851 85.096,251.032 426.126,251.032 426.126,283.048 "/>
<g>
	<path style="opacity:0.31;fill:#406646;enable-background:new    ;" d="M435.225,282.851h-14.564v151.885   c0,22.94-18.77,41.709-41.709,41.709H103.15H77.971c-4.16,0-8.18-0.625-11.98-1.773c5.18,17.148,21.157,29.729,39.937,29.729   h25.179H406.91c22.94,0,41.709-18.77,41.709-41.709V296.245C448.619,288.878,442.592,282.851,435.225,282.851z"/>
	<path style="opacity:0.31;fill:#406646;enable-background:new    ;" d="M424.915,158.074c3.324,6.239,5.26,13.377,5.26,20.946   v35.506c0,9.826-8.04,17.866-17.866,17.866H62.409v0.772c0,9.826,8.04,17.866,17.866,17.866h350.671   c9.826,0,17.866-8.04,17.866-17.866v-35.506C448.813,180.321,438.654,165.243,424.915,158.074z"/>
</g>
<path d="M502.722,61.063c-0.805-23.603-14.055-43.951-35.445-54.428c-21.514-10.537-46.892-8.406-66.226,5.565  c-3.4,2.458-4.165,7.206-1.709,10.607c2.458,3.4,7.206,4.165,10.607,1.709c14.998-10.838,33.93-12.424,50.644-4.236  c14.138,6.926,23.591,19.507,26.22,34.436c-8.892-10.82-21.288-18.366-35.189-21.364c-14.649-3.16-30.06-1.091-43.397,5.823  l-65.714,34.069l44.825-32.391c3.4-2.457,4.165-7.206,1.709-10.607c-2.459-3.401-7.207-4.166-10.607-1.709L256,117.015  L110.95,12.201C91.615-1.771,66.238-3.905,44.723,6.636C23.333,17.113,10.083,37.46,9.278,61.063  c-0.027,0.811-0.042,1.626-0.042,2.444c0,39.382,32.039,71.421,71.42,71.421c4.196,0,7.597-3.4,7.597-7.597  c0-4.197-3.401-7.597-7.597-7.597c-24.693,0-45.703-16.007-53.24-38.184c1.9-5.573,4.661-10.802,8.233-15.565  c14.082-18.78,39.791-24.381,61.128-13.32l129.368,67.07H119.373c-4.196,0-7.597,3.4-7.597,7.597s3.401,7.597,7.597,7.597h135.299  c0.01,0,0.019,0.002,0.029,0.002c0.011,0,0.022-0.002,0.033-0.002h2.531c0.011,0,0.022,0.002,0.033,0.002  c0.01,0,0.019-0.002,0.029-0.002h174.013c39.382,0,71.421-32.04,71.421-71.421C502.763,62.69,502.748,61.875,502.722,61.063z   M60.377,33.354c-13.903,2.998-26.299,10.546-35.191,21.366c2.629-14.931,12.08-27.512,26.221-34.44  c16.713-8.185,35.645-6.604,50.645,4.236l67.437,48.731l-65.716-34.07C90.434,32.262,75.022,30.192,60.377,33.354z M431.342,119.735  H285.853l129.367-67.07c21.336-11.063,47.046-5.462,61.129,13.32c3.572,4.764,6.333,9.993,8.233,15.566  C477.046,103.728,456.035,119.735,431.342,119.735z"/>
<path d="M406.365,146.032h-1.961h-59.389h-59.151h-59.39h-91.195c-4.196,0-7.597,3.4-7.597,7.597s3.401,7.597,7.597,7.597h22.161  v82.209h-44.195v-89.806c0-4.197-3.401-7.597-7.597-7.597c-0.021,0-0.042,0.003-0.063,0.003s-0.042-0.003-0.063-0.003  c-28.467,0-51.628,23.16-51.628,51.628v35.507c0,13.414,10.429,24.431,23.603,25.387v16.7h-0.611  c-11.575,0-20.991,9.416-20.991,20.991v166.448c0,27.188,22.118,49.307,49.306,49.307c4.196,0,7.597-3.4,7.597-7.597  s-3.401-7.597-7.597-7.597c-18.81,0-34.112-15.302-34.112-34.113V296.245c0-3.196,2.6-5.797,5.797-5.797h8.208h12.956V466.09  c0,4.197,3.401,7.597,7.597,7.597s7.597-3.4,7.597-7.597V290.645h44.195v206.16h-27.056c-4.196,0-7.597,3.4-7.597,7.597  s3.401,7.597,7.597,7.597h96.091h59.39h54.393h59.39h6.538c27.188,0,49.306-22.119,49.306-49.307V296.245  c0-11.575-9.416-20.991-20.991-20.991c-4.197,0-7.597,3.4-7.597,7.597s3.4,7.597,7.597,7.597c3.196,0,5.797,2.6,5.797,5.797v166.448  c0,18.456-14.733,33.524-33.054,34.086V290.448h3.54c4.197,0,7.597-3.4,7.597-7.597s-3.4-7.597-7.597-7.597h-16.537H92.693v-16.625  h12.955h59.389h61.437h59.39h59.151h59.389h14.124v11.089c0,4.197,3.4,7.597,7.597,7.597s7.597-3.4,7.597-7.597v-11.36  c12.296-1.794,21.77-12.405,21.77-25.191v-35.507C455.493,169.674,432.995,146.032,406.365,146.032z M172.635,290.448h46.243  v206.358h-46.243V290.448z M234.072,496.806V290.645h44.196v206.16L234.072,496.806L234.072,496.806z M293.462,290.448h39.199  v206.358h-39.199V290.448z M347.855,496.806V290.645h44.196v206.16L347.855,496.806L347.855,496.806z M85.096,243.435h-5.737  c-5.662,0-10.269-4.607-10.269-10.269v-35.507c0-17.529,12.445-32.204,28.963-35.66v81.435H85.096V243.435z M337.418,161.226v82.209  h-43.957v-82.209H337.418z M172.635,161.226h46.243v82.209h-46.243V161.226z M234.072,243.435v-82.209h44.196v82.209H234.072z   M352.612,243.435v-82.209h44.195v82.209H352.612z M440.299,233.166c0,5.662-4.607,10.269-10.269,10.269h-3.904h-14.124v-81.646  c15.612,3.071,28.298,18.512,28.298,35.871v35.506H440.299z"/>
<g>
</g>
<g>
</g>
<g>
</g>
<g>
</g>
<g>
</g>
<g>
</g>
<g>
</g>
<g>
</g>
<g>
</g>
<g>
</g>
<g>
</g>
<g>
</g>
<g>
</g>
<g>
</g>
<g>
</g>
</svg>
