<?xml version="1.0" encoding="iso-8859-1"?>
<!-- Generator: Adobe Illustrator 19.0.0, SVG Export Plug-In . SVG Version: 6.00 Build 0)  -->
<svg xmlns="http://www.w3.org/2000/svg" xmlns:xlink="http://www.w3.org/1999/xlink" version="1.1" id="Layer_1" x="0px" y="0px" viewBox="0 0 512.001 512.001" style="enable-background:new 0 0 512.001 512.001;" xml:space="preserve">
<path style="fill:#E0E0E2;" d="M115.197,224.231c40.017-23.052,88.524-41.675,140.804-41.675  c137.178,0,248.381,128.221,248.381,128.221S393.179,438.997,256.001,438.997S7.62,310.777,7.62,310.777s27.031-31.167,70.88-62.771  L115.197,224.231z"/>
<path style="fill:#4AA9E7;" d="M156.192,233.991c21.675-30.875,59.169-49.136,99.809-49.136  c69.545,0,125.922,56.377,125.922,125.922s-56.377,125.922-125.922,125.922s-125.922-56.377-125.922-125.922  c0-17.986,3.771-35.092,10.566-50.569C140.645,260.207,142.112,254.049,156.192,233.991z"/>
<g>
	<path style="opacity:0.13;fill:#3D689C;enable-background:new    ;" d="M324.496,207.033   c12.805,19.715,20.248,43.235,20.248,68.494c0,69.545-56.377,125.922-125.922,125.922c-25.26,0-48.78-7.443-68.494-20.249   c22.449,34.564,61.389,57.428,105.674,57.428c69.545,0,125.922-56.377,125.922-125.922   C381.924,268.422,359.06,229.482,324.496,207.033z"/>
	<path style="fill:#3D689C;" d="M256.001,240.636c38.646,2.669,70.141,31.403,70.141,70.141s-31.403,70.141-70.141,70.141   s-70.141-31.403-70.141-70.141c0-22.365,10.467-42.285,26.77-55.129c4.743-3.737,9.98-6.875,15.597-9.299   C228.228,246.35,246.313,239.967,256.001,240.636z"/>
</g>
<path style="opacity:0.47;fill:#3E448A;enable-background:new    ;" d="M292.914,252.347c6.111,10.103,9.633,21.907,9.633,34.835  c0,38.738-31.403,70.141-70.141,70.141c-13.322,0-25.776-3.714-36.383-10.163c12.304,20.239,34.562,33.758,59.979,33.758  c38.738,0,70.141-31.403,70.141-70.141C326.143,285.602,312.835,264.664,292.914,252.347z"/>
<g>
	<polygon style="fill:#FFDC5E;" points="256.105,73.004 268.777,94.608 293.24,99.984 276.61,118.713 279.056,143.64    256.105,133.611 233.154,143.64 235.6,118.713 218.97,99.984 243.432,94.608  "/>
	<polygon style="fill:#FFDC5E;" points="126.361,94.472 144.095,112.159 169.121,111.162 157.779,133.493 166.462,156.986    141.719,153.1 122.058,168.618 118.108,143.885 97.274,129.982 119.576,118.582  "/>
	<polygon style="fill:#FFDC5E;" points="392.926,94.472 375.193,112.159 350.167,111.162 361.508,133.493 352.826,156.986    377.569,153.1 397.229,168.618 401.18,143.885 422.012,129.982 399.711,118.582  "/>
</g>
<path style="opacity:0.06;fill:#565159;enable-background:new    ;" d="M480.259,288.294  c-39.956,37.193-125.351,103.844-224.257,103.844S71.7,325.487,31.744,288.294C16.282,302.687,7.62,312.671,7.62,312.671  s111.205,128.221,248.382,128.221s248.381-128.221,248.381-128.221S495.72,302.686,480.259,288.294z"/>
<path d="M510.139,305.785c-1.16-1.337-28.914-33.111-74.082-65.321c-41.916-29.894-107.179-65.526-180.056-65.526  c-46.777,0-95.43,14.364-144.606,42.691c-3.647,2.1-4.899,6.758-2.799,10.403c2.101,3.648,6.76,4.899,10.404,2.799  c18.603-10.716,37.088-19.327,55.377-25.822c-8.948,6.939-17.095,15.083-24.22,24.331c-2.567,3.333-1.947,8.116,1.385,10.685  c3.332,2.567,8.116,1.947,10.685-1.385c22.606-29.34,56.785-46.167,93.773-46.167c65.234,0,118.305,53.071,118.305,118.304  c0,65.234-53.071,118.305-118.305,118.305c-65.233,0-118.304-53.071-118.304-118.305c0-16.526,3.339-32.51,9.923-47.508  c1.691-3.853-0.061-8.346-3.914-10.038c-3.851-1.691-8.346,0.061-10.038,3.914c-7.437,16.94-11.208,34.984-11.208,53.632  c0,42.956,20.393,81.235,52.001,105.679c-35.237-12.519-66.053-30.958-89.365-47.554c-33.499-23.849-57.565-47.97-67.143-58.126  c9.374-9.94,32.623-33.255,65-56.591c3.413-2.459,4.186-7.22,1.726-10.634c-2.46-3.414-7.221-4.184-10.634-1.726  c-44.062,31.756-71.054,62.66-72.183,63.959c-2.484,2.863-2.484,7.119,0,9.983c1.16,1.337,28.914,33.111,74.082,65.321  c41.916,29.894,107.179,65.526,180.056,65.526s138.14-35.633,180.056-65.526c45.168-32.211,72.922-63.983,74.082-65.321  C512.622,312.905,512.622,308.649,510.139,305.785z M426.906,368.902c-23.311,16.595-54.128,35.034-89.364,47.554  c31.607-24.444,52.001-62.723,52.001-105.679c0-42.957-20.394-81.235-52.002-105.679c35.238,12.519,66.054,30.959,89.366,47.554  c33.499,23.849,57.565,47.97,67.143,58.126C484.47,320.933,460.405,345.053,426.906,368.902z"/>
<path d="M217.345,261.633c4.263-3.359,8.942-6.147,13.904-8.29c3.863-1.668,5.643-6.151,3.975-10.013  c-1.668-3.864-6.151-5.643-10.013-3.975c-6.174,2.665-11.992,6.134-17.292,10.309c-18.857,14.857-29.674,37.133-29.674,61.113  c0,42.877,34.883,77.76,77.76,77.76c42.877,0,77.76-34.883,77.76-77.76s-34.883-77.76-77.76-77.76c-4.208,0-7.618,3.41-7.618,7.618  c0,4.208,3.41,7.618,7.618,7.618c34.475,0,62.524,28.048,62.524,62.524s-28.048,62.524-62.524,62.524s-62.524-28.048-62.524-62.524  C193.479,291.495,202.177,273.582,217.345,261.633z"/>
<path d="M227.693,121.282l-2.121,21.613c-0.264,2.69,0.916,5.318,3.104,6.907c2.185,1.59,5.05,1.901,7.528,0.818l19.901-8.696  l19.901,8.696c0.978,0.428,2.016,0.638,3.049,0.638c1.585,0,3.155-0.494,4.478-1.456c2.187-1.588,3.367-4.216,3.104-6.907  l-2.121-21.613l14.42-16.239c1.795-2.02,2.384-4.842,1.548-7.412c-0.835-2.571-2.97-4.507-5.609-5.087l-21.211-4.662l-10.988-18.733  c-1.367-2.331-3.868-3.763-6.571-3.763c-2.703,0-5.204,1.432-6.571,3.763l-10.988,18.733l-21.211,4.662  c-2.64,0.58-4.774,2.516-5.609,5.087c-0.835,2.57-0.246,5.392,1.548,7.412L227.693,121.282z M245.068,102.048  c2.073-0.455,3.862-1.756,4.935-3.586l6.103-10.402l6.103,10.402c1.074,1.83,2.861,3.131,4.935,3.586l11.779,2.589l-8.008,9.018  c-1.409,1.588-2.092,3.69-1.884,5.802l1.177,12.001l-11.05-4.828c-0.972-0.426-2.011-0.638-3.05-0.638  c-1.039,0-2.078,0.212-3.05,0.638l-11.05,4.828l1.177-12.001c0.207-2.112-0.476-4.214-1.884-5.802l-8.008-9.018L245.068,102.048z"/>
<path d="M93.047,136.318l18.063,12.055l3.425,21.446c0.427,2.669,2.235,4.913,4.753,5.895c0.898,0.35,1.836,0.522,2.77,0.522  c1.687,0,3.355-0.561,4.72-1.637l17.047-13.455l21.455,3.368c2.669,0.426,5.361-0.607,7.075-2.698  c1.714-2.09,2.189-4.933,1.252-7.469l-7.529-20.371l9.835-19.363c1.224-2.41,1.08-5.288-0.38-7.563  c-1.46-2.274-4.006-3.61-6.715-3.498l-21.701,0.865l-15.375-15.337c-1.916-1.909-4.701-2.661-7.31-1.975  c-2.615,0.685-4.671,2.704-5.403,5.306l-5.883,20.905l-19.337,9.884c-2.406,1.23-3.981,3.644-4.137,6.341  C89.515,132.239,90.798,134.819,93.047,136.318z M123.044,125.365c1.889-0.965,3.29-2.677,3.866-4.719l3.267-11.609l8.537,8.517  c1.502,1.498,3.551,2.294,5.684,2.218l12.05-0.48l-5.461,10.752c-0.961,1.892-1.089,4.1-0.355,6.09l4.181,11.312l-11.914-1.871  c-2.093-0.326-4.236,0.233-5.902,1.545l-9.466,7.471l-1.901-11.909c-0.335-2.096-1.529-3.957-3.294-5.136l-10.031-6.695  L123.044,125.365z"/>
<path d="M353.209,133.975l-7.529,20.371c-0.937,2.535-0.46,5.377,1.252,7.469c1.713,2.091,4.406,3.119,7.075,2.698l21.455-3.368  l17.047,13.455c1.366,1.078,3.033,1.637,4.72,1.637c0.933,0,1.873-0.172,2.77-0.522c2.518-0.982,4.326-3.226,4.753-5.895  l3.425-21.446l18.064-12.055c2.249-1.5,3.534-4.08,3.376-6.778s-1.731-5.111-4.138-6.341l-19.337-9.884l-5.883-20.905  c-0.732-2.602-2.788-4.622-5.403-5.306c-2.616-0.687-5.396,0.065-7.31,1.975l-15.375,15.337l-21.701-0.865  c-2.71-0.111-5.258,1.224-6.715,3.498c-1.461,2.275-1.604,5.153-0.38,7.563L353.209,133.975z M374.889,119.771  c2.102,0.081,4.18-0.72,5.684-2.218l8.537-8.517l3.267,11.609c0.575,2.044,1.976,3.754,3.867,4.719l10.737,5.488l-10.031,6.695  c-1.765,1.178-2.959,3.039-3.294,5.136l-1.902,11.909l-9.466-7.471c-1.353-1.068-3.019-1.637-4.719-1.637  c-0.393,0-0.788,0.03-1.181,0.092l-11.914,1.871l4.181-11.312c0.736-1.991,0.607-4.198-0.354-6.09l-5.461-10.752L374.889,119.771z"/>
<path d="M77.855,285.269c-2.776-3.164-7.591-3.477-10.751-0.702c-13.862,12.165-21.688,20.722-22.014,21.081  c-2.647,2.907-2.647,7.351,0,10.259c0.858,0.943,21.402,23.351,55.207,47.285c1.337,0.947,2.874,1.402,4.395,1.402  c2.389,0,4.74-1.12,6.225-3.217c2.432-3.434,1.619-8.189-1.815-10.62c-23.027-16.304-39.886-32.129-47.769-39.984  c3.54-3.533,8.896-8.676,15.82-14.752C80.315,293.244,80.629,288.431,77.855,285.269z"/>
<g>
</g>
<g>
</g>
<g>
</g>
<g>
</g>
<g>
</g>
<g>
</g>
<g>
</g>
<g>
</g>
<g>
</g>
<g>
</g>
<g>
</g>
<g>
</g>
<g>
</g>
<g>
</g>
<g>
</g>
</svg>
