<?xml version="1.0" encoding="iso-8859-1"?>
<!-- Generator: Adobe Illustrator 19.0.0, SVG Export Plug-In . SVG Version: 6.00 Build 0)  -->
<svg xmlns="http://www.w3.org/2000/svg" xmlns:xlink="http://www.w3.org/1999/xlink" version="1.1" id="Layer_1" x="0px" y="0px" viewBox="0 0 512 512" style="enable-background:new 0 0 512 512;" xml:space="preserve">
<path d="M7.604,374.579c-4.2,0-7.604-3.405-7.604-7.604v-39.137c0-4.199,3.404-7.604,7.604-7.604s7.604,3.405,7.604,7.604v39.137  C15.208,371.175,11.804,374.579,7.604,374.579z"/>
<polygon style="fill:#D7D6D9;" points="9.33,366.975 486.409,366.975 486.409,268.915 434.624,232.555 403.774,147.717   9.33,143.309 9.33,189.263 "/>
<g>
	<rect x="323.341" y="268.917" style="opacity:0.3;fill:#2D2128;enable-background:new    ;" width="163.069" height="98.061"/>
	<polygon style="opacity:0.3;fill:#2D2128;enable-background:new    ;" points="9.33,366.975 315.737,366.975 315.737,329.829    9.33,343.723  "/>
	<polygon style="fill:#2D2128;" points="60.792,411.047 9.33,411.047 9.33,366.975 506.122,366.975 506.122,411.047    427.451,411.047 345.272,411.047 146.525,411.047  "/>
</g>
<polygon style="fill:#608ECF;" points="436.194,233.658 434.624,232.555 403.774,147.717 323.341,146.818 323.341,233.658 "/>
<path style="fill:#FFDC5E;" d="M454.613,268.915c-8.922,0-16.222,7.3-16.222,16.222s7.3,16.222,16.222,16.222h31.796v-32.444  H454.613z"/>
<polygon style="fill:#3F3C43;" points="60.792,389.756 9.33,389.756 9.33,367.72 506.122,367.72 506.122,389.756 427.451,389.756   345.272,389.756 146.525,389.756 "/>
<circle style="fill:#C7C4CB;" cx="386.362" cy="423.652" r="42.967"/>
<path style="opacity:0.14;fill:#3F3C43;enable-background:new    ;" d="M407.144,386.133c3.469,6.199,5.455,13.34,5.455,20.949  c0,23.731-19.238,42.97-42.97,42.97c-7.609,0-14.75-1.985-20.949-5.455c7.352,13.136,21.392,22.021,37.515,22.021  c23.731,0,42.97-19.238,42.97-42.97C429.166,407.526,420.281,393.484,407.144,386.133z"/>
<circle style="fill:#C7C4CB;" cx="103.556" cy="423.652" r="42.967"/>
<g>
	<circle style="fill:#2D2128;" cx="386.362" cy="423.652" r="15.975"/>
	<circle style="fill:#2D2128;" cx="103.556" cy="423.652" r="15.975"/>
</g>
<path style="opacity:0.14;fill:#3F3C43;enable-background:new    ;" d="M124.504,386.133c3.469,6.199,5.455,13.34,5.455,20.949  c0,23.731-19.238,42.97-42.97,42.97c-7.609,0-14.75-1.985-20.949-5.455c7.352,13.136,21.392,22.021,37.515,22.021  c23.731,0,42.97-19.238,42.97-42.97C146.525,407.526,137.64,393.484,124.504,386.133z"/>
<rect x="475.937" y="268.917" style="opacity:0.16;fill:#2D2128;enable-background:new    ;" width="10.473" height="32.444"/>
<circle style="fill:#6EAC34;" cx="170.846" cy="136.618" r="91.236"/>
<path style="fill:#548229;" d="M223.956,61.409c10.106,14.687,16.027,32.478,16.027,51.654c0,50.388-40.847,91.236-91.236,91.236  c-19.176,0-36.966-5.921-51.654-16.027c16.45,23.906,43.997,39.582,75.209,39.582c50.388,0,91.236-40.847,91.236-91.236  C263.538,105.405,247.861,77.858,223.956,61.409z"/>
<path d="M170.845,235.458c54.501,0,98.84-44.339,98.84-98.84s-44.339-98.84-98.84-98.84c-54.5,0-98.839,44.339-98.839,98.84  S116.345,235.458,170.845,235.458z M170.845,52.985c46.114,0,83.632,37.517,83.632,83.632s-37.518,83.632-83.632,83.632  s-83.631-37.517-83.631-83.632S124.729,52.985,170.845,52.985z"/>
<path d="M71.678,302.164h82.204c4.2,0,7.604-3.405,7.604-7.604s-3.404-7.604-7.604-7.604H71.678c-4.2,0-7.604,3.405-7.604,7.604  S67.479,302.164,71.678,302.164z"/>
<path d="M131.492,261.771c0-4.199-3.404-7.604-7.604-7.604H41.684c-4.2,0-7.604,3.405-7.604,7.604c0,4.199,3.404,7.604,7.604,7.604  h82.204C128.088,269.375,131.492,265.97,131.492,261.771z"/>
<path d="M7.604,291.147c4.2,0,7.604-3.405,7.604-7.604V150.999l35.853,0.4c4.208,0.073,7.641-3.319,7.689-7.519  c0.047-4.199-3.319-7.641-7.519-7.688l-43.542-0.487c-2.052-0.042-3.989,0.767-5.431,2.197C0.813,139.332,0,141.279,0,143.309  v140.233C0,287.742,3.404,291.147,7.604,291.147z"/>
<path d="M504.396,359.371h-12.109v-90.456c0-2.477-1.206-4.8-3.234-6.223l-49.825-34.984l-30.033-82.589  c-1.082-2.976-3.895-4.97-7.062-5.005l-110.559-1.236c-4.228-0.042-7.641,3.319-7.689,7.519c-0.047,4.199,3.319,7.641,7.519,7.688  l22.606,0.252V359.37H7.604c-4.2,0-7.604,3.405-7.604,7.604v44.073c0,4.199,3.404,7.604,7.604,7.604h43.9  c-0.162,1.644-0.248,3.31-0.248,4.997c0,27.886,22.687,50.574,50.574,50.574s50.574-22.687,50.574-50.574  c0-1.686-0.087-3.353-0.248-4.997h182.154c-0.162,1.644-0.248,3.31-0.248,4.997c0,27.886,22.687,50.574,50.573,50.574  c27.887,0,50.574-22.687,50.574-50.574c0-1.686-0.087-3.353-0.248-4.997h69.434c4.2,0,7.604-3.405,7.604-7.604v-44.073  C512,362.776,508.596,359.371,504.396,359.371z M477.08,295.393h-24.191c-4.752,0-8.618-3.866-8.618-8.618s3.866-8.618,8.618-8.618  h24.191V295.393z M422.443,226.054H355.87v-71.248l40.829,0.456L422.443,226.054z M340.664,154.635v71.417h-11.444v-71.546  L340.664,154.635z M329.219,241.261h11.444v81.388c0,4.199,3.404,7.604,7.604,7.604s7.604-3.405,7.604-7.604v-81.388h76.194  l30.888,21.688h-10.065c-13.138,0-23.826,10.688-23.826,23.826s10.688,23.826,23.826,23.826h24.191v48.771H329.219V241.261z   M15.208,403.443v-28.865h74.386c-15.32,3.821-27.892,14.646-34.114,28.865H15.208z M101.83,459.015  c-19.501,0-35.367-15.865-35.367-35.367c0-19.502,15.865-35.367,35.367-35.367s35.367,15.865,35.367,35.367  C137.197,443.15,121.331,459.015,101.83,459.015z M148.18,403.443c-6.222-14.218-18.794-25.042-34.114-28.865H372.4  c-15.32,3.821-27.891,14.646-34.114,28.865H148.18z M384.635,459.015c-19.501,0-35.366-15.865-35.366-35.367  c0-19.502,15.864-35.367,35.366-35.367c19.502,0,35.367,15.865,35.367,35.367C420.001,443.15,404.135,459.015,384.635,459.015z   M496.792,403.443h-65.808c-6.222-14.218-18.794-25.042-34.114-28.865h87.814h12.109V403.443z"/>
<path d="M384.635,400.07c-13.001,0-23.578,10.578-23.578,23.578c0,13.001,10.578,23.579,23.578,23.579  c13.002,0,23.579-10.578,23.579-23.579C408.214,410.646,397.636,400.07,384.635,400.07z M384.635,432.02  c-4.616,0-8.37-3.755-8.37-8.371s3.754-8.37,8.37-8.37s8.371,3.755,8.371,8.37C393.006,428.263,389.251,432.02,384.635,432.02z"/>
<path d="M101.83,400.07c-13.002,0-23.579,10.578-23.579,23.578c0,13.001,10.578,23.579,23.579,23.579s23.579-10.578,23.579-23.579  C125.41,410.646,114.832,400.07,101.83,400.07z M101.83,432.02c-4.616,0-8.371-3.755-8.371-8.371s3.755-8.37,8.371-8.37  s8.371,3.755,8.371,8.37C110.202,428.263,106.445,432.02,101.83,432.02z"/>
<path d="M154.572,171.242c1.426,1.426,3.36,2.227,5.378,2.227c2.018,0,3.95-0.801,5.378-2.227l49.817-49.817  c2.97-2.97,2.97-7.784,0-10.753c-2.971-2.97-7.784-2.97-10.754,0l-44.44,44.441l-22.65-22.651c-2.97-2.97-7.783-2.97-10.754,0  c-2.97,2.97-2.97,7.784,0,10.753L154.572,171.242z"/>
<g>
</g>
<g>
</g>
<g>
</g>
<g>
</g>
<g>
</g>
<g>
</g>
<g>
</g>
<g>
</g>
<g>
</g>
<g>
</g>
<g>
</g>
<g>
</g>
<g>
</g>
<g>
</g>
<g>
</g>
</svg>
