<?xml version="1.0" encoding="iso-8859-1"?>
<!-- Generator: Adobe Illustrator 19.0.0, SVG Export Plug-In . SVG Version: 6.00 Build 0)  -->
<svg xmlns="http://www.w3.org/2000/svg" xmlns:xlink="http://www.w3.org/1999/xlink" version="1.1" id="Layer_1" x="0px" y="0px" viewBox="0 0 511.999 511.999" style="enable-background:new 0 0 511.999 511.999;" xml:space="preserve">
<path style="fill:#679972;" d="M476.879,180.025h16.586c5.907,0,10.741,4.834,10.741,10.741v291.652  c0,5.907-4.834,10.741-10.741,10.741h-183.16c-5.907,0-10.741-4.834-10.741-10.741V190.766c0-5.907,4.834-10.741,10.741-10.741  l108.053,0.002L476.879,180.025z"/>
<g>
	<path style="opacity:0.3;fill:#406646;enable-background:new    ;" d="M493.464,180.025h-16.586h-2.735v276.994   c0,5.907-4.834,10.741-10.741,10.741H299.563v14.658c0,5.908,4.834,10.741,10.741,10.741h183.16   c5.907,0,10.741-4.834,10.741-10.741V190.766C504.206,184.859,499.372,180.025,493.464,180.025z"/>
	<rect x="345.15" y="180.031" style="fill:#406646;" width="43.982" height="313.13"/>
</g>
<path style="fill:#565159;" d="M7.794,189.632V48.074c0-16.08,13.156-29.235,29.235-29.235h201.538  c16.079,0,29.235,13.156,29.235,29.235v174.163v31.355V437.26c0,16.079-13.156,29.235-29.235,29.235H37.029  c-16.08,0-29.235-13.156-29.235-29.235V223.731C7.794,223.731,7.794,189.632,7.794,189.632z"/>
<g>
	<rect x="7.794" y="88.482" style="fill:#E0E0E2;" width="260.003" height="296.367"/>
	<path style="fill:#E0E0E2;" d="M142.61,438.744h-12.683c-4.127,0-7.502-3.377-7.502-7.502v-12.683c0-4.127,3.377-7.502,7.502-7.502   h12.683c4.127,0,7.502,3.377,7.502,7.502v12.683C150.112,435.367,146.736,438.744,142.61,438.744z"/>
</g>
<rect x="267.798" y="65.433" style="fill:#ADABB1;" width="31.762" height="354.4"/>
<path style="fill:#6EAC34;" d="M223.66,222.872c0,46.508-37.702,84.211-84.211,84.211s-84.211-37.702-84.211-84.211  c0-12.602,2.769-24.558,7.73-35.292c13.349-28.88,42.575-48.919,76.481-48.919C185.958,138.661,223.66,176.364,223.66,222.872z"/>
<rect x="267.798" y="65.433" style="opacity:0.38;fill:#565159;enable-background:new    ;" width="15.881" height="354.4"/>
<polygon style="opacity:0.23;fill:#FFFFFF;enable-background:new    ;" points="107.124,384.853 29.507,384.853 137.724,88.485   215.342,88.485 "/>
<path d="M493.464,172.231h-16.585c-4.305,0-7.794,3.489-7.794,7.794s3.49,7.794,7.794,7.794h16.585c1.597,0,2.946,1.349,2.946,2.946  v291.653c0,1.597-1.349,2.946-2.946,2.946H396.93V187.822h21.428c4.305,0,7.794-3.49,7.794-7.794c0-4.305-3.49-7.794-7.794-7.794  l-108.053-0.002c-1.005,0-1.984,0.103-2.946,0.258V65.434c0-4.306-3.49-7.794-7.794-7.794h-23.968v-9.565  c0-20.417-16.611-37.029-37.029-37.029H37.029C16.611,11.045,0,27.655,0,48.074v141.559c0,4.306,3.49,7.794,7.794,7.794  s7.794-3.489,7.794-7.794V48.074c0-11.822,9.617-21.44,21.44-21.44h201.538c11.822,0,21.44,9.618,21.44,21.44v17.36V80.69H32.423  c-4.305,0-7.794,3.489-7.794,7.794s3.49,7.794,7.794,7.794h227.583v280.78H15.589V223.731c0-4.306-3.49-7.794-7.794-7.794  S0,219.426,0,223.731V437.26c0,20.417,16.611,37.029,37.029,37.029h201.538c20.417,0,37.029-16.611,37.029-37.029v-9.629h16.173  v54.788c0,10.22,8.315,18.535,18.535,18.535h34.848h43.984h104.328c10.22,0,18.535-8.315,18.535-18.535V190.766  C512,180.546,503.685,172.231,493.464,172.231z M260.007,437.26c0,11.822-9.617,21.44-21.44,21.44H37.029  c-11.822,0-21.44-9.618-21.44-21.44v-44.613h244.418v27.189V437.26z M275.596,412.042V73.228h16.173v117.539v221.276h-16.173  V412.042z M307.358,482.419v-62.582V190.766c0-1.597,1.349-2.946,2.946-2.946h27.053v297.545h-27.053  C308.707,485.365,307.358,484.016,307.358,482.419z M352.947,485.365V187.822h28.395v297.544H352.947z"/>
<path d="M142.61,403.261h-12.683c-8.435,0-15.297,6.862-15.297,15.297v12.683c0,8.435,6.862,15.297,15.297,15.297h12.683  c8.435,0,15.297-6.862,15.297-15.297v-12.683C157.907,410.123,151.045,403.261,142.61,403.261z M142.318,430.949h-12.099V418.85  h12.099V430.949z"/>
<path d="M174.042,62.585c4.305,0,7.794-3.489,7.794-7.794s-3.49-7.794-7.794-7.794h-69.184c-4.305,0-7.794,3.489-7.794,7.794  s3.49,7.794,7.794,7.794H174.042z"/>
<path d="M189.953,196.603c-3.044-3.043-7.979-3.043-11.022,0l-48.192,48.192l-27.462-27.463c-3.043-3.043-7.978-3.043-11.022,0  c-3.044,3.045-3.044,7.979,0,11.023l32.973,32.974c1.461,1.461,3.444,2.282,5.511,2.282s4.05-0.821,5.511-2.282l53.703-53.703  C192.998,204.582,192.998,199.647,189.953,196.603z"/>
<path d="M448.79,217.284c4.305,0,7.794-3.489,7.794-7.794V82.869c0-4.306-3.49-7.794-7.794-7.794c-4.305,0-7.794,3.489-7.794,7.794  v126.62C440.995,213.795,444.485,217.284,448.79,217.284z"/>
<path d="M415.782,153.974c4.305,0,7.794-3.489,7.794-7.794V19.56c0-4.306-3.49-7.794-7.794-7.794s-7.794,3.489-7.794,7.794v126.62  C407.987,150.485,411.477,153.974,415.782,153.974z"/>
<path d="M231.455,222.872c0-50.732-41.273-92.005-92.005-92.005c-35.752,0-68.55,20.979-83.556,53.444  c-5.606,12.128-8.448,25.102-8.448,38.561c0,50.732,41.273,92.005,92.005,92.005S231.455,273.604,231.455,222.872z M63.033,222.872  c0-11.185,2.359-21.958,7.011-32.022c12.466-26.969,39.708-44.395,69.405-44.395c42.136,0,76.416,34.28,76.416,76.416  s-34.28,76.416-76.416,76.416S63.033,265.008,63.033,222.872z"/>
<g>
</g>
<g>
</g>
<g>
</g>
<g>
</g>
<g>
</g>
<g>
</g>
<g>
</g>
<g>
</g>
<g>
</g>
<g>
</g>
<g>
</g>
<g>
</g>
<g>
</g>
<g>
</g>
<g>
</g>
</svg>
