<?xml version="1.0" encoding="iso-8859-1"?>
<!-- Generator: Adobe Illustrator 19.0.0, SVG Export Plug-In . SVG Version: 6.00 Build 0)  -->
<svg xmlns="http://www.w3.org/2000/svg" xmlns:xlink="http://www.w3.org/1999/xlink" version="1.1" id="Layer_1" x="0px" y="0px" viewBox="0 0 512 512" style="enable-background:new 0 0 512 512;" xml:space="preserve">
<circle style="fill:#3C7BB8;" cx="259.826" cy="228.432" r="220.025"/>
<g>
	<path style="fill:#4AA9E7;" d="M274.917,8.83c57.231,11.573,101.849,105.465,101.849,219.584   c0,55.755-10.65,106.683-28.218,145.542l-92.035,74.42c1.493,0.03,2.985,0.057,4.485,0.057   c121.517,0,220.027-98.51,220.027-220.027C481.025,111.564,389.947,16.012,274.917,8.83z"/>
	<path style="fill:#4AA9E7;" d="M259.772,316.289V7.652h-0.892c-62.839,0-113.78,98.851-113.78,220.79   c0,47.615,7.767,91.709,20.977,127.772l50.152,48.383L259.772,316.289z"/>
</g>
<path style="opacity:0.19;fill:#2D2128;enable-background:new    ;" d="M328.804,18.443c46.36,40.339,75.669,99.769,75.669,166.048  c0,121.517-98.51,220.027-220.027,220.027c-22.947,0-45.073-3.518-65.872-10.036c38.638,33.619,89.119,53.979,144.357,53.979  c121.517,0,220.027-98.51,220.027-220.027C482.959,129.864,418.14,46.438,328.804,18.443z"/>
<path style="fill:#FFDC5E;" d="M283.912,334.047l-60.343-44.669v71.43h-4.148h-13.195c-82.255,0-151.375-56.243-170.999-132.37  l-0.016,0.004c0,110.92,81.797,202.726,188.359,218.414v57.493l145.199-107.485l-64.707-47.899L283.912,334.047z"/>
<g style="opacity:0.19;">
	<polygon style="fill:#2D2128;" points="347.682,381.253 223.57,473.128 223.57,504.348 368.769,396.863  "/>
</g>
<path d="M484.142,239.967c0.193-3.83,0.3-7.673,0.3-11.526c0-61.019-23.762-118.386-66.909-161.533  C376.32,25.696,322.131,2.186,264.18,0.16C262.715,0.065,261.246,0,259.771,0c-0.15,0-0.298,0.014-0.446,0.022  C259.177,0.014,259.03,0,258.879,0c-0.334,0-0.666,0.018-1,0.022C257.253,0.017,256.627,0,256,0  c-32.055,0-63.062,6.511-92.156,19.353c-3.866,1.706-5.618,6.224-3.911,10.091s6.227,5.617,10.091,3.911  c12.202-5.385,24.767-9.566,37.62-12.549c-13.345,11.529-25.538,27.668-36.02,48.01c-9.174,17.803-16.627,38.026-22.208,59.902  H67.509c17.05-32.233,42.406-60.038,74.456-80.374c3.568-2.264,4.625-6.993,2.361-10.561c-2.265-3.568-6.993-4.626-10.562-2.361  c-31.901,20.242-58.541,48.336-77.038,81.241c-19.082,33.95-29.169,72.603-29.169,111.779c0,0.008,0.001,0.016,0.001,0.025  c0.006,55.142,19.928,108.384,56.1,149.919c34.361,39.457,81.117,65.914,132.259,74.979v50.983c0,2.891,1.628,5.533,4.209,6.834  c1.088,0.549,2.268,0.818,3.442,0.818c1.61,0,3.211-0.508,4.554-1.502l145.198-107.485c1.95-1.443,3.1-3.724,3.1-6.15  c0-2.426-1.15-4.708-3.1-6.15l-20.355-15.068c16.047-36.121,25.734-80.929,27.811-128.019h87.498  c-4.038,44.792-22.142,87.288-51.993,121.312c-2.786,3.177-2.471,8.012,0.705,10.799c1.453,1.275,3.253,1.9,5.043,1.9  c2.126,0,4.242-0.882,5.755-2.606c33.811-38.54,53.551-87.217,56.309-138.219c0.031-0.275,0.048-0.555,0.048-0.839  C484.143,239.971,484.142,239.969,484.142,239.967z M444.319,128.717h-75.083c-5.581-21.876-13.033-42.099-22.208-59.902  c-9.759-18.937-21.001-34.228-33.273-45.554C370.241,39.182,417.277,77.857,444.319,128.717z M365.9,228.442  c0,1.295-0.01,2.586-0.022,3.878h-98.455v-88.299h89.721C362.882,170.342,365.9,198.922,365.9,228.442z M228.123,283.228  c-2.322-1.72-5.417-1.983-7.996-0.684c-2.58,1.301-4.209,3.943-4.209,6.834v63.777h-9.693c-11.723,0-23.216-1.211-34.35-3.514  c-10.661-30.498-17.031-65.363-18.678-102.016h98.922v53.367L228.123,283.228z M154.202,344.979  c-47.077-15.212-85.755-50.614-104.618-97.354h88.291C139.376,282.185,144.926,315.306,154.202,344.979z M152.79,232.32  c-0.011-1.293-0.038-2.582-0.038-3.878c0-29.52,3.018-58.1,8.755-84.421h90.612v88.299L152.79,232.32L152.79,232.32z   M267.423,128.717V15.866c24.575,3.615,47.771,24.584,66,59.959c8.132,15.779,14.837,33.608,20.007,52.892  C353.43,128.717,267.423,128.717,267.423,128.717z M185.227,75.826c18.451-35.803,41.989-56.834,66.893-60.068v112.96h-86.899  C170.391,109.434,177.096,91.603,185.227,75.826z M145.874,144.022c-5.526,26.502-8.427,55.043-8.427,84.421  c0,1.297,0.027,2.585,0.038,3.878H44.249c-0.48-1.622-0.938-3.255-1.371-4.899c0.138-29.243,6.15-57.505,17.288-83.399  L145.874,144.022L145.874,144.022z M340.346,366.302l-31.731-23.489c-3.396-2.515-8.187-1.801-10.703,1.597  c-2.514,3.397-1.8,8.189,1.598,10.703l56.397,41.749l-124.685,92.3v-42.307c0-3.795-2.783-7.018-6.537-7.571  c-85.669-12.612-153.924-76.707-175.034-157.817c32.923,53.018,91.542,86.992,156.574,86.992h17.345  c4.227,0,7.652-3.426,7.652-7.652v-56.244l23.116,17.111c0.545,0.55,1.173,1.014,1.863,1.379l23.158,17.143  c3.396,2.514,8.187,1.801,10.703-1.597c2.514-3.397,1.8-8.189-1.598-10.703l-21.041-15.576v-64.696h98.038  C363.475,291.218,354.745,332.612,340.346,366.302z M381.182,232.32c0.011-1.292,0.022-2.584,0.022-3.878  c0-29.377-2.901-57.919-8.427-84.421h78.911c11.217,25.902,17.45,54.446,17.45,84.421c0,1.295-0.02,2.586-0.044,3.878  L381.182,232.32L381.182,232.32z"/>
<g>
</g>
<g>
</g>
<g>
</g>
<g>
</g>
<g>
</g>
<g>
</g>
<g>
</g>
<g>
</g>
<g>
</g>
<g>
</g>
<g>
</g>
<g>
</g>
<g>
</g>
<g>
</g>
<g>
</g>
</svg>
