<?xml version="1.0" encoding="iso-8859-1"?>
<!-- Generator: Adobe Illustrator 19.0.0, SVG Export Plug-In . SVG Version: 6.00 Build 0)  -->
<svg xmlns="http://www.w3.org/2000/svg" xmlns:xlink="http://www.w3.org/1999/xlink" version="1.1" id="Layer_1" x="0px" y="0px" viewBox="0 0 512 512" style="enable-background:new 0 0 512 512;" xml:space="preserve">
<polygon style="fill:#FF6746;" points="452.158,229.229 394.55,501.649 118.504,501.649 80.318,332.239 72.867,299.183   57.1,229.229 "/>
<g>
	<polygon style="opacity:0.34;fill:#CD3B1C;enable-background:new    ;" points="403.552,229.229 354.95,460.997 108.906,460.997    118.504,503.579 394.55,503.579 452.158,229.229  "/>
	<path style="fill:#CD3B1C;" d="M147.713,174.48h329.309c15.056,0,27.374,12.318,27.374,27.374l0,0   c0,15.056-12.318,27.374-27.374,27.374H34.978c-15.056,0-27.374-12.318-27.374-27.374l0,0c0-15.056,12.318-27.374,27.374-27.374   h83.81H147.713z"/>
</g>
<circle style="fill:#2D2128;" cx="256.872" cy="38.161" r="25.197"/>
<path d="M477.022,166.876h-4.583L274.109,8.768c-10.071-8.027-24.136-8.027-34.208,0L41.569,166.876h-6.591  C15.692,166.876,0,182.568,0,201.855s15.692,34.978,34.978,34.978h16.04l14.43,64.022c0.797,3.534,3.934,5.934,7.411,5.934  c0.554,0,1.116-0.061,1.679-0.188c4.097-0.924,6.669-4.993,5.746-9.089l-13.677-60.679h376.17l-54.392,257.213H124.584  L87.737,330.567c-0.924-4.097-4.989-6.67-9.089-5.746c-4.097,0.924-6.669,4.993-5.746,9.089l38.186,169.409  c0.782,3.468,3.863,5.932,7.417,5.932h276.046c3.593,0,6.696-2.515,7.44-6.03l56.333-266.39h18.698  c19.287,0,34.978-15.692,34.978-34.978S496.309,166.876,477.022,166.876z M256.868,20.567c9.702,0,17.594,7.893,17.594,17.594  s-7.892,17.594-17.594,17.594c-9.701,0-17.594-7.892-17.594-17.594S247.167,20.567,256.868,20.567z M477.022,221.625H452.22  c-0.015,0-0.03,0-0.046,0H34.978c-10.901,0-19.77-8.869-19.77-19.77c0-10.901,8.869-19.77,19.77-19.77h83.81  c4.199,0,7.604-3.405,7.604-7.604c0-4.199-3.405-7.604-7.604-7.604H65.967L224.179,40.75c1.326,16.879,15.476,30.211,32.69,30.211  c17.284,0,31.478-13.44,32.705-30.416l158.47,126.331H147.713c-4.199,0-7.604,3.405-7.604,7.604c0,4.199,3.405,7.604,7.604,7.604  h322.056c0.002,0,0.004,0,0.006,0c0.003,0,0.006,0,0.009,0h7.239c10.901,0,19.77,8.869,19.77,19.77  C496.793,212.756,487.923,221.625,477.022,221.625z"/>
<path d="M101.552,194.251H37.606c-4.199,0-7.604,3.405-7.604,7.604c0,4.199,3.405,7.604,7.604,7.604h63.946  c4.199,0,7.604-3.405,7.604-7.604C109.156,197.655,105.752,194.251,101.552,194.251z"/>
<path d="M179.74,194.251h-39.729c-4.199,0-7.604,3.405-7.604,7.604c0,4.199,3.405,7.604,7.604,7.604h39.729  c4.199,0,7.604-3.405,7.604-7.604C187.344,197.655,183.94,194.251,179.74,194.251z"/>
<path d="M159.005,406.766V332.24c0-4.199-3.405-7.604-7.604-7.604c-4.199,0-7.604,3.405-7.604,7.604v74.526  c0,4.199,3.405,7.604,7.604,7.604C155.6,414.37,159.005,410.966,159.005,406.766z"/>
<path d="M230.236,406.766V332.24c0-4.199-3.405-7.604-7.604-7.604c-4.199,0-7.604,3.405-7.604,7.604v74.526  c0,4.199,3.405,7.604,7.604,7.604C226.831,414.37,230.236,410.966,230.236,406.766z"/>
<path d="M301.467,406.766V332.24c0-4.199-3.404-7.604-7.604-7.604s-7.604,3.405-7.604,7.604v74.526c0,4.199,3.404,7.604,7.604,7.604  S301.467,410.966,301.467,406.766z"/>
<path d="M372.697,406.766V332.24c0-4.199-3.404-7.604-7.604-7.604s-7.604,3.405-7.604,7.604v74.526c0,4.199,3.404,7.604,7.604,7.604  S372.697,410.966,372.697,406.766z"/>
<g>
</g>
<g>
</g>
<g>
</g>
<g>
</g>
<g>
</g>
<g>
</g>
<g>
</g>
<g>
</g>
<g>
</g>
<g>
</g>
<g>
</g>
<g>
</g>
<g>
</g>
<g>
</g>
<g>
</g>
</svg>
