<?xml version="1.0" encoding="iso-8859-1"?>
<!-- Generator: Adobe Illustrator 19.0.0, SVG Export Plug-In . SVG Version: 6.00 Build 0)  -->
<svg xmlns="http://www.w3.org/2000/svg" xmlns:xlink="http://www.w3.org/1999/xlink" version="1.1" id="Layer_1" x="0px" y="0px" viewBox="0 0 512 512" style="enable-background:new 0 0 512 512;" xml:space="preserve">
<rect x="232.891" y="174.635" style="fill:#FF7B66;" width="181.146" height="181.146"/>
<path style="fill:#679972;" d="M322.023,229.365v129.58c0,8.167-6.682,14.85-14.85,14.85H131.074h-41.91H22.504  c-8.167,0-14.85-6.682-14.85-14.85V180.905c0-8.167,6.682-14.85,14.85-14.85h179.61l119.908,1.215V229.365z"/>
<g>
	<path style="opacity:0.16;fill:#406646;enable-background:new    ;" d="M287.43,166.92v27.852v129.58   c0,8.167-6.682,14.85-14.85,14.85H96.481H54.57H7.654v19.744c0,8.167,6.682,14.85,14.85,14.85h66.659h41.911h176.099   c8.167,0,14.85-6.682,14.85-14.85v-129.58v-62.094L287.43,166.92z"/>
	<path style="fill:#406646;" d="M290.457,202.038H7.654v47.561h97.229h41.253h175.886c0,4.209,0-46.576,0-46.576h-31.566"/>
	<rect x="38.261" y="288.381" style="fill:#406646;" width="172.951" height="24.627"/>
	<rect x="260.753" y="288.381" style="fill:#406646;" width="24.627" height="24.627"/>
</g>
<path style="fill:#FF8E76;" d="M323.453,355.782h126.643V185.456l-46.452-18.186l-32.147-12.585l-42.089-16.478h-45.841h-58.063  c-12.865,0-23.39,10.525-23.39,23.39l0,0c0,12.865,10.525,23.39,23.39,23.39h58.063c0,0,9.202,48.512,66.411,48.512  c0,0,18.723,11.769,18.723,60.409S323.453,355.782,323.453,355.782z"/>
<rect x="450.095" y="159.786" style="fill:#B9DEF3;" width="54.245" height="214.009"/>
<path d="M218.871,313.013v-24.627c0-4.227-3.427-7.655-7.654-7.655H38.261c-4.227,0-7.654,3.427-7.654,7.655v24.627  c0,4.227,3.427,7.654,7.654,7.654h172.955C215.443,320.668,218.871,317.241,218.871,313.013z M203.562,305.359H45.916v-9.318  h157.646V305.359z"/>
<path d="M285.38,320.668c4.227,0,7.655-3.427,7.655-7.654v-24.627c0-4.227-3.427-7.655-7.655-7.655h-24.627  c-4.227,0-7.655,3.427-7.655,7.655v24.627c0,4.227,3.427,7.654,7.655,7.654H285.38z M268.407,296.041h9.318v9.318h-9.318V296.041z"/>
<path d="M504.345,152.135h-54.249c-4.227,0-7.654,3.427-7.654,7.654v14.45l-36.007-14.097c-3.936-1.54-8.377,0.401-9.918,4.338  c-1.541,3.936,0.401,8.377,4.338,9.918l41.588,16.282v157.449H329.677V239.012c6.062,1.353,12.801,2.142,20.302,2.142  c4.227,0,7.654-3.427,7.654-7.654s-3.427-7.654-7.654-7.654c-30.118,0-45.205-14.78-52.512-26.875  c-0.233-0.531-0.528-1.027-0.869-1.487c-4.11-7.292-5.385-13.292-5.51-13.922c-0.685-3.613-3.844-6.229-7.521-6.229h-58.063  c-8.677,0-15.736-7.059-15.736-15.736c0-8.676,7.059-15.736,15.736-15.736h102.459l40.742,15.951c3.937,1.541,8.377-0.4,9.918-4.338  s-0.401-8.377-4.338-9.918l-42.088-16.479c-0.89-0.348-1.836-0.527-2.79-0.527H225.506c-16.04,0-29.276,12.227-30.881,27.849H22.504  C10.096,158.4,0,168.495,0,180.904v21.134v47.561v109.347c0,12.408,10.096,22.504,22.504,22.504h66.659  c4.227,0,7.654-3.427,7.654-7.655s-3.427-7.654-7.654-7.654H22.504c-3.967,0-7.195-3.228-7.195-7.195V257.254h89.575  c4.227,0,7.654-3.427,7.654-7.655c0-4.227-3.427-7.654-7.654-7.654H15.309v-32.252h270.907c0.94,1.409,1.958,2.833,3.066,4.256  c5.364,6.884,13.415,14.497,25.086,19.916v8.08H146.137c-4.227,0-7.654,3.427-7.654,7.654c0,4.227,3.427,7.655,7.654,7.655h168.232  v101.691c0,3.967-3.228,7.195-7.195,7.195H131.074c-4.227,0-7.654,3.427-7.654,7.654s3.427,7.655,7.654,7.655h176.099  c10.87,0,19.965-7.748,22.053-18.012h113.216v10.357c0,4.227,3.427,7.655,7.654,7.655h54.249c4.227,0,7.655-3.427,7.655-7.655  V159.79C512,155.562,508.573,152.135,504.345,152.135z M15.309,194.383v-13.479c0-3.967,3.228-7.195,7.195-7.195h174.417  c4.729,11.117,15.76,18.932,28.583,18.932h52.286c0.188,0.55,0.397,1.136,0.622,1.742H15.309z M496.691,366.141h-38.94v-10.357  V185.456v-18.012h38.94V366.141z"/>
<g>
</g>
<g>
</g>
<g>
</g>
<g>
</g>
<g>
</g>
<g>
</g>
<g>
</g>
<g>
</g>
<g>
</g>
<g>
</g>
<g>
</g>
<g>
</g>
<g>
</g>
<g>
</g>
<g>
</g>
</svg>
