<?xml version="1.0" encoding="iso-8859-1"?>
<!-- Generator: Adobe Illustrator 19.0.0, SVG Export Plug-In . SVG Version: 6.00 Build 0)  -->
<svg xmlns="http://www.w3.org/2000/svg" xmlns:xlink="http://www.w3.org/1999/xlink" version="1.1" id="Layer_1" x="0px" y="0px" viewBox="0 0 512 512" style="enable-background:new 0 0 512 512;" xml:space="preserve">
<path style="fill:#679972;" d="M87.114,151.59V7.609h49.595V350.79c0,13.535,10.972,24.506,24.506,24.506h315.729h27.453v49.595  H136.708l0,0c-27.39,0-49.595-22.204-49.595-49.595l0,0V186.105L87.114,151.59L87.114,151.59z"/>
<path style="opacity:0.43;fill:#2C4F30;enable-background:new    ;" d="M87.114,343.872v31.425l0,0  c0,27.39,22.204,49.595,49.595,49.595h367.688v-31.426H136.708C109.318,393.465,87.114,371.261,87.114,343.872z"/>
<path style="fill:#6EAC34;" d="M258.228,52.704c16.465-8.554,35.172-13.388,55.009-13.388c65.986,0,119.479,53.493,119.479,119.479  s-53.493,119.479-119.479,119.479s-119.479-53.493-119.479-119.479c0-34.968,15.022-66.427,38.965-88.278L258.228,52.704z"/>
<path style="fill:#548229;" d="M382.184,61.209c13.788,19.48,21.893,43.266,21.893,68.948c0,65.986-53.493,119.479-119.479,119.479  c-25.681,0-49.469-8.105-68.948-21.893c21.639,30.572,57.282,50.532,97.587,50.532c65.986,0,119.479-53.493,119.479-119.479  C432.716,118.491,412.756,82.848,382.184,61.209z"/>
<path style="fill:#679972;" d="M91.021,119.569L12.299,39.627c-6.447-6.447-6.206-17.238,0.537-23.98l0,0  c6.742-6.742,17.533-6.984,23.98-0.537l54.205,54.194V119.569z"/>
<g>
	<circle style="fill:#C7C4CB;" cx="217.538" cy="467.104" r="37.291"/>
	<circle style="fill:#C7C4CB;" cx="439.649" cy="467.104" r="37.291"/>
</g>
<g>
	<path style="opacity:0.08;fill:#2D2128;enable-background:new    ;" d="M460.33,436.068c3.951,5.918,6.257,13.027,6.257,20.677   c0,20.595-16.696,37.291-37.291,37.291c-7.649,0-14.758-2.306-20.677-6.257c6.686,10.015,18.088,16.614,31.033,16.614   c20.595,0,37.291-16.696,37.291-37.291C476.943,454.156,470.345,442.754,460.33,436.068z"/>
	<path style="opacity:0.08;fill:#2D2128;enable-background:new    ;" d="M238.215,436.068c3.951,5.918,6.257,13.027,6.257,20.677   c0,20.595-16.696,37.291-37.291,37.291c-7.649,0-14.758-2.306-20.677-6.257c6.686,10.015,18.088,16.614,31.032,16.614   c20.595,0,37.291-16.696,37.291-37.291C254.828,454.156,248.229,442.754,238.215,436.068z"/>
	<circle style="fill:#2D2128;" cx="217.538" cy="467.104" r="15.696"/>
	<circle style="fill:#2D2128;" cx="440.004" cy="467.104" r="15.696"/>
</g>
<polygon style="opacity:0.43;fill:#2C4F30;enable-background:new    ;" points="87.114,64.998 87.114,115.6 45.775,73.623   45.775,23.931 "/>
<path d="M504.396,367.693c-4.199,0-7.604,3.404-7.604,7.604v41.99H136.708c-23.154,0-41.991-18.837-41.991-41.99V186.105  c0-4.199-3.404-7.604-7.604-7.604c-4.199,0-7.604,3.404-7.604,7.604v189.192c0,31.539,25.659,57.198,57.199,57.198h52.26  c-9.965,8.241-16.326,20.694-16.326,34.606c0,24.755,20.14,44.895,44.895,44.895s44.895-20.14,44.895-44.895  c0-13.912-6.361-26.365-16.326-34.606h164.977c-9.965,8.241-16.326,20.694-16.326,34.606c0,24.755,20.14,44.895,44.895,44.895  c24.755,0,44.895-20.14,44.895-44.895c0-13.912-6.361-26.365-16.326-34.606h36.175c4.199,0,7.604-3.404,7.604-7.604v-49.594  C512,371.097,508.595,367.693,504.396,367.693z M217.537,496.787c-16.369,0-29.687-13.318-29.687-29.687  c0-16.369,13.318-29.687,29.687-29.687s29.687,13.318,29.687,29.687S233.908,496.787,217.537,496.787z M439.653,496.787  c-16.369,0-29.687-13.318-29.687-29.687c0-16.369,13.318-29.687,29.687-29.687s29.687,13.318,29.687,29.687  C469.34,483.47,456.023,496.787,439.653,496.787z"/>
<path d="M79.51,151.59c0,4.199,3.404,7.604,7.604,7.604c4.199,0,7.604-3.404,7.604-7.604V15.212h34.387V350.79  c0,17.706,14.405,32.11,32.11,32.11h315.729c4.199,0,7.604-3.404,7.604-7.604c0-4.199-3.404-7.604-7.604-7.604H161.215  c-9.32,0-16.903-7.582-16.903-16.903V7.609c0-4.199-3.404-7.604-7.604-7.604H87.114c-4.199,0-7.604,3.404-7.604,7.604v39.44  L42.194,9.733C32.767,0.304,17.184,0.545,7.46,10.27c-9.725,9.724-9.965,25.305-0.581,34.689l72.632,73.833v32.798H79.51z   M17.675,34.25c-3.499-3.499-3.257-9.433,0.537-13.228c3.796-3.795,9.729-4.035,13.228-0.537l48.07,48.07v28.551L17.675,34.25z"/>
<path d="M313.236,285.879c70.074,0,127.083-57.009,127.083-127.083S383.311,31.712,313.236,31.712  c-20.344,0-40.578,4.925-58.514,14.244c-3.726,1.936-5.178,6.527-3.241,10.253c1.936,3.726,6.527,5.179,10.253,3.241  c16.005-8.315,33.333-12.532,51.502-12.532c61.689,0,111.876,50.187,111.876,111.877c0,61.689-50.187,111.876-111.876,111.876  s-111.876-50.187-111.876-111.876c0-31.371,13.298-61.5,36.486-82.661c3.102-2.831,3.321-7.64,0.491-10.743  c-2.831-3.102-7.64-3.321-10.743-0.491c-26.337,24.035-41.443,58.258-41.443,93.894C186.153,228.87,243.162,285.879,313.236,285.879  z"/>
<path d="M303.79,206.737c1.946,0,3.892-0.742,5.376-2.227l70.201-70.201c2.969-2.97,2.969-7.784,0-10.753  c-2.97-2.97-7.784-2.97-10.753,0l-64.824,64.824l-35.189-35.189c-2.97-2.97-7.784-2.97-10.753,0c-2.97,2.97-2.97,7.784,0,10.753  l40.567,40.567C299.898,205.995,301.844,206.737,303.79,206.737z"/>
<path d="M217.537,443.801c-12.847,0-23.299,10.453-23.299,23.3s10.453,23.299,23.299,23.299c12.847,0,23.3-10.453,23.3-23.299  C240.837,454.253,230.386,443.801,217.537,443.801z M217.537,475.193c-4.462,0-8.091-3.631-8.091-8.091  c0-4.462,3.631-8.092,8.091-8.092c4.462,0,8.092,3.631,8.092,8.092C225.63,471.562,222,475.193,217.537,475.193z"/>
<path d="M440.009,443.801c-12.847,0-23.299,10.453-23.299,23.3s10.453,23.299,23.299,23.299c12.847,0,23.3-10.453,23.3-23.299  C463.309,454.253,452.858,443.801,440.009,443.801z M440.009,475.193c-4.462,0-8.091-3.631-8.091-8.091  c0-4.462,3.631-8.092,8.091-8.092c4.462,0,8.092,3.631,8.092,8.092C448.102,471.562,444.472,475.193,440.009,475.193z"/>
<g>
</g>
<g>
</g>
<g>
</g>
<g>
</g>
<g>
</g>
<g>
</g>
<g>
</g>
<g>
</g>
<g>
</g>
<g>
</g>
<g>
</g>
<g>
</g>
<g>
</g>
<g>
</g>
<g>
</g>
</svg>
