<?xml version="1.0" encoding="iso-8859-1"?>
<!-- Generator: Adobe Illustrator 19.0.0, SVG Export Plug-In . SVG Version: 6.00 Build 0)  -->
<svg xmlns="http://www.w3.org/2000/svg" xmlns:xlink="http://www.w3.org/1999/xlink" version="1.1" id="Layer_1" x="0px" y="0px" viewBox="0 0 511.998 511.998" style="enable-background:new 0 0 511.998 511.998;" xml:space="preserve">
<circle style="fill:#4AA9E7;" cx="252.394" cy="252.224" r="243.385"/>
<path style="opacity:0.24;fill:#3D689C;enable-background:new    ;" d="M394.224,53.457c28.685,39.935,45.586,88.906,45.586,141.829  c0,134.418-108.967,243.385-243.385,243.385c-52.923,0-101.894-16.9-141.829-45.586c44.173,61.496,116.305,101.557,197.8,101.557  c134.418,0,243.385-108.967,243.385-243.385C495.781,169.76,455.72,97.63,394.224,53.457z"/>
<polygon style="fill:#FFDC5E;" points="463.453,396.129 262.701,396.129 223.793,274.049 463.453,274.049 "/>
<g>
	<circle style="fill:#E5BD2B;" cx="300.442" cy="477.629" r="26.805"/>
	<circle style="fill:#E5BD2B;" cx="432.608" cy="477.629" r="26.805"/>
</g>
<path style="fill:#FFDC5E;" d="M503.3,232.36h-26.77c-11.382,0-20.644,9.261-20.644,20.644v112.329v16.626v34.082H283.074  c-15.407,0-27.94,12.534-27.94,27.94v6.84c0,4.18,3.387,7.567,7.567,7.567h179.742c15.757,0,28.576-12.819,28.576-28.576v-47.854  v-16.626V253.003c0-3.038,2.471-5.509,5.509-5.509h26.77c4.18,0,7.567-3.387,7.567-7.567  C510.867,235.746,507.479,232.36,503.3,232.36z M442.443,443.254H270.306c0.38-6.722,5.953-12.078,12.769-12.078h172.742  C455.131,437.949,449.395,443.254,442.443,443.254z"/>
<polygon style="fill:#E5BD2B;" points="470.884,302.335 232.808,302.335 223.793,274.049 471.02,273.91 "/>
<polygon style="fill:#FFDC5E;" points="280.217,423.007 463.453,423.007 463.453,437.215 450.093,450.575 263.797,450.575   263.797,433.954 "/>
<g>
	<path style="opacity:0.51;fill:#E5BD2B;enable-background:new    ;" d="M434.411,274.049v73.434   c0,10.827-8.777,19.604-19.604,19.604H253.446l9.256,29.042H471.02V273.91L434.411,274.049z"/>
	<rect x="455.814" y="396.134" style="fill:#E5BD2B;" width="15.205" height="8.979"/>
</g>
<path d="M255.93,494.398c-0.414,0-0.826-0.021-1.239-0.025c-10.353-1.335-25.384-19.372-37.98-66.692  c-0.029-0.11-0.058-0.223-0.087-0.334c6.713,0.709,13.485,1.249,20.314,1.592c4.17,0.239,7.728-3.005,7.938-7.178  c0.21-4.174-3.005-7.728-7.179-7.937c-8.389-0.421-16.688-1.144-24.88-2.137c-5.632-25.224-9.792-54.112-12.306-85.169  c3.734,0.227,7.471,0.433,11.209,0.611c0.123,0.006,0.245,0.009,0.366,0.009c4.014,0,7.359-3.155,7.553-7.207  c0.199-4.175-3.024-7.72-7.198-7.919c-4.372-0.209-8.709-0.452-13.017-0.723c-1.141-18.281-1.731-37.192-1.731-56.457  c0-19.293,0.592-38.23,1.736-56.535c18.304-1.144,37.242-1.736,56.534-1.736c19.22,0,38.154,0.61,56.464,1.771  c0.895,14.294,1.456,28.974,1.657,43.906c0.055,4.179,3.48,7.517,7.668,7.464c4.18-0.057,7.521-3.489,7.464-7.668  c-0.192-14.249-0.725-28.516-1.587-42.601c31.227,2.553,60.231,6.741,85.193,12.282c0.734,6.043,1.322,12.143,1.745,18.296  c0.286,4.171,3.906,7.323,8.068,7.032c4.169-0.286,7.317-3.898,7.032-8.068c-0.31-4.514-0.711-9.001-1.183-13.464  c14.286,3.781,26.887,8.05,37.33,12.753c3.809,1.714,8.292,0.019,10.008-3.793c1.715-3.811,0.018-8.292-3.793-10.008  c-12.72-5.729-28.122-10.815-45.629-15.18c-3.563-23.473-9.377-45.989-17.224-66.928c39.252,21.834,67.415,51.747,79.507,84.559  c1.318,3.576,5.09,5.61,8.8,4.757c3.713-0.857,6.21-4.34,5.83-8.13l-2.838-28.261c-0.23-2.28-0.679-4.5-1.334-6.598  c-15.824-50.632-48.051-96.105-90.746-128.043C364.232,17.603,311.662,0.093,256.364,0.001c-0.076,0-0.151,0.002-0.227,0.002  c-0.07,0-0.138-0.003-0.208-0.003c-0.292,0-0.581,0.013-0.873,0.015C187.531,0.283,123.998,26.678,76.027,74.569  C28.658,121.861,2.17,184.358,1.192,250.932c-0.04,1.286-0.061,2.576-0.061,3.866c0,1.311,0.021,2.623,0.064,3.93  c0.901,57.655,21.469,113.653,58.148,158.096c37.016,44.854,88.601,75.941,145.25,87.532c16.102,3.295,32.654,5.014,49.232,5.15  c0.695,0.057,1.395,0.092,2.104,0.092c4.179,0,7.567-3.387,7.567-7.567c0-0.011-0.002-0.021-0.002-0.032s0.002-0.021,0.002-0.032  C263.498,497.786,260.109,494.398,255.93,494.398z M202.086,431.574c5.43,20.401,13.346,43.045,24.26,58.661  c-1.826-0.518-3.647-1.066-5.458-1.68c-33.926-11.506-64.893-40.06-87.385-80.495c20.958,7.854,43.482,13.661,66.969,17.217  C201,427.401,201.536,429.508,202.086,431.574z M196.828,409.369c-26.216-4.436-51.045-11.808-73.533-21.809  c-10.024-22.566-17.408-47.52-21.865-73.669c25.708,5.376,54.441,9.233,83.821,11.56  C187.625,355.79,191.532,384.207,196.828,409.369z M255.93,15.199c9.96,0,25.202,16.481,38.116,62.735  c0.398,1.423,0.788,2.863,1.174,4.318c-12.851-1.362-25.986-2.068-39.323-2.068c-13.267,0-26.379,0.699-39.253,2.051  c0.022-0.084,0.043-0.171,0.066-0.254C229.819,32.743,245.565,15.199,255.93,15.199z M285.376,19.274  c28.355,8.036,54.919,27.594,76.801,57.026c5.86,7.882,11.281,16.34,16.251,25.281c-20.833-7.804-43.372-13.653-67.046-17.246  C304.57,56.856,295.868,34.165,285.376,19.274z M202.086,78.089c-0.542,2.035-1.07,4.11-1.59,6.201  c-23.514,3.545-46.06,9.351-67.082,17.245c23.287-41.966,55.923-71.822,93.054-82.285C215.491,34.871,207.537,57.61,202.086,78.089z   M196.844,100.219c-5.299,25.157-9.209,53.57-11.586,83.908c-30.336,2.377-58.748,6.287-83.902,11.585  c4.502-26.595,11.975-51.423,21.849-73.648C145.428,112.19,170.254,104.72,196.844,100.219z M85.421,199.365  c-2.092,0.521-4.166,1.048-6.202,1.59c-20.477,5.45-43.213,13.404-58.835,24.381c10.464-37.128,40.319-69.759,82.28-93.046  C94.771,153.309,88.964,175.853,85.421,199.365z M83.367,215.514c-1.352,12.875-2.051,25.985-2.051,39.252  c0,13.309,0.689,26.435,2.034,39.312c-4.866-1.292-9.542-2.641-14.002-4.045C36.15,279.576,16.33,266.405,16.33,254.799  c0-10.365,17.544-26.111,66.782-39.219C83.196,215.558,83.283,215.537,83.367,215.514z M85.408,310.241  c3.529,23.459,9.312,45.953,17.253,67.029c-8.134-4.527-15.877-9.428-23.155-14.702c-30.599-22.175-50.872-49.259-59.093-78.272  C35.386,294.835,58.167,303.491,85.408,310.241z M184.193,310.189c-31.16-2.542-60.138-6.728-85.103-12.283  c-1.739-14.172-2.64-28.611-2.64-43.139c0-14.699,0.89-29.091,2.585-43.066c25.22-5.636,54.106-9.798,85.164-12.316  c-1.084,17.994-1.642,36.563-1.642,55.446C182.557,273.683,183.113,292.222,184.193,310.189z M255.962,181.426  c-18.883,0-37.451,0.558-55.445,1.642c2.517-31.055,6.679-59.939,12.315-85.16c13.976-1.695,28.367-2.588,43.067-2.588  c14.642,0,29.05,0.868,43.127,2.562c5.613,25.133,9.779,54.055,12.306,85.175C293.423,181.985,274.889,181.426,255.962,181.426z   M326.554,184.102c-2.363-29.837-6.24-58.48-11.566-83.922c26.147,4.408,50.944,11.773,73.676,21.933  c9.994,22.469,17.374,47.307,21.822,73.528C385.538,190.393,357.125,186.479,326.554,184.102z M481.28,173.054  c-19.435-25.257-47.484-46.566-81.217-62.379c-7.376-15.714-15.99-30.289-25.741-43.403c-11.24-15.117-23.672-27.86-36.962-38.058  C403.308,52.84,456.585,104.684,481.28,173.054z M86.72,85.281c25.167-25.126,54.886-43.964,87.264-55.762  c-15.485,11.996-29.789,27.485-42.446,46.214c-7.35,10.877-13.942,22.567-19.755,34.92c-12.353,5.813-24.043,12.405-34.92,19.756  c-18.707,12.641-34.198,26.928-46.188,42.39C42.519,140.302,61.464,110.496,86.72,85.281z M30.97,337.079  c10.59,13.612,23.873,26.306,39.656,37.744c12.56,9.102,26.386,17.169,41.211,24.129c2.328,4.937,4.775,9.784,7.358,14.522  c15.072,27.652,33.962,50.332,55.17,66.678C107.388,455.878,55.139,402.728,30.97,337.079z"/>
<path d="M503.3,232.36h-26.77c-11.382,0-20.644,9.261-20.644,20.644v13.478H223.793c-2.415,0-4.685,1.153-6.109,3.102  c-1.425,1.95-1.833,4.463-1.101,6.763l8.992,28.214c0.006,0.018,0.012,0.036,0.017,0.054l29.899,93.812  c1.001,3.138,3.916,5.27,7.21,5.27h193.184v12.344h-172.81c-15.407,0-27.94,12.534-27.94,27.94v6.84c0,4.18,3.387,7.567,7.567,7.567  h9.272c-3.724,5.494-5.903,12.116-5.903,19.238c0,18.954,15.419,34.373,34.373,34.373c18.953,0,34.372-15.419,34.372-34.373  c0-7.122-2.178-13.745-5.902-19.238h75.223c-3.724,5.494-5.903,12.116-5.903,19.238c0,18.954,15.419,34.373,34.373,34.373  c18.954,0,34.373-15.419,34.373-34.373c0-9.127-3.583-17.429-9.408-23.59c8.067-5.057,13.445-14.022,13.445-24.225v-33.683v-30.796  v-70.274v-21.009v-21.045c0-3.038,2.471-5.509,5.509-5.509h26.77c4.18,0,7.567-3.387,7.567-7.567  C510.864,235.747,507.479,232.36,503.3,232.36z M455.886,281.616v13.15H238.338l-4.191-13.15H455.886z M268.232,388.562  l-25.07-78.66h212.723v55.431v23.229L268.232,388.562L268.232,388.562z M283.074,431.176h172.742  c-0.686,6.773-6.421,12.078-13.373,12.078H270.306C270.686,436.532,276.259,431.176,283.074,431.176z M319.683,477.627  c0,10.608-8.63,19.238-19.237,19.238c-10.607,0-19.238-8.631-19.238-19.238s8.631-19.238,19.238-19.238  C311.053,458.389,319.683,467.019,319.683,477.627z M432.61,496.865c-10.608,0-19.238-8.631-19.238-19.238  s8.631-19.238,19.238-19.238s19.238,8.631,19.238,19.238S443.218,496.865,432.61,496.865z"/>
<g>
</g>
<g>
</g>
<g>
</g>
<g>
</g>
<g>
</g>
<g>
</g>
<g>
</g>
<g>
</g>
<g>
</g>
<g>
</g>
<g>
</g>
<g>
</g>
<g>
</g>
<g>
</g>
<g>
</g>
</svg>
