<?xml version="1.0" encoding="iso-8859-1"?>
<!-- Generator: Adobe Illustrator 19.0.0, SVG Export Plug-In . SVG Version: 6.00 Build 0)  -->
<svg xmlns="http://www.w3.org/2000/svg" xmlns:xlink="http://www.w3.org/1999/xlink" version="1.1" id="Layer_1" x="0px" y="0px" viewBox="0 0 512 512" style="enable-background:new 0 0 512 512;" xml:space="preserve">
<path style="fill:#679972;" d="M337.266,157.013V43.567l-56.184,19.346c-9.956,3.429-21.122,2.845-30.545-1.598l-78.128-50.381  l-26.802,17.817L96.86,61.155c-9.362,4.543-20.518,5.248-30.521,1.927L7.55,43.567v220.906c0,54.808,31.793,105.829,84.325,135.32  l80.533,45.212l80.533-45.212c8.176-4.59,15.849-9.701,22.979-15.267l61.346-45.029V157.013z"/>
<path style="fill:#406646;" d="M232.043,356.143l-59.636,32.863l-59.636-32.863c-38.899-21.437-62.443-58.523-62.443-98.363V97.207  l43.533,14.186c7.408,2.414,15.669,1.902,22.602-1.4l55.944-36.506l57.855,36.622c6.978,3.228,15.247,3.653,22.619,1.161  l41.604-14.062v160.574C294.487,297.62,270.943,334.706,232.043,356.143z"/>
<polygon style="fill:#FFFFFF;" points="50.329,260.602 294.487,204.099 294.487,139.806 50.329,196.309 "/>
<path style="opacity:0.43;fill:#2C4F30;enable-background:new    ;" d="M298.081,57.032l-3.596,25.804L270.937,201.65  c-11.893,60.004-44.463,113.932-92.036,152.387l0,0c-8.87,6.925,10.171-5.711,0,0l-48.787,67.267l42.215,23.7l80.533-45.212  c8.176-4.59,15.849-9.701,22.979-15.267l61.346-45.029V157.013V43.566L298.081,57.032z"/>
<path style="fill:#FFDC5E;" d="M487.536,501.067H317.741c-9.303,0-16.914-7.611-16.914-16.914V340.385  c0-9.303,7.611-16.914,16.914-16.914h169.796c9.303,0,16.914,7.611,16.914,16.914v143.768  C504.45,493.456,496.839,501.067,487.536,501.067z"/>
<path style="opacity:0.21;fill:#CCA61C;enable-background:new    ;" d="M487.536,323.471h-8.367v135.401  c0,9.303-7.611,16.914-16.914,16.914H300.827v8.367c0,9.303,7.611,16.914,16.914,16.914h169.796c9.303,0,16.914-7.611,16.914-16.914  V340.385C504.45,331.082,496.839,323.471,487.536,323.471z"/>
<g>
	<path style="fill:#FFDC5E;" d="M377.301,166.692c-34.657,9.033-60.314,40.6-60.314,78.047c0,8.339,6.761,15.1,15.1,15.1   s15.1-6.761,15.1-15.1c0-27.813,22.629-50.442,50.442-50.442s50.442,22.629,50.442,50.442v78.731h30.2V244.74   c0-44.466-36.175-80.642-80.642-80.642L377.301,166.692z"/>
	<path style="fill:#FFDC5E;" d="M347.186,297.783v28.127h-30.2v-28.127c0-8.339,6.761-15.1,15.1-15.1l0,0   C340.427,282.683,347.186,289.444,347.186,297.783z"/>
</g>
<g>
	<path style="fill:#CCA61C;" d="M420.525,359.674c-5.102-3.551-11.298-5.637-17.985-5.637c-9.634,0-18.253,4.326-24.037,11.134   l-0.013,0.006c-0.082,0.094-0.159,0.191-0.24,0.285c-0.021,0.025-0.042,0.05-0.063,0.076c-4.775,5.605-7.662,12.868-7.662,20.809   c0,11.579,6.131,21.724,15.32,27.373v38.256c0,7.375,6.034,13.41,13.41,13.41h6.766c7.375,0,13.41-6.034,13.41-13.41v-38.257   c9.19-5.649,15.32-15.795,15.32-27.373C434.751,375.232,429.104,365.439,420.525,359.674z"/>
	<rect x="448.075" y="304.294" style="opacity:0.47;fill:#CCA61C;enable-background:new    ;" width="30.2" height="19.177"/>
	<rect x="316.988" y="304.294" style="opacity:0.47;fill:#CCA61C;enable-background:new    ;" width="30.2" height="19.177"/>
</g>
<path d="M168.317,17.279l78.128,50.381c0.28,0.18,0.571,0.342,0.873,0.484c11.203,5.281,24.406,5.976,36.223,1.907l46.177-15.9  v102.863c0,4.17,3.38,7.55,7.55,7.55c4.17,0,7.55-3.38,7.55-7.55V43.567c0-2.44-1.179-4.729-3.166-6.147  c-1.986-1.416-4.535-1.786-6.842-0.992l-56.185,19.346c-7.978,2.746-16.857,2.346-24.439-1.09L176.5,4.588  c-3.502-2.258-8.176-1.25-10.437,2.254C163.803,10.346,164.812,15.019,168.317,17.279z"/>
<path d="M271.274,378.574c-6.863,5.357-14.274,10.282-22.029,14.635l-76.837,43.137L95.57,393.208  C45.183,364.92,15.1,316.795,15.1,264.471V54.028l48.86,16.219c11.871,3.94,25.064,3.103,36.197-2.299  c0.306-0.148,0.601-0.317,0.883-0.505l48.747-32.404c3.473-2.308,4.416-6.995,2.108-10.467s-6.994-4.416-10.466-2.108l-48.3,32.107  c-7.53,3.511-16.399,4.006-24.411,1.346L9.929,36.401c-2.302-0.763-4.83-0.375-6.797,1.044C1.165,38.865,0,41.141,0,43.567v220.905  c0,28.305,8.163,56.365,23.605,81.147c15.366,24.658,37.694,45.667,64.573,60.757l80.533,45.212  c1.148,0.644,2.422,0.966,3.695,0.966s2.548-0.322,3.695-0.966l80.533-45.212c8.417-4.725,16.467-10.075,23.929-15.9  c3.287-2.566,3.872-7.31,1.305-10.597C279.305,376.592,274.561,376.007,271.274,378.574z"/>
<path d="M487.536,315.921h-1.715V244.74c0-48.629-39.563-88.192-88.192-88.192c-4.17,0-7.55,3.38-7.55,7.55s3.38,7.55,7.55,7.55  c40.303,0,73.092,32.789,73.092,73.092v71.181h-15.1V244.74c0-31.977-26.015-57.992-57.992-57.992s-57.992,26.015-57.992,57.992  c0,4.164-3.386,7.55-7.55,7.55c-4.164,0-7.55-3.386-7.55-7.55c0-33.262,22.481-62.352,54.668-70.741  c4.035-1.051,6.454-5.175,5.402-9.21c-1.051-4.035-5.172-6.454-9.21-5.402c-38.836,10.122-65.959,45.22-65.959,85.353  c0,12.49,10.16,22.65,22.65,22.65c12.49,0,22.65-10.16,22.65-22.65c0-23.65,19.241-42.892,42.892-42.892  s42.892,19.241,42.892,42.892v71.181h-85.784v-18.138c0-12.49-10.16-22.65-22.65-22.65c-12.49,0-22.65,10.16-22.65,22.65v19.591  c-9.414,3.408-16.161,12.435-16.161,23.011v143.768c0,13.489,10.975,24.464,24.464,24.464h169.796  c13.489,0,24.464-10.975,24.464-24.464V340.385C512,326.896,501.025,315.921,487.536,315.921z M324.538,297.783  c0-4.164,3.386-7.55,7.55-7.55c4.164,0,7.55,3.386,7.55,7.55v17.557h-15.1V297.783z M496.9,484.153c0,5.163-4.201,9.364-9.364,9.364  H317.741c-5.163,0-9.364-4.201-9.364-9.364V340.385c0-5.163,4.201-9.364,9.364-9.364h130.33h30.2h9.265  c5.163,0,9.364,4.201,9.364,9.364L496.9,484.153L496.9,484.153z"/>
<path d="M402.638,346.684c-4.17,0-7.55,3.38-7.55,7.55c0,4.17,3.38,7.55,7.55,7.55c13.544,0,24.563,11.019,24.563,24.563  c0,8.599-4.383,16.428-11.724,20.942c-2.235,1.374-3.596,3.809-3.596,6.432v38.256c0,3.23-2.628,5.86-5.86,5.86h-6.766  c-3.23,0-5.859-2.628-5.859-5.86v-38.256c0-2.622-1.362-5.057-3.596-6.432c-7.342-4.513-11.725-12.342-11.725-20.942  c0-5.963,2.162-11.713,6.09-16.19c2.75-3.135,2.438-7.904-0.696-10.654c-3.134-2.748-7.904-2.438-10.654,0.696  c-6.345,7.232-9.839,16.518-9.839,26.148c0,12.417,5.654,23.836,15.32,31.319v34.31c0,11.556,9.402,20.96,20.959,20.96h6.766  c11.556,0,20.96-9.402,20.96-20.96v-34.31c9.666-7.483,15.32-18.902,15.32-31.319C442.301,364.475,424.508,346.684,402.638,346.684z  "/>
<path d="M42.849,261.604c1.429,41.34,25.974,78.939,66.28,101.15l59.636,32.864c1.134,0.625,2.389,0.937,3.644,0.937  c1.255,0,2.51-0.313,3.644-0.937l59.636-32.863c41.546-22.895,66.349-62.138,66.349-104.976V97.207c0-2.433-1.172-4.716-3.148-6.135  c-1.976-1.417-4.517-1.798-6.819-1.018l-41.605,14.063c-5.424,1.832-11.451,1.583-16.613-0.672l-57.405-36.337  c-2.497-1.58-5.688-1.559-8.164,0.056l-55.489,36.209c-5.124,2.307-11.143,2.616-16.591,0.842L52.669,90.028  c-2.297-0.748-4.818-0.352-6.774,1.069c-1.957,1.42-3.115,3.691-3.115,6.109V257.78c0,0.704,0.025,1.403,0.038,2.105  C42.764,260.449,42.77,261.024,42.849,261.604z M286.937,198.096L57.88,251.105v-48.793l229.057-53.009V198.096z M228.399,349.53  C228.399,349.531,228.399,349.531,228.399,349.53l-55.992,30.856l-55.992-30.856c-33.77-18.61-54.987-49.193-58.119-83.023  l228.638-52.911v44.184C286.937,295.032,265.053,329.332,228.399,349.53z M91.524,118.571c9.241,3.012,19.515,2.37,28.188-1.763  c0.304-0.145,0.597-0.31,0.879-0.493l51.879-33.854l53.755,34.026c0.279,0.176,0.569,0.335,0.868,0.473  c8.727,4.037,19.008,4.57,28.207,1.461l31.637-10.694v26.075L57.88,186.813v-79.204L91.524,118.571z"/>
<g>
</g>
<g>
</g>
<g>
</g>
<g>
</g>
<g>
</g>
<g>
</g>
<g>
</g>
<g>
</g>
<g>
</g>
<g>
</g>
<g>
</g>
<g>
</g>
<g>
</g>
<g>
</g>
<g>
</g>
</svg>
