<?xml version="1.0" encoding="iso-8859-1"?>
<!-- Generator: Adobe Illustrator 19.0.0, SVG Export Plug-In . SVG Version: 6.00 Build 0)  -->
<svg xmlns="http://www.w3.org/2000/svg" xmlns:xlink="http://www.w3.org/1999/xlink" version="1.1" id="Layer_1" x="0px" y="0px" viewBox="0 0 512.001 512.001" style="enable-background:new 0 0 512.001 512.001;" xml:space="preserve">
<path style="fill:#FF6746;" d="M235.818,224.19c11.52,10.477,19.149,16.689,19.149,16.689S431.895,96.849,367.953,26.126  C315.066-32.37,254.967,58.98,254.967,58.98s-60.099-91.35-112.986-32.855c-39.349,43.523,12.522,114.809,58.242,163.205  L235.818,224.19z"/>
<g style="opacity:0.25;">
	<path style="fill:#892813;" d="M235.818,224.19c11.52,10.477,19.149,16.689,19.149,16.689S431.895,96.849,367.953,26.126   c-6.334-7.006-12.771-11.843-19.196-14.964c35.261,73.942-121.747,201.76-121.747,201.76L235.818,224.19z"/>
</g>
<g>
	<path style="fill:#FF6746;" d="M61.967,293.701c5.795,5.271,9.634,8.396,9.634,8.396s89.005-72.455,56.838-108.033   c-26.605-29.427-56.838,16.527-56.838,16.527s-30.233-45.955-56.838-16.527c-19.795,21.895,6.299,57.756,29.299,82.101   L61.967,293.701z"/>
	<path style="fill:#FF6746;" d="M430.766,293.701c5.795,5.271,9.634,8.396,9.634,8.396s89.005-72.455,56.838-108.033   c-26.605-29.427-56.838,16.527-56.838,16.527s-30.233-45.955-56.838-16.527c-19.795,21.895,6.299,57.756,29.299,82.101   L430.766,293.701z"/>
</g>
<g style="opacity:0.23;">
	<path style="fill:#892813;" d="M496.957,194.063c-9.275-10.259-18.99-11.351-27.712-8.427c3.925,1.462,7.878,4.14,11.754,8.427   c26.145,28.917-27.76,82.197-48.859,101.132c4.857,4.358,7.979,6.901,7.979,6.901S529.123,229.641,496.957,194.063z"/>
</g>
<g style="opacity:0.23;">
	<path style="fill:#892813;" d="M128.439,194.063c-9.275-10.259-18.99-11.351-27.712-8.427c3.925,1.462,7.878,4.14,11.754,8.427   c26.145,28.917-27.76,82.197-48.859,101.132c4.856,4.358,7.979,6.901,7.979,6.901S160.605,229.641,128.439,194.063z"/>
</g>
<path style="fill:#FFA591;" d="M331.018,504.4c18.601,0,33.68-15.079,33.68-33.68V321.829v-18.326c0-11.759-9.621-21.38-21.38-21.38  l0,0c-11.759,0-21.38,9.621-21.38,21.38v18.326v-18.326c0-11.759-9.621-21.38-21.38-21.38l0,0c-11.759,0-21.38,9.621-21.38,21.38  v18.326v-18.326c0-11.759-9.621-21.38-21.38-21.38l0,0c-11.759,0-21.38,9.621-21.38,21.38v18.326v-14.522V205.551  c0-11.73-9.597-21.327-21.327-21.327l0,0c-11.73,0-21.327,9.597-21.327,21.327v31.937v25.704v76.216v19.876v-29.306  c0-15.397-12.482-27.879-27.88-27.879h-11.025v89.298c0,9.01,1.686,17.941,4.971,26.33l33.935,86.675h110.166h27.083V504.4z"/>
<g style="opacity:0.63;">
	<path style="fill:#FF8E76;" d="M343.32,282.124L343.32,282.124c-2.181,0-4.286,0.334-6.271,0.947v13.724v142.451   c0,17.797-14.428,32.224-32.224,32.224h-25.913h-98.036l12.892,32.929h110.166h27.084c18.601,0,33.68-15.079,33.68-33.68V321.829   v-18.326C364.7,291.745,355.079,282.124,343.32,282.124z"/>
	<path style="fill:#FF8E76;" d="M173.469,303.148c0.025,0.478,0.04,0.959,0.04,1.443v-1.432   C173.496,303.156,173.483,303.152,173.469,303.148z"/>
</g>
<path d="M303.934,496.801H198.954l-32.044-81.847c-2.952-7.538-4.448-15.464-4.448-23.559v-81.699h3.426  c11.183,0,20.281,9.098,20.281,20.281v9.43v19.875c0,4.198,3.402,7.599,7.599,7.599s7.599-3.401,7.599-7.599v-19.875v-9.43v-66.786  c0-4.198-3.402-7.599-7.599-7.599s-7.599,3.401-7.599,7.599v37.7c-5.753-4.024-12.744-6.394-20.281-6.394h-11.025  c-4.197,0-7.599,3.401-7.599,7.599v89.298c0,9.999,1.848,19.79,5.494,29.1l33.935,86.676c1.14,2.912,3.949,4.829,7.077,4.829  h110.166c4.197,0,7.599-3.401,7.599-7.599C311.534,500.204,308.131,496.801,303.934,496.801z"/>
<path d="M343.32,274.525c-8.457,0-16.077,3.643-21.38,9.439c-5.302-5.797-12.923-9.439-21.38-9.439s-16.077,3.643-21.38,9.439  c-5.302-5.797-12.923-9.439-21.38-9.439c-4.985,0-9.68,1.266-13.78,3.492v-36.806c4.078,3.511,6.498,5.485,6.673,5.629  c1.397,1.137,3.098,1.706,4.798,1.706s3.4-0.569,4.798-1.706c5.026-4.091,123.15-101.072,128.967-177.234  c1.419-18.574-3.833-34.596-15.609-47.621C359.322,6.141,343.052-1.202,325.288,0.16c-31.26,2.398-58.028,31.732-69.796,46.767  C243.724,31.893,216.957,2.559,185.697,0.16c-17.766-1.364-34.034,5.979-48.36,21.823c-32.908,36.399-14.399,94.374,53.477,167.873  c-2.934,4.524-4.647,9.911-4.647,15.694v31.937c0,4.198,3.402,7.599,7.599,7.599s7.599-3.401,7.599-7.599v-31.937  c0-4.037,1.762-7.66,4.543-10.174c0.094-0.081,0.193-0.156,0.284-0.242c0.042-0.04,0.077-0.082,0.117-0.123  c2.382-1.989,5.444-3.19,8.783-3.19c7.57,0,13.727,6.159,13.727,13.728v97.953v3.804v14.522c0,4.198,3.402,7.599,7.599,7.599  s7.599-3.401,7.599-7.599v-14.522v-3.804c0-7.598,6.182-13.78,13.78-13.78c7.598,0,13.78,6.182,13.78,13.78v18.326  c0,4.198,3.402,7.599,7.599,7.599s7.599-3.401,7.599-7.599v-18.326c0-7.598,6.182-13.78,13.78-13.78s13.78,6.182,13.78,13.78v18.326  c0,4.198,3.402,7.599,7.599,7.599s7.599-3.401,7.599-7.599v-18.326c0-7.598,6.182-13.78,13.78-13.78  c7.598,0,13.78,6.182,13.78,13.78v18.326v148.89c0,14.381-11.7,26.082-26.081,26.082c-4.197,0-7.599,3.401-7.599,7.599  c0,4.198,3.402,7.599,7.599,7.599c22.762,0,41.28-18.518,41.28-41.281v-148.89v-18.326  C372.299,287.525,359.299,274.525,343.32,274.525z M215.095,176.623c-4.66,0-9.062,1.115-12.966,3.08  c-25.847-27.971-44.361-53.658-55.045-76.408c-14.238-30.322-13.724-54.249,1.527-71.118c11.154-12.337,22.896-17.856,35.894-16.866  c33.849,2.573,64.337,48.206,64.638,48.662c1.404,2.134,3.79,3.419,6.345,3.421c0.002,0,0.003,0,0.005,0  c2.553,0,4.938-1.286,6.344-3.416c0.304-0.461,30.794-46.095,64.641-48.667c12.998-0.982,24.74,4.528,35.894,16.866  c8.995,9.947,12.831,21.809,11.729,36.261c-4.692,61.534-96.433,143.584-118.617,162.579c-2.814-2.403-6.749-5.822-11.464-10.066  v-15.4C244.021,189.6,231.045,176.623,215.095,176.623z"/>
<path d="M106.57,176.715c-15.029,1.153-27.719,12.951-34.969,21.393c-7.25-8.441-19.94-20.241-34.969-21.393  c-7.016-0.544-17.47,1.151-27.507,12.251c-12.916,14.287-18.297,41.916,29.413,92.417c2.881,3.05,7.692,3.188,10.742,0.306  c3.051-2.883,3.188-7.693,0.305-10.743c-17.956-19.006-45.623-53.606-29.187-71.787c4.799-5.309,9.719-7.695,15.046-7.292  c12.644,0.951,25.808,16.86,29.807,22.9c1.405,2.136,3.792,3.423,6.349,3.423c2.557,0,4.943-1.287,6.349-3.423  c3.972-6.038,17.067-21.923,29.784-22.898c5.333-0.416,10.263,1.975,15.069,7.29c3.814,4.218,5.438,9.29,4.965,15.507  c-1.936,25.427-37.583,61.327-56.143,77.467c-1.308-1.143-2.84-2.505-4.544-4.054c-3.106-2.824-7.912-2.596-10.735,0.51  c-2.824,3.105-2.596,7.911,0.51,10.735c5.881,5.348,9.786,8.534,9.949,8.666c1.397,1.137,3.097,1.706,4.798,1.706  s3.4-0.569,4.798-1.706c2.59-2.109,63.462-52.094,66.523-92.159c0.798-10.451-2.177-19.49-8.845-26.865  C124.038,177.866,113.58,176.169,106.57,176.715z"/>
<path d="M502.874,188.966c-10.036-11.1-20.497-12.796-27.506-12.251c-15.03,1.153-27.719,12.951-34.969,21.393  c-7.25-8.441-19.94-20.241-34.969-21.393c-7.01-0.546-17.469,1.15-27.506,12.251c-12.916,14.287-18.298,41.916,29.413,92.417  c2.881,3.05,7.692,3.188,10.742,0.306c3.051-2.883,3.188-7.693,0.305-10.743c-17.956-19.006-45.624-53.606-29.186-71.787  c4.799-5.308,9.716-7.694,15.046-7.292c12.644,0.951,25.808,16.86,29.807,22.9c1.405,2.136,3.792,3.423,6.349,3.423  c2.557,0,4.943-1.287,6.349-3.423c3.972-6.038,17.067-21.923,29.784-22.898c5.335-0.416,10.263,1.975,15.069,7.29  c3.815,4.218,5.438,9.29,4.965,15.507c-1.936,25.427-37.583,61.327-56.143,77.467c-1.307-1.143-2.84-2.505-4.543-4.054  c-3.106-2.824-7.912-2.597-10.735,0.51c-2.824,3.104-2.597,7.911,0.509,10.735c5.881,5.348,9.786,8.534,9.949,8.666  c1.397,1.137,3.098,1.706,4.798,1.706c1.7,0,3.4-0.569,4.798-1.706c2.59-2.109,63.463-52.094,66.523-92.159  C512.517,205.379,509.541,196.34,502.874,188.966z"/>
<g>
</g>
<g>
</g>
<g>
</g>
<g>
</g>
<g>
</g>
<g>
</g>
<g>
</g>
<g>
</g>
<g>
</g>
<g>
</g>
<g>
</g>
<g>
</g>
<g>
</g>
<g>
</g>
<g>
</g>
</svg>
