<?xml version="1.0" encoding="iso-8859-1"?>
<!-- Generator: Adobe Illustrator 19.0.0, SVG Export Plug-In . SVG Version: 6.00 Build 0)  -->
<svg xmlns="http://www.w3.org/2000/svg" xmlns:xlink="http://www.w3.org/1999/xlink" version="1.1" id="Layer_1" x="0px" y="0px" viewBox="0 0 512 512" style="enable-background:new 0 0 512 512;" xml:space="preserve">
<path style="fill:#565159;" d="M400.273,268.124v203.829c0,17.844-14.6,32.444-32.444,32.444h-223.66  c-17.844,0-32.444-14.6-32.444-32.444V40.048c0-17.844,14.6-32.444,32.444-32.444h223.66c17.844,0,32.444,14.6,32.444,32.444  v193.281V268.124z"/>
<rect x="111.728" y="84.891" style="fill:#E0E0E2;" width="288.546" height="338.904"/>
<rect x="111.728" y="322.885" style="fill:#4AA9E7;" width="288.546" height="100.92"/>
<g>
	<path style="fill:#E0E0E2;" d="M285.98,56.179h-63.356c-5.354,0-9.735-4.381-9.735-9.735l0,0c0-5.354,4.381-9.735,9.735-9.735   h63.356c5.354,0,9.735,4.381,9.735,9.735l0,0C295.716,51.799,291.335,56.179,285.98,56.179z"/>
	<path style="fill:#E0E0E2;" d="M254.302,472.016L254.302,472.016c-5.354,0-9.735-4.381-9.735-9.735l0,0   c0-5.354,4.381-9.735,9.735-9.735l0,0c5.354,0,9.735,4.381,9.735,9.735l0,0C264.037,467.635,259.656,472.016,254.302,472.016z"/>
</g>
<path style="fill:#FF6746;" d="M305.061,129.547c0,0,41.154,38.313,41.154,39.307s-19.539,33.649-19.539,33.649l-21.615-14.264  v91.741h-92.937V188.24l-21.615,14.264c0,0-19.539-32.655-19.539-33.649c0-0.995,41.154-39.307,41.154-39.307l1.494-0.64  C242.861,116.389,275.997,116.621,305.061,129.547L305.061,129.547z"/>
<g>
	<path style="fill:#CD3B1C;" d="M258.587,148.344c14.641,0,26.718-10.532,28.448-24.705v-0.354   c-18.648-4.789-38.222-4.799-56.885-0.002C231.749,137.597,243.845,148.344,258.587,148.344z"/>
	<path style="fill:#CD3B1C;" d="M305.061,261.047c0,0-92.937,0.113-92.937,0v18.935h92.937V261.047z"/>
</g>
<path style="fill:#FFDC5E;" d="M285.037,389.787h-54.408c-11.057,0-20.105-9.047-20.105-20.105l0,0  c0-11.057,9.047-20.105,20.105-20.105h54.408c11.057,0,20.105,9.047,20.105,20.105l0,0  C305.141,380.74,296.095,389.787,285.037,389.787z"/>
<polygon style="opacity:0.23;fill:#FFFFFF;enable-background:new    ;" points="243.666,423.8 167.946,423.8 273.519,84.893   349.239,84.893 "/>
<path style="opacity:0.26;fill:#3F3C43;enable-background:new    ;" d="M367.83,7.604h-16.279v177.002v34.796v203.829  c0,17.844-14.6,32.444-32.444,32.444H111.726v16.279c0,17.844,14.6,32.444,32.444,32.444h223.66c17.844,0,32.444-14.6,32.444-32.444  V268.124v-34.796V40.048C400.273,22.203,385.674,7.604,367.83,7.604z"/>
<path d="M367.83,0H144.17c-22.082,0-40.048,17.966-40.048,40.048v431.905c0,22.082,17.966,40.048,40.048,40.048H367.83  c22.082,0,40.048-17.966,40.048-40.048V268.124c0-4.2-3.404-7.604-7.604-7.604s-7.604,3.404-7.604,7.604v47.154H119.331V40.048  c0-13.697,11.142-24.84,24.84-24.84H367.83c13.697,0,24.84,11.142,24.84,24.84v37.241H139.058c-4.2,0-7.604,3.404-7.604,7.604  s3.404,7.604,7.604,7.604h253.611v140.831c0,4.2,3.404,7.604,7.604,7.604s7.604-3.404,7.604-7.604V40.048  C407.877,17.966,389.913,0,367.83,0z M367.83,496.792H144.17c-13.697,0-24.84-11.142-24.84-24.84v-40.547h273.339v40.547  C392.669,485.65,381.527,496.792,367.83,496.792z M392.669,330.486v85.711H119.331v-85.711H392.669z"/>
<path d="M285.98,63.783c9.561,0,17.339-7.778,17.339-17.339s-7.778-17.338-17.339-17.338h-63.356  c-9.561,0-17.339,7.778-17.339,17.339s7.778,17.339,17.339,17.339h63.356V63.783z M220.493,46.445c0-1.156,0.975-2.131,2.131-2.131  h63.356c1.156,0,2.131,0.975,2.131,2.131s-0.975,2.131-2.131,2.131h-63.356C221.468,48.575,220.493,47.6,220.493,46.445z"/>
<path d="M254.302,444.942c-9.561,0-17.339,7.778-17.339,17.339c0,9.562,7.778,17.34,17.339,17.34c9.561,0,17.339-7.778,17.339-17.34  C271.64,452.72,263.862,444.942,254.302,444.942z M254.302,464.413c-1.156,0-2.131-0.976-2.131-2.132s0.975-2.131,2.131-2.131  s2.131,0.975,2.131,2.131S255.457,464.413,254.302,464.413z"/>
<path d="M204.521,279.981c0,4.2,3.404,7.604,7.604,7.604h92.936c4.2,0,7.604-3.404,7.604-7.604v-69.345v-8.268l9.822,6.483  c1.733,1.143,3.855,1.529,5.878,1.068c2.023-0.461,3.77-1.729,4.835-3.51c20.618-34.457,20.618-34.93,20.618-37.552  c0-3.903,0-3.903-22.963-25.558c-10.189-9.608-20.509-19.218-20.613-19.314c-0.615-0.573-1.323-1.04-2.092-1.382  c-25.06-11.145-53.177-13.413-79.493-6.772c-0.311,0.063-0.616,0.142-0.911,0.24c-5.814,1.516-11.54,3.46-17.119,5.849l-1.494,0.64  c-0.807,0.345-1.547,0.826-2.189,1.424c-0.103,0.096-10.424,9.706-20.613,19.314c-22.963,21.655-22.963,21.655-22.963,25.558  c0,2.623,0,3.095,20.618,37.552c1.066,1.781,2.811,3.049,4.835,3.51c2.024,0.461,4.146,0.075,5.878-1.068l9.822-6.483v8.268v69.345  H204.521z M219.729,272.377v-3.686c2.013,0.003,4.353,0.006,6.959,0.007c2.895,0.001,6.108,0.002,9.534,0.002  c6.897,0,14.658-0.003,22.415-0.008c15.055-0.009,30.095-0.023,38.818-0.033v3.718L219.729,272.377L219.729,272.377z   M277.653,129.022c-3.345,7.046-10.564,11.717-19.06,11.717c-8.327,0-15.575-4.741-18.962-11.729  C252.198,126.752,265.093,126.756,277.653,129.022z M192.964,191.773c-5.069-8.524-9.941-16.813-12.705-21.656  c6.654-6.523,21.949-20.94,36.078-34.101l0.275-0.118c2.663-1.141,5.366-2.163,8.098-3.075  c5.194,13.642,18.488,23.124,33.883,23.124c15.378,0,28.739-9.494,33.94-23.112c2.798,0.936,5.566,1.985,8.292,3.159  c14.134,13.166,29.445,27.597,36.101,34.123c-2.765,4.843-7.636,13.133-12.705,21.656l-11.557-7.626v-12.475  c0-4.2-3.404-7.604-7.604-7.604s-7.604,3.404-7.604,7.604v16.568v22.396v42.815c-27.742,0.03-62.73,0.055-77.728,0.031v-42.848  v-22.396v-16.568c0-4.2-3.404-7.604-7.604-7.604c-4.2,0-7.604,3.404-7.604,7.604v12.475L192.964,191.773z"/>
<path d="M230.629,397.391h54.408c15.279,0,27.709-12.43,27.709-27.708c0-15.279-12.43-27.709-27.709-27.709h-54.408  c-15.278,0-27.708,12.43-27.708,27.709C202.921,384.961,215.351,397.391,230.629,397.391z M230.629,357.182h54.408  c6.893,0,12.501,5.608,12.501,12.501c0,6.892-5.608,12.5-12.501,12.5h-54.408c-6.892,0-12.5-5.608-12.5-12.5  C218.129,362.79,223.736,357.182,230.629,357.182z"/>
<g>
</g>
<g>
</g>
<g>
</g>
<g>
</g>
<g>
</g>
<g>
</g>
<g>
</g>
<g>
</g>
<g>
</g>
<g>
</g>
<g>
</g>
<g>
</g>
<g>
</g>
<g>
</g>
<g>
</g>
</svg>
