<?xml version="1.0" encoding="iso-8859-1"?>
<!-- Generator: Adobe Illustrator 19.0.0, SVG Export Plug-In . SVG Version: 6.00 Build 0)  -->
<svg xmlns="http://www.w3.org/2000/svg" xmlns:xlink="http://www.w3.org/1999/xlink" version="1.1" id="Layer_1" x="0px" y="0px" viewBox="0 0 512 512" style="enable-background:new 0 0 512 512;" xml:space="preserve">
<polygon style="fill:#E0E0E2;" points="103.285,7.604 504.396,7.604 504.396,504.396 7.604,504.396 7.604,7.604 53.532,7.604 "/>
<polygon style="opacity:0.13;fill:#3F3C43;enable-background:new    ;" points="445.798,7.604 445.798,438.476 9.153,438.476   9.153,504.396 505.945,504.396 505.945,7.604 "/>
<path style="fill:#FF6746;" d="M309.29,201.065c0,0,45.829,42.664,45.829,43.772c0,1.107-21.758,37.471-21.758,37.471l-24.07-15.884  v102.164H205.796V266.425l-24.07,15.884c0,0-21.758-36.364-21.758-37.471s45.829-43.772,45.829-43.772l1.664-0.713  C240.024,186.412,276.924,186.67,309.29,201.065L309.29,201.065z"/>
<path style="opacity:0.39;fill:#892813;enable-background:new    ;" d="M309.29,347.502c0,0-103.494,0.125-103.494,0v21.086H309.29  V347.502z"/>
<g style="opacity:0.39;">
	<path style="fill:#892813;" d="M255.993,221.996c16.304,0,29.753-11.728,31.68-27.511v-0.394   c-20.766-5.333-42.563-5.344-63.346-0.002C226.106,210.03,239.576,221.996,255.993,221.996z"/>
</g>
<polygon style="fill:#565159;" points="504.038,7.604 102.928,7.604 53.175,7.604 7.246,7.604 7.246,84.97 504.038,84.97 "/>
<circle style="fill:#FF6746;" cx="454.494" cy="44.63" r="14.346"/>
<circle style="fill:#4AA9E7;" cx="399.948" cy="44.63" r="14.346"/>
<circle style="fill:#FFDC5E;" cx="346.862" cy="44.63" r="14.346"/>
<path style="fill:#E0E0E2;" d="M235.2,55.327H58.036c-6.151,0-11.184-5.033-11.184-11.184l0,0c0-6.151,5.033-11.184,11.184-11.184  H235.2c6.151,0,11.184,5.033,11.184,11.184l0,0C246.384,50.295,241.351,55.327,235.2,55.327z"/>
<g>
	<polygon style="fill:#FFDC5E;" points="466.291,279.334 424.96,243.344 424.96,265.15 382.677,265.15 382.677,293.517    424.96,293.517 424.96,315.323  "/>
	<polygon style="fill:#FFDC5E;" points="48.221,279.334 89.552,315.323 89.552,293.517 131.835,293.517 131.835,265.15    89.552,265.15 89.552,243.344  "/>
</g>
<path d="M337.422,217.003c-11.344-10.697-22.835-21.397-22.951-21.504c-0.615-0.573-1.323-1.04-2.092-1.382  c-27.739-12.336-58.867-14.842-87.996-7.483c-0.317,0.064-0.628,0.144-0.929,0.245c-6.449,1.678-12.8,3.833-18.989,6.483  l-1.664,0.712c-0.806,0.346-1.547,0.827-2.189,1.425c-0.115,0.106-11.606,10.807-22.951,21.504  c-25.301,23.86-25.301,23.86-25.301,27.834c0,2.593,0,3.209,22.837,41.376c1.066,1.781,2.811,3.049,4.835,3.51  c2.024,0.461,4.146,0.075,5.878-1.068l12.278-8.102v10.813v77.223c0,4.2,3.404,7.604,7.604,7.604h103.494  c4.2,0,7.604-3.404,7.604-7.604v-77.223v-10.813l12.277,8.102c1.733,1.143,3.857,1.529,5.878,1.068  c2.023-0.461,3.77-1.729,4.835-3.509c22.838-38.168,22.838-38.783,22.838-41.377C362.723,240.863,362.723,240.863,337.422,217.003z   M280.02,199.839c-3.63,8.711-12.265,14.553-22.477,14.553c-10.014,0-18.695-5.934-22.375-14.567  C249.979,197.02,265.218,197.027,280.02,199.839z M213.4,360.984v-5.835c2.424,0.004,5.329,0.007,8.615,0.009  c3.225,0.002,6.803,0.003,10.62,0.003c7.679,0,16.322-0.004,24.959-0.009c17.275-0.01,34.53-0.027,44.092-0.039v5.87H213.4z   M330.907,271.579l-14.013-9.247v-14.357c0-4.2-3.404-7.604-7.604-7.604c-4.2,0-7.604,3.404-7.604,7.604v18.449v24.941v48.542  c-31.578,0.034-71.942,0.063-88.286,0.034v-48.576v-24.941v-18.449c0-4.2-3.404-7.604-7.604-7.604c-4.2,0-7.604,3.404-7.604,7.604  v14.357l-14.014,9.247c-6.02-10.116-11.849-20.035-14.948-25.487c7.178-7.065,24.656-23.543,40.778-38.559l0.444-0.191  c3.245-1.389,6.542-2.619,9.876-3.707c5.445,15.276,20.147,25.965,37.215,25.965c17.051,0,31.823-10.705,37.273-25.956  c3.458,1.129,6.877,2.412,10.239,3.865c16.128,15.022,33.621,31.515,40.803,38.583C342.756,251.544,336.926,261.463,330.907,271.579  z"/>
<path d="M504.396,0H103.285c-4.2,0-7.604,3.404-7.604,7.604s3.404,7.604,7.604,7.604h393.507v62.159H44.568  c-4.2,0-7.604,3.404-7.604,7.604s3.404,7.604,7.604,7.604h452.224v404.217H15.208V15.208h38.324c4.2,0,7.604-3.404,7.604-7.604  S57.731,0,53.532,0H7.604C3.404,0,0,3.404,0,7.604v496.792c0,4.2,3.404,7.604,7.604,7.604h496.792c4.2,0,7.604-3.404,7.604-7.604  V7.604C512,3.404,508.596,0,504.396,0z"/>
<path d="M476.443,44.63c0-12.102-9.846-21.948-21.947-21.948c-12.101,0-21.948,9.847-21.948,21.948s9.847,21.948,21.948,21.948  C466.597,66.578,476.443,56.732,476.443,44.63z M447.755,44.63c0-3.717,3.023-6.74,6.74-6.74c3.716,0,6.739,3.023,6.739,6.74  s-3.023,6.74-6.739,6.74C450.778,51.37,447.755,48.347,447.755,44.63z"/>
<path d="M421.9,44.63c0-12.102-9.847-21.948-21.948-21.948c-12.101,0-21.947,9.847-21.947,21.948s9.846,21.948,21.947,21.948  C412.054,66.578,421.9,56.732,421.9,44.63z M393.212,44.63c0-3.717,3.023-6.74,6.739-6.74c3.717,0,6.74,3.023,6.74,6.74  s-3.023,6.74-6.74,6.74C396.235,51.37,393.212,48.347,393.212,44.63z"/>
<path d="M368.806,44.63c0-12.102-9.847-21.948-21.948-21.948c-12.101,0-21.948,9.847-21.948,21.948s9.847,21.948,21.948,21.948  C358.96,66.578,368.806,56.732,368.806,44.63z M340.117,44.63c0-3.717,3.023-6.74,6.74-6.74c3.717,0,6.74,3.023,6.74,6.74  s-3.023,6.74-6.74,6.74C343.14,51.37,340.117,48.347,340.117,44.63z"/>
<path d="M39.249,44.144c0,10.36,8.428,18.787,18.788,18.787H235.2c10.36,0,18.787-8.428,18.787-18.787s-8.428-18.787-18.787-18.787  H58.036C47.677,25.357,39.249,33.784,39.249,44.144z M238.78,44.144c0,1.941-1.638,3.579-3.579,3.579H58.036  c-1.941,0-3.58-1.638-3.58-3.579s1.639-3.579,3.58-3.579H235.2C237.14,40.565,238.78,42.203,238.78,44.144z"/>
<path d="M421.81,322.244c1.009,0.459,2.082,0.683,3.149,0.683c1.801,0,3.583-0.64,4.994-1.87l41.331-35.989  c1.659-1.445,2.611-3.535,2.611-5.734s-0.952-4.29-2.611-5.734l-41.331-35.989c-2.25-1.96-5.432-2.422-8.143-1.186  c-2.713,1.235-4.454,3.941-4.454,6.921v14.202h-34.679c-4.2,0-7.604,3.404-7.604,7.604v28.367c0,4.2,3.404,7.604,7.604,7.604h34.679  v14.202C417.356,318.303,419.097,321.009,421.81,322.244z M390.281,285.913v-13.159h34.679c4.2,0,7.604-3.404,7.604-7.604v-5.102  l22.148,19.285l-22.148,19.285v-5.102c0-4.2-3.404-7.604-7.604-7.604h-34.679V285.913z"/>
<path d="M92.703,236.423c-2.711-1.234-5.896-0.773-8.143,1.186l-41.331,35.989c-1.659,1.445-2.611,3.535-2.611,5.734  c0,2.199,0.952,4.29,2.611,5.734l41.331,35.989c1.412,1.23,3.193,1.87,4.994,1.87c1.068,0,2.14-0.224,3.149-0.683  c2.713-1.235,4.454-3.941,4.454-6.921V301.12h34.679c4.2,0,7.604-3.404,7.604-7.604v-28.367c0-4.2-3.404-7.604-7.604-7.604h-34.68  v-14.202C97.156,240.364,95.416,237.658,92.703,236.423z M124.231,272.754v13.159H89.552c-4.2,0-7.604,3.404-7.604,7.604v5.102  l-22.148-19.285l22.148-19.285v5.102c0,4.2,3.404,7.604,7.604,7.604h34.679V272.754z"/>
<path d="M95.972,420.346c0,4.2,3.404,7.604,7.604,7.604h320.908c4.2,0,7.604-3.404,7.604-7.604c0-4.2-3.404-7.604-7.604-7.604  H103.576C99.377,412.742,95.972,416.146,95.972,420.346z"/>
<path d="M46.853,139.962h101.375c4.2,0,7.604-3.404,7.604-7.604c0-4.2-3.404-7.604-7.604-7.604H46.853  c-4.2,0-7.604,3.404-7.604,7.604S42.652,139.962,46.853,139.962z"/>
<path d="M46.853,171.761h101.375c4.2,0,7.604-3.404,7.604-7.604c0-4.2-3.404-7.604-7.604-7.604H46.853  c-4.2,0-7.604,3.404-7.604,7.604C39.249,168.358,42.652,171.761,46.853,171.761z"/>
<path d="M424.484,444.609H103.576c-4.2,0-7.604,3.404-7.604,7.604s3.404,7.604,7.604,7.604h320.908c4.2,0,7.604-3.404,7.604-7.604  S428.684,444.609,424.484,444.609z"/>
<g>
</g>
<g>
</g>
<g>
</g>
<g>
</g>
<g>
</g>
<g>
</g>
<g>
</g>
<g>
</g>
<g>
</g>
<g>
</g>
<g>
</g>
<g>
</g>
<g>
</g>
<g>
</g>
<g>
</g>
</svg>
