<?xml version="1.0" encoding="iso-8859-1"?>
<!-- Generator: Adobe Illustrator 19.0.0, SVG Export Plug-In . SVG Version: 6.00 Build 0)  -->
<svg xmlns="http://www.w3.org/2000/svg" xmlns:xlink="http://www.w3.org/1999/xlink" version="1.1" id="Layer_1" x="0px" y="0px" viewBox="0 0 512 512" style="enable-background:new 0 0 512 512;" xml:space="preserve">
<path style="fill:#FF8E76;" d="M389.376,93.667h87.646c15.056,0,27.374,12.318,27.374,27.374v269.918  c0,15.056-12.318,27.374-27.374,27.374H34.978c-15.056,0-27.374-12.318-27.374-27.374V121.041c0-15.056,12.318-27.374,27.374-27.374  h308.556H389.376z"/>
<g>
	<polygon style="fill:#FF6746;" points="7.604,213.147 504.393,213.147 504.393,168.606 494.63,168.606 257.416,168.606    7.604,168.606  "/>
	<rect x="248.923" y="292.742" style="fill:#FF6746;" width="175.489" height="44.422"/>
</g>
<g style="opacity:0.46;">
	<path style="fill:#FF6746;" d="M477.019,93.667h-50.06C373.092,259.489,258.321,359.711,157.77,418.333h319.249   c15.056,0,27.374-12.318,27.374-27.374V121.041C504.393,105.985,492.075,93.667,477.019,93.667z"/>
</g>
<path d="M477.022,86.063h-87.646c-4.199,0-7.604,3.405-7.604,7.604s3.405,7.604,7.604,7.604h87.646  c10.901,0,19.77,8.869,19.77,19.77v40.278c-0.686-0.204-1.41-0.316-2.163-0.316H257.416c-4.199,0-7.604,3.405-7.604,7.604  s3.405,7.604,7.604,7.604H494.63c0.752,0,1.476-0.114,2.163-0.316v29.649H172.4c8.077-4.674,16.458-10.665,24.098-18.305  c18.678-18.678,46.287-54.292,31.286-69.294c-14.999-14.999-50.616,12.608-69.294,31.286  c-13.261,13.261-21.576,28.753-26.595,41.004c-5.019-12.249-13.333-27.742-26.595-41.004  c-18.678-18.678-54.291-46.288-69.295-31.286c-15.001,15.002,12.607,50.616,31.286,69.294c7.64,7.64,16.022,13.631,24.098,18.305  H15.208v-84.502c0-10.901,8.869-19.77,19.77-19.77h88.628v33.526c0,4.199,3.405,7.604,7.604,7.604c4.199,0,7.604-3.405,7.604-7.604  v-33.526h204.719c4.199,0,7.604-3.405,7.604-7.604s-3.405-7.604-7.604-7.604H34.978C15.692,86.063,0,101.754,0,121.041v269.918  c0,19.287,15.692,34.978,34.978,34.978h442.044c19.287,0,34.978-15.692,34.978-34.978V121.041  C512,101.754,496.309,86.063,477.022,86.063z M169.244,159.983c21.662-21.662,40.789-31.176,46.972-31.176  c0.24,0,0.461,0.014,0.662,0.043c0.764,5.363-8.629,25.131-31.133,47.634c-13.762,13.761-30.725,21.532-42.059,25.539  C147.675,190.715,155.426,173.8,169.244,159.983z M46.913,128.85c5.369-0.757,25.132,8.63,47.634,31.134  c13.761,13.761,21.532,30.725,25.539,42.058c-11.309-3.988-28.224-11.74-42.041-25.557C55.542,153.98,46.149,134.213,46.913,128.85z   M477.022,410.729H138.815V256c0-4.199-3.405-7.604-7.604-7.604c-4.199,0-7.604,3.405-7.604,7.604v154.729H34.978  c-10.901,0-19.77-8.869-19.77-19.77V220.751h86.897c-2.129,1.403-4.299,2.893-6.474,4.466  c-22.737,16.458-34.265,33.338-34.265,50.17c0,4.199,3.405,7.604,7.604,7.604c4.199,0,7.604-3.405,7.604-7.604  c0-22.675,36.902-45.254,54.641-53.849c17.744,8.578,54.633,31.124,54.633,53.849c0,4.199,3.405,7.604,7.604,7.604  c4.199,0,7.604-3.405,7.604-7.604c0-16.832-11.529-33.712-34.265-50.17c-2.175-1.575-4.344-3.063-6.473-4.466h336.475v170.208  C496.792,401.86,487.923,410.729,477.022,410.729z"/>
<path d="M424.41,285.14H248.923c-4.199,0-7.604,3.405-7.604,7.604v44.422c0,4.199,3.405,7.604,7.604,7.604H424.41  c4.199,0,7.604-3.405,7.604-7.604v-44.422C432.014,288.545,428.61,285.14,424.41,285.14z M416.807,329.563H256.527v-29.214h160.279  V329.563z"/>
<g>
</g>
<g>
</g>
<g>
</g>
<g>
</g>
<g>
</g>
<g>
</g>
<g>
</g>
<g>
</g>
<g>
</g>
<g>
</g>
<g>
</g>
<g>
</g>
<g>
</g>
<g>
</g>
<g>
</g>
</svg>
