<?xml version="1.0" encoding="iso-8859-1"?>
<!-- Generator: Adobe Illustrator 19.0.0, SVG Export Plug-In . SVG Version: 6.00 Build 0)  -->
<svg xmlns="http://www.w3.org/2000/svg" xmlns:xlink="http://www.w3.org/1999/xlink" version="1.1" id="Layer_1" x="0px" y="0px" viewBox="0 0 512 512" style="enable-background:new 0 0 512 512;" xml:space="preserve">
<g>
	<path style="fill:#FFD644;" d="M108.075,69.357h327.058c38.127,0,69.323,31.195,69.323,69.323l0,0   c0,38.127-31.195,69.323-69.323,69.323h-21.227H80.808c-38.127,0-69.323-31.195-69.323-69.323l0,0   c0-38.127,31.195-69.323,69.323-69.323C80.808,69.357,108.075,69.357,108.075,69.357z"/>
	<polygon style="fill:#FFD644;" points="363.253,297.033 76.445,297.033 48.504,297.033 7.545,297.033 7.545,345.827    43.146,345.827 43.146,442.644 77.573,442.644 77.573,345.827 107.907,345.827 107.907,442.64 141.927,442.64 142.943,345.847    363.253,345.847  "/>
</g>
<path style="fill:#CCA61C;" d="M346.074,297.033c-0.556,0.381-10.287,7.268-10.287,23.041c0,16.237,8.317,25.773,8.317,25.773  h24.112v-48.814L346.074,297.033L346.074,297.033z"/>
<path style="fill:#FFD644;" d="M425.945,252.99c-12.185,0-23.672,2.966-33.807,8.187l-0.089,0.021  c-0.307,0.159-0.608,0.328-0.913,0.491c-0.252,0.135-0.503,0.269-0.754,0.405c-0.928,0.51-1.847,1.033-2.751,1.582  c-0.059,0.036-0.117,0.074-0.176,0.111c-0.848,0.518-1.682,1.056-2.508,1.608c-0.241,0.161-0.482,0.325-0.721,0.489  c-0.75,0.513-1.49,1.038-2.219,1.577c-0.13,0.097-0.264,0.189-0.393,0.286c-0.839,0.629-1.661,1.279-2.471,1.942  c-0.208,0.17-0.413,0.344-0.618,0.516c-0.649,0.543-1.289,1.098-1.92,1.662c-0.186,0.168-0.375,0.332-0.56,0.501  c-0.771,0.705-1.527,1.426-2.268,2.162c-0.147,0.147-0.29,0.298-0.436,0.446c-0.611,0.619-1.21,1.248-1.799,1.886  c-0.193,0.209-0.386,0.418-0.576,0.63c-0.704,0.782-1.396,1.574-2.066,2.386c-0.031,0.037-0.06,0.076-0.091,0.114  c-0.641,0.779-1.262,1.574-1.87,2.38c-0.174,0.23-0.347,0.463-0.518,0.696c-0.534,0.723-1.056,1.457-1.564,2.2  c-0.097,0.142-0.198,0.281-0.294,0.424c-0.586,0.87-1.151,1.756-1.7,2.652c-0.14,0.228-0.276,0.461-0.413,0.691  c-0.435,0.727-0.858,1.463-1.269,2.205c-0.126,0.226-0.254,0.452-0.376,0.68c-0.499,0.927-0.981,1.863-1.441,2.813  c-0.089,0.183-0.172,0.37-0.26,0.554c-0.378,0.798-0.742,1.605-1.094,2.418c-0.115,0.267-0.23,0.533-0.342,0.802  c-0.411,0.988-0.81,1.982-1.179,2.991c-0.008,0.022-0.015,0.046-0.024,0.068c-0.36,0.987-0.693,1.986-1.012,2.992  c-0.09,0.283-0.176,0.566-0.263,0.85c-0.265,0.87-0.514,1.746-0.746,2.629c-0.048,0.184-0.103,0.366-0.149,0.551  c-0.267,1.044-0.507,2.098-0.729,3.159c-0.055,0.267-0.106,0.534-0.158,0.802c-0.17,0.86-0.324,1.726-0.464,2.598  c-0.043,0.269-0.09,0.535-0.13,0.805c-0.161,1.083-0.302,2.171-0.415,3.269c-0.021,0.201-0.034,0.404-0.054,0.607  c-0.089,0.927-0.159,1.858-0.212,2.795c-0.018,0.306-0.035,0.611-0.049,0.918c-0.051,1.126-0.086,2.256-0.086,3.394  c0,12.185,2.966,23.672,8.187,33.807l0.021,0.089c0.159,0.307,0.328,0.608,0.491,0.913c0.135,0.252,0.269,0.503,0.405,0.754  c0.51,0.928,1.033,1.847,1.582,2.751c0.036,0.059,0.074,0.117,0.111,0.176c0.518,0.849,1.057,1.684,1.609,2.51  c0.161,0.241,0.323,0.48,0.487,0.718c0.513,0.751,1.039,1.491,1.58,2.221c0.097,0.13,0.188,0.263,0.286,0.392  c0.629,0.839,1.279,1.661,1.942,2.471c0.17,0.208,0.344,0.413,0.516,0.619c0.543,0.65,1.098,1.289,1.662,1.92  c0.167,0.187,0.332,0.375,0.501,0.56c0.705,0.771,1.425,1.527,2.162,2.268c0.147,0.147,0.298,0.29,0.446,0.436  c0.619,0.611,1.248,1.21,1.886,1.799c0.209,0.193,0.418,0.386,0.63,0.576c0.782,0.703,1.574,1.396,2.386,2.066  c0.037,0.031,0.076,0.06,0.114,0.091c0.779,0.641,1.574,1.262,2.38,1.87c0.23,0.174,0.463,0.346,0.695,0.518  c0.723,0.534,1.457,1.056,2.2,1.564c0.142,0.097,0.281,0.198,0.424,0.294c0.87,0.587,1.756,1.151,2.652,1.7  c0.228,0.14,0.46,0.275,0.69,0.412c0.728,0.436,1.464,0.859,2.208,1.27c0.226,0.125,0.45,0.253,0.677,0.375  c0.927,0.499,1.864,0.981,2.814,1.442c0.183,0.089,0.368,0.171,0.552,0.259c0.799,0.379,1.606,0.743,2.42,1.094  c0.267,0.115,0.533,0.229,0.802,0.342c0.988,0.411,1.983,0.81,2.992,1.179c0.022,0.008,0.044,0.015,0.065,0.023  c0.988,0.36,1.988,0.694,2.995,1.013c0.282,0.09,0.565,0.176,0.849,0.262c0.87,0.265,1.747,0.514,2.631,0.746  c0.184,0.048,0.365,0.102,0.549,0.149c1.044,0.267,2.099,0.507,3.16,0.729c0.266,0.055,0.534,0.105,0.801,0.158  c0.861,0.17,1.726,0.325,2.599,0.464c0.269,0.043,0.535,0.09,0.805,0.13c1.083,0.161,2.171,0.302,3.269,0.415  c0.201,0.021,0.404,0.034,0.607,0.053c0.927,0.089,1.859,0.159,2.796,0.212c0.306,0.018,0.611,0.035,0.918,0.049  c1.126,0.051,2.256,0.086,3.394,0.086c40.838,0,73.944-33.105,73.944-73.944C499.888,286.096,466.783,252.99,425.945,252.99z   M425.945,356.854c-16.525,0-29.92-13.396-29.92-29.92c0-16.525,13.396-29.92,29.92-29.92c16.525,0,29.92,13.396,29.92,29.92  C455.864,343.458,442.468,356.854,425.945,356.854z"/>
<g>
	<path style="fill:#CCA61C;" d="M469.544,267.224c8.943,12.226,14.234,27.292,14.234,43.601c0,40.838-33.105,73.944-73.944,73.944   c-1.138,0-2.269-0.035-3.394-0.086c-0.307-0.014-0.612-0.031-0.918-0.049c-0.937-0.053-1.868-0.124-2.796-0.212   c-0.202-0.019-0.405-0.033-0.607-0.054c-1.098-0.114-2.186-0.254-3.269-0.415c-0.27-0.04-0.536-0.087-0.805-0.13   c-0.871-0.14-1.737-0.294-2.599-0.464c-0.267-0.053-0.535-0.103-0.801-0.158c-1.061-0.222-2.116-0.463-3.16-0.729   c-0.184-0.047-0.366-0.101-0.549-0.149c-0.883-0.232-1.761-0.482-2.631-0.747c-0.284-0.086-0.566-0.172-0.849-0.262   c-1.007-0.319-2.007-0.653-2.995-1.013c-0.022-0.008-0.044-0.015-0.065-0.023c-1.009-0.369-2.004-0.768-2.992-1.179   c-0.269-0.112-0.534-0.226-0.802-0.341c-0.814-0.351-1.621-0.715-2.42-1.094c-0.183-0.087-0.369-0.17-0.552-0.259   c-0.95-0.461-1.887-0.942-2.814-1.442c-0.227-0.123-0.452-0.25-0.677-0.375c-0.744-0.41-1.48-0.834-2.208-1.27   c-0.23-0.138-0.462-0.273-0.69-0.413c-0.896-0.549-1.782-1.114-2.652-1.7c-0.143-0.097-0.282-0.197-0.424-0.294   c-0.654-0.448-1.297-0.909-1.936-1.376c0.08,0.111,0.157,0.225,0.238,0.335c0.097,0.13,0.188,0.263,0.286,0.392   c0.629,0.839,1.279,1.661,1.942,2.471c0.17,0.208,0.344,0.412,0.516,0.619c0.543,0.65,1.098,1.289,1.662,1.92   c0.167,0.187,0.332,0.375,0.501,0.56c0.705,0.771,1.425,1.527,2.162,2.268c0.147,0.147,0.298,0.29,0.446,0.436   c0.619,0.611,1.247,1.21,1.886,1.799c0.209,0.193,0.419,0.386,0.63,0.576c0.782,0.703,1.574,1.396,2.386,2.066   c0.037,0.031,0.076,0.06,0.114,0.091c0.779,0.641,1.574,1.262,2.38,1.87c0.23,0.174,0.463,0.346,0.695,0.518   c0.723,0.534,1.457,1.056,2.2,1.564c0.142,0.097,0.281,0.198,0.424,0.294c0.87,0.587,1.756,1.151,2.652,1.7   c0.228,0.14,0.46,0.275,0.69,0.413c0.728,0.436,1.464,0.859,2.208,1.27c0.226,0.125,0.45,0.253,0.677,0.375   c0.927,0.499,1.864,0.981,2.814,1.442c0.183,0.089,0.368,0.171,0.552,0.259c0.799,0.379,1.606,0.743,2.42,1.094   c0.267,0.115,0.533,0.229,0.802,0.342c0.988,0.411,1.983,0.81,2.992,1.179c0.022,0.008,0.044,0.015,0.065,0.023   c0.988,0.36,1.988,0.694,2.995,1.013c0.282,0.09,0.565,0.176,0.849,0.262c0.87,0.265,1.746,0.514,2.631,0.747   c0.184,0.048,0.365,0.102,0.549,0.149c1.044,0.267,2.099,0.507,3.16,0.729c0.266,0.055,0.534,0.105,0.801,0.158   c0.861,0.17,1.726,0.325,2.599,0.464c0.269,0.043,0.535,0.09,0.805,0.13c1.083,0.161,2.171,0.302,3.269,0.415   c0.201,0.021,0.404,0.034,0.607,0.053c0.927,0.089,1.859,0.159,2.796,0.212c0.306,0.018,0.611,0.035,0.918,0.049   c1.126,0.051,2.256,0.086,3.394,0.086c40.838,0,73.944-33.105,73.944-73.944C499.888,302.404,487.935,280.676,469.544,267.224z"/>
	<rect x="7.545" y="326.93" style="fill:#CCA61C;" width="339.565" height="18.912"/>
	<rect x="42.755" y="345.844" style="fill:#CCA61C;" width="34.819" height="18.912"/>
	<polygon style="fill:#CCA61C;" points="142.745,364.759 107.907,364.759 107.972,345.847 142.943,345.847  "/>
</g>
<path d="M146.882,122.712c-1.288-3.964-5.543-6.133-9.508-4.844l-21.753,7.069v-22.873c0-4.168-3.378-7.545-7.545-7.545  s-7.545,3.377-7.545,7.545v22.873l-21.753-7.069c-3.968-1.288-8.221,0.88-9.508,4.844c-1.288,3.963,0.88,8.22,4.844,9.507  l21.754,7.069l-13.445,18.504c-2.45,3.371-1.702,8.09,1.669,10.539c1.34,0.974,2.891,1.443,4.429,1.443  c2.333,0,4.634-1.079,6.111-3.112l13.445-18.504l13.444,18.504c1.477,2.033,3.778,3.112,6.111,3.112  c1.537-0.001,3.09-0.469,4.429-1.443c3.371-2.45,4.119-7.168,1.67-10.539l-13.445-18.504l21.753-7.069  C146.001,130.931,148.169,126.676,146.882,122.712z"/>
<path d="M246.812,122.712c-1.288-3.964-5.545-6.133-9.508-4.844l-21.753,7.069v-22.873c0-4.168-3.378-7.545-7.545-7.545  s-7.545,3.377-7.545,7.545v22.873l-21.753-7.069c-3.966-1.288-8.221,0.88-9.508,4.844c-1.288,3.963,0.88,8.22,4.844,9.507  l21.754,7.069l-13.445,18.504c-2.45,3.371-1.702,8.09,1.669,10.539c1.339,0.974,2.891,1.443,4.429,1.443  c2.333,0,4.634-1.079,6.111-3.112l13.445-18.504l13.444,18.504c1.477,2.033,3.778,3.112,6.111,3.112  c1.537-0.001,3.09-0.469,4.429-1.443c3.371-2.45,4.119-7.168,1.67-10.539l-13.445-18.504l21.753-7.069  C245.93,130.931,248.099,126.676,246.812,122.712z"/>
<path d="M346.741,122.712c-1.288-3.964-5.543-6.133-9.508-4.844l-21.753,7.069v-22.873c0-4.168-3.378-7.545-7.545-7.545  c-4.167,0-7.545,3.377-7.545,7.545v22.873l-21.753-7.069c-3.968-1.288-8.22,0.88-9.508,4.844c-1.288,3.963,0.88,8.22,4.844,9.507  l21.754,7.069l-13.445,18.504c-2.45,3.371-1.702,8.09,1.669,10.539c1.34,0.974,2.891,1.443,4.429,1.443  c2.333,0,4.634-1.079,6.111-3.112l13.445-18.504l13.444,18.504c1.477,2.033,3.778,3.112,6.111,3.112  c1.537-0.001,3.09-0.469,4.429-1.443c3.371-2.45,4.119-7.168,1.67-10.539l-13.445-18.504l21.753-7.069  C345.86,130.931,348.029,126.676,346.741,122.712z"/>
<path d="M383.88,168.331c1.339,0.974,2.891,1.443,4.429,1.443c2.333,0,4.634-1.079,6.111-3.112l13.445-18.504l13.444,18.504  c1.477,2.033,3.778,3.112,6.111,3.112c1.537-0.001,3.09-0.469,4.429-1.443c3.371-2.45,4.119-7.168,1.67-10.539l-13.445-18.504  l21.753-7.069c3.963-1.288,6.132-5.544,4.844-9.507c-1.288-3.964-5.545-6.133-9.508-4.844l-21.753,7.069v-22.873  c0-4.168-3.378-7.545-7.545-7.545c-4.167,0-7.545,3.377-7.545,7.545v22.873l-21.753-7.069c-3.966-1.288-8.221,0.88-9.508,4.844  c-1.288,3.963,0.88,8.22,4.844,9.507l21.754,7.069l-13.445,18.504C379.762,161.163,380.509,165.882,383.88,168.331z"/>
<path d="M80.808,215.547h333.098c4.167,0,7.545-3.377,7.545-7.545s-3.378-7.545-7.545-7.545H80.808  c-34.064,0-61.777-27.713-61.777-61.776s27.713-61.776,61.777-61.776c4.167,0,7.545-3.377,7.545-7.545  c0-4.168-3.378-7.545-7.545-7.545c-42.385,0-76.868,34.482-76.868,76.867S38.422,215.547,80.808,215.547z"/>
<path d="M108.075,76.903h327.058c34.063,0,61.776,27.713,61.776,61.776s-27.713,61.776-61.776,61.776  c-4.167,0-7.545,3.377-7.545,7.545c0,4.168,3.378,7.545,7.545,7.545c42.384,0,76.867-34.482,76.867-76.867  s-34.483-76.867-76.867-76.867H108.075c-4.167,0-7.545,3.377-7.545,7.545S103.908,76.903,108.075,76.903z"/>
<path d="M425.944,245.445c-4.167,0-7.545,3.377-7.545,7.545s3.378,7.545,7.545,7.545c36.613,0,66.399,29.785,66.399,66.398  s-29.786,66.399-66.399,66.399s-66.399-29.786-66.399-66.399c0-24.949,13.782-47.568,35.967-59.032  c3.702-1.913,5.153-6.465,3.24-10.166c-1.913-3.703-6.463-5.152-10.167-3.241c-15.382,7.948-27.468,20.269-35.075,35.007  c-0.106-0.004-0.21-0.016-0.318-0.016H76.445c-4.167,0-7.545,3.377-7.545,7.545c0,4.168,3.378,7.545,7.545,7.545h239.786  c-1.754,4.151-3.013,9.289-3.013,15.495c0,7.243,1.443,13.381,3.241,18.228H142.944c-4.136,0-7.502,3.33-7.545,7.466l-0.939,89.327  h-19.007v-89.267c0-4.168-3.378-7.545-7.545-7.545H77.572c-4.167,0-7.545,3.377-7.545,7.545v89.271H50.69v-89.271  c0-4.168-3.378-7.545-7.545-7.545H15.091v-33.704h33.412c4.167,0,7.545-3.377,7.545-7.545c0-4.168-3.378-7.545-7.545-7.545H7.545  c-4.167,0-7.545,3.377-7.545,7.545v48.795c0,4.168,3.378,7.545,7.545,7.545H35.6v89.271c0,4.168,3.378,7.545,7.545,7.545h34.427  c4.167,0,7.545-3.377,7.545-7.545v-89.271h15.244v89.267c0,4.168,3.378,7.545,7.545,7.545h34.02c4.136,0,7.502-3.33,7.545-7.466  l0.939-89.327h178.411c0.101,0.004,0.201,0.016,0.302,0.016c0.121,0,0.242-0.01,0.363-0.016h19.402  c11.012,31.982,41.383,55.031,77.056,55.031c44.934,0,81.49-36.556,81.49-81.49C507.434,282.001,470.877,245.445,425.944,245.445z   M333.032,338.301c-1.929-3.291-4.722-9.547-4.722-18.228c0-8.417,3.499-13.325,5.565-15.495h13.677  c-2.029,7.157-3.098,14.666-3.098,22.357c0,3.858,0.289,7.65,0.81,11.367h-12.232V338.301z"/>
<path d="M388.479,326.934c0,20.658,16.807,37.466,37.466,37.466c20.658,0,37.466-16.807,37.466-37.466  c0-20.658-16.807-37.465-37.466-37.465C405.286,289.469,388.479,306.275,388.479,326.934z M425.944,304.56  c12.337,0,22.375,10.037,22.375,22.374c0,12.338-10.037,22.375-22.375,22.375s-22.375-10.037-22.375-22.375  C403.57,314.597,413.606,304.56,425.944,304.56z"/>
<g>
</g>
<g>
</g>
<g>
</g>
<g>
</g>
<g>
</g>
<g>
</g>
<g>
</g>
<g>
</g>
<g>
</g>
<g>
</g>
<g>
</g>
<g>
</g>
<g>
</g>
<g>
</g>
<g>
</g>
</svg>
