<?xml version="1.0" encoding="iso-8859-1"?>
<!-- Generator: Adobe Illustrator 19.0.0, SVG Export Plug-In . SVG Version: 6.00 Build 0)  -->
<svg xmlns="http://www.w3.org/2000/svg" xmlns:xlink="http://www.w3.org/1999/xlink" version="1.1" id="Layer_1" x="0px" y="0px" viewBox="0 0 512 512" style="enable-background:new 0 0 512 512;" xml:space="preserve">
<path style="fill:#3F3C43;" d="M99.844,70.282c-6.54,17.871-23.699,30.627-43.836,30.627c-25.773,0-46.666-20.893-46.666-46.666  S30.236,7.577,56.008,7.577c20.136,0,37.294,12.755,43.835,30.625L99.844,70.282z"/>
<path style="fill:#78777E;" d="M204.416,475.499h282.205c8.858,0,16.039-7.181,16.039-16.039c0-8.858-7.181-16.039-16.039-16.039  H205.664l-30.238-30.135V54.243c0-8.858-7.181-16.039-16.039-16.039h-17.815h-26.988H56.007c-8.858,0-16.039,7.181-16.039,16.039  s7.181,16.039,16.039,16.039h87.342v343.445L204.416,475.499z"/>
<polygon style="fill:#EE8F21;" points="443.841,176.47 487.34,176.47 487.34,444.076 219.735,444.076 219.735,176.47   409.694,176.47 "/>
<polygon style="fill:#844F1A;" points="377.354,208.583 455.227,208.583 455.227,411.963 251.847,411.963 251.847,208.583   332.97,208.583 "/>
<rect x="333.79" y="176.411" style="fill:#FF6746;" width="39.491" height="84.195"/>
<polygon style="fill:#4AA9E7;" points="247.177,33.039 363.722,33.039 363.722,176.406 220.356,176.406 220.356,33.039 "/>
<g>
	<polygon style="opacity:0.49;fill:#3C7BB8;enable-background:new    ;" points="342.921,33.039 342.921,156.201 220.356,156.201    220.356,176.406 363.722,176.406 363.722,33.039  "/>
	<polygon style="fill:#3C7BB8;" points="328.181,101.855 292.039,55.324 255.897,101.855 277,101.855 277,147.769 307.079,147.769    307.079,101.855  "/>
</g>
<circle style="fill:#C7C4CB;" cx="161.248" cy="457.758" r="46.664"/>
<circle style="fill:#78777E;" cx="161.248" cy="457.758" r="16.655"/>
<polygon style="opacity:0.31;fill:#562F10;enable-background:new    ;" points="443.841,176.47 426.719,176.47 426.719,384.631   219.735,384.631 219.735,444.076 487.34,444.076 487.34,176.47 "/>
<path d="M494.918,437.355V175.46c0-4.184-3.391-7.577-7.577-7.577h-43.5c-4.186,0-7.577,3.392-7.577,7.577  c0,4.184,3.391,7.577,7.577,7.577h35.923v252.451H227.312V183.037h98.903v16.959h-74.368c-4.186,0-7.577,3.392-7.577,7.577v203.38  c0,4.185,3.391,7.577,7.577,7.577h203.38c4.186,0,7.577-3.392,7.577-7.577v-203.38c0-4.184-3.391-7.577-7.577-7.577H380.86v-16.959  h28.833c4.186,0,7.577-3.392,7.577-7.577c0-4.184-3.391-7.577-7.577-7.577h-38.394V31.305c0-4.184-3.391-7.577-7.577-7.577H247.177  c-4.186,0-7.577,3.392-7.577,7.577c0,4.184,3.391,7.577,7.577,7.577h108.967v128.212H227.933V31.305  c0-4.184-3.391-7.577-7.577-7.577c-4.186,0-7.577,3.392-7.577,7.577v141.151c-0.398,0.921-0.621,1.936-0.621,3.004v260.386h-1.304  c-5.486-12.371-15.46-22.317-27.851-27.764V54.243c0-13.022-10.594-23.616-23.616-23.616h-17.815c-4.186,0-7.577,3.392-7.577,7.577  s3.391,7.577,7.577,7.577h17.815c4.665,0,8.462,3.796,8.462,8.462v349.688c-2.165-0.264-4.363-0.415-6.598-0.415  c-3.531,0-6.98,0.351-10.325,0.998V70.281c0-4.184-3.391-7.577-7.577-7.577H56.007c-4.665,0-8.462-3.796-8.462-8.461  c0-4.666,3.797-8.462,8.462-8.462h58.577c4.186,0,7.577-3.392,7.577-7.577s-3.391-7.577-7.577-7.577h-9.745  C95.865,12.112,76.874,0,56.007,0C26.099,0,1.765,24.333,1.765,54.243c0,29.909,24.333,54.242,54.242,54.242  c20.866,0,39.857-12.112,48.832-30.627h30.933v332.031c-17.1,9.138-28.765,27.164-28.765,47.869  c0,29.91,24.333,54.243,54.243,54.243c20.768,0,38.838-11.738,47.95-28.923h277.42c13.021,0,23.615-10.594,23.615-23.615  C510.236,449.359,503.857,440.721,494.918,437.355z M56.007,93.331c-21.554,0-39.088-17.535-39.088-39.088  c0-21.554,17.535-39.089,39.088-39.089c12.391,0,23.863,5.925,31.138,15.473H56.007c-13.022,0-23.616,10.594-23.616,23.616  c0,13.021,10.594,23.615,23.616,23.615h31.138C79.871,87.406,68.398,93.331,56.007,93.331z M447.65,215.15v188.226H259.424V215.15  h66.791v44.444c0,4.184,3.391,7.577,7.577,7.577h39.491c4.186,0,7.577-3.392,7.577-7.577V215.15L447.65,215.15L447.65,215.15z   M365.706,252.017h-24.337v-68.979h24.337V252.017z M161.251,496.846c-21.554,0-39.089-17.535-39.089-39.089  s17.535-39.089,39.089-39.089s39.088,17.535,39.088,39.089S182.805,496.846,161.251,496.846z M486.621,467.922H214.524  c0.627-3.295,0.969-6.691,0.969-10.166c0-2.289-0.159-4.541-0.435-6.757H486.62c4.665,0,8.461,3.796,8.461,8.461  C495.081,464.126,491.286,467.922,486.621,467.922z"/>
<path d="M161.251,433.525c-13.363,0-24.232,10.87-24.232,24.232s10.87,24.232,24.232,24.232s24.231-10.87,24.231-24.232  S174.613,433.525,161.251,433.525z M161.251,466.835c-5.006,0-9.078-4.072-9.078-9.078c0-5.006,4.072-9.078,9.078-9.078  c5.005,0,9.077,4.072,9.077,9.078C170.328,462.763,166.256,466.835,161.251,466.835z"/>
<path d="M319.815,287.783c-4.186,0-7.577,3.392-7.577,7.577v10.863l-9.535-14.94c-1.812-2.839-5.284-4.14-8.51-3.197  c-3.232,0.944-5.453,3.907-5.453,7.274v36.818c0,4.185,3.391,7.577,7.577,7.577s7.577-3.392,7.577-7.577v-10.863l9.535,14.94  c1.417,2.221,3.849,3.501,6.387,3.501c0.706,0,1.42-0.099,2.124-0.304c3.232-0.944,5.453-3.907,5.453-7.274v-36.818  C327.392,291.176,324,287.783,319.815,287.783z"/>
<path d="M377.226,295.36v36.818c0,3.197,2.006,6.05,5.017,7.131c0.837,0.301,1.702,0.447,2.558,0.447c2.22,0,4.38-0.977,5.848-2.757  l9.54-11.572l10.44,11.778c2.088,2.355,5.414,3.174,8.357,2.058c2.943-1.116,4.89-3.936,4.89-7.084v-36.818  c0-4.184-3.391-7.577-7.577-7.577c-4.185,0-7.577,3.392-7.577,7.577v16.848l-3.072-3.466c-1.44-1.624-3.505-2.551-5.67-2.551  c-0.046,0-0.091,0-0.135,0.001c-2.214,0.04-4.302,1.047-5.711,2.756l-1.754,2.128V295.36c0-4.185-3.391-7.577-7.577-7.577  C380.617,287.783,377.226,291.176,377.226,295.36z"/>
<path d="M360.29,303.028c4.186,0,7.577-3.392,7.577-7.577s-3.391-7.577-7.577-7.577h-14.249c-4.185,0-7.577,3.392-7.577,7.577  v36.818c0,4.184,3.391,7.577,7.577,7.577h14.249c4.186,0,7.577-3.392,7.577-7.577c0-4.185-3.391-7.577-7.577-7.577h-6.672v-3.346  h6.672c4.186,0,7.577-3.392,7.577-7.577s-3.391-7.577-7.577-7.577h-6.672v-3.164H360.29z"/>
<path d="M277,153.611h30.078c4.186,0,7.577-3.392,7.577-7.577v-38.337h13.525c2.892,0,5.534-1.648,6.805-4.246  c1.271-2.598,0.953-5.694-0.821-7.979L298.024,48.94c-1.436-1.848-3.643-2.929-5.984-2.929s-4.549,1.081-5.984,2.929l-36.142,46.531  c-1.775,2.284-2.093,5.381-0.821,7.979c1.272,2.598,3.913,4.246,6.805,4.246h13.526v38.337  C269.423,150.218,272.815,153.611,277,153.611z M292.039,65.941l20.662,26.603h-5.622c-4.186,0-7.577,3.392-7.577,7.577v38.337  h-14.925v-38.337c0-4.184-3.391-7.577-7.577-7.577h-5.623L292.039,65.941z"/>
<g>
</g>
<g>
</g>
<g>
</g>
<g>
</g>
<g>
</g>
<g>
</g>
<g>
</g>
<g>
</g>
<g>
</g>
<g>
</g>
<g>
</g>
<g>
</g>
<g>
</g>
<g>
</g>
<g>
</g>
</svg>
