<?xml version="1.0" encoding="iso-8859-1"?>
<!-- Generator: Adobe Illustrator 19.0.0, SVG Export Plug-In . SVG Version: 6.00 Build 0)  -->
<svg xmlns="http://www.w3.org/2000/svg" xmlns:xlink="http://www.w3.org/1999/xlink" version="1.1" id="Layer_1" x="0px" y="0px" viewBox="0 0 512 512" style="enable-background:new 0 0 512 512;" xml:space="preserve">
<path style="fill:#78777E;" d="M452.294,368.279V90.842c0-6.699-5.481-12.179-12.179-12.179H114.53H65.58  c-6.699,0-12.179,5.481-12.179,12.179v277.437H452.294z"/>
<rect x="53.401" y="116.171" style="fill:#E0E0E2;" width="398.894" height="219.401"/>
<path style="fill:#679972;" d="M349.69,289.674H161.627c-4.848,0-8.779-3.931-8.779-8.779V163.671c0-4.848,3.931-8.779,8.779-8.779  H349.69c4.848,0,8.779,3.931,8.779,8.779v117.224C358.468,285.743,354.538,289.674,349.69,289.674z"/>
<rect x="152.851" y="179.97" style="fill:#406646;" width="205.618" height="36.359"/>
<g>
	<path style="opacity:0.35;fill:#565159;enable-background:new    ;" d="M440.115,78.662h-31.954v212.779l0,0   c0,18.062-14.643,32.705-32.705,32.705H53.401v11.428v32.705h398.893v-32.705v-219.4V90.842   C452.294,84.143,446.813,78.662,440.115,78.662z"/>
	<path style="fill:#565159;" d="M152.848,368.279h351.54v5.951c0,32.645-26.464,59.108-59.108,59.108H66.72   c-32.645,0-59.108-26.464-59.108-59.108v-5.951H118.54H152.848z"/>
</g>
<path style="opacity:0.28;fill:#2D2128;enable-background:new    ;" d="M426.35,368.279v5.951c0,32.645-26.464,59.108-59.108,59.108  h79.355c32.645,0,59.108-26.464,59.108-59.108v-5.951H426.35z"/>
<path style="fill:#78777E;" d="M309.93,410.034h-98.734c-4.119,0-7.488-3.37-7.488-7.488v-4.35c0-4.119,3.37-7.488,7.488-7.488  h98.734c4.119,0,7.488,3.37,7.488,7.488v4.35C317.418,406.664,314.048,410.034,309.93,410.034z"/>
<path d="M161.627,297.286H349.69c9.038,0,16.39-7.353,16.39-16.391v-64.568v-36.359v-16.297c0-9.038-7.353-16.39-16.39-16.39  H161.627c-9.038,0-16.39,7.353-16.39,16.39v16.297v36.359v64.568C145.236,289.933,152.589,297.286,161.627,297.286z M349.69,282.062  H161.627c-0.643,0-1.166-0.524-1.166-1.167v-56.956h190.396v56.956C350.856,281.539,350.333,282.062,349.69,282.062z M160.46,187.58  h190.397v21.135H160.46V187.58z M161.627,162.504H349.69c0.643,0,1.166,0.524,1.166,1.166v8.685H160.46v-8.685  C160.46,163.028,160.983,162.504,161.627,162.504z"/>
<path d="M256.409,236.298h-75.978c-4.204,0-7.612,3.408-7.612,7.612s3.408,7.612,7.612,7.612h75.978  c4.204,0,7.612-3.408,7.612-7.612S260.612,236.298,256.409,236.298z"/>
<path d="M310.198,236.298h-25.2c-4.204,0-7.612,3.408-7.612,7.612s3.408,7.612,7.612,7.612h25.2c4.204,0,7.612-3.408,7.612-7.612  S314.401,236.298,310.198,236.298z"/>
<path d="M504.388,360.667h-44.482V90.842c0-10.913-8.879-19.791-19.791-19.791H114.53c-4.204,0-7.612,3.408-7.612,7.612  s3.408,7.612,7.612,7.612h325.584c2.475,0,4.567,2.092,4.567,4.567v17.72H61.013v-17.72c0-2.475,2.092-4.567,4.567-4.567  c4.204,0,7.612-3.408,7.612-7.612s-3.408-7.612-7.612-7.612c-10.913,0-19.791,8.879-19.791,19.791v269.825H7.612  c-4.204,0-7.612,3.408-7.612,7.612v5.951c0,36.79,29.931,66.72,66.72,66.72H445.28c36.79,0,66.72-29.931,66.72-66.72v-5.951  C512,364.075,508.593,360.667,504.388,360.667z M444.682,123.786v204.175H61.013V123.786H444.682z M445.28,425.726H66.72  c-27.839,0-50.589-22.206-51.47-49.835h103.29c4.204,0,7.612-3.408,7.612-7.612s-3.408-7.612-7.612-7.612H61.013v-17.48h383.668  v17.48H152.848c-4.204,0-7.612,3.408-7.612,7.612s3.408,7.612,7.612,7.612h343.902C495.868,403.52,473.118,425.726,445.28,425.726z"/>
<path d="M309.93,383.097h-98.734c-8.327,0-15.1,6.774-15.1,15.099v4.35c0,8.327,6.774,15.099,15.1,15.099h98.734  c8.327,0,15.099-6.774,15.099-15.099v-4.35C325.03,389.87,318.256,383.097,309.93,383.097z M309.806,402.422H211.32v-4.101h98.486  V402.422z"/>
<g>
</g>
<g>
</g>
<g>
</g>
<g>
</g>
<g>
</g>
<g>
</g>
<g>
</g>
<g>
</g>
<g>
</g>
<g>
</g>
<g>
</g>
<g>
</g>
<g>
</g>
<g>
</g>
<g>
</g>
</svg>
