<?xml version="1.0" encoding="iso-8859-1"?>
<!-- Generator: Adobe Illustrator 19.0.0, SVG Export Plug-In . SVG Version: 6.00 Build 0)  -->
<svg xmlns="http://www.w3.org/2000/svg" xmlns:xlink="http://www.w3.org/1999/xlink" version="1.1" id="Layer_1" x="0px" y="0px" viewBox="0 0 512 512" style="enable-background:new 0 0 512 512;" xml:space="preserve">
<polygon style="fill:#FFA591;" points="32.538,8.398 7.607,8.398 7.607,54.355 7.607,85.092 7.607,369.682 316.354,369.682   334.515,336.708 334.515,85.092 334.515,49.03 334.515,8.398 72.563,8.398 "/>
<polygon style="fill:#FF6746;" points="75.421,182.526 185.541,182.526 185.541,300.475 7.607,300.475 7.607,182.526   39.312,182.526 "/>
<rect x="7.607" y="211.15" style="fill:#B9DEF3;" width="177.933" height="59.739"/>
<path style="opacity:0.23;fill:#2F3368;enable-background:new    ;" d="M7.607,30.521V144.96c0,9.989,8.172,18.161,18.161,18.161  l0,0c9.989,0,18.161-8.172,18.161-18.161c0,9.989,8.172,18.161,18.161,18.161l0,0c9.989,0,18.161-8.172,18.161-18.161  c0,9.989,8.172,18.161,18.161,18.161s18.161-8.172,18.161-18.161c0,9.989,8.172,18.161,18.161,18.161l0,0  c9.989,0,18.161-8.172,18.161-18.161v-2.893c0,12.882,8.172,21.054,18.161,21.054l0,0c9.989,0,18.161-8.172,18.161-18.161  c0,9.989,8.172,18.161,18.161,18.161s18.161-8.172,18.161-18.161c0,9.989,8.172,18.161,18.161,18.161l0,0  c9.989,0,18.161-8.172,18.161-18.161c0,9.989,8.172,18.161,18.161,18.161l0,0c9.989,0,18.161-8.172,18.161-18.161  c0,9.989,8.172,18.161,18.161,18.161c9.989,0,18.161-8.172,18.161-18.161V30.521H7.607z"/>
<path style="opacity:0.17;fill:#3F3C43;enable-background:new    ;" d="M289.387,8.398v31.568v240.201  c0,7.489-1.895,14.856-5.508,21.414l0,0c-7.805,14.171-22.703,22.973-38.881,22.973H7.607v45.127h308.747l18.16-32.973V85.092V49.03  V8.398H289.387z"/>
<path style="fill:#4AA9E7;" d="M7.607,8.398v114.439c0,9.989,8.172,18.161,18.161,18.161l0,0c9.989,0,18.161-8.172,18.161-18.161  c0,9.989,8.172,18.161,18.161,18.161l0,0c9.989,0,18.161-8.172,18.161-18.161c0,9.989,8.172,18.161,18.161,18.161  s18.161-8.172,18.161-18.161c0,9.989,8.172,18.161,18.161,18.161l0,0c9.989,0,18.161-8.172,18.161-18.161v-2.893  c0,12.882,8.172,21.054,18.161,21.054l0,0c9.989,0,18.161-8.172,18.161-18.161c0,9.989,8.172,18.161,18.161,18.161  s18.161-8.172,18.161-18.161c0,9.989,8.172,18.161,18.161,18.161l0,0c9.989,0,18.161-8.172,18.161-18.161  c0,9.989,8.172,18.161,18.161,18.161l0,0c9.989,0,18.161-8.172,18.161-18.161c0,9.989,8.172,18.161,18.161,18.161  c9.989,0,18.161-8.172,18.161-18.161V8.398H7.607z"/>
<path style="fill:#FFDC5E;" d="M403.077,305.416L403.077,305.416c9.954-8.147,24.756-5.973,31.946,4.692l0,0  c4.559,6.764,12.509,10.422,20.612,9.489l0,0c12.777-1.473,24.055,8.359,24.338,21.219l0,0c0.18,8.155,4.888,15.53,12.209,19.126  l0,0c11.545,5.669,15.717,20.037,9.003,31.008l0,0c-4.258,6.957-4.284,15.708-0.069,22.69l0,0  c6.648,11.012,2.389,25.354-9.191,30.953l0,0c-7.344,3.551-12.097,10.898-12.325,19.051l0,0  c-0.361,12.858-11.697,22.62-24.466,21.071l0,0c-8.097-0.983-16.068,2.628-20.669,9.363l0,0  c-7.254,10.621-22.071,12.705-31.974,4.499l0,0c-6.281-5.204-14.938-6.476-22.45-3.298l0,0c-11.845,5.013-25.435-1.244-29.33-13.502  l0,0c-2.47-7.774-9.065-13.524-17.104-14.912l0,0c-12.675-2.187-20.726-14.798-17.374-27.215l0,0  c2.125-7.875-0.314-16.278-6.326-21.791l0,0c-9.481-8.693-9.435-23.654,0.097-32.288l0,0c6.045-5.476,8.537-13.864,6.458-21.752l0,0  c-3.276-12.438,4.85-25,17.539-27.11l0,0c8.047-1.338,14.676-7.049,17.194-14.807l0,0c3.968-12.235,17.596-18.409,29.411-13.324l0,0  c0,0,5.188,2.735,11.929,1.786C399.692,309.357,403.077,305.416,403.077,305.416z"/>
<polygon style="fill:#FF6746;" points="248.778,182.957 303.396,182.957 303.396,369.682 220.34,369.682 220.34,182.957 "/>
<rect x="261.868" y="182.952" style="fill:#CD3B1C;" width="41.528" height="186.727"/>
<polygon style="opacity:0.44;fill:#FFFFFF;enable-background:new    ;" points="137.824,270.888 83.292,270.888 60.582,211.149   113.479,211.149 "/>
<path d="M507.674,394.92c4.315-7.051,5.467-15.646,3.163-23.584c-2.305-7.938-7.882-14.58-15.301-18.223  c-4.791-2.352-7.84-7.129-7.957-12.465c-0.182-8.264-3.859-16.119-10.089-21.55c-6.231-5.432-14.513-8.005-22.725-7.058  c-5.298,0.612-10.45-1.758-13.433-6.183c-4.62-6.854-11.961-11.474-20.139-12.675c-8.178-1.203-16.537,1.113-22.933,6.349  c-3.252,2.662-3.73,7.454-1.068,10.705c2.663,3.251,7.455,3.729,10.705,1.068c3.137-2.568,7.073-3.66,11.086-3.068  c4.011,0.589,7.467,2.765,9.734,6.127c6.173,9.155,16.826,14.055,27.79,12.793c4.031-0.464,7.929,0.748,10.985,3.412  c3.056,2.664,4.788,6.363,4.877,10.417c0.242,11.039,6.551,20.92,16.461,25.786c3.638,1.787,6.265,4.915,7.396,8.809  c1.131,3.893,0.587,7.942-1.529,11.4c-5.764,9.419-5.8,21.142-0.093,30.593c2.096,3.471,2.614,7.523,1.46,11.41  c-1.154,3.887-3.8,6.999-7.449,8.764c-9.94,4.806-16.309,14.649-16.619,25.687c-0.114,4.053-1.868,7.741-4.941,10.388  c-3.072,2.645-6.979,3.832-11.005,3.344c-10.96-1.333-21.639,3.508-27.867,12.625c-2.286,3.347-5.756,5.502-9.771,6.067  c-4.017,0.564-7.945-0.549-11.066-3.135c-8.502-7.047-20.1-8.75-30.268-4.446c-3.735,1.581-7.818,1.516-11.5-0.178  c-3.683-1.695-6.387-4.756-7.615-8.621c-3.342-10.524-12.179-18.227-23.06-20.104c-3.995-0.69-7.397-2.952-9.578-6.369  c-2.182-3.417-2.801-7.454-1.745-11.369c2.877-10.66-0.392-21.918-8.53-29.381c-2.988-2.74-4.627-6.482-4.615-10.535  c0.012-4.054,1.674-7.786,4.678-10.507c8.185-7.413,11.521-18.65,8.708-29.328c-1.033-3.92-0.388-7.954,1.814-11.357  c2.129-3.291,5.398-5.481,9.226-6.225c0.82-0.037,1.605-0.202,2.336-0.479c9.996-2.353,18.034-9.701,21.236-19.571  c1.251-3.856,3.973-6.901,7.666-8.575c3.693-1.673,7.778-1.711,11.501-0.109c3.857,1.66,8.334-0.121,9.995-3.98  c1.66-3.859-0.122-8.334-3.98-9.995c-7.592-3.268-16.266-3.186-23.794,0.226c-7.529,3.411-13.31,9.876-15.86,17.738  c-0.436,1.344-1.062,2.588-1.839,3.712V122.836V85.093V49.03v-3.713V8.398c0-4.201-3.406-7.607-7.607-7.607H72.563  c-4.201,0-7.607,3.406-7.607,7.607s3.406,7.607,7.607,7.607h254.345v29.311v3.713v36.062v37.744c0,5.819-4.735,10.554-10.554,10.554  s-10.554-4.735-10.554-10.554V94.928c0-4.201-3.406-7.607-7.607-7.607s-7.607,3.406-7.607,7.607v27.909  c0,5.819-4.734,10.554-10.554,10.554s-10.554-4.735-10.554-10.554V94.928c0-4.201-3.406-7.607-7.607-7.607s-7.607,3.406-7.607,7.607  v27.909c0,5.819-4.734,10.554-10.554,10.554c-5.82,0-10.554-4.735-10.554-10.554V94.928c0-4.201-3.406-7.607-7.607-7.607  s-7.607,3.406-7.607,7.607v27.909c0,5.819-4.734,10.554-10.554,10.554s-10.554-4.735-10.554-10.554V94.928  c0-4.201-3.406-7.607-7.607-7.607c-4.201,0-7.607,3.406-7.607,7.607v27.909c0,5.819-4.734,10.554-10.554,10.554  c-6.313,0-10.554-5.404-10.554-13.447V94.928v-2.893c0-4.201-3.406-7.607-7.607-7.607s-7.607,3.406-7.607,7.607v2.893v25.016v2.893  c0,5.819-4.734,10.554-10.554,10.554c-5.82,0-10.554-4.735-10.554-10.554V94.928c0-4.201-3.406-7.607-7.607-7.607  c-4.201,0-7.607,3.406-7.607,7.607v27.909c0,5.819-4.735,10.554-10.554,10.554c-5.819,0-10.554-4.735-10.554-10.554V94.928  c0-4.201-3.406-7.607-7.607-7.607s-7.607,3.406-7.607,7.607v27.909c0,5.819-4.735,10.554-10.554,10.554s-10.554-4.735-10.554-10.554  V94.928c0-4.201-3.406-7.607-7.607-7.607s-7.607,3.406-7.607,7.607v27.909c0,5.819-4.735,10.554-10.554,10.554  s-10.555-4.735-10.555-10.555V85.093V71.784h174.007c4.201,0,7.607-3.406,7.607-7.607s-3.406-7.607-7.607-7.607H15.215v-2.214  v-9.039V16.006h17.324c4.201,0,7.607-3.406,7.607-7.607s-3.406-7.607-7.607-7.607H7.607C3.406,0.791,0,4.197,0,8.398v36.918v9.039  v30.738v37.744v59.69v28.623v59.739v29.587v69.207c0,4.201,3.406,7.607,7.607,7.607H220.34h83.056h3.777  c-0.641,0.955-1.397,1.847-2.276,2.643c-6.127,5.549-9.654,13.472-9.679,21.738c-0.024,8.266,3.455,16.21,9.548,21.796  c3.934,3.607,5.514,9.049,4.123,14.202c-2.154,7.98-0.839,16.553,3.609,23.52c4.448,6.967,11.671,11.769,19.817,13.175  c5.259,0.908,9.531,4.63,11.146,9.718c2.502,7.877,8.244,14.378,15.752,17.835c7.508,3.458,16.18,3.593,23.794,0.37  c4.914-2.078,10.521-1.257,14.631,2.149c5.307,4.398,11.99,6.773,18.811,6.773c1.359,0,2.724-0.094,4.084-0.286  c8.185-1.151,15.553-5.727,20.214-12.552c3.01-4.406,8.17-6.745,13.47-6.103c8.206,0.995,16.503-1.527,22.766-6.92  c6.263-5.394,9.988-13.227,10.22-21.489c0.149-5.335,3.228-10.093,8.032-12.416c7.441-3.598,13.059-10.206,15.412-18.13  c2.353-7.924,1.252-16.526-3.021-23.604C504.87,405.138,504.888,399.473,507.674,394.92z M15.215,278.494h162.719v14.372H15.215  V278.494z M177.934,263.279H15.215v-44.524h162.719V263.279z M220.34,175.35c-4.201,0-7.607,3.406-7.607,7.607v179.117H15.215  v-53.992h170.326c4.201,0,7.607-3.406,7.607-7.607v-29.587v-59.739v-28.623c0-4.201-3.406-7.607-7.607-7.607H75.421  c-4.201,0-7.607,3.406-7.607,7.607s3.406,7.607,7.607,7.607h102.513v13.408H15.215v-13.408h24.097c4.201,0,7.607-3.406,7.607-7.607  s-3.406-7.607-7.607-7.607H15.215v-28.583c3.224,1.454,6.794,2.27,10.554,2.27c7.079,0,13.5-2.871,18.161-7.507  c4.662,4.636,11.082,7.507,18.161,7.507s13.5-2.871,18.161-7.507c4.662,4.636,11.083,7.507,18.161,7.507  c7.079,0,13.5-2.871,18.161-7.507c4.662,4.636,11.083,7.507,18.161,7.507c7.191,0,13.698-2.964,18.378-7.729  c4.572,4.834,10.833,7.729,17.945,7.729c7.079,0,13.5-2.871,18.161-7.507c4.662,4.636,11.082,7.507,18.161,7.507  s13.5-2.871,18.161-7.507c4.662,4.636,11.082,7.507,18.161,7.507c7.079,0,13.5-2.871,18.161-7.507  c4.662,4.636,11.083,7.507,18.161,7.507c7.079,0,13.5-2.871,18.161-7.507c4.662,4.636,11.082,7.507,18.161,7.507  c3.76,0,7.331-0.817,10.554-2.27v184.479c-5.719,2.23-10.667,6.218-14.048,11.444c-0.697,1.078-1.309,2.199-1.855,3.347V182.957  c0-4.201-3.406-7.607-7.607-7.607h-54.618c-4.201,0-7.607,3.406-7.607,7.607s3.406,7.607,7.607,7.607h5.482v171.51h-26.313V182.957  C227.948,178.756,224.542,175.35,220.34,175.35z M269.475,362.074v-171.51h26.314v171.51H269.475z"/>
<path d="M372.357,343.398c-11.114,0-20.155,9.042-20.155,20.155v23.704c0,11.114,9.042,20.155,20.155,20.155h2.843  c11.114,0,20.155-9.042,20.155-20.155v-23.704c0-11.114-9.042-20.155-20.155-20.155L372.357,343.398L372.357,343.398z   M380.14,363.552v23.704c0,2.678-2.262,4.94-4.94,4.94h-2.843c-2.678,0-4.94-2.262-4.94-4.94v-23.704c0-2.678,2.262-4.94,4.94-4.94  h2.843C377.878,358.612,380.14,360.875,380.14,363.552z"/>
<path d="M437.027,402.254c-11.113,0-20.155,9.042-20.155,20.155v23.704c0,11.114,9.042,20.155,20.155,20.155h2.843  c11.114,0,20.155-9.042,20.155-20.155v-23.704c0-11.114-9.042-20.155-20.155-20.155H437.027z M444.811,422.408v23.704  c0,2.678-2.262,4.94-4.94,4.94h-2.843c-2.678,0-4.94-2.262-4.94-4.94v-23.704c0-2.678,2.262-4.94,4.94-4.94h2.843  C442.548,417.469,444.811,419.731,444.811,422.408z"/>
<path d="M447.359,355.705c-3.217-2.701-8.016-2.282-10.717,0.936l-72.378,86.231c-2.701,3.218-2.282,8.016,0.936,10.717  c1.425,1.197,3.161,1.78,4.887,1.78c2.171,0,4.326-0.924,5.831-2.716l72.378-86.231  C450.997,363.204,450.578,358.407,447.359,355.705z"/>
<path d="M297.303,44.877c4.201,0,7.607-3.406,7.607-7.607s-3.406-7.607-7.607-7.607H190.11c-4.201,0-7.607,3.406-7.607,7.607  s3.406,7.607,7.607,7.607H297.303z"/>
<g>
</g>
<g>
</g>
<g>
</g>
<g>
</g>
<g>
</g>
<g>
</g>
<g>
</g>
<g>
</g>
<g>
</g>
<g>
</g>
<g>
</g>
<g>
</g>
<g>
</g>
<g>
</g>
<g>
</g>
</svg>
