<?xml version="1.0" encoding="iso-8859-1"?>
<!-- Generator: Adobe Illustrator 19.0.0, SVG Export Plug-In . SVG Version: 6.00 Build 0)  -->
<svg xmlns="http://www.w3.org/2000/svg" xmlns:xlink="http://www.w3.org/1999/xlink" version="1.1" id="Layer_1" x="0px" y="0px" viewBox="0 0 512 512" style="enable-background:new 0 0 512 512;" xml:space="preserve">
<path style="fill:#FFDC5E;" d="M61.899,202.255V39.229c0-4.303,5.124-7.796,11.461-7.812l30.497-0.051l29.889-0.05l353.037-0.584  c6.371-0.016,11.546,3.486,11.546,7.812v232.447c0,4.315-5.151,7.812-11.504,7.812H280.114H61.899V202.255z"/>
<path style="opacity:0.34;fill:#CCA61C;enable-background:new    ;" d="M486.782,30.732l-18.491,0.03v210.191  c0,4.315-5.151,7.812-11.504,7.812H250.076H61.899v30.038h218.215h206.711c6.353,0,11.504-3.498,11.504-7.812V38.545  C498.33,34.219,493.153,30.716,486.782,30.732z"/>
<g>
	<path style="fill:#78777E;" d="M232.864,357.629c0.025-0.115,4.515-14.564,4.535-14.679c0.057-0.223,0.118-0.445,0.167-0.671   l16.149-72.431l7.663-34.371l8.068-36.185c2.75-12.336-5.093-24.68-17.429-27.43l-22.429-5.001l-31.496,141.268l-14.643,27.92   l43.274,35.567L232.864,357.629z"/>
	<path style="fill:#78777E;" d="M159.783,356.979l-12.034-2.683c-20.984-4.678-41.981,8.663-46.659,29.647l-11.085,49.721   c-4.678,20.984,8.663,41.981,29.647,46.659l0,0c20.984,4.678,41.981-8.663,46.659-29.647l19.934-89.215L159.783,356.979z    M148.968,403.345l-7.164,32.135c-1.596,7.16-8.76,11.712-15.92,10.116s-11.712-8.76-10.116-15.92l7.164-32.135   c1.596-7.16,8.76-11.712,15.92-10.116C146.012,389.021,150.565,396.185,148.968,403.345z"/>
</g>
<path style="fill:#CCA61C;" d="M204.977,278.95c-25.733,0-46.592-20.86-46.592-46.592H7.6c0,25.733,20.86,46.592,46.592,46.592  H204.977z"/>
<path style="fill:#ADABB1;" d="M305.559,433.663l-4.597-23.202l-6.488-26.519c-4.678-20.984-25.675-34.325-46.659-29.647  l-14.951,3.334l-4.406-19.761c-2.114-9.479-11.598-15.505-21.076-13.392l-5.967,1.33l-10.447-46.856h-47.089l14.119,63.33  c0.051,0.226,0.11,0.448,0.167,0.671c0.02,0.115,0.032,0.228,0.058,0.342l6.471,29.026c2.689,12.06,14.757,19.728,26.816,17.039  l22.931-5.113l14.811,66.432c4.678,20.984,25.675,34.325,46.659,29.647l0,0C296.896,475.644,310.237,454.648,305.559,433.663z   M269.679,445.594c-7.16,1.596-14.324-2.956-15.92-10.116l-7.164-32.135c-1.596-7.16,2.956-14.324,10.116-15.92  c7.16-1.596,14.324,2.956,15.92,10.116l7.164,32.135C281.391,436.833,276.839,443.997,269.679,445.594z"/>
<circle style="fill:#78777E;" cx="198.129" cy="354.703" r="11.187"/>
<path d="M303.904,426.246c-4.096,0.913-6.677,4.975-5.764,9.072c1.821,8.167,0.33,16.59-4.197,23.715s-11.519,12.052-19.686,13.873  c-8.167,1.822-16.589,0.331-23.714-4.197c-7.125-4.527-12.052-11.519-13.873-19.686l-14.811-66.432  c-0.914-4.096-4.975-6.678-9.071-5.764l-22.932,5.112c-8.001,1.785-15.96-3.273-17.745-11.274l-6.435-28.866l-0.029-0.182  c-0.032-0.181-0.071-0.361-0.117-0.54l-13.073-58.58h31.514l10.025,44.963c0.439,1.968,1.641,3.68,3.342,4.76  c1.701,1.081,3.764,1.442,5.729,1.003l5.967-1.33c2.604-0.581,5.292-0.103,7.571,1.346c2.279,1.448,3.854,3.679,4.434,6.282  l4.406,19.761c0.013,0.058,0.032,0.112,0.047,0.17c0.036,0.148,0.076,0.294,0.121,0.439c0.03,0.097,0.065,0.194,0.098,0.29  c0.048,0.133,0.097,0.264,0.152,0.394c0.044,0.102,0.09,0.203,0.137,0.304c0.057,0.119,0.115,0.236,0.177,0.352  c0.056,0.103,0.115,0.204,0.174,0.304c0.066,0.109,0.133,0.217,0.204,0.322c0.066,0.098,0.134,0.194,0.204,0.288  c0.077,0.103,0.156,0.206,0.237,0.306c0.072,0.087,0.146,0.172,0.221,0.256c0.091,0.101,0.185,0.201,0.282,0.298  c0.074,0.074,0.15,0.146,0.227,0.217c0.107,0.099,0.219,0.195,0.332,0.288c0.075,0.061,0.151,0.121,0.228,0.179  c0.124,0.094,0.25,0.183,0.381,0.27c0.041,0.026,0.077,0.058,0.119,0.084c0.037,0.024,0.078,0.043,0.116,0.066  c0.132,0.081,0.266,0.157,0.404,0.23c0.088,0.047,0.176,0.092,0.267,0.135c0.13,0.063,0.261,0.121,0.396,0.176  c0.104,0.043,0.209,0.083,0.314,0.122c0.125,0.045,0.249,0.086,0.377,0.125c0.121,0.036,0.242,0.069,0.364,0.1  c0.067,0.016,0.132,0.04,0.2,0.055c0.053,0.011,0.105,0.015,0.159,0.026c0.144,0.028,0.289,0.051,0.434,0.071  c0.122,0.017,0.242,0.034,0.363,0.046c0.129,0.011,0.258,0.016,0.388,0.021c0.1,0.004,0.202,0.016,0.302,0.016  c0.025,0,0.051-0.006,0.076-0.006c0.342-0.004,0.686-0.034,1.027-0.084c0.092-0.013,0.182-0.029,0.274-0.047  c0.09-0.016,0.18-0.026,0.27-0.046l14.95-3.334c16.949-3.78,33.809,6.936,37.588,23.883c0.011,0.051,0.023,0.101,0.035,0.152  l6.488,26.518c0.849,3.471,3.956,5.796,7.376,5.796c0.598,0,1.205-0.071,1.812-0.22c4.077-0.997,6.573-5.111,5.576-9.188  l-6.471-26.447c-2.719-12.096-10.01-22.437-20.539-29.127c-10.552-6.705-23.044-8.909-35.173-6.203l-2.166,0.483  c0.456-1.482,0.662-2.166,0.764-2.538l0.006,0.001l0.037-0.146c0.064-0.247,0.127-0.493,0.182-0.745l16.149-72.431  c0.913-4.097-1.668-8.158-5.764-9.072c-4.097-0.914-8.158,1.668-9.072,5.764l-13.474,60.432  c-5.218-8.603-15.294-13.531-25.637-11.849l-1.618-7.258l29.783-133.585l15.012,3.347c8.278,1.845,13.51,10.081,11.665,18.359  l-8.067,36.185c-0.913,4.096,1.668,8.158,5.764,9.071c4.098,0.913,8.158-1.668,9.071-5.764l8.067-36.185  c3.669-16.458-6.734-32.832-23.192-36.501l-22.429-5.001c-4.095-0.912-8.158,1.668-9.071,5.764l-17.488,78.439  c-1.241-0.883-2.756-1.407-4.396-1.407c-4.197,0-7.6,3.403-7.6,7.6v13.818c0,0.59,0.074,1.161,0.201,1.711  c-15.599-5.101-26.903-19.784-26.903-37.065c0-4.197-3.403-7.6-7.6-7.6H7.6c-4.197,0-7.6,3.403-7.6,7.6  c0,29.882,24.311,54.192,54.192,54.192h82.69l13.698,61.439c0.044,0.197,0.091,0.39,0.141,0.585c0.024,0.139,0.052,0.28,0.084,0.427  l0.527,2.362l-1.929-0.431c-12.131-2.703-24.623-0.502-35.173,6.203c-10.552,6.705-17.853,17.078-20.558,29.208l-11.085,49.72  c-5.602,25.128,10.283,50.129,35.41,55.731c3.382,0.754,6.791,1.127,10.179,1.127c8.765,0,17.385-2.494,24.995-7.329  c10.552-6.705,17.853-17.078,20.558-29.207l12.226-54.839c2.396,0.053,4.814-0.181,7.21-0.716l15.515-3.459l13.158,59.014  c2.704,12.13,10.005,22.503,20.557,29.208c7.611,4.835,16.23,7.329,24.995,7.329c3.387,0,6.797-0.373,10.179-1.127  c12.13-2.704,22.503-10.005,29.207-20.558c6.705-10.551,8.908-23.043,6.203-35.173C312.063,427.913,308.003,425.331,303.904,426.246  z M15.943,235.904h135.373c1.727,12.247,7.562,23.193,16.064,31.393h-24.503c-0.013,0-0.026,0-0.04,0H54.192  C35.291,267.298,19.488,253.78,15.943,235.904z M158.893,449.022c-1.821,8.168-6.748,15.159-13.873,19.686  s-15.547,6.018-23.715,4.197c-8.168-1.821-15.159-6.748-19.686-13.873c-4.527-7.125-6.018-15.548-4.197-23.715l11.085-49.72  c1.821-8.168,6.748-15.159,13.873-19.686c7.125-4.526,15.547-6.017,23.715-4.197l8.891,1.982l2.291,10.277  c1.743,7.813,6.443,14.494,13.237,18.811c0.267,0.169,0.539,0.327,0.81,0.487L158.893,449.022z"/>
<path d="M270.833,382.784c-4.729-3.004-10.332-3.991-15.775-2.777c-11.268,2.512-18.391,13.723-15.879,24.992l7.164,32.135  c2.172,9.74,10.843,16.383,20.433,16.383c1.504,0,3.031-0.164,4.559-0.505l0,0c11.268-2.513,18.391-13.724,15.879-24.992  l-7.165-32.134C278.835,390.443,275.562,385.789,270.833,382.784z M268.026,438.177c-3.086,0.691-6.16-1.264-6.849-4.351  l-7.164-32.134c-0.688-3.089,1.264-6.161,4.351-6.849c0.419-0.093,0.837-0.138,1.249-0.138c2.627,0,5.004,1.821,5.599,4.49  l7.165,32.134C273.066,434.415,271.113,437.488,268.026,438.177z"/>
<path d="M140.506,380.007c-5.443-1.213-11.046-0.228-15.775,2.777c-4.729,3.004-8.002,7.658-9.216,13.102l-7.164,32.134  c-1.214,5.444-0.228,11.047,2.777,15.776c3.005,4.729,7.657,8.002,13.102,9.216c1.528,0.34,3.054,0.505,4.559,0.505  c9.589,0,18.261-6.644,20.433-16.384c0.913-4.097-1.668-8.158-5.764-9.071c-4.095-0.912-8.158,1.668-9.071,5.764  c-0.689,3.087-3.763,5.039-6.849,4.351c-3.087-0.689-5.04-3.76-4.351-6.849l7.164-32.134c0.33-1.481,1.229-2.753,2.532-3.581  c1.302-0.828,2.835-1.101,4.317-0.771c3.087,0.688,5.04,3.76,4.351,6.849c-0.913,4.097,1.668,8.158,5.764,9.071  c4.095,0.914,8.158-1.667,9.071-5.764C158.897,393.73,151.774,382.519,140.506,380.007z"/>
<path d="M202.212,336.364c-1.499-0.334-3.008-0.461-4.506-0.431c-1.436-0.021-2.894,0.104-4.356,0.431  c-4.899,1.092-9.079,4.028-11.771,8.263c-2.691,4.237-3.573,9.268-2.481,14.167s4.028,9.079,8.263,11.771  c3.05,1.938,6.512,2.938,10.041,2.938c0.126,0,0.252-0.008,0.379-0.01c0.127,0.002,0.253,0.01,0.379,0.01  c3.528,0,6.991-0.999,10.041-2.938c4.237-2.692,7.171-6.873,8.263-11.771c1.092-4.899,0.211-9.93-2.481-14.167  C211.293,340.392,207.113,337.456,202.212,336.364z M197.343,358.212c-1.265-0.282-1.953-1.111-2.251-1.58  c-0.298-0.469-0.756-1.444-0.474-2.707l0,0c0.282-1.264,1.111-1.952,1.58-2.25c0.316-0.201,0.87-0.461,1.579-0.532  c1.507,0.144,2.823,1.226,3.171,2.783c0.431,1.933-0.791,3.857-2.725,4.287c-0.168,0.037-0.334,0.047-0.502,0.06  C197.596,358.257,197.472,358.241,197.343,358.212z"/>
<path d="M507.78,28.772c-3.596-3.586-9.016-5.64-14.875-5.64c-0.021,0-0.043,0-0.064,0l-353.037,0.584  c-4.198,0.007-7.595,3.415-7.588,7.612c0.007,4.193,3.408,7.588,7.6,7.588c0.004,0,0.009,0,0.013,0l353.044-0.584  c2.022,0.02,3.345,0.597,3.928,1V270.21c-0.594,0.419-1.949,0.993-3.904,0.993H286.185c-4.197,0-7.6,3.403-7.6,7.6  s3.403,7.6,7.6,7.6h206.711c10.712,0,19.104-6.77,19.104-15.411V38.545C512,34.958,510.5,31.487,507.78,28.772z"/>
<path d="M67.969,209.856c4.197,0,7.6-3.403,7.6-7.6V40.01c0.591-0.417,1.936-0.989,3.874-0.994l30.497-0.051  c4.197-0.007,7.595-3.415,7.588-7.612c-0.007-4.193-3.408-7.588-7.6-7.588c-0.004,0-0.009,0-0.013,0L79.41,23.816  c-10.677,0.027-19.041,6.797-19.041,15.412v163.027C60.369,206.453,63.772,209.856,67.969,209.856z"/>
<path d="M192.687,224.355c0,4.197,3.403,7.6,7.6,7.6s7.6-3.403,7.6-7.6v-13.817c0-4.197-3.403-7.6-7.6-7.6s-7.6,3.403-7.6,7.6  V224.355z"/>
<path d="M192.687,184.838c0,4.197,3.403,7.6,7.6,7.6s7.6-3.403,7.6-7.6V171.02c0-4.197-3.403-7.6-7.6-7.6s-7.6,3.403-7.6,7.6  V184.838z"/>
<path d="M192.687,145.364c0,4.197,3.403,7.6,7.6,7.6s7.6-3.403,7.6-7.6v-13.817c0-4.197-3.403-7.6-7.6-7.6s-7.6,3.403-7.6,7.6  V145.364z"/>
<path d="M192.687,107.443c0,4.197,3.403,7.6,7.6,7.6s7.6-3.403,7.6-7.6V93.625c0-4.197-3.403-7.6-7.6-7.6s-7.6,3.403-7.6,7.6  V107.443z"/>
<path d="M200.286,75.415c4.197,0,7.6-3.403,7.6-7.6V53.998c0-4.197-3.403-7.6-7.6-7.6s-7.6,3.403-7.6,7.6v13.817  C192.687,72.013,196.089,75.415,200.286,75.415z"/>
<path d="M319.154,89.979c-12.216,12.216-12.216,32.092,0,44.308c6.108,6.108,14.13,9.162,22.154,9.162  c8.022,0,16.045-3.054,22.154-9.162c12.216-12.216,12.216-32.092,0-44.308C351.246,77.764,331.371,77.764,319.154,89.979z   M352.715,123.539c-6.291,6.288-16.525,6.289-22.813,0c-6.289-6.29-6.289-16.524,0-22.813c3.145-3.144,7.275-4.717,11.407-4.717  s8.261,1.573,11.407,4.717C359.004,107.016,359.004,117.25,352.715,123.539z"/>
<path d="M396.406,167.23c-5.918,5.918-9.176,13.785-9.176,22.154s3.259,16.237,9.176,22.154c6.108,6.109,14.13,9.162,22.154,9.162  c8.022,0,16.046-3.054,22.154-9.162c5.918-5.917,9.176-13.785,9.176-22.154s-3.259-16.236-9.176-22.154  C428.498,155.013,408.622,155.014,396.406,167.23z M434.69,189.383c0,4.309-1.678,8.36-4.725,11.407  c-6.289,6.289-16.524,6.289-22.813,0c-3.047-3.047-4.725-7.097-4.725-11.407c0-4.309,1.678-8.36,4.725-11.407  c3.145-3.144,7.275-4.717,11.407-4.717c4.131,0,8.261,1.573,11.407,4.717C433.013,181.024,434.69,185.075,434.69,189.383z"/>
<path d="M426.604,92.972L322.147,197.428c-2.968,2.968-2.968,7.78,0,10.747c1.483,1.484,3.429,2.226,5.374,2.226  c1.944,0,3.89-0.742,5.373-2.226l104.457-104.456c2.968-2.968,2.968-7.78,0-10.747C434.384,90.003,429.572,90.004,426.604,92.972z"/>
<g>
</g>
<g>
</g>
<g>
</g>
<g>
</g>
<g>
</g>
<g>
</g>
<g>
</g>
<g>
</g>
<g>
</g>
<g>
</g>
<g>
</g>
<g>
</g>
<g>
</g>
<g>
</g>
<g>
</g>
</svg>
