<?xml version="1.0" encoding="iso-8859-1"?>
<!-- Generator: Adobe Illustrator 19.0.0, SVG Export Plug-In . SVG Version: 6.00 Build 0)  -->
<svg xmlns="http://www.w3.org/2000/svg" xmlns:xlink="http://www.w3.org/1999/xlink" version="1.1" id="Layer_1" x="0px" y="0px" viewBox="0 0 512 512" style="enable-background:new 0 0 512 512;" xml:space="preserve">
<polygon style="fill:#FFDC5E;" points="84.96,98.396 84.96,119.72 84.96,504.396 427.04,504.396 427.04,119.72 427.04,36.111   398.534,7.604 370.027,36.111 341.52,7.604 313.013,36.111 284.507,7.604 256,36.111 227.493,7.604 198.987,36.111 170.48,7.604   141.973,36.111 113.466,7.604 84.96,36.111 84.96,69.505 "/>
<polygon style="opacity:0.2;fill:#CCA61C;enable-background:new    ;" points="398.476,7.604 372.503,33.577 372.503,65.241   372.503,449.916 84.901,449.916 84.901,504.396 426.983,504.396 426.983,119.72 426.983,36.111 "/>
<rect x="267.994" y="128.497" style="fill:#FFF6D6;" width="107.997" height="107.997"/>
<path d="M186.22,215.011c-7.675,0-13.919-6.244-13.919-13.92c0-4.199-3.404-7.604-7.604-7.604c-4.2,0-7.604,3.405-7.604,7.604  c0,13.431,9.139,24.762,21.523,28.114v5.202c0,4.199,3.404,7.604,7.604,7.604c4.2,0,7.604-3.405,7.604-7.604v-5.202  c12.384-3.353,21.524-14.684,21.524-28.114c0-14.496-10.732-20.235-20.201-25.298c-1.666-0.891-3.388-1.812-5.077-2.784  c-2.272-1.36-4.405-2.523-6.468-3.649c-9.16-4.996-11.302-6.639-11.302-11.318c0-7.675,6.244-13.919,13.919-13.919  c7.676,0,13.92,6.244,13.92,13.919c0,4.199,3.404,7.604,7.604,7.604c4.2,0,7.604-3.405,7.604-7.604  c0-13.431-9.14-24.762-21.524-28.114v-7.117c0-4.199-3.404-7.604-7.604-7.604c-4.2,0-7.604,3.405-7.604,7.604v7.117  c-12.384,3.353-21.523,14.684-21.523,28.114c0,14.182,10.215,19.754,19.228,24.669c1.948,1.063,3.962,2.161,5.99,3.377  c0.038,0.022,0.076,0.045,0.115,0.067c1.915,1.103,3.764,2.092,5.553,3.048c9.718,5.196,12.163,7.138,12.163,11.888  C200.14,208.766,193.896,215.011,186.22,215.011z"/>
<path d="M135.833,339.427c0,4.199,3.404,7.604,7.604,7.604h146.527c4.2,0,7.604-3.405,7.604-7.604c0-4.199-3.404-7.604-7.604-7.604  H143.437C139.238,331.823,135.833,335.227,135.833,339.427z"/>
<path d="M373.203,331.823H334.68c-4.2,0-7.604,3.405-7.604,7.604c0,4.199,3.404,7.604,7.604,7.604h38.524  c4.2,0,7.604-3.405,7.604-7.604C380.807,335.227,377.404,331.823,373.203,331.823z"/>
<path d="M143.437,390.725h146.527c4.2,0,7.604-3.405,7.604-7.604c0-4.199-3.404-7.604-7.604-7.604H143.437  c-4.2,0-7.604,3.405-7.604,7.604C135.833,387.32,139.238,390.725,143.437,390.725z"/>
<path d="M373.203,375.517H334.68c-4.2,0-7.604,3.405-7.604,7.604c0,4.199,3.404,7.604,7.604,7.604h38.524  c4.2,0,7.604-3.405,7.604-7.604C380.807,378.922,377.404,375.517,373.203,375.517z"/>
<path d="M383.591,236.491V128.5c0-4.199-3.404-7.604-7.604-7.604H267.996c-4.2,0-7.604,3.405-7.604,7.604v107.992  c0,4.199,3.404,7.604,7.604,7.604h107.992C380.188,244.095,383.591,240.691,383.591,236.491z M368.383,228.887h-92.785v-92.785  h92.785V228.887z"/>
<path d="M432.418,30.733L403.911,2.227C402.485,0.801,400.551,0,398.535,0c-2.017,0-3.95,0.801-5.378,2.227l-23.129,23.129  l-23.13-23.129c-2.971-2.97-7.784-2.97-10.754,0l-23.13,23.129L289.884,2.227c-2.971-2.97-7.784-2.97-10.754,0L256,25.357  L232.87,2.227c-2.971-2.97-7.784-2.97-10.754,0l-23.13,23.129L175.857,2.227C174.431,0.801,172.496,0,170.48,0  c-2.017,0-3.95,0.801-5.378,2.227l-23.129,23.129L118.844,2.227c-2.972-2.971-7.785-2.969-10.754,0L79.582,30.733  c-1.425,1.425-2.226,3.36-2.226,5.377v33.395c0,4.199,3.404,7.604,7.604,7.604c4.2,0,7.604-3.405,7.604-7.604V39.26l20.903-20.903  l23.129,23.129c2.971,2.97,7.784,2.97,10.754,0l23.129-23.129l23.129,23.129c1.427,1.427,3.36,2.227,5.378,2.227  c2.018,0,3.95-0.801,5.378-2.227l23.129-23.129l23.129,23.129c2.971,2.97,7.784,2.97,10.754,0l23.129-23.129l23.131,23.13  c2.971,2.97,7.784,2.97,10.754,0l23.129-23.129l23.129,23.129c2.971,2.97,7.784,2.97,10.754,0l23.129-23.129l20.902,20.903v457.531  H92.564V98.396c0-4.199-3.404-7.604-7.604-7.604c-4.2,0-7.604,3.405-7.604,7.604v406c0,4.199,3.404,7.604,7.604,7.604H427.04  c4.2,0,7.604-3.405,7.604-7.604V36.111C434.644,34.093,433.843,32.16,432.418,30.733z"/>
<path d="M310.071,201.082c1.485,1.485,3.431,2.227,5.378,2.227c1.946,0,3.892-0.742,5.378-2.227l29.339-29.338  c2.97-2.97,2.97-7.784,0-10.753c-2.97-2.969-7.783-2.971-10.754,0l-23.962,23.962l-9.464-9.464c-2.971-2.97-7.784-2.97-10.754,0  s-2.97,7.784,0,10.753L310.071,201.082z"/>
<g>
</g>
<g>
</g>
<g>
</g>
<g>
</g>
<g>
</g>
<g>
</g>
<g>
</g>
<g>
</g>
<g>
</g>
<g>
</g>
<g>
</g>
<g>
</g>
<g>
</g>
<g>
</g>
<g>
</g>
</svg>
