<?xml version="1.0" encoding="iso-8859-1"?>
<!-- Generator: Adobe Illustrator 19.0.0, SVG Export Plug-In . SVG Version: 6.00 Build 0)  -->
<svg xmlns="http://www.w3.org/2000/svg" xmlns:xlink="http://www.w3.org/1999/xlink" version="1.1" id="Layer_1" x="0px" y="0px" viewBox="0 0 511.999 511.999" style="enable-background:new 0 0 511.999 511.999;" xml:space="preserve">
<path style="fill:#EE8F21;" d="M428.135,251.257v209.644l-172.51,43.51l-172.51-43.51v-94.105v-24.802v-90.737  c0-22.938,18.595-41.533,41.533-41.533h261.952C409.54,209.724,428.135,228.319,428.135,251.257z"/>
<path style="fill:#844F1A;" d="M387.582,209.724H257.528l-0.89,294.678L429.115,460.9V251.257  C429.115,228.319,410.52,209.724,387.582,209.724z"/>
<polygon style="fill:#F7A04D;" points="141.846,209.364 257.528,209.364 215.525,308.212 50.145,283.5 90.62,209.364   109.412,209.364 "/>
<polygon style="fill:#AA6717;" points="296.475,308.212 461.856,283.5 421.381,209.364 257.528,209.364 "/>
<path d="M468.517,279.863l-40.475-74.136c-1.331-2.437-3.885-3.952-6.661-3.952H256H141.846c-4.191,0-7.589,3.398-7.589,7.589  c0,4.191,3.398,7.589,7.589,7.589h102.847l-33.934,82.874L62.012,277.6l33.11-60.648h14.291c4.191,0,7.589-3.398,7.589-7.589  s-3.398-7.589-7.589-7.589H90.619c-2.777,0-5.33,1.516-6.661,3.952l-40.475,74.136c-1.188,2.176-1.239,4.795-0.135,7.015  s3.222,3.761,5.674,4.127l165.381,24.712c0.377,0.057,0.753,0.084,1.125,0.084c3.041,0,5.839-1.832,7.019-4.714l26.436-64.562  l-0.913,248.155L90.705,454.988v-88.193c0-4.191-3.398-7.589-7.589-7.589c-4.191,0-7.589,3.398-7.589,7.589V460.9  c0,3.477,2.362,6.508,5.733,7.358l172.51,43.51c0.034,0.008,0.069,0.011,0.103,0.019c0.218,0.052,0.439,0.092,0.664,0.124  c0.069,0.01,0.137,0.024,0.206,0.032c0.281,0.032,0.566,0.054,0.855,0.055c0.009,0,0.018,0,0.028,0c0.294,0,0.584-0.021,0.869-0.054  c0.076-0.009,0.152-0.023,0.228-0.034c0.218-0.031,0.433-0.071,0.645-0.12c0.037-0.009,0.076-0.012,0.113-0.021l172.51-43.51  c3.37-0.85,5.733-3.883,5.733-7.358V313.715c0-4.191-3.398-7.589-7.589-7.589c-4.191,0-7.589,3.398-7.589,7.589v141.273  l-157.295,39.673l0.902-245.359l25.299,61.785c1.181,2.883,3.979,4.714,7.019,4.714c0.372,0,0.749-0.027,1.125-0.084l165.381-24.712  c2.452-0.366,4.571-1.907,5.674-4.127S469.705,282.039,468.517,279.863z M301.241,299.826l-33.934-82.874h149.571l33.11,60.648  L301.241,299.826z"/>
<path d="M83.116,349.583c4.191,0,7.589-3.398,7.589-7.589v-28.279c0-4.191-3.398-7.589-7.589-7.589  c-4.191,0-7.589,3.398-7.589,7.589v28.279C75.527,346.185,78.925,349.583,83.116,349.583z"/>
<path d="M259.067,170.971c1.481,1.481,3.424,2.223,5.366,2.223s3.885-0.741,5.366-2.223l50.019-50.019  c2.964-2.964,2.964-7.769,0-10.732c-2.964-2.964-7.769-2.964-10.732,0l-37.065,37.065V7.589c0-4.191-3.398-7.589-7.589-7.589  c-4.191,0-7.589,3.398-7.589,7.589v139.694l-37.065-37.065c-2.964-2.964-7.769-2.964-10.732,0c-2.964,2.964-2.964,7.769,0,10.732  L259.067,170.971z"/>
<g>
</g>
<g>
</g>
<g>
</g>
<g>
</g>
<g>
</g>
<g>
</g>
<g>
</g>
<g>
</g>
<g>
</g>
<g>
</g>
<g>
</g>
<g>
</g>
<g>
</g>
<g>
</g>
<g>
</g>
</svg>
