<?xml version="1.0" encoding="iso-8859-1"?>
<!-- Generator: Adobe Illustrator 19.0.0, SVG Export Plug-In . SVG Version: 6.00 Build 0)  -->
<svg xmlns="http://www.w3.org/2000/svg" xmlns:xlink="http://www.w3.org/1999/xlink" version="1.1" id="Layer_1" x="0px" y="0px" viewBox="0 0 512 512" style="enable-background:new 0 0 512 512;" xml:space="preserve">
<g>
	<path style="fill:none;stroke:#000000;stroke-width:15;stroke-linecap:round;stroke-linejoin:round;stroke-miterlimit:10;" d="   M239.104,282.37c0,10.244,8.305,18.55,18.55,18.55c10.244,0,18.55-8.305,18.55-18.55c0-10.244-9.022-13.062-18.55-18.55   c-9.975-5.981-18.55-8.305-18.55-18.55c0-10.244,8.305-18.55,18.55-18.55c10.244,0,18.55,8.305,18.55,18.55"/>
	
		<line style="fill:none;stroke:#000000;stroke-width:15;stroke-linecap:round;stroke-linejoin:round;stroke-miterlimit:10;" x1="257.653" y1="306.176" x2="257.653" y2="214.908"/>
	
		<line style="fill:none;stroke:#000000;stroke-width:15;stroke-linecap:round;stroke-linejoin:round;stroke-miterlimit:10;" x1="257.653" y1="311.083" x2="257.653" y2="301.279"/>
</g>
<polygon style="fill:#608ECF;" points="393.084,192.628 504.396,192.628 504.396,463.243 7.604,463.243 7.604,192.628   118.915,192.628 "/>
<g>
	<polyline style="fill:#4AA9E7;" points="322.58,302.564 504.396,192.628 504.396,463.243 457.458,463.187 324.575,305.034  "/>
	<polyline style="fill:#4AA9E7;" points="189.42,302.564 7.604,192.628 7.604,463.243 54.542,463.187 187.424,305.034  "/>
</g>
<path style="fill:#3C7BB8;" d="M7.604,192.628L256,349.655c0,0,44.758-29.27,96.275-62.547l27.741-17.881  c62.159-39.972,124.38-76.307,124.38-76.599H7.604z"/>
<polygon style="fill:#FFDC5E;" points="393.084,260.835 393.084,48.757 118.915,48.757 118.915,89.973 118.915,125.755   118.915,262.996 256,349.656 "/>
<rect x="172.559" y="85.16" style="fill:#E5BD2B;" width="166.892" height="33.868"/>
<path style="opacity:0.38;fill:#3C7BB8;enable-background:new    ;" d="M469.51,192.628v209.534  c0,15.028-12.183,27.211-27.211,27.211H7.604v33.871h496.792V192.628H469.51z"/>
<path d="M268.599,245.27c0,4.2,3.404,7.604,7.604,7.604c4.2,0,7.604-3.404,7.604-7.604c0-11.777-7.826-21.757-18.55-25.022v-5.34  c0-4.2-3.404-7.604-7.604-7.604c-4.2,0-7.604,3.404-7.604,7.604v5.34c-10.724,3.266-18.55,13.246-18.55,25.022  c0,12.846,9.093,17.805,17.117,22.181c0.47,0.257,0.954,0.525,1.433,0.788v21.986c-2.056-1.991-3.342-4.774-3.342-7.856  c0-4.2-3.404-7.604-7.604-7.604c-4.2,0-7.604,3.404-7.604,7.604c0,11.777,7.826,21.757,18.55,25.022v3.69  c0,4.2,3.404,7.604,7.604,7.604c4.2,0,7.604-3.404,7.604-7.604v-3.69c10.724-3.266,18.55-13.246,18.55-25.022  c0-13.121-9.959-18.447-17.962-22.728c-0.194-0.103-0.392-0.212-0.588-0.316v-21.912  C267.314,239.405,268.599,242.189,268.599,245.27z M246.708,245.27c0-3.082,1.285-5.865,3.342-7.856v13.251  C247.263,248.759,246.708,247.503,246.708,245.27z M268.599,282.37c0,3.082-1.285,5.865-3.342,7.856v-13.324  C267.968,278.804,268.599,280.168,268.599,282.37z"/>
<path d="M511.937,191.692c-0.012-0.097-0.028-0.194-0.045-0.291c-0.033-0.209-0.076-0.415-0.127-0.618  c-0.028-0.114-0.055-0.227-0.087-0.339c-0.053-0.176-0.117-0.348-0.181-0.518c-0.113-0.3-0.243-0.591-0.391-0.874  c-0.011-0.02-0.02-0.041-0.031-0.061c-0.697-1.304-1.752-2.41-3.095-3.143c-1.748-0.953-3.373-1.216-5.33-0.824H400.688V48.756  c0-4.2-3.404-7.604-7.604-7.604H118.915c-4.2,0-7.604,3.404-7.604,7.604v41.217c0,4.2,3.404,7.604,7.604,7.604  s7.604-3.404,7.604-7.604V56.36H385.48v200.32c-3.139,2.015-6.317,4.056-9.576,6.152c-3.532,2.272-4.554,6.977-2.283,10.509  c1.454,2.26,3.902,3.492,6.403,3.492c1.409,0,2.834-0.391,4.106-1.208c69.507-44.7,99.652-63.233,112.662-70.809v250.825h-35.744  L335.935,306.734c6.644-4.303,13.498-8.736,20.467-13.238c3.527-2.278,4.541-6.986,2.261-10.513  c-2.278-3.528-6.987-4.539-10.513-2.261c-42.054,27.162-79.999,51.916-92.217,59.895l-129.414-81.812v-133.05  c0-4.2-3.404-7.604-7.604-7.604s-7.604,3.404-7.604,7.604v59.269H7.604c-0.032,0-0.063,0.004-0.095,0.005  c-0.149,0.002-0.297,0.012-0.446,0.022c-0.109,0.008-0.219,0.013-0.326,0.025c-0.122,0.014-0.241,0.035-0.362,0.055  c-0.131,0.021-0.262,0.041-0.389,0.069c-0.095,0.02-0.189,0.049-0.283,0.073c-0.146,0.038-0.293,0.074-0.435,0.12  c-0.085,0.027-0.167,0.062-0.251,0.092c-0.145,0.053-0.291,0.104-0.432,0.165c-0.096,0.042-0.19,0.091-0.284,0.137  c-0.123,0.059-0.245,0.116-0.364,0.18c-0.119,0.065-0.233,0.14-0.349,0.212c-0.088,0.056-0.179,0.107-0.266,0.166  c-0.129,0.087-0.251,0.185-0.375,0.28c-0.069,0.054-0.14,0.103-0.207,0.159c-0.117,0.097-0.228,0.203-0.34,0.308  c-0.069,0.065-0.141,0.128-0.208,0.196c-0.093,0.094-0.18,0.197-0.27,0.297c-0.08,0.09-0.16,0.178-0.236,0.272  c-0.07,0.086-0.135,0.178-0.201,0.269c-0.086,0.117-0.171,0.234-0.251,0.356c-0.018,0.027-0.039,0.053-0.057,0.08  c-0.038,0.059-0.066,0.121-0.101,0.179c-0.078,0.131-0.154,0.262-0.224,0.397c-0.05,0.095-0.093,0.191-0.138,0.287  c-0.06,0.128-0.117,0.257-0.169,0.388c-0.044,0.111-0.083,0.221-0.122,0.333c-0.042,0.12-0.081,0.239-0.117,0.362  c-0.036,0.128-0.069,0.255-0.098,0.383c-0.025,0.109-0.051,0.22-0.072,0.332c-0.027,0.144-0.048,0.288-0.066,0.432  c-0.013,0.101-0.026,0.202-0.034,0.304c-0.013,0.156-0.02,0.312-0.023,0.468C0.008,192.497,0,192.562,0,192.629v270.616  c0,4.2,3.404,7.604,7.604,7.604h496.792c4.2,0,7.604-3.404,7.604-7.604V192.629C512,192.31,511.975,191.999,511.937,191.692z   M256,357.259c1.45,0,2.898-0.414,4.161-1.24c0.346-0.226,27.225-17.802,62.914-40.951l118.11,140.571H74.149l116.305-138.423  l61.483,38.867C253.178,356.868,254.589,357.259,256,357.259z M111.311,249.192l-77.448-48.959h77.448V249.192z M15.208,206.431  l162.274,102.585L54.285,455.641H15.208V206.431z M400.688,246.933v-46.701h74.171c-4.347,2.652-9.229,5.662-14.626,9.019  C444.719,218.903,424.754,231.538,400.688,246.933z"/>
<path d="M172.558,126.632h166.889c4.2,0,7.604-3.404,7.604-7.604V85.16c0-4.2-3.404-7.604-7.604-7.604H172.558  c-4.2,0-7.604,3.404-7.604,7.604v33.868C164.954,123.228,168.359,126.632,172.558,126.632z M180.162,92.764h151.681v18.66H180.162  V92.764z"/>
<path d="M172.558,163.48h166.889c4.2,0,7.604-3.404,7.604-7.604s-3.404-7.604-7.604-7.604H172.558c-4.2,0-7.604,3.404-7.604,7.604  S168.359,163.48,172.558,163.48z"/>
<path d="M172.558,193.291h166.889c4.2,0,7.604-3.404,7.604-7.604c0-4.2-3.404-7.604-7.604-7.604H172.558  c-4.2,0-7.604,3.404-7.604,7.604C164.954,189.887,168.359,193.291,172.558,193.291z"/>
<g>
</g>
<g>
</g>
<g>
</g>
<g>
</g>
<g>
</g>
<g>
</g>
<g>
</g>
<g>
</g>
<g>
</g>
<g>
</g>
<g>
</g>
<g>
</g>
<g>
</g>
<g>
</g>
<g>
</g>
</svg>
