<?xml version="1.0" encoding="iso-8859-1"?>
<!-- Generator: Adobe Illustrator 19.0.0, SVG Export Plug-In . SVG Version: 6.00 Build 0)  -->
<svg xmlns="http://www.w3.org/2000/svg" xmlns:xlink="http://www.w3.org/1999/xlink" version="1.1" id="Layer_1" x="0px" y="0px" viewBox="0 0 512.002 512.002" style="enable-background:new 0 0 512.002 512.002;" xml:space="preserve">
<path style="fill:#4AA9E7;" d="M194.857,20.325c15.061-7.002,31.204-12.651,48.904-12.651h24.481  c55.787,0,101.432,45.645,101.432,101.432v293.79c0,55.787-45.645,101.432-101.432,101.432h-24.481  c-55.787,0-101.432-45.645-101.432-101.432V195.267c0-9.378,7.603-16.982,16.982-16.983l0,0c9.379,0,16.983,7.603,16.983,16.983  v18.839c0,16.634,13.609,30.243,30.243,30.243h98.93c16.634,0,30.243-13.609,30.243-30.243v-93.752  c0-43.84-35.868-79.708-79.708-79.708l0,0c-43.84,0-79.708,35.868-79.708,79.708v10.715c0,9.276-7.444,16.836-16.72,16.98l0,0  c-9.481,0.146-17.244-7.499-17.244-16.98v-21.963c0-27.018,10.705-51.657,28.085-69.884  C170.414,39.221,181.776,26.405,194.857,20.325z"/>
<g style="opacity:0.21;">
	<path style="fill:#2F3368;" d="M340.932,36.55c5.933,12.864,9.253,27.158,9.253,42.19v293.79   c0,55.787-45.645,101.432-101.432,101.432h-24.481c-27.423,0-52.389-11.034-70.694-28.875   c16.087,34.879,51.423,59.241,92.179,59.241h24.481c55.787,0,101.432-45.645,101.432-101.432V109.105   C371.67,80.741,359.865,55.003,340.932,36.55z"/>
</g>
<path d="M268.242,0h-24.481c-18.37,0-36.568,4.708-52.626,13.614c-3.706,2.056-5.044,6.726-2.989,10.432  c2.055,3.706,6.725,5.046,10.432,2.989c13.786-7.646,29.41-11.688,45.182-11.688h24.482c51.699,0,93.758,42.059,93.758,93.758  v293.79c0,51.698-42.059,93.758-93.758,93.758h-24.482c-51.699,0-93.758-42.059-93.758-93.758V195.267  c0-5.133,4.176-9.309,9.308-9.309c5.133,0,9.309,4.176,9.309,9.309v18.838c0,20.908,17.01,37.918,37.918,37.918h98.929  c20.907,0,37.918-17.009,37.918-37.918v-93.751c0-48.183-39.2-87.382-87.382-87.382s-87.383,39.199-87.383,87.382v10.716  c0,5.053-4.111,9.23-9.163,9.308c-2.507,0.037-4.885-0.912-6.676-2.676c-1.791-1.764-2.777-4.118-2.777-6.631v-21.964  c0-24.09,9.222-47.028,25.965-64.588c2.924-3.067,2.809-7.924-0.258-10.85c-3.068-2.924-7.925-2.81-10.85,0.258  c-19.478,20.429-30.205,47.128-30.205,75.18v21.964c0,6.658,2.612,12.896,7.356,17.568c4.744,4.671,11.023,7.192,17.681,7.085  c13.385-0.208,24.275-11.267,24.275-24.653v-10.716c0-39.719,32.315-72.034,72.034-72.034s72.034,32.315,72.034,72.034v93.751  c0,12.445-10.125,22.57-22.57,22.57h-98.929c-12.445,0-22.57-10.125-22.57-22.57v-18.838c0-13.595-11.061-24.656-24.656-24.656  c-13.595,0-24.655,11.061-24.655,24.656v207.628c0,60.161,48.944,109.105,109.105,109.105h24.482  c60.161,0,109.105-48.944,109.105-109.105V109.105C377.348,48.944,328.403,0,268.242,0z"/>
<path d="M241.952,339.839c5.521-5.521,8.561-12.861,8.561-20.669c0-7.807-3.04-15.147-8.561-20.668  c-5.521-5.521-12.861-8.561-20.668-8.561c-7.808,0-15.148,3.041-20.669,8.561c-5.521,5.521-8.562,12.861-8.562,20.668  c0,7.808,3.041,15.148,8.562,20.669c5.521,5.521,12.861,8.561,20.669,8.561C229.091,348.4,236.432,345.359,241.952,339.839z   M207.402,319.169c0-3.707,1.445-7.193,4.066-9.815c2.622-2.622,6.108-4.067,9.816-4.067c3.708,0,7.194,1.444,9.816,4.067  c2.622,2.622,4.066,6.108,4.066,9.815c0,3.708-1.444,7.194-4.066,9.816c-2.622,2.622-6.108,4.067-9.816,4.067  c-3.709,0-7.195-1.444-9.816-4.067C208.845,326.364,207.402,322.877,207.402,319.169z"/>
<path d="M290.719,417.836c7.808,0,15.148-3.041,20.669-8.561c5.521-5.521,8.562-12.861,8.562-20.669s-3.041-15.148-8.562-20.669  c-5.521-5.521-12.861-8.561-20.669-8.561c-7.807,0-15.148,3.041-20.668,8.561c-5.521,5.521-8.561,12.861-8.561,20.669  s3.04,15.148,8.561,20.669C275.572,414.795,282.912,417.836,290.719,417.836z M280.904,378.79c2.622-2.622,6.108-4.067,9.816-4.067  c3.709,0,7.195,1.444,9.816,4.067c2.622,2.622,4.066,6.108,4.066,9.816s-1.445,7.194-4.066,9.816  c-2.622,2.622-6.108,4.067-9.816,4.067c-3.708,0-7.194-1.444-9.816-4.067c-2.622-2.622-4.066-6.108-4.066-9.816  S278.281,381.411,280.904,378.79z"/>
<path d="M212.437,404.62c1.963,0,3.928-0.749,5.426-2.247l86.623-86.622c2.997-2.998,2.997-7.856,0-10.853  c-2.996-2.995-7.855-2.997-10.852,0l-86.623,86.622c-2.997,2.998-2.997,7.856,0,10.853  C208.51,403.871,210.473,404.62,212.437,404.62z"/>
<g>
</g>
<g>
</g>
<g>
</g>
<g>
</g>
<g>
</g>
<g>
</g>
<g>
</g>
<g>
</g>
<g>
</g>
<g>
</g>
<g>
</g>
<g>
</g>
<g>
</g>
<g>
</g>
<g>
</g>
</svg>
