<?xml version="1.0" encoding="iso-8859-1"?>
<!-- Generator: Adobe Illustrator 19.0.0, SVG Export Plug-In . SVG Version: 6.00 Build 0)  -->
<svg xmlns="http://www.w3.org/2000/svg" xmlns:xlink="http://www.w3.org/1999/xlink" version="1.1" id="Layer_1" x="0px" y="0px" viewBox="0 0 512 512" style="enable-background:new 0 0 512 512;" xml:space="preserve">
<g>
	<path style="fill:#CCA61C;" d="M477.477,365.046c-1.455-0.487-2.911-0.973-4.366-1.46c-1.868-0.625-2.67,2.324-0.813,2.946   c1.455,0.487,2.911,0.973,4.366,1.46C478.534,368.616,479.335,365.667,477.477,365.046L477.477,365.046z"/>
	<path style="fill:#CCA61C;" d="M78.612,471.889H41.106V113.703c0-2.761,1.058-5.418,2.957-7.423L57.993,91.57l20.619-21.774   l45.464-48.009c4.258-4.497,11.419-4.497,15.677,0l17.324,18.295L78.612,471.889z"/>
</g>
<path style="fill:#FFDC5E;" d="M133.931,64.518L183.75,11.91c5.396-5.698,14.469-5.698,19.865,0l101.391,107.067  c2.406,2.541,3.747,5.907,3.747,9.406v375.98H78.612v-375.98c0-3.499,1.341-6.865,3.747-9.406l29.635-31.295L133.931,64.518z"/>
<circle style="fill:#CCA61C;" cx="193.681" cy="126.721" r="29.865"/>
<rect x="119.227" y="200.065" style="fill:#FFF6D6;" width="148.918" height="256.588"/>
<g style="opacity:0.41;">
	<path style="fill:#2D2128;" d="M212.936,103.9c-1.167,22.707-19.37,40.91-42.077,42.077c5.478,6.488,13.668,10.613,22.825,10.613   c16.495,0,29.866-13.372,29.866-29.865C223.548,117.568,219.423,109.378,212.936,103.9z"/>
</g>
<path d="M310.551,113.726L209.161,6.66C205.153,2.427,199.511,0,193.682,0c-5.828,0-11.471,2.427-15.476,6.66l-21.13,22.313  l-11.777-12.437c-3.465-3.66-8.344-5.759-13.385-5.759c-5.039,0-9.918,2.1-13.383,5.758L73.068,64.545  c-2.901,3.063-2.77,7.896,0.293,10.796c1.476,1.398,3.365,2.091,5.25,2.091c2.023,0,4.044-0.8,5.545-2.386l45.465-48.009  c0.813-0.858,1.785-0.987,2.292-0.987c0.508,0,1.481,0.128,2.294,0.988l12.349,13.041l-18.171,19.188  c-2.901,3.063-2.77,7.896,0.293,10.796c3.062,2.899,7.895,2.769,10.796-0.294l49.82-52.609c1.153-1.217,2.711-1.888,4.387-1.888  s3.235,0.671,4.389,1.888l101.391,107.067c1.067,1.126,1.655,2.602,1.655,4.154v368.343H86.25V128.383  c0-1.552,0.588-3.028,1.655-4.154l29.635-31.295c2.901-3.062,2.769-7.895-0.293-10.796c-3.062-2.899-7.895-2.769-10.796,0.294  l-29.635,31.294c-3.765,3.975-5.839,9.182-5.839,14.658v335.869H48.743V113.703c0-0.812,0.308-1.582,0.867-2.172l13.93-14.712  c2.9-3.062,2.768-7.895-0.294-10.796c-3.062-2.9-7.895-2.77-10.796,0.294l-13.93,14.71c-3.256,3.438-5.05,7.938-5.05,12.675v358.187  c0,4.218,3.418,7.637,7.637,7.637h29.87v24.837c0,4.218,3.418,7.637,7.637,7.637h230.141c4.219,0,7.637-3.419,7.637-7.637v-375.98  C316.389,122.907,314.316,117.701,310.551,113.726z"/>
<path d="M231.185,126.725c0-20.679-16.822-37.502-37.502-37.502s-37.503,16.823-37.503,37.502c0,20.68,16.823,37.503,37.503,37.503  S231.185,147.403,231.185,126.725z M193.683,148.953c-0.853,0-1.694-0.053-2.523-0.148c11.129-4.571,20.033-13.474,24.604-24.604  c0.094,0.829,0.148,1.669,0.148,2.522C215.911,138.981,205.939,148.953,193.683,148.953z M193.683,104.496  c3.667,0,7.126,0.898,10.177,2.476c-0.002,0.064-0.009,0.125-0.009,0.189c0,16.394-13.337,29.73-29.73,29.73  c-0.064,0-0.126,0.008-0.19,0.009c-1.579-3.052-2.476-6.511-2.476-10.177C171.453,114.468,181.425,104.496,193.683,104.496z"/>
<path d="M168.677,362.252c0-4.218-3.418-7.637-7.637-7.637s-7.637,3.419-7.637,7.637c0,19.599,14.073,35.965,32.644,39.545v2.355  v8.629c0,4.218,3.418,7.637,7.637,7.637s7.637-3.419,7.637-7.637v-8.629v-2.355c18.57-3.579,32.644-19.945,32.644-39.545  c0-19.651-14.527-27.419-28.576-34.932c-1.337-0.715-2.698-1.446-4.067-2.192v-51.972c10.064,3.236,17.37,12.684,17.37,23.81  c0,4.218,3.418,7.637,7.637,7.637s7.637-3.419,7.637-7.637c0-19.599-14.073-35.965-32.644-39.545v-13.888  c0-4.218-3.418-7.637-7.637-7.637s-7.637,3.419-7.637,7.637v13.888c-18.57,3.579-32.644,19.945-32.644,39.545  c0,19.195,13.791,26.717,27.129,33.991c1.803,0.984,3.647,1.995,5.515,3.051v52.055  C175.982,382.826,168.677,373.378,168.677,362.252z M218.69,362.252c0,11.126-7.305,20.574-17.37,23.81v-43.581  C213.028,348.86,218.69,352.995,218.69,362.252z M168.677,296.965c0-11.126,7.305-20.574,17.37-23.81v43.407  C174.033,309.955,168.677,306.23,168.677,296.965z"/>
<path d="M111.587,200.062c0,4.218,3.418,7.637,7.637,7.637h148.917c4.219,0,7.637-3.419,7.637-7.637  c0-4.218-3.418-7.637-7.637-7.637H119.224C115.006,192.425,111.587,195.843,111.587,200.062z"/>
<path d="M111.587,456.651c0,4.218,3.418,7.637,7.637,7.637h148.917c4.219,0,7.637-3.419,7.637-7.637s-3.418-7.637-7.637-7.637  H119.224C115.006,449.014,111.587,452.434,111.587,456.651z"/>
<g>
</g>
<g>
</g>
<g>
</g>
<g>
</g>
<g>
</g>
<g>
</g>
<g>
</g>
<g>
</g>
<g>
</g>
<g>
</g>
<g>
</g>
<g>
</g>
<g>
</g>
<g>
</g>
<g>
</g>
</svg>
