<?xml version="1.0" encoding="iso-8859-1"?>
<!-- Generator: Adobe Illustrator 19.0.0, SVG Export Plug-In . SVG Version: 6.00 Build 0)  -->
<svg xmlns="http://www.w3.org/2000/svg" xmlns:xlink="http://www.w3.org/1999/xlink" version="1.1" id="Layer_1" x="0px" y="0px" viewBox="0 0 512 512" style="enable-background:new 0 0 512 512;" xml:space="preserve">
<rect x="246.156" y="415.241" style="fill:#CCA61C;" width="181.285" height="28.951"/>
<rect x="64.159" y="235.297" style="fill:#FFEDAC;" width="383.679" height="269.083"/>
<rect x="125.983" y="336.362" style="fill:#FF6746;" width="93.284" height="167.917"/>
<rect x="172.63" y="336.362" style="fill:#AB3218;" width="46.643" height="167.917"/>
<polygon style="fill:#B9DEF3;" points="297.352,336.357 406.427,336.357 406.427,415.241 268.079,415.241 268.079,336.357 "/>
<rect x="316.278" y="336.362" style="fill:#4AA9E7;" width="48.191" height="78.889"/>
<g>
	<circle style="fill:#3F3C43;" cx="84.689" cy="30.29" r="22.672"/>
	<circle style="fill:#3F3C43;" cx="427.563" cy="30.29" r="22.672"/>
</g>
<polygon style="opacity:0.26;fill:#CCA61C;enable-background:new    ;" points="399.996,235.297 399.996,457.658 219.268,457.658   219.268,504.381 446.719,504.381 446.719,235.297 "/>
<path style="fill:#FF6746;" d="M87.325,177.393l-41.443,52.604c-19.608,24.888-3.205,62.192,28.453,63.476  c0.615,0.025,1.232,0.038,1.853,0.038c24.819,0,44.939-20.12,44.939-44.939c0,24.819,20.12,44.939,44.939,44.939  s44.939-20.12,44.939-44.939c0,24.819,20.12,44.939,44.939,44.939s44.939-20.12,44.939-44.939c0,24.819,20.12,44.939,44.939,44.939  c24.819,0,44.939-20.12,44.939-44.939c0,24.819,20.12,44.939,44.939,44.939c0.621,0,1.238-0.012,1.852-0.038  c31.611-1.282,48.115-38.411,28.741-63.421l-40.792-52.659L87.325,177.393L87.325,177.393z"/>
<rect x="87.325" y="130.016" style="fill:#FFDC5E;" width="338.17" height="47.374"/>
<rect x="87.325" y="152.598" style="fill:#CCA61C;" width="338.17" height="24.794"/>
<circle style="fill:#3F3C43;" cx="262.5" cy="30.29" r="22.672"/>
<path d="M472.316,225.386l-39.196-50.599v-44.77c0-4.208-3.41-7.619-7.619-7.619H270.115V96.555l157.446,0.016c0.001,0,0,0,0.001,0  c4.208,0,7.618-3.41,7.619-7.618l0.005-29.343c13.027-3.387,22.672-15.248,22.672-29.319C457.858,13.588,444.27,0,427.568,0  s-30.291,13.588-30.291,30.29c0,14.071,9.645,25.931,22.671,29.319l-0.004,21.723l-149.829-0.014V59.609  c13.026-3.387,22.671-15.248,22.671-29.319c0-16.702-13.588-30.29-30.29-30.29s-30.29,13.588-30.29,30.29  c0,14.071,9.645,25.931,22.671,29.319v21.706L92.307,81.299l0.004-21.691c13.024-3.389,22.667-15.248,22.667-29.318  C114.977,13.588,101.39,0,84.687,0S54.396,13.588,54.396,30.29c0,14.073,9.647,25.934,22.676,29.32l-0.004,29.306  c0,2.02,0.803,3.959,2.231,5.388c1.428,1.429,3.365,2.232,5.387,2.232l170.191,0.017v25.846H117.871  c-4.209,0-7.619,3.411-7.619,7.619c0,4.208,3.41,7.619,7.619,7.619h300.011v39.756c0,0.072,0.009,0.143,0.011,0.214  c0.004,0.146,0.01,0.293,0.022,0.439c0.009,0.11,0.023,0.218,0.038,0.327c0.017,0.137,0.038,0.275,0.063,0.412  c0.021,0.115,0.046,0.227,0.072,0.339c0.029,0.128,0.062,0.255,0.099,0.381c0.034,0.117,0.071,0.231,0.11,0.345  c0.041,0.12,0.083,0.238,0.13,0.356c0.047,0.118,0.098,0.233,0.15,0.348c0.05,0.109,0.101,0.217,0.156,0.324  c0.062,0.12,0.128,0.237,0.197,0.354c0.057,0.098,0.115,0.196,0.177,0.292c0.077,0.12,0.16,0.236,0.245,0.35  c0.044,0.06,0.081,0.123,0.127,0.182l40.792,52.659c7.47,9.645,8.835,22.056,3.649,33.199c-5.009,10.762-14.98,17.469-26.68,17.944  c-0.511,0.021-1.024,0.031-1.54,0.031c-20.579,0-37.32-16.742-37.32-37.321c0-4.208-3.41-7.619-7.619-7.619  s-7.619,3.411-7.619,7.619c0,20.579-16.741,37.321-37.32,37.321c-20.579,0-37.321-16.742-37.321-37.321  c0-4.208-3.41-7.619-7.619-7.619s-7.619,3.411-7.619,7.619c0,20.579-16.741,37.321-37.32,37.321s-37.32-16.742-37.32-37.321  c0-4.208-3.41-7.619-7.619-7.619s-7.619,3.411-7.619,7.619c0,20.579-16.742,37.321-37.321,37.321s-37.32-16.742-37.32-37.321  c0-4.208-3.41-7.619-7.619-7.619c-4.209,0-7.619,3.411-7.619,7.619c0,20.579-16.741,37.321-37.32,37.321  c-0.516,0-1.029-0.01-1.544-0.031c-11.703-0.474-21.658-7.2-26.627-17.99c-5.067-11.005-3.592-23.712,3.85-33.159l39.155-49.7  H392.05c4.209,0,7.619-3.411,7.619-7.619c0-4.208-3.41-7.619-7.619-7.619H94.945v-39.756c0-4.208-3.41-7.619-7.619-7.619  s-7.619,3.411-7.619,7.619v44.734l-39.808,50.53c-11.003,13.967-13.196,32.727-5.721,48.96c7.412,16.097,22.31,26.132,39.846,26.842  c0.718,0.029,1.439,0.044,2.166,0.044c19.018,0,35.711-10.155,44.938-25.327c9.228,15.171,25.921,25.327,44.938,25.327  c19.019,0,35.712-10.156,44.939-25.327c9.228,15.171,25.921,25.327,44.938,25.327s35.711-10.156,44.938-25.327  c9.228,15.171,25.921,25.327,44.939,25.327s35.711-10.155,44.938-25.327c9.228,15.171,25.921,25.327,44.938,25.327  c0.726,0,1.448-0.014,2.162-0.044c17.504-0.709,32.41-10.706,39.872-26.739C485.259,258.175,483.184,239.415,472.316,225.386z   M412.514,30.29c0-8.3,6.752-15.053,15.054-15.053c8.3,0,15.053,6.752,15.053,15.053s-6.752,15.053-15.053,15.053  C419.266,45.344,412.514,38.59,412.514,30.29z M247.444,30.29c0-8.3,6.752-15.053,15.053-15.053c8.3,0,15.053,6.752,15.053,15.053  s-6.752,15.053-15.053,15.053C254.196,45.343,247.444,38.59,247.444,30.29z M69.634,30.29c0-8.3,6.753-15.053,15.054-15.053  S99.74,21.99,99.74,30.29s-6.752,15.053-15.053,15.053S69.634,38.59,69.634,30.29z"/>
<path d="M447.844,310.893c-4.209,0-7.619,3.411-7.619,7.619v178.251h-213.34V336.357c0-4.208-3.41-7.619-7.619-7.619h-93.285  c-4.209,0-7.619,3.411-7.619,7.619v160.406H71.778V318.512c0-4.208-3.41-7.619-7.619-7.619s-7.619,3.411-7.619,7.619v185.87  c0,4.208,3.41,7.619,7.619,7.619h383.684c4.209,0,7.619-3.411,7.619-7.619v-185.87C455.462,314.304,452.052,310.893,447.844,310.893  z M211.648,496.651h-31.404V343.976h31.404V496.651z M133.601,343.976h31.405v152.675h-31.405V343.976z"/>
<path d="M268.079,328.738c-4.209,0-7.619,3.411-7.619,7.619v71.266h-14.307c-4.209,0-7.619,3.411-7.619,7.619v28.951  c0,4.208,3.41,7.619,7.619,7.619h181.279c4.209,0,7.619-3.411,7.619-7.619v-28.951c0-4.208-3.41-7.619-7.619-7.619h-13.387v-71.266  c0-4.208-3.41-7.619-7.619-7.619h-41.961h-48.193h-18.922c-4.209,0-7.619,3.411-7.619,7.619c0,4.208,3.41,7.619,7.619,7.619h11.303  v63.647h-32.957v-71.266C275.698,332.149,272.288,328.738,268.079,328.738z M398.809,407.622h-26.723v-63.647h26.723V407.622z   M323.892,343.976h32.956v63.647h-32.956L323.892,343.976L323.892,343.976z M316.273,422.86h48.193h41.961h13.387v13.714H253.772  V422.86h14.307H316.273z"/>
<path d="M156.96,207.381v39.747c0,4.208,3.41,7.619,7.619,7.619c4.209,0,7.619-3.411,7.619-7.619v-39.747  c0-4.208-3.41-7.619-7.619-7.619C160.37,199.762,156.96,203.173,156.96,207.381z"/>
<path d="M248.382,207.381v39.747c0,4.208,3.41,7.619,7.619,7.619s7.619-3.411,7.619-7.619v-39.747c0-4.208-3.41-7.619-7.619-7.619  S248.382,203.173,248.382,207.381z"/>
<path d="M332.751,207.381v39.747c0,4.208,3.41,7.619,7.619,7.619s7.619-3.411,7.619-7.619v-39.747c0-4.208-3.41-7.619-7.619-7.619  S332.751,203.173,332.751,207.381z"/>
<g>
</g>
<g>
</g>
<g>
</g>
<g>
</g>
<g>
</g>
<g>
</g>
<g>
</g>
<g>
</g>
<g>
</g>
<g>
</g>
<g>
</g>
<g>
</g>
<g>
</g>
<g>
</g>
<g>
</g>
</svg>
