<?xml version="1.0" encoding="UTF-8"?>
<!DOCTYPE svg PUBLIC "-//W3C//DTD SVG 1.1//EN" "http://www.w3.org/Graphics/SVG/1.1/DTD/svg11.dtd">
<!-- Creator: CorelDRAW -->
<svg xmlns="http://www.w3.org/2000/svg" xml:space="preserve" width="2048px" height="2048px" style="shape-rendering:geometricPrecision; text-rendering:geometricPrecision; image-rendering:optimizeQuality; fill-rule:evenodd; clip-rule:evenodd"
viewBox="0 0 2048 2048"
 xmlns:xlink="http://www.w3.org/1999/xlink">
 <defs>
  <style type="text/css">
   <![CDATA[
    .fil2 {fill:none}
    .fil1 {fill:#66BB6A}
    .fil0 {fill:#A5D6A7}
    .fil8 {fill:#DD2C00}
    .fil7 {fill:#FF3D00}
    .fil10 {fill:#FFFFFE}
    .fil4 {fill:#0D47A1;fill-rule:nonzero}
    .fil9 {fill:#1976D2;fill-rule:nonzero}
    .fil3 {fill:#1E88E5;fill-rule:nonzero}
    .fil6 {fill:#DD2C00;fill-rule:nonzero}
    .fil5 {fill:#FFFFFE;fill-rule:nonzero}
   ]]>
  </style>
   <clipPath id="id0">
    <path d="M1024 -0.0011811c565.539,0 1024,458.462 1024,1024 0,565.539 -458.462,1024 -1024,1024 -565.539,0 -1024,-458.462 -1024,-1024 0,-565.539 458.462,-1024 1024,-1024z"/>
   </clipPath>
 </defs>
 <g id="Layer_x0020_1">
  <metadata id="CorelCorpID_0Corel-Layer"/>
  <path class="fil0" d="M1024 -0.0011811c565.539,0 1024,458.462 1024,1024 0,565.539 -458.462,1024 -1024,1024 -565.539,0 -1024,-458.462 -1024,-1024 0,-565.539 458.462,-1024 1024,-1024z"/>
  <g style="clip-path:url(#id0)">
   <g id="_451249160">
    <g>
     <polygon id="_3342799601" class="fil1" points="1068.81,1016.59 2204.69,2152.47 2206.56,2154.49 2208.25,2156.54 2209.75,2158.62 2211.06,2160.73 2212.17,2162.86 2213.09,2165.02 2213.8,2167.2 2214.32,2169.41 2214.63,2171.64 2214.73,2173.89 1078.85,1038.01 1078.75,1035.76 1078.44,1033.53 1077.92,1031.32 1077.21,1029.14 1076.29,1026.98 1075.18,1024.85 1073.87,1022.74 1072.37,1020.66 1070.68,1018.61 "/>
     <polygon id="_334280008" class="fil1" points="1078.85,1038.01 2214.73,2173.89 2214.69,2175.36 2214.56,2176.81 2214.34,2178.25 2214.04,2179.69 2213.65,2181.11 2213.18,2182.52 2212.62,2183.93 2211.98,2185.32 2211.26,2186.7 2210.46,2188.07 2209.57,2189.43 2208.61,2190.77 2207.57,2192.11 2206.44,2193.44 2205.24,2194.75 2203.96,2196.05 1068.08,1060.17 1069.36,1058.87 1070.56,1057.55 1071.68,1056.23 1072.73,1054.89 1073.69,1053.55 1074.58,1052.19 1075.38,1050.82 1076.1,1049.44 1076.74,1048.04 1077.3,1046.64 1077.77,1045.23 1078.16,1043.8 1078.46,1042.37 1078.68,1040.93 1078.81,1039.48 "/>
     <polygon id="_334281856" class="fil1" points="919.759,531.767 2055.64,1667.65 2446.53,2418.57 1310.65,1282.68 "/>
     <polygon id="_334282192" class="fil1" points="1520.94,1214.22 2656.82,2350.1 2671.3,2377.93 1535.42,1242.05 "/>
     <polygon id="_334282240" class="fil1" points="1550.16,1260.52 2686.04,2396.4 2682.01,2398.5 1546.13,1262.62 "/>
     <polygon id="_334281760" class="fil1" points="1546.13,1262.62 2682.01,2398.5 2668.51,2405.53 1532.62,1269.64 "/>
     <polygon id="_334281976" class="fil1" points="1532.62,1269.64 2668.51,2405.53 2668.52,2405.9 2668.51,2406.28 2668.49,2406.66 2668.45,2407.05 2668.4,2407.43 2668.32,2407.81 2668.23,2408.19 2668.12,2408.58 1532.24,1272.69 1532.35,1272.31 1532.44,1271.93 1532.52,1271.55 1532.57,1271.16 1532.61,1270.78 1532.63,1270.4 1532.64,1270.02 "/>
     <polygon id="_334282048" class="fil1" points="1532.24,1272.69 2668.12,2408.58 2667.96,2409.16 2667.87,2409.69 2667.84,2410.2 2667.88,2410.66 2667.98,2411.1 2668.14,2411.51 2668.37,2411.9 2668.67,2412.27 1532.79,1276.39 1532.49,1276.02 1532.26,1275.63 1532.09,1275.22 1531.99,1274.78 1531.96,1274.31 1531.99,1273.81 1532.08,1273.27 "/>
     <polygon id="_334282216" class="fil1" points="1555.08,1291.02 2690.96,2426.91 2692.17,2428.38 2693.12,2429.88 2693.84,2431.4 2694.33,2432.95 2694.64,2434.53 2694.77,2436.13 2694.77,2437.76 2694.63,2439.42 2694.4,2441.1 2694.1,2442.81 2693.74,2444.54 2693.35,2446.3 1557.47,1310.42 1557.86,1308.66 1558.22,1306.93 1558.52,1305.22 1558.75,1303.53 1558.88,1301.88 1558.89,1300.25 1558.76,1298.65 1558.45,1297.07 1557.95,1295.52 1557.24,1294 1556.29,1292.5 "/>
     <polygon id="_334282456" class="fil1" points="1540,1301.29 2675.88,2437.17 2675.13,2436.68 1539.25,1300.8 "/>
     <polygon id="_334282600" class="fil1" points="1514.87,1278.89 2650.75,2414.77 2643.17,2418.71 1507.29,1282.83 "/>
     <polygon id="_334282528" class="fil1" points="1494.42,1294.85 2630.3,2430.73 2629.94,2430.44 2629.52,2430.19 2629.03,2429.97 2628.48,2429.79 1492.59,1293.9 1493.15,1294.09 1493.64,1294.31 1494.06,1294.56 "/>
     <polygon id="_334282624" class="fil1" points="1492.59,1293.9 2628.48,2429.79 2628.02,2429.64 2627.58,2429.47 2627.16,2429.28 2626.74,2429.07 2626.35,2428.84 2625.97,2428.6 2625.6,2428.33 2625.25,2428.04 1489.37,1292.16 1489.72,1292.45 1490.08,1292.71 1490.47,1292.96 1490.86,1293.19 1491.27,1293.4 1491.7,1293.59 1492.14,1293.76 "/>
     <polygon id="_334250248" class="fil1" points="1489.37,1292.16 2625.25,2428.04 2609.3,2436.35 1473.42,1300.46 "/>
     <polygon id="_334250416" class="fil1" points="1539.25,1300.8 2675.13,2436.68 2673.48,2435.84 2671.9,2435.01 2670.38,2434.19 2668.91,2433.39 2667.51,2432.6 2666.16,2431.81 2664.88,2431.03 2663.65,2430.25 2662.47,2429.48 2661.36,2428.7 2660.3,2427.92 2659.3,2427.14 2658.35,2426.34 2657.46,2425.54 2656.62,2424.73 1520.74,1288.85 1521.58,1289.66 1522.47,1290.46 1523.42,1291.25 1524.42,1292.04 1525.48,1292.82 1526.59,1293.6 1527.77,1294.37 1528.99,1295.15 1530.28,1295.93 1531.63,1296.72 1533.03,1297.51 1534.49,1298.31 1536.02,1299.13 1537.6,1299.95 "/>
     <polygon id="_334250824" class="fil1" points="1512.15,1292.23 2648.03,2428.11 2648.28,2429.21 2648.48,2430.34 2648.65,2431.52 2648.78,2432.74 2648.87,2434.01 2648.93,2435.32 2648.95,2436.67 2648.94,2438.08 2648.9,2439.53 2648.83,2441.03 2648.74,2442.59 2648.61,2444.2 2648.46,2445.87 2648.29,2447.59 2648.1,2449.38 2647.88,2451.22 1512,1315.34 1512.22,1313.49 1512.41,1311.71 1512.58,1309.99 1512.73,1308.32 1512.86,1306.71 1512.95,1305.15 1513.02,1303.65 1513.06,1302.19 1513.07,1300.79 1513.05,1299.44 1512.99,1298.13 1512.9,1296.86 1512.77,1295.64 1512.6,1294.46 1512.39,1293.32 "/>
     <polygon id="_334250632" class="fil1" points="1558.19,1320.47 2694.07,2456.36 2695.04,2457.48 1559.16,1321.59 "/>
     <polygon id="_334250656" class="fil1" points="1557.47,1310.42 2693.35,2446.3 2693.07,2447.58 2692.82,2448.88 2692.64,2450.19 2692.57,2451.49 2692.64,2452.77 2692.88,2454.01 2693.35,2455.21 2694.07,2456.36 1558.19,1320.47 1557.47,1319.33 1557,1318.13 1556.76,1316.88 1556.69,1315.6 1556.76,1314.3 1556.94,1313 1557.19,1311.7 "/>
     <polygon id="_334250704" class="fil1" points="1507.29,1282.83 2643.17,2418.71 2644.01,2419.65 2644.78,2420.66 2645.48,2421.73 2646.11,2422.86 2646.68,2424.07 2647.19,2425.34 2647.64,2426.69 2648.03,2428.11 1512.15,1292.23 1511.76,1290.81 1511.31,1289.46 1510.8,1288.19 1510.23,1286.98 1509.6,1285.84 1508.9,1284.77 1508.13,1283.77 "/>
     <polygon id="_334250344" class="fil1" points="1563.8,1345.79 2699.68,2481.67 2698.41,2480.57 2696.9,2479.57 2695.24,2478.61 1559.36,1342.73 1561.02,1343.69 1562.53,1344.68 "/>
     <polygon id="_334250512" class="fil1" points="1559.36,1342.73 2695.24,2478.61 2694.3,2478.08 2693.35,2477.54 2692.4,2476.99 2691.44,2476.42 2690.48,2475.83 2689.52,2475.22 2688.56,2474.57 2687.61,2473.9 2686.66,2473.2 2685.71,2472.45 2684.78,2471.67 2683.86,2470.83 2682.96,2469.96 1547.08,1334.07 1547.98,1334.95 1548.9,1335.78 1549.83,1336.57 1550.77,1337.31 1551.72,1338.02 1552.68,1338.69 1553.64,1339.33 1554.6,1339.95 1555.56,1340.54 1556.52,1341.11 1557.47,1341.66 1558.42,1342.2 "/>
     <polygon id="_334250296" class="fil1" points="1512,1315.34 2647.88,2451.22 2647.87,2452.12 2648.07,2452.88 2648.44,2453.52 1512.56,1317.64 1512.19,1317 1511.99,1316.24 "/>
     <polygon id="_334250368" class="fil1" points="1528.74,1327 2664.62,2462.89 2665.71,2464.1 2666.75,2465.45 2667.72,2466.95 2668.62,2468.61 2669.44,2470.44 2670.18,2472.45 1534.3,1336.57 1533.56,1334.56 1532.74,1332.73 1531.83,1331.07 1530.86,1329.57 1529.83,1328.22 "/>
     <polygon id="_334251376" class="fil1" points="1534.3,1336.57 2670.18,2472.45 2670.58,2473.75 2670.92,2475.03 2671.2,2476.29 2671.43,2477.53 2671.61,2478.76 2671.75,2479.97 2671.84,2481.17 2671.9,2482.35 2671.93,2483.52 2671.93,2484.67 2671.91,2485.8 2671.86,2486.92 2671.81,2488.03 2671.73,2489.13 2671.66,2490.21 2671.58,2491.28 1535.7,1355.39 1535.78,1354.33 1535.85,1353.24 1535.92,1352.15 1535.98,1351.04 1536.03,1349.92 1536.05,1348.78 1536.05,1347.63 1536.02,1346.47 1535.96,1345.29 1535.87,1344.09 1535.73,1342.88 1535.55,1341.65 1535.32,1340.41 1535.04,1339.15 1534.7,1337.87 "/>
     <polygon id="_334250968" class="fil1" points="1516.52,1339.75 2652.41,2475.64 2651.51,2474.74 2650.49,2473.97 2649.37,2473.32 2648.2,2472.74 2646.98,2472.23 2645.78,2471.75 1509.89,1335.87 1511.1,1336.35 1512.31,1336.86 1513.49,1337.43 1514.61,1338.09 1515.63,1338.86 "/>
     <polygon id="_334251400" class="fil1" points="1473.42,1300.46 2609.3,2436.35 2610.22,2437.34 2611.05,2438.4 2611.81,2439.53 2612.48,2440.75 2613.08,2442.03 2613.61,2443.4 2614.07,2444.85 2614.46,2446.38 1478.58,1310.5 1478.19,1308.97 1477.73,1307.52 1477.2,1306.15 1476.6,1304.86 1475.93,1303.65 1475.17,1302.52 1474.34,1301.45 "/>
     <polygon id="_334250992" class="fil1" points="1509.89,1335.87 2645.78,2471.75 2644.09,2471.09 2642.45,2470.42 2640.86,2469.73 2639.33,2468.98 2637.88,2468.17 2636.52,2467.27 2635.26,2466.26 2634.12,2465.13 1498.24,1329.25 1499.38,1330.38 1500.64,1331.39 1502,1332.29 1503.45,1333.1 1504.98,1333.84 1506.57,1334.54 1508.21,1335.21 "/>
     <polygon id="_334251712" class="fil1" points="1460.83,1312.76 2596.71,2448.65 2596.34,2448.35 2595.92,2448.08 2595.42,2447.85 2594.86,2447.65 1458.98,1311.77 1459.54,1311.97 1460.04,1312.2 1460.46,1312.47 "/>
     <polygon id="_334251592" class="fil1" points="1535.7,1355.39 2671.58,2491.28 2671.45,2493.2 2671.43,2495 2671.64,2496.67 2672.18,2498.17 2673.16,2499.49 1537.28,1363.61 1536.3,1362.29 1535.76,1360.78 1535.55,1359.12 1535.57,1357.31 "/>
     <polygon id="_334251136" class="fil1" points="1458.98,1311.77 2594.86,2447.65 2594.37,2447.48 2593.9,2447.28 2593.45,2447.06 2593.02,2446.82 2592.6,2446.55 2592.2,2446.26 2591.83,2445.96 2591.47,2445.63 1455.59,1309.75 1455.94,1310.07 1456.32,1310.38 1456.72,1310.67 1457.14,1310.94 1457.57,1311.18 1458.02,1311.4 1458.49,1311.6 "/>
     <polygon id="_334251160" class="fil1" points="1579.38,1362.98 2715.26,2498.86 2714.35,2500.36 2713.2,2501.61 2711.85,2502.6 2710.35,2503.3 2708.74,2503.71 2707.07,2503.81 2705.39,2503.58 2703.74,2503 1567.86,1367.12 1569.51,1367.7 1571.19,1367.93 1572.86,1367.83 1574.47,1367.42 1575.97,1366.71 1577.32,1365.73 1578.47,1364.47 "/>
     <polygon id="_334251280" class="fil1" points="1567.86,1367.12 2703.74,2503 2702.24,2502.1 2700.99,2500.96 1565.11,1365.08 1566.36,1366.22 "/>
     <polygon id="_334251352" class="fil1" points="1579.81,1335.93 2715.69,2471.81 2717.07,2473.48 2718.2,2475.31 2719.07,2477.33 2719.63,2479.55 2719.87,2482.02 2719.76,2484.74 2719.27,2487.77 2718.38,2491.11 2717.05,2494.8 2715.26,2498.86 1579.38,1362.98 1581.17,1358.91 1582.5,1355.23 1583.39,1351.88 1583.88,1348.86 1583.99,1346.13 1583.75,1343.67 1583.19,1341.44 1582.32,1339.43 1581.19,1337.6 "/>
     <polygon id="_334251496" class="fil1" points="1548.51,1368.39 2684.39,2504.27 2685.5,2505.5 2686.35,2506.92 2686.92,2508.48 2687.18,2510.16 2687.09,2511.91 1551.21,1376.03 1551.3,1374.28 1551.04,1372.6 1550.47,1371.03 1549.62,1369.62 "/>
     <polygon id="_334252360" class="fil1" points="1455.59,1309.75 2591.47,2445.63 2571.34,2456.11 1435.46,1320.22 "/>
     <polygon id="_334252000" class="fil1" points="1477.98,1333.63 2613.86,2469.51 2613.83,2470.41 2614.01,2471.17 2614.37,2471.81 2614.89,2472.35 1479.01,1336.47 1478.49,1335.93 1478.13,1335.29 1477.95,1334.53 "/>
     <polygon id="_334252264" class="fil1" points="1478.58,1310.5 2614.46,2446.38 2614.68,2447.5 2614.87,2448.65 2615.01,2449.84 2615.12,2451.07 2615.19,2452.34 2615.22,2453.66 2615.22,2455.01 2615.18,2456.42 2615.11,2457.87 2615.01,2459.37 2614.89,2460.93 2614.73,2462.53 2614.55,2464.19 2614.34,2465.91 2614.11,2467.68 2613.86,2469.51 1477.98,1333.63 1478.23,1331.8 1478.46,1330.02 1478.67,1328.31 1478.85,1326.65 1479.01,1325.04 1479.13,1323.49 1479.23,1321.99 1479.3,1320.54 1479.34,1319.13 1479.34,1317.77 1479.31,1316.46 1479.24,1315.19 1479.13,1313.96 1478.99,1312.77 1478.8,1311.62 "/>
     <polygon id="_334252312" class="fil1" points="1499.81,1355.29 2635.69,2491.17 2636.06,2492.47 2636.37,2493.75 2636.62,2495.01 2636.82,2496.26 2636.98,2497.49 2637.09,2498.7 2637.16,2499.9 2637.19,2501.08 2637.19,2502.25 2637.17,2503.4 2637.12,2504.54 2637.05,2505.67 2636.97,2506.78 2636.88,2507.88 2636.78,2508.96 2636.67,2510.03 1500.79,1374.15 1500.89,1373.08 1501,1371.99 1501.09,1370.9 1501.17,1369.79 1501.24,1368.66 1501.29,1367.52 1501.31,1366.37 1501.31,1365.2 1501.28,1364.02 1501.21,1362.82 1501.1,1361.6 1500.94,1360.37 1500.74,1359.13 1500.49,1357.86 1500.18,1356.59 "/>
     <polygon id="_334252480" class="fil1" points="1481.11,1357.2 2616.99,2493.08 2615.98,2492.29 2614.88,2491.6 2613.7,2491 2612.5,2490.46 2611.29,2489.96 1475.41,1354.07 1476.61,1354.58 1477.82,1355.12 1478.99,1355.72 1480.1,1356.41 "/>
     <polygon id="_334252384" class="fil1" points="1440.64,1323.63 2576.52,2459.51 2577.76,2460.82 2578.79,2462.2 2579.62,2463.66 2580.28,2465.19 2580.78,2466.79 2581.14,2468.46 2581.37,2470.19 2581.49,2471.97 2581.53,2473.81 2581.49,2475.7 2581.39,2477.64 2581.26,2479.63 2581.11,2481.65 1445.23,1345.77 1445.38,1343.74 1445.51,1341.76 1445.61,1339.82 1445.65,1337.93 1445.61,1336.09 1445.49,1334.3 1445.26,1332.58 1444.9,1330.91 1444.4,1329.31 1443.74,1327.78 1442.91,1326.32 1441.88,1324.94 "/>
     <polygon id="_334251808" class="fil1" points="1475.41,1354.07 2611.29,2489.96 2609.62,2489.26 2608,2488.56 2606.42,2487.83 2604.91,2487.06 2603.48,2486.22 2602.14,2485.29 2600.91,2484.26 1465.03,1348.37 1466.26,1349.41 1467.6,1350.33 1469.03,1351.17 1470.54,1351.95 1472.12,1352.68 1473.74,1353.38 "/>
     <polygon id="_334251928" class="fil1" points="1426.32,1336.34 2562.21,2472.22 2560.68,2471.11 2558.49,2470.23 2555.55,2469.6 1419.67,1333.72 1422.61,1334.35 1424.8,1335.23 "/>
     <polygon id="_334252912" class="fil1" points="1500.79,1374.15 2636.67,2510.03 2636.5,2511.95 2636.45,2513.76 2636.63,2515.43 2637.14,2516.94 2638.1,2518.28 1502.22,1382.4 1501.26,1381.06 1500.75,1379.54 1500.57,1377.87 1500.62,1376.07 "/>
     <polygon id="_334252624" class="fil1" points="1515.89,1395.1 2651.77,2530.99 2651.3,2532.67 2650.53,2534.18 2649.49,2535.49 2648.23,2536.58 2646.79,2537.4 2645.2,2537.94 2643.52,2538.17 2641.77,2538.05 1505.89,1402.17 1507.64,1402.28 1509.32,1402.06 1510.91,1401.52 1512.35,1400.69 1513.61,1399.61 1514.64,1398.3 1515.42,1396.79 "/>
     <polygon id="_334253032" class="fil1" points="1551.21,1376.03 2687.09,2511.91 2686.66,2513.6 2685.92,2515.13 2684.91,2516.47 2683.67,2517.58 2682.24,2518.44 2680.67,2519.01 2678.99,2519.28 2677.24,2519.2 1541.35,1383.32 1543.11,1383.4 1544.79,1383.13 1546.36,1382.56 1547.79,1381.7 1549.03,1380.59 1550.03,1379.25 1550.78,1377.72 "/>
     <polygon id="_334253248" class="fil1" points="1494.46,1345.61 2630.34,2481.5 2631.4,2482.73 2632.41,2484.11 2633.34,2485.62 2634.21,2487.3 2634.99,2489.15 2635.69,2491.17 1499.81,1355.29 1499.11,1353.26 1498.33,1351.42 1497.46,1349.74 1496.53,1348.22 1495.52,1346.85 "/>
     <polygon id="_334252840" class="fil1" points="1541.35,1383.32 2677.24,2519.2 2672.86,2518.42 2669.05,2517.47 2665.77,2516.36 2662.98,2515.08 2660.65,2513.65 2658.73,2512.08 1522.85,1376.2 1524.76,1377.77 1527.1,1379.2 1529.89,1380.48 1533.17,1381.59 1536.98,1382.54 "/>
     <polygon id="_334253104" class="fil1" points="1513.36,1387.42 2649.24,2523.3 2650.32,2524.55 2651.14,2525.99 2651.68,2527.56 2651.9,2529.24 2651.77,2530.99 1515.89,1395.1 1516.01,1393.36 1515.79,1391.68 1515.26,1390.1 1514.44,1388.67 "/>
     <polygon id="_334253320" class="fil1" points="1445.23,1345.77 2581.11,2481.65 2581,2483.18 2580.9,2484.73 2580.83,2486.29 2580.82,2487.85 2580.88,2489.39 2581.04,2490.91 2581.3,2492.38 2581.68,2493.79 1445.8,1357.91 1445.41,1356.49 1445.15,1355.02 1445,1353.51 1444.94,1351.97 1444.95,1350.41 1445.02,1348.85 1445.12,1347.3 "/>
     <polygon id="_334253584" class="fil1" points="1445.8,1357.91 2581.68,2493.79 2582.23,2495.02 2582.96,2496.08 1447.08,1360.19 1446.35,1359.14 "/>
     <polygon id="_334253344" class="fil1" points="1419.67,1333.72 2555.55,2469.6 2554.8,2469.46 2554.09,2469.26 2553.4,2469 2552.75,2468.69 2552.13,2468.32 2551.54,2467.91 2551,2467.46 2550.49,2466.96 1414.61,1331.08 1415.12,1331.57 1415.66,1332.03 1416.25,1332.44 1416.87,1332.8 1417.52,1333.12 1418.21,1333.37 1418.92,1333.58 "/>
     <polygon id="_334253944" class="fil1" points="1414.61,1331.08 2550.49,2466.96 2530.96,2477.13 1395.07,1341.25 "/>
     <polygon id="_334253536" class="fil1" points="1447.38,1380.21 2583.26,2516.09 2581.98,2515.59 2580.68,2515.07 2579.38,2514.52 2578.09,2513.92 2576.8,2513.28 2575.53,2512.56 2574.28,2511.77 2573.07,2510.9 2571.88,2509.92 2570.74,2508.83 1434.86,1372.94 1436,1374.04 1437.18,1375.01 1438.4,1375.89 1439.65,1376.68 1440.92,1377.39 1442.21,1378.04 1443.5,1378.63 1444.8,1379.19 1446.1,1379.71 "/>
     <polygon id="_334253296" class="fil1" points="1451.05,1382.31 2586.93,2518.19 2586.4,2517.66 2585.75,2517.2 2584.99,2516.81 2584.15,2516.44 2583.26,2516.09 1447.38,1380.21 1448.27,1380.56 1449.11,1380.92 1449.86,1381.32 1450.52,1381.78 "/>
     <polygon id="_334253752" class="fil1" points="1395.07,1341.25 2530.96,2477.13 2531.09,2477.7 2531.18,2478.29 2531.23,2478.88 2531.24,2479.48 2531.21,2480.09 2531.13,2480.69 2531.01,2481.3 2530.84,2481.91 1394.96,1346.02 1395.13,1345.42 1395.25,1344.81 1395.33,1344.2 1395.36,1343.6 1395.35,1343 1395.3,1342.41 1395.21,1341.82 "/>
     <polygon id="_334253464" class="fil1" points="1394.96,1346.02 2530.84,2481.91 2530.69,2482.49 2530.59,2483.03 2530.56,2483.53 2530.6,2483.99 2530.7,2484.43 2530.86,2484.84 2531.09,2485.23 2531.39,2485.6 1395.51,1349.72 1395.21,1349.35 1394.98,1348.96 1394.82,1348.55 1394.72,1348.11 1394.68,1347.64 1394.71,1347.14 1394.81,1346.6 "/>
     <polygon id="_334253992" class="fil1" points="1468.31,1403.53 2604.19,2539.42 2604.33,2539.87 2604.52,2540.28 2604.77,2540.65 2605.07,2540.98 1469.19,1405.09 1468.89,1404.77 1468.64,1404.4 1468.45,1403.99 "/>
     <polygon id="_334253848" class="fil1" points="1468.8,1386.57 2604.68,2522.46 2604.5,2523.92 2604.35,2525.34 2604.2,2526.69 2604.08,2527.99 2603.97,2529.24 2603.88,2530.43 2603.81,2531.57 2603.76,2532.65 2603.73,2533.68 2603.72,2534.66 2603.74,2535.58 2603.78,2536.45 2603.84,2537.27 2603.93,2538.04 2604.05,2538.75 2604.19,2539.42 1468.31,1403.53 1468.16,1402.87 1468.05,1402.16 1467.96,1401.39 1467.89,1400.57 1467.86,1399.7 1467.84,1398.78 1467.85,1397.8 1467.88,1396.77 1467.93,1395.69 1468,1394.55 1468.09,1393.36 1468.2,1392.11 1468.32,1390.81 1468.46,1389.45 1468.62,1388.04 "/>
     <polygon id="_334254184" class="fil1" points="1465.37,1370.7 2601.25,2506.58 2602.26,2507.85 2603.13,2509.29 2603.85,2510.91 2604.4,2512.74 2604.77,2514.79 2604.95,2517.08 2604.92,2519.63 2604.68,2522.46 1468.8,1386.57 1469.04,1383.74 1469.07,1381.19 1468.89,1378.9 1468.52,1376.86 1467.97,1375.03 1467.25,1373.41 1466.38,1371.97 "/>
     <polygon id="_334254256" class="fil1" points="1505.89,1402.17 2641.77,2538.05 2637.42,2537.19 2633.63,2536.16 2630.38,2534.97 2627.63,2533.64 2625.33,2532.17 2623.45,2530.56 1487.57,1394.67 1489.45,1396.28 1491.75,1397.76 1494.5,1399.09 1497.75,1400.28 1501.54,1401.3 "/>
     <polygon id="_334254424" class="fil1" points="1475.24,1408.8 2611.12,2544.69 2612.05,2546.05 2612.7,2547.58 2613.05,2549.21 2613.07,2550.9 2612.75,2552.62 1476.87,1416.74 1477.19,1415.02 1477.17,1413.32 1476.82,1411.69 1476.17,1410.17 "/>
     <polygon id="_334254112" class="fil1" points="1395.51,1349.72 2531.39,2485.6 2531.85,2486.08 1395.97,1350.2 "/>
     <polygon id="_334254544" class="fil1" points="1417.8,1364.35 2553.68,2500.24 2554.9,2501.71 2555.85,2503.21 2556.56,2504.73 2557.06,2506.28 2557.36,2507.86 2557.5,2509.46 2557.49,2511.09 2557.36,2512.75 2557.13,2514.43 2556.82,2516.14 2556.46,2517.87 2556.07,2519.64 1420.19,1383.75 1420.58,1381.99 1420.94,1380.26 1421.25,1378.55 1421.48,1376.87 1421.61,1375.21 1421.62,1373.58 1421.48,1371.98 1421.18,1370.4 1420.68,1368.85 1419.97,1367.33 1419.02,1365.83 "/>
     <polygon id="_334254448" class="fil1" points="1476.87,1416.74 2612.75,2552.62 2612.09,2554.24 2611.14,2555.66 2609.96,2556.85 2608.58,2557.78 2607.06,2558.44 2605.42,2558.79 2603.72,2558.82 2601.99,2558.51 1466.11,1422.63 1467.83,1422.94 1469.54,1422.91 1471.17,1422.55 1472.7,1421.9 1474.08,1420.96 1475.26,1419.78 1476.21,1418.36 "/>
     <polygon id="_334254352" class="fil1" points="1466.11,1422.63 2601.99,2558.51 2600.49,2558.03 2599.07,2557.5 2597.74,2556.91 2596.5,2556.27 2595.33,2555.57 2594.24,2554.81 2593.24,2553.99 2592.3,2553.11 1456.42,1417.23 1457.36,1418.11 1458.36,1418.93 1459.45,1419.69 1460.61,1420.39 1461.86,1421.03 1463.19,1421.62 1464.61,1422.15 "/>
     <polygon id="_334254376" class="fil1" points="1402.72,1374.62 2538.6,2510.5 2537.85,2510.01 1401.97,1374.13 "/>
     <polygon id="_334254712" class="fil1" points="1068.08,1060.17 2203.96,2196.05 2198.48,2233.64 1062.6,1097.75 "/>
     <polygon id="_334254064" class="fil1" points="1377.29,1350.5 2513.17,2486.39 2495.79,2495.43 1359.91,1359.55 "/>
     <polygon id="_334255000" class="fil1" points="1422.08,1416.06 2557.96,2551.94 2557.02,2551.41 2556.08,2550.87 2555.12,2550.32 2554.16,2549.75 2553.2,2549.16 2552.24,2548.55 2551.28,2547.91 2550.33,2547.23 2549.38,2546.53 2548.44,2545.78 2547.51,2545 2546.59,2544.16 2545.68,2543.29 1409.8,1407.4 1410.71,1408.28 1411.62,1409.11 1412.56,1409.9 1413.5,1410.64 1414.45,1411.35 1415.4,1412.02 1416.36,1412.66 1417.32,1413.28 1418.28,1413.87 1419.24,1414.44 1420.19,1414.99 1421.14,1415.53 "/>
     <polygon id="_334254808" class="fil1" points="1359.91,1359.55 2495.79,2495.43 2495.96,2496.05 2496.09,2496.68 2496.17,2497.33 2496.2,2497.98 2496.18,2498.63 2496.1,2499.29 2495.98,2499.96 2495.8,2500.62 1359.92,1364.74 1360.1,1364.08 1360.22,1363.41 1360.29,1362.75 1360.31,1362.09 1360.29,1361.44 1360.21,1360.8 1360.08,1360.17 "/>
     <polygon id="_334255048" class="fil1" points="1401.97,1374.13 2537.85,2510.01 2536.21,2509.17 2534.62,2508.34 2533.1,2507.53 2531.64,2506.72 2530.23,2505.93 2528.89,2505.14 2527.6,2504.36 2526.37,2503.59 2525.2,2502.81 2524.09,2502.03 2523.03,2501.25 2522.02,2500.47 2521.08,2499.67 2520.19,2498.87 2519.35,2498.06 1383.47,1362.18 1384.3,1362.99 1385.2,1363.79 1386.14,1364.58 1387.15,1365.37 1388.2,1366.15 1389.32,1366.93 1390.49,1367.7 1391.72,1368.48 1393.01,1369.26 1394.35,1370.05 1395.75,1370.84 1397.22,1371.64 1398.74,1372.46 1400.33,1373.28 "/>
     <polygon id="_334255240" class="fil1" points="1359.92,1364.74 2495.8,2500.62 2495.64,2501.2 2495.55,2501.74 2495.52,2502.24 2495.55,2502.71 2495.65,2503.14 2495.82,2503.56 2496.05,2503.94 2496.34,2504.31 1360.46,1368.43 1360.17,1368.06 1359.94,1367.67 1359.77,1367.26 1359.67,1366.82 1359.64,1366.36 1359.67,1365.85 1359.76,1365.32 "/>
     <polygon id="_334254856" class="fil1" points="1420.91,1393.8 2556.79,2529.69 2557.76,2530.81 1421.88,1394.92 "/>
     <polygon id="_334255264" class="fil1" points="1420.19,1383.75 2556.07,2519.64 2555.8,2520.91 2555.55,2522.21 2555.37,2523.52 2555.29,2524.82 2555.36,2526.1 2555.61,2527.34 2556.07,2528.54 2556.79,2529.69 1420.91,1393.8 1420.19,1392.66 1419.73,1391.46 1419.48,1390.21 1419.41,1388.93 1419.49,1387.63 1419.67,1386.33 1419.91,1385.03 "/>
     <polygon id="_334255408" class="fil1" points="1426.52,1419.12 2562.4,2555 2561.14,2553.9 2559.63,2552.9 2557.96,2551.94 1422.08,1416.06 1423.75,1417.02 1425.25,1418.01 "/>
     <polygon id="_334255504" class="fil1" points="1360.46,1368.43 2496.34,2504.31 2496.81,2504.79 1360.93,1368.91 "/>
     <polygon id="_334254928" class="fil1" points="1382.76,1383.06 2518.64,2518.95 2519.85,2520.42 2520.8,2521.92 2521.51,2523.44 2522.01,2524.99 2522.32,2526.57 2522.45,2528.17 2522.44,2529.8 2522.31,2531.46 2522.08,2533.14 2521.77,2534.85 2521.42,2536.58 2521.03,2538.35 1385.15,1402.46 1385.53,1400.7 1385.89,1398.97 1386.2,1397.26 1386.43,1395.58 1386.56,1393.92 1386.57,1392.29 1386.43,1390.69 1386.13,1389.11 1385.63,1387.56 1384.92,1386.04 1383.97,1384.54 "/>
     <polygon id="_334255456" class="fil1" points="1442.1,1436.31 2577.98,2572.19 2577.08,2573.69 2575.93,2574.94 2574.58,2575.93 2573.07,2576.63 2571.46,2577.04 2569.79,2577.14 2568.11,2576.91 2566.46,2576.33 1430.58,1440.45 1432.23,1441.03 1433.91,1441.26 1435.58,1441.16 1437.19,1440.75 1438.69,1440.04 1440.04,1439.06 1441.2,1437.81 "/>
     <polygon id="_334255528" class="fil1" points="1430.58,1440.45 2566.46,2576.33 2564.96,2575.43 2563.71,2574.29 1427.83,1438.41 1429.08,1439.55 "/>
     <polygon id="_334255984" class="fil1" points="1367.68,1393.33 2503.56,2529.21 2502.81,2528.72 1366.93,1392.84 "/>
     <polygon id="_334255936" class="fil1" points="1074.36,1100.35 2210.24,2236.23 2211.37,2237.61 2212.4,2239.24 2213.33,2241.09 2214.16,2243.16 1078.28,1107.27 1077.45,1105.21 1076.52,1103.35 1075.49,1101.73 "/>
     <polygon id="_334256320" class="fil1" points="1081.65,1108.97 2217.53,2244.86 2218.05,2245.41 2218.5,2246.05 2218.87,2246.75 1082.99,1110.87 1082.62,1110.16 1082.17,1109.53 "/>
     <polygon id="_334256224" class="fil1" points="1082.99,1110.87 2218.87,2246.75 2219.39,2247.97 2219.9,2249.2 2220.4,2250.43 2220.89,2251.67 2221.35,2252.91 2221.81,2254.16 2222.24,2255.41 2222.67,2256.67 2223.07,2257.94 2223.47,2259.21 2223.84,2260.48 2224.2,2261.76 2224.54,2263.05 2224.86,2264.33 2225.17,2265.63 2225.46,2266.93 2225.72,2268.2 2225.97,2269.47 2226.2,2270.75 2226.42,2272.03 2226.62,2273.31 2226.8,2274.59 2226.96,2275.88 2227.11,2277.17 2227.24,2278.46 2227.35,2279.75 2227.45,2281.04 2227.53,2282.34 2227.59,2283.63 2227.64,2284.93 2227.66,2286.23 2227.67,2287.53 2227.61,2291.16 2227.41,2294.75 2227.1,2298.31 2226.65,2301.83 2226.1,2305.31 2225.42,2308.75 2224.63,2312.15 2223.73,2315.51 2222.73,2318.83 2221.62,2322.11 2220.4,2325.35 2219.09,2328.56 2217.68,2331.72 2216.18,2334.84 2214.59,2337.92 2212.91,2340.96 2211.15,2343.96 2209.31,2346.92 2207.39,2349.84 2205.39,2352.71 2203.32,2355.55 2201.18,2358.34 2198.97,2361.08 2196.7,2363.79 2194.36,2366.45 2191.97,2369.07 2189.53,2371.65 2187.03,2374.19 2184.48,2376.68 2181.89,2379.12 2179.25,2381.53 2176.57,2383.89 1040.69,1248 1043.37,1245.65 1046.01,1243.24 1048.6,1240.8 1051.15,1238.3 1053.65,1235.77 1056.09,1233.19 1058.48,1230.57 1060.82,1227.91 1063.09,1225.2 1065.29,1222.45 1067.44,1219.66 1069.51,1216.83 1071.5,1213.95 1073.43,1211.04 1075.27,1208.08 1077.03,1205.08 1078.71,1202.04 1080.3,1198.96 1081.8,1195.84 1083.21,1192.68 1084.52,1189.47 1085.74,1186.23 1086.85,1182.95 1087.85,1179.63 1088.75,1176.26 1089.54,1172.86 1090.22,1169.42 1090.77,1165.94 1091.21,1162.43 1091.53,1158.87 1091.72,1155.28 1091.79,1151.65 1091.78,1150.35 1091.75,1149.05 1091.71,1147.75 1091.65,1146.46 1091.57,1145.16 1091.47,1143.87 1091.36,1142.58 1091.23,1141.29 1091.08,1140 1090.92,1138.71 1090.73,1137.43 1090.54,1136.15 1090.32,1134.87 1090.09,1133.59 1089.84,1132.32 1089.58,1131.04 1089.29,1129.75 1088.98,1128.45 1088.66,1127.16 1088.32,1125.88 1087.96,1124.6 1087.58,1123.33 1087.19,1122.06 1086.79,1120.79 1086.36,1119.53 1085.93,1118.28 1085.47,1117.03 1085,1115.78 1084.52,1114.55 1084.02,1113.31 1083.51,1112.09 "/>
     <polygon id="_334256152" class="fil1" points="1342.2,1368.77 2478.08,2504.66 2459.99,2514.07 1324.11,1378.19 "/>
     <polygon id="_334255696" class="fil1" points="1366.93,1392.84 2502.81,2528.72 2501.16,2527.88 2499.58,2527.05 2498.05,2526.24 2496.59,2525.43 2495.19,2524.64 2493.84,2523.85 2492.55,2523.07 2491.32,2522.3 2490.15,2521.52 2489.04,2520.74 2487.98,2519.96 2486.98,2519.18 2486.03,2518.39 2485.14,2517.58 2484.3,2516.77 1348.42,1380.89 1349.26,1381.7 1350.15,1382.5 1351.1,1383.3 1352.1,1384.08 1353.16,1384.86 1354.27,1385.64 1355.44,1386.41 1356.67,1387.19 1357.96,1387.97 1359.3,1388.76 1360.71,1389.55 1362.17,1390.35 1363.7,1391.17 1365.28,1392 "/>
     <polygon id="_334256248" class="fil1" points="1324.11,1378.19 2459.99,2514.07 2460,2514.45 2459.99,2514.83 2459.97,2515.21 2459.93,2515.59 2459.88,2515.97 2459.8,2516.36 2459.71,2516.74 2459.6,2517.12 1323.72,1381.24 1323.83,1380.86 1323.92,1380.47 1324,1380.09 1324.05,1379.71 1324.09,1379.33 1324.11,1378.95 1324.12,1378.57 "/>
     <polygon id="_334255720" class="fil1" points="1385.87,1412.51 2521.75,2548.4 2522.72,2549.52 1386.84,1413.64 "/>
     <polygon id="_334255744" class="fil1" points="1385.15,1402.46 2521.03,2538.35 2520.75,2539.62 2520.5,2540.92 2520.32,2542.23 2520.25,2543.53 2520.31,2544.81 2520.56,2546.05 2521.03,2547.26 2521.75,2548.4 1385.87,1412.51 1385.15,1411.37 1384.68,1410.17 1384.43,1408.93 1384.37,1407.64 1384.44,1406.35 1384.62,1405.04 1384.87,1403.74 "/>
     <polygon id="_334256656" class="fil1" points="1391.48,1437.83 2527.36,2573.71 2526.09,2572.61 2524.58,2571.61 2522.91,2570.65 1387.03,1434.77 1388.7,1435.73 1390.21,1436.72 "/>
     <polygon id="_334256968" class="fil1" points="1323.72,1381.24 2459.6,2517.12 2459.44,2517.7 2459.35,2518.24 2459.32,2518.74 2459.36,2519.21 2459.46,2519.65 2459.62,2520.06 2459.85,2520.45 2460.15,2520.81 1324.27,1384.93 1323.97,1384.56 1323.74,1384.18 1323.58,1383.76 1323.48,1383.33 1323.44,1382.86 1323.47,1382.36 1323.56,1381.82 "/>
     <polygon id="_334257016" class="fil1" points="1324.27,1384.93 2460.15,2520.81 2460.61,2521.29 1324.73,1385.41 "/>
     <polygon id="_334256608" class="fil1" points="1387.03,1434.77 2522.91,2570.65 2521.98,2570.12 2521.03,2569.58 2520.08,2569.03 2519.12,2568.46 2518.16,2567.87 2517.2,2567.26 2516.24,2566.62 2515.28,2565.94 2514.33,2565.24 2513.39,2564.49 2512.46,2563.71 2511.54,2562.88 2510.64,2562 1374.75,1426.11 1375.66,1426.99 1376.58,1427.82 1377.51,1428.61 1378.45,1429.35 1379.4,1430.06 1380.36,1430.73 1381.32,1431.37 1382.28,1431.99 1383.24,1432.58 1384.2,1433.15 1385.15,1433.7 1386.09,1434.24 "/>
     <polygon id="_334256392" class="fil1" points="1346.56,1399.57 2482.44,2535.45 2483.65,2536.92 2484.61,2538.42 2485.32,2539.95 2485.81,2541.5 2486.12,2543.07 2486.26,2544.68 2486.25,2546.31 2486.12,2547.96 2485.89,2549.64 2485.58,2551.35 2485.22,2553.09 2484.83,2554.85 1348.95,1418.97 1349.34,1417.2 1349.7,1415.47 1350,1413.76 1350.23,1412.08 1350.37,1410.42 1350.38,1408.79 1350.24,1407.19 1349.93,1405.61 1349.44,1404.06 1348.72,1402.54 1347.77,1401.04 "/>
     <polygon id="_334256704" class="fil1" points="1331.48,1409.83 2467.36,2545.72 2466.61,2545.22 1330.73,1409.34 "/>
     <polygon id="_334256728" class="fil1" points="1306.35,1387.43 2442.23,2523.31 2434.66,2527.26 1298.78,1391.38 "/>
     <polygon id="_334256944" class="fil1" points="1285.9,1403.4 2421.78,2539.28 2421.42,2538.99 2421,2538.74 2420.51,2538.52 2419.96,2538.33 1284.08,1402.45 1284.63,1402.63 1285.12,1402.85 1285.54,1403.11 "/>
     <polygon id="_334257088" class="fil1" points="1284.08,1402.45 2419.96,2538.33 2419.5,2538.19 2419.06,2538.02 2418.64,2537.83 2418.23,2537.62 2417.83,2537.39 2417.45,2537.14 2417.08,2536.87 2416.73,2536.59 1280.85,1400.7 1281.2,1400.99 1281.57,1401.26 1281.95,1401.51 1282.34,1401.74 1282.76,1401.95 1283.18,1402.13 1283.62,1402.3 "/>
     <polygon id="_334256464" class="fil1" points="1280.85,1400.7 2416.73,2536.59 2400.78,2544.89 1264.9,1409.01 "/>
     <polygon id="_334256896" class="fil1" points="1330.73,1409.34 2466.61,2545.22 2464.97,2544.38 2463.38,2543.55 2461.86,2542.74 2460.39,2541.94 2458.99,2541.14 2457.64,2540.36 2456.36,2539.58 2455.13,2538.8 2453.96,2538.02 2452.84,2537.24 2451.78,2536.46 2450.78,2535.68 2449.84,2534.89 2448.94,2534.09 2448.11,2533.27 1312.22,1397.39 1313.06,1398.2 1313.95,1399.01 1314.9,1399.8 1315.9,1400.58 1316.96,1401.36 1318.08,1402.14 1319.25,1402.92 1320.48,1403.69 1321.76,1404.47 1323.11,1405.26 1324.51,1406.05 1325.98,1406.86 1327.5,1407.67 1329.08,1408.5 "/>
     <polygon id="_334257688" class="fil1" points="1303.63,1400.77 2439.51,2536.65 2439.76,2537.75 2439.96,2538.89 2440.13,2540.07 2440.26,2541.29 2440.35,2542.55 2440.41,2543.86 2440.43,2545.22 2440.42,2546.62 2440.38,2548.07 2440.32,2549.58 2440.22,2551.14 2440.1,2552.75 2439.95,2554.41 2439.77,2556.14 2439.58,2557.92 2439.36,2559.76 1303.48,1423.88 1303.7,1422.04 1303.89,1420.25 1304.07,1418.53 1304.21,1416.86 1304.34,1415.25 1304.43,1413.7 1304.5,1412.19 1304.54,1410.74 1304.55,1409.33 1304.53,1407.98 1304.47,1406.67 1304.38,1405.41 1304.25,1404.19 1304.08,1403.01 1303.88,1401.87 "/>
     <polygon id="_334257568" class="fil1" points="1349.67,1429.02 2485.55,2564.9 2486.52,2566.02 1350.64,1430.14 "/>
     <polygon id="_334257496" class="fil1" points="1348.95,1418.97 2484.83,2554.85 2484.55,2556.13 2484.31,2557.43 2484.13,2558.73 2484.05,2560.03 2484.12,2561.31 2484.37,2562.56 2484.83,2563.76 2485.55,2564.9 1349.67,1429.02 1348.95,1427.87 1348.48,1426.67 1348.24,1425.43 1348.17,1424.15 1348.24,1422.85 1348.43,1421.54 1348.67,1420.24 "/>
     <polygon id="_334257784" class="fil1" points="1298.78,1391.38 2434.66,2527.26 2435.49,2528.2 2436.26,2529.2 2436.96,2530.27 2437.6,2531.41 2438.17,2532.61 2438.67,2533.89 2439.12,2535.23 2439.51,2536.65 1303.63,1400.77 1303.24,1399.35 1302.79,1398 1302.28,1396.73 1301.71,1395.52 1301.08,1394.39 1300.38,1393.32 1299.61,1392.32 "/>
     <polygon id="_334257832" class="fil1" points="1355.28,1454.33 2491.16,2590.21 2489.89,2589.11 2488.39,2588.12 2486.72,2587.15 1350.84,1451.27 1352.5,1452.23 1354.01,1453.23 "/>
     <polygon id="_334257160" class="fil1" points="1350.84,1451.27 2486.72,2587.15 2485.78,2586.63 2484.83,2586.09 2483.88,2585.53 2482.92,2584.96 2481.96,2584.37 2481,2583.76 2480.04,2583.12 2479.09,2582.45 2478.14,2581.74 2477.2,2581 2476.26,2580.21 2475.35,2579.38 2474.44,2578.5 1338.56,1442.62 1339.46,1443.5 1340.38,1444.33 1341.32,1445.11 1342.26,1445.86 1343.21,1446.56 1344.16,1447.24 1345.12,1447.88 1346.08,1448.49 1347.04,1449.08 1348,1449.65 1348.95,1450.2 1349.9,1450.74 "/>
     <polygon id="_334257280" class="fil1" points="1303.48,1423.88 2439.36,2559.76 2439.35,2560.67 2439.55,2561.43 2439.92,2562.06 2440.45,2562.6 1304.57,1426.71 1304.04,1426.18 1303.67,1425.54 1303.47,1424.78 "/>
     <polygon id="_334257544" class="fil1" points="1320.23,1435.55 2456.11,2571.43 2457.2,2572.64 2458.23,2574 2459.2,2575.5 2460.1,2577.15 2460.92,2578.99 2461.66,2581 1325.78,1445.12 1325.04,1443.1 1324.22,1441.27 1323.32,1439.61 1322.35,1438.11 1321.31,1436.76 "/>
     <polygon id="_334257448" class="fil1" points="1325.78,1445.12 2461.66,2581 2462.06,2582.29 2462.4,2583.57 2462.68,2584.83 2462.91,2586.08 2463.09,2587.31 2463.23,2588.52 2463.33,2589.71 2463.39,2590.89 2463.41,2592.06 2463.41,2593.21 2463.39,2594.35 2463.35,2595.47 2463.29,2596.58 2463.22,2597.67 2463.14,2598.75 2463.06,2599.82 1327.18,1463.94 1327.26,1462.87 1327.34,1461.79 1327.41,1460.69 1327.47,1459.58 1327.51,1458.46 1327.53,1457.33 1327.53,1456.18 1327.51,1455.01 1327.45,1453.83 1327.35,1452.64 1327.21,1451.42 1327.03,1450.2 1326.8,1448.95 1326.52,1447.69 1326.18,1446.41 "/>
     <polygon id="_334258600" class="fil1" points="1307.11,1447.4 2442.99,2583.28 2441.97,2582.52 2440.86,2581.86 2439.68,2581.28 2438.47,2580.77 2437.26,2580.29 1301.38,1444.41 1302.59,1444.89 1303.8,1445.4 1304.98,1445.98 1306.09,1446.63 "/>
     <polygon id="_334257928" class="fil1" points="1264.9,1409.01 2400.78,2544.89 2401.7,2545.88 2402.54,2546.94 2403.29,2548.08 2403.97,2549.29 2404.57,2550.58 2405.09,2551.94 2405.55,2553.39 2405.94,2554.92 1270.06,1419.04 1269.67,1417.51 1269.21,1416.06 1268.69,1414.7 1268.08,1413.41 1267.41,1412.2 1266.65,1411.06 1265.82,1410 "/>
     <polygon id="_334258288" class="fil1" points="1301.38,1444.41 2437.26,2580.29 2435.58,2579.63 2433.93,2578.97 2432.34,2578.27 2430.81,2577.52 2429.36,2576.71 2428,2575.81 2426.74,2574.81 1290.86,1438.93 1292.12,1439.93 1293.48,1440.83 1294.93,1441.64 1296.46,1442.39 1298.05,1443.08 1299.69,1443.75 "/>
     <polygon id="_334257976" class="fil1" points="1252.31,1421.31 2388.19,2557.19 2387.83,2556.89 2387.4,2556.63 2386.9,2556.4 2386.34,2556.19 1250.46,1420.31 1251.02,1420.51 1251.52,1420.75 1251.95,1421.01 "/>
     <polygon id="_334258360" class="fil1" points="1327.18,1463.94 2463.06,2599.82 2462.93,2601.74 2462.91,2603.54 2463.12,2605.21 2463.66,2606.71 2464.64,2608.03 1328.76,1472.15 1327.78,1470.83 1327.24,1469.33 1327.03,1467.66 1327.05,1465.86 "/>
     <polygon id="_334258000" class="fil1" points="1250.46,1420.31 2386.34,2556.19 2385.85,2556.02 2385.38,2555.83 2384.93,2555.61 2384.5,2555.36 2384.08,2555.1 2383.69,2554.81 2383.31,2554.5 2382.95,2554.17 1247.07,1418.29 1247.43,1418.62 1247.8,1418.93 1248.2,1419.21 1248.62,1419.48 1249.05,1419.72 1249.5,1419.94 1249.97,1420.14 "/>
     <polygon id="_334258024" class="fil1" points="1370.86,1471.52 2506.74,2607.4 2505.84,2608.9 2504.69,2610.15 2503.34,2611.14 2501.83,2611.85 2500.22,2612.26 2498.55,2612.35 2496.87,2612.12 2495.22,2611.54 1359.34,1475.66 1360.99,1476.24 1362.67,1476.47 1364.34,1476.38 1365.95,1475.96 1367.45,1475.26 1368.8,1474.27 1369.96,1473.02 "/>
     <polygon id="_334258072" class="fil1" points="1359.34,1475.66 2495.22,2611.54 2493.72,2610.64 2492.47,2609.5 1356.59,1473.62 1357.84,1474.76 "/>
     <polygon id="_334258168" class="fil1" points="1371.29,1444.48 2507.17,2580.36 2508.55,2582.03 2509.69,2583.86 2510.55,2585.87 2511.12,2588.1 2511.36,2590.56 2511.25,2593.29 2510.76,2596.31 2509.86,2599.65 2508.53,2603.34 2506.74,2607.4 1370.86,1471.52 1372.65,1467.46 1373.98,1463.77 1374.88,1460.43 1375.36,1457.41 1375.48,1454.68 1375.23,1452.21 1374.67,1449.99 1373.8,1447.97 1372.67,1446.15 "/>
     <polygon id="_334258384" class="fil1" points="1339.99,1476.93 2475.87,2612.81 2476.98,2614.04 2477.83,2615.46 2478.4,2617.03 2478.66,2618.7 2478.57,2620.45 1342.69,1484.57 1342.78,1482.82 1342.52,1481.14 1341.95,1479.58 1341.1,1478.16 "/>
     <polygon id="_334259200" class="fil1" points="1247.07,1418.29 2382.95,2554.17 2362.83,2564.65 1226.94,1428.77 "/>
     <polygon id="_334259272" class="fil1" points="1269.46,1442.17 2405.34,2578.05 2405.31,2578.95 2405.49,2579.71 2405.86,2580.35 2406.37,2580.89 1270.49,1445.01 1269.97,1444.47 1269.61,1443.83 1269.43,1443.07 "/>
     <polygon id="_334258888" class="fil1" points="1270.06,1419.04 2405.94,2554.92 2406.17,2556.04 2406.35,2557.19 2406.5,2558.38 2406.6,2559.61 2406.67,2560.88 2406.7,2562.2 2406.7,2563.56 2406.66,2564.96 2406.59,2566.42 2406.5,2567.92 2406.37,2569.47 2406.21,2571.08 2406.03,2572.73 2405.82,2574.45 2405.59,2576.22 2405.34,2578.05 1269.46,1442.17 1269.71,1440.34 1269.94,1438.57 1270.15,1436.85 1270.33,1435.19 1270.49,1433.59 1270.62,1432.03 1270.71,1430.53 1270.78,1429.08 1270.82,1427.68 1270.82,1426.32 1270.79,1425 1270.72,1423.73 1270.61,1422.5 1270.47,1421.31 1270.28,1420.16 "/>
     <polygon id="_334259296" class="fil1" points="1291.29,1463.83 2427.17,2599.72 2427.54,2601.01 2427.85,2602.29 2428.11,2603.55 2428.31,2604.8 2428.46,2606.03 2428.57,2607.24 2428.64,2608.44 2428.67,2609.63 2428.68,2610.79 2428.65,2611.95 2428.6,2613.09 2428.53,2614.21 2428.45,2615.32 2428.36,2616.42 2428.26,2617.51 2428.15,2618.58 1292.27,1482.69 1292.38,1481.62 1292.48,1480.54 1292.57,1479.44 1292.65,1478.33 1292.72,1477.2 1292.77,1476.06 1292.79,1474.91 1292.79,1473.74 1292.76,1472.56 1292.69,1471.36 1292.58,1470.15 1292.43,1468.92 1292.22,1467.67 1291.97,1466.41 1291.66,1465.13 "/>
     <polygon id="_334258936" class="fil1" points="1272.59,1465.74 2408.47,2601.62 2407.47,2600.83 2406.36,2600.15 2405.18,2599.55 2403.98,2599.01 2402.77,2598.5 1266.89,1462.62 1268.1,1463.12 1269.3,1463.67 1270.48,1464.27 1271.58,1464.95 "/>
     <polygon id="_334259104" class="fil1" points="1040.69,1248 2176.57,2383.89 2160.01,2497.47 1024.13,1361.59 "/>
     <polygon id="_334259176" class="fil1" points="1232.12,1432.17 2368,2568.06 2369.24,2569.36 2370.27,2570.74 2371.11,2572.2 2371.77,2573.74 2372.26,2575.34 2372.62,2577 2372.85,2578.73 2372.97,2580.52 2373.01,2582.36 2372.97,2584.25 2372.88,2586.19 2372.74,2588.17 2372.59,2590.19 1236.71,1454.31 1236.86,1452.29 1236.99,1450.31 1237.09,1448.37 1237.13,1446.47 1237.09,1444.63 1236.97,1442.85 1236.74,1441.12 1236.38,1439.45 1235.88,1437.85 1235.22,1436.32 1234.39,1434.86 1233.36,1433.48 "/>
     <polygon id="_334259368" class="fil1" points="1217.81,1444.88 2353.69,2580.76 2352.16,2579.65 2349.98,2578.77 2347.03,2578.14 1211.15,1442.26 1214.1,1442.89 1216.28,1443.77 "/>
     <polygon id="_334258864" class="fil1" points="1266.89,1462.62 2402.77,2598.5 2401.1,2597.81 2399.48,2597.11 2397.9,2596.38 2396.39,2595.6 2394.96,2594.76 2393.62,2593.83 2392.39,2592.8 1256.51,1456.92 1257.74,1457.95 1259.08,1458.88 1260.51,1459.72 1262.02,1460.49 1263.6,1461.22 1265.22,1461.93 "/>
     <polygon id="_334258720" class="fil1" points="1292.27,1482.69 2428.15,2618.58 2427.98,2620.49 2427.93,2622.3 2428.11,2623.97 2428.62,2625.49 2429.58,2626.83 1293.7,1490.94 1292.74,1489.6 1292.23,1488.09 1292.05,1486.42 1292.1,1484.61 "/>
     <polygon id="_334260064" class="fil1" points="1342.69,1484.57 2478.57,2620.45 2478.14,2622.15 2477.4,2623.68 2476.39,2625.01 2475.15,2626.13 2473.73,2626.98 2472.15,2627.56 2470.47,2627.82 2468.72,2627.74 1332.83,1491.86 1334.59,1491.94 1336.27,1491.68 1337.84,1491.1 1339.27,1490.24 1340.51,1489.13 1341.52,1487.8 1342.26,1486.26 "/>
     <polygon id="_334259824" class="fil1" points="1284.83,1453.05 2420.71,2588.93 2421.82,2590.04 2422.89,2591.28 2423.89,2592.65 2424.82,2594.17 2425.69,2595.84 2426.47,2597.69 2427.17,2599.72 1291.29,1463.83 1290.59,1461.81 1289.81,1459.96 1288.94,1458.28 1288.01,1456.77 1287,1455.4 1285.94,1454.16 "/>
     <polygon id="_334259512" class="fil1" points="1332.83,1491.86 2468.72,2627.74 2464.34,2626.97 2460.53,2626.02 2457.25,2624.9 2454.46,2623.63 2452.13,2622.2 2450.21,2620.63 1314.33,1484.74 1316.25,1486.32 1318.58,1487.74 1321.37,1489.02 1324.65,1490.14 1328.46,1491.09 "/>
     <polygon id="_334259896" class="fil1" points="1304.84,1495.96 2440.72,2631.85 2441.8,2633.1 2442.62,2634.53 2443.16,2636.11 2443.38,2637.79 2443.25,2639.53 1307.37,1503.65 1307.5,1501.91 1307.28,1500.23 1306.74,1498.65 1305.92,1497.21 "/>
     <polygon id="_334260160" class="fil1" points="1236.71,1454.31 2372.59,2590.19 2372.48,2591.72 2372.38,2593.28 2372.32,2594.84 2372.31,2596.4 2372.37,2597.94 2372.52,2599.45 2372.78,2600.92 2373.16,2602.33 1237.28,1466.45 1236.9,1465.04 1236.64,1463.57 1236.49,1462.06 1236.42,1460.51 1236.44,1458.96 1236.5,1457.39 1236.6,1455.84 "/>
     <polygon id="_334259632" class="fil1" points="1237.28,1466.45 2373.16,2602.33 2373.71,2603.56 2374.45,2604.62 2375.34,2605.52 1239.46,1469.63 1238.57,1468.74 1237.83,1467.68 "/>
     <polygon id="_334259800" class="fil1" points="1211.15,1442.26 2347.03,2578.14 2346.29,2578 2345.57,2577.8 2344.88,2577.54 2344.23,2577.23 2343.61,2576.87 2343.02,2576.46 2342.48,2576 1206.6,1440.12 1207.14,1440.57 1207.73,1440.98 1208.35,1441.35 1209,1441.66 1209.69,1441.92 1210.4,1442.12 "/>
     <polygon id="_334259704" class="fil1" points="1206.09,1439.62 2341.98,2575.5 2322.44,2585.67 1186.56,1449.79 "/>
     <polygon id="_334259728" class="fil1" points="1238.86,1488.75 2374.75,2624.64 2373.46,2624.13 2372.16,2623.61 2370.87,2623.06 2369.57,2622.47 2368.28,2621.82 2367.01,2621.11 2365.77,2620.32 2364.55,2619.44 2363.37,2618.46 1227.48,1482.58 1228.67,1483.56 1229.88,1484.44 1231.13,1485.23 1232.4,1485.94 1233.69,1486.59 1234.98,1487.18 1236.28,1487.73 1237.58,1488.25 "/>
     <polygon id="_334259776" class="fil1" points="1242,1490.32 2377.88,2626.2 2377.23,2625.75 2376.47,2625.35 2375.63,2624.99 2374.75,2624.64 1238.86,1488.75 1239.75,1489.11 1240.59,1489.47 1241.35,1489.87 "/>
     <polygon id="_334260856" class="fil1" points="1186.56,1449.79 2322.44,2585.67 2322.57,2586.25 2322.66,2586.83 2322.71,2587.43 2322.72,2588.03 2322.69,2588.63 2322.61,2589.24 2322.49,2589.84 2322.33,2590.45 1186.45,1454.57 1186.61,1453.96 1186.73,1453.35 1186.81,1452.75 1186.84,1452.14 1186.83,1451.54 1186.78,1450.95 1186.69,1450.37 "/>
     <polygon id="_334260424" class="fil1" points="1186.45,1454.57 2322.33,2590.45 2322.17,2591.03 2322.08,2591.57 2322.05,2592.07 2322.08,2592.54 2322.18,2592.98 2322.35,2593.39 2322.58,2593.78 2322.87,2594.14 1186.99,1458.26 1186.7,1457.89 1186.47,1457.51 1186.3,1457.09 1186.2,1456.66 1186.16,1456.19 1186.19,1455.69 1186.29,1455.15 "/>
     <polygon id="_334260832" class="fil1" points="1259.79,1512.08 2395.67,2647.96 2395.81,2648.42 2396.01,2648.83 2396.25,2649.19 2396.55,2649.52 1260.67,1513.64 1260.37,1513.31 1260.12,1512.94 1259.93,1512.53 "/>
     <polygon id="_334260640" class="fil1" points="1260.28,1495.12 2396.16,2631 2395.99,2632.47 2395.83,2633.88 2395.68,2635.24 2395.56,2636.54 2395.45,2637.79 2395.36,2638.98 2395.29,2640.11 2395.24,2641.2 2395.21,2642.23 2395.2,2643.2 2395.22,2644.13 2395.26,2645 2395.32,2645.82 2395.41,2646.58 2395.53,2647.3 2395.67,2647.96 1259.79,1512.08 1259.65,1511.42 1259.53,1510.7 1259.44,1509.93 1259.38,1509.12 1259.34,1508.25 1259.32,1507.32 1259.33,1506.35 1259.36,1505.32 1259.41,1504.23 1259.48,1503.09 1259.57,1501.9 1259.68,1500.66 1259.8,1499.35 1259.95,1498 1260.1,1496.59 "/>
     <polygon id="_334260664" class="fil1" points="1255.71,1478.11 2391.59,2613.99 2392.73,2615.12 2393.74,2616.4 2394.62,2617.84 2395.33,2619.46 2395.88,2621.28 2396.26,2623.33 2396.43,2625.62 2396.41,2628.17 2396.16,2631 1260.28,1495.12 1260.52,1492.29 1260.55,1489.74 1260.37,1487.45 1260,1485.4 1259.45,1483.58 1258.73,1481.95 1257.86,1480.51 1256.85,1479.24 "/>
     <polygon id="_334260712" class="fil1" points="1297.37,1510.71 2433.25,2646.59 2428.9,2645.73 2425.12,2644.7 2421.87,2643.52 2419.11,2642.19 2416.81,2640.71 2414.93,2639.1 1279.05,1503.22 1280.93,1504.83 1283.23,1506.3 1285.99,1507.64 1289.24,1508.82 1293.02,1509.85 "/>
     <polygon id="_334260208" class="fil1" points="1265.53,1516.17 2401.42,2652.06 2402.6,2653.23 2403.53,2654.6 2404.18,2656.12 2404.53,2657.75 2404.56,2659.45 2404.23,2661.17 1268.35,1525.28 1268.67,1523.56 1268.65,1521.87 1268.3,1520.24 1267.65,1518.72 1266.72,1517.35 "/>
     <polygon id="_334260496" class="fil1" points="1186.99,1458.26 2322.87,2594.14 2323.34,2594.62 1187.45,1458.74 "/>
     <polygon id="_334260352" class="fil1" points="1207.79,1471.45 2343.67,2607.33 2345.17,2608.78 2346.38,2610.25 2347.33,2611.75 2348.04,2613.28 2348.54,2614.83 2348.84,2616.4 2348.98,2618.01 2348.97,2619.64 2348.84,2621.29 2348.61,2622.97 2348.3,2624.68 2347.94,2626.42 2347.56,2628.18 1211.67,1492.3 1212.06,1490.54 1212.42,1488.8 1212.73,1487.09 1212.96,1485.41 1213.09,1483.75 1213.1,1482.13 1212.96,1480.52 1212.66,1478.95 1212.16,1477.39 1211.45,1475.87 1210.5,1474.37 1209.28,1472.9 "/>
     <polygon id="_334261600" class="fil1" points="1268.35,1525.28 2404.23,2661.17 2403.57,2662.79 2402.63,2664.2 2401.44,2665.39 2400.07,2666.32 2398.54,2666.98 2396.9,2667.34 2395.2,2667.37 2393.48,2667.05 1257.59,1531.17 1259.32,1531.49 1261.02,1531.45 1262.66,1531.1 1264.19,1530.44 1265.56,1529.51 1266.74,1528.32 1267.69,1526.91 "/>
     <polygon id="_334261360" class="fil1" points="1257.59,1531.17 2393.48,2667.05 2391.97,2666.57 2390.56,2666.04 2389.22,2665.46 2387.98,2664.82 2386.81,2664.12 2385.73,2663.36 2384.72,2662.54 2383.79,2661.65 1247.9,1525.77 1248.84,1526.65 1249.84,1527.47 1250.93,1528.23 1252.1,1528.93 1253.34,1529.57 1254.67,1530.16 1256.09,1530.69 "/>
     <polygon id="_334261168" class="fil1" points="1194.21,1483.17 2330.09,2619.05 2329.34,2618.55 1193.45,1482.67 "/>
     <polygon id="_334261144" class="fil1" points="1168.77,1459.05 2304.65,2594.93 2287.27,2603.98 1151.39,1468.09 "/>
     <polygon id="_334261312" class="fil1" points="1218,1527.66 2353.88,2663.54 2352.62,2662.44 2351.11,2661.45 2349.44,2660.49 1213.56,1524.6 1215.23,1525.56 1216.74,1526.56 "/>
     <polygon id="_334261120" class="fil1" points="1213.56,1524.6 2349.44,2660.49 2348.5,2659.96 2347.56,2659.42 2346.6,2658.86 2345.65,2658.29 2344.69,2657.7 2343.73,2657.09 2342.77,2656.45 2341.81,2655.78 2340.86,2655.07 2339.92,2654.33 2338.99,2653.54 2338.07,2652.71 1202.19,1516.83 1203.11,1517.66 1204.04,1518.44 1204.98,1519.19 1205.93,1519.89 1206.88,1520.57 1207.84,1521.21 1208.8,1521.82 1209.77,1522.41 1210.72,1522.98 1211.68,1523.53 1212.62,1524.07 "/>
     <polygon id="_334261648" class="fil1" points="1151.39,1468.09 2287.27,2603.98 2287.45,2604.59 2287.57,2605.23 2287.65,2605.87 2287.68,2606.52 2287.66,2607.18 2287.58,2607.84 2287.46,2608.5 2287.28,2609.16 1151.4,1473.28 1151.58,1472.62 1151.7,1471.95 1151.78,1471.29 1151.8,1470.64 1151.77,1469.99 1151.69,1469.34 1151.56,1468.71 "/>
     <polygon id="_334261336" class="fil1" points="1193.45,1482.67 2329.34,2618.55 2327.69,2617.71 2326.1,2616.88 2324.58,2616.07 2323.12,2615.27 2321.71,2614.47 2320.37,2613.69 2319.08,2612.91 2317.85,2612.13 2316.68,2611.35 2315.57,2610.58 2314.51,2609.8 2313.51,2609.01 2312.56,2608.22 2311.67,2607.42 1175.79,1471.54 1176.68,1472.34 1177.62,1473.13 1178.63,1473.91 1179.69,1474.69 1180.8,1475.47 1181.97,1476.25 1183.2,1477.03 1184.49,1477.81 1185.83,1478.59 1187.24,1479.38 1188.7,1480.19 1190.22,1481 1191.81,1481.83 "/>
     <polygon id="_334261528" class="fil1" points="1151.4,1473.28 2287.28,2609.16 2287.12,2609.74 2287.03,2610.28 2287,2610.78 2287.04,2611.25 2287.14,2611.69 2287.3,2612.1 2287.53,2612.49 2287.83,2612.86 1151.95,1476.97 1151.65,1476.6 1151.42,1476.22 1151.25,1475.81 1151.15,1475.37 1151.12,1474.9 1151.15,1474.4 1151.24,1473.86 "/>
     <polygon id="_334261048" class="fil1" points="1212.4,1502.35 2348.28,2638.23 2349.25,2639.35 2350.32,2640.39 1214.44,1504.51 1213.36,1503.47 "/>
     <polygon id="_334261216" class="fil1" points="1211.67,1492.3 2347.56,2628.18 2347.28,2629.46 2347.03,2630.76 2346.85,2632.06 2346.77,2633.36 2346.84,2634.64 2347.09,2635.89 2347.55,2637.09 2348.28,2638.23 1212.4,1502.35 1211.67,1501.21 1211.21,1500 1210.96,1498.76 1210.89,1497.48 1210.97,1496.18 1211.15,1494.87 1211.4,1493.58 "/>
     <polygon id="_334261720" class="fil1" points="1232.42,1516.26 2368.3,2652.15 2369.9,2653.69 2371.27,2655.36 2372.41,2657.19 2373.27,2659.2 2373.84,2661.43 2374.08,2663.89 2373.97,2666.62 2373.48,2669.64 2372.58,2672.98 2371.25,2676.67 2369.47,2680.73 1233.59,1544.85 1235.37,1540.79 1236.7,1537.1 1237.6,1533.76 1238.09,1530.74 1238.2,1528.01 1237.96,1525.54 1237.39,1523.32 1236.53,1521.3 1235.39,1519.48 1234.01,1517.81 "/>
     <polygon id="_334262272" class="fil1" points="1151.95,1476.97 2287.83,2612.86 2288.29,2613.34 1152.41,1477.45 "/>
     <polygon id="_334261792" class="fil1" points="1172.74,1490.16 2308.62,2626.04 2310.12,2627.49 2311.33,2628.96 2312.28,2630.46 2313,2631.99 2313.49,2633.54 2313.8,2635.11 2313.93,2636.72 2313.93,2638.35 2313.79,2640 2313.56,2641.68 2313.26,2643.39 2312.9,2645.13 2312.51,2646.89 1176.63,1511.01 1177.02,1509.25 1177.38,1507.51 1177.68,1505.8 1177.91,1504.12 1178.04,1502.46 1178.05,1500.84 1177.92,1499.23 1177.61,1497.66 1177.11,1496.11 1176.4,1494.58 1175.45,1493.08 1174.24,1491.61 "/>
     <polygon id="_334262320" class="fil1" points="1233.59,1544.85 2369.47,2680.73 2368.56,2682.23 2367.41,2683.48 2366.06,2684.47 2364.55,2685.18 2362.95,2685.59 2361.28,2685.69 2359.59,2685.45 2357.94,2684.87 1222.06,1548.99 1223.71,1549.57 1225.4,1549.8 1227.06,1549.71 1228.67,1549.3 1230.18,1548.59 1231.53,1547.6 1232.68,1546.35 "/>
     <polygon id="_334261816" class="fil1" points="1222.06,1548.99 2357.94,2684.87 2356.45,2683.97 2355.2,2682.83 1219.31,1546.95 1220.56,1548.09 "/>
     <polygon id="_334262368" class="fil1" points="1024.13,1361.59 2160.01,2497.47 2134.02,2675.68 998.139,1539.8 "/>
     <polygon id="_334262296" class="fil1" points="1133.68,1477.32 2269.56,2613.2 2253.72,2621.44 1117.84,1485.56 "/>
     <polygon id="_334261840" class="fil1" points="1182.96,1546.37 2318.84,2682.25 2317.57,2681.15 2316.06,2680.16 2314.4,2679.2 1178.52,1543.31 1180.18,1544.27 1181.69,1545.27 "/>
     <polygon id="_334261936" class="fil1" points="1117.84,1485.56 2253.72,2621.44 2249.69,2623.54 1113.81,1487.66 "/>
     <polygon id="_334263184" class="fil1" points="1187.02,1567.7 2322.9,2703.58 2321.4,2702.68 2320.15,2701.54 1184.27,1565.66 1185.52,1566.8 "/>
     <polygon id="_334262584" class="fil1" points="1158.41,1501.38 2294.29,2637.26 2292.64,2636.42 2291.06,2635.59 2289.54,2634.78 2288.07,2633.98 2286.67,2633.18 2285.32,2632.4 2284.04,2631.62 2282.81,2630.84 2281.64,2630.06 2280.52,2629.29 2279.46,2628.51 2278.46,2627.72 2277.51,2626.93 2276.62,2626.13 1140.74,1490.25 1141.63,1491.05 1142.58,1491.84 1143.58,1492.62 1144.64,1493.4 1145.75,1494.18 1146.93,1494.96 1148.16,1495.74 1149.44,1496.52 1150.79,1497.3 1152.19,1498.09 1153.65,1498.9 1155.18,1499.71 1156.76,1500.54 "/>
     <polygon id="_334262992" class="fil1" points="1178.52,1543.31 2314.4,2679.2 2313.46,2678.67 2312.51,2678.13 2311.56,2677.57 2310.6,2677 2309.64,2676.41 2308.68,2675.8 2307.72,2675.16 2306.77,2674.49 2305.82,2673.78 2304.87,2673.04 2303.94,2672.25 2303.02,2671.42 1167.14,1535.54 1168.06,1536.37 1168.99,1537.15 1169.93,1537.9 1170.88,1538.6 1171.84,1539.28 1172.8,1539.92 1173.76,1540.53 1174.72,1541.12 1175.68,1541.69 1176.63,1542.24 1177.58,1542.78 "/>
     <polygon id="_334262752" class="fil1" points="1177.35,1521.06 2313.23,2656.94 2314.2,2658.06 2315.28,2659.1 1179.4,1523.22 1178.32,1522.18 "/>
     <polygon id="_334262824" class="fil1" points="1159.16,1501.88 2295.04,2637.76 2294.29,2637.26 1158.41,1501.38 "/>
     <polygon id="_334262920" class="fil1" points="1176.63,1511.01 2312.51,2646.89 2312.23,2648.17 2311.98,2649.47 2311.8,2650.77 2311.73,2652.07 2311.8,2653.35 2312.04,2654.6 2312.51,2655.8 2313.23,2656.94 1177.35,1521.06 1176.63,1519.92 1176.16,1518.72 1175.91,1517.47 1175.85,1516.19 1175.92,1514.89 1176.1,1513.58 1176.35,1512.29 "/>
     <polygon id="_334262608" class="fil1" points="1198.54,1563.56 2334.42,2699.44 2333.52,2700.94 2332.36,2702.19 2331.01,2703.18 2329.51,2703.89 2327.9,2704.3 2326.23,2704.4 2324.55,2704.16 2322.9,2703.58 1187.02,1567.7 1188.67,1568.28 1190.35,1568.51 1192.02,1568.42 1193.63,1568.01 1195.13,1567.3 1196.48,1566.31 1197.63,1565.06 "/>
     <polygon id="_334262728" class="fil1" points="899.63,476.128 2035.51,1612.01 2036.55,1613.22 2037.53,1614.49 2038.45,1615.83 2039.32,1617.22 2040.12,1618.66 904.235,482.782 903.434,481.335 902.571,479.945 901.647,478.613 900.666,477.341 "/>
     <polygon id="_334262704" class="fil1" points="904.235,482.782 2040.12,1618.66 2055.64,1667.65 919.759,531.767 "/>
     <polygon id="_334263880" class="fil1" points="1515.73,1206.71 2651.61,2342.6 2652.79,2343.96 2653.9,2345.4 2654.94,2346.9 2655.91,2348.47 2656.82,2350.1 1520.94,1214.22 1520.03,1212.59 1519.06,1211.02 1518.01,1209.52 1516.9,1208.08 "/>
     <polygon id="_334264000" class="fil1" points="1539.45,1239.95 2675.33,2375.83 2686.04,2396.4 1550.16,1260.52 "/>
     <polygon id="_334263976" class="fil1" points="1442.53,1409.26 2578.41,2545.14 2579.79,2546.81 2580.93,2548.64 2581.79,2550.66 2582.36,2552.88 2582.6,2555.35 2582.49,2558.08 2582,2561.1 2581.1,2564.44 2579.77,2568.13 2577.98,2572.19 1442.1,1436.31 1443.89,1432.25 1445.22,1428.56 1446.12,1425.22 1446.61,1422.19 1446.72,1419.46 1446.47,1417 1445.91,1414.77 1445.05,1412.76 1443.91,1410.93 "/>
     <polygon id="_334263904" class="fil1" points="1407.49,1427.97 2543.37,2563.86 2544.75,2565.53 2545.88,2567.35 2546.74,2569.37 2547.31,2571.59 2547.55,2574.06 2547.44,2576.79 2546.95,2579.81 2546.06,2583.15 2544.73,2586.84 2542.94,2590.9 1407.06,1455.02 1408.85,1450.96 1410.17,1447.27 1411.07,1443.93 1411.56,1440.9 1411.67,1438.18 1411.43,1435.71 1410.86,1433.49 1410,1431.47 1408.86,1429.64 "/>
     <polygon id="_334263304" class="fil1" points="1407.06,1455.02 2542.94,2590.9 2542.03,2592.4 2540.88,2593.65 2539.53,2594.64 2538.03,2595.35 2536.42,2595.76 2534.75,2595.85 2533.07,2595.62 2531.42,2595.04 1395.54,1459.16 1397.19,1459.74 1398.87,1459.97 1400.54,1459.87 1402.15,1459.46 1403.65,1458.76 1405,1457.77 1406.15,1456.52 "/>
     <polygon id="_334263424" class="fil1" points="1395.54,1459.16 2531.42,2595.04 2529.92,2594.14 2528.67,2593 1392.79,1457.12 1394.04,1458.26 "/>
     <polygon id="_334263952" class="fil1" points="1307.37,1503.65 2443.25,2639.53 2442.78,2641.21 2442.01,2642.73 2440.97,2644.04 2439.71,2645.12 2438.27,2645.95 2436.69,2646.49 2435,2646.71 2433.25,2646.59 1297.37,1510.71 1299.12,1510.83 1300.8,1510.6 1302.39,1510.06 1303.83,1509.24 1305.09,1508.15 1306.13,1506.84 1306.9,1505.33 "/>
     <polygon id="_334263592" class="fil1" points="1197.37,1534.98 2333.26,2670.86 2334.85,2672.4 2336.23,2674.07 2337.36,2675.9 2338.23,2677.91 2338.79,2680.14 2339.03,2682.6 2338.92,2685.33 2338.43,2688.35 2337.54,2691.69 2336.21,2695.38 2334.42,2699.44 1198.54,1563.56 1200.33,1559.5 1201.66,1555.81 1202.55,1552.47 1203.04,1549.45 1203.15,1546.72 1202.91,1544.25 1202.35,1542.03 1201.48,1540.02 1200.35,1538.19 1198.97,1536.51 "/>
     <polygon id="_334263616" class="fil1" points="998.139,1539.8 2134.02,2675.68 2134.05,2675.77 998.169,1539.89 "/>
     <polygon id="_334263736" class="fil1" points="998.169,1539.89 2134.05,2675.77 2133.63,2677.96 2133.01,2680.07 2132.22,2682.08 2131.26,2683.99 2130.14,2685.79 2128.87,2687.48 2127.47,2689.04 2125.93,2690.47 2124.29,2691.75 2122.53,2692.89 2120.68,2693.87 2118.74,2694.69 2116.73,2695.34 2114.65,2695.81 2112.52,2696.09 2110.34,2696.18 974.461,1560.29 976.638,1560.21 978.77,1559.93 980.847,1559.46 982.86,1558.81 984.797,1557.99 986.649,1557.01 988.404,1555.87 990.053,1554.58 991.586,1553.16 992.991,1551.6 994.259,1549.91 995.378,1548.11 996.34,1546.2 997.132,1544.19 997.745,1542.08 "/>
     <polygon id="_334264288" class="fil1" points="517.883,1260.05 1653.76,2395.93 1650.95,2393.64 1648.18,2391.3 512.296,1255.41 515.069,1257.75 "/>
     <polygon id="_334264432" class="fil1" points="585.298,1560.29 1721.18,2696.18 1718.94,2696.07 1716.73,2695.77 1714.58,2695.28 1712.49,2694.6 1710.47,2693.75 1708.54,2692.73 1706.71,2691.57 1705,2690.25 569.115,1554.37 570.833,1555.68 572.663,1556.85 574.591,1557.87 576.606,1558.71 578.696,1559.39 580.849,1559.89 583.054,1560.19 "/>
     <polygon id="_334264216" class="fil1" points="974.461,1560.29 2110.34,2696.18 2098.18,2698.53 2086.02,2700.77 2073.86,2702.9 2061.7,2704.91 2049.54,2706.8 2037.37,2708.57 2025.21,2710.2 2013.05,2711.69 2000.89,2713.05 1988.73,2714.27 1976.57,2715.34 1964.41,2716.25 1952.24,2717.01 1940.08,2717.61 1927.92,2718.04 1915.76,2718.31 1903.6,2718.4 1891.44,2718.32 1879.28,2718.05 1867.12,2717.6 1854.95,2716.96 1842.79,2716.12 1830.63,2715.09 1818.47,2713.86 1806.31,2712.41 1794.15,2710.76 1781.99,2708.89 1769.82,2706.8 1757.66,2704.49 1745.5,2701.95 1733.34,2699.18 1721.18,2696.18 585.298,1560.29 597.46,1563.3 609.621,1566.07 621.782,1568.61 633.943,1570.92 646.105,1573.01 658.265,1574.88 670.427,1576.53 682.589,1577.97 694.75,1579.21 706.912,1580.24 719.072,1581.08 731.234,1581.72 743.396,1582.17 755.556,1582.43 767.718,1582.52 779.879,1582.43 792.041,1582.16 804.203,1581.73 816.363,1581.13 828.525,1580.37 840.687,1579.45 852.848,1578.39 865.009,1577.17 877.17,1575.81 889.332,1574.32 901.494,1572.68 913.654,1570.92 925.816,1569.03 937.977,1567.02 950.139,1564.89 962.299,1562.65 "/>
    </g>
    <path id="_451248944" class="fil1" d="M919.759 531.767l390.887 750.916 161.234 -83.9304c17.7449,-9.23623 39.8185,-2.27599 49.0559,15.4677l14.4851 27.828 4.03229 -2.09882 10.7055 20.5677 -4.03111 2.09882 -13.5036 7.02875c0.0555119,1.00276 -0.0661418,2.03268 -0.383859,3.04843 -0.507874,1.60394 -0.330709,2.73307 0.54567,3.69567 2.31024,2.53937 7.15985,5.33859 14.361,8.99528 14.2772,7.25079 12.4264,15.5669 10.3228,25.0382 -0.748819,3.36851 -1.57795,7.09725 0.720473,10.0512 2.41299,3.1004 6.24567,5.26418 9.74646,7.23898 12.287,6.93426 22.2579,12.5587 11.4437,35.2642 -2.04921,4.30985 -7.20827,6.16182 -11.5228,4.13859 -4.31457,-2.02441 -6.15,-7.15867 -4.10079,-11.4697 3.91536,-8.22284 0.188977,-10.3252 -4.40197,-12.9165 -4.97126,-2.80512 -10.415,-5.87717 -14.8866,-11.6221 -7.26969,-9.34371 -5.5193,-17.2228 -3.93662,-24.3414 0.565748,-2.5441 1.06181,-4.77874 -1.28386,-5.9693 -8.93977,-4.54016 -15.2504,-8.33268 -19.2898,-12.7748 -2.66339,-2.92559 -4.35355,-5.90552 -5.09292,-9.13229l-7.57205 3.94134c2.32795,2.42362 3.8941,5.51221 4.85433,9.3945 1.42559,5.76142 1.05945,13.1209 -0.147638,23.1106 -0.317717,2.63268 1.80591,3.45945 4.22363,4.40079 6.81497,2.65394 14.3563,5.59134 18.0768,16.8354 2.30197,6.95788 1.82717,13.1587 1.39488,18.8209 -0.402756,5.25473 -0.72756,9.51969 8.24528,10.8366 4.72914,0.690945 7.98426,5.07756 7.26969,9.79607 -0.713386,4.71851 -5.12717,7.98308 -9.85631,7.29095 -24.9248,-3.65551 -24.052,-15.0721 -22.9772,-29.139 0.309449,-4.03583 0.647245,-8.45316 -0.570473,-12.1382 -1.17402,-3.54685 -4.71496,-4.92638 -7.91221,-6.17126 -9.05316,-3.52559 -17.0008,-6.62008 -15.0839,-22.4953 0.96378,-7.98071 1.32992,-13.5626 0.488977,-16.9606 -0.315355,-1.27559 -1.13622,-2.0504 -2.70473,-2.50748 -1.22835,-0.356693 -2.31614,-0.961418 -3.22441,-1.74331l-15.9484 8.30197c2.55473,2.54882 4.20945,5.84056 5.15433,10.0358 1.32165,5.85709 0.809056,13.2012 -0.6,23.1284 -0.369685,2.60433 1.74449,3.47953 4.15276,4.4752 6.73938,2.7874 14.198,5.87245 17.6799,17.1874 2.14134,6.95788 1.53662,13.1788 0.981497,18.861 -0.510237,5.24646 -0.924804,9.50552 8.05631,11.0138 4.70552,0.793701 7.86024,5.24292 7.04292,9.93898 -0.816142,4.6937 -5.2937,7.85788 -9.99922,7.06418 -24.802,-4.16575 -23.6906,-15.5587 -22.3229,-29.602 0.389764,-4.0004 0.816142,-8.38111 -0.338977,-12.1358 -1.10079,-3.5752 -4.63111,-5.03622 -7.82008,-6.35552 -8.96457,-3.70866 -16.8378,-6.96378 -14.5878,-22.8166 1.13504,-7.99725 1.62402,-13.5756 0.869292,-16.924 -0.287008,-1.26969 -1.10906,-2.06221 -2.71418,-2.56772 -1.31693,-0.418111 -2.46142,-1.12087 -3.38859,-2.01969l-20.1248 10.4764c11.3114,5.34095 10.6004,14.6469 9.76654,25.5449 -0.308268,4.03583 -0.646063,8.45434 0.572835,12.1394 1.17402,3.54685 4.71378,4.9252 7.90985,6.17008 9.05316,3.52677 17.002,6.62126 15.0851,22.4965 -0.96378,7.97953 -1.32874,13.5614 -0.488977,16.9595 0.315355,1.27677 1.13622,2.05158 2.70473,2.50866 4.58741,1.32874 7.20827,6.1193 5.85591,10.6984 -1.35236,4.57796 -6.1689,7.213 -10.7563,5.88544 -8.25473,-2.40827 -12.7004,-7.01812 -14.6516,-14.9043 -1.42677,-5.7626 -1.05945,-13.1209 0.145276,-23.1106 0.318898,-2.63268 -1.80591,-3.45945 -4.22363,-4.40079 -6.81378,-2.65394 -14.3551,-5.59016 -18.0756,-16.8366 -2.30079,-6.9567 -1.82717,-13.1575 -1.39488,-18.8209 0.402756,-5.25473 0.72756,-9.51969 -8.24528,-10.8354 -2.01732,-0.295276 -3.76654,-1.26142 -5.05394,-2.64095l-19.5378 10.1705c0.401575,1.51772 0.393307,3.16418 -0.111024,4.77638 -0.507874,1.60512 -0.329528,2.73307 0.54567,3.69567 2.31024,2.53937 7.16103,5.33977 14.361,8.99646 14.2772,7.24961 12.4287,15.5681 10.3228,25.0382 -0.748819,3.36851 -1.57677,7.09725 0.720473,10.05 2.41299,3.1004 6.24686,5.26418 9.74646,7.23898 12.2882,6.93308 22.2579,12.5599 11.4437,35.2654 -2.04921,4.30866 -7.20827,6.16182 -11.5228,4.13859 -4.31339,-2.02441 -6.15,-7.15985 -4.10079,-11.4697 3.91772,-8.22284 0.190158,-10.3264 -4.40197,-12.9165 -4.97126,-2.80512 -10.415,-5.87835 -14.8854,-11.6232 -7.27087,-9.34253 -5.5193,-17.2228 -3.93662,-24.3402 0.564567,-2.5441 1.06063,-4.77874 -1.28386,-5.9693 -8.93977,-4.54016 -15.2504,-8.33268 -19.291,-12.7748 -3.12756,-3.43819 -4.91457,-6.94961 -5.39174,-10.8484l-17.3788 9.04725c0.518504,1.62756 0.557481,3.42638 0.00708662,5.18386 -0.506693,1.60394 -0.329528,2.73307 0.54567,3.69449 2.31024,2.54055 7.15985,5.33977 14.361,8.99646 14.2784,7.24961 12.4276,15.5658 10.3228,25.0382 -0.748819,3.36733 -1.57677,7.09725 0.721654,10.05 2.41181,3.10158 6.24449,5.26418 9.74646,7.24016 12.287,6.93308 22.2567,12.5587 11.4425,35.2642 -2.04921,4.30985 -7.20827,6.16182 -11.5217,4.1374 -4.31575,-2.02323 -6.15119,-7.15867 -4.10197,-11.4697 3.91654,-8.22166 0.190158,-10.3252 -4.40197,-12.9165 -4.97126,-2.80512 -10.415,-5.87717 -14.8854,-11.6221 -7.27087,-9.34253 -5.5193,-17.2217 -3.9378,-24.3402 0.565748,-2.5441 1.06181,-4.77874 -1.28268,-5.97048 -8.93977,-4.53898 -15.2504,-8.33268 -19.291,-12.7725 -3.24567,-3.56811 -5.04804,-7.21536 -5.44016,-11.2913l-18.0886 9.41576c0.0543308,1.00276 -0.0673229,2.03268 -0.38504,3.04843 -0.506693,1.60394 -0.329528,2.73307 0.54567,3.69449 2.31024,2.54055 7.16103,5.33977 14.361,8.99646 14.2784,7.24961 12.4287,15.5658 10.324,25.0382 -0.750001,3.36733 -1.57795,7.09607 0.720473,10.05 2.41299,3.10158 6.24567,5.26418 9.74646,7.24016 12.287,6.93308 22.2567,12.5587 11.4437,35.263 -2.04921,4.30985 -7.20827,6.163 -11.5228,4.13859 -4.31457,-2.02441 -6.15,-7.15867 -4.10079,-11.4697 3.91654,-8.22166 0.188977,-10.3252 -4.40197,-12.9165 -4.97126,-2.80512 -10.415,-5.87717 -14.8866,-11.6221 -7.27087,-9.34253 -5.5193,-17.2228 -3.93662,-24.3402 0.565748,-2.5441 1.06063,-4.77874 -1.28386,-5.97048 -8.93977,-4.53898 -15.2504,-8.33268 -19.2898,-12.7736 -2.66339,-2.92677 -4.35473,-5.9067 -5.09292,-9.13347l-7.57205 3.94252c2.32677,2.42244 3.89292,5.51103 4.85315,9.39331 1.42559,5.7626 1.05945,13.1209 -0.146457,23.1106 -0.317717,2.63268 1.80591,3.45945 4.22363,4.40197 6.81497,2.65276 14.3563,5.59016 18.0768,16.8343 2.30197,6.95906 1.82717,13.1587 1.3937,18.8209 -0.401575,5.25591 -0.72756,9.52087 8.24646,10.8366 4.72914,0.692127 7.98426,5.07756 7.26969,9.79607 -0.713386,4.71851 -5.12717,7.98308 -9.85749,7.29095 -24.9248,-3.65433 -24.052,-15.0709 -22.9748,-29.139 0.308268,-4.03583 0.646063,-8.45316 -0.572835,-12.137 -1.17284,-3.54803 -4.71378,-4.92756 -7.91103,-6.17245 -9.05316,-3.52441 -17.0008,-6.6189 -15.0851,-22.4941 0.964961,-7.9819 1.3311,-13.5638 0.490158,-16.9618 -0.315355,-1.27441 -1.13622,-2.0504 -2.70473,-2.50748 -1.22835,-0.356693 -2.31614,-0.960237 -3.22441,-1.74331l-15.9484 8.30197c2.55473,2.55 4.20945,5.84056 5.15552,10.0358 1.31929,5.85709 0.807875,13.2012 -0.601182,23.1284 -0.369685,2.60433 1.74449,3.47953 4.15276,4.47638 6.73938,2.78622 14.1969,5.87245 17.6799,17.1862 2.14134,6.95788 1.53543,13.1788 0.981497,18.861 -0.511418,5.24646 -0.924804,9.50552 8.05631,11.015 4.7067,0.79252 7.85906,5.24292 7.04174,9.9378 -0.816142,4.69489 -5.29252,7.85788 -9.99804,7.06418 -24.802,-4.16575 -23.6906,-15.5587 -22.3229,-29.6008 0.389764,-4.0004 0.817323,-8.38229 -0.338977,-12.137 -1.10079,-3.5752 -4.63111,-5.03622 -7.82008,-6.35434 -8.96575,-3.70985 -16.8378,-6.96378 -14.5878,-22.8177 1.13504,-7.99607 1.62402,-13.5756 0.868111,-16.924 -0.285827,-1.26969 -1.10906,-2.06221 -2.71418,-2.56772 -1.31575,-0.418111 -2.46024,-1.12087 -3.3874,-2.01851l-20.1248 10.4752c11.3114,5.33977 10.6004,14.6469 9.76654,25.5461 -0.308268,4.03583 -0.646063,8.45434 0.572835,12.1382 1.17284,3.54685 4.7126,4.9252 7.90985,6.17008 9.05434,3.52677 17.002,6.62126 15.0851,22.4965 -0.96378,7.97953 -1.32992,13.5626 -0.488977,16.9606 0.315355,1.27559 1.13622,2.0504 2.70473,2.50866 4.58741,1.32756 7.20827,6.1193 5.85591,10.6973 -1.35236,4.57914 -6.1689,7.21418 -10.7563,5.88544 -8.25473,-2.40827 -12.7004,-7.01812 -14.6516,-14.9043 -1.42559,-5.7626 -1.05945,-13.1209 0.145276,-23.1095 0.317717,-2.63268 -1.80591,-3.46063 -4.22363,-4.40197 -6.81378,-2.65276 -14.3563,-5.59016 -18.0756,-16.8354 -2.30197,-6.9567 -1.82717,-13.1587 -1.39488,-18.8221 0.401575,-5.25473 0.72756,-9.51969 -8.24528,-10.8343 -2.01851,-0.295276 -3.76772,-1.2626 -5.05394,-2.64213l-19.5378 10.1705c0.401575,1.51772 0.393307,3.16536 -0.111024,4.77756 -0.507874,1.60512 -0.329528,2.73307 0.54567,3.69449 2.31024,2.54055 7.15985,5.34095 14.361,8.99764 14.2772,7.24961 12.4276,15.5669 10.3228,25.0382 -0.747638,3.36733 -1.57677,7.09607 0.720473,10.0488 2.41299,3.10158 6.24567,5.26418 9.74646,7.24016 12.2882,6.93308 22.2579,12.5599 11.4437,35.2642 -2.04921,4.30985 -7.20827,6.163 -11.5228,4.13859 -4.31339,-2.02441 -6.15,-7.15985 -4.10079,-11.4697 3.91654,-8.22166 0.190158,-10.3264 -4.40197,-12.9165 -4.97126,-2.80512 -10.415,-5.87717 -14.8854,-11.6232 -7.27205,-9.34253 -5.5193,-17.2217 -3.93662,-24.3402 0.564567,-2.54292 1.06063,-4.77756 -1.28386,-5.9693 -8.93977,-4.53898 -15.2504,-8.33268 -19.291,-12.7736 -3.12874,-3.43819 -4.91575,-6.94961 -5.39292,-10.8496l-17.3776 9.04725c0.518504,1.62756 0.557481,3.4252 0.00708662,5.18268 -0.506693,1.60512 -0.329528,2.73425 0.54567,3.69567 2.31024,2.54055 7.16103,5.33977 14.3622,8.99646 14.2772,7.25079 12.4264,15.5669 10.3228,25.0382 -0.750001,3.36851 -1.57795,7.09725 0.720473,10.05 2.41299,3.1004 6.24567,5.26418 9.74646,7.23898 12.287,6.93426 22.2567,12.5599 11.4437,35.2642 -2.04921,4.30985 -7.20827,6.163 -11.5228,4.13859 -4.31457,-2.02441 -6.15119,-7.15867 -4.10197,-11.4685 3.91654,-8.22284 0.190158,-10.3264 -4.40079,-12.9177 -4.97126,-2.80512 -10.415,-5.87717 -14.8866,-11.6221 -7.26969,-9.34253 -5.5193,-17.2217 -3.93662,-24.3414 0.565748,-2.5441 1.06063,-4.77756 -1.28386,-5.96811 -8.93977,-4.54016 -15.2504,-8.33386 -19.2898,-12.7748 -3.24567,-3.56811 -5.04804,-7.21418 -5.44134,-11.2913l-15.8374 8.2441 -4.03229 2.1 -10.7067 -20.5677 4.03229 -2.09882 -14.4851 -27.828c-9.23623,-17.7449 -2.27599,-39.8185 15.4677,-49.0559l161.234 -83.9292 -390.887 -750.915 -31.2225 -40.8154c-8.19213,-15.7382 -2.0752,-35.139 13.663,-43.3311 15.7382,-8.19213 35.139,-2.0752 43.3323,13.663l15.5244 48.9851zm-141.886 428.727c80.8536,0 154.246,7.56969 207.539,19.8071 57.7311,13.2555 93.4406,33.541 93.4406,57.7111 0,7.82717 -3.74528,15.248 -10.7717,22.154l-5.4815 37.5862 6.56693 0c3.75118,0 7.07127,3.75473 9.10867,9.52087 2.02677,0.42874 3.84922,1.61693 4.71142,3.59292 2.83701,6.49489 5.1,13.2449 6.58938,20.1768 1.45512,6.77363 2.21339,13.6736 2.21339,20.602 0,38.9457 -22.3181,71.4296 -51.0993,96.3591l-16.5638 113.584 -25.9878 178.21 0.0307087 0.0885827c-1.7374,11.9126 -12.0024,20.4744 -23.7083,20.4071 -129.721,25.6701 -259.442,33.3473 -389.163,0 -12.0532,0 -22.9252,-8.94213 -24.5303,-20.5524l-30.5776 -198.265c-3.62126,-23.4744 -7.72205,-50.7768 -12.3071,-81.4312 -30.228,-24.1878 -53.8831,-56.6126 -53.8831,-96.678 0,-7.93938 1.02756,-15.8351 2.90197,-23.5465 1.95473,-8.04449 4.85197,-15.8268 8.51339,-23.2477 0.0625985,-0.126378 0.12874,-0.250394 0.198425,-0.372048 1.01102,-10.5142 5.55591,-18.4488 11.0079,-18.4488l6.8504 0c-1.87087,-12.2669 -3.7878,-24.7819 -5.75197,-37.5343 -7.06064,-6.92127 -10.8248,-14.3587 -10.8248,-22.2059 0,-24.1701 35.7095,-44.4555 93.4418,-57.7111 53.2926,-12.2374 126.684,-19.8071 207.536,-19.8071z"/>
   </g>
  </g>
  <path class="fil2" d="M1024 -0.0011811c565.539,0 1024,458.462 1024,1024 0,565.539 -458.462,1024 -1024,1024 -565.539,0 -1024,-458.462 -1024,-1024 0,-565.539 458.462,-1024 1024,-1024z"/>
  <path class="fil3" d="M486.622 1097.75c-6.19371,0 -11.2169,10.2413 -11.2169,22.8709 0,12.6307 5.02323,22.8721 11.2169,22.8721l55.3819 0c6.19371,0 11.2169,-10.2413 11.2169,-22.8721 0,-12.6295 -5.02323,-22.8709 -11.2169,-22.8709l-55.3819 0z"/>
  <path class="fil3" d="M1013.78 1097.75c-6.19371,0 -11.2158,10.2413 -11.2158,22.8709 0,12.6307 5.02205,22.8721 11.2158,22.8721l55.3831 0c6.19371,0 11.2158,-10.2413 11.2158,-22.8721 0,-12.6295 -5.02205,-22.8709 -11.2158,-22.8709l-55.3831 0z"/>
  <path class="fil4" d="M777.895 970.729c75.4548,0 144.135,6.72166 194.175,17.5866 59.7626,12.978 96.7288,34.9028 96.7288,62.6965 0,27.7937 -36.9662,49.7174 -96.7288,62.6953 -50.0398,10.865 -118.72,17.5866 -194.175,17.5866 -75.4548,0 -144.135,-6.72166 -194.173,-17.5866 -59.7638,-12.978 -96.7288,-34.9016 -96.7288,-62.6953 0,-27.7937 36.965,-49.7185 96.7288,-62.6965 50.0386,-10.865 118.719,-17.5866 194.173,-17.5866z"/>
  <path class="fil3" d="M1068.91 1054.46c0.259843,-1.82953 0.304725,-3.64016 0.153543,-5.40591 -32.9362,29.3658 -150.814,51.0969 -291.194,51.0969 -140.376,0 -258.252,-21.7299 -291.192,-51.0945 -0.159449,1.85669 -0.102756,3.76063 0.193701,5.68347 18.4677,119.754 32.8855,219.127 43.3146,286.741l30.5776 198.265c1.60512,11.6102 12.4772,20.5524 24.5303,20.5524 129.721,33.3473 259.442,25.6701 389.163,0 11.7059,0.0673229 21.9709,-8.49449 23.7083,-20.4071l-0.0307087 -0.0885827 25.9878 -178.21c10.4646,-71.7662 24.8221,-170.212 44.7874,-307.133z"/>
  <path class="fil5" d="M1151.4 1473.28c1.42795,-4.56142 -1.1185,-9.39804 -5.68819,-10.8012 -4.56969,-1.40433 -9.43111,1.15512 -10.8602,5.71654 -2.57717,8.15316 -1.20945,14.3965 4.26615,20.4142 4.03937,4.44095 10.35,8.23465 19.2898,12.7748 2.34567,1.19055 1.84961,3.42402 1.28386,5.96811 -1.58268,7.11969 -3.33307,14.9988 3.93662,24.3414 4.47048,5.74489 9.91536,8.81694 14.8866,11.6221 4.59095,2.59134 8.31733,4.69489 4.40197,12.9177 -2.04921,4.30985 -0.21378,9.44528 4.10079,11.4685 4.31457,2.02441 9.47363,0.17126 11.5228,-4.13859 10.8142,-22.7043 0.843308,-28.3299 -11.4437,-35.2642 -3.50079,-1.9748 -7.33347,-4.13859 -9.74646,-7.23898 -2.29843,-2.95276 -1.46929,-6.6815 -0.720473,-10.05 2.10473,-9.47245 3.95433,-17.7874 -10.3228,-25.0382 -7.20119,-3.6567 -12.0508,-6.45591 -14.3622,-8.99646 -0.875198,-0.961418 -1.05236,-2.09055 -0.544489,-3.69567z"/>
  <path class="fil5" d="M1186.45 1454.57c1.42795,-4.56142 -1.1185,-9.39804 -5.68819,-10.8024 -4.56851,-1.40433 -9.43111,1.1563 -10.8591,5.71772 -2.57835,8.15197 -1.21063,14.3953 4.26496,20.4142 4.04055,4.44095 10.3512,8.23347 19.291,12.7736 2.34449,1.19055 1.84843,3.4252 1.28386,5.9693 -1.58268,7.11851 -3.33425,14.9976 3.93662,24.3402 4.47048,5.74607 9.91418,8.81812 14.8854,11.6232 4.59213,2.59134 8.31851,4.6937 4.40197,12.9165 -2.04921,4.30985 -0.21378,9.44528 4.10079,11.4697 4.31457,2.02441 9.47363,0.17126 11.5228,-4.13859 10.8142,-22.7043 0.844489,-28.3311 -11.4437,-35.2642 -3.50079,-1.9748 -7.33347,-4.13859 -9.74646,-7.24016 -2.29725,-2.95158 -1.46929,-6.6815 -0.720473,-10.05 2.10473,-9.47009 3.95433,-17.7874 -10.3228,-25.0382 -7.20001,-3.6567 -12.0508,-6.45591 -14.361,-8.99528 -0.875198,-0.962599 -1.05354,-2.09055 -0.54567,-3.69567z"/>
  <path class="fil5" d="M1257.59 1531.17c4.58741,1.32874 9.40394,-1.3063 10.7563,-5.88544 1.35236,-4.57796 -1.2685,-9.36851 -5.85591,-10.6973 -1.56851,-0.458268 -2.38937,-1.23307 -2.70473,-2.50866 -0.840946,-3.39922 -0.474804,-8.98111 0.488977,-16.9606 1.91693,-15.8752 -6.03071,-18.9697 -15.0851,-22.4953 -3.19725,-1.24606 -6.73701,-2.62441 -7.90985,-6.17126 -1.2189,-3.68504 -0.881103,-8.10355 -0.572835,-12.1382 1.07599,-14.0681 1.94764,-25.4835 -22.976,-29.139 -4.72914,-0.690945 -9.1441,2.57244 -9.85749,7.29095 -0.714567,4.71851 2.54055,9.10513 7.27087,9.79607 8.97284,1.31693 8.64686,5.58071 8.24528,10.8354 -0.432284,5.66339 -0.907087,11.8642 1.39488,18.8221 3.72048,11.2453 11.2618,14.1815 18.0756,16.8354 2.41772,0.941339 4.54134,1.76929 4.22363,4.40079 -1.20473,9.98977 -1.57205,17.348 -0.146457,23.1106 1.95118,7.88623 6.39804,12.4961 14.6528,14.9043z"/>
  <path class="fil5" d="M1250.46 1420.31c-4.5567,-1.44685 -7.05709,-6.30709 -5.58662,-10.8555 1.47047,-4.54843 6.3567,-7.063 10.9122,-5.61615 8.1567,2.56418 12.4866,7.26615 14.276,15.2032 1.31929,5.85709 0.807875,13.2024 -0.601182,23.1295 -0.369685,2.60315 1.74449,3.47835 4.15276,4.4752 6.73819,2.78622 14.198,5.87245 17.6799,17.1862 2.14134,6.95788 1.53543,13.1788 0.981497,18.861 -0.511418,5.24646 -0.924804,9.50552 8.05631,11.015 4.70552,0.793701 7.85906,5.24292 7.04292,9.9378 -0.817323,4.69489 -5.2937,7.85788 -9.99922,7.06418 -24.802,-4.16457 -23.6906,-15.5587 -22.3229,-29.6008 0.389764,-4.0004 0.816142,-8.38111 -0.338977,-12.137 -1.10079,-3.5752 -4.63111,-5.03622 -7.82008,-6.35434 -8.96575,-3.70985 -16.8378,-6.96378 -14.5878,-22.8177 1.13504,-7.99607 1.62402,-13.5744 0.868111,-16.924 -0.285827,-1.26969 -1.10906,-2.06221 -2.71299,-2.56654z"/>
  <path class="fil5" d="M1288.98 1385.86c-4.58622,-1.32756 -9.40276,1.3063 -10.7551,5.88544 -1.35354,4.57914 1.2685,9.36969 5.85591,10.6984 1.56851,0.457087 2.38937,1.23307 2.70473,2.50866 0.839764,3.39685 0.474804,8.97875 -0.488977,16.9595 -1.91693,15.8764 6.03071,18.9709 15.0839,22.4965 3.19725,1.24488 6.73819,2.62323 7.91103,6.17008 1.2189,3.68504 0.881103,8.10355 0.572835,12.1382 -1.07599,14.0681 -1.94882,25.4835 22.9748,29.139 4.73032,0.692127 9.1441,-2.57244 9.85749,-7.29095 0.714567,-4.71851 -2.54055,-9.10513 -7.27087,-9.79607 -8.97284,-1.31575 -8.64686,-5.58071 -8.24528,-10.8354 0.433465,-5.66339 0.908268,-11.8642 -1.3937,-18.8221 -3.72048,-11.2441 -11.2618,-14.1815 -18.0768,-16.8343 -2.41772,-0.94252 -4.54134,-1.76929 -4.22363,-4.40197 1.20591,-9.98977 1.57205,-17.348 0.146457,-23.1106 -1.95,-7.88505 -6.39686,-12.4961 -14.6528,-14.9043z"/>
  <path class="fil5" d="M1323.72 1381.24c1.42795,-4.56142 -1.1185,-9.39804 -5.68819,-10.8024 -4.56969,-1.40315 -9.43229,1.1563 -10.8602,5.71772 -2.57717,8.15197 -1.21063,14.3965 4.26615,20.4142 4.03937,4.44095 10.35,8.23465 19.2898,12.7736 2.34449,1.19173 1.84961,3.4252 1.28386,5.9693 -1.58268,7.11851 -3.33307,14.9988 3.93662,24.3414 4.47048,5.74489 9.91536,8.81694 14.8866,11.6221 4.59095,2.59134 8.31733,4.69489 4.40197,12.9177 -2.04921,4.30985 -0.21378,9.4441 4.10079,11.4685 4.31457,2.02441 9.47363,0.17126 11.5228,-4.13859 10.8142,-22.7043 0.843308,-28.3299 -11.4437,-35.2642 -3.50079,-1.9748 -7.33347,-4.13859 -9.74646,-7.23898 -2.29843,-2.95276 -1.46929,-6.68268 -0.720473,-10.05 2.10473,-9.47245 3.95433,-17.7874 -10.3228,-25.0382 -7.20119,-3.6567 -12.0508,-6.45591 -14.3622,-8.99646 -0.875198,-0.961418 -1.05236,-2.09055 -0.544489,-3.69567z"/>
  <path class="fil5" d="M1359.92 1364.73c1.42795,-4.56142 -1.1185,-9.39804 -5.68701,-10.8012 -4.56969,-1.40433 -9.43229,1.15512 -10.8602,5.71654 -2.57717,8.15316 -1.21063,14.3965 4.26496,20.4142 4.04055,4.44095 10.3512,8.23465 19.291,12.7748 2.34449,1.19055 1.84843,3.4252 1.28386,5.9693 -1.58268,7.11851 -3.33425,14.9976 3.93662,24.3402 4.47048,5.74489 9.91418,8.81694 14.8854,11.6221 4.59213,2.59134 8.31851,4.69489 4.40197,12.9177 -2.04921,4.30985 -0.212599,9.44528 4.10079,11.4685 4.31457,2.02441 9.47363,0.17126 11.5228,-4.13859 10.8142,-22.7043 0.843308,-28.3299 -11.4425,-35.2642 -3.50079,-1.9748 -7.33465,-4.13859 -9.74765,-7.23898 -2.29725,-2.95276 -1.46929,-6.6815 -0.720473,-10.05 2.10473,-9.47245 3.95433,-17.7874 -10.3228,-25.0382 -7.20119,-3.6567 -12.0508,-6.45591 -14.361,-8.99646 -0.875198,-0.961418 -1.05236,-2.09055 -0.54567,-3.69567z"/>
  <path class="fil5" d="M1394.96 1346.02c1.42795,-4.56142 -1.1185,-9.39804 -5.68701,-10.8012 -4.56969,-1.40433 -9.43229,1.15512 -10.8602,5.71654 -2.57835,8.15316 -1.20945,14.3965 4.26496,20.4142 4.04055,4.44095 10.3512,8.23465 19.291,12.7748 2.34449,1.19055 1.84843,3.4252 1.28386,5.9693 -1.58268,7.11851 -3.33425,14.9976 3.93662,24.3402 4.47048,5.74489 9.91418,8.81694 14.8854,11.6232 4.59213,2.59016 8.31851,4.6937 4.40197,12.9165 -2.04921,4.30985 -0.212599,9.44528 4.10079,11.4685 4.31457,2.02441 9.47363,0.172441 11.5228,-4.13859 10.8142,-22.7043 0.844489,-28.3311 -11.4437,-35.2642 -3.49961,-1.9748 -7.33347,-4.13859 -9.74646,-7.23898 -2.29725,-2.95276 -1.46929,-6.6815 -0.719292,-10.05 2.10354,-9.47127 3.95315,-17.7886 -10.324,-25.0382 -7.20001,-3.6567 -12.0496,-6.45591 -14.361,-8.99646 -0.875198,-0.961418 -1.05354,-2.09055 -0.54567,-3.69567z"/>
  <path class="fil5" d="M1466.11 1422.63c4.58622,1.32756 9.40276,-1.3063 10.7551,-5.88544 1.35354,-4.57914 -1.2685,-9.36969 -5.85591,-10.6984 -1.56851,-0.457087 -2.38937,-1.23307 -2.70473,-2.50866 -0.839764,-3.39803 -0.474804,-8.97993 0.488977,-16.9595 1.91693,-15.8752 -6.03071,-18.9709 -15.0851,-22.4965 -3.19725,-1.24488 -6.73701,-2.62323 -7.90985,-6.17008 -1.2189,-3.68504 -0.881103,-8.10355 -0.572835,-12.1394 1.07599,-14.0669 1.94882,-25.4823 -22.976,-29.1378 -4.72914,-0.692127 -9.14292,2.57244 -9.85749,7.29095 -0.713386,4.71851 2.54055,9.10513 7.27087,9.79607 8.97284,1.31575 8.64686,5.58071 8.24528,10.8354 -0.432284,5.66339 -0.905906,11.8642 1.39488,18.8221 3.72048,11.2453 11.2618,14.1815 18.0756,16.8343 2.41772,0.94252 4.54134,1.76929 4.22363,4.40197 -1.20473,9.98977 -1.57087,17.348 -0.145276,23.1106 1.95,7.88623 6.39686,12.4961 14.6528,14.9043z"/>
  <path class="fil5" d="M1458.98 1311.77c-4.55552,-1.44685 -7.05709,-6.30709 -5.58662,-10.8543 1.47165,-4.54843 6.3567,-7.063 10.9134,-5.61733 8.15552,2.56536 12.4854,7.26615 14.2748,15.2043 1.32047,5.85709 0.807875,13.2012 -0.601182,23.1284 -0.369685,2.60433 1.74449,3.47953 4.15276,4.47638 6.73938,2.78622 14.198,5.87126 17.6799,17.1862 2.14252,6.95788 1.53543,13.1788 0.982678,18.8599 -0.511418,5.24764 -0.925985,9.5067 8.05512,11.015 4.70552,0.793701 7.85906,5.24292 7.04292,9.9378 -0.817323,4.69607 -5.2937,7.85906 -9.99922,7.06536 -24.802,-4.16575 -23.6906,-15.5599 -22.3229,-29.6008 0.390945,-4.0004 0.817323,-8.38229 -0.338977,-12.137 -1.10079,-3.57638 -4.63111,-5.03622 -7.8189,-6.35552 -8.96575,-3.70866 -16.839,-6.9626 -14.589,-22.8177 1.13504,-7.99489 1.62402,-13.5744 0.869292,-16.9228 -0.287008,-1.26969 -1.10906,-2.06221 -2.71418,-2.56772z"/>
  <path class="fil5" d="M1497.49 1277.32c-4.58741,-1.32874 -9.40394,1.3063 -10.7563,5.88544 -1.35236,4.57796 1.2685,9.36851 5.85591,10.6973 1.56851,0.458268 2.38937,1.23307 2.70473,2.50866 0.840946,3.39803 0.474804,8.97993 -0.488977,16.9606 -1.91693,15.8752 6.03071,18.9697 15.0839,22.4953 3.19725,1.24606 6.73819,2.62441 7.91103,6.17126 1.2189,3.68504 0.881103,8.10237 0.572835,12.1382 -1.07599,14.0681 -1.94882,25.4835 22.9748,29.139 4.73032,0.690945 9.1441,-2.57244 9.85867,-7.29095 0.713386,-4.71851 -2.54173,-9.10513 -7.27087,-9.79607 -8.97402,-1.31693 -8.64804,-5.58189 -8.24646,-10.8366 0.433465,-5.66221 0.908268,-11.863 -1.3937,-18.8209 -3.72048,-11.2441 -11.2618,-14.1815 -18.0756,-16.8354 -2.4189,-0.941339 -4.54252,-1.76929 -4.22481,-4.40079 1.20591,-9.98977 1.57323,-17.348 0.147638,-23.1106 -1.95118,-7.88505 -6.39804,-12.4961 -14.6528,-14.9043z"/>
  <path class="fil5" d="M1532.24 1272.69c1.42795,-4.56142 -1.1185,-9.39804 -5.68819,-10.8024 -4.56851,-1.40433 -9.43111,1.1563 -10.8602,5.71772 -2.57717,8.15079 -1.21063,14.3953 4.26615,20.4142 4.04055,4.44095 10.35,8.23347 19.2898,12.7736 2.34567,1.19055 1.84961,3.4252 1.28386,5.9693 -1.58268,7.11851 -3.33307,14.9976 3.93662,24.3402 4.47166,5.74607 9.91536,8.81812 14.8866,11.6232 4.59213,2.59134 8.31851,4.69489 4.40197,12.9165 -2.04921,4.30985 -0.21378,9.44528 4.10079,11.4697 4.31457,2.02441 9.47363,0.17126 11.5228,-4.13859 10.8142,-22.7055 0.843308,-28.3311 -11.4437,-35.2642 -3.50079,-1.9748 -7.33347,-4.13859 -9.74646,-7.23898 -2.29843,-2.95394 -1.46929,-6.68268 -0.720473,-10.0512 2.10473,-9.47127 3.95433,-17.7874 -10.3228,-25.0382 -7.20119,-3.65551 -12.0508,-6.45591 -14.361,-8.99528 -0.875198,-0.962599 -1.05354,-2.09055 -0.54567,-3.69567z"/>
  <path class="fil6" d="M1279.17 1323.05c5.93623,11.4036 19.9937,15.8362 31.3973,9.90001 11.4036,-5.93504 15.8362,-19.9937 9.90001,-31.3961l-400.712 -769.786 -15.5232 -48.9863c-8.19331,-15.7382 -27.5941,-21.8563 -43.3323,-13.663 -15.7382,8.19213 -21.8551,27.5929 -13.663,43.3311l31.2213 40.8154 400.712 769.785zm-406.851 -831.997c3.92008,-2.04095 8.75552,-0.516142 10.7965,3.40512 2.04095,3.92126 0.516142,8.75552 -3.40512,10.7965 -3.92008,2.04095 -8.75552,0.516142 -10.7965,-3.40394 -2.04095,-3.92126 -0.516142,-8.75552 3.40512,-10.7976z"/>
  <path class="fil7" d="M1108.12 1388.11l363.764 -189.357c17.7449,-9.23623 39.8185,-2.27599 49.0559,15.4677l25.1918 48.3957 -428.288 222.944 -25.1918 -48.3945c-9.23623,-17.7449 -2.27599,-39.8185 15.4677,-49.0559z"/>
  <rect class="fil8" transform="matrix(0.645252 -0.335885 0.571015 1.09695 1103.1 1467.09)" width="676.251" height="18.75"/>
  <path class="fil9" d="M777.873 960.494c80.8536,0 154.246,7.56969 207.539,19.8071 57.7311,13.2555 93.4406,33.541 93.4406,57.7111 0,24.1689 -35.7095,44.4544 -93.4406,57.7111 -53.2926,12.2374 -126.685,19.8071 -207.539,19.8071 -80.8524,0 -154.244,-7.56969 -207.536,-19.8071 -57.7323,-13.2567 -93.4418,-33.5422 -93.4418,-57.7111 0,-24.1701 35.7095,-44.4555 93.4418,-57.7111 53.2926,-12.2374 126.684,-19.8071 207.536,-19.8071zm202.679 41.0339c-51.6886,-11.8689 -123.333,-19.2106 -202.679,-19.2106 -79.3442,0 -150.988,7.34174 -202.677,19.2106 -47.25,10.8496 -76.4776,23.8701 -76.4776,36.4843 0,12.6142 29.2276,25.6347 76.4776,36.4843 51.6898,11.8689 123.333,19.2106 202.677,19.2106 79.3453,0 150.99,-7.34174 202.679,-19.2106 47.25,-10.8496 76.4776,-23.8701 76.4776,-36.4843 0,-12.6142 -29.2276,-25.6347 -76.4776,-36.4843z"/>
  <path class="fil10" d="M1082.99 1110.87c-1.52717,-3.49725 -6.05906,-4.52717 -9.41576,-3.24567 -3.11221,1.18937 -5.4567,4.47284 -4.00985,7.78583 2.56181,5.86536 4.53544,11.9681 5.87953,18.2256 1.30512,6.07914 1.96299,12.2728 1.96299,18.4902 0,52.0559 -44.6504,91.604 -86.4284,115.27 -62.7036,35.5193 -141.536,50.8158 -212.973,52.1256 -39.2055,0.719292 -78.841,-2.59488 -117.22,-10.7504 -32.9528,-7.00158 -65.9989,-17.7862 -95.8253,-33.5882 -42.1855,-22.3512 -86.5713,-60.3756 -86.5713,-112.289 0,-7.1315 0.83504,-14.2299 2.51929,-21.1583 1.75394,-7.22127 4.37126,-14.2063 7.65709,-20.8666 1.5626,-3.16654 -0.222047,-6.39804 -3.34843,-7.64882 -3.47953,-1.3937 -8.08465,-0.116929 -9.79843,3.3567 -3.66142,7.42087 -6.55867,15.2032 -8.51339,23.2477 -1.87441,7.71142 -2.90197,15.6071 -2.90197,23.5465 0,56.4461 46.9524,97.728 93.0887,122.173 30.8764,16.3583 65.0646,27.5823 99.1642,34.8957 39.7843,8.53347 80.8772,12.039 121.536,11.2937 74.113,-1.35827 155.737,-17.4673 220.768,-54.3059 45.7583,-25.9229 93.2327,-68.9776 93.2327,-125.779 0,-6.92835 -0.758268,-13.8284 -2.21339,-20.602 -1.48937,-6.9319 -3.75237,-13.6819 -6.58938,-20.1768z"/>
 </g>
</svg>
