<?xml version="1.0" encoding="UTF-8"?>
<!DOCTYPE svg PUBLIC "-//W3C//DTD SVG 1.1//EN" "http://www.w3.org/Graphics/SVG/1.1/DTD/svg11.dtd">
<!-- Creator: CorelDRAW -->
<svg xmlns="http://www.w3.org/2000/svg" xml:space="preserve" width="2048px" height="2048px" style="shape-rendering:geometricPrecision; text-rendering:geometricPrecision; image-rendering:optimizeQuality; fill-rule:evenodd; clip-rule:evenodd"
viewBox="0 0 2048 2048"
 xmlns:xlink="http://www.w3.org/1999/xlink">
 <defs>
  <style type="text/css">
   <![CDATA[
    .fil2 {fill:none}
    .fil1 {fill:#C0CA33}
    .fil0 {fill:#DCE775}
    .fil6 {fill:#00ACC1;fill-rule:nonzero}
    .fil4 {fill:#26C6DA;fill-rule:nonzero}
    .fil3 {fill:#523B34;fill-rule:nonzero}
    .fil5 {fill:#5D4037;fill-rule:nonzero}
    .fil8 {fill:#D83A08;fill-rule:nonzero}
    .fil7 {fill:#FF3D00;fill-rule:nonzero}
   ]]>
  </style>
   <clipPath id="id0">
    <path d="M1024 -0.0011811c565.539,0 1024,458.462 1024,1024 0,565.539 -458.462,1024 -1024,1024 -565.539,0 -1024,-458.462 -1024,-1024 0,-565.539 458.462,-1024 1024,-1024z"/>
   </clipPath>
 </defs>
 <g id="Layer_x0020_1">
  <metadata id="CorelCorpID_0Corel-Layer"/>
  <path class="fil0" d="M1024 -0.0011811c565.539,0 1024,458.462 1024,1024 0,565.539 -458.462,1024 -1024,1024 -565.539,0 -1024,-458.462 -1024,-1024 0,-565.539 458.462,-1024 1024,-1024z"/>
  <g style="clip-path:url(#id0)">
   <g id="_451241120">
    <g>
     <path id="_3337499521" class="fil1" d="M2219.11 1804.76l0 0zm-1135.88 -1135.88l0 0z"/>
     <polygon id="_333749592" class="fil1" points="1092.99,676.475 2228.87,1812.36 2228.94,1813.32 2228.9,1814.26 2228.77,1815.18 2228.54,1816.07 2228.22,1816.92 2227.81,1817.73 2227.33,1818.49 2226.77,1819.2 1090.89,683.32 1091.45,682.612 1091.93,681.849 1092.33,681.038 1092.65,680.184 1092.88,679.296 1093.02,678.377 1093.06,677.435 "/>
     <polygon id="_333751632" class="fil1" points="1282.18,740.582 2418.06,1876.46 2419.02,1877.62 2419.74,1878.96 2420.2,1880.43 2420.36,1882.01 1284.48,746.124 1284.32,744.545 1283.86,743.075 1283.14,741.742 "/>
     <polygon id="_333751128" class="fil1" points="1284.48,746.124 2420.36,1882.01 2420.35,1882.24 2420.35,1882.47 2420.33,1882.7 2420.31,1882.92 2420.28,1883.15 2420.24,1883.37 2420.2,1883.59 2420.15,1883.81 1284.27,747.927 1284.32,747.708 1284.36,747.488 1284.39,747.265 1284.42,747.041 1284.45,746.814 1284.46,746.586 1284.47,746.356 "/>
     <polygon id="_333750936" class="fil1" points="1090.9,671.804 2226.79,1807.69 2227.77,1809.06 2228.48,1810.63 2228.87,1812.36 1092.99,676.475 1092.6,674.747 1091.89,673.18 "/>
     <polygon id="_333751296" class="fil1" points="1090.89,683.32 2226.77,1819.2 2225.68,1820.66 2224.68,1822.16 2223.76,1823.7 2222.92,1825.27 2222.16,1826.87 2221.47,1828.51 2220.85,1830.18 2220.3,1831.88 2219.82,1833.61 2219.41,1835.38 2219.07,1837.17 2218.78,1839 2218.55,1840.85 2218.39,1842.73 2218.28,1844.63 2218.22,1846.56 1082.34,710.679 1082.4,708.748 1082.51,706.843 1082.67,704.965 1082.9,703.114 1083.18,701.291 1083.53,699.497 1083.94,697.732 1084.42,695.998 1084.97,694.296 1085.59,692.626 1086.28,690.988 1087.04,689.384 1087.88,687.814 1088.8,686.28 1089.8,684.782 "/>
     <polygon id="_333751416" class="fil1" points="1135.09,725.264 2270.97,1861.15 2271.7,1862.35 2272.39,1863.6 2273.05,1864.87 2273.69,1866.18 2274.29,1867.52 2274.87,1868.9 2275.41,1870.3 2275.93,1871.74 2276.41,1873.21 2276.86,1874.72 2277.28,1876.25 2277.66,1877.82 2278.01,1879.41 2278.33,1881.04 2278.61,1882.69 2278.86,1884.38 1142.97,748.496 1142.73,746.81 1142.45,745.155 1142.13,743.528 1141.78,741.934 1141.4,740.369 1140.98,738.834 1140.53,737.332 1140.04,735.86 1139.53,734.422 1138.99,733.015 1138.41,731.64 1137.81,730.299 1137.17,728.989 1136.51,727.713 1135.81,726.472 "/>
     <polygon id="_333751488" class="fil1" points="1142.97,748.496 2278.86,1884.38 2279.06,1886 2279.22,1887.64 2279.36,1889.29 2279.45,1890.94 2279.52,1892.6 2279.55,1894.27 2279.55,1895.94 2279.52,1897.63 2279.45,1899.31 2279.35,1901 2279.23,1902.69 2279.07,1904.38 2278.87,1906.08 2278.65,1907.78 2278.4,1909.47 2278.12,1911.17 2277.81,1912.86 2277.47,1914.56 2277.11,1916.25 2276.71,1917.94 2276.28,1919.62 2275.83,1921.3 2275.35,1922.97 2274.85,1924.63 2274.31,1926.29 2273.75,1927.94 2273.17,1929.59 2272.56,1931.22 2271.92,1932.84 2271.26,1934.46 2270.57,1936.06 2269.86,1937.64 1133.98,801.762 1134.69,800.174 1135.38,798.573 1136.04,796.961 1136.67,795.337 1137.29,793.705 1137.87,792.062 1138.43,790.411 1138.97,788.753 1139.47,787.086 1139.95,785.414 1140.4,783.735 1140.83,782.053 1141.22,780.366 1141.59,778.675 1141.93,776.982 1142.24,775.287 1142.52,773.591 1142.77,771.894 1142.99,770.196 1143.19,768.501 1143.34,766.808 1143.47,765.115 1143.57,763.427 1143.64,761.743 1143.67,760.062 1143.67,758.389 1143.64,756.72 1143.57,755.058 1143.47,753.405 1143.34,751.759 1143.18,750.122 "/>
     <polygon id="_333751056" class="fil1" points="1129.71,718.198 2265.59,1854.08 2266.57,1855.15 2267.51,1856.27 2268.42,1857.42 2269.3,1858.62 2270.15,1859.86 2270.97,1861.15 1135.09,725.264 1134.27,723.982 1133.42,722.741 1132.54,721.542 1131.63,720.384 1130.69,719.271 "/>
     <polygon id="_333751008" class="fil1" points="911.961,706.764 2047.84,1842.65 2045.86,1840.72 909.977,704.836 "/>
     <polygon id="_333751464" class="fil1" points="909.977,704.836 2045.86,1840.72 2045.85,1840.73 909.964,704.852 "/>
     <polygon id="_333751584" class="fil1" points="530.801,798.773 1666.68,1934.66 1668.2,1936.32 1669.55,1938.13 1670.73,1940.07 1671.72,1942.12 1672.51,1944.28 1673.09,1946.53 1673.44,1948.87 1673.56,1951.27 537.682,815.384 537.56,812.983 537.205,810.65 536.626,808.399 535.836,806.24 534.846,804.187 533.67,802.25 532.317,800.442 "/>
     <polygon id="_333752400" class="fil1" points="537.682,815.384 1673.56,1951.27 1674.58,1960.81 1675.52,1970.29 1676.39,1979.73 1677.2,1989.12 1677.94,1998.46 1678.62,2007.75 1679.23,2016.99 1679.77,2026.19 1680.26,2035.35 1680.68,2044.46 1681.04,2053.52 1681.35,2062.54 1681.59,2071.52 1681.78,2080.46 1681.91,2089.36 1681.98,2098.21 1682.01,2107.03 1681.97,2115.81 1681.89,2124.55 1681.75,2133.25 1681.57,2141.92 1681.33,2150.55 1681.05,2159.14 1680.72,2167.7 1680.34,2176.23 1679.92,2184.73 1679.46,2193.19 1678.95,2201.62 1678.4,2210.02 1677.81,2218.4 1677.18,2226.74 1676.51,2235.05 540.628,1099.17 541.297,1090.86 541.928,1082.51 542.519,1074.14 543.069,1065.74 543.577,1057.31 544.042,1048.84 544.463,1040.35 544.838,1031.82 545.169,1023.26 545.451,1014.66 545.686,1006.03 545.872,997.367 546.008,988.665 546.091,979.925 546.124,971.147 546.103,962.33 546.028,953.474 545.896,944.577 545.71,935.639 545.465,926.661 545.162,917.639 544.799,908.574 544.378,899.466 543.893,890.312 543.346,881.112 542.736,871.868 542.061,862.575 541.321,853.235 540.513,843.847 539.639,834.409 538.695,824.923 "/>
     <polygon id="_333752208" class="fil1" points="874.775,968.083 2010.66,2103.97 1812.14,2103.97 676.262,968.083 "/>
     <polygon id="_333751728" class="fil1" points="935.181,891.929 2071.06,2027.81 2070.75,2027.53 2070.45,2027.24 934.566,891.356 934.867,891.65 "/>
     <polygon id="_333752136" class="fil1" points="676.262,995.472 1812.14,2131.35 1812.06,2140.65 1811.83,2148.93 1811.45,2156.25 1810.94,2162.64 1810.3,2168.15 1809.55,2172.81 1808.7,2176.67 1807.76,2179.77 1806.73,2182.14 1805.64,2183.83 1804.48,2184.89 1803.26,2185.34 1802.01,2185.23 1800.73,2184.61 1799.43,2183.51 663.546,1047.62 664.85,1048.73 666.133,1049.35 667.384,1049.46 668.595,1049 669.754,1047.95 670.852,1046.26 671.878,1043.89 672.821,1040.79 673.673,1036.93 674.421,1032.27 675.056,1026.76 675.569,1020.37 675.947,1013.05 676.182,1004.77 "/>
     <polygon id="_333752112" class="fil1" points="702.127,1120.78 1838.01,2256.66 1838.01,2491.59 702.127,1355.7 "/>
     <polygon id="_333751656" class="fil1" points="898.268,1379.2 2034.15,2515.08 2031.75,2514.96 2029.41,2514.6 2027.16,2514.02 2025.01,2513.23 2022.95,2512.24 2021.01,2511.07 2019.21,2509.71 2017.54,2508.2 881.656,1372.32 883.325,1373.83 885.133,1375.18 887.07,1376.36 889.124,1377.35 891.282,1378.14 893.533,1378.72 895.866,1379.08 "/>
     <polygon id="_333751800" class="fil1" points="676.262,968.083 1812.14,2103.97 1812.14,2131.35 676.262,995.472 "/>
     <polygon id="_333752352" class="fil1" points="1122.08,1238.24 2257.96,2374.13 2057.64,2374.13 921.76,1238.24 "/>
     <polygon id="_333752304" class="fil1" points="695.246,1104.17 1831.13,2240.05 1832.64,2241.72 1834,2243.53 1835.17,2245.47 1836.16,2247.52 1836.95,2249.68 1837.53,2251.93 1837.89,2254.26 1838.01,2256.66 702.127,1120.78 702.005,1118.38 701.65,1116.05 701.071,1113.8 700.281,1111.64 699.291,1109.58 698.115,1107.65 696.762,1105.84 "/>
     <polygon id="_333752256" class="fil1" points="1104.53,839.344 2240.41,1975.23 2240.24,1976.98 2240.03,1978.72 2239.8,1980.47 2239.52,1982.2 2239.21,1983.93 2238.87,1985.65 2238.48,1987.37 2238.06,1989.08 2237.6,1990.78 2237.1,1992.47 2236.55,1994.16 2235.97,1995.84 2235.34,1997.51 2234.67,1999.18 2233.96,2000.83 2233.2,2002.48 2232.39,2004.12 2231.54,2005.75 2230.64,2007.37 2229.7,2008.99 2228.7,2010.59 2227.65,2012.18 2226.55,2013.77 2225.41,2015.34 2224.2,2016.9 2222.95,2018.46 2221.64,2020 2220.28,2021.53 2218.86,2023.05 2217.38,2024.56 2215.85,2026.06 2214.26,2027.55 1078.38,891.668 1079.97,890.181 1081.5,888.682 1082.98,887.172 1084.4,885.65 1085.76,884.118 1087.07,882.576 1088.32,881.022 1089.52,879.458 1090.67,877.885 1091.77,876.301 1092.82,874.706 1093.81,873.103 1094.76,871.491 1095.66,869.87 1096.51,868.238 1097.32,866.599 1098.08,864.951 1098.79,863.296 1099.46,861.63 1100.09,859.958 1100.67,858.278 1101.22,856.59 1101.72,854.896 1102.18,853.194 1102.6,851.485 1102.99,849.768 1103.33,848.046 1103.64,846.318 1103.92,844.583 1104.15,842.842 1104.36,841.096 "/>
     <path id="_333751920" class="fil1" d="M2293.09 1883.54l0 0zm-1135.88 -1135.88l0 0z"/>
     <polygon id="_333752688" class="fil1" points="1284.27,747.927 2420.15,1883.81 2392.27,2023.57 1256.39,887.689 "/>
     <polygon id="_333752712" class="fil1" points="1388.76,898.81 2524.64,2034.69 2526.16,2036.36 2527.51,2038.17 2528.68,2040.11 2529.67,2042.16 2530.46,2044.32 2531.04,2046.57 2531.4,2048.9 2531.52,2051.3 1395.64,915.421 1395.52,913.02 1395.16,910.687 1394.58,908.436 1393.79,906.277 1392.8,904.224 1391.63,902.287 1390.27,900.479 "/>
     <polygon id="_333752544" class="fil1" points="1395.64,915.421 2531.52,2051.3 2531.52,2054.44 1395.64,918.555 "/>
     <polygon id="_333752496" class="fil1" points="1395.64,918.555 2531.52,2054.44 2531.52,2131.35 1395.64,995.472 "/>
     <polygon id="_333752904" class="fil1" points="1256.39,887.689 2392.27,2023.57 2392.12,2024.2 2391.92,2024.8 2391.68,2025.37 2391.39,2025.92 2391.07,2026.44 2390.71,2026.93 2390.31,2027.39 2389.88,2027.81 1254,891.929 1254.43,891.505 1254.83,891.047 1255.19,890.558 1255.51,890.038 1255.8,889.49 1256.04,888.915 1256.24,888.314 "/>
     <polygon id="_333752928" class="fil1" points="1133.98,801.762 2269.86,1937.64 2268.53,1940.45 2267.12,1943.22 2265.64,1945.94 2264.08,1948.61 2262.45,1951.22 2260.76,1953.78 2258.99,1956.27 2257.17,1958.7 2255.27,1961.06 2253.32,1963.34 2251.31,1965.54 2249.23,1967.66 2247.11,1969.7 2244.93,1971.64 2242.69,1973.48 2240.41,1975.23 1104.53,839.344 1106.81,837.599 1109.04,835.755 1111.23,833.813 1113.35,831.781 1115.42,829.661 1117.44,827.459 1119.39,825.177 1121.28,822.819 1123.11,820.392 1124.88,817.897 1126.57,815.34 1128.2,812.724 1129.75,810.055 1131.24,807.335 1132.65,804.57 "/>
     <polygon id="_333753360" class="fil1" points="1187.53,891.929 2323.41,2027.81 2322.95,2027.36 1187.07,891.478 "/>
     <polygon id="_333753552" class="fil1" points="1367.01,968.083 2502.89,2103.97 2304.95,2103.97 1169.07,968.083 "/>
     <polygon id="_333753792" class="fil1" points="1078.38,891.668 2214.26,2027.55 2214.29,2027.58 1078.41,891.7 "/>
     <polygon id="_333753672" class="fil1" points="1078.41,891.7 2214.29,2027.58 2214.25,2027.61 2214.22,2027.64 2214.19,2027.67 2214.16,2027.7 2214.12,2027.73 2214.09,2027.75 2214.06,2027.78 2214.03,2027.81 1078.14,891.929 1078.18,891.901 1078.21,891.872 1078.24,891.844 1078.28,891.816 1078.31,891.787 1078.34,891.758 1078.37,891.729 "/>
     <polygon id="_333753432" class="fil1" points="1169.07,968.083 2304.95,2103.97 2304.95,2491.59 1169.07,1355.7 "/>
     <polygon id="_333753600" class="fil1" points="1395.64,995.472 2531.52,2131.35 2531.44,2133.6 2531.2,2136.1 2530.81,2138.82 2530.29,2141.71 2529.64,2144.75 2528.88,2147.88 2528.01,2151.08 2527.05,2154.29 2526,2157.47 2524.88,2160.59 2523.7,2163.61 2522.46,2166.48 2521.18,2169.17 2519.87,2171.63 2518.54,2173.82 2517.2,2175.71 2515.86,2177.26 2514.53,2178.41 2513.22,2179.14 2511.95,2179.4 2510.71,2179.15 2509.53,2178.36 1373.65,1042.48 1374.83,1043.27 1376.07,1043.52 1377.34,1043.26 1378.65,1042.53 1379.98,1041.37 1381.32,1039.83 1382.66,1037.94 1383.99,1035.74 1385.3,1033.28 1386.58,1030.6 1387.82,1027.72 1389,1024.71 1390.12,1021.59 1391.16,1018.4 1392.13,1015.19 1393,1012 1393.76,1008.87 1394.41,1005.83 1394.93,1002.93 1395.32,1000.21 1395.56,997.713 "/>
     <polygon id="_333753312" class="fil1" points="921.76,1355.7 2057.64,2491.59 2057.52,2493.99 2057.16,2496.32 2056.59,2498.57 2055.8,2500.73 2054.81,2502.78 2053.63,2504.72 2052.28,2506.53 2050.76,2508.2 2049.09,2509.71 2047.28,2511.07 2045.35,2512.24 2043.29,2513.23 2041.14,2514.02 2038.88,2514.6 2036.55,2514.96 2034.15,2515.08 898.268,1379.2 900.67,1379.08 903.003,1378.72 905.254,1378.14 907.412,1377.35 909.466,1376.36 911.403,1375.18 913.211,1373.83 914.879,1372.32 916.396,1370.65 917.748,1368.84 918.924,1366.9 919.914,1364.85 920.704,1362.69 921.283,1360.44 921.639,1358.11 "/>
     <polygon id="_333753624" class="fil1" points="655.141,1318.38 1791.02,2454.26 1651.43,2454.26 515.552,1318.38 "/>
     <polygon id="_333753720" class="fil1" points="678.635,1379.2 1814.52,2515.08 1812.11,2514.96 1809.78,2514.6 1807.53,2514.02 1805.37,2513.23 1803.32,2512.24 1801.38,2511.07 1799.57,2509.71 663.691,1373.83 665.5,1375.18 667.437,1376.36 669.491,1377.35 671.649,1378.14 673.9,1378.72 676.232,1379.08 "/>
     <polygon id="_333753768" class="fil1" points="702.127,1355.7 1838.01,2491.59 1837.89,2493.99 1837.53,2496.32 1836.95,2498.57 1836.16,2500.73 1835.17,2502.78 1834,2504.72 1832.64,2506.53 1831.13,2508.2 1829.46,2509.71 1827.65,2511.07 1825.71,2512.24 1823.66,2513.23 1821.5,2514.02 1819.25,2514.6 1816.92,2514.96 1814.52,2515.08 678.635,1379.2 681.036,1379.08 683.369,1378.72 685.62,1378.14 687.779,1377.35 689.832,1376.36 691.769,1375.18 693.577,1373.83 695.246,1372.32 696.762,1370.65 698.115,1368.84 699.291,1366.9 700.281,1364.85 701.071,1362.69 701.65,1360.44 702.005,1358.11 "/>
     <polygon id="_333753216" class="fil1" points="515.552,1318.38 1651.43,2454.26 1646.66,2494.34 510.782,1358.46 "/>
     <polygon id="_333754704" class="fil1" points="510.782,1358.46 1646.66,2494.34 1646.26,2496.71 1645.63,2498.98 1644.8,2501.15 1643.76,2503.19 1642.54,2505.12 1641.14,2506.9 1639.59,2508.54 1637.89,2510.01 1636.06,2511.32 1634.1,2512.45 1632.04,2513.39 1629.89,2514.13 1627.66,2514.67 1625.36,2514.98 1623,2515.06 1620.6,2514.89 484.72,1379.01 487.118,1379.17 489.474,1379.09 491.775,1378.78 494.009,1378.25 496.163,1377.51 498.222,1376.57 500.176,1375.44 502.008,1374.13 503.709,1372.65 505.262,1371.02 506.657,1369.23 507.879,1367.31 508.916,1365.26 509.754,1363.1 510.381,1360.83 "/>
     <polygon id="_333754200" class="fil1" points="484.72,1379.01 1620.6,2514.89 1618.23,2514.49 1615.96,2513.87 1613.79,2513.03 1611.75,2511.99 1609.82,2510.77 1608.04,2509.37 472.158,1373.49 473.942,1374.89 475.864,1376.11 477.912,1377.15 480.078,1377.98 482.351,1378.61 "/>
     <polygon id="_333754584" class="fil1" points="1169.07,1355.7 2304.95,2491.59 2304.83,2493.99 2304.47,2496.32 2303.89,2498.57 2303.1,2500.73 2302.11,2502.78 2300.94,2504.72 2299.58,2506.53 2298.07,2508.2 2296.4,2509.71 2294.59,2511.07 2292.65,2512.24 2290.6,2513.23 2288.44,2514.02 2286.19,2514.6 2283.86,2514.96 2281.46,2515.08 1145.57,1379.2 1147.98,1379.08 1150.31,1378.72 1152.56,1378.14 1154.72,1377.35 1156.77,1376.36 1158.71,1375.18 1160.52,1373.83 1162.19,1372.32 1163.7,1370.65 1165.05,1368.84 1166.23,1366.9 1167.22,1364.85 1168.01,1362.69 1168.59,1360.44 1168.94,1358.11 "/>
     <polygon id="_333754176" class="fil1" points="1145.57,1379.2 2281.46,2515.08 2279.05,2514.96 2276.72,2514.6 2274.47,2514.02 2272.31,2513.23 2270.26,2512.24 2268.32,2511.07 2266.51,2509.71 2264.84,2508.2 1128.96,1372.32 1130.63,1373.83 1132.44,1375.18 1134.38,1376.36 1136.43,1377.35 1138.59,1378.14 1140.84,1378.72 1143.17,1379.08 "/>
     <polygon id="_333754368" class="fil1" points="921.76,1238.24 2057.64,2374.13 2057.64,2491.59 921.76,1355.7 "/>
     <polygon id="_333754632" class="fil1" points="1557.3,815.384 2693.18,1951.27 2691.64,1962.78 2690.22,1974.17 2688.91,1985.43 2687.71,1996.57 2686.63,2007.58 2685.66,2018.47 2684.8,2029.25 2684.04,2039.9 2683.39,2050.45 2682.85,2060.87 2682.4,2071.19 2682.05,2081.4 2681.8,2091.5 2681.65,2101.5 2681.59,2111.39 2681.63,2121.19 2681.75,2130.88 2681.96,2140.48 2682.26,2149.99 2682.65,2159.4 2683.11,2168.72 2683.66,2177.95 2684.29,2187.09 2684.99,2196.16 2685.77,2205.14 2686.62,2214.03 2687.55,2222.85 2688.54,2231.6 2689.61,2240.26 2690.74,2248.86 2691.93,2257.39 2693.18,2265.85 1557.3,1129.96 1556.05,1121.51 1554.85,1112.98 1553.73,1104.38 1552.66,1095.71 1551.67,1086.97 1550.74,1078.15 1549.89,1069.25 1549.11,1060.27 1548.41,1051.21 1547.78,1042.07 1547.23,1032.84 1546.77,1023.51 1546.38,1014.1 1546.08,1004.6 1545.87,995.002 1545.75,985.306 1545.71,975.512 1545.77,965.618 1545.92,955.62 1546.17,945.518 1546.52,935.31 1546.96,924.992 1547.51,914.564 1548.16,904.021 1548.92,893.365 1549.78,882.592 1550.75,871.7 1551.83,860.686 1553.03,849.551 1554.34,838.289 1555.76,826.901 "/>
     <polygon id="_333754224" class="fil1" points="1557.3,1129.96 2693.18,2265.85 2719.72,2488.83 1583.84,1352.95 "/>
     <polygon id="_333754272" class="fil1" points="1532.43,1318.23 2668.31,2454.12 2668.1,2454.15 2667.89,2454.18 2667.68,2454.2 2667.46,2454.22 2667.25,2454.24 2667.03,2454.25 2666.81,2454.26 2666.59,2454.26 1530.71,1318.38 1530.93,1318.38 1531.15,1318.37 1531.36,1318.36 1531.58,1318.34 1531.8,1318.32 1532.01,1318.3 1532.22,1318.27 "/>
     <polygon id="_333753960" class="fil1" points="1530.71,1318.38 2666.59,2454.26 2528.74,2454.26 1392.86,1318.38 "/>
     <polygon id="_333754080" class="fil1" points="1583.84,1352.95 2719.72,2488.83 2719.88,2491.23 2719.8,2493.59 2719.49,2495.89 2718.96,2498.12 2718.22,2500.28 2717.28,2502.33 2716.15,2504.29 2714.84,2506.12 2713.36,2507.82 2711.72,2509.37 2709.94,2510.77 2708.02,2511.99 2705.97,2513.03 2703.8,2513.87 2701.53,2514.49 2699.16,2514.89 1563.28,1379.01 1565.65,1378.61 1567.92,1377.98 1570.09,1377.15 1572.14,1376.11 1574.06,1374.89 1575.84,1373.49 1577.48,1371.94 1578.96,1370.24 1580.26,1368.41 1581.39,1366.45 1582.33,1364.39 1583.08,1362.24 1583.61,1360 1583.92,1357.7 1584,1355.35 "/>
     <polygon id="_333755256" class="fil1" points="1563.28,1379.01 2699.16,2514.89 2696.76,2515.06 2694.41,2514.98 2692.11,2514.67 2689.87,2514.13 2687.72,2513.39 2685.66,2512.45 2683.71,2511.32 2681.87,2510.01 2680.17,2508.54 1544.29,1372.65 1545.99,1374.13 1547.82,1375.44 1549.78,1376.57 1551.84,1377.51 1553.99,1378.25 1556.23,1378.78 1558.53,1379.09 1560.88,1379.17 "/>
     <polygon id="_333754848" class="fil1" points="1392.86,1318.38 2528.74,2454.26 2528.74,2491.59 1392.86,1355.7 "/>
     <polygon id="_333754728" class="fil1" points="1392.86,1355.7 2528.74,2491.59 2528.62,2493.99 2528.26,2496.32 2527.68,2498.57 2526.89,2500.73 2525.9,2502.78 2524.73,2504.72 2523.38,2506.53 2521.86,2508.2 2520.19,2509.71 2518.38,2511.07 2516.44,2512.24 2514.39,2513.23 2512.23,2514.02 2509.98,2514.6 2507.65,2514.96 2505.25,2515.08 1369.37,1379.2 1371.77,1379.08 1374.1,1378.72 1376.35,1378.14 1378.51,1377.35 1380.56,1376.36 1382.5,1375.18 1384.31,1373.83 1385.98,1372.32 1387.49,1370.65 1388.85,1368.84 1390.02,1366.9 1391.01,1364.85 1391.8,1362.69 1392.38,1360.44 1392.74,1358.11 "/>
     <polygon id="_333755352" class="fil1" points="1369.37,1379.2 2505.25,2515.08 2502.85,2514.96 2500.51,2514.6 2498.26,2514.02 2496.1,2513.23 2494.05,2512.24 2492.11,2511.07 2490.3,2509.71 2488.64,2508.2 1352.75,1372.32 1354.42,1373.83 1356.23,1375.18 1358.17,1376.36 1360.22,1377.35 1362.38,1378.14 1364.63,1378.72 1366.96,1379.08 "/>
     <polygon id="_333755232" class="fil1" points="1551.94,800.442 2687.82,1936.32 2689.17,1938.13 2690.35,1940.07 2691.34,1942.12 2692.13,1944.28 2692.71,1946.53 2693.06,1948.87 2693.18,1951.27 1557.3,815.384 1557.18,812.983 1556.83,810.65 1556.25,808.399 1555.46,806.24 1554.47,804.187 1553.29,802.25 "/>
    </g>
    <path id="_451241504" class="fil1" d="M1083.23 668.875l0 0zm73.976 78.782l0 0zm7.7941 -9.36969l111.64 0c4.32756,0 7.83662,3.50906 7.83662,7.83662 0,0.620079 -0.0720473,1.22362 -0.207874,1.80236l-27.8823 139.762c-0.337796,1.69606 -1.2,3.15473 -2.38465,4.24016l118.143 0c12.9744,0 23.4933,10.5189 23.4933,23.4921l0 3.13347 0 76.917c0,22.3866 -28.6323,95.9032 -28.6323,0l0 -27.3886 -197.94 0 0 387.62c0,12.9744 -10.5177,23.4933 -23.4921,23.4933 -12.9744,0 -23.4933,-10.5189 -23.4933,-23.4933l0 -117.461 -200.321 0 0 117.461c0,12.9744 -10.5177,23.4933 -23.4921,23.4933 -12.9744,0 -23.4933,-10.5189 -23.4933,-23.4933l0 -387.62 -198.513 0 0 27.3886c0,104.652 -28.0583,30.3225 -28.0583,0l0 -76.917 0 -3.13347c0,-12.9732 10.5177,-23.4921 23.4921,-23.4921l263.485 0c-0.8563,-0.724016 -1.57205,-1.60984 -2.1,-2.61024 -32.1898,-55.3678 -21.6851,-92.0375 -13.0087,-122.319 6.57402,-22.9394 11.902,-41.5382 -10.0949,-62.1638l-0.0129921 0.0153543c-3.52559,-3.30473 -3.70512,-8.84174 -0.401575,-12.3662 1.50709,-1.6063 3.47362,-2.51693 5.50512,-2.72008l168.162 -20.8937c4.7941,-0.596457 9.16418,2.80866 9.76064,7.60276 0.320079,2.57835 -0.517323,5.03386 -2.10473,6.84567 -6.00119,7.69607 -8.3882,16.9937 -8.54528,27.3591 4.74095,-2.16024 9.43702,-3.52559 13.9973,-4.13859 7.98071,-1.07362 15.5126,0.116929 22.1764,3.3567 6.62953,3.22323 12.2965,8.4189 16.5791,15.3662 3.91418,6.35197 6.6626,14.1638 7.8815,23.2323 2.32677,17.2973 -1.28268,36.3898 -8.99764,53.2666 -6.89174,15.0768 -17.1402,28.5484 -29.4496,37.5815 -1.64055,18.7169 -8.86772,36.5221 -26.1484,52.3241l0.0259843 0.0318898c-0.0862205,0.0779528 -0.172441,0.154725 -0.261024,0.229134l109.383 0c-1.25669,-1.15394 -2.13425,-2.71181 -2.42835,-4.46811l-27.8965 -139.804c-0.844489,-4.2437 1.90984,-8.37284 6.15237,-9.21851 0.552756,-0.109843 1.10433,-0.159449 1.64528,-0.151181zm-462.873 382.494l0 234.921c0,12.9744 -10.5189,23.4933 -23.4921,23.4933 -12.9744,0 -23.4933,-10.5189 -23.4933,-23.4933l0 -37.3252 -139.59 0 -4.7693 40.0784c-1.52008,12.8728 -13.1894,22.076 -26.0622,20.5559 -12.8728,-1.52008 -22.076,-13.1894 -20.5559,-26.0622l26.5323 -222.986c13.7221,-89.8619 17.0965,-191.033 0,-314.58 0,-12.9732 10.5189,-23.4921 23.4933,-23.4921 12.9744,0 23.4921,10.5189 23.4921,23.4921 11.1827,102.013 10.291,195.247 2.94567,283.786 47.4922,4.62402 90.2847,1.99488 138.007,-1.8815 12.9732,0 23.4921,10.5189 23.4921,23.4933zm855.177 -305.398c-17.0965,123.547 -13.7221,224.718 0,314.58l26.5323 222.986c1.52008,12.8728 -7.68308,24.5421 -20.5559,26.0622 -12.8728,1.52008 -24.5421,-7.68308 -26.0622,-20.5559l-4.78583 -40.2237c-0.561024,0.0956694 -1.13622,0.145276 -1.72441,0.145276l-137.849 0 0 37.3252c0,12.9744 -10.5189,23.4933 -23.4933,23.4933 -12.9732,0 -23.4921,-10.5189 -23.4921,-23.4933l0 -234.921c0,-12.9744 10.5189,-23.4933 23.4921,-23.4933 47.7225,3.87638 90.515,6.50552 138.007,1.8815 -7.34528,-88.539 -8.23701,-181.773 2.94567,-283.786 0,-12.9732 10.5177,-23.4921 23.4921,-23.4921 12.9744,0 23.4933,10.5189 23.4933,23.4921z"/>
   </g>
  </g>
  <path class="fil2" d="M1024 -0.0011811c565.539,0 1024,458.462 1024,1024 0,565.539 -458.462,1024 -1024,1024 -565.539,0 -1024,-458.462 -1024,-1024 0,-565.539 458.462,-1024 1024,-1024z"/>
  <path class="fil3" d="M513.688 1298.05c-5.61378,0 -10.1646,4.55197 -10.1646,10.1646 0,5.61378 4.55079,10.1646 10.1646,10.1646l145.24 0c5.6126,0 10.1634,-4.55079 10.1634,-10.1646 0,-5.6126 -4.55079,-10.1646 -10.1634,-10.1646l-145.24 0z"/>
  <path class="fil3" d="M1385.47 1298.05c-5.61378,0 -10.1646,4.55197 -10.1646,10.1646 0,5.61378 4.55079,10.1646 10.1646,10.1646l145.24 0c5.6126,0 10.1646,-4.55079 10.1646,-10.1646 0,-5.6126 -4.55197,-10.1646 -10.1646,-10.1646l-145.24 0z"/>
  <path class="fil3" d="M916.207 1191.26c-12.9732,0 -23.4921,10.5189 -23.4921,23.4933 0,12.9732 10.5189,23.4921 23.4921,23.4921l211.429 0c12.9744,0 23.4933,-10.5189 23.4933,-23.4921 0,-12.9744 -10.5189,-23.4933 -23.4933,-23.4933l-211.429 0z"/>
  <path class="fil3" d="M524.131 1097.29c-12.9744,0 -23.4933,10.5189 -23.4933,23.4933 0,12.9744 10.5189,64.7871 23.4933,64.7871l131.01 0 0 170.134c0,12.9744 10.5189,23.4933 23.4933,23.4933 12.9732,0 23.4921,-10.5189 23.4921,-23.4933l0 -234.921c0,-12.9744 -10.5189,-23.4933 -23.4921,-23.4933 -53.1815,4.31929 -100.24,7.09134 -154.504,0z"/>
  <path class="fil3" d="M1523.87 1097.29c12.9744,0 23.4933,10.5189 23.4933,23.4933 0,12.9744 -10.5189,64.7871 -23.4933,64.7871l-131.01 0 0 170.134c0,12.9744 -10.5189,23.4933 -23.4933,23.4933 -12.9732,0 -23.4921,-10.5189 -23.4921,-23.4933l0 -234.921c0,-12.9744 10.5189,-23.4933 23.4921,-23.4933 53.1815,4.31929 100.24,7.09134 154.504,0z"/>
  <path class="fil4" d="M1075.45 714.368c-4.09489,2.52874 -5.36457,7.9004 -2.83583,11.9965 2.52874,4.09489 7.9004,5.36457 11.9965,2.83583 4.89449,-3.01654 9.63898,-4.7752 14.0504,-5.36811 4.48819,-0.602363 8.65394,0.0318898 12.2658,1.78701 3.64252,1.77047 6.8315,4.74804 9.33308,8.80512 2.64567,4.29567 4.53426,9.79725 5.42245,16.3961 1.8815,13.9866 -1.14567,29.6634 -7.56142,43.6961 -6.38623,13.9689 -16.0311,26.1213 -27.4217,33.1429 -4.09607,2.52874 -5.36575,7.9004 -2.83701,11.9965 2.52874,4.09489 7.9004,5.36457 11.9965,2.83583 14.3858,-8.86654 26.3717,-23.7851 34.1173,-40.7292 7.71497,-16.8768 11.3256,-35.9693 8.99764,-53.2666 -1.2189,-9.06851 -3.96614,-16.8803 -7.8815,-23.2323 -4.28268,-6.94725 -9.9508,-12.1429 -16.5791,-15.3662 -6.6626,-3.23859 -14.1957,-4.43032 -22.1764,-3.3567 -6.76182,0.90945 -13.8225,3.47362 -20.8866,7.82717z"/>
  <path class="fil5" d="M537.682 815.384c0,-12.9732 -10.5177,-23.4921 -23.4921,-23.4921 -12.9744,0 -23.4933,10.5189 -23.4933,23.4921 17.0965,123.547 13.7221,224.718 0,314.58l-26.5323 222.986c-1.52008,12.8728 7.68308,24.5421 20.5559,26.0622 12.8728,1.52008 24.5421,-7.68308 26.0622,-20.5559l26.589 -223.464c0.20315,-1.24252 0.31063,-2.52047 0.31063,-3.82205 9.89765,-98.0635 12.5386,-201.406 0,-315.787z"/>
  <path class="fil5" d="M1510.32 815.384c0,-12.9732 10.5177,-23.4921 23.4921,-23.4921 12.9744,0 23.4933,10.5189 23.4933,23.4921 -17.0965,123.547 -13.7221,224.718 0,314.58l26.5323 222.986c1.52008,12.8728 -7.68308,24.5421 -20.5559,26.0622 -12.8728,1.52008 -24.5421,-7.68308 -26.0622,-20.5559l-26.589 -223.464c-0.20315,-1.24252 -0.31063,-2.52047 -0.31063,-3.82205 -9.89765,-98.0635 -12.5386,-201.406 0,-315.787z"/>
  <path class="fil5" d="M921.76 935.434c0,-12.9744 -10.5177,-23.4933 -23.4921,-23.4933 -12.9744,0 -23.4933,10.5189 -23.4933,23.4933l0 420.27c0,12.9744 10.5189,23.4933 23.4933,23.4933 12.9744,0 23.4921,-10.5189 23.4921,-23.4933l0 -420.27z"/>
  <path class="fil5" d="M1169.07 935.434c0,-12.9744 -10.5177,-23.4933 -23.4921,-23.4933 -12.9744,0 -23.4933,10.5189 -23.4933,23.4933l0 420.27c0,12.9744 10.5189,23.4933 23.4933,23.4933 12.9744,0 23.4921,-10.5189 23.4921,-23.4933l0 -420.27z"/>
  <path class="fil4" d="M1165 738.288l111.64 0c4.32756,0 7.83662,3.50906 7.83662,7.83662 0,0.620079 -0.0720473,1.22362 -0.207874,1.80236l-27.8847 139.76 -7.68308 -1.52953 7.68544 1.53189c-0.752363,3.77953 -4.11024,6.37796 -7.83426,6.30355l-55.7268 0c-3.88347,0 -7.1067,-2.8252 -7.72678,-6.5315l-27.8929 -139.804 -0.00354331 0c-0.844489,-4.2437 1.90984,-8.37284 6.15237,-9.21851 0.552756,-0.109843 1.10433,-0.159449 1.64528,-0.151181z"/>
  <path class="fil6" d="M1266.33 811.387l-15.4158 77.269 -6.50315 -1.29567 6.50434 1.29685c-0.636615,3.19961 -3.47835,5.39882 -6.62953,5.33504l-47.1638 0c-3.28701,0 -6.01418,-2.39055 -6.53977,-5.52756l-15.378 -77.0776 91.1257 0z"/>
  <path class="fil4" d="M915.068 689.765l168.162 -20.8902 0 -0.00354331c4.7941,-0.596457 9.16418,2.80866 9.76064,7.60276 0.320079,2.57835 -0.517323,5.03386 -2.10473,6.84567 -15.4051,19.7563 -6.99686,50.0717 1.82835,81.8859 12.1902,43.9441 25.0855,90.4158 -14.3351,126.462l-5.87835 -6.42402 5.90434 6.45591c-1.67835,1.53425 -3.79488,2.29252 -5.90434,2.29134l0 0.0011811 -131.676 0c-3.36142,0 -6.27638,-1.89449 -7.74331,-4.67363 -32.1898,-55.3678 -21.6851,-92.0375 -13.0087,-122.319 6.57402,-22.9394 11.902,-41.5382 -10.0949,-62.1638l-0.0129921 0.0153543c-3.52559,-3.30473 -3.70512,-8.84174 -0.401575,-12.3662 1.50709,-1.6063 3.47362,-2.51693 5.50512,-2.72008z"/>
  <path class="fil6" d="M1086.74 775.268c10.7303,38.8902 20.4201,79.5272 -14.3351,111.307l-5.37874 -5.87835 5.40237 5.90788c-1.53662,1.40433 -3.47126,2.09764 -5.40237,2.09646l0 0.0011811 -120.478 0c-3.07559,0 -5.74371,-1.73386 -7.08426,-4.27677 -25.0134,-43.0229 -21.8504,-73.7067 -15.4665,-98.9493 60.7855,5.45788 104.258,-13.6181 162.743,-10.2083z"/>
  <path class="fil7" d="M648.204 995.472c0,30.3225 28.0583,104.652 28.0583,0l0 -27.3886 690.745 0 0 27.3886c0,95.9032 28.6323,22.3866 28.6323,0l0 -80.0505c0,-12.9732 -10.5189,-23.4921 -23.4933,-23.4921l-700.45 0c-12.9744,0 -23.4921,10.5189 -23.4921,23.4921l0 80.0505z"/>
  <path class="fil8" d="M1395.64 918.555l0 -3.13347c0,-12.9732 -10.5189,-23.4921 -23.4933,-23.4921l-700.45 0c-12.9744,0 -23.4921,10.5189 -23.4921,23.4921l0 3.13347 747.435 0z"/>
 </g>
</svg>
