<?xml version="1.0" encoding="UTF-8"?>
<!DOCTYPE svg PUBLIC "-//W3C//DTD SVG 1.1//EN" "http://www.w3.org/Graphics/SVG/1.1/DTD/svg11.dtd">
<!-- Creator: CorelDRAW -->
<svg xmlns="http://www.w3.org/2000/svg" xml:space="preserve" width="2048px" height="2048px" style="shape-rendering:geometricPrecision; text-rendering:geometricPrecision; image-rendering:optimizeQuality; fill-rule:evenodd; clip-rule:evenodd"
viewBox="0 0 2048 2048"
 xmlns:xlink="http://www.w3.org/1999/xlink">
 <defs>
  <style type="text/css">
   <![CDATA[
    .fil2 {fill:none}
    .fil7 {fill:#424242}
    .fil6 {fill:#616161}
    .fil1 {fill:#8E24AA}
    .fil0 {fill:#AB47BC}
    .fil5 {fill:#9E9D24;fill-rule:nonzero}
    .fil4 {fill:#AFB42B;fill-rule:nonzero}
    .fil3 {fill:#B9C153;fill-rule:nonzero}
   ]]>
  </style>
   <clipPath id="id0">
    <path d="M1024 -0.0011811c565.539,0 1024,458.462 1024,1024 0,565.539 -458.462,1024 -1024,1024 -565.539,0 -1024,-458.462 -1024,-1024 0,-565.539 458.462,-1024 1024,-1024z"/>
   </clipPath>
 </defs>
 <g id="Layer_x0020_1">
  <metadata id="CorelCorpID_0Corel-Layer"/>
  <path class="fil0" d="M1024 -0.0011811c565.539,0 1024,458.462 1024,1024 0,565.539 -458.462,1024 -1024,1024 -565.539,0 -1024,-458.462 -1024,-1024 0,-565.539 458.462,-1024 1024,-1024z"/>
  <g style="clip-path:url(#id0)">
   <g id="_451254536">
    <g>
     <polygon id="_3403393681" class="fil1" points="719.973,1061.08 1855.85,2196.97 1857.36,2198.62 1858.7,2200.41 1859.87,2202.34 1860.85,2204.37 1861.63,2206.51 1862.21,2208.75 1862.56,2211.06 1862.68,2213.44 726.798,1077.56 726.677,1075.18 726.324,1072.86 725.75,1070.63 724.967,1068.49 723.986,1066.45 722.819,1064.53 721.477,1062.74 "/>
     <polygon id="_340339728" class="fil1" points="966.109,1021.24 2101.99,2157.12 2102.11,2159.71 2102.23,2162.33 2102.35,2164.98 2102.48,2167.66 2102.62,2170.37 2102.75,2173.1 2102.9,2175.86 2103.04,2178.65 2103.2,2181.46 2103.35,2184.29 2103.51,2187.15 2103.67,2190.03 2103.84,2192.93 2104,2195.86 2104.18,2198.8 2104.35,2201.76 2104.53,2204.75 2104.71,2207.75 2104.89,2210.77 2105.07,2213.8 2105.26,2216.86 2105.45,2219.92 2105.64,2223.01 2105.83,2226.11 2106.03,2229.22 2106.22,2232.34 2106.42,2235.48 2106.62,2238.62 2106.82,2241.78 2107.02,2244.95 2107.22,2248.13 2107.42,2251.31 971.538,1115.43 971.336,1112.24 971.135,1109.07 970.935,1105.9 970.736,1102.74 970.537,1099.59 970.34,1096.46 970.145,1093.33 969.95,1090.22 969.758,1087.13 969.568,1084.04 969.379,1080.98 969.192,1077.92 969.008,1074.89 968.825,1071.87 968.645,1068.86 968.468,1065.88 968.294,1062.92 968.123,1059.97 967.954,1057.05 967.789,1054.15 967.627,1051.27 967.469,1048.41 967.314,1045.58 967.163,1042.76 967.016,1039.98 966.874,1037.22 966.735,1034.49 966.601,1031.78 966.471,1029.1 966.346,1026.45 966.225,1023.83 "/>
     <polygon id="_340341720" class="fil1" points="757.193,990.64 1893.07,2126.52 1892.81,2126.53 756.928,990.649 "/>
     <polygon id="_340342008" class="fil1" points="1110.97,837.55 2246.85,1973.43 2101.99,2157.12 966.109,1021.24 "/>
     <polygon id="_340341984" class="fil1" points="1584,1420.6 2719.88,2556.49 2719.77,2558.87 2719.43,2561.18 2718.87,2563.41 2718.12,2565.56 2717.18,2567.59 2716.06,2569.51 2714.77,2571.31 2713.32,2572.96 2711.73,2574.47 2710.01,2575.81 2708.16,2576.97 2706.2,2577.96 2704.14,2578.74 2702,2579.31 2699.77,2579.67 2697.48,2579.79 1561.6,1443.9 1563.89,1443.78 1566.11,1443.43 1568.26,1442.86 1570.32,1442.07 1572.28,1441.09 1574.12,1439.93 1575.85,1438.58 1577.44,1437.08 1578.89,1435.43 1580.18,1433.63 1581.3,1431.71 1582.24,1429.67 1582.99,1427.53 1583.55,1425.3 1583.89,1422.99 "/>
     <polygon id="_340342896" class="fil1" points="971.538,1115.43 2107.42,2251.31 2107.85,2258.08 2108.28,2264.88 2108.71,2271.71 2109.13,2278.55 2109.56,2285.42 2109.98,2292.31 2110.39,2299.2 2110.8,2306.1 2111.2,2313.01 2111.59,2319.91 2111.97,2326.81 2112.34,2333.69 2112.7,2340.57 2113.04,2347.43 2113.36,2354.26 2113.67,2361.07 2113.96,2367.85 2114.23,2374.6 2114.48,2381.31 2114.71,2387.98 2114.92,2394.6 2115.1,2401.17 2115.25,2407.69 2115.38,2414.16 2115.48,2420.56 2115.55,2426.89 2115.59,2433.15 2115.6,2439.34 2115.57,2445.46 2115.51,2451.49 2115.42,2457.43 2115.28,2463.29 979.4,1327.4 979.534,1321.55 979.631,1315.6 979.692,1309.57 979.718,1303.46 979.711,1297.27 979.672,1291.01 979.601,1284.67 979.502,1278.27 979.373,1271.81 979.218,1265.29 979.037,1258.72 978.832,1252.1 978.603,1245.43 978.353,1238.72 978.081,1231.97 977.791,1225.19 977.481,1218.38 977.156,1211.54 976.815,1204.69 976.459,1197.81 976.09,1190.92 975.709,1184.03 975.318,1177.12 974.919,1170.22 974.511,1163.32 974.096,1156.42 973.676,1149.54 973.252,1142.67 972.824,1135.82 972.395,1129 971.966,1122.2 "/>
     <polygon id="_340342536" class="fil1" points="1210.64,1443.9 2346.52,2579.79 2346.49,2579.79 2346.46,2579.79 2346.43,2579.79 2346.4,2579.79 2346.37,2579.79 2346.34,2579.79 2346.31,2579.79 2346.28,2579.79 1210.4,1443.91 1210.43,1443.91 1210.46,1443.91 1210.49,1443.91 1210.52,1443.91 1210.55,1443.91 1210.58,1443.91 1210.61,1443.9 "/>
     <polygon id="_340342368" class="fil1" points="765.733,1212.33 1901.61,2348.22 1862.68,2348.22 726.798,1212.33 "/>
     <polygon id="_340342584" class="fil1" points="604.598,1443.91 1740.48,2579.79 1740.45,2579.79 1740.42,2579.79 1740.39,2579.79 1740.36,2579.79 1740.33,2579.79 1740.3,2579.79 1740.27,2579.79 1740.24,2579.79 604.361,1443.9 604.391,1443.9 604.42,1443.91 604.45,1443.91 604.479,1443.91 604.51,1443.91 604.539,1443.91 604.569,1443.91 "/>
     <polygon id="_340342272" class="fil1" points="604.361,1443.9 1740.24,2579.79 1622.28,2579.79 486.4,1443.9 "/>
     <polygon id="_340342296" class="fil1" points="486.4,1443.9 1622.28,2579.79 1619.99,2579.67 1617.77,2579.31 1615.62,2578.74 1613.56,2577.96 1611.6,2576.97 1609.76,2575.81 1608.03,2574.47 472.151,1438.58 473.875,1439.93 475.722,1441.09 477.681,1442.07 479.738,1442.86 481.885,1443.43 484.109,1443.78 "/>
     <polygon id="_340342608" class="fil1" points="726.798,1212.33 1862.68,2348.22 1862.68,2407.97 726.798,1272.09 "/>
     <polygon id="_340342440" class="fil1" points="653.669,1238.12 1789.55,2374 1789.34,2374 1788.13,2374 1785.62,2374 1784.77,2373.93 1783.85,2373.71 1782.85,2373.35 1781.8,2372.85 1780.69,2372.22 1779.53,2371.47 1778.34,2370.59 1777.11,2369.58 1775.85,2368.47 639.967,1232.59 641.226,1233.7 642.456,1234.7 643.653,1235.58 644.808,1236.34 645.917,1236.97 646.971,1237.47 647.964,1237.83 648.891,1238.05 649.743,1238.12 652.247,1238.12 653.456,1238.12 "/>
     <polygon id="_340342656" class="fil1" points="703.497,1295.39 1839.38,2431.27 1835.62,2431.19 1832.08,2430.96 1828.75,2430.58 1825.63,2430.06 1822.7,2429.39 1819.96,2428.59 1817.4,2427.66 1815.01,2426.6 1812.78,2425.41 1810.7,2424.11 1808.77,2422.69 1806.97,2421.16 671.084,1285.28 672.884,1286.81 674.819,1288.22 676.897,1289.53 679.13,1290.71 681.521,1291.77 684.083,1292.71 686.823,1293.51 689.75,1294.18 692.873,1294.7 696.199,1295.08 699.738,1295.31 "/>
     <polygon id="_340343064" class="fil1" points="726.798,1272.09 1862.68,2407.97 1862.56,2410.36 1862.21,2412.67 1861.63,2414.9 1860.85,2417.04 1859.87,2419.08 1858.7,2421 1857.36,2422.79 1855.85,2424.45 1854.2,2425.95 1852.41,2427.29 1850.48,2428.46 1848.45,2429.44 1846.31,2430.23 1844.07,2430.8 1841.76,2431.15 1839.38,2431.27 703.497,1295.39 705.879,1295.27 708.193,1294.92 710.425,1294.34 712.567,1293.56 714.603,1292.58 716.525,1291.41 718.319,1290.07 719.973,1288.57 721.477,1286.91 722.819,1285.12 723.986,1283.2 724.967,1281.16 725.75,1279.02 726.324,1276.79 726.677,1274.47 "/>
     <polygon id="_340343328" class="fil1" points="726.798,1077.56 1862.68,2213.44 1862.68,2273.2 726.798,1137.32 "/>
     <polygon id="_340343112" class="fil1" points="1233.7,1350.7 2369.58,2486.59 2369.58,2533.19 1233.7,1397.3 "/>
     <polygon id="_340343184" class="fil1" points="1210.4,1443.91 2346.28,2579.79 1740.48,2579.79 604.598,1443.91 "/>
     <polygon id="_340343544" class="fil1" points="1226.88,1334.23 2362.76,2470.11 2364.26,2471.77 2365.6,2473.56 2366.77,2475.48 2367.75,2477.52 2368.53,2479.66 2369.11,2481.89 2369.46,2484.21 2369.58,2486.59 1233.7,1350.7 1233.58,1348.32 1233.23,1346.01 1232.65,1343.78 1231.87,1341.64 1230.89,1339.6 1229.72,1337.68 1228.38,1335.88 "/>
     <polygon id="_340343688" class="fil1" points="1266.06,699.533 2401.94,1835.42 2403.93,1837.64 2405.92,1839.87 2407.89,1842.12 2409.85,1844.38 2411.81,1846.65 2413.75,1848.94 2415.68,1851.23 2417.59,1853.53 2419.5,1855.83 2421.39,1858.15 2423.27,1860.47 2425.14,1862.8 2427,1865.13 2428.84,1867.46 1292.96,731.582 1291.11,729.246 1289.26,726.915 1287.39,724.588 1285.51,722.267 1283.62,719.952 1281.71,717.644 1279.79,715.345 1277.87,713.054 1275.92,710.773 1273.97,708.501 1272.01,706.241 1270.04,703.992 1268.05,701.756 "/>
     <polygon id="_340343496" class="fil1" points="1292.96,731.582 2428.84,1867.46 2430.58,1869.69 2432.31,1871.92 2434.03,1874.15 2435.74,1876.39 2437.44,1878.63 2439.12,1880.87 2440.8,1883.11 2442.47,1885.35 2444.12,1887.6 2445.77,1889.84 2447.4,1892.08 2449.02,1894.32 2450.62,1896.56 2452.22,1898.79 2453.8,1901.02 2455.37,1903.25 2456.93,1905.47 2458.47,1907.68 2460,1909.88 2461.52,1912.08 2463.02,1914.26 2464.51,1916.44 2465.98,1918.61 2467.44,1920.76 2468.88,1922.91 2470.32,1925.04 2471.73,1927.16 2473.13,1929.26 2474.51,1931.35 2475.88,1933.42 2477.24,1935.48 2478.57,1937.52 1342.69,801.636 1341.35,799.596 1340,797.54 1338.63,795.466 1337.25,793.378 1335.85,791.274 1334.43,789.155 1333,787.025 1331.56,784.881 1330.1,782.725 1328.63,780.558 1327.14,778.381 1325.63,776.194 1324.12,773.998 1322.59,771.795 1321.05,769.583 1319.49,767.365 1317.92,765.142 1316.34,762.912 1314.74,760.68 1313.14,758.442 1311.52,756.203 1309.88,753.961 1308.24,751.717 1306.59,749.473 1304.92,747.229 1303.24,744.984 1301.56,742.743 1299.86,740.503 1298.15,738.266 1296.43,736.034 1294.7,733.805 "/>
     <polygon id="_340343736" class="fil1" points="1342.69,801.636 2478.57,1937.52 2479.29,1938.5 2479.96,1939.52 2480.57,1940.57 2481.13,1941.65 2481.63,1942.76 2482.07,1943.89 2482.46,1945.06 2482.78,1946.24 2483.04,1947.45 2483.24,1948.67 2483.37,1949.91 2483.44,1951.16 2483.44,1952.42 2483.37,1953.7 2483.22,1954.98 2483.01,1956.26 1347.13,820.38 1347.34,819.095 1347.49,817.815 1347.56,816.542 1347.56,815.278 1347.49,814.025 1347.36,812.786 1347.16,811.563 1346.9,810.358 1346.58,809.174 1346.19,808.012 1345.75,806.874 1345.25,805.764 1344.69,804.683 1344.08,803.633 1343.41,802.616 "/>
     <polygon id="_340343424" class="fil1" points="1347.13,820.38 2483.01,1956.26 2482.98,1956.26 1347.1,820.375 "/>
     <polygon id="_340344072" class="fil1" points="1347.1,820.375 2482.98,1956.26 2482.98,1956.28 2482.97,1956.3 2482.97,1956.32 2482.97,1956.34 2482.96,1956.36 2482.96,1956.38 2482.95,1956.41 2482.95,1956.43 1347.07,820.544 1347.07,820.523 1347.08,820.502 1347.08,820.481 1347.08,820.459 1347.09,820.438 1347.09,820.417 1347.1,820.397 "/>
     <polygon id="_340344432" class="fil1" points="1347.07,820.544 2482.95,1956.43 2482.81,1957 2482.63,1957.63 2482.4,1958.33 2482.14,1959.08 2481.83,1959.88 2481.49,1960.74 2481.1,1961.66 2480.68,1962.62 2480.21,1963.63 2479.71,1964.7 2479.17,1965.8 2478.59,1966.96 2477.98,1968.15 2477.33,1969.39 2476.64,1970.66 2475.91,1971.98 2475.16,1973.33 2474.36,1974.72 2473.54,1976.14 2472.68,1977.59 2471.78,1979.07 2470.86,1980.58 2469.9,1982.12 2468.91,1983.68 2467.89,1985.27 2466.84,1986.87 2465.76,1988.5 2464.65,1990.15 2463.51,1991.82 2462.34,1993.5 2461.14,1995.2 2459.91,1996.91 1324.03,861.023 1325.26,859.314 1326.46,857.618 1327.63,855.936 1328.76,854.271 1329.88,852.622 1330.96,850.992 1332.01,849.383 1333.03,847.796 1334.02,846.233 1334.98,844.697 1335.9,843.186 1336.8,841.704 1337.66,840.253 1338.48,838.834 1339.28,837.447 1340.03,836.096 1340.76,834.781 1341.44,833.505 1342.09,832.269 1342.71,831.074 1343.29,829.921 1343.83,828.814 1344.33,827.753 1344.79,826.739 1345.22,825.775 1345.6,824.862 1345.95,824.001 1346.26,823.196 1346.52,822.445 1346.74,821.751 1346.93,821.118 "/>
     <polygon id="_340344504" class="fil1" points="1324.03,861.023 2459.91,1996.91 2459.33,1998.01 2458.69,1999.16 2458.01,2000.36 2457.29,2001.6 2456.52,2002.89 2455.71,2004.21 2454.86,2005.57 2453.96,2006.96 2453.03,2008.38 2452.05,2009.82 2451.04,2011.29 2449.99,2012.77 2448.91,2014.27 2447.79,2015.79 2446.63,2017.31 2445.44,2018.84 2444.22,2020.38 2442.97,2021.91 2441.69,2023.44 2440.37,2024.97 2439.03,2026.49 2437.66,2027.99 2436.27,2029.48 2434.84,2030.95 2433.4,2032.4 2431.93,2033.82 2430.43,2035.22 2428.92,2036.59 2427.38,2037.92 2425.82,2039.21 2424.25,2040.47 2422.65,2041.68 1286.77,905.794 1288.36,904.583 1289.94,903.33 1291.5,902.036 1293.04,900.705 1294.55,899.339 1296.04,897.942 1297.52,896.518 1298.96,895.068 1300.39,893.598 1301.78,892.109 1303.15,890.604 1304.49,889.086 1305.8,887.56 1307.09,886.029 1308.34,884.494 1309.56,882.96 1310.75,881.429 1311.91,879.905 1313.03,878.39 1314.11,876.889 1315.16,875.404 1316.17,873.937 1317.15,872.494 1318.08,871.075 1318.97,869.685 1319.83,868.328 1320.64,867.005 1321.41,865.72 1322.13,864.475 1322.81,863.277 1323.45,862.125 "/>
     <polygon id="_340344336" class="fil1" points="1286.77,905.794 2422.65,2041.68 2421.81,2042.28 2420.93,2042.89 2420.01,2043.49 2419.05,2044.1 2418.05,2044.71 2417.01,2045.31 2415.94,2045.91 2414.83,2046.51 2413.7,2047.1 2412.53,2047.68 2411.34,2048.25 2410.12,2048.82 2408.87,2049.37 2407.61,2049.91 2406.32,2050.43 2405.02,2050.94 1269.14,915.062 1270.44,914.552 1271.73,914.026 1272.99,913.487 1274.24,912.935 1275.46,912.372 1276.65,911.799 1277.82,911.216 1278.95,910.627 1280.06,910.032 1281.13,909.431 1282.17,908.827 1283.17,908.22 1284.13,907.612 1285.05,907.005 1285.93,906.398 "/>
     <polygon id="_340343928" class="fil1" points="1269.14,915.062 2405.02,2050.94 2403.1,2052.03 2401.13,2053.1 2399.09,2054.16 2397,2055.21 2394.86,2056.25 2392.66,2057.26 2390.43,2058.25 2388.15,2059.22 2385.83,2060.17 2383.47,2061.08 2381.09,2061.96 2378.68,2062.81 2376.24,2063.62 2373.79,2064.4 2371.32,2065.13 2368.83,2065.82 2366.34,2066.46 2363.84,2067.05 2361.35,2067.6 2358.85,2068.08 2356.36,2068.52 2353.87,2068.89 2351.4,2069.2 2348.95,2069.45 2346.52,2069.63 2344.11,2069.74 2341.73,2069.78 2339.38,2069.75 2337.06,2069.64 2334.78,2069.45 2332.55,2069.18 2330.36,2068.82 1194.48,932.942 1196.67,933.296 1198.9,933.566 1201.18,933.755 1203.49,933.865 1205.85,933.898 1208.23,933.858 1210.64,933.746 1213.07,933.565 1215.52,933.317 1217.99,933.007 1220.47,932.633 1222.97,932.202 1225.46,931.714 1227.96,931.172 1230.46,930.578 1232.95,929.937 1235.44,929.248 1237.91,928.516 1240.36,927.741 1242.8,926.929 1245.21,926.081 1247.59,925.197 1249.95,924.283 1252.26,923.34 1254.55,922.372 1256.78,921.379 1258.98,920.364 1261.12,919.332 1263.21,918.282 1265.25,917.219 1267.22,916.145 "/>
     <polygon id="_340344216" class="fil1" points="1194.48,932.942 2330.36,2068.82 2328.98,2068.55 2327.63,2068.25 2326.3,2067.9 2325,2067.52 2323.72,2067.1 2322.46,2066.64 2321.23,2066.15 2320.02,2065.61 1184.14,929.729 1185.34,930.265 1186.58,930.761 1187.83,931.218 1189.12,931.638 1190.42,932.019 1191.75,932.363 1193.1,932.67 "/>
     <polygon id="_340344360" class="fil1" points="1184.14,929.729 2320.02,2065.61 2318.81,2065.02 2317.64,2064.39 2316.5,2063.71 2315.39,2063 2314.31,2062.24 2313.27,2061.45 2312.27,2060.61 2311.3,2059.73 2310.36,2058.8 1174.48,922.921 1175.42,923.845 1176.39,924.726 1177.39,925.566 1178.43,926.362 1179.51,927.118 1180.62,927.832 1181.76,928.504 1182.93,929.137 "/>
     <polygon id="_340344264" class="fil1" points="1577.44,1404.13 2713.32,2540.01 2714.77,2541.66 2716.06,2543.46 2717.18,2545.38 2718.12,2547.42 2718.87,2549.56 2719.43,2551.79 2719.77,2554.1 2719.88,2556.49 1584,1420.6 1583.89,1418.22 1583.55,1415.91 1582.99,1413.68 1582.24,1411.53 1581.3,1409.5 1580.18,1407.58 1578.89,1405.78 "/>
     <polygon id="_340344288" class="fil1" points="1561.6,1443.9 2697.48,2579.79 2346.52,2579.79 1210.64,1443.9 "/>
    </g>
    <path id="_451254056" class="fil1" d="M971.538 1115.43c4.55788,72.0142 9.49489,150.021 7.8626,211.975l231.001 0c12.8669,0 23.2996,10.4327 23.2996,23.3008l0 46.5981 327.899 0c12.3709,0 22.4008,10.4327 22.4008,23.3008 0,12.8681 -10.0299,23.3008 -22.4008,23.3008l-350.961 0c-0.0791339,0.0011811 -0.158268,0.0011811 -0.237402,0.0011811l-605.803 0c-0.0791339,0 -0.158268,0 -0.237402,-0.0011811l-117.962 0c-12.3709,0 -22.4008,-10.4327 -22.4008,-23.3008 0,-12.8681 10.0299,-23.3008 22.4008,-23.3008l94.8981 0 0 -46.5981c0,-12.8681 10.4327,-23.3008 23.3008,-23.3008l165.566 0 -4.4315 -115.07 -38.9351 0 0 59.7567c0,12.8681 -10.4327,23.2996 -23.3008,23.2996 -41.3138,0 -43.4244,-26.8961 -53.25,-57.28 -0.167717,0.00354331 8.16733,0.0106299 -0.504331,0.0106299 -8.67166,0 -31.0984,-25.526 -31.0984,-53.0918 0,-27.567 10.7894,-47.3162 25.0866,-52.0985 11.4756,-36.3 12.8315,-78.6721 59.7662,-78.6721 12.8681,0 23.3008,10.4327 23.3008,23.3008l0 59.7579 36.0461 0 -5.49331 -142.615c-0.275197,-1.28858 -0.442914,-2.61614 -0.496063,-3.97677l0.341339 -0.0129921 -0.00236221 -0.0732284 -0.265748 0.00944883c-0.520867,-13.5567 1.56378,-26.5795 5.80748,-38.5819 4.16339,-11.778 10.441,-22.6477 18.4004,-32.1437l0.602363 -0.800788 0.0236221 0.0188977 195.189 -247.503c39.567,-50.1709 82.7753,-69.4985 127.178,-67.3902 42.6756,2.02677 84.6473,24.4666 124.37,58.3607 23.0764,19.6902 44.8642,44.0363 64.4599,68.9729 18.6071,23.6811 35.5642,48.3898 49.7315,70.0536 3.96733,5.13071 5.78268,11.8807 4.43622,18.7441l-0.0248032 -0.00472441c-0.0106299,0.0555119 -0.022441,0.111024 -0.0354331,0.168898 -1.25906,5.78859 -9.81615,22.1894 -23.0339,40.4788 -6.00945,11.4673 -20.1579,32.1071 -37.2626,44.7709 -4.33701,3.21142 -10.6299,6.58701 -17.6339,9.26812 -20.0398,11.589 -51.5587,22.1162 -74.6599,17.8795 -3.68622,-0.676772 -7.15867,-1.72914 -10.3358,-3.2126 -6.52914,-3.04961 -11.6681,-7.81064 -15.1831,-14.4945 -10.4563,-15.9992 -22.8106,-34.1339 -35.8961,-51.1524 -7.2378,-9.41221 -14.6764,-18.4547 -22.0878,-26.5323l-144.863 183.689c1.20591,27.4795 3.2752,60.1701 5.42835,94.1906z"/>
   </g>
  </g>
  <path class="fil2" d="M1024 -0.0011811c565.539,0 1024,458.462 1024,1024 0,565.539 -458.462,1024 -1024,1024 -565.539,0 -1024,-458.462 -1024,-1024 0,-565.539 458.462,-1024 1024,-1024z"/>
  <path class="fil3" d="M938.244 1374.1c-49.2744,0.627166 -166.27,2.1189 -167.238,-24.874l-13.6547 -354.524c-0.275197,-1.28858 -0.442914,-2.61614 -0.496063,-3.97677l0.341339 -0.0129921 -0.00236221 -0.0732284 -0.265748 0.00944883c-0.520867,-13.5567 1.56378,-26.5795 5.80748,-38.5819 4.16339,-11.778 10.441,-22.6477 18.4004,-32.1437 0.194882,-0.270473 0.394488,-0.537402 0.602363,-0.800788l0.0236221 0.0188977 195.189 -247.503c39.567,-50.1709 82.7753,-69.4985 127.178,-67.3902 42.6756,2.02677 84.6473,24.4666 124.37,58.3607 23.0764,19.6902 44.8642,44.0363 64.4599,68.9729 18.6071,23.6811 35.5642,48.3898 49.7315,70.0536 3.96733,5.13071 5.78268,11.8807 4.43622,18.7441l-0.0248032 -0.00472441c-2.1437,10.7256 -31.3618,61.0028 -68.9127,88.806 -20.7295,15.3496 -67.6111,32.8961 -94.0489,20.5477 -6.52914,-3.04961 -11.6681,-7.81064 -15.1831,-14.4945 -10.4563,-15.9992 -22.8106,-34.1339 -35.8961,-51.1524 -7.2378,-9.41221 -14.6764,-18.4547 -22.0878,-26.5323l-144.863 183.689c1.20591,27.4795 3.2752,60.1701 5.42835,94.1906 5.14961,81.3556 10.7823,170.36 6.88111,235.225l0 0.0507874c0,12.8681 -10.4315,23.3008 -23.2996,23.3008 -9.46418,0 -12.5929,0.0401575 -16.8756,0.0944883z"/>
  <path class="fil4" d="M604.598 1327.4l605.803 0c12.8669,0 23.2996,10.4327 23.2996,23.3008l0 69.9001c0,12.8681 -10.4327,23.3008 -23.2996,23.3008l-605.803 0c-12.8681,0 -23.3008,-10.4327 -23.3008,-23.3008l0 -69.9001c0,-12.8681 10.4327,-23.3008 23.3008,-23.3008z"/>
  <path class="fil5" d="M486.4 1397.3c-12.3709,0 -22.4008,10.4327 -22.4008,23.3008 0,12.8681 10.0299,23.3008 22.4008,23.3008l1075.2 0c12.3709,0 22.4008,-10.4327 22.4008,-23.3008 0,-12.8681 -10.0299,-23.3008 -22.4008,-23.3008l-1075.2 0z"/>
  <path class="fil5" d="M703.497 1137.32c-12.8681,0 -23.3008,16.7941 -23.3008,37.5083 0,20.7142 10.4327,37.5083 23.3008,37.5083l64.2024 0c12.8681,0 23.3008,-16.7941 23.3008,-37.5083 0,-20.7142 -10.4327,-37.5083 -23.3008,-37.5083l-64.2024 0z"/>
  <path class="fil4" d="M703.497 1295.39c12.8681,0 23.3008,-10.4315 23.3008,-23.2996l0 -194.531c0,-12.8681 -10.4327,-23.3008 -23.3008,-23.3008 -46.9347,0 -48.2906,42.3721 -59.7662,78.6721 -14.2973,4.78229 -25.0866,24.5315 -25.0866,52.0985 0,27.5658 22.4268,53.0918 31.0984,53.0918 8.67166,0 0.336614,-0.00708662 0.504331,-0.0106299 9.8256,30.3839 11.9362,57.28 53.25,57.28z"/>
  <path class="fil6" d="M1278.19 909.181c37.3583,-27.6603 66.4678,-77.5619 68.8772,-88.6371 -0.601182,-0.726379 -1.22953,-1.43504 -1.88268,-2.12717 -24.5799,-26.0492 -75.9213,-17.5217 -114.674,19.0477 -31.1457,29.3906 -44.68,67.9489 -36.0331,95.4768 26.9918,4.95 65.4745,-10.2555 83.7131,-23.7603z"/>
  <path class="fil7" d="M1286.77 905.794c21.8433,-16.1728 38.8642,-45.3508 40.2733,-51.8268 -0.351969,-0.425197 -0.719292,-0.839764 -1.10079,-1.24488 -14.3717,-15.2303 -44.3918,-10.2437 -67.0512,11.1378 -18.2114,17.1851 -26.1248,39.7311 -21.0697,55.826 15.7831,2.89488 38.2843,-5.99646 48.9485,-13.8921z"/>
 </g>
</svg>
