<?xml version="1.0" encoding="UTF-8"?>
<!DOCTYPE svg PUBLIC "-//W3C//DTD SVG 1.1//EN" "http://www.w3.org/Graphics/SVG/1.1/DTD/svg11.dtd">
<!-- Creator: CorelDRAW -->
<svg xmlns="http://www.w3.org/2000/svg" xml:space="preserve" width="2048px" height="2048px" style="shape-rendering:geometricPrecision; text-rendering:geometricPrecision; image-rendering:optimizeQuality; fill-rule:evenodd; clip-rule:evenodd"
viewBox="0 0 2048 2048"
 xmlns:xlink="http://www.w3.org/1999/xlink">
 <defs>
  <style type="text/css">
   <![CDATA[
    .fil2 {fill:none}
    .fil4 {fill:#4E342E}
    .fil1 {fill:#6D4C41}
    .fil0 {fill:#8D6E63}
    .fil7 {fill:#A4B2B9}
    .fil6 {fill:#B0BEC5}
    .fil3 {fill:#FF5722}
    .fil8 {fill:#37474F;fill-rule:nonzero}
    .fil5 {fill:#D84315;fill-rule:nonzero}
   ]]>
  </style>
   <clipPath id="id0">
    <path d="M1024 -0.0011811c565.539,0 1024,458.462 1024,1024 0,565.539 -458.462,1024 -1024,1024 -565.539,0 -1024,-458.462 -1024,-1024 0,-565.539 458.462,-1024 1024,-1024z"/>
   </clipPath>
 </defs>
 <g id="Layer_x0020_1">
  <metadata id="CorelCorpID_0Corel-Layer"/>
  <path class="fil0" d="M1024 -0.0011811c565.539,0 1024,458.462 1024,1024 0,565.539 -458.462,1024 -1024,1024 -565.539,0 -1024,-458.462 -1024,-1024 0,-565.539 458.462,-1024 1024,-1024z"/>
  <g style="clip-path:url(#id0)">
   <g id="_451247696">
    <g>
     <path id="_3342681521" class="fil1" d="M1604.8 2180.72l0 0zm-1135.88 -1135.88l0 0z"/>
     <path id="_334268392" class="fil1" d="M1790.96 1948.93l0 0zm-1135.88 -1135.88l0 0z"/>
     <polygon id="_334268848" class="fil1" points="1018.66,868.967 2154.54,2004.85 2155.88,2006.3 2157.09,2007.86 2158.17,2009.5 2159.1,2011.24 2159.88,2013.04 2160.52,2014.91 2160.99,2016.84 2161.3,2018.81 2161.44,2020.82 2161.4,2022.85 1025.52,886.968 1025.55,884.937 1025.42,882.93 1025.11,880.959 1024.63,879.033 1024,877.162 1023.22,875.355 1022.29,873.622 1021.21,871.973 1020,870.419 "/>
     <polygon id="_334270144" class="fil1" points="1025.52,886.968 2161.4,2022.85 2163.61,2109.58 1027.73,973.698 "/>
     <polygon id="_334269496" class="fil1" points="1427.78,723.456 2563.66,1859.34 2566.82,1862.98 2569.89,1866.71 2572.89,1870.54 2575.79,1874.45 2578.61,1878.44 2581.34,1882.53 2583.98,1886.7 2586.52,1890.95 2588.97,1895.29 2591.31,1899.71 2593.56,1904.22 1457.68,768.34 1455.43,763.832 1453.09,759.408 1450.64,755.069 1448.1,750.813 1445.46,746.643 1442.73,742.56 1439.91,738.563 1437,734.653 1434.01,730.831 1430.94,727.099 "/>
     <polygon id="_334269736" class="fil1" points="1457.68,768.34 2593.56,1904.22 2595.13,1907.55 2596.64,1910.9 2598.07,1914.26 2599.44,1917.63 2600.74,1921.01 2601.97,1924.41 2603.13,1927.81 2604.23,1931.23 2605.26,1934.66 2606.23,1938.09 2607.13,1941.53 2607.97,1944.98 2608.74,1948.44 2609.44,1951.89 2610.08,1955.36 2610.66,1958.83 2611.17,1962.3 2611.62,1965.77 2612.01,1969.24 2612.33,1972.72 2612.59,1976.19 2612.78,1979.66 2612.92,1983.13 2612.99,1986.6 2613,1990.06 2612.95,1993.52 2612.84,1996.98 2612.66,2000.43 2612.43,2003.87 2612.14,2007.3 2611.78,2010.73 2611.37,2014.14 1475.48,878.26 1475.9,874.844 1476.25,871.419 1476.55,867.986 1476.78,864.544 1476.96,861.096 1477.07,857.642 1477.12,854.182 1477.11,850.718 1477.04,847.251 1476.9,843.781 1476.71,840.309 1476.45,836.835 1476.13,833.36 1475.74,829.888 1475.29,826.416 1474.78,822.944 1474.2,819.477 1473.56,816.012 1472.86,812.553 1472.09,809.098 1471.25,805.651 1470.35,802.209 1469.38,798.774 1468.35,795.348 1467.25,791.932 1466.09,788.525 1464.85,785.129 1463.55,781.745 1462.19,778.373 1460.75,775.014 1459.25,771.669 "/>
     <polygon id="_334269592" class="fil1" points="1475.48,878.26 2611.37,2014.14 2610.95,2017.18 2610.48,2020.2 2609.97,2023.21 2609.41,2026.22 2608.8,2029.21 2608.15,2032.2 2607.45,2035.17 2606.7,2038.13 2605.91,2041.08 2605.08,2044.01 2604.19,2046.93 2603.27,2049.84 2602.3,2052.73 2601.28,2055.6 2600.22,2058.46 2599.11,2061.31 2597.96,2064.13 2596.77,2066.94 2595.53,2069.73 2594.25,2072.5 2592.93,2075.25 2591.56,2077.98 2590.15,2080.69 2588.7,2083.38 2587.2,2086.04 2585.66,2088.69 2584.08,2091.31 2582.46,2093.91 2580.8,2096.48 2579.09,2099.03 2577.34,2101.56 2575.56,2104.06 1439.68,968.173 1441.46,965.674 1443.21,963.15 1444.92,960.6 1446.58,958.026 1448.2,955.428 1449.78,952.805 1451.32,950.161 1452.81,947.494 1454.27,944.806 1455.68,942.095 1457.05,939.366 1458.37,936.615 1459.65,933.844 1460.89,931.055 1462.08,928.248 1463.23,925.423 1464.34,922.58 1465.4,919.722 1466.41,916.846 1467.39,913.955 1468.31,911.049 1469.19,908.129 1470.03,905.195 1470.82,902.248 1471.57,899.287 1472.27,896.316 1472.92,893.332 1473.53,890.337 1474.09,887.332 1474.6,884.317 1475.07,881.293 "/>
     <polygon id="_334269544" class="fil1" points="1439.68,968.173 2575.56,2104.06 2717.5,2397.92 1581.62,1262.04 "/>
     <polygon id="_334270072" class="fil1" points="1581.67,1262.02 2717.55,2397.9 2718.13,2399.18 2718.62,2400.48 2719.03,2401.79 2719.35,2403.11 2719.6,2404.44 2719.77,2405.77 2719.86,2407.1 2719.88,2408.43 2719.82,2409.75 2719.68,2411.06 2719.47,2412.36 2719.19,2413.65 2718.84,2414.91 2718.42,2416.15 2717.93,2417.37 2717.37,2418.56 1581.49,1282.68 1582.05,1281.49 1582.54,1280.27 1582.96,1279.03 1583.31,1277.76 1583.59,1276.48 1583.8,1275.18 1583.94,1273.87 1584,1272.55 1583.98,1271.22 1583.89,1269.89 1583.72,1268.56 1583.47,1267.23 1583.15,1265.91 1582.74,1264.6 1582.25,1263.3 "/>
     <polygon id="_334269856" class="fil1" points="1273.93,1048.22 2409.81,2184.1 2406.74,2183.95 2403.68,2183.75 2400.62,2183.5 2397.57,2183.21 2394.53,2182.86 2391.49,2182.47 2388.46,2182.03 2385.44,2181.55 2382.44,2181.01 2379.44,2180.44 2376.45,2179.81 2373.47,2179.14 2370.51,2178.42 2367.56,2177.66 2364.62,2176.85 2361.69,2175.99 2358.78,2175.09 2355.88,2174.15 2353,2173.16 2350.13,2172.13 2347.28,2171.05 2344.45,2169.92 2341.63,2168.76 2338.83,2167.55 2336.05,2166.29 2333.29,2164.99 2330.55,2163.65 2327.83,2162.26 2325.13,2160.84 2322.45,2159.37 2319.8,2157.85 2317.16,2156.3 1181.28,1020.42 1183.92,1021.97 1186.57,1023.49 1189.25,1024.96 1191.95,1026.38 1194.67,1027.77 1197.41,1029.11 1200.17,1030.41 1202.95,1031.66 1205.75,1032.87 1208.57,1034.04 1211.4,1035.16 1214.25,1036.24 1217.12,1037.28 1220,1038.27 1222.9,1039.21 1225.81,1040.11 1228.73,1040.97 1231.67,1041.78 1234.63,1042.54 1237.59,1043.26 1240.57,1043.93 1243.56,1044.55 1246.56,1045.13 1249.56,1045.66 1252.58,1046.15 1255.61,1046.59 1258.64,1046.98 1261.69,1047.32 1264.74,1047.62 1267.8,1047.87 1270.86,1048.07 "/>
     <polygon id="_334269976" class="fil1" points="1554.48,1350.7 2690.36,2486.58 2680.63,2511.09 1544.75,1375.21 "/>
     <polygon id="_334270096" class="fil1" points="1134.95,981.652 2270.83,2117.53 2269.39,2118.2 2267.95,2118.86 2266.51,2119.5 2265.06,2120.13 2263.61,2120.75 2262.16,2121.36 2260.7,2121.95 2259.24,2122.53 2257.78,2123.09 2256.32,2123.64 2254.85,2124.18 2253.39,2124.71 2251.92,2125.21 2250.45,2125.71 2248.98,2126.19 2247.5,2126.65 1111.62,990.766 1113.09,990.303 1114.57,989.825 1116.04,989.331 1117.51,988.823 1118.97,988.3 1120.44,987.763 1121.9,987.212 1123.36,986.646 1124.82,986.068 1126.27,985.476 1127.73,984.87 1129.18,984.252 1130.62,983.62 1132.07,982.977 1133.51,982.32 "/>
     <polygon id="_334270744" class="fil1" points="1358.72,1223.76 2494.6,2359.64 2493.71,2360.07 1357.83,1224.19 "/>
     <polygon id="_334270600" class="fil1" points="1111.62,990.766 2247.5,2126.65 2244.85,2127.44 2242.21,2128.19 2239.56,2128.89 2236.91,2129.54 2234.26,2130.16 2231.61,2130.73 2228.96,2131.25 2226.31,2131.74 2223.66,2132.19 2221.02,2132.59 2218.37,2132.96 2215.73,2133.29 2213.09,2133.58 2210.46,2133.83 2207.83,2134.05 2205.2,2134.24 2202.58,2134.39 2199.97,2134.51 2197.36,2134.59 2194.76,2134.64 2192.16,2134.67 2189.57,2134.66 2186.99,2134.63 2184.42,2134.56 2181.86,2134.47 2179.31,2134.35 2176.76,2134.21 2174.23,2134.04 2171.71,2133.85 2169.19,2133.63 2166.69,2133.39 2164.21,2133.14 1028.32,997.253 1030.81,997.513 1033.31,997.751 1035.82,997.966 1038.35,998.159 1040.88,998.328 1043.42,998.47 1045.98,998.589 1048.54,998.68 1051.11,998.743 1053.69,998.779 1056.28,998.786 1058.88,998.762 1061.48,998.709 1064.09,998.623 1066.7,998.506 1069.32,998.355 1071.95,998.17 1074.58,997.951 1077.21,997.696 1079.85,997.404 1082.49,997.076 1085.13,996.708 1087.78,996.303 1090.43,995.858 1093.08,995.371 1095.73,994.844 1098.38,994.275 1101.03,993.662 1103.68,993.005 1106.33,992.305 1108.97,991.559 "/>
     <polygon id="_334270288" class="fil1" points="1276.11,1171.3 2411.99,2307.18 2411.94,2307.21 1276.06,1171.32 "/>
     <polygon id="_334270648" class="fil1" points="1357.83,1224.19 2493.71,2360.07 2469.13,2371.95 1333.25,1236.06 "/>
     <polygon id="_334270840" class="fil1" points="1333.27,1236.12 2469.15,2372 2466.95,2372.93 2464.71,2373.62 2462.45,2374.07 2460.18,2374.3 2457.91,2374.3 2455.67,2374.08 2453.47,2373.66 2451.32,2373.02 2449.25,2372.18 2447.26,2371.15 2445.37,2369.93 2443.59,2368.52 2441.96,2366.93 1306.07,1231.05 1307.71,1232.63 1309.49,1234.04 1311.37,1235.27 1313.37,1236.3 1315.44,1237.14 1317.59,1237.77 1319.79,1238.2 1322.03,1238.42 1324.3,1238.42 1326.57,1238.19 1328.83,1237.73 1331.07,1237.05 "/>
     <polygon id="_334270888" class="fil1" points="1327.99,1278.69 2463.87,2414.57 2463.82,2414.6 1327.94,1278.72 "/>
     <polygon id="_334270312" class="fil1" points="1409.72,1331.57 2545.6,2467.46 2521,2479.34 1385.12,1343.46 "/>
     <polygon id="_334270408" class="fil1" points="1333.25,1236.06 2469.13,2371.95 2469.15,2372 1333.27,1236.12 "/>
     <polygon id="_334271320" class="fil1" points="1428.18,1353.58 2564.06,2489.46 2564.03,2489.51 1428.14,1353.63 "/>
     <polygon id="_334271416" class="fil1" points="1385.12,1343.46 2521,2479.34 2521.03,2479.39 1385.15,1343.51 "/>
     <polygon id="_334271584" class="fil1" points="1028.32,997.253 2164.21,2133.14 2170.19,2368.28 1034.31,1232.4 "/>
     <polygon id="_334271608" class="fil1" points="1428.14,1353.63 2564.03,2489.51 2561.8,2488.48 2559.73,2487.24 2557.83,2485.83 2556.1,2484.24 1420.22,1348.36 1421.95,1349.94 1423.85,1351.36 1425.92,1352.59 "/>
     <polygon id="_334271224" class="fil1" points="1181.28,1020.42 2317.16,2156.3 2315.56,2155.32 2313.96,2154.33 2312.37,2153.33 2310.8,2152.3 2309.23,2151.27 2307.67,2150.21 2306.12,2149.14 2304.58,2148.06 2303.05,2146.96 2301.53,2145.85 2300.02,2144.72 2298.52,2143.57 2297.03,2142.41 2295.55,2141.24 2294.08,2140.04 2292.62,2138.84 2291.17,2137.62 2289.73,2136.38 2288.31,2135.13 2286.89,2133.87 2285.49,2132.58 2284.1,2131.29 2282.71,2129.98 2281.35,2128.66 2279.99,2127.32 2278.64,2125.96 2277.31,2124.59 1141.43,988.711 1142.76,990.08 1144.11,991.433 1145.46,992.773 1146.83,994.097 1148.21,995.407 1149.61,996.702 1151.01,997.983 1152.42,999.249 1153.85,1000.5 1155.29,1001.74 1156.74,1002.96 1158.2,1004.16 1159.67,1005.35 1161.14,1006.53 1162.64,1007.69 1164.14,1008.83 1165.65,1009.96 1167.17,1011.08 1168.7,1012.18 1170.24,1013.26 1171.79,1014.33 1173.35,1015.38 1174.92,1016.42 1176.49,1017.44 1178.08,1018.45 1179.68,1019.44 "/>
     <polygon id="_334271248" class="fil1" points="1515.77,1388.78 2651.65,2524.66 2651.5,2524.61 2651.35,2524.55 2651.19,2524.5 2651.04,2524.44 2650.88,2524.39 2650.73,2524.33 2650.58,2524.27 2650.42,2524.21 1514.54,1388.33 1514.69,1388.39 1514.85,1388.45 1515,1388.51 1515.16,1388.56 1515.31,1388.62 1515.46,1388.67 1515.62,1388.72 "/>
     <polygon id="_334271080" class="fil1" points="1410.59,1331.15 2546.48,2467.04 2545.6,2467.46 1409.72,1331.57 "/>
     <polygon id="_334271272" class="fil1" points="1480.4,1374.55 2616.28,2510.43 2564.06,2489.46 1428.18,1353.58 "/>
     <polygon id="_334272232" class="fil1" points="1514.54,1388.33 2650.42,2524.21 2650.21,2524.13 2650.01,2524.04 2649.8,2523.95 2649.6,2523.86 2649.39,2523.77 2649.19,2523.68 2648.99,2523.59 2648.79,2523.49 1512.91,1387.61 1513.11,1387.7 1513.31,1387.8 1513.51,1387.89 1513.71,1387.98 1513.92,1388.07 1514.13,1388.16 1514.33,1388.24 "/>
     <polygon id="_334271824" class="fil1" points="1581.49,1282.68 2717.37,2418.56 2690.36,2486.58 1554.48,1350.7 "/>
     <polygon id="_334272064" class="fil1" points="1544.84,1375.25 2680.72,2511.13 2680.34,2512.03 2679.93,2512.91 2679.48,2513.76 2679.01,2514.59 2678.5,2515.39 2677.97,2516.17 2677.41,2516.91 2676.82,2517.64 1540.94,1381.75 1541.53,1381.03 1542.09,1380.28 1542.62,1379.51 1543.13,1378.71 1543.6,1377.88 1544.05,1377.03 1544.46,1376.15 "/>
     <polygon id="_334272424" class="fil1" points="1540.94,1381.75 2676.82,2517.64 2675.64,2518.92 2674.38,2520.1 2673.04,2521.18 2671.64,2522.16 2670.16,2523.03 2668.63,2523.79 2667.05,2524.43 2665.43,2524.96 2663.77,2525.37 2662.07,2525.66 2660.36,2525.82 2658.62,2525.86 2656.88,2525.76 2655.13,2525.53 2653.39,2525.17 2651.65,2524.66 1515.77,1388.78 1517.51,1389.28 1519.25,1389.65 1521,1389.88 1522.74,1389.98 1524.47,1389.94 1526.19,1389.78 1527.88,1389.49 1529.55,1389.08 1531.17,1388.55 1532.75,1387.91 1534.28,1387.15 1535.76,1386.28 1537.16,1385.3 1538.5,1384.22 1539.76,1383.04 "/>
     <polygon id="_334272280" class="fil1" points="1512.91,1387.61 2648.79,2523.49 2616.28,2510.43 1480.4,1374.55 "/>
     <polygon id="_334272208" class="fil1" points="1385.15,1343.51 2521.03,2479.39 2518.83,2480.32 2516.59,2481.01 2514.32,2481.46 2512.05,2481.69 2509.79,2481.69 2507.55,2481.48 2505.35,2481.05 2503.2,2480.41 2501.12,2479.58 2499.13,2478.54 2497.24,2477.32 2495.47,2475.91 2493.83,2474.32 1357.95,1338.44 1359.59,1340.03 1361.36,1341.44 1363.25,1342.66 1365.24,1343.69 1367.32,1344.53 1369.46,1345.17 1371.67,1345.59 1373.91,1345.81 1376.17,1345.81 1378.44,1345.58 1380.7,1345.13 1382.95,1344.44 "/>
     <polygon id="_334272448" class="fil1" points="1034.39,1232.4 2170.28,2368.28 2170.22,2370.67 2169.92,2372.99 2169.4,2375.24 2168.67,2377.41 2167.74,2379.47 2166.62,2381.42 2165.33,2383.25 2163.86,2384.95 2162.24,2386.5 2160.48,2387.88 2158.59,2389.1 2156.58,2390.14 2154.45,2390.97 2152.23,2391.61 2149.93,2392.02 2147.54,2392.2 1011.66,1256.32 1014.04,1256.14 1016.35,1255.72 1018.57,1255.09 1020.7,1254.25 1022.71,1253.22 1024.6,1252 1026.36,1250.61 1027.98,1249.07 1029.44,1247.37 1030.74,1245.54 1031.86,1243.59 1032.79,1241.52 1033.52,1239.36 1034.04,1237.11 1034.33,1234.79 "/>
     <polygon id="_334271728" class="fil1" points="964.772,1211.43 2100.65,2347.31 1890.71,2510.52 754.829,1374.63 "/>
     <polygon id="_334272136" class="fil1" points="1011.66,1256.32 2147.54,2392.2 2146.05,2392.19 2144.58,2392.09 2143.14,2391.9 2141.73,2391.62 2140.34,2391.26 2138.99,2390.81 2137.68,2390.29 2136.41,2389.69 2135.18,2389.02 2133.99,2388.28 2132.86,2387.47 2131.77,2386.6 2130.74,2385.66 994.862,1249.78 995.892,1250.71 996.976,1251.59 998.111,1252.4 999.296,1253.14 1000.53,1253.81 1001.8,1254.41 1003.11,1254.93 1004.46,1255.37 1005.84,1255.74 1007.26,1256.02 1008.7,1256.21 1010.17,1256.31 "/>
     <polygon id="_334272184" class="fil1" points="754.829,1374.63 1890.71,2510.52 1890.72,2510.53 754.838,1374.65 "/>
     <polygon id="_334272688" class="fil1" points="754.838,1374.65 1890.72,2510.53 1888.76,2511.9 1886.72,2513.04 1884.6,2513.96 1882.42,2514.65 1880.21,2515.13 1877.97,2515.39 1875.73,2515.43 1873.5,2515.26 1871.29,2514.87 1869.13,2514.28 1867.03,2513.48 1865,2512.47 1863.06,2511.26 1861.24,2509.85 725.356,1373.97 727.183,1375.38 729.117,1376.59 731.145,1377.6 733.249,1378.4 735.412,1378.99 737.618,1379.38 739.85,1379.55 742.093,1379.5 744.329,1379.25 746.542,1378.77 748.717,1378.08 750.836,1377.16 752.881,1376.01 "/>
    </g>
    <path id="_451247456" class="fil1" d="M468.923 1044.84l0 0zm186.156 -231.797l0 0zm4.09016 -32.7331c6.42284,-4.9937 14.6327,-6.1004 21.8055,-3.67914l327.174 86.3918 0.0330709 -0.0472441c10.9488,2.89134 18.0154,13.1032 17.3351,23.9918l2.20866 86.7296c24.8232,2.99646 51.4595,2.72835 77.0575,-5.17205 5.22402,-1.61221 10.428,-3.56339 15.5906,-5.79804 -5.24056,-7.74568 -9.98505,-15.9626 -14.1709,-24.6284 -23.4319,-48.5091 -24.9768,-101.943 -8.53465,-149.113 16.4433,-47.1733 50.876,-88.0701 99.3934,-111.507 48.5091,-23.4295 101.943,-24.9768 149.114,-8.53347 47.1721,16.4433 88.0701,50.8748 111.506,99.3934 17.1177,35.4378 22.5425,73.5355 17.804,109.921 -4.22126,32.3965 -16.5189,63.3993 -35.8099,89.9127l141.947 293.868 0.0507874 -0.0248032c3.28347,6.79843 2.97284,14.4024 -0.18189,20.6622l-27.0095 68.0233 -9.72993 24.5067 0.0850394 0.0425197c-0.966142,2.43307 -2.29488,4.61339 -3.90118,6.50434 -6.02953,7.09607 -15.9543,10.0996 -25.1622,7.02166 -0.412205,-0.137008 -0.823229,-0.287008 -1.23307,-0.45 -0.5563,-0.220866 -1.10079,-0.46063 -1.62992,-0.719292l-32.5087 -13.0571 -52.2201 -20.9729 -0.0377953 0.0496063c-6.14764,-2.46851 -10.6677,-7.26024 -12.9555,-12.9602l-4.59449 -9.51261 -0.870473 0.420473 -24.6024 11.8831 0.0248032 0.0507874c-11.6032,5.60434 -25.5544,0.740552 -31.1587,-10.8626 -0.23504,-0.484252 -0.45,-0.973229 -0.647245,-1.46575l-25.3536 -52.4882 -0.0496063 0.0236221c-5.60552,-11.6032 -0.741733,-25.5532 10.8614,-31.1587 0.484252,-0.233858 0.97441,-0.448819 1.46575,-0.646063l23.1461 -11.1803 0.884646 -0.427559 -5.57599 -11.5406 -0.885827 0.427559 -24.5847 11.8748 0.0236221 0.0507874c-11.6043,5.60552 -25.5555,0.741733 -31.1599,-10.8626 -0.236221,-0.487796 -0.452363,-0.981497 -0.650788,-1.47756l-25.3488 -52.4764 -0.0496063 0.0248032c-5.60434,-11.6032 -0.741733,-25.5544 10.8614,-31.1599 0.485433,-0.233858 0.975591,-0.448819 1.46693,-0.646063l23.1284 -11.1721 0.900001 -0.434646 -38.4922 -79.6902c-32.7614,-1.36536 -64.6749,-10.9902 -92.6457,-27.8044 -17.1638,-10.3181 -32.8453,-23.3221 -46.3335,-38.765 -7.66418,3.59764 -15.4583,6.68504 -23.3292,9.11457 -28.2047,8.70473 -56.8217,9.36969 -83.2949,6.48662l5.98701 235.147 0.0838583 -0.00236221c0.327166,12.8823 -9.8504,23.5925 -22.7327,23.9197 -8.00906,0.20315 -15.1772,-3.65433 -19.5343,-9.69804l-27.3555 -35.1898 -209.943 163.204 0.00944883 0.0129921c-10.1728,7.90749 -24.8339,6.07087 -32.7425,-4.10197l-0.477166 -0.638977 -252.706 -325.054c-7.90867,-10.174 -6.07323,-24.8339 4.10079,-32.7425l0.630709 -0.47126 209.321 -162.721 -27.8977 -35.863c-7.90867,-10.174 -6.07205,-24.8339 4.10197,-32.7425z"/>
   </g>
  </g>
  <path class="fil2" d="M1024 -0.0011811c565.539,0 1024,458.462 1024,1024 0,565.539 -458.462,1024 -1024,1024 -565.539,0 -1024,-458.462 -1024,-1024 0,-565.539 458.462,-1024 1024,-1024z"/>
  <path class="fil3" d="M1025.52 886.968l8.79449 345.431 0.0838583 -0.00236221c0.327166,12.8823 -9.8504,23.5925 -22.7327,23.9197 -8.00906,0.20315 -15.1772,-3.65433 -19.5343,-9.69804l-27.3555 -35.1898 -209.943 163.204 0.00944883 0.0129921c-10.1728,7.90749 -24.8339,6.07087 -32.7425,-4.10197l-0.477166 -0.638977 -252.696 -325.063 -0.0106299 0.00944883c-7.90867,-10.174 -6.07323,-24.8339 4.10079,-32.7425l0.630709 -0.47126 209.321 -162.721 -27.8858 -35.8725 -0.011811 0.00944883c-7.90867,-10.174 -6.07205,-24.8339 4.10197,-32.7425 6.42284,-4.9937 14.6327,-6.1004 21.8055,-3.67914l327.174 86.3918 0.0330709 -0.0472441c10.9488,2.89134 18.0154,13.1032 17.3351,23.9918zm-108.619 33.7477c22.024,0 39.8764,17.8524 39.8764,39.8764 0,22.024 -17.8524,39.8776 -39.8764,39.8776 -22.024,0 -39.8776,-17.8536 -39.8776,-39.8776 0,-22.024 17.8536,-39.8764 39.8776,-39.8764z"/>
  <polygon class="fil4" points="764.914,990.467 849.148,1101.06 659.951,1245.16 575.717,1134.57 "/>
  <path class="fil5" d="M916.898 913.424c13.0228,0 24.8162,5.28071 33.352,13.8165 8.53583,8.53583 13.8165,20.328 13.8165,33.352 0,13.024 -5.28071,24.8173 -13.8165,33.3532 -8.53583,8.53465 -20.3291,13.8165 -33.352,13.8165 -13.024,0 -24.8173,-5.28189 -33.3532,-13.8165 -8.53583,-8.53583 -13.8165,-20.3291 -13.8165,-33.3532 0,-13.024 5.28071,-24.8162 13.8165,-33.352 8.53583,-8.53583 20.3291,-13.8165 33.3532,-13.8165zm23.0421 24.1276c-5.89607,-5.89607 -14.0433,-9.54331 -23.0421,-9.54331 -9.00001,0 -17.1473,3.64725 -23.0421,9.54331 -5.89607,5.89489 -9.54331,14.0421 -9.54331,23.041 0,8.99883 3.64725,17.1473 9.54331,23.0421 5.89489,5.89489 14.0421,9.54331 23.0421,9.54331 8.99883,0 17.1461,-3.64843 23.0421,-9.54331 5.89489,-5.89489 9.54213,-14.0433 9.54213,-23.0421 0,-8.99883 -3.64725,-17.1461 -9.54213,-23.041z"/>
  <path class="fil6" d="M1346.18 668.946c47.1721,16.4433 88.0701,50.8748 111.506,99.3934 17.1177,35.4378 22.5425,73.5355 17.804,109.921 -4.22126,32.3965 -16.5189,63.3993 -35.8099,89.9127l141.947 293.868 0.0507874 -0.0248032c3.28347,6.79843 2.97284,14.4024 -0.18189,20.6622l-36.7394 92.53 0.0850394 0.0425197c-4.75512,11.9776 -18.3201,17.8311 -30.2965,13.076 -0.5563,-0.220866 -1.10079,-0.46063 -1.62992,-0.719292l-84.7288 -34.0299 -0.0377953 0.0496063c-6.14764,-2.46851 -10.6677,-7.26024 -12.9555,-12.9602l-4.59449 -9.51261 -25.4729 12.3036 0.0248032 0.0507874c-11.6032,5.60434 -25.5544,0.740552 -31.1587,-10.8626 -0.23504,-0.484252 -0.45,-0.973229 -0.647245,-1.46575l-25.3536 -52.4882 -0.0496063 0.0236221c-5.60552,-11.6032 -0.741733,-25.5532 10.8614,-31.1587 0.484252,-0.233858 0.97441,-0.448819 1.46575,-0.646063l24.0307 -11.6079 -5.57599 -11.5406 -25.4705 12.3024 0.0236221 0.0507874c-11.6043,5.60552 -25.5555,0.741733 -31.1599,-10.8626 -0.236221,-0.487796 -0.452363,-0.981497 -0.650788,-1.47756l-25.3488 -52.4764 -0.0496063 0.0248032c-5.60434,-11.6032 -0.741733,-25.5544 10.8614,-31.1599 0.485433,-0.233858 0.975591,-0.448819 1.46693,-0.646063l24.0284 -11.6067 -38.4922 -79.6902c-32.7614,-1.36536 -64.6749,-10.9902 -92.6457,-27.8044 -31.4693,-18.9177 -57.9544,-46.8662 -75.0792,-82.317 -23.4319,-48.5091 -24.9768,-101.943 -8.53465,-149.113 16.4433,-47.1733 50.876,-88.0701 99.3934,-111.507 48.5091,-23.4295 101.943,-24.9768 149.114,-8.53347zm-96.7796 116.876c18.5917,-8.97993 39.0827,-9.5693 57.176,-3.26103 18.0957,6.30709 33.7831,19.5118 42.7666,38.1118 8.98111,18.5929 9.57048,39.0827 3.26221,57.1772 -6.30827,18.0957 -19.5118,33.7819 -38.113,42.7666 -18.5917,8.98111 -39.0827,9.57048 -57.176,3.26103 -18.0957,-6.30709 -33.7843,-19.5118 -42.7677,-38.1118 -8.97993,-18.5929 -9.5693,-39.0827 -3.26103,-57.176 6.30709,-18.0957 19.513,-33.7843 38.113,-42.7677z"/>
  <path class="fil7" d="M1554.48 1350.7l-9.72993 24.5067 0.0850394 0.0425197c-0.966142,2.43307 -2.29488,4.61339 -3.90118,6.50434l-172.164 -357.181 23.0244 -11.3929 162.685 337.52zm-38.7083 38.0752c-0.412205,-0.13937 -0.823229,-0.287008 -1.23307,-0.45 -0.5563,-0.220866 -1.10079,-0.46063 -1.62992,-0.719292l-32.5087 -13.0571 -159.025 -329.925 23.0244 -11.3917 171.372 355.543z"/>
  <path class="fil7" d="M1409.72 1331.57l-24.6024 11.8831 0.0248032 0.0507874c-11.6032,5.60434 -25.5544,0.740552 -31.1587,-10.8626 -0.23504,-0.484252 -0.45,-0.973229 -0.647245,-1.46575l-25.3536 -52.4882 -0.0496063 0.0236221c-5.60552,-11.6032 -0.741733,-25.5532 10.8614,-31.1587 0.484252,-0.233858 0.97441,-0.448819 1.46575,-0.646063l23.1461 -11.1803 46.3134 95.8442zm-51.8906 -107.385l-24.5847 11.8748 0.0236221 0.0507874c-11.6043,5.60552 -25.5555,0.741733 -31.1599,-10.8626 -0.236221,-0.487796 -0.452363,-0.981497 -0.650788,-1.47756l-25.3488 -52.4764 -0.0496063 0.0248032c-5.60434,-11.6032 -0.741733,-25.5544 10.8614,-31.1599 0.485433,-0.233858 0.975591,-0.448819 1.46693,-0.646063l23.1284 -11.1721 46.3134 95.8442z"/>
  <path class="fil8" d="M916.848 951.065c-6.29174,1.25787 -10.3724,7.37953 -9.11457,13.6713 1.25906,6.29292 7.38071,10.3724 13.6725,9.11457 3.4689,-0.701575 15.1146,2.57835 30.6792,6.9626 39.1784,11.0362 100.269,28.2449 159.534,9.95316 67.5449,-20.8477 129.445,-90.1489 151.623,-114.979 21.8941,-23.9799 5.86418,-41.4473 -17.3173,-15.4949 -21.0366,23.5524 -79.7493,89.2855 -141.142,108.234 -52.6973,16.2638 -109.792,0.180709 -146.41,-10.1339 -18.5917,-5.23701 -32.5004,-9.15473 -41.5252,-7.32756z"/>
 </g>
</svg>
