<?xml version="1.0" encoding="UTF-8"?>
<!DOCTYPE svg PUBLIC "-//W3C//DTD SVG 1.1//EN" "http://www.w3.org/Graphics/SVG/1.1/DTD/svg11.dtd">
<!-- Creator: CorelDRAW -->
<svg xmlns="http://www.w3.org/2000/svg" xml:space="preserve" width="2048px" height="2048px" style="shape-rendering:geometricPrecision; text-rendering:geometricPrecision; image-rendering:optimizeQuality; fill-rule:evenodd; clip-rule:evenodd"
viewBox="0 0 2048 2048"
 xmlns:xlink="http://www.w3.org/1999/xlink">
 <defs>
  <style type="text/css">
   <![CDATA[
    .fil2 {fill:none}
    .fil1 {fill:#00ACC1}
    .fil0 {fill:#4DD0E1}
    .fil3 {fill:#7B1B1E}
    .fil8 {fill:#FF8F00}
    .fil4 {fill:#19252B;fill-rule:nonzero}
    .fil9 {fill:#212121;fill-rule:nonzero}
    .fil7 {fill:#263238;fill-rule:nonzero}
    .fil5 {fill:#D50000;fill-rule:nonzero}
    .fil6 {fill:#FFFFFE;fill-rule:nonzero}
   ]]>
  </style>
   <clipPath id="id0">
    <path d="M1024 -0.0011811c565.539,0 1024,458.462 1024,1024 0,565.539 -458.462,1024 -1024,1024 -565.539,0 -1024,-458.462 -1024,-1024 0,-565.539 458.462,-1024 1024,-1024z"/>
   </clipPath>
 </defs>
 <g id="Layer_x0020_1">
  <metadata id="CorelCorpID_0Corel-Layer"/>
  <path class="fil0" d="M1024 -0.0011811c565.539,0 1024,458.462 1024,1024 0,565.539 -458.462,1024 -1024,1024 -565.539,0 -1024,-458.462 -1024,-1024 0,-565.539 458.462,-1024 1024,-1024z"/>
  <g style="clip-path:url(#id0)">
   <g id="_451271072">
    <g>
     <path id="_3326230801" class="fil1" d="M2696.81 2014.99l0 0zm-1135.88 -1135.88l0 0z"/>
     <polygon id="_332622768" class="fil1" points="1580.99,826.974 2716.87,1962.86 2717.41,1963.58 2717.9,1964.33 2718.33,1965.11 2718.71,1965.92 2719.04,1966.76 1583.16,830.883 1582.83,830.04 1582.45,829.229 1582.02,828.446 1581.53,827.695 "/>
     <polygon id="_332623632" class="fil1" points="1583.19,830.871 2719.07,1966.75 2719.3,1967.47 1583.42,831.592 "/>
     <polygon id="_332623320" class="fil1" points="1583.42,831.592 2719.3,1967.47 2719.72,1969.27 2719.88,1971.01 2719.79,1972.7 2719.45,1974.32 2718.86,1975.89 2718.02,1977.39 2716.93,1978.83 2715.59,1980.21 1579.71,844.329 1581.04,842.951 1582.14,841.509 1582.98,840.005 1583.57,838.44 1583.91,836.815 1584,835.131 1583.83,833.39 "/>
     <polygon id="_332623584" class="fil1" points="1579.71,844.329 2715.59,1980.21 2714.99,1980.73 2714.34,1981.23 2713.66,1981.69 2712.93,1982.13 2712.16,1982.54 2711.35,1982.92 2710.5,1983.27 2709.61,1983.59 1573.73,847.71 1574.62,847.39 1575.47,847.039 1576.28,846.659 1577.05,846.249 1577.77,845.81 1578.46,845.344 1579.11,844.85 "/>
     <polygon id="_332623776" class="fil1" points="1573.73,847.71 2709.61,1983.59 2708.9,1983.82 2708.14,1984.03 2707.34,1984.23 2706.48,1984.42 2705.57,1984.6 2704.61,1984.77 2703.6,1984.92 2702.55,1985.06 2701.45,1985.19 2700.31,1985.3 2699.12,1985.39 2697.88,1985.47 2696.61,1985.53 2695.29,1985.58 2693.92,1985.6 2692.52,1985.61 1556.64,849.732 1558.04,849.722 1559.4,849.695 1560.72,849.649 1562,849.588 1563.24,849.509 1564.42,849.413 1565.57,849.303 1566.67,849.178 1567.72,849.038 1568.73,848.885 1569.69,848.718 1570.59,848.54 1571.45,848.349 1572.26,848.147 1573.02,847.933 "/>
     <polygon id="_332623824" class="fil1" points="1556.64,849.732 2692.52,1985.61 2673.92,1985.61 1538.04,849.732 "/>
     <polygon id="_332623656" class="fil1" points="1555.45,868.456 2691.33,2004.34 2692.44,2005.75 2693.43,2007.21 2694.32,2008.69 2695.1,2010.22 2695.78,2011.77 2696.35,2013.36 2696.82,2014.98 1560.94,879.101 1560.47,877.479 1559.9,875.891 1559.22,874.334 1558.44,872.811 1557.55,871.324 1556.56,869.871 "/>
     <polygon id="_332623464" class="fil1" points="1560.94,879.101 2696.82,2014.98 2696.89,2015.25 2696.95,2015.51 2697.01,2015.77 2697.06,2016.04 2697.12,2016.3 2697.17,2016.56 2697.21,2016.82 2697.25,2017.09 1561.37,881.205 1561.33,880.942 1561.28,880.679 1561.23,880.417 1561.18,880.153 1561.13,879.89 1561.07,879.627 1561.01,879.364 "/>
     <polygon id="_332623944" class="fil1" points="1561.37,881.205 2697.25,2017.09 2697.53,2018.8 2697.69,2020.49 2697.74,2022.14 2697.7,2023.76 2697.55,2025.35 2697.29,2026.9 2696.94,2028.42 2696.48,2029.91 2695.93,2031.37 2695.28,2032.8 2694.54,2034.19 2693.7,2035.55 2692.77,2036.88 2691.75,2038.18 2690.63,2039.45 2689.43,2040.68 1553.55,904.798 1554.75,903.564 1555.87,902.298 1556.89,901 1557.82,899.671 1558.66,898.309 1559.4,896.916 1560.05,895.489 1560.6,894.031 1561.06,892.541 1561.41,891.018 1561.66,889.464 1561.82,887.877 1561.86,886.257 1561.81,884.606 1561.64,882.922 "/>
     <polygon id="_332623968" class="fil1" points="1553.55,904.798 2689.43,2040.68 2592.67,2208.41 1456.79,1072.53 "/>
     <polygon id="_332623560" class="fil1" points="1456.79,1072.53 2592.67,2208.41 2591.67,2210.11 2590.63,2211.79 2589.54,2213.46 2588.41,2215.12 2587.23,2216.76 2585.99,2218.39 2584.7,2219.99 2583.36,2221.56 2581.96,2223.11 2580.5,2224.63 2578.98,2226.11 2577.39,2227.56 2575.74,2228.97 2574.02,2230.34 2572.23,2231.67 2570.37,2232.95 1434.49,1097.07 1436.35,1095.79 1438.14,1094.46 1439.86,1093.09 1441.51,1091.68 1443.1,1090.23 1444.62,1088.74 1446.08,1087.23 1447.48,1085.68 1448.82,1084.1 1450.11,1082.5 1451.34,1080.88 1452.53,1079.24 1453.66,1077.58 1454.75,1075.91 1455.79,1074.22 "/>
     <polygon id="_332624808" class="fil1" points="1434.49,1097.07 2570.37,2232.95 2569.4,2233.59 2568.41,2234.2 2567.41,2234.8 2566.39,2235.39 2565.35,2235.96 2564.3,2236.52 2563.24,2237.06 2562.15,2237.58 2561.05,2238.09 2559.94,2238.58 2558.8,2239.05 2557.65,2239.5 2556.48,2239.93 2555.29,2240.35 2554.09,2240.74 2552.86,2241.12 2551.62,2241.48 2550.36,2241.81 2549.08,2242.13 2547.78,2242.42 2546.46,2242.69 2545.12,2242.94 2543.77,2243.17 2542.39,2243.38 2540.99,2243.56 2539.58,2243.72 2538.14,2243.86 2536.68,2243.97 2535.2,2244.06 2533.7,2244.12 2532.18,2244.16 2530.64,2244.18 1394.76,1108.29 1396.3,1108.28 1397.82,1108.24 1399.32,1108.18 1400.8,1108.09 1402.26,1107.98 1403.7,1107.84 1405.11,1107.68 1406.51,1107.5 1407.89,1107.29 1409.24,1107.06 1410.58,1106.81 1411.9,1106.54 1413.2,1106.24 1414.48,1105.93 1415.74,1105.59 1416.98,1105.24 1418.2,1104.86 1419.41,1104.47 1420.6,1104.05 1421.77,1103.62 1422.92,1103.16 1424.05,1102.69 1425.17,1102.2 1426.27,1101.7 1427.36,1101.18 1428.42,1100.64 1429.47,1100.08 1430.51,1099.51 1431.53,1098.92 1432.53,1098.32 1433.51,1097.7 "/>
     <polygon id="_332624448" class="fil1" points="1394.76,1108.29 2530.64,2244.18 2435.24,2244.18 1299.36,1108.29 "/>
     <polygon id="_332624328" class="fil1" points="1271.35,1108.29 2407.24,2244.18 1912.53,2244.18 776.644,1108.29 "/>
     <polygon id="_332624256" class="fil1" points="1299.36,1108.29 2435.24,2244.18 2555.61,2423.48 1419.73,1287.6 "/>
     <polygon id="_332624592" class="fil1" points="1459.08,1273.78 2594.97,2409.66 2594.82,2411.32 2594.57,2412.97 2594.24,2414.6 2593.82,2416.22 2593.32,2417.82 2592.74,2419.4 2592.08,2420.96 2591.35,2422.5 2590.55,2424.01 2589.69,2425.48 2588.76,2426.93 2587.78,2428.34 2586.74,2429.72 2585.65,2431.05 2584.51,2432.35 2583.33,2433.6 1447.44,1297.72 1448.63,1296.47 1449.77,1295.17 1450.86,1293.83 1451.9,1292.46 1452.88,1291.05 1453.81,1289.6 1454.67,1288.12 1455.47,1286.62 1456.2,1285.08 1456.85,1283.52 1457.44,1281.94 1457.94,1280.34 1458.36,1278.72 1458.69,1277.08 1458.93,1275.44 "/>
     <polygon id="_332624352" class="fil1" points="1447.44,1297.72 2583.33,2433.6 2582.48,2434.44 2581.62,2435.25 2580.74,2436.05 2579.83,2436.83 2578.91,2437.58 2577.97,2438.31 2577.02,2439.01 2576.05,2439.7 2575.07,2440.35 2574.08,2440.98 2573.07,2441.57 2572.06,2442.14 2571.05,2442.68 2570.02,2443.19 2568.99,2443.67 2567.96,2444.11 1432.08,1308.23 1433.11,1307.79 1434.14,1307.31 1435.16,1306.8 1436.18,1306.26 1437.19,1305.69 1438.2,1305.09 1439.19,1304.47 1440.17,1303.81 1441.14,1303.13 1442.09,1302.43 1443.03,1301.7 1443.95,1300.94 1444.85,1300.17 1445.74,1299.37 1446.6,1298.55 "/>
     <polygon id="_332624568" class="fil1" points="1432.08,1308.23 2567.96,2444.11 2566.75,2444.59 2565.53,2445.02 2564.31,2445.41 2563.09,2445.75 2561.86,2446.04 2560.63,2446.28 2559.4,2446.48 2558.18,2446.62 2556.96,2446.7 2555.74,2446.74 2554.53,2446.72 2553.33,2446.64 2552.14,2446.51 2550.96,2446.31 2549.79,2446.06 2548.63,2445.75 1412.75,1309.87 1413.9,1310.18 1415.07,1310.43 1416.26,1310.62 1417.45,1310.76 1418.65,1310.83 1419.86,1310.86 1421.08,1310.82 1422.3,1310.73 1423.52,1310.59 1424.75,1310.4 1425.98,1310.16 1427.21,1309.87 1428.43,1309.53 1429.65,1309.14 1430.87,1308.71 "/>
     <polygon id="_332624736" class="fil1" points="1412.75,1309.87 2548.63,2445.75 2546.86,2445.14 2545.14,2444.39 2543.5,2443.49 2541.93,2442.45 2540.44,2441.25 2539.03,2439.9 1403.15,1304.02 1404.56,1305.37 1406.05,1306.57 1407.62,1307.61 1409.26,1308.51 1410.97,1309.26 "/>
     <polygon id="_332624832" class="fil1" points="1456.16,1265.36 2592.05,2401.24 2593.36,2403.05 2594.32,2405.08 2594.87,2407.31 2594.97,2409.66 1459.08,1273.78 1458.99,1271.42 1458.44,1269.2 1457.48,1267.17 "/>
     <polygon id="_332624376" class="fil1" points="488.694,879.536 1624.58,2015.42 1622.93,2015 487.053,879.12 "/>
     <polygon id="_332624544" class="fil1" points="608.267,1264.4 1744.15,2400.28 1745.67,2401.91 1746.86,2403.82 1747.66,2405.97 1748.04,2408.29 612.154,1272.41 611.78,1270.08 610.974,1267.94 609.787,1266.03 "/>
     <polygon id="_332625168" class="fil1" points="635.249,1309.87 1771.13,2445.75 1769.98,2446.06 1768.81,2446.31 1767.62,2446.51 1766.43,2446.64 1765.23,2446.72 1764.02,2446.74 1762.8,2446.7 1761.58,2446.62 1760.36,2446.48 1759.13,2446.28 1757.9,2446.04 1756.67,2445.75 1755.45,2445.41 1754.23,2445.02 1753.01,2444.59 1751.8,2444.11 615.921,1308.23 617.13,1308.71 618.347,1309.14 619.568,1309.53 620.793,1309.87 622.021,1310.16 623.248,1310.4 624.476,1310.59 625.701,1310.73 626.923,1310.82 628.139,1310.86 629.35,1310.83 630.552,1310.76 631.744,1310.62 632.925,1310.43 634.094,1310.18 "/>
     <polygon id="_332625336" class="fil1" points="615.921,1308.23 1751.8,2444.11 1750.77,2443.67 1749.74,2443.19 1748.72,2442.68 1747.7,2442.14 1746.69,2441.57 1745.68,2440.98 1744.69,2440.35 1743.71,2439.7 1742.74,2439.01 1741.79,2438.31 1740.85,2437.58 1739.93,2436.83 1739.03,2436.05 603.145,1300.17 604.049,1300.94 604.971,1301.7 605.91,1302.43 606.863,1303.13 607.831,1303.81 608.811,1304.47 609.804,1305.09 610.805,1305.69 611.816,1306.26 612.834,1306.8 613.858,1307.31 614.888,1307.79 "/>
     <polygon id="_332625360" class="fil1" points="612.154,1272.41 1748.04,2408.29 1748.19,2409.39 1748.49,2410.51 1748.95,2411.65 1749.54,2412.8 1750.26,2413.94 1751.09,2415.08 1752.01,2416.2 1753.02,2417.29 617.139,1281.4 616.128,1280.32 615.205,1279.2 614.378,1278.06 613.663,1276.91 613.071,1275.77 612.613,1274.63 612.304,1273.5 "/>
     <polygon id="_332624952" class="fil1" points="617.139,1281.4 1753.02,2417.29 1753.9,2418.15 1754.82,2418.96 618.937,1283.08 618.023,1282.26 "/>
     <polygon id="_332625072" class="fil1" points="647.395,1300.83 1783.28,2436.72 1782.05,2438.39 1780.73,2439.9 1779.32,2441.25 1777.83,2442.45 1776.26,2443.49 1774.62,2444.39 1772.91,2445.14 1771.13,2445.75 635.249,1309.87 637.025,1309.26 638.736,1308.51 640.379,1307.61 641.949,1306.57 643.44,1305.37 644.849,1304.02 646.169,1302.51 "/>
     <polygon id="_332625480" class="fil1" points="653.24,1108.29 1789.12,2244.18 1787.58,2244.16 1786.06,2244.12 1784.56,2244.06 1783.08,2243.97 1781.62,2243.86 1780.19,2243.72 1778.77,2243.56 1777.37,2243.38 1776,2243.17 1774.64,2242.95 1773.3,2242.69 1771.98,2242.42 1770.68,2242.13 1769.4,2241.81 1768.14,2241.48 1766.9,2241.12 1765.68,2240.74 1764.47,2240.35 1763.28,2239.93 1762.11,2239.5 1760.96,2239.05 1759.83,2238.58 1758.71,2238.09 1757.61,2237.58 1756.53,2237.06 1755.46,2236.52 1754.41,2235.96 1753.37,2235.39 1752.36,2234.81 1751.35,2234.2 1750.37,2233.59 1749.39,2232.95 613.513,1097.07 614.484,1097.7 615.472,1098.32 616.474,1098.92 617.493,1099.51 618.527,1100.08 619.577,1100.64 620.645,1101.18 621.728,1101.7 622.829,1102.21 623.946,1102.69 625.081,1103.16 626.233,1103.62 627.403,1104.05 628.59,1104.47 629.796,1104.86 631.02,1105.24 632.262,1105.59 633.524,1105.93 634.803,1106.24 636.102,1106.54 637.42,1106.81 638.757,1107.06 640.114,1107.29 641.49,1107.5 642.888,1107.68 644.305,1107.84 645.741,1107.98 647.2,1108.09 648.677,1108.18 650.177,1108.24 651.697,1108.28 "/>
     <polygon id="_332624904" class="fil1" points="613.513,1097.07 1749.39,2232.95 1747.53,2231.67 1745.74,2230.34 1744.02,2228.97 1742.37,2227.56 1740.78,2226.11 604.903,1090.23 606.489,1091.68 608.142,1093.09 609.861,1094.46 611.651,1095.79 "/>
     <polygon id="_332625048" class="fil1" points="491.359,849.732 1627.24,1985.61 1625.84,1985.6 1624.48,1985.58 1623.16,1985.53 1621.88,1985.47 1620.65,1985.39 1619.46,1985.3 1618.31,1985.19 1617.21,1985.06 1616.16,1984.92 1615.15,1984.77 1614.2,1984.6 1613.29,1984.42 1612.43,1984.23 1611.62,1984.03 1610.86,1983.82 1610.15,1983.59 474.271,847.71 474.977,847.933 475.737,848.147 476.546,848.349 477.405,848.54 478.315,848.718 479.273,848.885 480.279,849.038 481.331,849.178 482.431,849.303 483.576,849.413 484.765,849.509 485.999,849.588 487.276,849.649 488.595,849.695 489.957,849.722 "/>
     <polygon id="_332624880" class="fil1" points="509.964,849.732 1645.84,1985.61 1627.24,1985.61 491.359,849.732 "/>
     <polygon id="_332625240" class="fil1" points="474.271,847.71 1610.15,1983.59 1609.26,1983.27 1608.41,1982.92 1607.6,1982.54 1606.83,1982.13 1606.11,1981.69 1605.42,1981.23 1604.78,1980.73 1604.17,1980.21 468.293,844.329 468.894,844.85 469.539,845.344 470.226,845.81 470.953,846.249 471.722,846.659 472.532,847.039 473.381,847.39 "/>
     <polygon id="_332625840" class="fil1" points="748.639,1108.29 1884.52,2244.18 1789.12,2244.18 653.24,1108.29 "/>
     <polygon id="_332626296" class="fil1" points="776.644,1108.29 1912.53,2244.18 1783.28,2436.72 647.395,1300.83 "/>
    </g>
    <path id="_451272296" class="fil1" d="M1560.93 879.105l0 0zm-907.691 -141.96l741.52 0c14.6941,0 26.3008,2.4815 35.687,6.32126l0.0283465 -0.0708662c0.872835,0.356693 1.71024,0.761812 2.51457,1.20709 9.06497,4.12677 15.6083,9.38623 20.7047,14.8406l30.2327 32.3658c2.09528,-2.00551 4.93701,-3.23859 8.06575,-3.23859l28.7315 0c5.40591,0 9.67087,0.702756 13.1102,1.78937 4.03465,1.27441 6.97441,3.07914 9.28229,4.98544l35.9162 29.661c1.95709,1.62047 3.32835,3.59292 4.12559,5.87717l0.034252 -0.011811 0.22441 0.721654c1.45039,4.86851 0.187795,9.14646 -3.71103,12.737 -1.54606,1.42559 -3.55512,2.56654 -5.97756,3.38032 -3.63071,1.2189 -9.50198,2.02205 -17.0882,2.02205l-18.6047 0 16.2024 17.3457c3.38622,3.62362 5.57953,7.65827 6.70276,12.0236 0.178347,0.701575 0.320079,1.40315 0.432284,2.10354 1.72795,9.24331 -1.17638,17.0965 -7.82245,23.5937l-96.7583 167.731c-5.2252,9.05788 -12.1772,17.8264 -22.3075,24.5421 -10.2768,6.81378 -23.1638,11.2217 -39.7252,11.2217l-95.3989 0 120.365 179.309c0.787796,0.0696851 2.03386,-0.263386 3.5126,-0.875198 2.61851,-1.08307 5.30906,-2.96693 7.62048,-5.32323 2.8004,-2.85473 4.80945,-6.12284 4.98662,-8.99292 0.376772,-6.41693 5.88544,-11.3126 12.3024,-10.9347 6.41693,0.376772 11.3126,5.88544 10.9358,12.3024 -0.546851,8.86418 -5.21693,17.3906 -11.6398,23.9374 -4.43032,4.51654 -9.8504,8.23465 -15.3662,10.5165 -6.43111,2.66221 -13.2083,3.46299 -19.3288,1.63583 -4.813,-1.44095 -9.00355,-4.35355 -12.1453,-9.03426l-129.249 -192.541 -494.711 0 -129.249 192.541c-3.14055,4.68071 -7.33229,7.59331 -12.1453,9.03426 -6.12048,1.82717 -12.8976,1.02638 -19.3288,-1.63583 -5.51457,-2.28189 -10.9358,-6 -15.3662,-10.5165 -6.42166,-6.54686 -11.0929,-15.0732 -11.6386,-23.9374 -0.377953,-6.41693 4.5189,-11.9256 10.9347,-12.3024 6.41693,-0.377953 11.9256,4.51772 12.3036,10.9347 0.175984,2.87008 2.18622,6.13819 4.98544,8.99292 2.31142,2.3563 5.00197,4.24016 7.62048,5.32323 1.47992,0.611811 2.72599,0.944883 3.51378,0.875198l120.365 -179.309 -95.3989 0c-16.5626,0 -29.4473,-4.4067 -39.7264,-11.2217 -10.1291,-6.71457 -17.0823,-15.4843 -22.3063,-24.5421l-96.756 -167.728c-7.12323,-6.95788 -9.9508,-15.4784 -7.38544,-25.5981l1.6063 0.401575c0.00708662,-0.022441 0.0153543,-0.0448819 0.022441,-0.068504l-1.64173 -0.415748c0.168898,-0.661418 0.364961,-1.30866 0.584646,-1.94173 1.22362,-3.63425 3.24095,-7.01575 6.12402,-10.1008l16.2024 -17.3457 -18.6047 0c-7.58623,0 -13.4575,-0.80315 -17.0882,-2.02205 -2.42244,-0.81378 -4.4315,-1.95473 -5.97756,-3.38032 -3.89882,-3.59055 -5.16142,-7.86851 -3.71103,-12.737l0.22441 -0.721654 0.034252 0.011811c0.797245,-2.28425 2.16851,-4.2567 4.12559,-5.87717l35.9162 -29.661c2.30788,-1.9063 5.24764,-3.71103 9.28229,-4.98544 3.43937,-1.08662 7.70434,-1.78937 13.1102,-1.78937l28.7315 0c3.12874,0 5.97048,1.23307 8.06575,3.23859l30.2327 -32.3658c5.55709,-5.94922 12.8398,-11.6646 23.2311,-15.9343l-0.011811 -0.0318898 0.0295276 -0.011811 -0.0295276 -0.0720473c0.722835,-0.296457 1.45158,-0.551575 2.18622,-0.77126 8.9941,-3.35433 19.9417,-5.47678 33.5292,-5.47678z"/>
   </g>
  </g>
  <path class="fil2" d="M1024 -0.0011811c565.539,0 1024,458.462 1024,1024 0,565.539 -458.462,1024 -1024,1024 -565.539,0 -1024,-458.462 -1024,-1024 0,-565.539 458.462,-1024 1024,-1024z"/>
  <polygon class="fil3" points="616.183,769.724 1445.45,769.724 1518.35,885.153 528.091,886.671 "/>
  <path class="fil4" d="M1491.99 788.57c-6.44174,0 -11.6646,5.22284 -11.6646,11.6646 0,6.44174 5.22284,11.6646 11.6646,11.6646l28.7315 0c2.82402,0 4.75512,0.274016 6.09213,0.69567 0.742914,0.233858 1.17284,0.474804 1.44685,0.701575l15.8705 13.1067 -30.1016 0c-6.44174,0 -11.6658,5.22284 -11.6658,11.6646 0,6.44174 5.22402,11.6646 11.6658,11.6646l42.6083 0c7.58623,0 13.4575,-0.80315 17.0882,-2.02205 2.42244,-0.81378 4.4315,-1.95473 5.97756,-3.38032 3.89882,-3.59055 5.16142,-7.86851 3.71103,-12.737 -0.0673229,-0.240945 -0.141732,-0.48189 -0.22441,-0.721654l-0.034252 0.011811c-0.797245,-2.28425 -2.16851,-4.2567 -4.12559,-5.87717l-35.9162 -29.661c-2.30788,-1.9063 -5.24764,-3.71103 -9.28229,-4.98544 -3.43937,-1.08662 -7.70434,-1.78937 -13.1102,-1.78937l-28.7315 0z"/>
  <path class="fil4" d="M556.007 811.899c6.44174,0 11.6646,-5.22284 11.6646,-11.6646 0,-6.44174 -5.22284,-11.6646 -11.6646,-11.6646l-28.7315 0c-5.40591,0 -9.67087,0.702756 -13.1102,1.78937 -4.03465,1.27441 -6.97441,3.07914 -9.28229,4.98544l-35.9162 29.661c-1.95709,1.62047 -3.32835,3.59292 -4.12559,5.87717l-0.034252 -0.011811c-0.0826772,0.239764 -0.157087,0.480709 -0.22441,0.721654 -1.45039,4.86851 -0.187795,9.14646 3.71103,12.737 1.54606,1.42559 3.55512,2.56654 5.97756,3.38032 3.63071,1.2189 9.50198,2.02205 17.0882,2.02205l42.6083 0c6.44174,0 11.6658,-5.22284 11.6658,-11.6646 0,-6.44174 -5.22402,-11.6646 -11.6658,-11.6646l-30.1016 0 15.8705 -13.1067c0.274016,-0.226772 0.703938,-0.467717 1.44685,-0.701575 1.33701,-0.421654 3.26811,-0.69567 6.09213,-0.69567l28.7315 0z"/>
  <path class="fil5" d="M530.941 875.088c-6.39213,-11.1213 -20.5902,-14.9563 -31.7126,-8.56536 -11.1224,6.39213 -14.9575,20.5902 -8.56536,31.7126l100.544 174.294c5.22402,9.05788 12.1772,17.8276 22.3063,24.5421 10.2791,6.81497 23.1638,11.2217 39.7264,11.2217l741.52 0c16.5614,0 29.4484,-4.40788 39.7252,-11.2217 10.1303,-6.71575 17.0823,-15.4843 22.3075,-24.5421l100.544 -174.294c6.39095,-11.1224 2.55591,-25.3205 -8.56654,-31.7126 -11.1213,-6.39095 -25.3205,-2.55591 -31.7126,8.56536l-26.5347 25.3063 -928.907 5.24646 -30.6744 -30.5528z"/>
  <path class="fil6" d="M612.154 1272.41c-0.377953,-6.41693 -5.88662,-11.3126 -12.3036,-10.9347 -6.41575,0.376772 -11.3126,5.88544 -10.9347,12.3024 0.54567,8.86418 5.21693,17.3906 11.6386,23.9374 4.43032,4.51654 9.85158,8.23465 15.3662,10.5165 6.43111,2.66221 13.2083,3.46299 19.3288,1.63583 4.813,-1.44095 9.00473,-4.35355 12.1453,-9.03426l147.736 -220.081c3.57284,-5.33386 2.14488,-12.5575 -3.18898,-16.1291 -5.33504,-3.57284 -12.5575,-2.14488 -16.1291,3.18898l-147.539 219.789c-0.787796,0.0696851 -2.03386,-0.263386 -3.51378,-0.875198 -2.61851,-1.08307 -5.30906,-2.96693 -7.62048,-5.32323 -2.79921,-2.85473 -4.80945,-6.12284 -4.98544,-8.99292z"/>
  <path class="fil6" d="M1459.08 1273.78c0.376772,-6.41693 -4.5189,-11.9256 -10.9358,-12.3024 -6.41693,-0.377953 -11.9256,4.51772 -12.3024,10.9347 -0.177165,2.87008 -2.18622,6.13819 -4.98662,8.99292 -2.31142,2.3563 -5.00197,4.24016 -7.62048,5.32323 -1.47874,0.611811 -2.72481,0.944883 -3.5126,0.875198l-147.539 -219.789c-3.57284,-5.33386 -10.7953,-6.76182 -16.1291,-3.18898 -5.33504,3.57166 -6.76182,10.7953 -3.19016,16.1291l147.736 220.081c3.14173,4.68071 7.33229,7.59331 12.1453,9.03426 6.12048,1.82717 12.8976,1.02638 19.3288,-1.63583 5.51575,-2.28189 10.9358,-6 15.3662,-10.5165 6.42284,-6.54686 11.0929,-15.0732 11.6398,-23.9374z"/>
  <path class="fil7" d="M653.24 737.144l741.52 0c14.6941,0 26.3008,2.4815 35.687,6.32126l0.0283465 -0.0708662c0.872835,0.356693 1.71024,0.761812 2.51457,1.20709 9.06497,4.12677 15.6083,9.38623 20.7047,14.8406l100.544 107.635c3.38622,3.62362 5.57953,7.65827 6.69213,12.0272l0.0106299 -0.00354331c0.178347,0.701575 0.320079,1.40315 0.432284,2.10354 1.91693,10.2532 -1.86732,18.7973 -10.135,25.6748 -3.76654,3.12874 -8.55473,5.69056 -13.9689,7.64646 -10.9299,3.95197 -27.2232,6.56103 -41.9658,6.56103l-942.608 0c-14.7425,0 -31.037,-2.60906 -41.9658,-6.56103 -5.41418,-1.95591 -10.2024,-4.51772 -13.9689,-7.64646 -8.80158,-7.31693 -12.5221,-16.526 -9.69568,-27.6768l22.6004 5.6504 -22.6134 -5.73308c0.168898,-0.661418 0.364961,-1.30866 0.584646,-1.94173 1.22362,-3.63425 3.24095,-7.01575 6.12402,-10.1008l100.544 -107.635c5.55709,-5.94922 12.8398,-11.6646 23.2311,-15.9343l-0.011811 -0.0318898 0.0295276 -0.011811 -0.0295276 -0.0720473c0.722835,-0.296457 1.45158,-0.551575 2.18622,-0.77126 8.9941,-3.35433 19.9417,-5.47678 33.5292,-5.47678zm741.52 46.6583l-741.52 0c-7.50473,0 -12.8858,0.855119 -16.7929,2.21693 -0.407481,0.193701 -0.822048,0.380315 -1.24488,0.552756l-8.8382 -21.5894 8.74843 21.5067c-2.93977,1.20236 -5.06693,2.88898 -6.7252,4.66536l-77.7686 83.2524c0.693308,0.0129921 1.38543,0.0212599 2.07756,0.0212599l942.608 0c0.692127,0 1.38425,-0.00826772 2.07638,-0.0212599l-77.7686 -83.2524c-1.3878,-1.48583 -3.10276,-2.90906 -5.34922,-4.03937 -0.491339,-0.164173 -0.980316,-0.343701 -1.46693,-0.543308l8.84056 -21.5894 -8.84056 21.5067c-3.98386,-1.6311 -9.70158,-2.68701 -18.0354,-2.68701z"/>
  <rect class="fil8" x="841.035" y="970.341" width="365.93" height="59.2337" rx="17.3138" ry="17.3138"/>
  <path class="fil9" d="M709.32 757.473c1.98071,-2.26536 1.7504,-5.70827 -0.51378,-7.68898 -2.26417,-1.98189 -5.70827,-1.75158 -7.68898,0.512599 -9.89174,11.3268 -19.7953,22.6583 -29.7036,33.9874 -9.90709,11.328 -19.8225,22.6571 -29.7366,33.9803 -7.71615,8.81103 -15.424,17.6291 -23.1272,26.4449 -12.0874,13.8295 -24.1784,27.6614 -36.313,41.4803 -1.98071,2.26417 -1.75158,5.70827 0.51378,7.68898 2.26417,1.98071 5.70709,1.75158 7.68898,-0.51378 12.1335,-13.8177 24.2244,-27.6508 36.3118,-41.4803 7.70434,-8.81457 15.4122,-17.6327 23.1272,-26.4437 9.91418,-11.3232 19.8307,-22.6524 29.7378,-33.9803 9.90709,-11.3291 19.8118,-22.6606 29.7036,-33.9874z"/>
  <path class="fil9" d="M759.583 757.139c1.80354,-2.41772 1.3063,-5.84174 -1.11142,-7.64646 -2.41772,-1.80354 -5.84174,-1.3063 -7.64528,1.11142 -8.44725,11.3268 -16.9075,22.6595 -25.3701,33.9874l-25.3831 33.9792c-22.3642,29.8949 -16.924,22.5957 -25.4232,33.9685 -8.46379,11.3244 -16.9252,22.65 -25.3713,33.9709 -1.80473,2.41772 -1.30748,5.84174 1.11024,7.64646 2.41772,1.80354 5.84174,1.3063 7.64646,-1.11142 8.44725,-11.3197 16.9075,-22.6465 25.3713,-33.9709 25.428,-34.0217 19.95,-26.7095 25.3795,-33.9673l25.4268 -33.9803c8.4626,-11.328 16.9228,-22.6606 25.3701,-33.9874z"/>
  <path class="fil9" d="M809.826 756.734c1.57914,-2.55945 0.785434,-5.91733 -1.77402,-7.49764 -2.55827,-1.58032 -5.91615,-0.786615 -7.49646,1.77284 -7.00276,11.3268 -14.0185,22.6595 -21.0378,33.9874 -7.01812,11.3291 -14.0457,22.6583 -21.0697,33.9803 -7.02402,11.3185 -14.0504,22.6441 -21.0697,33.9685 -7.0193,11.3232 -14.0351,22.65 -21.0378,33.9697 -1.58032,2.55945 -0.786615,5.91733 1.77284,7.49764 2.55945,1.58032 5.91733,0.786615 7.49764,-1.77284 7.00158,-11.3209 14.0185,-22.6465 21.0378,-33.9709 7.0193,-11.3232 14.0457,-22.65 21.0697,-33.9685 7.02402,-11.3221 14.0516,-22.65 21.0697,-33.9792 7.0193,-11.328 14.0339,-22.6606 21.0378,-33.9874z"/>
  <path class="fil9" d="M860.068 756.264c1.32047,-2.70118 0.200788,-5.96221 -2.49921,-7.28386 -2.7,-1.32047 -5.96221,-0.200788 -7.28268,2.49921 -3.07205,6.25985 -8.81339,17.9339 -16.7043,33.9673 -5.57481,11.328 -11.1579,22.6571 -16.7374,33.9792 -5.57953,11.3185 -11.1614,22.6441 -16.7362,33.9685 -3.37205,6.8504 -8.51812,17.3173 -16.7043,33.991 -1.32047,2.70118 -0.200788,5.96221 2.49921,7.28386 2.7,1.32047 5.96221,0.200788 7.28268,-2.49921 2.92914,-5.96693 8.92678,-18.1524 16.7043,-33.9485 5.57481,-11.3244 11.1567,-22.65 16.7362,-33.9697 5.57953,-11.3209 11.1626,-22.65 16.7362,-33.978 3.25985,-6.62481 8.65985,-17.6162 16.7055,-34.0099z"/>
  <path class="fil9" d="M910.288 755.73c1.0252,-2.8311 -0.437008,-5.95867 -3.26811,-6.98504 -2.82992,-1.0252 -5.95867,0.438189 -6.98386,3.26811 -4.11378,11.3268 -8.24056,22.6595 -12.3709,33.9886 -4.13032,11.3291 -8.26772,22.6583 -12.4028,33.9792 -4.13504,11.3185 -8.27363,22.6441 -12.4028,33.9685 -4.13032,11.3232 -8.25827,22.65 -12.3721,33.9697 -1.0252,2.8311 0.437008,5.95867 3.26811,6.98504 2.82992,1.0252 5.95867,-0.438189 6.98386,-3.26811 4.11378,-11.3209 8.24056,-22.6465 12.3721,-33.9709 4.12914,-11.3232 8.26772,-22.65 12.4016,-33.9685 4.13622,-11.3209 8.27363,-22.65 12.4039,-33.9792 4.12914,-11.328 8.25709,-22.6606 12.3709,-33.9874z"/>
  <path class="fil9" d="M960.553 755.11c0.683859,-2.93622 -1.14331,-5.87245 -4.07953,-6.5563 -2.93622,-0.683859 -5.87245,1.14213 -6.5563,4.07835 -2.0811,8.82638 -4.84252,20.4898 -8.03741,33.9685 -2.68583,11.328 -5.37874,22.6571 -8.0693,33.978 -2.69173,11.3197 -5.38465,22.6465 -8.07048,33.9697 -2.2311,9.40158 -4.81654,20.328 -8.03741,33.991 -0.683859,2.93622 1.14213,5.87245 4.07835,6.5563 2.93622,0.683859 5.87363,-1.14213 6.55749,-4.07835 2.11654,-8.97875 4.89449,-20.7047 8.03741,-33.9496 2.68583,-11.3232 5.37874,-22.65 8.0693,-33.9685 2.69173,-11.3221 5.38465,-22.65 8.07048,-33.9792 2.17677,-9.17953 4.77756,-20.1803 8.03741,-34.0099z"/>
  <path class="fil9" d="M1010.74 754.47c0.329528,-2.99528 -1.83071,-5.69292 -4.82717,-6.02363 -2.99528,-0.329528 -5.69292,1.83071 -6.02245,4.82717 -2.42953,21.6792 -4.82126,43.3725 -7.20827,65.041l-0.32126 2.92559 5.42363 0.598819 -5.43426 -0.598819c-0.0141732,0.122835 -0.022441,0.244488 -0.0283465,0.364961l-0.120473 1.10079 -0.00236221 0 0 0.00236221 -0.0106299 -0.0011811c-0.011811,0.108662 -0.0188977,0.217323 -0.0248032,0.323622 -2.36103,21.4288 -4.72559,42.9012 -7.24371,66.1701 -0.318898,2.99528 1.85197,5.68347 4.84725,6.00237 2.99646,0.317717 5.68347,-1.85315 6.00237,-4.84843 2.25355,-20.8193 4.74804,-43.467 7.24371,-66.1288 0.0177165,-0.10748 0.0330709,-0.214961 0.046063,-0.323622l-0.199606 -0.0212599 0.00708662 -0.0188977 0.18189 0.0188977 0.119291 -1.08071c0.0200788,-0.119291 0.0377953,-0.240945 0.0519685,-0.362599l-0.0106299 -0.0011811 0.322441 -2.92559c2.38701,-21.6685 4.77756,-43.3618 7.20827,-65.041z"/>
  <path class="fil9" d="M1060.74 753.821c-0.034252,-3.00709 -2.50158,-5.41654 -5.50985,-5.38229 -3.00709,0.034252 -5.41654,2.50158 -5.38229,5.50985 0.330709,21.5138 0.700394,42.7595 1.06772,63.9851l0.0696851 4.00394c0.196063,11.3197 0.394488,22.6465 0.596457,33.9673 0.201969,11.3221 0.411024,22.6441 0.629528,33.9579 0.046063,3.00709 2.52284,5.40709 5.53111,5.36103 3.00709,-0.0472441 5.40709,-2.52402 5.36103,-5.53229 -0.218504,-11.3126 -0.427559,-22.6347 -0.629528,-33.9567 -0.201969,-11.3209 -0.399213,-22.6477 -0.596457,-33.9685l-0.0696851 -4.00276c-0.369685,-21.3945 -0.742914,-42.8162 -1.06772,-63.9426z"/>
  <path class="fil9" d="M1110.68 753.116c-0.425197,-2.98465 -3.18898,-5.05985 -6.17363,-4.63465 -2.98465,0.424016 -5.05985,3.1878 -4.63465,6.17245 1.61929,11.3268 3.25158,22.6606 4.88741,33.9898 1.63465,11.328 3.27874,22.6571 4.91811,33.978l0.207874 1.42913c3.32362,22.9335 6.64489,45.8422 9.68387,66.5174 0.435827,2.98465 3.21024,5.04922 6.19489,4.61339 2.98347,-0.435827 5.04922,-3.21024 4.61339,-6.19489 -3.47244,-23.6244 -6.58347,-45.0768 -9.68505,-66.4737l-0.206693 -1.42913c-1.63937,-11.3209 -3.28347,-22.65 -4.91811,-33.978 -1.63583,-11.3291 -3.26811,-22.663 -4.88741,-33.9898z"/>
  <path class="fil9" d="M1160.63 752.476c-0.779528,-2.91378 -3.77244,-4.64528 -6.68623,-3.86693 -2.9126,0.778347 -4.6441,3.77244 -3.86575,6.68504 3.89646,14.4071 6.82441,25.2047 9.21851,34.011 5.06811,18.639 0.882284,3.1878 9.27402,33.978 3.08386,11.3209 6.17126,22.6465 9.26221,33.9685 3.09095,11.3221 6.19016,22.6441 9.29764,33.9567 0.788977,2.90197 3.78307,4.61339 6.68504,3.82323 2.90197,-0.788977 4.61221,-3.78307 3.82323,-6.68504 -3.10748,-11.3138 -6.2067,-22.6358 -9.29646,-33.9567 -3.09213,-11.3221 -6.17953,-22.6477 -9.26339,-33.9685 -2.22166,-8.14961 1.99843,7.32048 -9.2315,-33.978 -3.76536,-13.8508 -6.98741,-25.7209 -9.21733,-33.9673z"/>
  <path class="fil9" d="M1210.4 751.877c-1.10787,-2.79567 -4.27441,-4.16221 -7.07008,-3.05433 -2.79449,1.10787 -4.16221,4.27559 -3.05433,7.07008 4.50827,11.3268 9.02953,22.6606 13.5532,33.9898 8.2689,20.7059 11.6728,29.2181 13.5839,33.9981l2.50748 6.26575c8.2252,20.5559 16.4551,41.1201 24.7181,61.6595 1.12087,2.79567 4.29685,4.15394 7.09134,3.03425 2.79449,-1.12087 4.15394,-4.29685 3.03307,-7.09134 -8.263,-20.5394 -16.4929,-41.1036 -24.7181,-61.6595l-2.50748 -6.26575 -13.5839 -33.9567c-4.52363,-11.3291 -9.04489,-22.663 -13.5532,-33.9898z"/>
  <path class="fil9" d="M1260.15 751.343c-1.40433,-2.66575 -4.70315,-3.68859 -7.3689,-2.28543 -2.66575,1.40315 -3.68977,4.70315 -2.28543,7.3689 5.95276,11.3268 11.9173,22.6618 17.8866,33.9898 5.96811,11.3291 11.9457,22.6595 17.9173,33.978l4.01929 7.61457c10.6099,20.1071 21.2232,40.2201 31.8721,60.3107 1.40315,2.66575 4.70315,3.68859 7.3689,2.28543 2.66575,-1.40433 3.68859,-4.70315 2.28543,-7.3689 -10.6488,-20.0906 -21.2634,-40.2036 -31.8733,-60.3107l-4.01811 -7.61457c-5.97284,-11.3185 -11.9492,-22.6488 -17.9173,-33.978 -5.9693,-11.3291 -11.935,-22.663 -17.8866,-33.9898z"/>
  <path class="fil9" d="M1309.97 750.916c-1.63937,-2.52284 -5.01496,-3.24095 -7.53898,-1.60158 -2.52402,1.63937 -3.24095,5.01615 -1.60158,7.54016 11.9374,18.2799 19.0689,29.1957 22.2189,34.0087 7.41142,11.328 14.8323,22.6583 22.2508,33.9803 5.7815,8.82166 11.5547,17.6516 17.3232,26.4768 7.28859,11.1496 14.4945,22.1752 27.1701,41.4485 1.65236,2.51103 5.02796,3.20906 7.54016,1.55788 2.51103,-1.65118 3.21024,-5.02796 1.55788,-7.53898 -5.48504,-8.34095 -16.3488,-24.9591 -27.1276,-41.4485 -5.76851,-8.8252 -11.5417,-17.6551 -17.3221,-26.4768 -7.41969,-11.3221 -14.8394,-22.6524 -22.252,-33.9803 -11.6764,-17.8429 -19.3618,-29.5914 -22.2189,-33.9662z"/>
  <path class="fil9" d="M1359.68 750.532c-1.85079,-2.37047 -5.27599,-2.79095 -7.64646,-0.940158 -2.37047,1.85079 -2.79095,5.27599 -0.940158,7.64646 8.84174,11.3268 17.6953,22.6595 26.5524,33.9874 8.85709,11.328 17.7225,22.6583 26.5855,33.9792 6.92717,8.84883 13.8449,17.7036 20.7603,26.5547 12.3874,15.8551 24.8492,31.8059 32.3776,41.3929 1.8626,2.37047 5.29725,2.7815 7.66772,0.918898 2.37047,-1.86378 2.7815,-5.29725 0.918898,-7.66772 -14.1189,-17.9776 -23.2122,-29.6173 -32.3776,-41.3504 -6.91536,-8.85119 -13.8331,-17.7059 -20.7603,-26.5536 -8.863,-11.3221 -17.7284,-22.6524 -26.5855,-33.9803 -8.85709,-11.328 -17.7106,-22.6606 -26.5524,-33.9874z"/>
 </g>
</svg>
