<?xml version="1.0" encoding="UTF-8"?>
<!DOCTYPE svg PUBLIC "-//W3C//DTD SVG 1.1//EN" "http://www.w3.org/Graphics/SVG/1.1/DTD/svg11.dtd">
<!-- Creator: CorelDRAW -->
<svg xmlns="http://www.w3.org/2000/svg" xml:space="preserve" width="2048px" height="2048px" style="shape-rendering:geometricPrecision; text-rendering:geometricPrecision; image-rendering:optimizeQuality; fill-rule:evenodd; clip-rule:evenodd"
viewBox="0 0 2048 2048"
 xmlns:xlink="http://www.w3.org/1999/xlink">
 <defs>
  <style type="text/css">
   <![CDATA[
    .fil2 {fill:none}
    .fil4 {fill:#3E2723}
    .fil8 {fill:#4E342E}
    .fil1 {fill:#616161}
    .fil0 {fill:#757575}
    .fil9 {fill:#84FFFF}
    .fil12 {fill:#A47F55}
    .fil13 {fill:#CFD8DC}
    .fil11 {fill:#D39C5F}
    .fil10 {fill:#FBB568}
    .fil3 {fill:#FFF3E0}
    .fil7 {fill:#3E2723;fill-rule:nonzero}
    .fil6 {fill:#FBB568;fill-rule:nonzero}
    .fil5 {fill:#FFCC80;fill-rule:nonzero}
   ]]>
  </style>
   <clipPath id="id0">
    <path d="M1024 -0.0011811c565.539,0 1024,458.462 1024,1024 0,565.539 -458.462,1024 -1024,1024 -565.539,0 -1024,-458.462 -1024,-1024 0,-565.539 458.462,-1024 1024,-1024z"/>
   </clipPath>
 </defs>
 <g id="Layer_x0020_1">
  <metadata id="CorelCorpID_0Corel-Layer"/>
  <path class="fil0" d="M1024 -0.0011811c565.539,0 1024,458.462 1024,1024 0,565.539 -458.462,1024 -1024,1024 -565.539,0 -1024,-458.462 -1024,-1024 0,-565.539 458.462,-1024 1024,-1024z"/>
  <g style="clip-path:url(#id0)">
   <g id="_451244384">
    <g>
     <polygon id="_3304966721" class="fil1" points="1579.03,707.064 2714.91,1842.95 2716.2,1844.75 2717.31,1846.66 2718.23,1848.67 2718.95,1850.75 2719.47,1852.9 2719.78,1855.09 2719.88,1857.32 2719.76,1859.57 2719.41,1861.81 2718.84,1864.05 2718.02,1866.26 1582.14,730.373 1582.96,728.167 1583.53,725.931 1583.88,723.684 1584,721.439 1583.9,719.212 1583.59,717.016 1583.07,714.869 1582.35,712.785 1581.43,710.78 1580.32,708.867 "/>
     <polygon id="_330496528" class="fil1" points="1582.14,730.373 2718.02,1866.26 2717.26,1867.87 2716.38,1869.4 2715.4,1870.84 2714.33,1872.19 2713.17,1873.44 2711.93,1874.6 2710.62,1875.65 2709.23,1876.6 2707.79,1877.45 2706.28,1878.19 2704.73,1878.82 2703.14,1879.33 2701.51,1879.73 2699.86,1880 2698.18,1880.16 2696.48,1880.19 1560.6,744.312 1562.3,744.279 1563.97,744.122 1565.63,743.843 1567.26,743.447 1568.85,742.933 1570.4,742.306 1571.9,741.567 1573.35,740.721 1574.74,739.77 1576.05,738.715 1577.29,737.56 1578.45,736.307 1579.52,734.959 1580.5,733.519 1581.37,731.99 "/>
     <polygon id="_330497752" class="fil1" points="1560.6,744.312 2696.48,1880.19 2668.94,1880.19 1533.06,744.312 "/>
     <polygon id="_330497176" class="fil1" points="1533.06,744.312 2668.94,1880.19 2668.94,1944.84 1533.06,808.96 "/>
     <polygon id="_330497920" class="fil1" points="1547.95,821.181 2683.84,1957.06 2684.7,1958.06 1548.82,822.183 "/>
     <polygon id="_330498280" class="fil1" points="1548.82,822.183 2684.7,1958.06 2685.65,1959.22 2686.58,1960.41 2687.49,1961.62 2688.37,1962.85 2689.23,1964.11 2690.06,1965.4 2690.87,1966.71 2691.65,1968.04 2692.4,1969.39 2693.13,1970.77 2693.83,1972.17 2694.5,1973.59 2695.14,1975.03 2695.76,1976.5 2696.34,1977.98 2696.9,1979.48 2697.42,1981 2697.92,1982.54 2698.38,1984.09 2698.82,1985.66 2699.22,1987.25 2699.58,1988.86 2699.92,1990.48 2700.22,1992.11 2700.49,1993.76 2700.72,1995.42 2700.92,1997.1 2701.09,1998.79 2701.21,2000.49 2701.3,2002.2 2701.36,2003.92 2701.38,2005.66 1565.5,869.774 1565.48,868.04 1565.42,866.317 1565.33,864.604 1565.2,862.903 1565.04,861.216 1564.84,859.54 1564.61,857.877 1564.34,856.228 1564.04,854.593 1563.7,852.974 1563.33,851.369 1562.93,849.78 1562.5,848.208 1562.04,846.654 1561.54,845.116 1561.02,843.597 1560.46,842.096 1559.88,840.614 1559.26,839.153 1558.62,837.71 1557.95,836.29 1557.25,834.89 1556.52,833.512 1555.77,832.156 1554.99,830.823 1554.18,829.515 1553.35,828.23 1552.49,826.968 1551.61,825.733 1550.7,824.523 1549.77,823.34 "/>
     <polygon id="_330498208" class="fil1" points="1565.5,869.774 2701.38,2005.66 2701.36,2007.39 2701.3,2009.11 2701.21,2010.83 2701.09,2012.53 2700.92,2014.21 2700.72,2015.89 2700.49,2017.55 2700.22,2019.2 2699.92,2020.84 2699.58,2022.46 2699.22,2024.06 2698.82,2025.65 2698.38,2027.22 2697.92,2028.78 2697.42,2030.31 2696.9,2031.83 2696.34,2033.33 2695.76,2034.82 2695.14,2036.28 2694.5,2037.72 2693.83,2039.14 2693.13,2040.54 2692.4,2041.92 2691.65,2043.27 2690.87,2044.61 2690.06,2045.92 2689.23,2047.2 2688.37,2048.46 2687.49,2049.7 2686.58,2050.91 2685.65,2052.09 2684.7,2053.25 1548.82,917.365 1549.77,916.208 1550.7,915.024 1551.61,913.815 1552.49,912.579 1553.35,911.318 1554.18,910.033 1554.99,908.724 1555.77,907.392 1556.52,906.036 1557.25,904.658 1557.95,903.258 1558.62,901.837 1559.26,900.395 1559.88,898.934 1560.46,897.452 1561.02,895.951 1561.54,894.432 1562.04,892.894 1562.5,891.34 1562.93,889.768 1563.33,888.179 1563.7,886.574 1564.04,884.955 1564.34,883.32 1564.61,881.671 1564.84,880.008 1565.04,878.332 1565.2,876.644 1565.33,874.944 1565.42,873.231 1565.48,871.508 "/>
     <polygon id="_330498544" class="fil1" points="1548.82,917.365 2684.7,2053.25 2683.84,2054.25 2682.95,2055.23 2682.06,2056.19 2681.14,2057.12 2680.21,2058.04 2679.26,2058.93 2678.3,2059.79 2677.32,2060.63 2676.32,2061.45 2675.31,2062.25 2674.28,2063.02 2673.24,2063.76 2672.19,2064.48 2671.12,2065.17 2670.04,2065.83 2668.94,2066.47 1533.06,930.588 1534.16,929.95 1535.24,929.285 1536.31,928.593 1537.36,927.876 1538.4,927.133 1539.43,926.364 1540.44,925.57 1541.43,924.752 1542.41,923.91 1543.38,923.043 1544.33,922.153 1545.26,921.24 1546.18,920.305 1547.07,919.347 1547.95,918.367 "/>
     <polygon id="_330497968" class="fil1" points="1533.06,930.588 2668.94,2066.47 2668.94,2509.65 1533.06,1373.77 "/>
     <polygon id="_330498640" class="fil1" points="1533.06,1373.77 2668.94,2509.65 2668.94,2509.99 2668.93,2510.32 2668.92,2510.66 2668.9,2510.99 2668.88,2511.33 2668.86,2511.66 2668.82,2511.99 2668.79,2512.32 1532.91,1376.44 1532.94,1376.11 1532.97,1375.78 1533,1375.44 1533.02,1375.11 1533.04,1374.78 1533.05,1374.44 1533.06,1374.1 "/>
     <polygon id="_330498256" class="fil1" points="1567.7,1394.21 2703.58,2530.09 2704.55,2531.13 2705.48,2532.19 2706.4,2533.27 2707.29,2534.37 2708.15,2535.49 2708.98,2536.64 2709.79,2537.8 2710.57,2538.99 2711.33,2540.19 2712.05,2541.41 2712.75,2542.66 2713.41,2543.92 2714.05,2545.2 2714.66,2546.49 2715.23,2547.8 2715.78,2549.13 2716.29,2550.48 2716.77,2551.84 2717.22,2553.21 2717.63,2554.6 2718.02,2556 2718.36,2557.42 2718.67,2558.85 2718.95,2560.29 2719.19,2561.74 2719.4,2563.21 2719.57,2564.68 2719.7,2566.17 2719.8,2567.67 2719.86,2569.17 2719.88,2570.69 1583.99,1434.81 1583.98,1433.29 1583.92,1431.79 1583.82,1430.29 1583.69,1428.8 1583.52,1427.32 1583.31,1425.86 1583.07,1424.41 1582.79,1422.96 1582.48,1421.53 1582.13,1420.12 1581.75,1418.72 1581.34,1417.33 1580.89,1415.95 1580.41,1414.59 1579.9,1413.25 1579.35,1411.92 1578.78,1410.61 1578.17,1409.31 1577.53,1408.03 1576.87,1406.77 1576.17,1405.53 1575.45,1404.31 1574.69,1403.1 1573.91,1401.92 1573.1,1400.75 1572.27,1399.61 1571.4,1398.49 1570.52,1397.38 1569.6,1396.3 1568.66,1395.25 "/>
     <polygon id="_330498040" class="fil1" points="1583.99,1434.81 2719.88,2570.69 2719.88,2716.47 1583.99,1580.59 "/>
     <polygon id="_330498064" class="fil1" points="1583.99,1580.59 2719.88,2716.47 2607.37,2716.47 1471.49,1580.59 "/>
     <polygon id="_330498376" class="fil1" points="514.934,744.312 1650.82,1880.19 1622.86,1880.19 486.981,744.312 "/>
     <polygon id="_330498424" class="fil1" points="514.934,930.589 1650.82,2066.47 1649.72,2065.83 1648.64,2065.17 1647.57,2064.48 1646.51,2063.76 1645.47,2063.02 1644.45,2062.25 1643.44,2061.45 1642.44,2060.63 1641.46,2059.79 1640.49,2058.93 504.613,923.043 505.578,923.91 506.559,924.752 507.556,925.57 508.567,926.364 509.592,927.133 510.632,927.876 511.687,928.594 512.756,929.285 513.839,929.951 "/>
     <polygon id="_330498448" class="fil1" points="700.811,1580.59 1836.69,2716.47 1709.69,2716.47 573.807,1580.59 "/>
     <polygon id="_330499072" class="fil1" points="573.807,1580.59 1709.69,2716.47 1599.88,2716.47 463.999,1580.59 "/>
     <polygon id="_330499048" class="fil1" points="486.981,744.312 1622.86,1880.19 1620.51,1880.08 1618.23,1879.73 1616.03,1879.16 1613.92,1878.39 1611.91,1877.42 1610.01,1876.27 1608.24,1874.95 1606.61,1873.46 470.73,737.581 472.362,739.065 474.131,740.388 476.026,741.539 478.035,742.506 480.147,743.279 482.35,743.846 484.631,744.194 "/>
     <polygon id="_330499192" class="fil1" points="1471.49,1580.59 2607.37,2716.47 2483.06,2716.47 1347.18,1580.59 "/>
     <polygon id="_330498808" class="fil1" points="1347.18,1580.59 2483.06,2716.47 1836.69,2716.47 700.811,1580.59 "/>
    </g>
    <path id="_451244672" class="fil1" d="M1034.47 471.07l535.522 229.166 0.0637796 -0.0318898c11.6681,4.99252 17.0799,18.5008 12.0874,30.1689 -3.7878,8.85001 -12.4736,14.0988 -21.5398,13.9394l-27.541 0 0 64.6477c5.87717,3.33071 11.2016,7.82363 15.7571,13.2225 10.291,12.1973 16.6807,29.0433 16.6807,47.5914 0,18.548 -6.38977,35.3941 -16.6807,47.5914 -4.55552,5.39882 -9.87993,9.89174 -15.7571,13.2225l0 443.178c0,0.903544 -0.0519685,1.7941 -0.153543,2.67047 13.1102,1.74921 24.8823,7.83898 33.8067,16.7634 10.6618,10.663 17.2807,25.3902 17.2807,41.6079l0 145.785 -112.506 0 -124.306 0 -646.371 0 -127.004 0 -109.808 0 0 -142.194c0,-17.2051 7.02284,-32.8311 18.3354,-44.1437 8.77087,-8.77087 20.1354,-14.9634 32.8193,-17.302 -0.145276,-1.04173 -0.219685,-2.10591 -0.219685,-3.18662l0 -443.177c-5.87717,-3.33189 -11.2028,-7.82481 -15.7583,-13.2236 -10.291,-12.1973 -16.6807,-29.0433 -16.6807,-47.5914 0,-18.548 6.38977,-35.3941 16.6807,-47.5914 4.55552,-5.39882 9.88111,-9.89174 15.7583,-13.2236l0 -64.6465 -27.9532 0c-12.6921,0 -22.9819,-10.2886 -22.9819,-22.9807 0,-10.0677 6.47481,-18.6225 15.4878,-21.7299l535.491 -229.153c8.91969,-6.763 17.7602,-0.263386 19.4906,0.62126z"/>
   </g>
  </g>
  <path class="fil2" d="M1024 -0.0011811c565.539,0 1024,458.462 1024,1024 0,565.539 -458.462,1024 -1024,1024 -565.539,0 -1024,-458.462 -1024,-1024 0,-565.539 458.462,-1024 1024,-1024z"/>
  <rect class="fil3" x="573.807" y="727.794" width="897.681" height="852.798"/>
  <path class="fil4" d="M757.665 1580.11l527.387 0 0 -516.87c0,-145.032 -118.662,-263.694 -263.693,-263.694l-0.0011811 0c-145.031,0 -263.693,118.662 -263.693,263.694l0 516.87z"/>
  <path class="fil5" d="M537.915 723.68l88.982 0c12.691,0 22.9807,9.06851 22.9807,20.2559l0 81.0201c0,11.1862 -10.2898,20.2559 -22.9807,20.2559l-88.982 0c-12.6921,0 -22.9807,-9.06969 -22.9807,-20.2559l0 -81.0201c0,-11.1874 10.2886,-20.2559 22.9807,-20.2559z"/>
  <path class="fil5" d="M537.915 891.172l88.982 0c12.691,0 22.9807,10.2898 22.9807,22.9819l0 459.612c0,12.6921 -10.2898,22.9819 -22.9807,22.9819l-88.982 0c-12.6921,0 -22.9807,-10.2898 -22.9807,-22.9819l0 -459.612c0,-12.6921 10.2886,-22.9819 22.9807,-22.9819z"/>
  <path class="fil6" d="M539.333 802.413l86.1438 0c15.6496,0 29.8654,7.57205 40.1575,19.7693 10.2921,12.1973 16.6807,29.0433 16.6807,47.5914 0,18.548 -6.38859,35.3941 -16.6807,47.5914 -10.2921,12.1973 -24.5079,19.7693 -40.1575,19.7693l-86.1438 0c-15.6496,0 -29.8654,-7.57205 -40.1575,-19.7693 -10.291,-12.1973 -16.6807,-29.0433 -16.6807,-47.5914 0,-18.548 6.38977,-35.3941 16.6807,-47.5914 10.2921,-12.1973 24.5079,-19.7693 40.1575,-19.7693z"/>
  <path class="fil6" d="M463.999 1580.59l0 -142.194c0,-17.2051 7.02284,-32.8311 18.3354,-44.1437 11.3114,-11.3126 26.9386,-18.3343 44.1437,-18.3343l115.445 0c16.2177,0 30.9461,6.61772 41.6079,17.2795 10.6618,10.663 17.2807,25.3902 17.2807,41.6079l0 145.785 -236.812 0z"/>
  <path class="fil5" d="M1421.1 723.68l88.982 0c12.691,0 22.9807,9.06851 22.9807,20.2559l0 81.0201c0,11.1862 -10.2898,20.2559 -22.9807,20.2559l-88.982 0c-12.691,0 -22.9807,-9.06969 -22.9807,-20.2559l0 -81.0201c0,-11.1874 10.2898,-20.2559 22.9807,-20.2559z"/>
  <path class="fil5" d="M1421.1 891.172l88.982 0c12.691,0 22.9807,10.2898 22.9807,22.9819l0 459.612c0,12.6921 -10.2898,22.9819 -22.9807,22.9819l-88.982 0c-12.691,0 -22.9807,-10.2898 -22.9807,-22.9819l0 -459.612c0,-12.6921 10.2898,-22.9819 22.9807,-22.9819z"/>
  <path class="fil6" d="M1422.52 802.413l86.1438 0c15.6508,0 29.8654,7.57205 40.1575,19.7693 10.2921,12.1973 16.6807,29.0433 16.6807,47.5914 0,18.548 -6.38859,35.3941 -16.6807,47.5914 -10.2921,12.1973 -24.5067,19.7693 -40.1575,19.7693l-86.1438 0c-15.6496,0 -29.8642,-7.57205 -40.1575,-19.7693 -10.291,-12.1973 -16.6807,-29.0433 -16.6807,-47.5914 0,-18.548 6.38977,-35.3941 16.6807,-47.5914 10.2933,-12.1973 24.5079,-19.7693 40.1575,-19.7693z"/>
  <path class="fil6" d="M1347.18 1580.59l0 -142.194c0,-17.2051 7.02284,-32.8311 18.3354,-44.1437 11.3126,-11.3126 26.9386,-18.3343 44.1437,-18.3343l115.446 0c16.2165,0 30.9449,6.61772 41.6067,17.2795 10.6618,10.663 17.2807,25.3902 17.2807,41.6079l0 145.785 -236.812 0z"/>
  <path class="fil7" d="M1046.78 745.811c0,-8.56182 -10.1976,-15.5032 -22.7764,-15.5032 -12.5787,0 -22.7764,6.94134 -22.7764,15.5032l0 58.0808c0,8.56182 10.1976,5.20867 22.7764,5.20867 12.5787,0 22.7764,3.35315 22.7764,-5.20867l0 -58.0808z"/>
  <polygon class="fil8" points="1009.48,1546.12 1009.48,1086.51 788.137,1086.51 788.137,1546.12 "/>
  <polygon class="fil8" points="1032.46,1086.51 1032.46,1546.12 1253.8,1546.12 1253.8,1086.51 "/>
  <path class="fil9" d="M1052.51 1063.53l201.236 0c-1.42323,-61.6063 -27.1063,-117.513 -67.8189,-158.485l-133.417 158.485z"/>
  <path class="fil9" d="M1021.73 1061.95l145.967 -173.433c-40.1244,-32.7355 -91.2461,-52.4209 -146.726,-52.4209 -55.1256,0 -105.947,19.4351 -145.955,51.7949l146.714 174.059z"/>
  <path class="fil9" d="M990.764 1063.53l-134.121 -159.11c-0.0307087,0.0307087 -0.0614174,0.0614174 -0.0921261,0.090945 -41.0209,41.0209 -66.9213,97.1446 -68.3504,159.019l202.564 0z"/>
  <path class="fil10" d="M479.487 699.602l535.491 -229.153c8.91969,-6.763 17.7602,-0.263386 19.4906,0.62126l535.522 229.166 0.0637796 -0.0318898c11.6681,4.99252 17.0799,18.5008 12.0874,30.1689 -3.7878,8.85001 -12.4736,14.0988 -21.5398,13.9394l-1073.62 0c-12.6921,0 -22.9819,-10.2886 -22.9819,-22.9807 0,-10.0677 6.47481,-18.6225 15.4878,-21.7299z"/>
  <polygon class="fil11" points="543.174,708.742 1504.83,708.742 1024,502.982 "/>
  <path class="fil12" d="M1024 560.467c15.8622,0 30.2268,6.43347 40.6229,16.8295 10.3961,10.3961 16.8295,24.7606 16.8295,40.6229 0,15.861 -6.43229,30.2244 -16.8295,40.6229 -10.3961,10.3961 -24.7606,16.8295 -40.6229,16.8295 -15.8622,0 -30.2268,-6.43347 -40.6229,-16.8295 -10.3973,-10.3984 -16.8295,-24.7618 -16.8295,-40.6229 0,-15.8622 6.43347,-30.2268 16.8295,-40.6229 10.3961,-10.3961 24.7606,-16.8295 40.6229,-16.8295z"/>
  <path class="fil13" d="M958.941 1268.07c3.01299,0 5.4567,2.08819 5.4567,4.663l0 88.7481c0,2.57481 -2.4437,4.66181 -5.4567,4.66181 -3.01299,0 -5.4567,-2.08701 -5.4567,-4.66181l0 -88.7481c0,-2.57481 2.4437,-4.663 5.4567,-4.663z"/>
  <path class="fil13" d="M1083.78 1268.07c3.01299,0 5.4567,2.08819 5.4567,4.663l0 88.7481c0,2.57481 -2.4437,4.66181 -5.4567,4.66181 -3.01299,0 -5.4567,-2.08701 -5.4567,-4.66181l0 -88.7481c0,-2.57481 2.4437,-4.663 5.4567,-4.663z"/>
 </g>
</svg>
