<?xml version="1.0" encoding="UTF-8"?>
<!DOCTYPE svg PUBLIC "-//W3C//DTD SVG 1.1//EN" "http://www.w3.org/Graphics/SVG/1.1/DTD/svg11.dtd">
<!-- Creator: CorelDRAW -->
<svg xmlns="http://www.w3.org/2000/svg" xml:space="preserve" width="2048px" height="2048px" style="shape-rendering:geometricPrecision; text-rendering:geometricPrecision; image-rendering:optimizeQuality; fill-rule:evenodd; clip-rule:evenodd"
viewBox="0 0 2048 2048"
 xmlns:xlink="http://www.w3.org/1999/xlink">
 <defs>
  <style type="text/css">
   <![CDATA[
    .fil2 {fill:none}
    .fil1 {fill:#455A64}
    .fil7 {fill:#5D4037}
    .fil0 {fill:#78909C}
    .fil3 {fill:#B2EBF2}
    .fil11 {fill:#BD0000}
    .fil9 {fill:#EF6C00}
    .fil13 {fill:#F57C00}
    .fil5 {fill:#37474F;fill-rule:nonzero}
    .fil4 {fill:#455A64;fill-rule:nonzero}
    .fil6 {fill:#6D4C41;fill-rule:nonzero}
    .fil10 {fill:#D50000;fill-rule:nonzero}
    .fil8 {fill:#EF6C00;fill-rule:nonzero}
    .fil12 {fill:#F57C00;fill-rule:nonzero}
   ]]>
  </style>
   <clipPath id="id0">
    <path d="M1024 -0.0011811c565.539,0 1024,458.462 1024,1024 0,565.539 -458.462,1024 -1024,1024 -565.539,0 -1024,-458.462 -1024,-1024 0,-565.539 458.462,-1024 1024,-1024z"/>
   </clipPath>
 </defs>
 <g id="Layer_x0020_1">
  <metadata id="CorelCorpID_0Corel-Layer"/>
  <path class="fil0" d="M1024 -0.0011811c565.539,0 1024,458.462 1024,1024 0,565.539 -458.462,1024 -1024,1024 -565.539,0 -1024,-458.462 -1024,-1024 0,-565.539 458.462,-1024 1024,-1024z"/>
  <g style="clip-path:url(#id0)">
   <g id="_451243616">
    <g>
     <polygon id="_3305155361" class="fil1" points="1533.53,516.05 2669.41,1651.93 2670.77,1653.58 2671.79,1655.47 2672.44,1657.55 2672.67,1659.79 1536.79,523.908 1536.56,521.669 1535.91,519.583 1534.89,517.695 "/>
     <polygon id="_330515008" class="fil1" points="1536.79,523.908 2672.67,1659.79 2672.67,1695.33 1536.79,559.447 "/>
     <polygon id="_330517720" class="fil1" points="1577.88,562.298 2713.76,1698.18 2715.11,1700.13 2716.31,1702.24 2717.36,1704.5 2718.24,1706.89 2718.94,1709.41 2719.46,1712.03 2719.77,1714.76 2719.88,1717.56 2719.77,1720.36 2719.46,1723.08 2718.94,1725.71 2718.24,1728.22 2717.36,1730.62 2716.31,1732.88 2715.11,1734.99 2713.76,1736.93 2712.28,1738.7 2710.67,1740.28 2708.95,1741.65 2707.12,1742.81 2705.2,1743.73 2703.2,1744.4 2701.13,1744.82 2698.99,1744.96 2697.3,1744.87 2695.64,1744.61 2694.02,1744.18 2692.46,1743.59 2690.94,1742.85 2689.49,1741.97 2688.09,1740.94 2686.77,1739.79 1550.89,603.903 1552.21,605.06 1553.61,606.086 1555.06,606.971 1556.58,607.712 1558.14,608.299 1559.76,608.728 1561.41,608.99 1563.11,609.078 1565.25,608.937 1567.32,608.522 1569.32,607.847 1571.24,606.925 1573.07,605.771 1574.79,604.398 1576.4,602.821 1577.88,601.052 1579.23,599.106 1580.43,596.996 1581.48,594.736 1582.36,592.341 1583.06,589.824 1583.58,587.197 1583.89,584.476 1584,581.674 1583.89,578.873 1583.58,576.152 1583.06,573.526 1582.36,571.008 1581.48,568.613 1580.43,566.353 1579.23,564.244 "/>
     <polygon id="_330517456" class="fil1" points="1457.48,516.05 2593.37,1651.93 2594.72,1653.58 2595.75,1655.47 2596.4,1657.55 2596.62,1659.79 1460.74,523.908 1460.51,521.669 1459.87,519.583 1458.84,517.695 "/>
     <polygon id="_330517312" class="fil1" points="1460.74,523.908 2596.62,1659.79 2596.62,1695.33 1460.74,559.447 "/>
     <polygon id="_330517144" class="fil1" points="1536.79,603.903 2672.67,1739.79 2672.67,1775.17 1536.79,639.286 "/>
     <polygon id="_330517672" class="fil1" points="1553.51,665.442 2689.4,1801.32 2689.44,1801.69 2689.48,1802.05 2689.51,1802.42 2689.54,1802.78 2689.56,1803.15 2689.58,1803.52 2689.59,1803.89 2689.59,1804.27 1553.71,668.384 1553.7,668.011 1553.7,667.639 1553.68,667.269 1553.66,666.901 1553.63,666.533 1553.6,666.167 1553.56,665.803 "/>
     <polygon id="_330517192" class="fil1" points="1381.44,516.05 2517.32,1651.93 2518.68,1653.58 2519.7,1655.47 2520.35,1657.55 2520.58,1659.79 1384.7,523.908 1384.47,521.669 1383.82,519.583 1382.8,517.695 "/>
     <polygon id="_330517216" class="fil1" points="1384.7,523.908 2520.58,1659.79 2520.58,1695.33 1384.7,559.447 "/>
     <polygon id="_330517840" class="fil1" points="998.161,516.05 2134.04,1651.93 2135.4,1653.58 2136.42,1655.47 2137.07,1657.55 2137.3,1659.79 1001.42,523.908 1001.19,521.669 1000.54,519.583 999.518,517.695 "/>
     <polygon id="_330517240" class="fil1" points="922.117,516.05 2058,1651.93 2059.36,1653.58 2060.38,1655.47 2061.03,1657.55 2061.25,1659.79 925.372,523.908 925.146,521.669 924.499,519.583 923.474,517.695 "/>
     <polygon id="_330517360" class="fil1" points="925.372,523.908 2061.25,1659.79 2061.25,1695.33 925.372,559.447 "/>
     <polygon id="_330518392" class="fil1" points="541.895,516.05 1677.78,1651.93 1679.13,1653.58 1680.16,1655.47 1680.81,1657.55 1681.03,1659.79 545.15,523.908 544.924,521.669 544.277,519.583 543.252,517.695 "/>
     <polygon id="_330517960" class="fil1" points="545.15,523.908 1681.03,1659.79 1681.03,1695.33 545.15,559.447 "/>
     <polygon id="_330518152" class="fil1" points="1553.68,1535.21 2689.56,2671.09 2622.41,2671.09 1486.52,1535.2 "/>
     <polygon id="_330518440" class="fil1" points="1486.52,1535.2 2622.41,2671.09 2608.85,2671.09 1472.97,1535.2 "/>
     <polygon id="_330518320" class="fil1" points="522.923,603.903 1658.8,1739.79 1632.99,1739.79 497.111,603.903 "/>
     <polygon id="_330517984" class="fil1" points="497.111,603.903 1632.99,1739.79 1631.67,1740.94 1630.27,1741.97 1628.82,1742.85 1627.31,1743.59 1625.74,1744.18 1624.12,1744.61 1622.47,1744.87 1620.77,1744.96 1618.64,1744.82 1616.56,1744.4 1614.56,1743.73 1612.64,1742.81 1610.81,1741.65 1609.09,1740.28 473.21,604.398 474.932,605.771 476.758,606.925 478.678,607.847 480.68,608.522 482.755,608.937 484.89,609.078 486.585,608.99 488.242,608.728 489.857,608.299 491.424,607.712 492.938,606.971 494.393,606.086 495.787,605.06 "/>
     <polygon id="_330518008" class="fil1" points="1422.81,1535.2 2558.69,2671.09 2518.56,2671.09 1382.67,1535.2 "/>
     <polygon id="_330517912" class="fil1" points="1382.67,1535.2 2518.56,2671.09 2505.13,2671.09 1369.24,1535.2 "/>
     <polygon id="_330518560" class="fil1" points="1369.24,1535.2 2505.13,2671.09 2457.39,2671.09 1321.51,1535.2 "/>
     <polygon id="_330518296" class="fil1" points="1321.51,1535.2 2457.39,2671.09 2443.73,2671.09 1307.85,1535.2 "/>
     <polygon id="_330518872" class="fil1" points="1270.76,1503.7 2406.64,2639.58 2164.44,2639.58 1028.56,1503.7 "/>
     <polygon id="_330518968" class="fil1" points="1307.85,1535.2 2443.73,2671.09 2411.43,2671.09 1275.54,1535.21 "/>
     <polygon id="_330518752" class="fil1" points="1028.56,1503.7 2164.44,2639.58 2164.41,2639.58 2164.38,2639.59 2164.35,2639.59 2164.32,2639.59 2164.29,2639.59 2164.26,2639.59 2164.23,2639.59 2164.21,2639.59 1028.32,1503.7 1028.35,1503.7 1028.38,1503.7 1028.41,1503.7 1028.44,1503.7 1028.47,1503.7 1028.5,1503.7 1028.53,1503.7 "/>
     <polygon id="_330518944" class="fil1" points="1028.32,1503.7 2164.21,2639.59 2164.18,2639.59 2164.15,2639.59 2164.12,2639.59 2164.09,2639.59 2164.06,2639.59 2164.03,2639.59 2164,2639.58 2163.97,2639.58 1028.09,1503.7 1028.12,1503.7 1028.15,1503.7 1028.18,1503.7 1028.21,1503.7 1028.24,1503.7 1028.27,1503.7 1028.3,1503.7 "/>
     <polygon id="_330518800" class="fil1" points="505.999,1167.96 1641.88,2303.84 1640.98,2303.81 1640.08,2303.79 1639.17,2303.77 1638.26,2303.75 1637.35,2303.73 1636.44,2303.73 1635.53,2303.72 1634.61,2303.72 498.727,1167.83 499.644,1167.84 500.56,1167.84 501.473,1167.85 502.383,1167.87 503.291,1167.88 504.195,1167.9 505.099,1167.93 "/>
     <polygon id="_330519064" class="fil1" points="788.949,1503.7 1924.83,2639.58 1924.67,2641.55 1924.49,2643.53 1924.29,2645.5 1924.07,2647.47 1923.84,2649.44 1923.59,2651.41 1923.32,2653.38 1923.03,2655.35 1922.72,2657.32 1922.4,2659.29 1922.06,2661.26 1921.69,2663.22 1921.31,2665.19 1920.91,2667.16 1920.49,2669.12 1920.05,2671.09 784.164,1535.21 784.606,1533.24 785.026,1531.28 785.429,1529.31 785.81,1527.34 786.174,1525.37 786.518,1523.41 786.843,1521.44 787.15,1519.47 787.438,1517.5 787.707,1515.53 787.959,1513.56 788.192,1511.58 788.408,1509.61 788.605,1507.64 788.786,1505.67 "/>
     <polygon id="_330519136" class="fil1" points="784.164,1535.21 1920.05,2671.09 1887.74,2671.09 751.856,1535.2 "/>
     <polygon id="_330518680" class="fil1" points="751.856,1535.2 1887.74,2671.09 1874.08,2671.09 738.203,1535.2 "/>
     <polygon id="_330519208" class="fil1" points="738.203,1535.2 1874.08,2671.09 1826.34,2671.09 690.464,1535.2 "/>
     <polygon id="_330519280" class="fil1" points="690.464,1535.2 1826.34,2671.09 1812.91,2671.09 677.033,1535.2 "/>
     <polygon id="_330519424" class="fil1" points="677.033,1535.2 1812.91,2671.09 1772.78,2671.09 636.9,1535.2 "/>
     <polygon id="_330519904" class="fil1" points="636.9,1535.2 1772.78,2671.09 1759.21,2671.09 623.325,1535.2 "/>
     <polygon id="_330519688" class="fil1" points="623.325,1535.2 1759.21,2671.09 1722.62,2671.09 586.738,1535.2 "/>
     <polygon id="_330519976" class="fil1" points="586.738,1535.2 1722.62,2671.09 1709.06,2671.09 573.184,1535.2 "/>
     <polygon id="_330519544" class="fil1" points="573.184,1535.2 1709.06,2671.09 1641.9,2671.09 506.024,1535.21 "/>
     <polygon id="_330519640" class="fil1" points="1028.09,1503.7 2163.97,2639.58 1924.83,2639.58 788.949,1503.7 "/>
     <polygon id="_330519496" class="fil1" points="1472.97,1535.2 2608.85,2671.09 2572.26,2671.09 1436.38,1535.2 "/>
     <polygon id="_330520048" class="fil1" points="1436.38,1535.2 2572.26,2671.09 2558.69,2671.09 1422.81,1535.2 "/>
     <polygon id="_330519568" class="fil1" points="617.94,516.05 1753.82,1651.93 1755.18,1653.58 1756.2,1655.47 1756.85,1657.55 1757.08,1659.79 621.195,523.908 620.97,521.669 620.323,519.583 619.297,517.695 "/>
     <polygon id="_330519832" class="fil1" points="1553.71,1534.18 2689.59,2670.06 2689.56,2671.09 1553.68,1535.21 "/>
     <polygon id="_330519928" class="fil1" points="621.195,523.908 1757.08,1659.79 1757.08,1695.33 621.195,559.447 "/>
     <polygon id="_330520912" class="fil1" points="693.984,516.05 1829.87,1651.93 1831.22,1653.58 1832.25,1655.47 1832.9,1657.55 1833.12,1659.79 697.24,523.908 697.014,521.669 696.367,519.583 695.341,517.695 "/>
     <polygon id="_330520216" class="fil1" points="697.24,523.908 1833.12,1659.79 1833.12,1695.33 697.24,559.447 "/>
     <polygon id="_330520240" class="fil1" points="770.029,516.05 1905.91,1651.93 1907.27,1653.58 1908.29,1655.47 1908.94,1657.55 1909.16,1659.79 773.284,523.908 773.058,521.669 772.411,519.583 771.386,517.695 "/>
     <polygon id="_330520312" class="fil1" points="773.284,523.908 1909.16,1659.79 1909.16,1695.33 773.284,559.447 "/>
     <polygon id="_330520696" class="fil1" points="846.073,516.05 1981.95,1651.93 1983.31,1653.58 1984.34,1655.47 1984.98,1657.55 1985.21,1659.79 849.328,523.908 849.102,521.669 848.455,519.583 847.43,517.695 "/>
     <polygon id="_330520960" class="fil1" points="849.328,523.908 1985.21,1659.79 1985.21,1695.33 849.328,559.447 "/>
     <polygon id="_330520480" class="fil1" points="1553.71,1167.96 2689.59,2303.84 2689.59,2670.06 1553.71,1534.18 "/>
     <polygon id="_330520576" class="fil1" points="1001.42,523.908 2137.3,1659.79 2137.3,1695.33 1001.42,559.447 "/>
     <polygon id="_330520432" class="fil1" points="1560.98,1167.83 2696.86,2303.72 2695.94,2303.72 2695.03,2303.73 2694.12,2303.73 2693.21,2303.75 2692.3,2303.77 2691.39,2303.79 2690.49,2303.81 2689.59,2303.84 1553.71,1167.96 1554.61,1167.93 1555.51,1167.9 1556.42,1167.88 1557.32,1167.87 1558.24,1167.85 1559.15,1167.84 1560.06,1167.84 "/>
     <polygon id="_330520600" class="fil1" points="1077.26,516.05 2213.15,1651.93 2214.5,1653.58 2215.53,1655.47 2216.17,1657.55 2216.4,1659.79 1080.52,523.908 1080.29,521.669 1079.65,519.583 1078.62,517.695 "/>
     <polygon id="_330520744" class="fil1" points="1080.52,523.908 2216.4,1659.79 2216.4,1695.33 1080.52,559.447 "/>
     <polygon id="_330521536" class="fil1" points="1153.31,516.05 2289.19,1651.93 2290.55,1653.58 2291.57,1655.47 2292.22,1657.55 2292.44,1659.79 1156.56,523.908 1156.34,521.669 1155.69,519.583 1154.67,517.695 "/>
     <polygon id="_330521080" class="fil1" points="1156.56,523.908 2292.44,1659.79 2292.44,1695.33 1156.56,559.447 "/>
     <polygon id="_330521584" class="fil1" points="1229.35,516.05 2365.23,1651.93 2366.59,1653.58 2367.61,1655.47 2368.26,1657.55 2368.49,1659.79 1232.61,523.908 1232.38,521.669 1231.73,519.583 1230.71,517.695 "/>
     <polygon id="_330521320" class="fil1" points="1232.61,523.908 2368.49,1659.79 2368.49,1695.33 1232.61,559.447 "/>
     <polygon id="_330521008" class="fil1" points="1305.4,516.05 2441.28,1651.93 2442.63,1653.58 2443.66,1655.47 2444.31,1657.55 2444.53,1659.79 1308.65,523.908 1308.43,521.669 1307.78,519.583 1306.75,517.695 "/>
     <polygon id="_330521056" class="fil1" points="1308.65,523.908 2444.53,1659.79 2444.53,1695.33 1308.65,559.447 "/>
     <polygon id="_330521176" class="fil1" points="1553.71,738.055 2689.59,1873.94 2689.59,2257.17 1553.71,1121.29 "/>
     <polygon id="_330521488" class="fil1" points="1560.98,1121.17 2696.86,2257.05 2696.86,2303.72 1560.98,1167.83 "/>
     <polygon id="_330520984" class="fil1" points="1553.71,668.384 2689.59,1804.27 2689.59,1857.53 1553.71,721.649 "/>
     <polygon id="_330521248" class="fil1" points="1553.71,721.649 2689.59,1857.53 2689.59,1873.94 1553.71,738.055 "/>
     <polygon id="_330521848" class="fil1" points="1550.89,603.903 2686.77,1739.79 2672.67,1739.79 1536.79,603.903 "/>
     <polygon id="_330522256" class="fil1" points="1553.51,639.286 2689.4,1775.17 2689.4,1801.32 1553.51,665.442 "/>
    </g>
    <path id="_451243688" class="fil1" d="M1514.56 523.908c0,-6.13701 4.97717,-11.113 11.1142,-11.113 6.13701,0 11.1142,4.97599 11.1142,11.113l0 35.5394 14.1036 0c3.43583,-3.2563 7.65709,-5.17559 12.2209,-5.17559 11.537,0 20.8914,12.2693 20.8914,27.4028 0,15.1347 -9.35434,27.404 -20.8914,27.404 -4.56378,0 -8.78505,-1.91929 -12.2209,-5.17559l-14.1036 0 0 35.3835 16.7291 0 0 26.1555c0.126378,0.962599 0.193701,1.94528 0.193701,2.94213l0 53.2654 0 16.4055 0 383.234c2.40591,-0.080315 4.82953,-0.121654 7.27323,-0.121654l0 46.6678c-2.45197,0 -4.87559,0.0425197 -7.27323,0.124016l0 366.216 -0.0248032 1.02992 -67.1587 -0.00236221 -13.5543 0 -36.5882 0 -13.5756 0 -40.1327 0 -13.4291 0 -47.739 0 -13.6536 0 -32.3079 0.00236221c-2.40591,-10.4728 -3.96142,-20.9953 -4.78465,-31.5036l-242.204 0c-0.0767717,0.0011811 -0.154725,0.0011811 -0.231496,0.0011811 -0.0767717,0 -0.154725,0 -0.231496,-0.0011811l-239.144 0c-0.823229,10.5083 -2.37874,21.0307 -4.78465,31.5036l-32.3079 -0.00236221 -13.6536 0 -47.739 0 -13.4303 0 -40.1327 0 -13.5756 0 -36.587 0 -13.5543 0 -67.1599 0.00236221 -0.0248032 -1.02992c0,-119.345 0,-242.491 0,-366.216 -2.39764,-0.0814961 -4.82008,-0.124016 -7.27205,-0.124016l0 -46.6678c2.44252,0 4.86615,0.0413386 7.27205,0.121654 0,-128.765 0.0011811,-257.718 0,-383.234l0 -16.4055 0 -53.2654c0,-0.996851 0.0673229,-1.97953 0.194882,-2.94213l0 -26.1555 16.7291 0 0 -35.3835 -25.8118 0c-3.43583,3.2563 -7.65709,5.17559 -12.2209,5.17559 -11.537,0 -20.8914,-12.2693 -20.8914,-27.404 0,-15.1335 9.35434,-27.4028 20.8914,-27.4028 4.56378,0 8.78505,1.91929 12.2209,5.17559l25.8118 0 0 -35.5394c0,-6.13701 4.97599,-11.113 11.1142,-11.113 6.13701,0 11.113,4.97599 11.113,11.113l0 35.5394 53.8182 0 0 -35.5394c0,-6.13701 4.97599,-11.113 11.113,-11.113 6.13819,0 11.1142,4.97599 11.1142,11.113l0 35.5394 53.817 0 0 -35.5394c0,-6.13701 4.97599,-11.113 11.113,-11.113 6.13819,0 11.1142,4.97599 11.1142,11.113l0 35.5394 53.817 0 0 -35.5394c0,-6.13701 4.97599,-11.113 11.113,-11.113 6.13819,0 11.1142,4.97599 11.1142,11.113l0 35.5394 53.817 0 0 -35.5394c0,-6.13701 4.97599,-11.113 11.113,-11.113 6.13819,0 11.1142,4.97599 11.1142,11.113l0 35.5394 53.817 0 0 -35.5394c0,-6.13701 4.97599,-11.113 11.1142,-11.113 6.13701,0 11.113,4.97599 11.113,11.113l0 35.5394 53.817 0 0 -35.5394c0,-6.13701 4.97599,-11.113 11.1142,-11.113 6.13701,0 11.113,4.97599 11.113,11.113l0 35.5394 56.8748 0 0 -35.5394c0,-6.13701 4.97717,-11.113 11.1142,-11.113 6.13701,0 11.1142,4.97599 11.1142,11.113l0 35.5394 53.8158 0 0 -35.5394c0,-6.13701 4.97717,-11.113 11.1142,-11.113 6.13701,0 11.1142,4.97599 11.1142,11.113l0 35.5394 53.8158 0 0 -35.5394c0,-6.13701 4.97717,-11.113 11.1142,-11.113 6.13701,0 11.1142,4.97599 11.1142,11.113l0 35.5394 53.8158 0 0 -35.5394c0,-6.13701 4.97717,-11.113 11.1142,-11.113 6.13701,0 11.1142,4.97599 11.1142,11.113l0 35.5394 53.8158 0 0 -35.5394c0,-6.13701 4.97717,-11.113 11.1142,-11.113 6.13701,0 11.1142,4.97599 11.1142,11.113l0 35.5394 53.8158 0 0 -35.5394c0,-6.13701 4.97717,-11.113 11.1142,-11.113 6.13701,0 11.1142,4.97599 11.1142,11.113l0 35.5394 53.817 0 0 -35.5394z"/>
   </g>
  </g>
  <path class="fil2" d="M1024 -0.0011811c565.539,0 1024,458.462 1024,1024 0,565.539 -458.462,1024 -1024,1024 -565.539,0 -1024,-458.462 -1024,-1024 0,-565.539 458.462,-1024 1024,-1024z"/>
  <rect class="fil3" x="576.33" y="811.45" width="881.268" height="670.718"/>
  <path class="fil4" d="M961.642 801.747c-12.2752,0 -22.2272,9.95198 -22.2272,22.2272 0,12.2764 9.95198,22.2284 22.2272,22.2284l133.364 0c12.2752,0 22.2272,-9.95198 22.2272,-22.2284 0,-12.2752 -9.95198,-22.2272 -22.2272,-22.2272l-133.364 0z"/>
  <path class="fil4" d="M1006.1 1481.48c0,12.2752 9.95198,22.2272 22.2272,22.2272 12.2752,0 22.2284,-9.95198 22.2284,-22.2272l0 -657.502c0,-12.2752 -9.95316,-22.2272 -22.2284,-22.2272 -12.2752,0 -22.2272,9.95198 -22.2272,22.2272l0 657.502z"/>
  <path class="fil5" d="M1020.14 1457.37c2.53229,0.874016 5.29252,1.35591 8.18032,1.35591 2.88898,0 5.64804,-0.48189 8.1815,-1.35591l0 -609.3c-2.53347,-0.874016 -5.29252,-1.35473 -8.1815,-1.35473 -2.8878,0 -5.64804,0.480709 -8.18032,1.35473l0 609.3z"/>
  <path class="fil5" d="M939.418 1209.36c0,8.11772 4.97599,14.6988 11.113,14.6988 6.13701,0 11.113,-6.58111 11.113,-14.6988l0 -68.4934c0,-8.1189 -4.97599,-14.7 -11.113,-14.7 -6.13701,0 -11.113,6.58111 -11.113,14.7l0 68.4934z"/>
  <path class="fil5" d="M1095.01 1209.36c0,8.11772 4.97481,14.6988 11.113,14.6988 6.13701,0 11.113,-6.58111 11.113,-14.6988l0 -68.4934c0,-8.1189 -4.97599,-14.7 -11.113,-14.7 -6.13819,0 -11.113,6.58111 -11.113,14.7l0 68.4934z"/>
  <path class="fil4" d="M772.713 1459.25c-12.2752,0 -22.2272,9.95198 -22.2272,22.2272 0,12.2752 9.95198,22.2284 22.2272,22.2284l511.223 0c12.2752,0 22.2272,-9.95316 22.2272,-22.2284 0,-12.2752 -9.95198,-22.2272 -22.2272,-22.2272l-511.223 0z"/>
  <path class="fil6" d="M494.875 559.447c-12.2752,0 -22.2272,9.95198 -22.2272,22.2272 0,12.2764 9.95198,22.2284 22.2272,22.2284l1066.9 0c12.2752,0 22.2284,-9.95198 22.2284,-22.2284 0,-12.2752 -9.95316,-22.2272 -22.2284,-22.2272l-1066.9 0z"/>
  <ellipse class="fil7" cx="484.891" cy="581.675" rx="20.8912" ry="27.4034"/>
  <ellipse class="fil7" cx="1563.11" cy="581.675" rx="20.8912" ry="27.4034"/>
  <path class="fil8" d="M545.15 523.908c0,-6.13701 -4.97599,-11.113 -11.113,-11.113 -6.13819,0 -11.1142,4.97599 -11.1142,11.113l0 134.402c0,6.13819 4.97599,11.1142 11.1142,11.1142 6.13701,0 11.113,-4.97599 11.113,-11.1142l0 -134.402z"/>
  <path class="fil9" d="M621.195 523.908c0,-6.13701 -4.97599,-11.113 -11.1142,-11.113 -6.13701,0 -11.113,4.97599 -11.113,11.113 0,44.8016 0,89.602 0,134.402 0,6.13819 4.97599,11.1142 11.113,11.1142 6.13819,0 11.1142,-4.97599 11.1142,-11.1142 0,-44.8004 0,-89.6009 0,-134.402z"/>
  <path class="fil9" d="M697.24 523.908c0,-6.13701 -4.97599,-11.113 -11.1142,-11.113 -6.13701,0 -11.113,4.97599 -11.113,11.113 0,44.8016 0,89.602 0,134.402 0,6.13819 4.97599,11.1142 11.113,11.1142 6.13819,0 11.1142,-4.97599 11.1142,-11.1142 0,-44.8004 0,-89.6009 0,-134.402z"/>
  <path class="fil9" d="M773.284 523.908c0,-6.13701 -4.97599,-11.113 -11.1142,-11.113 -6.13701,0 -11.113,4.97599 -11.113,11.113 0,44.8016 0,89.602 0,134.402 0,6.13819 4.97599,11.1142 11.113,11.1142 6.13819,0 11.1142,-4.97599 11.1142,-11.1142 0,-44.8004 0,-89.6009 0,-134.402z"/>
  <path class="fil9" d="M849.328 523.908c0,-6.13701 -4.97599,-11.113 -11.1142,-11.113 -6.13701,0 -11.113,4.97599 -11.113,11.113 0,44.8016 0,89.602 0,134.402 0,6.13819 4.97599,11.1142 11.113,11.1142 6.13819,0 11.1142,-4.97599 11.1142,-11.1142 0,-44.8004 0,-89.6009 0,-134.402z"/>
  <path class="fil9" d="M925.372 523.908c0,-6.13701 -4.97599,-11.113 -11.113,-11.113 -6.13819,0 -11.1142,4.97599 -11.1142,11.113 0,44.8016 0,89.602 0,134.402 0,6.13819 4.97599,11.1142 11.1142,11.1142 6.13701,0 11.113,-4.97599 11.113,-11.1142 0,-44.8004 0,-89.6009 0,-134.402z"/>
  <path class="fil9" d="M1001.42 523.908c0,-6.13701 -4.97599,-11.113 -11.113,-11.113 -6.13819,0 -11.1142,4.97599 -11.1142,11.113 0,44.8016 0,89.602 0,134.402 0,6.13819 4.97599,11.1142 11.1142,11.1142 6.13701,0 11.113,-4.97599 11.113,-11.1142 0,-44.8004 0,-89.6009 0,-134.402z"/>
  <path class="fil10" d="M748.315 1325.82c26.563,56.5359 53.1142,134.243 35.8488,209.387l-278.14 0c-0.0153543,-0.34252 -0.0248032,-0.68504 -0.0248032,-1.02992 0,-281.543 0.0011811,-584.248 0,-865.791 0,-0.996851 0.0673229,-1.97953 0.194882,-2.94213l0 -26.1555 507.381 0 -12.5032 73.291c-26.0398,172.876 -116.28,267.607 -198.892,354.31 -103.244,108.354 -115.715,127.286 -53.8642,258.931z"/>
  <path class="fil11" d="M950.095 655.678c-32.4425,154.276 -128.415,315.906 -239.457,423.043 95.3304,-146.295 178.964,-244.381 212.029,-427.682l27.4276 4.63937z"/>
  <path class="fil11" d="M823.25 654.484c-16.4173,140.93 -76.2012,333.332 -172.518,437.55 80.8075,-143.597 130.319,-271.823 144.819,-439.802l27.6992 2.25118z"/>
  <path class="fil11" d="M712.061 660.857c-3.67323,131.32 -30.6355,325.049 -97.2261,431.177 46.1965,-156.085 69.8209,-262.208 69.2056,-434.791l28.0205 3.61418z"/>
  <path class="fil11" d="M608.958 660.857c-1.88268,117.298 -8.30552,342.058 -47.465,445.113 15.4429,-155.935 21.9248,-288.745 19.4445,-448.727l28.0205 3.61418z"/>
  <path class="fil11" d="M586.738 1535.2c-0.957875,-98.8536 -4.22481,-283.379 -23.074,-368.505 7.39725,128.196 10.5709,237.683 9.51969,368.505l13.5543 0zm165.118 0c-16.6701,-126.546 -62.6044,-258.012 -115.59,-345.742 45.228,119.105 85.0406,199.968 101.936,345.742l13.6536 0zm-61.3926 0c-8.79686,-116.842 -37.6099,-271.915 -83.3587,-356.864 38.3457,116.937 62.2134,221.677 69.9284,356.864l13.4303 0zm-53.563 0c-1.99606,-109.624 -15.1795,-269.098 -47.2701,-356.864 22.1563,128.465 33.6461,216.418 33.6945,356.864l13.5756 0z"/>
  <path class="fil11" d="M599.532 1068.79c-9.89174,45.1807 -5.90079,50.0717 -10.9158,92.5524 -3.09095,26.1697 -1.68189,36.4299 1.55551,62.1036 -20.7791,-75.6627 -19.7882,-78.9213 9.36024,-154.656z"/>
  <path class="fil2" d="M599.532 1068.79c-16.3547,42.0839 -22.8638,99.4194 -9.36024,154.656"/>
  <path class="fil11" d="M646.743 1053.06c-11.928,22.3559 -20.3858,38.1579 -18.3579,65.4166l4.87323 22.865c2.01614,31.5567 -6.62126,26.7945 7.65827,69.7512l8.21457 20.8866 -10.6748 -19.8874 -9.40513 -21.8681c-13.0465,-34.0335 -18.8965,-36.939 -10.9536,-72.5103 7.80827,-34.9595 8.62205,-35.8831 28.6453,-64.6536z"/>
  <path class="fil2" d="M646.743 1053.06c-39.0225,49.9937 -24.5717,127.545 2.38819,178.919"/>
  <path class="fil11" d="M701.551 1047.09c-12.0047,26.2453 -20.5831,45.7347 -21.7134,75.7323l1.72441 27.5563c-1.34291,35.3469 -9.46654,38.5347 3.63071,81.0804l9.84686 24.5528c-13.7091,-26.1201 -33.7229,-77.6091 -32.4662,-106.417 1.15158,-26.4047 25.0028,-78.6922 38.9776,-102.504z"/>
  <path class="fil2" d="M701.551 1047.09c-35.2701,56.5276 -41.1815,148.224 -6.51142,208.922"/>
  <path class="fil12" d="M505.999 738.055c2.27599,2.09764 4.55315,3.52205 6.82914,3.52205 8.66457,0 17.3303,-20.6221 25.9961,-20.6221 8.66457,0 17.3303,20.6221 25.9949,20.6221 8.66575,0 17.3315,-20.6221 25.9961,-20.6221 8.66457,0 17.3303,20.6221 25.9949,20.6221 8.66575,0 17.3315,-20.6221 25.9961,-20.6221 8.66457,0 17.3303,20.6221 25.9961,20.6221 8.66457,0 17.3303,-20.6221 25.9949,-20.6221 8.66575,0 17.3315,20.6221 25.9961,20.6221 8.66457,0 17.3303,-20.6221 25.9961,-20.6221 8.66575,0 17.3303,20.6221 25.9961,20.6221 8.66457,0 17.3303,-20.6221 25.9949,-20.6221 8.66575,0 17.3315,20.6221 25.9961,20.6221 8.66457,0 17.3303,-20.6221 25.9961,-20.6221 8.66457,0 17.3303,20.6221 25.9949,20.6221 8.66575,0 17.3315,-20.6221 25.9961,-20.6221 8.66457,0 17.3303,20.6221 25.9949,20.6221 8.66575,0 17.3315,-20.6221 25.9961,-20.6221 8.66457,0 17.3303,20.6221 25.9961,20.6221 6.08386,0 12.1689,-10.1681 18.254,-16.2236 0.728741,-4.21063 1.41851,-8.46851 2.06693,-12.776l12.5032 -73.291 -507.381 0 0 26.1555c-0.127559,0.962599 -0.194882,1.94528 -0.194882,2.94213l0 53.2654 0 16.4055z"/>
  <path class="fil13" d="M498.727 1121.17c83.0257,0 143.804,47.7532 226.83,47.7532 0,15.5563 -9.90355,31.5189 -9.90355,47.0752 -83.0257,0 -133.9,-48.1607 -216.926,-48.1607 0,-15.5551 0,-31.1114 0,-46.6678z"/>
  <path class="fil8" d="M1514.56 523.908c0,-6.13701 4.97481,-11.113 11.113,-11.113 6.13701,0 11.113,4.97599 11.113,11.113l0 134.402c0,6.13819 -4.97599,11.1142 -11.113,11.1142 -6.13819,0 -11.113,-4.97599 -11.113,-11.1142l0 -134.402z"/>
  <path class="fil9" d="M1438.51 523.908c0,-6.13701 4.97717,-11.113 11.1142,-11.113 6.13701,0 11.1142,4.97599 11.1142,11.113 0,44.8016 0,89.602 0,134.402 0,6.13819 -4.97717,11.1142 -11.1142,11.1142 -6.13701,0 -11.1142,-4.97599 -11.1142,-11.1142 0,-44.8004 0,-89.6009 0,-134.402z"/>
  <path class="fil9" d="M1362.47 523.908c0,-6.13701 4.97717,-11.113 11.1142,-11.113 6.13701,0 11.1142,4.97599 11.1142,11.113 0,44.8016 0,89.602 0,134.402 0,6.13819 -4.97717,11.1142 -11.1142,11.1142 -6.13701,0 -11.1142,-4.97599 -11.1142,-11.1142 0,-44.8004 0,-89.6009 0,-134.402z"/>
  <path class="fil9" d="M1286.42 523.908c0,-6.13701 4.97717,-11.113 11.1142,-11.113 6.13701,0 11.1142,4.97599 11.1142,11.113 0,44.8016 0,89.602 0,134.402 0,6.13819 -4.97717,11.1142 -11.1142,11.1142 -6.13701,0 -11.1142,-4.97599 -11.1142,-11.1142 0,-44.8004 0,-89.6009 0,-134.402z"/>
  <path class="fil9" d="M1210.38 523.908c0,-6.13701 4.97717,-11.113 11.1142,-11.113 6.13701,0 11.1142,4.97599 11.1142,11.113 0,44.8016 0,89.602 0,134.402 0,6.13819 -4.97717,11.1142 -11.1142,11.1142 -6.13701,0 -11.1142,-4.97599 -11.1142,-11.1142 0,-44.8004 0,-89.6009 0,-134.402z"/>
  <path class="fil9" d="M1134.34 523.908c0,-6.13701 4.97717,-11.113 11.1142,-11.113 6.13701,0 11.1142,4.97599 11.1142,11.113 0,44.8016 0,89.602 0,134.402 0,6.13819 -4.97717,11.1142 -11.1142,11.1142 -6.13701,0 -11.1142,-4.97599 -11.1142,-11.1142 0,-44.8004 0,-89.6009 0,-134.402z"/>
  <path class="fil9" d="M1058.29 523.908c0,-6.13701 4.97717,-11.113 11.1142,-11.113 6.13701,0 11.1142,4.97599 11.1142,11.113 0,44.8016 0,89.602 0,134.402 0,6.13819 -4.97717,11.1142 -11.1142,11.1142 -6.13701,0 -11.1142,-4.97599 -11.1142,-11.1142 0,-44.8004 0,-89.6009 0,-134.402z"/>
  <path class="fil10" d="M1311.39 1325.82c-26.5618,56.5359 -53.113,134.243 -35.8477,209.387l278.139 0c0.0165354,-0.34252 0.0248032,-0.68504 0.0248032,-1.02992 0,-281.543 0,-584.248 0,-865.791 0,-0.996851 -0.0673229,-1.97953 -0.193701,-2.94213l0 -26.1555 -507.382 0 12.5032 73.291c26.041,172.876 116.28,267.607 198.892,354.31 103.245,108.354 115.716,127.286 53.8642,258.931z"/>
  <path class="fil11" d="M1109.61 655.678c32.4425,154.276 128.415,315.906 239.457,423.043 -95.3316,-146.295 -178.965,-244.381 -212.03,-427.682l-27.4264 4.63937z"/>
  <path class="fil11" d="M1236.46 654.484c16.4185,140.93 76.2012,333.332 172.519,437.55 -80.8087,-143.597 -130.321,-271.823 -144.819,-439.802l-27.7004 2.25118z"/>
  <path class="fil11" d="M1347.65 660.857c3.67441,131.32 30.6366,325.049 97.2272,431.177 -46.1977,-156.085 -69.8209,-262.208 -69.2067,-434.791l-28.0205 3.61418z"/>
  <path class="fil11" d="M1450.75 660.857c1.8815,117.298 8.30552,342.058 47.465,445.113 -15.4429,-155.935 -21.926,-288.745 -19.4445,-448.727l-28.0205 3.61418z"/>
  <path class="fil11" d="M1472.97 1535.2c0.956694,-98.8536 4.22363,-283.379 23.074,-368.505 -7.39725,128.196 -10.5721,237.683 -9.51969,368.505l-13.5543 0zm-165.118 0c16.6701,-126.546 62.6044,-258.012 115.589,-345.742 -45.2268,119.105 -85.0406,199.968 -101.935,345.742l-13.6536 0zm61.3926 0c8.79568,-116.842 37.6087,-271.915 83.3587,-356.864 -38.3469,116.937 -62.2134,221.677 -69.9296,356.864l-13.4291 0zm53.5619 0c1.99725,-109.624 15.1807,-269.098 47.2713,-356.864 -22.1563,128.465 -33.6473,216.418 -33.6957,356.864l-13.5756 0z"/>
  <path class="fil11" d="M1460.18 1068.79c9.89056,45.1807 5.89961,50.0717 10.9158,92.5524 3.08977,26.1697 1.68189,36.4299 -1.55551,62.1036 20.7791,-75.6627 19.7882,-78.9213 -9.36024,-154.656z"/>
  <path class="fil2" d="M1460.18 1068.79c16.3536,42.0839 22.8638,99.4194 9.36024,154.656"/>
  <path class="fil11" d="M1412.96 1053.06c11.9291,22.3559 20.387,38.1579 18.3591,65.4166l-4.87441 22.865c-2.01496,31.5567 6.62245,26.7945 -7.65827,69.7512l-8.21339 20.8866 10.6736 -19.8874 9.40631 -21.8681c13.0453,-34.0335 18.8965,-36.939 10.9524,-72.5103 -7.80827,-34.9595 -8.62205,-35.8831 -28.6453,-64.6536z"/>
  <path class="fil2" d="M1412.96 1053.06c39.0225,49.9937 24.5729,127.545 -2.38701,178.919"/>
  <path class="fil11" d="M1358.16 1047.09c12.0059,26.2453 20.5843,45.7347 21.7146,75.7323l-1.72441 27.5563c1.34173,35.3469 9.46536,38.5347 -3.63071,81.0804l-9.84686 24.5528c13.7091,-26.1201 33.7217,-77.6091 32.4662,-106.417 -1.15158,-26.4047 -25.004,-78.6922 -38.9788,-102.504z"/>
  <path class="fil2" d="M1358.16 1047.09c35.2701,56.5276 41.1827,148.224 6.5126,208.922"/>
  <path class="fil12" d="M1553.71 738.055c-2.2748,2.09764 -4.55197,3.52205 -6.82796,3.52205 -8.66575,0 -17.3315,-20.6221 -25.9961,-20.6221 -8.66457,0 -17.3303,20.6221 -25.9961,20.6221 -8.66457,0 -17.3303,-20.6221 -25.9949,-20.6221 -8.66575,0 -17.3315,20.6221 -25.9961,20.6221 -8.66457,0 -17.3303,-20.6221 -25.9961,-20.6221 -8.66457,0 -17.3303,20.6221 -25.9949,20.6221 -8.66457,0 -17.3303,-20.6221 -25.9961,-20.6221 -8.66457,0 -17.3303,20.6221 -25.9949,20.6221 -8.66575,0 -17.3315,-20.6221 -25.9961,-20.6221 -8.66575,0 -17.3303,20.6221 -25.9961,20.6221 -8.66575,0 -17.3315,-20.6221 -25.9961,-20.6221 -8.66457,0 -17.3303,20.6221 -25.9949,20.6221 -8.66575,0 -17.3315,-20.6221 -25.9961,-20.6221 -8.66457,0 -17.3303,20.6221 -25.9961,20.6221 -8.66457,0 -17.3303,-20.6221 -25.9949,-20.6221 -8.66575,0 -17.3315,20.6221 -25.9961,20.6221 -8.66457,0 -17.3303,-20.6221 -25.9961,-20.6221 -8.66457,0 -17.3303,20.6221 -25.9949,20.6221 -6.08504,0 -12.1701,-10.1681 -18.2551,-16.2236 -0.72756,-4.21063 -1.41851,-8.46851 -2.06693,-12.776l-12.5032 -73.291 507.382 0 0 26.1555c0.126378,0.962599 0.193701,1.94528 0.193701,2.94213l0 53.2654 0 16.4055z"/>
  <path class="fil13" d="M1560.98 1121.17c-83.0257,0 -143.804,47.7532 -226.83,47.7532 0,15.5563 9.90237,31.5189 9.90237,47.0752 83.0257,0 133.902,-48.1607 216.927,-48.1607 0,-15.5551 0,-31.1114 0,-46.6678z"/>
 </g>
</svg>
