<?xml version="1.0" encoding="UTF-8"?>
<!DOCTYPE svg PUBLIC "-//W3C//DTD SVG 1.1//EN" "http://www.w3.org/Graphics/SVG/1.1/DTD/svg11.dtd">
<!-- Creator: CorelDRAW -->
<svg xmlns="http://www.w3.org/2000/svg" xml:space="preserve" width="2048px" height="2048px" style="shape-rendering:geometricPrecision; text-rendering:geometricPrecision; image-rendering:optimizeQuality; fill-rule:evenodd; clip-rule:evenodd"
viewBox="0 0 2048 2048"
 xmlns:xlink="http://www.w3.org/1999/xlink">
 <defs>
  <style type="text/css">
   <![CDATA[
    .fil2 {fill:none}
    .fil1 {fill:#0097A7}
    .fil0 {fill:#26C6DA}
    .fil4 {fill:#87776A}
    .fil6 {fill:#DBB98C}
    .fil8 {fill:#EBD5A4}
    .fil3 {fill:#263238;fill-rule:nonzero}
    .fil7 {fill:#3E515A;fill-rule:nonzero}
    .fil5 {fill:#4C636E;fill-rule:nonzero}
   ]]>
  </style>
   <clipPath id="id0">
    <path d="M1024 -0.0011811c565.539,0 1024,458.462 1024,1024 0,565.539 -458.462,1024 -1024,1024 -565.539,0 -1024,-458.462 -1024,-1024 0,-565.539 458.462,-1024 1024,-1024z"/>
   </clipPath>
 </defs>
 <g id="Layer_x0020_1">
  <metadata id="CorelCorpID_0Corel-Layer"/>
  <path class="fil0" d="M1024 -0.0011811c565.539,0 1024,458.462 1024,1024 0,565.539 -458.462,1024 -1024,1024 -565.539,0 -1024,-458.462 -1024,-1024 0,-565.539 458.462,-1024 1024,-1024z"/>
  <g style="clip-path:url(#id0)">
   <g id="_451243496">
    <g>
     <polygon id="_3305223761" class="fil1" points="1308.38,487.681 2444.26,1623.56 2444.78,1632.46 2445.34,1641.36 2445.94,1650.26 2446.59,1659.17 2447.29,1668.09 2448.03,1677.01 2448.82,1685.94 2449.66,1694.88 2450.54,1703.82 2451.48,1712.77 2452.46,1721.73 2453.49,1730.69 2454.58,1739.66 2455.71,1748.64 2456.89,1757.62 2458.13,1766.61 2459.42,1775.61 2460.76,1784.61 2462.15,1793.62 2463.6,1802.64 2465.1,1811.67 2466.66,1820.7 2468.26,1829.74 2469.93,1838.79 2471.65,1847.84 2473.43,1856.91 2475.26,1865.98 2477.16,1875.06 2479.11,1884.14 2481.11,1893.24 2483.18,1902.34 2485.31,1911.45 1349.43,775.566 1347.3,766.456 1345.23,757.353 1343.23,748.26 1341.28,739.173 1339.38,730.094 1337.55,721.023 1335.77,711.961 1334.05,702.905 1332.38,693.857 1330.77,684.817 1329.22,675.784 1327.72,666.758 1326.27,657.739 1324.88,648.728 1323.54,639.723 1322.25,630.727 1321.01,621.736 1319.83,612.753 1318.69,603.776 1317.61,594.807 1316.58,585.845 1315.6,576.889 1314.66,567.939 1313.78,558.996 1312.94,550.06 1312.15,541.13 1311.41,532.206 1310.71,523.289 1310.06,514.378 1309.46,505.473 1308.9,496.574 "/>
     <polygon id="_330521896" class="fil1" points="1349.43,775.566 2485.31,1911.45 2487.44,1920.35 2489.63,1929.26 2491.88,1938.18 2494.19,1947.1 2496.55,1956.04 2498.98,1964.99 2501.47,1973.94 2504.01,1982.91 2506.62,1991.88 2509.29,2000.86 2512.02,2009.86 2514.81,2018.86 2517.67,2027.87 2520.58,2036.89 2523.57,2045.92 2526.61,2054.96 2529.72,2064.02 2532.9,2073.08 2536.14,2082.15 2539.44,2091.23 2542.81,2100.32 2546.25,2109.43 2549.76,2118.54 2553.33,2127.66 2556.98,2136.79 2560.69,2145.94 2564.47,2155.09 2568.31,2164.26 2572.23,2173.43 2576.22,2182.62 2580.28,2191.82 2584.41,2201.03 1448.53,1065.15 1444.4,1055.94 1440.34,1046.74 1436.35,1037.55 1432.43,1028.38 1428.58,1019.21 1424.81,1010.06 1421.09,1000.91 1417.45,991.778 1413.88,982.655 1410.37,973.543 1406.93,964.441 1403.56,955.348 1400.25,946.267 1397.01,937.196 1393.84,928.133 1390.73,919.083 1387.68,910.041 1384.7,901.009 1381.78,891.987 1378.93,882.975 1376.14,873.973 1373.41,864.98 1370.74,855.996 1368.13,847.023 1365.59,838.059 1363.1,829.104 1360.67,820.158 1358.31,811.221 1356,802.294 1353.75,793.375 1351.56,784.466 "/>
     <polygon id="_330523408" class="fil1" points="1448.53,1065.15 2584.41,2201.03 2588.41,2209.8 1452.53,1073.92 "/>
     <polygon id="_330523336" class="fil1" points="1452.57,1073.9 2588.45,2209.78 2589.34,2211.97 2590.02,2214.22 2590.5,2216.51 2590.78,2218.81 2590.87,2221.11 2590.77,2223.4 2590.48,2225.66 2590.01,2227.87 2589.36,2230.02 2588.54,2232.09 2587.55,2234.07 2586.39,2235.93 2585.07,2237.67 2583.6,2239.26 2581.97,2240.7 2580.2,2241.96 1444.31,1106.07 1446.09,1104.81 1447.72,1103.38 1449.19,1101.79 1450.51,1100.05 1451.67,1098.18 1452.66,1096.21 1453.48,1094.14 1454.13,1091.99 1454.6,1089.77 1454.89,1087.52 1454.99,1085.23 1454.9,1082.92 1454.62,1080.62 1454.14,1078.34 1453.46,1076.09 "/>
     <polygon id="_330523912" class="fil1" points="1444.31,1106.07 2580.2,2241.96 2579.01,2242.65 2577.8,2243.24 2576.58,2243.73 2575.34,2244.13 2574.1,2244.44 2572.85,2244.65 2571.6,2244.76 2570.35,2244.79 1434.47,1108.91 1435.71,1108.88 1436.97,1108.77 1438.22,1108.56 1439.46,1108.25 1440.7,1107.85 1441.92,1107.36 1443.13,1106.76 "/>
     <polygon id="_330523456" class="fil1" points="681.508,486.274 1817.39,1622.16 1817.35,1622.13 681.471,486.244 "/>
     <polygon id="_330523528" class="fil1" points="1180.62,1108.91 2316.5,2244.79 2170.31,2244.79 1034.43,1108.91 "/>
     <polygon id="_330523984" class="fil1" points="955.379,1108.91 2091.26,2244.79 1690.98,2244.79 555.103,1108.91 "/>
     <polygon id="_330523288" class="fil1" points="1034.43,1108.91 2170.31,2244.79 2184.83,2581.58 1048.95,1445.69 "/>
     <polygon id="_330523600" class="fil1" points="1187.91,1108.91 2323.79,2244.79 2323.79,2447.05 1187.91,1311.17 "/>
     <polygon id="_330523864" class="fil1" points="1220.08,1474.07 2355.96,2609.95 2357.17,2611.25 2358.29,2612.63 2359.3,2614.1 2360.19,2615.65 2360.97,2617.27 2361.63,2618.96 1225.75,1483.07 1225.09,1481.39 1224.31,1479.77 1223.42,1478.22 1222.41,1476.75 1221.29,1475.36 "/>
     <polygon id="_330524128" class="fil1" points="1225.75,1483.07 2361.63,2618.96 2371.93,2643.69 1236.05,1507.81 "/>
     <polygon id="_330524104" class="fil1" points="1509.04,1555 2644.92,2690.88 2645.71,2691.67 2646.42,2692.51 2647.05,2693.39 2647.6,2694.31 2648.07,2695.26 2648.44,2696.23 2648.73,2697.22 2648.93,2698.21 2649.03,2699.2 2649.05,2700.19 2648.96,2701.16 2648.78,2702.11 2648.5,2703.02 2648.12,2703.9 2647.64,2704.74 1511.75,1568.86 1512.24,1568.02 1512.62,1567.14 1512.9,1566.22 1513.08,1565.28 1513.16,1564.31 1513.15,1563.32 1513.05,1562.33 1512.85,1561.34 1512.56,1560.35 1512.18,1559.38 1511.72,1558.43 1511.17,1557.51 1510.54,1556.63 1509.83,1555.79 "/>
     <polygon id="_330524224" class="fil1" points="1192.54,1314.49 2328.43,2450.38 2329.53,2451.55 2330.61,2452.84 2331.67,2454.24 2332.7,2455.75 2333.71,2457.34 2334.68,2459.03 2335.63,2460.78 2336.54,2462.6 2337.42,2464.48 2338.27,2466.41 2339.09,2468.38 2339.86,2470.38 2340.6,2472.4 2341.3,2474.44 2341.97,2476.48 2342.59,2478.51 2343.16,2480.54 2343.7,2482.54 2344.19,2484.51 2344.63,2486.44 2345.03,2488.32 2345.38,2490.15 2345.67,2491.91 2345.92,2493.6 2346.11,2495.2 2346.25,2496.71 2346.34,2498.12 2346.37,2499.42 2346.23,2501.9 2345.83,2503.94 2345.19,2505.58 2344.31,2506.85 2343.2,2507.8 2341.89,2508.47 2340.38,2508.88 2338.69,2509.09 2336.82,2509.13 2334.81,2509.04 2332.64,2508.86 2330.35,2508.62 2327.95,2508.37 2325.43,2508.14 2322.83,2507.97 2320.15,2507.91 2317.47,2507.97 2314.87,2508.14 2312.35,2508.37 2309.94,2508.62 2307.65,2508.86 2305.49,2509.04 2303.47,2509.13 2301.61,2509.09 2299.92,2508.88 2298.41,2508.47 2297.1,2507.8 2295.99,2506.85 1160.11,1370.97 1161.22,1371.92 1162.53,1372.58 1164.04,1373 1165.73,1373.21 1167.59,1373.25 1169.61,1373.16 1171.77,1372.97 1174.06,1372.74 1176.47,1372.48 1178.98,1372.26 1181.59,1372.09 1184.27,1372.03 1186.95,1372.09 1189.55,1372.26 1192.06,1372.48 1194.47,1372.74 1196.76,1372.97 1198.93,1373.16 1200.94,1373.25 1202.81,1373.21 1204.5,1373 1206.01,1372.58 1207.32,1371.92 1208.42,1370.97 1209.31,1369.7 1209.95,1368.06 1210.35,1366.02 1210.48,1363.54 1210.46,1362.24 1210.37,1360.83 1210.23,1359.32 1210.04,1357.71 1209.79,1356.03 1209.49,1354.27 1209.15,1352.44 1208.75,1350.56 1208.31,1348.63 1207.82,1346.66 1207.28,1344.65 1206.71,1342.63 1206.08,1340.6 1205.42,1338.55 1204.72,1336.52 1203.98,1334.5 1203.2,1332.5 1202.39,1330.53 1201.54,1328.6 1200.66,1326.72 1199.75,1324.9 1198.8,1323.14 1197.82,1321.46 1196.82,1319.87 1195.79,1318.36 1194.73,1316.96 1193.65,1315.67 "/>
     <polygon id="_330524056" class="fil1" points="1425.5,1557.12 2561.38,2693 2558.42,2691.14 2555.52,2689.32 2552.69,2687.55 2549.93,2685.86 2547.26,2684.24 2544.69,2682.73 2542.25,2681.34 2539.93,2680.07 2537.76,2678.95 2535.75,2677.99 2533.91,2677.21 2532.26,2676.62 2530.8,2676.24 2529.56,2676.08 2528.54,2676.16 2527.77,2676.49 1391.89,1540.61 1392.66,1540.28 1393.68,1540.2 1394.92,1540.36 1396.38,1540.74 1398.03,1541.33 1399.87,1542.11 1401.88,1543.07 1404.05,1544.19 1406.36,1545.45 1408.81,1546.85 1411.37,1548.36 1414.04,1549.97 1416.8,1551.67 1419.64,1553.44 1422.54,1555.26 "/>
     <polygon id="_330492088" class="fil1" points="1391.89,1540.61 2527.77,2676.49 2523.5,2679.42 2519.37,2682.05 2515.37,2684.38 2511.5,2686.42 2507.76,2688.19 2504.14,2689.7 2500.63,2690.95 2497.23,2691.95 2493.95,2692.72 2490.76,2693.26 2487.68,2693.59 2484.69,2693.71 2481.79,2693.64 2478.97,2693.38 2476.24,2692.95 2473.58,2692.35 2471,2691.6 2468.49,2690.7 2466.03,2689.66 2463.65,2688.5 2461.31,2687.22 2459.03,2685.84 2456.79,2684.36 2454.6,2682.8 2452.45,2681.16 2450.33,2679.45 2448.24,2677.69 2446.17,2675.88 2444.13,2674.04 2442.1,2672.17 2440.09,2670.28 2438.08,2668.39 1302.2,1532.51 1304.21,1534.4 1306.22,1536.29 1308.25,1538.16 1310.29,1540 1312.35,1541.81 1314.45,1543.57 1316.57,1545.28 1318.72,1546.92 1320.91,1548.48 1323.15,1549.96 1325.43,1551.34 1327.76,1552.62 1330.15,1553.78 1332.6,1554.82 1335.12,1555.72 1337.7,1556.47 1340.36,1557.07 1343.09,1557.5 1345.9,1557.76 1348.81,1557.83 1351.8,1557.71 1354.88,1557.38 1358.07,1556.84 1361.35,1556.07 1364.75,1555.06 1368.26,1553.81 1371.88,1552.31 1375.62,1550.54 1379.49,1548.49 1383.49,1546.17 1387.62,1543.54 "/>
     <polygon id="_330492400" class="fil1" points="1302.2,1532.51 2438.08,2668.39 2436.76,2667.14 2435.44,2665.91 2434.12,2664.69 2432.79,2663.49 2431.45,2662.32 2430.1,2661.18 2428.73,2660.09 2427.35,2659.04 2425.94,2658.04 2424.51,2657.11 2423.05,2656.24 2421.56,2655.45 2420.04,2654.73 2418.48,2654.11 2416.88,2653.57 2415.24,2653.13 2413.55,2652.8 2411.82,2652.58 2410.03,2652.48 2408.19,2652.5 2406.29,2652.65 2404.33,2652.94 2402.3,2653.38 2400.21,2653.96 2398.05,2654.71 2395.82,2655.61 2393.52,2656.68 2391.13,2657.93 2388.66,2659.37 2386.11,2660.99 2383.47,2662.81 2380.74,2664.82 1244.86,1528.94 1247.59,1526.92 1250.23,1525.11 1252.78,1523.49 1255.25,1522.05 1257.63,1520.8 1259.94,1519.73 1262.17,1518.82 1264.33,1518.08 1266.42,1517.5 1268.45,1517.06 1270.41,1516.77 1272.31,1516.62 1274.15,1516.6 1275.93,1516.7 1277.67,1516.92 1279.36,1517.25 1281,1517.69 1282.6,1518.22 1284.16,1518.85 1285.68,1519.57 1287.17,1520.36 1288.63,1521.23 1290.06,1522.16 1291.47,1523.16 1292.85,1524.2 1294.22,1525.3 1295.57,1526.44 1296.91,1527.61 1298.24,1528.8 1299.56,1530.03 1300.88,1531.26 "/>
     <polygon id="_330492424" class="fil1" points="1244.86,1528.94 2380.74,2664.82 2390.22,2687.59 1254.34,1551.71 "/>
     <polygon id="_330492472" class="fil1" points="1254.38,1551.69 2390.26,2687.57 2391.07,2689.82 2391.63,2692.09 2391.96,2694.38 2392.06,2696.66 2391.94,2698.92 2391.6,2701.15 2391.05,2703.32 2390.3,2705.43 2389.35,2707.46 2388.2,2709.39 2386.88,2711.21 2385.37,2712.9 2383.7,2714.45 2381.85,2715.84 2379.85,2717.06 2377.7,2718.08 1241.81,1582.2 1243.97,1581.17 1245.97,1579.96 1247.82,1578.57 1249.49,1577.02 1251,1575.32 1252.32,1573.51 1253.46,1571.58 1254.42,1569.55 1255.17,1567.44 1255.72,1565.26 1256.06,1563.04 1256.18,1560.78 1256.08,1558.5 1255.75,1556.21 1255.19,1553.94 "/>
     <polygon id="_330492496" class="fil1" points="1241.81,1582.2 2377.7,2718.08 2376.54,2718.53 2375.38,2718.91 2374.21,2719.23 2373.03,2719.48 2371.85,2719.67 2370.67,2719.8 2369.5,2719.87 2368.32,2719.88 1232.44,1584 1233.62,1583.99 1234.79,1583.92 1235.97,1583.79 1237.15,1583.6 1238.32,1583.35 1239.49,1583.03 1240.66,1582.65 "/>
     <polygon id="_330492064" class="fil1" points="555.103,1108.91 1690.98,2244.79 1688.91,2244.67 1686.9,2244.31 1684.95,2243.72 1683.09,2242.92 1681.32,2241.92 1679.65,2240.73 1678.09,2239.37 542.207,1103.48 543.767,1104.85 545.439,1106.04 547.211,1107.04 549.074,1107.84 551.018,1108.43 553.03,1108.79 "/>
     <polygon id="_330492184" class="fil1" points="756.967,1584 1892.85,2719.88 1890.46,2719.76 1888.14,2719.41 1885.91,2718.83 1883.77,2718.04 1881.73,2717.06 1879.8,2715.89 1878,2714.55 742.124,1578.67 743.92,1580.01 745.844,1581.18 747.884,1582.16 750.028,1582.95 752.264,1583.52 754.581,1583.88 "/>
     <polygon id="_330491848" class="fil1" points="1511.75,1568.86 2647.64,2704.74 2645.73,2707.41 2643.73,2709.78 2641.65,2711.86 2639.49,2713.67 2637.25,2715.21 2634.94,2716.5 2632.57,2717.53 2630.12,2718.34 2627.62,2718.91 2625.06,2719.27 2622.44,2719.43 2619.77,2719.38 2617.05,2719.16 2614.3,2718.75 2611.5,2718.19 2608.66,2717.46 2605.8,2716.59 2602.9,2715.59 2599.98,2714.46 2597.04,2713.22 2594.08,2711.87 2591.1,2710.42 2588.12,2708.89 2585.12,2707.29 2582.13,2705.63 2579.13,2703.9 2576.14,2702.14 2573.16,2700.34 2570.19,2698.51 2567.23,2696.68 2564.29,2694.83 2561.38,2693 1425.5,1557.12 1428.41,1558.95 1431.35,1560.79 1434.31,1562.63 1437.28,1564.46 1440.26,1566.26 1443.25,1568.02 1446.25,1569.74 1449.24,1571.41 1452.23,1573.01 1455.22,1574.54 1458.19,1575.98 1461.16,1577.33 1464.1,1578.58 1467.02,1579.71 1469.91,1580.71 1472.78,1581.58 1475.62,1582.3 1478.41,1582.87 1481.17,1583.27 1483.89,1583.5 1486.56,1583.54 1489.17,1583.39 1491.74,1583.03 1494.24,1582.45 1496.68,1581.65 1499.06,1580.61 1501.37,1579.33 1503.61,1577.79 1505.77,1575.98 1507.85,1573.9 1509.84,1571.53 "/>
     <polygon id="_330491968" class="fil1" points="1232.44,1584 2368.32,2719.88 1892.85,2719.88 756.967,1584 "/>
     <polygon id="_330491944" class="fil1" points="1434.47,1108.91 2570.35,2244.79 2323.79,2244.79 1187.91,1108.91 "/>
     <polygon id="_330492688" class="fil1" points="1302.42,470.934 2438.3,1606.82 2439.61,1608.5 2440.78,1610.32 2441.8,1612.27 2442.65,1614.34 2443.34,1616.52 2443.84,1618.79 2444.15,1621.14 2444.26,1623.56 1308.38,487.681 1308.27,485.259 1307.96,482.907 1307.46,480.637 1306.77,478.46 1305.92,476.391 1304.9,474.439 1303.73,472.615 "/>
    </g>
    <path id="_451243760" class="fil1" d="M1308.38 487.681c5.24882,94.8249 18.0461,190.668 41.0433,287.884 22.4492,94.891 54.6591,191.294 99.1064,289.581l3.99567 8.77205 0.0377953 -0.022441c5.30433,11.5547 1.60984,25.9618 -8.25119,32.178 -3.13819,1.97717 -6.52205,2.88425 -9.84922,2.83583l-246.552 0 0 202.262c12.7536,5.62796 22.5709,39.1217 22.5709,52.3642 0,14.4791 -11.7378,8.49213 -26.2169,8.49213 -14.4791,0 -26.2158,5.98701 -26.2158,-8.49213 0,-13.2413 9.81615,-46.7363 22.5697,-52.3642l0 -202.262 -146.189 0 14.5181 336.783c51.763,2.94921 103.337,10.1799 154.723,21.6354 10.2307,0 18.9225,6.58465 22.0713,15.7465l10.3051 24.7311c38.4957,-27.0874 58.1977,-8.47205 78.5044,10.7161 14.8039,13.9878 30.0803,28.4197 63.7808,4.45512 13.3654,-9.50434 33.3355,3.07323 55.5296,17.0551 23.2229,14.6291 49.767,31.3488 60.352,15.3473 2.86063,-4.33347 9.10749,-4.82953 13.9488,-1.10787 4.84252,3.72284 6.44882,10.2543 3.58819,14.5878 -19.8886,30.0662 -55.2863,7.76694 -86.2583,-11.7437 -15.8587,-9.98977 -30.1288,-18.9791 -33.6095,-16.5047 -46.2768,32.9103 -68.3221,12.0827 -89.6859,-8.10473 -14.0776,-13.3016 -27.724,-26.1945 -57.3437,-3.56457l9.48426 22.7634 0.0377953 -0.0165354c4.95591,11.8961 -0.669686,25.5579 -12.5646,30.5138 -3.06733,1.27677 -6.2504,1.84961 -9.37324,1.7941l-475.474 0c-12.887,0 -23.3339,-10.4469 -23.3339,-23.3339 0,-3.69922 0.862205,-7.19646 2.39528,-10.3039l28.5933 -68.6292 -0.0283465 -0.0413386c3.80197,-9.12402 12.7264,-14.5606 22.0477,-14.3599 51.593,-11.4154 102.998,-18.5847 154.217,-21.5646l14.5217 -336.854 -400.276 0c-11.1969,0 -20.276,-10.6382 -20.276,-23.7591 0,-4.60985 1.12087,-8.91379 3.06142,-12.5551l3.38977 -7.44804c44.4473,-98.2867 76.6607,-194.69 99.1087,-289.582 23.1106,-97.6973 35.9221,-194.007 41.1213,-289.291l-0.0377953 -0.0307087c0.686221,-12.5858 9.61891,-22.2532 20.2358,-22.2425l293.199 0 293.201 0c11.1756,0 20.2406,10.5945 20.276,23.6799z"/>
   </g>
  </g>
  <path class="fil2" d="M1024 -0.0011811c565.539,0 1024,458.462 1024,1024 0,565.539 -458.462,1024 -1024,1024 -565.539,0 -1024,-458.462 -1024,-1024 0,-565.539 458.462,-1024 1024,-1024z"/>
  <path class="fil3" d="M1225.12 1516.32c-3.91772,3.33071 -3.82914,9.79017 0.199606,14.4236 4.02756,4.63347 10.4705,5.69056 14.387,2.35866 33.2351,-28.2366 47.6233,-14.6433 62.4922,-0.594095 21.3638,20.1862 43.4091,41.015 89.6859,8.10473 3.48071,-2.47441 17.7508,6.51497 33.6095,16.5047 30.9721,19.5106 66.3709,41.8099 86.2583,11.7437 2.86063,-4.33347 1.25433,-10.865 -3.58701,-14.5878 -4.84252,-3.72166 -11.0894,-3.22559 -13.95,1.10787 -10.585,16.0016 -37.1292,-0.719292 -60.352,-15.3473 -22.1941,-13.9819 -42.1654,-26.5607 -55.5296,-17.0551 -33.7004,23.9646 -48.9768,9.53268 -63.7808,-4.45512 -22.1433,-20.9244 -43.5709,-41.1697 -89.4331,-2.20394z"/>
  <path class="fil3" d="M1187.91 1085.23c0,-2.01378 -1.63228,-3.64725 -3.64607,-3.64725 -2.01378,0 -3.64607,1.63347 -3.64607,3.64725l0 242.447c0,2.0126 1.63228,3.64607 3.64607,3.64607 2.01378,0 3.64607,-1.63347 3.64607,-3.64607l0 -242.447z"/>
  <path class="fil4" d="M1184.27 1310.36c14.4791,0 26.2169,38.6929 26.2169,53.1721 0,14.478 -11.7378,8.49213 -26.2169,8.49213 -14.4791,0 -26.2158,5.98583 -26.2158,-8.49213 0,-14.4791 11.7366,-53.1721 26.2158,-53.1721z"/>
  <path class="fil5" d="M1028.88 980.075c0,-16.3819 -15.2114,-29.6634 -33.9744,-29.6634 -18.7618,0 -33.9733,13.2815 -33.9733,29.6634l-20.9492 485.967c0,26.4827 24.5906,47.954 54.9225,47.954 30.3319,0 54.9225,-21.4713 54.9225,-47.954l-20.948 -485.967z"/>
  <path class="fil6" d="M701.706 464.001l293.199 0 293.201 0c11.1756,0 20.2406,10.5957 20.276,23.6799 5.24882,94.8249 18.0461,190.669 41.0433,287.884 23.1166,97.7127 56.5831,197.027 103.102,298.353l0.0377953 -0.022441c5.30433,11.5547 1.60984,25.9618 -8.25119,32.178 -3.13819,1.97599 -6.52205,2.88425 -9.84922,2.83465l-439.559 0 -439.803 0c-11.1969,0 -20.276,-10.637 -20.276,-23.7579 0,-4.60985 1.12087,-8.91261 3.06142,-12.5551 46.2036,-100.866 79.4835,-199.742 102.499,-297.03 23.1106,-97.6973 35.9221,-194.007 41.1213,-289.291l-0.0377953 -0.0307087c0.686221,-12.5858 9.61891,-22.2532 20.2358,-22.2425z"/>
  <path class="fil4" d="M1448.53 1065.15c1.32165,2.92205 2.65276,5.84646 3.99567,8.77205l0.0377953 -0.022441c5.30433,11.5547 1.60984,25.9618 -8.25119,32.178 -3.13819,1.97717 -6.52205,2.88425 -9.84922,2.83583l-439.559 0 -439.803 0c-11.1969,0 -20.276,-10.6382 -20.276,-23.7591 0,-4.60985 1.12087,-8.91379 3.06142,-12.5551 1.1374,-2.48504 2.26654,-4.96654 3.38859,-7.44922l907.255 0z"/>
  <path class="fil7" d="M786.641 1467.33c140.391,-31.063 279.383,-30.6851 417.033,0 10.2307,0 18.9225,6.58465 22.0713,15.7465l28.5957 68.6304 0.0377953 -0.0165354c4.95591,11.8961 -0.669686,25.5579 -12.5646,30.5138 -3.06733,1.27677 -6.2504,1.84961 -9.37324,1.7941l-475.474 0c-12.887,0 -23.3339,-10.4469 -23.3339,-23.3339 0,-3.69922 0.862205,-7.19646 2.39528,-10.3039l28.5933 -68.6292 -0.0283465 -0.0413386c3.80197,-9.12402 12.7264,-14.5606 22.0477,-14.3599z"/>
  <path class="fil8" d="M727.855 542.558c6.7193,7.88032 19.1303,7.96536 27.7146,0.141732 8.52048,-7.82245 9.58229,-20.5571 2.31496,-28.4658 -7.39489,-7.90867 -19.7728,-7.96536 -27.6827,-0.142913 -8.07048,7.79528 -9.06615,20.5571 -2.34685,28.467zm174.199 7.05119c0,0 22.6996,-7.67953 32.5051,9.13701 6.62363,11.7354 -2.79685,22.7847 -10.8024,24.7547 -7.813,1.88504 -13.5685,-6.22441 -9.32363,-12.3921 0.0318898,0 0.0956694,0 0.159449,-0.0283465 0.129921,-0.256299 0.28937,-0.484252 0.483071,-0.713386 2.7,-3.7689 7.65237,-5.02441 10.9642,-2.79803 0.546851,0.34252 1.02874,0.77126 1.44685,1.25669 0.19252,-0.742914 1.83189,-6.85276 -2.31496,-11.1933 -10.8685,-11.1626 -23.1177,-8.02323 -23.1177,-8.02323zm-0.225591 -40.0004c2.41181,-2.25591 6.07678,-4.0252 11.3823,-2.82638 11.7354,2.59843 14.1142,15.6177 11.1248,22.3276 -2.95748,6.70985 -15.4654,16.8744 -27.1677,11.8488 -12.1854,-5.19685 -16.3016,-15.0177 -22.9571,-22.9559 2.41181,7.16693 -0.354331,15.6473 -3.47244,20.1295 -3.56929,4.93937 -12.1536,9.53623 -19.9335,7.68071 4.66181,3.28347 8.19804,8.6504 9.613,16.2165 2.86181,15.8173 -12.2173,37.6028 -33.6957,41.6575 -21.5103,4.05355 -34.0158,-11.5913 -40.0607,-47.9953 -8.42363,-36.404 -32.5701,-47.9103 -32.5701,-47.9103 35.5276,0.0862205 44.6918,20.3575 49.4174,43.1989 3.72874,22.8697 13.6323,34.6902 22.7315,35.4331 12.5705,1.02756 22.3134,-15.3614 11.928,-22.2992 -3.88937,-2.59843 -9.38741,-0.455906 -12.2492,2.08465 -4.05118,3.56811 -5.40237,10.1067 -5.40237,10.1067 -16.5898,-8.9941 -6.07678,-27.4087 8.77796,-32.7485 5.3693,-1.91339 10.8036,-2.17087 15.6579,-0.628347 -0.386221,-0.314173 -0.77126,-0.656693 -1.09252,-1.02756 -4.01929,-3.91181 -4.53426,-8.19449 -3.89174,-11.7354 0.0330709,-0.77126 0.129921,-1.54134 0.354331,-2.3126 1.51181,-5.99528 7.39489,-9.96379 13.1823,-8.85001 5.20867,0.998032 8.52048,5.82402 7.94174,11.191 1.83307,-1.37008 3.50433,-3.65433 3.60118,-7.13741 0.12874,-3.65433 -3.63307,-12.991 -18.9378,-12.9626 -10.063,0.056693 -26.4933,7.79528 -26.4933,7.79528 7.363,-5.91024 20.0953,-11.9634 32.3457,-12.0213 5.24056,-0.770079 24.274,-2.45551 33.2126,11.3929 8.74489,14.5606 17.2973,17.7874 24.1453,15.1323 3.24685,-1.25669 4.11496,-4.11142 4.05118,-6.51024 -4.01929,3.28347 -9.67796,3.25512 -13.1823,-0.256299 -3.85748,-3.82559 -3.82559,-10.3642 0.0318898,-14.5618 0.514961,-0.570473 1.02874,-1.05709 1.60748,-1.4563zm-20.2229 26.3244c0,0 1.76811,4.22599 2.41181,16.3323 0.28937,12.1335 5.1437,21.9555 24.9815,20.6421 0,0 -6.013,-6.96615 -7.10552,-15.0756 -1.15748,-8.13662 -2.7,-15.6165 -18.7122,-21.4984 0,0 12.5398,7.67953 11.9291,21.7571 0,0 0.19252,-13.1917 -13.5047,-22.1575zm-4.30866 -6.10985c0,0 -0.257481,4.76811 -7.58741,14.1898 -7.39489,9.42284 -11.7673,19.9016 0.225591,32.0929 0,0 1.15748,-9.36497 5.78741,-16.2744 4.62992,-6.88111 8.45552,-13.5047 2.60433,-28.5236 0,0 3.43937,11.7638 -6.62363,24.2126 0,0 9.35552,-13.8189 5.59371,-25.6973zm32.7626 13.3051c0,0 8.87363,-1.62756 24.854,-17.1874 15.3685,-15.561 33.502,-25.0689 59.9953,-3.17008 0,0 -17.2654,2.9126 -29.0977,12.4488 -12.0886,9.53623 -23.824,17.9303 -52.7611,9.53623 0,0 22.4421,4.28268 43.7587,-16.8177 0,0 -23.9858,19.9866 -46.7492,15.1902zm-131.95 -35.1177c0,0 14.211,-0.229134 18.9378,9.90709 4.2437,10.135 8.93741,26.4673 27.039,26.1815 0,0 -2.79685,-6.05315 -2.92559,-13.591 -0.225591,-7.53662 -4.69489,-24.0969 -35.6563,-22.898 0,0 20.8028,-0.999213 26.8465,20.3858 0,0 -8.03741,-20.8996 -34.2414,-19.9854zm110.473 62.5276c2.15433,2.74134 1.38307,7.13859 -1.73622,9.82205 -3.11811,2.68347 -7.39489,2.65512 -9.54922,-0.056693 -2.15315,-2.71299 -1.38189,-7.10906 1.70433,-9.82205 3.05433,-2.68347 7.33111,-2.65512 9.58111,0.056693zm-156.065 123.458c0,0 -11.6386,22.298 2.76496,34.7185 10.1929,8.67993 22.0571,1.05591 25.1752,-6.79607 3.08622,-7.67953 -3.44055,-15.1606 -10.063,-11.9055 -0.0330709,0.0578741 -0.0330709,0.114567 -0.0330709,0.172441 -0.256299,0.0850394 -0.51378,0.227953 -0.739371,0.34252 -4.08307,2.19803 -6.14056,7.02284 -4.59804,10.8496 0.257481,0.598819 0.61063,1.14213 0.996851,1.62638 -0.739371,0.114567 -6.81615,0.829134 -10.2236,-4.13977 -8.68111,-12.7618 -3.27992,-24.8681 -3.27992,-24.8681zm-38.1638 -3.88347c-2.66811,2.39882 -5.17678,6.0815 -5.04804,11.5913 0.354331,12.163 12.4429,15.3047 19.3878,12.8209 7.00867,-2.45551 18.9685,-14.0197 16.6536,-26.6965 -2.31496,-13.1622 -10.8024,-18.215 -16.911,-25.754 6.30119,3.08386 15.0473,1.00039 19.9984,-1.74095 5.46615,-3.05433 11.7992,-11.2488 11.7992,-19.5012 2.05866,5.19567 6.30237,9.56457 13.0866,12.2492 14.1473,5.65276 37.8425,-5.53937 46.5237,-26.7815 8.48859,-21.215 -3.47244,-37.3748 -36.5575,-50.0516 -33.3414,-12.6484 -41.0575,-37.9737 -41.0575,-37.9737 -5.20867,36.5174 12.5079,47.1674 33.3744,54.6189 20.7047,7.48111 29.6433,19.8721 28.2933,29.3799 -1.89685,13.1339 -19.4197,20.0729 -23.5677,8.22284 -1.51063,-4.39607 1.73622,-9.67914 4.75867,-12.2197 4.2437,-3.56929 10.6417,-3.79843 10.6417,-3.79843 -4.88741,-18.6154 -24.4347,-10.5921 -32.6988,3.94134 -3.02126,5.28189 -4.5,10.8496 -4.17874,16.0453 -0.193701,-0.427559 -0.45,-0.8563 -0.675591,-1.28386 -2.79685,-4.62638 -6.78426,-5.59607 -10.2886,-5.25473 -0.739371,-0.0283465 -1.51063,0 -2.28307,0.142913 -6.10749,1.05709 -11.1886,6.76654 -11.4461,12.7913 -0.256299,5.42481 3.60236,9.2504 8.84174,9.13701 -1.70433,1.77047 -4.30866,3.25512 -7.65119,3.08386 -3.5374,-0.172441 -11.6398,-4.45512 -8.10237,-20.1862 2.34685,-10.3642 13.4705,-26.8961 13.4705,-26.8961 -7.32993,7.30867 -16.0099,20.2146 -18.8717,32.7485 -1.9937,5.36811 -7.94174,24.8681 3.44055,34.5485 12.0236,10.2213 13.3099,19.2437 9.35434,26.0681 -1.76693,3.22559 -4.66063,3.85394 -6.9756,3.59646 3.92244,-3.85394 5.04685,-9.67914 2.41063,-13.5626 -2.86181,-4.2815 -9.12993,-4.65237 -13.9854,-0.883465 -0.61063,0.484252 -1.22126,1.02638 -1.73622,1.59803zm29.5796 -18.9012c0,0 3.60118,2.34213 14.9504,4.56851 11.2854,2.19803 19.4835,8.85119 14.2748,28.9807 0,0 -5.46496,-7.36772 -12.8917,-9.73702 -7.39607,-2.39764 -14.1791,-4.96772 -16.3335,-22.1563 0,0 4.56496,13.8756 18.0366,15.2173 0,0 -12.5067,-1.68425 -18.0366,-16.8732zm-4.88741 -4.96772c0,0 4.62992,0.141732 15.176,-6.22441 10.578,-6.36733 21.4134,-9.22205 30.1264,5.19567 0,0 -9.03426,-0.427559 -16.5579,3.22677 -7.49174,3.65551 -14.5973,6.76654 -27.5551,-0.999213 0,0 10.3854,4.82599 24.404,-3.85512 0,0 -15.111,7.79528 -25.5933,2.6563zm5.72245 35.1177c0,0 -3.21496,8.88072 -20.8335,23.7272 -17.2654,14.8476 -28.487,33.0922 -8.77678,61.3004 0,0 3.47244,-17.4449 13.728,-28.7221 10.4492,-11.2795 19.9666,-22.2425 16.8803,-53.0504 0,0 0.159449,23.6126 -23.0209,43.1422 0,0 22.5378,-22.3843 22.0229,-46.3973zm-5.69056 -138.362c0,0 -2.66811,14.5618 6.23741,19.787 8.9067,5.2252 23.5028,11.791 19.3878,30.3496 0,0 -5.11181,-3.62599 -12.2492,-4.48229 -7.17048,-0.884646 -22.2166,-6.36733 -14.9516,-38.1166 0,0 -4.95,21.3567 14.3728,28.8378 0,0 -18.424,-9.53623 -12.7973,-36.3756zm35.9788 120.346c2.08937,2.71299 6.36615,2.74134 9.51733,0.056693 3.21496,-2.71181 4.11496,-7.10906 2.02559,-9.82087 -2.05866,-2.71299 -6.33426,-2.74134 -9.51733,-0.0578741 -3.21496,2.68465 -4.14803,7.08071 -2.02559,9.82205zm51.0567 -59.6162c2.95748,3.94016 9.13111,3.96851 13.761,0.0850394 4.66181,-3.88229 5.97993,-10.2496 2.98937,-14.1614 -2.98937,-3.93898 -9.163,-3.99685 -13.7599,-0.0850394 -4.62992,3.88229 -5.97993,10.2213 -2.99055,14.1614z"/>
  <path class="fil8" d="M1261.96 542.558c-6.72048,7.88032 -19.1303,7.96536 -27.7146,0.141732 -8.52166,-7.82245 -9.58229,-20.5571 -2.31496,-28.4658 7.39371,-7.90867 19.7728,-7.96536 27.6815,-0.142913 8.07048,7.79528 9.06733,20.5571 2.34803,28.467zm-174.199 7.05119c0,0 -22.6996,-7.67953 -32.5063,9.13701 -6.62363,11.7354 2.79803,22.7847 10.8036,24.7547 7.813,1.88504 13.5673,-6.22441 9.32363,-12.3921 -0.0318898,0 -0.0968505,0 -0.16063,-0.0283465 -0.12874,-0.256299 -0.28937,-0.484252 -0.48189,-0.713386 -2.70118,-3.7689 -7.65237,-5.02441 -10.9642,-2.79803 -0.546851,0.34252 -1.02874,0.77126 -1.44685,1.25669 -0.19252,-0.742914 -1.83307,-6.85276 2.31496,-11.1933 10.8673,-11.1626 23.1177,-8.02323 23.1177,-8.02323zm0.22441 -40.0004c-2.41063,-2.25591 -6.07678,-4.0252 -11.3811,-2.82638 -11.7366,2.59843 -14.1154,15.6177 -11.1248,22.3276 2.95748,6.70985 15.4654,16.8744 27.1677,11.8488 12.1854,-5.19685 16.3016,-15.0177 22.9571,-22.9559 -2.41181,7.16693 0.35315,15.6473 3.47244,20.1295 3.56811,4.93937 12.1536,9.53623 19.9335,7.68071 -4.66181,3.28347 -8.19922,8.6504 -9.613,16.2165 -2.86181,15.8173 12.2173,37.6028 33.6957,41.6575 21.5091,4.05355 34.0158,-11.5913 40.0607,-47.9953 8.42363,-36.404 32.5701,-47.9103 32.5701,-47.9103 -35.5288,0.0862205 -44.6918,20.3575 -49.4185,43.1989 -3.72874,22.8697 -13.6311,34.6902 -22.7303,35.4331 -12.5717,1.02756 -22.3134,-15.3614 -11.9291,-22.2992 3.89055,-2.59843 9.38859,-0.455906 12.2504,2.08465 4.05118,3.56811 5.40119,10.1067 5.40119,10.1067 16.591,-8.9941 6.07678,-27.4087 -8.77678,-32.7485 -5.37048,-1.91339 -10.8036,-2.17087 -15.6579,-0.628347 0.38504,-0.314173 0.77126,-0.656693 1.09252,-1.02756 4.01929,-3.91181 4.53307,-8.19449 3.89055,-11.7354 -0.0318898,-0.77126 -0.12874,-1.54134 -0.35315,-2.3126 -1.51181,-5.99528 -7.39607,-9.96379 -13.1835,-8.85001 -5.20867,0.998032 -8.5193,5.82402 -7.94056,11.191 -1.83307,-1.37008 -3.50433,-3.65433 -3.60118,-7.13741 -0.12874,-3.65433 3.63307,-12.991 18.9378,-12.9626 10.063,0.056693 26.4921,7.79528 26.4921,7.79528 -7.36182,-5.91024 -20.0941,-11.9634 -32.3445,-12.0213 -5.24056,-0.770079 -24.274,-2.45551 -33.2126,11.3929 -8.74489,14.5606 -17.2984,17.7874 -24.1465,15.1323 -3.24685,-1.25669 -4.11496,-4.11142 -4.05118,-6.51024 4.01929,3.28347 9.67914,3.25512 13.1823,-0.256299 3.85866,-3.82559 3.82559,-10.3642 -0.0307087,-14.5618 -0.516142,-0.570473 -1.02992,-1.05709 -1.60866,-1.4563zm20.2229 26.3244c0,0 -1.76811,4.22599 -2.41063,16.3323 -0.28937,12.1335 -5.14489,21.9555 -24.9815,20.6421 0,0 6.01182,-6.96615 7.10434,-15.0756 1.15748,-8.13662 2.70118,-15.6165 18.7134,-21.4984 0,0 -12.5398,7.67953 -11.9291,21.7571 0,0 -0.19252,-13.1917 13.5036,-22.1575zm4.30866 -6.10985c0,0 0.257481,4.76811 7.58859,14.1898 7.39489,9.42284 11.7673,19.9016 -0.225591,32.0929 0,0 -1.15748,-9.36497 -5.78741,-16.2744 -4.62992,-6.88111 -8.45552,-13.5047 -2.60433,-28.5236 0,0 -3.43937,11.7638 6.62363,24.2126 0,0 -9.3567,-13.8189 -5.59489,-25.6973zm-32.7614 13.3051c0,0 -8.87481,-1.62756 -24.854,-17.1874 -15.3685,-15.561 -33.5032,-25.0689 -59.9953,-3.17008 0,0 17.2654,2.9126 29.0965,12.4488 12.0898,9.53623 23.8252,17.9303 52.7622,9.53623 0,0 -22.4421,4.28268 -43.7599,-16.8177 0,0 23.9858,19.9866 46.7504,15.1902zm131.95 -35.1177c0,0 -14.211,-0.229134 -18.9378,9.90709 -4.2437,10.135 -8.93741,26.4673 -27.039,26.1815 0,0 2.79685,-6.05315 2.92559,-13.591 0.225591,-7.53662 4.6937,-24.0969 35.6563,-22.898 0,0 -20.8028,-0.999213 -26.8465,20.3858 0,0 8.03741,-20.8996 34.2414,-19.9854zm-110.474 62.5276c-2.15315,2.74134 -1.38189,7.13859 1.73622,9.82205 3.11929,2.68347 7.39607,2.65512 9.54922,-0.056693 2.15433,-2.71299 1.38307,-7.10906 -1.70433,-9.82205 -3.05315,-2.68347 -7.32993,-2.65512 -9.58111,0.056693zm156.065 123.458c0,0 11.6398,22.298 -2.76378,34.7185 -10.1929,8.67993 -22.0571,1.05591 -25.1752,-6.79607 -3.0874,-7.67953 3.44055,-15.1606 10.063,-11.9055 0.0330709,0.0578741 0.0330709,0.114567 0.0330709,0.172441 0.256299,0.0850394 0.51378,0.227953 0.73819,0.34252 4.08426,2.19803 6.14174,7.02284 4.59804,10.8496 -0.257481,0.598819 -0.61063,1.14213 -0.99567,1.62638 0.73819,0.114567 6.81497,0.829134 10.2236,-4.13977 8.68111,-12.7618 3.27874,-24.8681 3.27874,-24.8681zm38.165 -3.88347c2.66811,2.39882 5.17559,6.0815 5.04804,11.5913 -0.354331,12.163 -12.4429,15.3047 -19.3878,12.8209 -7.00867,-2.45551 -18.9697,-14.0197 -16.6547,-26.6965 2.31496,-13.1622 10.8036,-18.215 16.9122,-25.754 -6.30119,3.08386 -15.0473,1.00039 -19.9984,-1.74095 -5.46615,-3.05433 -11.7992,-11.2488 -11.7992,-19.5012 -2.05866,5.19567 -6.30237,9.56457 -13.0866,12.2492 -14.1473,5.65276 -37.8425,-5.53937 -46.5237,-26.7815 -8.48859,-21.215 3.47244,-37.3748 36.5563,-50.0516 33.3414,-12.6484 41.0587,-37.9737 41.0587,-37.9737 5.20867,36.5174 -12.5079,47.1674 -33.3744,54.6189 -20.7059,7.48111 -29.6445,19.8721 -28.2933,29.3799 1.89685,13.1339 19.4197,20.0729 23.5666,8.22284 1.51181,-4.39607 -1.73622,-9.67914 -4.75748,-12.2197 -4.24489,-3.56929 -10.6429,-3.79843 -10.6429,-3.79843 4.88741,-18.6154 24.4358,-10.5921 32.6988,3.94134 3.02244,5.28189 4.50118,10.8496 4.17992,16.0453 0.19252,-0.427559 0.45,-0.8563 0.675591,-1.28386 2.79685,-4.62638 6.78308,-5.59607 10.2874,-5.25473 0.740552,-0.0283465 1.51181,0 2.28307,0.142913 6.10867,1.05709 11.1898,6.76654 11.4473,12.7913 0.256299,5.42481 -3.60236,9.2504 -8.84292,9.13701 1.70433,1.77047 4.30866,3.25512 7.65237,3.08386 3.53622,-0.172441 11.6386,-4.45512 8.10237,-20.1862 -2.34685,-10.3642 -13.4717,-26.8961 -13.4717,-26.8961 7.33111,7.30867 16.011,20.2146 18.8728,32.7485 1.9937,5.36811 7.94174,24.8681 -3.44055,34.5485 -12.0236,10.2213 -13.3099,19.2437 -9.35552,26.0681 1.76811,3.22559 4.66181,3.85394 6.97678,3.59646 -3.92244,-3.85394 -5.04685,-9.67914 -2.41181,-13.5626 2.86299,-4.2815 9.13111,-4.65237 13.9866,-0.883465 0.61063,0.484252 1.22126,1.02638 1.73622,1.59803zm-29.5796 -18.9012c0,0 -3.60118,2.34213 -14.9504,4.56851 -11.2854,2.19803 -19.4847,8.85119 -14.276,28.9807 0,0 5.46615,-7.36772 12.8929,-9.73702 7.39489,-2.39764 14.1791,-4.96772 16.3335,-22.1563 0,0 -4.56615,13.8756 -18.0366,15.2173 0,0 12.5067,-1.68425 18.0366,-16.8732zm4.88741 -4.96772c0,0 -4.62992,0.141732 -15.176,-6.22441 -10.578,-6.36733 -21.4134,-9.22205 -30.1264,5.19567 0,0 9.03426,-0.427559 16.5579,3.22677 7.49174,3.65551 14.5973,6.76654 27.5551,-0.999213 0,0 -10.3854,4.82599 -24.404,-3.85512 0,0 15.111,7.79528 25.5933,2.6563zm-5.72363 35.1177c0,0 3.21496,8.88072 20.8335,23.7272 17.2665,14.8476 28.4882,33.0922 8.77796,61.3004 0,0 -3.47244,-17.4449 -13.7291,-28.7221 -10.448,-11.2795 -19.9654,-22.2425 -16.8791,-53.0504 0,0 -0.16063,23.6126 23.0209,43.1422 0,0 -22.539,-22.3843 -22.024,-46.3973zm5.69174 -138.362c0,0 2.66693,14.5618 -6.23859,19.787 -8.90552,5.2252 -23.5028,11.791 -19.3878,30.3496 0,0 5.113,-3.62599 12.2504,-4.48229 7.1693,-0.884646 22.2166,-6.36733 14.9504,-38.1166 0,0 4.95118,21.3567 -14.3717,28.8378 0,0 18.4228,-9.53623 12.7973,-36.3756zm-35.9788 120.346c-2.09055,2.71299 -6.36615,2.74134 -9.51733,0.056693 -3.21496,-2.71181 -4.11496,-7.10906 -2.02559,-9.82087 2.05866,-2.71299 6.33426,-2.74134 9.51733,-0.0578741 3.21496,2.68465 4.14803,7.08071 2.02559,9.82205zm-51.0579 -59.6162c-2.9563,3.94016 -9.12993,3.96851 -13.7599,0.0850394 -4.663,-3.88229 -5.97993,-10.2496 -2.99055,-14.1614 2.99055,-3.93898 9.16418,-3.99685 13.761,-0.0850394 4.62992,3.88229 5.97993,10.2213 2.98937,14.1614z"/>
  <path class="fil4" d="M1018.08 858.003c0,-12.7925 -10.3713,-23.1626 -23.165,-23.1626 -12.7937,0 -23.165,10.3713 -23.165,23.1626 0,12.7961 10.3713,23.1673 23.165,23.1673 12.7949,-0.0011811 23.165,-10.3713 23.165,-23.1673z"/>
  <path class="fil4" d="M1058.93 811.675c0,-12.7961 -10.3724,-23.165 -23.1673,-23.165 -12.7937,0 -23.165,10.3689 -23.165,23.165 0,12.7925 10.3713,23.165 23.165,23.165 12.7949,0 23.1662,-10.3724 23.1673,-23.165z"/>
  <path class="fil4" d="M1096.72 1002.48c0,-15.8209 -12.8268,-28.6488 -28.6488,-28.6488 -15.8256,-0.0011811 -28.6524,12.828 -28.6524,28.6488 0,15.8232 12.8268,28.6512 28.6524,28.6512 15.8221,0 28.6488,-12.828 28.6488,-28.6512z"/>
  <path class="fil4" d="M1208.89 829.961c0,-9.4252 -7.64174,-17.0669 -17.0669,-17.0669 -9.42757,0 -17.0681,7.64174 -17.0681,17.0681 0,9.42639 7.63938,17.0681 17.0681,17.0681 9.4252,-0.0011811 17.0669,-7.64174 17.0669,-17.0693z"/>
  <path class="fil4" d="M1254 894.509c0,-9.42639 -7.64292,-17.0681 -17.0681,-17.0681 -9.42639,0 -17.0681,7.64174 -17.0681,17.0681 0,9.42757 7.64174,17.0693 17.0681,17.0693 9.4252,0 17.0681,-7.64174 17.0681,-17.0693z"/>
  <path class="fil4" d="M1215.92 938.333c0,-4.23189 -3.42874,-7.66418 -7.66064,-7.66418 -4.23426,0 -7.66418,3.43229 -7.66418,7.66418 0,4.23071 3.42992,7.66182 7.66418,7.66182 4.23189,0 7.66064,-3.43111 7.66064,-7.66182z"/>
  <path class="fil4" d="M1016.25 1034.72c0,-3.70276 -3.00355,-6.7063 -6.70512,-6.7063 -3.70512,0 -6.70394,3.00355 -6.70394,6.7063 0,3.70158 2.99882,6.70512 6.70394,6.70512 3.70276,0 6.70512,-3.00236 6.70512,-6.70512z"/>
  <path class="fil4" d="M1206.45 900.031c0,-6.06024 -4.91221,-10.9724 -10.9713,-10.9724 -6.06142,0 -10.9736,4.91221 -10.9736,10.9724 0.0011811,6.05906 4.91221,10.9724 10.9736,10.9724 6.05906,0 10.9713,-4.91339 10.9713,-10.9724z"/>
  <path class="fil4" d="M1347.27 1008.51c0,-10.4362 -8.46024,-18.8977 -18.8953,-18.8977 -10.4362,0 -18.8988,8.46142 -18.8988,18.8977 0,10.435 8.46142,18.8977 18.8988,18.8977 10.435,-0.0011811 18.8941,-8.4626 18.8953,-18.8977z"/>
  <path class="fil4" d="M1040.03 915.845c0,0 65.7414,-27.5492 58.0512,-91.0572 -6.45945,-53.328 -47.3363,-60.352 -71.4627,-52.2 -29.2937,9.89765 -28.3382,59.713 7.62875,62.152l2.12599 -15.8221 12.8008 -25.6028c0,0 31.702,3.04725 33.5303,48.1583 1.82717,45.1099 -36.5788,68.8843 -42.6744,74.3717z"/>
  <path class="fil4" d="M1037.33 916.5c0,0 20.6599,-17.3433 26.6268,-29.387 10.65,-21.4984 2.76024,-44.9693 -31.1622,-41.2217 0,0 29.387,18.5398 2.56299,70.806 0.0011811,0 35.1071,-37.8674 16.7658,-61.1422 0,0 22.089,17.5547 -14.7933,60.9449z"/>
  <path class="fil4" d="M1014.27 943.638c0,0 13.2567,-17.4154 15.8327,-28.0181 4.59213,-18.9189 -5.8441,-36.0898 -32.0315,-27.0685 0,0 26.5736,9.42993 14.6717,55.5957 0,-0.0011811 21.0319,-36.2445 2.3563,-51.3957 0,0 20.6197,9.95198 -0.829134,50.8867z"/>
  <path class="fil4" d="M1073.43 897.17c0,0 -65.7615,42.6166 -70.2142,83.6268 -4.73268,43.5874 24.9,70.9123 64.2981,64.6914 26.2299,-4.14213 35.6977,-26.2311 33.528,-41.4189 -1.69843,-11.876 -14.1992,-32.3445 -35.8961,-28.0063l-23.6658 35.8949c0,0 -18.5008,-12.5717 -15.7807,-37.8662 3.94488,-36.6851 47.7307,-76.9217 47.7307,-76.9217z"/>
  <path class="fil4" d="M1005.77 1010.38c0,0 -11.6008,9.45237 -10.8461,24.0614 0.640158,12.4252 10.2567,14.6457 15.9744,12.8209 4.28504,-1.36654 9.27048,-8.28544 4.33937,-15.7784l-11.8335 5.12717c0,0 -4.4374,-0.689764 -3.94488,-10.0571 0.470079,-8.91969 6.31063,-16.174 6.31063,-16.174z"/>
  <path class="fil4" d="M1073.43 1046.67c0,0 30.3744,-1.18347 39.841,-22.8792 9.46654,-21.6945 20.9055,-56.4071 59.563,-57.9851 0.0011811,0 -6.7063,13.0169 -7.49528,28.7953 -0.787796,15.7784 -9.86103,50.8855 -76.1316,52.0689 0,0 44.576,-0.39567 57.1985,-45.7571 0,0 -16.9618,44.5737 -72.9756,45.7571z"/>
  <path class="fil4" d="M1101.46 828.277c0,0 8.84646,-19.2768 -1.67126,-32.0162 -10.5177,-12.7358 -28.5166,-30.8079 -17.3032,-55.3666 0,0 5.98701,8.28072 15.5587,13.7492 9.57166,5.46733 28.5626,22.1906 8.39292,63.8126 0,0 13.8165,-27.8693 -10.4386,-50.0363 0,0 22.3949,24.6189 5.46142,59.8571z"/>
  <path class="fil4" d="M1138.91 972.908c0,0 3.94252,-5.5252 3.94252,-21.6969 0,-16.1717 6.313,-30.3733 32.7402,-33.1347 0,-0.0011811 -7.88859,10.65 -9.07205,21.6957 -1.18347,11.0445 -2.7626,21.3012 -23.6681,32.7402 0,0 16.174,-13.0169 14.5973,-31.5567 0,0 -3.15591,22.089 -18.5398,31.9524z"/>
  <path class="fil4" d="M1284.69 926.624c0,0 4.6878,-4.90394 6.99331,-20.9114 2.30433,-16.0099 10.5756,-29.165 37.1292,-28.1339 0,0 -6.98504,9.75473 -8.17205,23.5323 -1.22008,14.1697 -9.22914,22.5839 -31.9914,25.6831 0.0011811,0 17.863,-10.5791 18.9437,-29.1532 0,0 -6.27166,21.4134 -22.9028,28.9831z"/>
  <path class="fil4" d="M989.502 794.998c0,0 1.87323,-10.6217 -9.19961,-33.8138 -11.0717,-23.1945 -11.7449,-47.8807 24.2646,-69.9355 0,0 -0.628347,19.0547 9.9567,38.315 10.885,19.8059 7.71969,37.9925 -19.637,62.1674 0,0 14.2819,-29.7425 -0.675591,-55.2485 0,0 10.6004,33.8386 -4.70906,58.5154z"/>
  <path class="fil4" d="M1238.37 977.846c0,0 9.45001,-2.91851 31.8154,4.50709 22.3689,7.4256 44.9079,5.21575 60.8611,-30.0685 0.0011811,0 -18.3508,6.02126 -34.1729,2.58662 -15.8197,-3.43583 -30.7276,-5.95867 -56.1485,17.7012 0.0011811,0 25.4292,-16.3937 50.3469,-5.69882 0.0011811,0 -31.9996,-5.77559 -52.702,10.9724z"/>
  <path class="fil4" d="M1220.61 987.531c0,0 8.71418,5.75315 17.6433,28.9831 8.92796,23.2288 25.8366,40.1398 65.3174,29.5146 0,0 -17.2099,-10.9406 -25.0099,-26.152 -7.79646,-15.2102 -15.7228,-29.0681 -52.0678,-33.9567 0,0 30.4181,9.76891 38.3847,37.265 0,0 -16.7268,-29.9823 -44.2678,-35.654z"/>
  <path class="fil4" d="M1103.12 855.735c0,0 5.70709,-5.65985 24.6154,-8.73308 18.9118,-3.07323 34.3181,-13.1539 32.524,-44.5807 0,0 -10.9512,11.25 -23.6445,14.7319 -12.691,3.48307 -24.3792,7.2756 -33.7855,33.8965 0.0011811,-0.0011811 12.1488,-21.3862 34.1244,-23.0622 0,0 -25.2284,7.88505 -33.8339,27.7477z"/>
  <path class="fil4" d="M1105.77 1000.52c0,0 16.5673,-27.2173 4.73386,-69.8186 -11.8347,-42.6024 -6.70512,-67.8485 16.1717,-77.7095 22.8792,-9.86103 47.8489,3.4878 52.8579,22.089 5.52166,20.5134 -5.12835,35.8949 -20.9055,39.8398 -17.3575,4.34055 -37.0796,-7.88741 -25.2484,-28.4008 0.0011811,0 4.51418,6.04134 10.2579,7.10079 4.07599,0.751182 10.5177,-0.620079 13.0181,-5.91733 6.7063,-14.2004 -10.65,-25.2449 -22.4847,-15.7772 -8.55827,6.84567 -12.6225,26.0339 -4.73268,52.4622 7.88977,26.4284 11.0421,52.4634 -23.6681,76.1316z"/>
  <path class="fil4" d="M1076.19 948.056c0,0 33.1985,3.32481 28.9583,46.0063 3.62835,-8.47323 12.202,-33.7831 -5.29252,-51.9237 -21.3,-22.0902 -53.6445,-3.9437 -58.7741,-0.787796 0,0 4.82717,14.8299 33.5303,21.6945 16.3288,3.90355 25.2898,16.4398 28.3618,29.5453 1.36654,-8.84646 1.8437,-31.9512 -26.7839,-44.5347z"/>
  <path class="fil4" d="M1177.19 838.282c0,0 -8.70591,-18.0319 9.04489,-28.2862 17.752,-10.2579 35.8985,2.36693 40.2366,13.4114 4.33819,11.0445 4.33819,34.7126 -16.963,41.8134 -26.5252,8.84056 -45.7571,-16.1752 -71.7898,-14.9917 0,0 23.2725,-7.09843 45.3615,1.97362 15.8587,6.51378 27.1512,-2.3811 28.4008,-7.88977 1.97244,-8.67757 -3.9437,-13.8047 -7.49528,-14.9894 -3.54922,-1.18465 -26.7957,8.95867 -26.7957,8.95867z"/>
  <path class="fil4" d="M1216.52 1028.97c4.43386,6.0189 3.14764,14.4921 -2.87244,18.926 -6.02008,4.43386 -14.4933,3.14646 -18.9272,-2.87244 -4.43386,-6.02008 -3.14882,-14.4933 2.87126,-18.926 6.02126,-4.43622 14.4945,-3.14764 18.9284,2.87244z"/>
  <path class="fil4" d="M1192.37 1038.56c0,0 2.92205,15.6071 19.0795,13.8095 16.1622,-1.79764 21.8114,-18.3957 19.3866,-27.4878 -2.42244,-9.09331 -16.311,-23.8961 -33.4441,-19.0382 -30.8953,8.76142 -31.578,38.8382 -70.0512,38.8382 0,-0.0011811 31.5768,9.79961 48.2729,-9.79961 15.0378,-17.6528 27.2244,-20.6882 35.8205,-16.3016 6.28583,3.20906 3.97323,10.6713 2.26181,13.0961 -1.70906,2.42599 -21.326,6.88465 -21.326,6.88347z"/>
  <path class="fil4" d="M1190.85 1006.21c0,0 30.4902,-42.104 55.8969,-58.0737 25.4079,-15.9709 80.7225,-35.0752 114.928,10.8662 30.176,40.5319 12.1287,83.132 -14.387,90.4028 -22.9158,6.27993 -49.3559,-7.19528 -46.0429,-35.1225 2.09173,-17.6351 19.2496,-26.6669 31.5591,-24.1418 11.8193,2.42481 9.40158,28.4103 6.49843,30.5882l-15.9697 5.8063c0,0 3.8126,10.1516 18.1488,8.34922 15.7795,-1.98307 38.9977,-32.6729 12.5008,-71.1473 -26.4969,-38.4768 -80.9103,-26.2772 -102.657,-12.7228 -32.2819,20.1201 -60.476,55.1965 -60.476,55.1953z"/>
  <path class="fil4" d="M1240.76 910.703c0,0 -16.8709,4.97717 -25.5319,-12.0532 -9.1878,-18.0638 -0.394488,-41.8335 20.3138,-46.5685 20.7095,-4.73268 38.5595,5.15079 46.5461,27.0425 7.99016,21.8917 -4.73268,47.3363 -24.2587,60.6485 -19.5248,13.3122 -38.7544,30.7689 -46.1516,40.5319 0,0 21.0047,-26.0351 36.6851,-38.4591 15.6803,-12.4276 33.1359,-44.0811 20.7095,-61.8319 -12.4252,-17.752 -31.0642,-15.6815 -35.7969,-0.594095l7.48465 31.2839z"/>
  <path class="fil4" d="M1217.54 969.751c0,0 17.361,-14.8795 9.36497,-33.2906 -5.59016,-12.8752 -18.5941,-11.8347 -24.0591,-6.24331 -5.3504,5.47796 -2.20748,15.6059 4.55197,15.8658l8.19449 -9.75355c0,0 6.12284,2.23347 7.41379,8.84174 3.12284,15.9957 -5.46615,24.5799 -5.46615,24.5799z"/>
  <path class="fil4" d="M1081.11 914.405c-3.52677,-2.33858 -8.28308,-1.37599 -10.6193,2.15315 -2.34095,3.52796 -1.37244,8.28308 2.15197,10.6217 3.53032,2.33622 8.28308,1.37362 10.6228,-2.15551 2.33622,-3.52796 1.37126,-8.2819 -2.15551,-10.6193z"/>
  <path class="fil4" d="M1108.2 930.405c0,0 -2.81575,-22.6878 -22.5792,-26.1933 -13.8189,-2.45315 -20.1366,8.95985 -18.4925,16.6039 1.61102,7.48583 11.7874,10.461 15.7394,4.97244l-3.60591 -12.2197c0,0 5.24764,-3.87048 11.4685,-1.29449 15.0591,6.23268 17.4697,18.1323 17.4697,18.1311z"/>
  <path class="fil4" d="M1238.3 923.209c0,-3.25158 -2.63386,-5.88662 -5.88662,-5.88662 -3.24922,0 -5.88426,2.63504 -5.88426,5.88662 0,3.2504 2.63504,5.88426 5.88426,5.88426 3.25276,0 5.88662,-2.63386 5.88662,-5.88426z"/>
  <path class="fil4" d="M1239.55 947.339c0,0 13.3323,-11.4295 7.19056,-25.5697 -4.29213,-9.8882 -14.2807,-9.08859 -18.4772,-4.79292 -4.10906,4.20591 -1.69606,11.9835 3.49488,12.1843l6.2941 -7.49056c0,0 4.70315,1.71496 5.69292,6.79252 2.40118,12.2835 -4.19528,18.8764 -4.19528,18.8764z"/>
  <path class="fil4" d="M1346.96 980.878c-0.129921,3.24922 -2.86654,5.77796 -6.11575,5.64685 -3.24803,-0.129921 -5.77559,-2.8689 -5.64567,-6.11811 0.129921,-3.24685 2.86772,-5.77441 6.11575,-5.64331 3.25158,0.129921 5.77559,2.86772 5.64567,6.11457z"/>
  <path class="fil4" d="M1349.18 956.818c0,0 12.861,11.9528 6.16063,25.8378 -4.68662,9.70749 -14.6327,8.50749 -18.6567,4.05 -3.93544,-4.37008 -1.21417,-12.0449 3.98032,-12.0366l5.99056 7.73859c0,0 4.76575,-1.52717 5.95985,-6.55985 2.89016,-12.1795 -3.43465,-19.0299 -3.43465,-19.0299z"/>
  <path class="fil4" d="M1143.88 771.752c3.27992,-6.75945 0.457087,-14.8949 -6.30237,-18.1736 -6.75709,-3.27638 -14.8961,-0.455906 -18.1725,6.30473 -3.27402,6.75473 -0.455906,14.8925 6.30119,18.1701 6.76418,3.27756 14.8949,0.457087 18.1736,-6.30119z"/>
  <path class="fil4" d="M1122.15 823.177c0,0 39.241,-10.3158 40.7327,-45.9095 1.0441,-24.8847 -20.5264,-33.2953 -33.5847,-28.5957 -12.7831,4.60276 -15.6106,23.2051 -5.01969,28.8567l20.6421 -9.22914c0,0 8.04449,8.30788 4.98662,19.8638 -7.39843,27.9579 -27.7571,35.0138 -27.7571,35.0138z"/>
  <path class="fil4" d="M1191.59 957.761c0,-5.35985 -4.3441,-9.70631 -9.70749,-9.70631 -5.36103,0 -9.70631,4.34646 -9.70631,9.70631 0,5.36221 4.3441,9.70867 9.70631,9.70867 5.36339,0 9.70749,-4.34646 9.70749,-9.70867z"/>
  <path class="fil4" d="M1193.65 997.561c0,0 21.9886,-18.848 11.8618,-42.1725 -7.08071,-16.3099 -23.5559,-14.9917 -30.4772,-7.90749 -6.77953,6.94016 -2.79685,19.7693 5.76615,20.0988l10.3784 -12.3567c0,0 7.75985,2.82874 9.39331,11.2039 3.95551,20.2618 -6.92245,31.1351 -6.92245,31.1339z"/>
  <path class="fil4" d="M1085.44 790.205c0,0 -39.5988,-0.713386 -49.2414,-34.1173 -6.74528,-23.3599 11.7685,-36.3201 25.2355,-34.8851 13.1882,1.41024 20.1673,18.4028 11.4295,26.2087l-21.7016 -3.98268c0,0 -5.71536,9.74174 -0.142913,19.9902 13.4811,24.8032 34.4209,26.7874 34.4209,26.7862z"/>
  <path class="fil4" d="M845.703 771.752c-3.27874,-6.75945 -0.458268,-14.8949 6.30355,-18.1736 6.75827,-3.27638 14.8937,-0.455906 18.1713,6.30473 3.2752,6.75473 0.455906,14.8925 -6.30119,18.1701 -6.763,3.27756 -14.8961,0.457087 -18.1736,-6.30119z"/>
  <path class="fil4" d="M867.44 823.177c0,0 -39.241,-10.3158 -40.7339,-45.9095 -1.04528,-24.8847 20.5264,-33.2953 33.5859,-28.5957 12.7819,4.60276 15.6095,23.2051 5.01851,28.8567l-20.641 -9.22914c0,0 -8.04449,8.30788 -4.98662,19.8638 7.39843,27.9579 27.7571,35.0138 27.7571,35.0138z"/>
  <path class="fil4" d="M904.15 790.205c0,0 39.5965,-0.713386 49.2402,-34.1173 6.74528,-23.3599 -11.7697,-36.3201 -25.2355,-34.8851 -13.1894,1.41024 -20.1685,18.4028 -11.4284,26.2087l21.7004 -3.98268c0,0 5.71418,9.74174 0.141732,19.9902 -13.4811,24.8032 -34.4185,26.7874 -34.4185,26.7862z"/>
  <path class="fil4" d="M930.89 811.675c0,-12.7961 10.3713,-23.165 23.165,-23.165 12.7937,0 23.165,10.3689 23.165,23.165 0,12.7925 -10.3713,23.165 -23.165,23.165 -12.7937,0 -23.165,-10.3724 -23.165,-23.165z"/>
  <path class="fil4" d="M893.095 1002.48c0,-15.8209 12.8268,-28.6488 28.6512,-28.6488 15.8232,-0.0011811 28.65,12.828 28.65,28.6488 0,15.8232 -12.8268,28.6512 -28.65,28.6512 -15.8244,0 -28.6512,-12.828 -28.6512,-28.6512z"/>
  <path class="fil4" d="M780.928 829.961c0,-9.4252 7.64174,-17.0669 17.0669,-17.0669 9.42639,0 17.0681,7.64174 17.0681,17.0681 0,9.42639 -7.64174,17.0681 -17.0681,17.0681 -9.4252,-0.0011811 -17.0669,-7.64174 -17.0669,-17.0693z"/>
  <path class="fil4" d="M735.814 894.509c0,-9.42639 7.64174,-17.0681 17.0681,-17.0681 9.42639,0 17.0681,7.64174 17.0681,17.0681 0,9.42757 -7.64174,17.0693 -17.0681,17.0693 -9.42639,0 -17.0681,-7.64174 -17.0681,-17.0693z"/>
  <path class="fil4" d="M773.899 938.333c0,-4.23189 3.42874,-7.66418 7.663,-7.66418 4.23189,0 7.66182,3.43229 7.66182,7.66418 0,4.23071 -3.42992,7.66182 -7.66182,7.66182 -4.23426,0 -7.663,-3.43111 -7.663,-7.66182z"/>
  <path class="fil4" d="M973.563 1034.72c0,-3.70276 3,-6.7063 6.70512,-6.7063 3.70394,0 6.70512,3.00355 6.70512,6.7063 0,3.70158 -3.00118,6.70512 -6.70512,6.70512 -3.70512,0 -6.7063,-3.00236 -6.70512,-6.70512z"/>
  <path class="fil4" d="M783.364 900.031c0,-6.06024 4.91221,-10.9724 10.9736,-10.9724 6.05906,0 10.9713,4.91221 10.9713,10.9724 0,6.05906 -4.91221,10.9724 -10.9713,10.9724 -6.06142,0 -10.9736,-4.91339 -10.9736,-10.9724z"/>
  <path class="fil4" d="M642.545 1008.51c0,-10.4362 8.45906,-18.8977 18.8977,-18.8977 10.435,0 18.8965,8.46142 18.8965,18.8977 0,10.435 -8.46142,18.8977 -18.8965,18.8977 -10.4386,-0.0011811 -18.8988,-8.4626 -18.8977,-18.8977z"/>
  <path class="fil4" d="M949.787 915.845c0,0 -65.7414,-27.5492 -58.0512,-91.0572 6.46063,-53.328 47.3363,-60.352 71.4627,-52.2 29.2925,9.89765 28.3382,59.713 -7.62875,62.152l-2.12362 -15.8221 -12.8032 -25.6028c0,0 -31.6996,3.04725 -33.528,48.1583 -1.82953,45.1099 36.5764,68.8843 42.6721,74.3717z"/>
  <path class="fil4" d="M952.483 916.5c0,0 -20.6575,-17.3433 -26.6256,-29.387 -10.65,-21.4984 -2.76142,-44.9693 31.161,-41.2217 0,0 -29.387,18.5398 -2.56299,70.806 0,0 -35.1071,-37.8674 -16.7658,-61.1422 0.0011811,0 -22.089,17.5547 14.7933,60.9449z"/>
  <path class="fil4" d="M975.55 943.638c0,0 -13.2591,-17.4154 -15.8351,-28.0181 -4.58977,-18.9189 5.8441,-36.0898 32.0315,-27.0685 0,0 -26.5736,9.42993 -14.6717,55.5957 0,-0.0011811 -21.0319,-36.2445 -2.3563,-51.3957 0,0 -20.6209,9.95198 0.831497,50.8867z"/>
  <path class="fil4" d="M916.39 897.17c0,0 65.7615,42.6166 70.2154,83.6268 4.73268,43.5874 -24.9,70.9123 -64.2981,64.6914 -26.2311,-4.14213 -35.6988,-26.2311 -33.5292,-41.4189 1.69843,-11.876 14.1992,-32.3445 35.8961,-28.0063l23.6681 35.8949c0,0 18.4973,-12.5717 15.7784,-37.8662 -3.94607,-36.6851 -47.7307,-76.9217 -47.7307,-76.9217z"/>
  <path class="fil4" d="M984.041 1010.38c0,0 11.5996,9.45237 10.8461,24.0614 -0.640158,12.4252 -10.2543,14.6457 -15.9744,12.8209 -4.28504,-1.36654 -9.27048,-8.28544 -4.33819,-15.7784l11.8335 5.12717c0,0 4.43622,-0.689764 3.9437,-10.0571 -0.468898,-8.91969 -6.31063,-16.174 -6.31063,-16.174z"/>
  <path class="fil4" d="M916.39 1046.67c0,0 -30.3744,-1.18347 -39.841,-22.8792 -9.46536,-21.6945 -20.9043,-56.4071 -59.563,-57.9851 0,0 6.7063,13.0169 7.49528,28.7953 0.787796,15.7784 9.86103,50.8855 76.1316,52.0689 0,0 -44.576,-0.39567 -57.1985,-45.7571 0.0011811,0 16.963,44.5737 72.9756,45.7571z"/>
  <path class="fil4" d="M888.357 828.277c0,0 -8.84646,-19.2768 1.67008,-32.0162 10.5189,-12.7358 28.5177,-30.8079 17.3043,-55.3666 0,0 -5.98701,8.28072 -15.5587,13.7492 -9.57284,5.46733 -28.5626,22.1906 -8.39292,63.8126 0,0 -13.8154,-27.8693 10.4374,-50.0363 0.0011811,0 -22.3937,24.6189 -5.46024,59.8571z"/>
  <path class="fil4" d="M850.909 972.908c0,0 -3.9437,-5.5252 -3.9437,-21.6969 0,-16.1717 -6.31182,-30.3733 -32.739,-33.1347 0,-0.0011811 7.88741,10.65 9.07205,21.6957 1.18347,11.0445 2.7626,21.3012 23.6669,32.7402 0,0 -16.1728,-13.0169 -14.5961,-31.5567 0.0011811,0 3.15709,22.089 18.5398,31.9524z"/>
  <path class="fil4" d="M705.129 926.624c0,0 -4.69134,-4.90394 -6.99449,-20.9114 -2.30551,-16.0099 -10.5756,-29.165 -37.1268,-28.1339 0,0 6.98268,9.75473 8.16969,23.5323 1.22126,14.1697 9.22914,22.5839 31.9914,25.6831 0,0 -17.8642,-10.5791 -18.9437,-29.1532 0,0 6.27166,21.4134 22.904,28.9831z"/>
  <path class="fil4" d="M751.445 977.846c0,0 -9.44883,-2.91851 -31.8154,4.50709 -22.3689,7.4256 -44.9091,5.21575 -60.8611,-30.0685 0,0 18.3508,6.02126 34.1729,2.58662 15.8185,-3.43583 30.7276,-5.95867 56.1496,17.7012 0,0 -25.4315,-16.3937 -50.3481,-5.69882 0,0 31.9996,-5.77559 52.702,10.9724z"/>
  <path class="fil4" d="M769.201 987.531c0,0 -8.71418,5.75315 -17.6421,28.9831 -8.93032,23.2288 -25.8366,40.1398 -65.3186,29.5146 0,0 17.2099,-10.9406 25.0099,-26.152 7.79528,-15.2102 15.7252,-29.0681 52.0678,-33.9567 0,0 -30.4181,9.76891 -38.3847,37.265 0,0 16.7268,-29.9823 44.2678,-35.654z"/>
  <path class="fil4" d="M886.7 855.735c0,0 -5.70827,-5.65985 -24.6189,-8.73308 -18.9106,-3.07323 -34.3158,-13.1539 -32.5229,-44.5807 0,0 10.9536,11.25 23.6445,14.7319 12.691,3.48307 24.3792,7.2756 33.7855,33.8965 0,-0.0011811 -12.1488,-21.3862 -34.1244,-23.0622 0,0 25.2272,7.88505 33.8362,27.7477z"/>
  <path class="fil4" d="M884.045 1000.52c0,0 -16.5685,-27.2173 -4.73268,-69.8186 11.8311,-42.6024 6.70276,-67.8485 -16.1752,-77.7095 -22.878,-9.86103 -47.8477,3.4878 -52.8556,22.089 -5.52284,20.5134 5.12835,35.8949 20.9043,39.8398 17.3575,4.34055 37.0796,-7.88741 25.2461,-28.4008 0.0011811,0 -4.51181,6.04134 -10.2555,7.10079 -4.07717,0.751182 -10.5165,-0.620079 -13.0181,-5.91733 -6.70394,-14.2004 10.65,-25.2449 22.4858,-15.7772 8.55827,6.84567 12.6213,26.0339 4.73268,52.4622 -7.88977,26.4284 -11.0433,52.4634 23.6681,76.1316z"/>
  <path class="fil4" d="M913.629 948.056c0,0 -33.1996,3.32481 -28.9618,46.0063 -3.62481,-8.47323 -12.1984,-33.7831 5.29252,-51.9237 21.3024,-22.0902 53.6481,-3.9437 58.7764,-0.787796 0,0 -4.82717,14.8299 -33.528,21.6945 -16.3299,3.90355 -25.2933,16.4398 -28.3642,29.5453 -1.36654,-8.84646 -1.8437,-31.9512 26.7851,-44.5347z"/>
  <path class="fil4" d="M812.621 838.282c0,0 8.70355,-18.0319 -9.04725,-28.2862 -17.7508,-10.2579 -35.8961,2.36693 -40.2343,13.4114 -4.33819,11.0445 -4.33819,34.7126 16.963,41.8134 26.524,8.84056 45.7571,-16.1752 71.7898,-14.9917 0,0 -23.2713,-7.09843 -45.3615,1.97362 -15.8599,6.51378 -27.15,-2.3811 -28.4008,-7.88977 -1.97244,-8.67757 3.9437,-13.8047 7.49292,-14.9894 3.55158,-1.18465 26.7981,8.95867 26.7981,8.95867z"/>
  <path class="fil4" d="M773.295 1028.97c-4.43386,6.0189 -3.14764,14.4921 2.87244,18.926 6.02126,4.43386 14.4945,3.14646 18.9272,-2.87244 4.43268,-6.02008 3.14882,-14.4933 -2.87126,-18.926 -6.02008,-4.43622 -14.4945,-3.14764 -18.9284,2.87244z"/>
  <path class="fil4" d="M797.449 1038.56c0,0 -2.92205,15.6071 -19.0795,13.8095 -16.1599,-1.79764 -21.8114,-18.3957 -19.3866,-27.4878 2.42244,-9.09331 16.3122,-23.8961 33.4441,-19.0382 30.8941,8.76142 31.578,38.8382 70.0512,38.8382 0.0011811,-0.0011811 -31.5768,9.79961 -48.2729,-9.79961 -15.039,-17.6528 -27.2221,-20.6882 -35.8181,-16.3016 -6.28819,3.20906 -3.97441,10.6713 -2.26536,13.0961 1.71142,2.42599 21.3272,6.88465 21.3272,6.88347z"/>
  <path class="fil4" d="M798.964 1006.21c0,0 -30.4914,-42.104 -55.8969,-58.0737 -25.4067,-15.9709 -80.7237,-35.0752 -114.928,10.8662 -30.1748,40.5319 -12.1287,83.132 14.387,90.4028 22.9158,6.27993 49.3571,-7.19528 46.0429,-35.1225 -2.09173,-17.6351 -19.2508,-26.6669 -31.5579,-24.1418 -11.8193,2.42481 -9.40276,28.4103 -6.49961,30.5882l15.9697 5.8063c0,0 -3.81024,10.1516 -18.1488,8.34922 -15.7795,-1.98307 -38.9965,-32.6729 -12.5008,-71.1473 26.4969,-38.4768 80.9103,-26.2772 102.657,-12.7228 32.2807,20.1201 60.476,55.1965 60.476,55.1953z"/>
  <path class="fil4" d="M749.05 910.703c0,0 16.8721,4.97717 25.5331,-12.0532 9.18898,-18.0638 0.394488,-41.8335 -20.3138,-46.5685 -20.7083,-4.73268 -38.5595,5.15079 -46.5485,27.0425 -7.9878,21.8917 4.73504,47.3363 24.261,60.6485 19.5248,13.3122 38.7544,30.7689 46.1516,40.5319 0,0 -21.0071,-26.0351 -36.6851,-38.4591 -15.6803,-12.4276 -33.1359,-44.0811 -20.7095,-61.8319 12.4252,-17.752 31.063,-15.6815 35.7969,-0.594095l-7.48583 31.2839z"/>
  <path class="fil4" d="M772.275 969.751c0,0 -17.3599,-14.8795 -9.36379,-33.2906 5.58898,-12.8752 18.5941,-11.8347 24.0579,-6.24331 5.3504,5.47796 2.20748,15.6059 -4.55197,15.8658l-8.19331 -9.75355c0,0 -6.12402,2.23347 -7.41497,8.84174 -3.12166,15.9957 5.46615,24.5799 5.46615,24.5799z"/>
  <path class="fil4" d="M908.702 914.405c3.52796,-2.33858 8.2819,-1.37599 10.6205,2.15315 2.33858,3.52796 1.37244,8.28308 -2.15433,10.6217 -3.52796,2.33622 -8.28308,1.37362 -10.6217,-2.15551 -2.33622,-3.52796 -1.37126,-8.2819 2.15551,-10.6193z"/>
  <path class="fil4" d="M881.614 930.405c0,0 2.81457,-22.6878 22.5792,-26.1933 13.8189,-2.45315 20.1354,8.95985 18.4937,16.6039 -1.61221,7.48583 -11.7886,10.461 -15.7406,4.97244l3.60591 -12.2197c0,0 -5.24646,-3.87048 -11.4685,-1.29449 -15.0579,6.23268 -17.4697,18.1323 -17.4697,18.1311z"/>
  <path class="fil4" d="M751.512 923.209c0,-3.25158 2.63386,-5.88662 5.88662,-5.88662 3.24922,0 5.88426,2.63504 5.88426,5.88662 0,3.2504 -2.63504,5.88426 -5.88426,5.88426 -3.25276,0 -5.88662,-2.63386 -5.88662,-5.88426z"/>
  <path class="fil4" d="M750.264 947.339c0,0 -13.3323,-11.4295 -7.19056,-25.5697 4.29213,-9.8882 14.2807,-9.08859 18.4772,-4.79292 4.10906,4.20591 1.69725,11.9835 -3.49488,12.1843l-6.2941 -7.49056c0,0 -4.70197,1.71496 -5.69292,6.79252 -2.39882,12.2835 4.19528,18.8764 4.19528,18.8764z"/>
  <path class="fil4" d="M642.853 980.878c0.129921,3.24922 2.86654,5.77796 6.11811,5.64685 3.24567,-0.129921 5.77323,-2.8689 5.64331,-6.11811 -0.129921,-3.24685 -2.86772,-5.77441 -6.11575,-5.64331 -3.2504,0.129921 -5.77678,2.86772 -5.64567,6.11457z"/>
  <path class="fil4" d="M640.64 956.818c0,0 -12.8634,11.9528 -6.16182,25.8378 4.68544,9.70749 14.6327,8.50749 18.6543,4.05 3.93662,-4.37008 1.21536,-12.0449 -3.97914,-12.0366l-5.98937 7.73859c0,0 -4.76693,-1.52717 -5.96221,-6.55985 -2.88898,-12.1795 3.43701,-19.0299 3.43819,-19.0299z"/>
  <path class="fil4" d="M798.22 957.761c0,-5.35985 4.34528,-9.70631 9.70749,-9.70631 5.36339,0 9.70749,4.34646 9.70749,9.70631 0,5.36221 -4.3441,9.70867 -9.70749,9.70867 -5.36103,0 -9.70749,-4.34646 -9.70749,-9.70867z"/>
  <path class="fil4" d="M796.162 997.561c0,0 -21.9874,-18.848 -11.8618,-42.1725 7.0819,-16.3099 23.5559,-14.9917 30.4772,-7.90749 6.78071,6.94016 2.79685,19.7693 -5.76615,20.0988l-10.3784 -12.3567c0,0 -7.75985,2.82874 -9.39213,11.2039 -3.95551,20.2618 6.92127,31.1351 6.92127,31.1339z"/>
 </g>
</svg>
