<?xml version="1.0" encoding="UTF-8"?>
<!DOCTYPE svg PUBLIC "-//W3C//DTD SVG 1.1//EN" "http://www.w3.org/Graphics/SVG/1.1/DTD/svg11.dtd">
<!-- Creator: CorelDRAW -->
<svg xmlns="http://www.w3.org/2000/svg" xml:space="preserve" width="2048px" height="2048px" style="shape-rendering:geometricPrecision; text-rendering:geometricPrecision; image-rendering:optimizeQuality; fill-rule:evenodd; clip-rule:evenodd"
viewBox="0 0 2048 2048"
 xmlns:xlink="http://www.w3.org/1999/xlink">
 <defs>
  <style type="text/css">
   <![CDATA[
    .fil2 {fill:none}
    .fil5 {fill:#0C2D3D}
    .fil4 {fill:#184257}
    .fil1 {fill:#26C6DA}
    .fil0 {fill:#4DD0E1}
    .fil7 {fill:#9E9E9E}
    .fil3 {fill:#0C2D3D;fill-rule:nonzero}
    .fil6 {fill:#255C78;fill-rule:nonzero}
    .fil8 {fill:#FFFFFE;fill-rule:nonzero}
   ]]>
  </style>
   <clipPath id="id0">
    <path d="M1024 -0.0011811c565.539,0 1024,458.462 1024,1024 0,565.539 -458.462,1024 -1024,1024 -565.539,0 -1024,-458.462 -1024,-1024 0,-565.539 458.462,-1024 1024,-1024z"/>
   </clipPath>
 </defs>
 <g id="Layer_x0020_1">
  <metadata id="CorelCorpID_0Corel-Layer"/>
  <path class="fil0" d="M1024 -0.0011811c565.539,0 1024,458.462 1024,1024 0,565.539 -458.462,1024 -1024,1024 -565.539,0 -1024,-458.462 -1024,-1024 0,-565.539 458.462,-1024 1024,-1024z"/>
  <g style="clip-path:url(#id0)">
   <g id="_451250936">
    <g>
     <polygon id="_3370681921" class="fil1" points="1290.27,586.095 2426.15,1721.98 2431.74,1728.62 2437.15,1735.38 2442.39,1742.27 2447.44,1749.26 2452.31,1756.36 2457,1763.57 2461.5,1770.88 2465.82,1778.3 2469.96,1785.81 2473.9,1793.41 2477.65,1801.11 2481.22,1808.89 2484.59,1816.75 2487.77,1824.7 2490.75,1832.72 2493.54,1840.81 2496.12,1848.98 2498.51,1857.21 2500.7,1865.51 2502.69,1873.87 2504.47,1882.28 2506.05,1890.75 2507.42,1899.27 2508.59,1907.83 2509.54,1916.44 2510.29,1925.09 2510.82,1933.78 2511.15,1942.5 2511.25,1951.26 2511.15,1960.01 2510.82,1968.73 2510.29,1977.42 2509.54,1986.07 2508.59,1994.68 2507.42,2003.24 2506.05,2011.76 2504.47,2020.23 2502.69,2028.65 2500.7,2037 2498.51,2045.3 2496.12,2053.53 2493.54,2061.7 2490.75,2069.79 2487.77,2077.82 2484.59,2085.76 2481.22,2093.62 2477.65,2101.41 2473.9,2109.1 2469.96,2116.7 2465.82,2124.21 2461.5,2131.63 2457,2138.94 2452.31,2146.15 2447.44,2153.25 2442.39,2160.25 2437.15,2167.13 2431.74,2173.89 2426.15,2180.54 2420.39,2187.06 2414.45,2193.45 2408.34,2199.71 2403.13,2204.81 2397.84,2209.79 2392.45,2214.65 2386.98,2219.39 2381.43,2224.01 2375.79,2228.5 2370.07,2232.87 2364.27,2237.12 2358.4,2241.24 2352.44,2245.23 2346.42,2249.1 2340.33,2252.83 2334.16,2256.44 2327.93,2259.93 2321.63,2263.28 2315.27,2266.5 2308.85,2269.58 2302.37,2272.54 2295.83,2275.36 2289.23,2278.05 2282.58,2280.6 2275.88,2283.02 2269.13,2285.3 2262.33,2287.45 2255.48,2289.45 2248.58,2291.32 2241.65,2293.05 2234.67,2294.64 2227.66,2296.08 2220.61,2297.39 2213.52,2298.55 2206.4,2299.57 1070.52,1163.68 1077.64,1162.67 1084.73,1161.51 1091.78,1160.2 1098.79,1158.75 1105.77,1157.17 1112.7,1155.44 1119.6,1153.57 1126.44,1151.57 1133.25,1149.42 1140,1147.14 1146.7,1144.72 1153.35,1142.17 1159.95,1139.48 1166.49,1136.66 1172.97,1133.7 1179.39,1130.61 1185.75,1127.39 1192.05,1124.04 1198.28,1120.56 1204.45,1116.95 1210.54,1113.21 1216.56,1109.35 1222.51,1105.35 1228.39,1101.23 1234.19,1096.99 1239.91,1092.62 1245.54,1088.13 1251.1,1083.51 1256.57,1078.77 1261.95,1073.91 1267.25,1068.93 1272.46,1063.83 1278.57,1057.57 1284.51,1051.17 1290.27,1044.65 1295.86,1038.01 1301.27,1031.24 1306.51,1024.36 1311.56,1017.37 1316.43,1010.27 1321.12,1003.06 1325.62,995.744 1329.94,988.331 1334.08,980.821 1338.02,973.217 1341.77,965.524 1345.34,957.742 1348.71,949.878 1351.89,941.933 1354.87,933.911 1357.65,925.816 1360.24,917.65 1362.63,909.418 1364.82,901.12 1366.81,892.764 1368.59,884.35 1370.17,875.881 1371.54,867.362 1372.71,858.797 1373.66,850.186 1374.41,841.536 1374.94,832.848 1375.27,824.127 1375.37,815.373 1375.27,806.62 1374.94,797.899 1374.41,789.211 1373.66,780.56 1372.71,771.95 1371.54,763.385 1370.17,754.866 1368.59,746.398 1366.81,737.984 1364.82,729.627 1362.63,721.33 1360.24,713.097 1357.65,704.932 1354.87,696.837 1351.89,688.815 1348.71,680.869 1345.34,673.006 1341.77,665.225 1338.02,657.531 1334.08,649.927 1329.94,642.416 1325.62,635.002 1321.12,627.689 1316.43,620.48 1311.56,613.376 1306.51,606.383 1301.27,599.502 1295.86,592.739 "/>
     <polygon id="_337068216" class="fil1" points="1070.52,1163.68 2206.4,2299.57 2206.4,2388.23 1070.52,1252.35 "/>
     <polygon id="_337069272" class="fil1" points="1117.28,1274.98 2253.17,2410.86 2254.46,2412.19 2255.69,2413.54 2256.87,2414.93 2258,2416.35 2259.06,2417.81 2260.06,2419.3 2261,2420.82 1125.12,1284.94 1124.18,1283.41 1123.17,1281.92 1122.11,1280.47 1120.99,1279.05 1119.81,1277.66 1118.58,1276.3 "/>
     <polygon id="_337069008" class="fil1" points="977.482,1163.68 2113.36,2299.57 2106.24,2298.55 2099.16,2297.39 2092.1,2296.08 2085.09,2294.64 2078.11,2293.05 2071.18,2291.32 2064.29,2289.45 2057.44,2287.45 2050.64,2285.3 2043.88,2283.02 2037.18,2280.6 2030.53,2278.05 2023.93,2275.36 2017.39,2272.54 2010.91,2269.58 2004.49,2266.5 1998.13,2263.28 1991.83,2259.93 1985.6,2256.44 1979.44,2252.83 1973.34,2249.1 1967.32,2245.23 1961.37,2241.24 1955.49,2237.12 1949.69,2232.87 1943.98,2228.5 1938.34,2224.01 1932.78,2219.39 1927.31,2214.65 1921.93,2209.79 1916.63,2204.81 780.749,1068.93 786.045,1073.91 791.429,1078.77 796.9,1083.51 802.456,1088.13 808.094,1092.62 813.813,1096.99 819.611,1101.23 825.486,1105.35 831.436,1109.35 837.46,1113.21 843.555,1116.95 849.718,1120.56 855.949,1124.04 862.247,1127.39 868.607,1130.61 875.03,1133.7 881.512,1136.66 888.051,1139.48 894.648,1142.17 901.299,1144.72 908.001,1147.14 914.754,1149.42 921.556,1151.57 928.404,1153.57 935.297,1155.44 942.231,1157.17 949.208,1158.75 956.222,1160.2 963.275,1161.51 970.361,1162.67 "/>
     <polygon id="_337069344" class="fil1" points="1173.22,1410.09 2309.11,2545.97 2310.24,2550.51 2311.38,2555 2312.52,2559.44 2313.68,2563.83 2314.87,2568.18 2316.1,2572.48 2317.37,2576.75 2318.71,2580.98 2320.12,2585.17 2321.61,2589.34 2323.19,2593.47 2324.88,2597.57 2326.68,2601.65 2328.6,2605.71 2330.65,2609.75 2332.85,2613.77 2335.21,2617.78 2337.73,2621.78 2340.43,2625.76 2343.31,2629.74 2346.39,2633.72 2349.68,2637.69 2353.19,2641.66 2356.93,2645.63 2360.91,2649.61 1225.03,1513.73 1221.05,1509.75 1217.31,1505.78 1213.8,1501.8 1210.51,1497.83 1207.43,1493.86 1204.55,1489.88 1201.85,1485.9 1199.33,1481.9 1196.97,1477.89 1194.77,1473.87 1192.72,1469.83 1190.8,1465.77 1189,1461.69 1187.31,1457.59 1185.73,1453.45 1184.24,1449.29 1182.83,1445.1 1181.49,1440.87 1180.22,1436.6 1178.99,1432.3 1177.8,1427.95 1176.64,1423.56 1175.5,1419.12 1174.36,1414.63 "/>
     <polygon id="_337069080" class="fil1" points="1264.11,1544.86 2399.99,2680.74 2401.5,2682.44 2402.83,2684.26 2403.96,2686.19 2404.89,2688.2 2405.63,2690.28 2406.16,2692.43 2406.48,2694.61 2406.59,2696.82 2406.49,2699.04 2406.18,2701.25 2405.64,2703.43 2404.89,2705.58 2403.9,2707.67 2402.69,2709.69 1266.81,1573.81 1268.02,1571.79 1269,1569.7 1269.76,1567.55 1270.3,1565.36 1270.61,1563.15 1270.71,1560.94 1270.6,1558.73 1270.27,1556.55 1269.75,1554.4 1269.01,1552.32 1268.08,1550.3 1266.95,1548.38 1265.62,1546.56 "/>
     <polygon id="_337069728" class="fil1" points="1266.81,1573.81 2402.69,2709.69 2401.83,2710.9 2400.9,2712.03 2399.91,2713.09 2398.87,2714.08 2397.77,2714.99 2396.63,2715.83 2395.45,2716.59 2394.23,2717.28 2392.97,2717.88 2391.69,2718.41 2390.37,2718.86 2389.03,2719.23 2387.68,2719.51 2386.31,2719.72 2384.92,2719.84 2383.53,2719.88 1247.65,1584 1249.04,1583.96 1250.42,1583.84 1251.8,1583.63 1253.15,1583.34 1254.49,1582.97 1255.8,1582.53 1257.09,1582 1258.35,1581.39 1259.57,1580.71 1260.75,1579.95 1261.89,1579.11 1262.99,1578.2 1264.03,1577.21 1265.02,1576.15 1265.95,1575.01 "/>
     <polygon id="_337070040" class="fil1" points="1247.65,1584 2383.53,2719.88 2159.88,2719.88 1024,1584 "/>
     <polygon id="_337070328" class="fil1" points="1024,1584 2159.88,2719.88 1936.18,2719.88 800.294,1584 "/>
     <polygon id="_337069752" class="fil1" points="800.294,1584 1936.18,2719.88 1933.82,2719.76 1931.54,2719.41 1929.33,2718.85 1927.22,2718.07 1925.21,2717.11 1923.31,2715.95 1921.54,2714.63 785.662,1578.75 787.433,1580.07 789.329,1581.22 791.34,1582.19 793.453,1582.97 795.658,1583.53 797.943,1583.88 "/>
     <polygon id="_337070232" class="fil1" points="1125.12,1284.94 2261,2420.82 2263.68,2425.43 2266.25,2429.98 2268.71,2434.49 2271.07,2438.94 2273.34,2443.34 2275.5,2447.68 2277.58,2451.98 2279.56,2456.23 2281.46,2460.43 2283.28,2464.58 2285.02,2468.69 2286.68,2472.75 2288.27,2476.77 2289.79,2480.75 2291.25,2484.68 2292.64,2488.57 2293.97,2492.42 2295.25,2496.24 2296.48,2500.01 2297.65,2503.74 2298.78,2507.44 2299.87,2511.11 2300.91,2514.73 2301.92,2518.33 2302.9,2521.89 2303.85,2525.42 2304.77,2528.92 2305.67,2532.38 2306.55,2535.82 2307.41,2539.23 2308.26,2542.62 2309.11,2545.97 1173.22,1410.09 1172.38,1406.74 1171.53,1403.35 1170.67,1399.94 1169.79,1396.5 1168.89,1393.03 1167.97,1389.54 1167.02,1386.01 1166.04,1382.45 1165.03,1378.85 1163.99,1375.22 1162.9,1371.56 1161.77,1367.86 1160.59,1364.13 1159.37,1360.35 1158.09,1356.54 1156.76,1352.69 1155.37,1348.8 1153.91,1344.87 1152.39,1340.89 1150.8,1336.87 1149.14,1332.81 1147.4,1328.7 1145.58,1324.55 1143.68,1320.35 1141.7,1316.1 1139.62,1311.8 1137.45,1307.45 1135.19,1303.05 1132.83,1298.6 1130.36,1294.1 1127.79,1289.55 "/>
    </g>
    <path id="_451252040" class="fil1" d="M1024 463.999c93.515,0 182.342,36.8032 248.457,102.918 66.1146,66.1146 102.917,154.942 102.917,248.457 0,93.515 -36.802,182.343 -102.917,248.458 -55.0394,55.0382 -125.818,89.7638 -201.939,99.8528l0 88.6666c24.45,5.51575 44.9162,16.1634 54.5977,32.5843 29.1685,49.4729 39.1819,89.4887 48.1087,125.157 12.189,48.7075 22.0583,88.1422 87.241,131.852l0.0531496 -0.0543308c10.5508,7.07481 13.3677,21.3662 6.29292,31.917 -4.44449,6.62835 -11.7354,10.2024 -19.1587,10.1929l-223.653 0 -223.706 0c-12.7039,0 -23.0043,-10.3004 -23.0043,-23.0043 0,-8.59489 4.71615,-16.089 11.7,-20.0386 63.867,-43.3181 73.6902,-82.5272 85.7859,-130.866 8.92678,-35.6681 18.9425,-75.6839 48.1087,-125.156 8.67638,-14.7189 29.4095,-25.4575 54.5977,-31.4965l0 -89.7544c-76.1209,-10.089 -146.9,-44.8146 -201.939,-99.8528 -66.1146,-66.1158 -102.917,-154.943 -102.917,-248.458 0,-93.515 36.802,-182.342 102.917,-248.457 66.1146,-66.1146 154.942,-102.918 248.457,-102.918z"/>
   </g>
  </g>
  <path class="fil2" d="M1024 -0.0011811c565.539,0 1024,458.462 1024,1024 0,565.539 -458.462,1024 -1024,1024 -565.539,0 -1024,-458.462 -1024,-1024 0,-565.539 458.462,-1024 1024,-1024z"/>
  <path class="fil3" d="M1070.52 1158.43c0,-12.7051 -20.8276,-23.0043 -46.5178,-23.0043 -25.6902,0 -46.5178,10.2992 -46.5178,23.0043l0 115.019c0,12.7039 20.8276,23.0043 46.5178,23.0043 25.6902,0 46.5178,-10.3004 46.5178,-23.0043l0 -115.019z"/>
  <path class="fil4" d="M922.885 1284.94c27.0177,-45.8327 170.942,-53.0693 202.231,0 29.1685,49.4729 39.1819,89.4887 48.1087,125.157 12.189,48.7075 22.0583,88.1422 87.241,131.852l0.0531496 -0.0543308c10.5508,7.07481 13.3677,21.3662 6.29292,31.917 -4.44449,6.62835 -11.7354,10.2024 -19.1587,10.1929l-223.653 0 -223.706 0c-12.7039,0 -23.0043,-10.3004 -23.0043,-23.0043 0,-8.59489 4.71615,-16.089 11.7,-20.0386 63.867,-43.3181 73.6902,-82.5272 85.7859,-130.866 8.92678,-35.6681 18.9425,-75.6839 48.1087,-125.156z"/>
  <path class="fil5" d="M1024 1346.99c39.6933,0 71.8713,32.178 71.8713,71.8725 0,39.6933 -32.178,71.8713 -71.8713,71.8713 -39.6933,0 -71.8713,-32.178 -71.8713,-71.8713 0,-39.6945 32.178,-71.8725 71.8713,-71.8725z"/>
  <path class="fil4" d="M817.482 807.475l-0.046063 0.11811 -5.36811 -2.15433c-0.35315,-0.141732 -0.689764,-0.303544 -1.03583,-0.46063 -31.4114,-14.2937 -46.1611,-40.5272 -46.9524,-74.0493 -0.822048,-34.6949 3.4252,-88.1304 49.9548,-73.7658 11.2217,3.46536 22.5166,8.40827 33.15,13.3748 13.5473,6.32717 26.8677,13.2662 39.926,20.5429 6.85512,3.81969 13.6394,7.76812 20.3445,11.8417 21.104,12.8209 103.062,63.9414 90.3591,95.7001 -9.36497,23.4213 -58.5934,25.6736 -79.3146,25.4658 -32.0811,-0.324803 -70.2945,-5.42953 -101.017,-16.6134z"/>
  <path class="fil4" d="M1271.67 964.644c-6.18308,15.4595 -24.7866,12.9378 -37.5981,8.98229 -11.2228,-3.46536 -22.5166,-8.40827 -33.15,-13.3736 -13.5461,-6.32835 -26.8654,-13.2662 -39.9225,-20.5429 -6.85394,-3.81969 -13.6382,-7.76812 -20.3445,-11.8417 -21.104,-12.8209 -103.062,-63.9402 -90.3591,-95.7001 9.36733,-23.4201 58.5922,-25.6736 79.3158,-25.4646 33.9614,0.343701 73.3772,7.07008 105.38,18.2705 0.711024,0.248032 1.40788,0.527953 2.09055,0.839764 23.3693,10.6547 38.8654,28.2638 44.5052,53.3315 6.00355,26.6811 0.157087,60.3048 -9.91772,85.4989z"/>
  <path class="fil4" d="M874.805 1063.01c-15.4595,-6.18071 -12.939,-24.7855 -8.98229,-37.5957 3.46536,-11.2228 8.40827,-22.5177 13.3748,-33.1512 6.32717,-13.5461 13.2638,-26.8642 20.5417,-39.9237 3.81851,-6.85276 7.76694,-13.6382 11.8417,-20.3421 12.8209,-21.104 63.9402,-103.063 95.6989,-90.3603 23.4201,9.36851 25.6748,58.5934 25.4646,79.3158 -0.34252,33.9603 -7.07008,73.3784 -18.2693,105.38 -0.248032,0.709843 -0.527953,1.40788 -0.839764,2.09173 -10.6547,23.3681 -28.265,38.8642 -53.3327,44.504 -26.6811,6.00237 -60.3048,0.155906 -85.4977,-9.91891z"/>
  <path class="fil4" d="M1031.97 608.824l-0.11811 -0.0472441 2.15433 -5.36575c0.142913,-0.355512 0.303544,-0.692127 0.46063,-1.03701 14.2937,-31.4103 40.5296,-46.1611 74.0493,-46.9536 17.1862,-0.405118 51.026,4.55197 66.8197,13.3158 13.2402,7.34764 10.676,24.5587 6.94607,36.639 -3.46418,11.2217 -8.40827,22.5177 -13.3736,33.1524 -6.32835,13.5461 -13.2662,26.8666 -20.5441,39.9248 -3.81851,6.85512 -7.76694,13.6382 -11.8406,20.3445 -12.8221,21.104 -63.9402,103.062 -95.7013,90.3603 -23.4189,-9.36733 -25.6736,-58.5934 -25.4646,-79.3158 0.323622,-32.0823 5.42953,-70.2945 16.6122,-101.017z"/>
  <path class="fil4" d="M986.355 799.171c4.3063,-10.0181 12.1807,-17.4791 21.5421,-21.4902 9.62481,-4.12677 20.8429,-4.57441 31.3642,-0.369685l0.011811 -0.0307087c0.337796,0.135827 0.66378,0.282284 0.982678,0.444095 10.0169,4.3063 17.478,12.1807 21.4902,21.5433 4.12677,9.62835 4.57559,20.8512 0.366142,31.3748 -4.20827,10.513 -12.2882,18.3331 -21.9543,22.4752 -9.62835,4.12677 -20.85,4.57559 -31.3725,0.364961 -10.5154,-4.20709 -18.3354,-12.2882 -22.4776,-21.9532 -4.12559,-9.62481 -4.57441,-20.8429 -0.367323,-31.3654l-0.0283465 -0.0129921c0.133465,-0.334252 0.281103,-0.66378 0.442914,-0.980316z"/>
  <path class="fil2" d="M1012.66 788.826c13.9051,-5.96221 28.2425,-0.127559 35.5028,10.6713"/>
  <path class="fil6" d="M1011.54 786.186c-1.45866,0.618898 -2.13662,2.30433 -1.51654,3.763 0.618898,1.45748 2.30433,2.13543 3.763,1.51654 6.01063,-2.57717 12.1063,-2.70945 17.5394,-1.07717 5.9126,1.77756 11.0504,5.63504 14.4591,10.7043 0.879922,1.31457 2.66103,1.66654 3.97441,0.785434 1.31457,-0.879922 1.66772,-2.65984 0.786615,-3.97441 -4.14567,-6.16654 -10.3937,-10.8591 -17.5795,-13.0193 -6.64843,-1.99843 -14.0976,-1.84134 -21.4264,1.30158z"/>
  <path class="fil7" d="M1041.19 1476.09c-5.44252,1.63228 -11.2122,2.51103 -17.1874,2.51103 -16.4953,0 -31.4315,-6.68741 -42.2422,-17.498 -10.8106,-10.8106 -17.498,-25.7469 -17.498,-42.2422 0,-16.4965 6.68741,-31.4327 17.498,-42.2433 2.80866,-2.80748 5.89489,-5.33622 9.21615,-7.54371l50.2134 107.016zm-17.1874 -116.971c16.4953,0 31.4315,6.68741 42.2422,17.498 10.8106,10.8106 17.498,25.7469 17.498,42.2433 0,16.4953 -6.68741,31.4315 -17.498,42.2422 -2.71063,2.71063 -5.68111,5.1626 -8.87127,7.31457l-50.1615 -106.904c5.32678,-1.55788 10.9606,-2.3941 16.7906,-2.3941z"/>
  <path class="fil4" d="M1024 463.999c-93.515,0 -182.342,36.8032 -248.457,102.918 -66.1146,66.1146 -102.917,154.942 -102.917,248.457 0,93.515 36.802,182.342 102.917,248.458 66.1146,66.1134 154.942,102.917 248.457,102.917 93.515,0 182.342,-36.8032 248.457,-102.917 66.1146,-66.1146 102.917,-154.943 102.917,-248.458 0,-93.515 -36.802,-182.342 -102.917,-248.457 -66.1146,-66.1146 -154.942,-102.918 -248.457,-102.918zm0 31.6311c85.1138,0 165.907,33.4689 226.09,93.6532 60.1843,60.1831 93.6532,140.976 93.6532,226.09 0,85.1138 -33.4689,165.907 -93.6532,226.09 -60.1831,60.1843 -140.976,93.6532 -226.09,93.6532 -85.1138,0 -165.907,-33.4689 -226.09,-93.6532 -60.1843,-60.1831 -93.6532,-140.976 -93.6532,-226.09 0,-85.1138 33.4689,-165.907 93.6532,-226.09 60.1831,-60.1843 140.976,-93.6532 226.09,-93.6532z"/>
  <path class="fil8" d="M694.32 827.829c-0.628347,-1.87677 -2.65866,-2.88898 -4.53544,-2.26063 -1.87677,0.628347 -2.8878,2.65984 -2.26063,4.53662 19.1953,57.2705 108.181,39.3851 197.764,21.3815 43.6524,-8.77324 87.4524,-17.5772 122.835,-17.5772 1.98543,0 3.59528,-1.60866 3.59528,-3.5941 0,-1.98543 -1.60984,-3.59528 -3.59528,-3.59528 -35.9422,0 -80.1638,8.88898 -124.239,17.7461 -86.4768,17.3799 -172.376,34.6441 -189.564,-16.637z"/>
  <path class="fil8" d="M700.224 753.472c-0.185433,-1.9689 -1.93347,-3.41575 -3.90237,-3.22914 -1.9689,0.185433 -3.41575,1.93347 -3.22914,3.90237 5.84764,60.13 96.58,62.68 187.919,65.2453 44.5323,1.25079 89.2135,2.50748 123.646,10.4398 1.9311,0.440552 3.8563,-0.765355 4.29685,-2.69646 0.441733,-1.9311 -0.764174,-3.85512 -2.69528,-4.29685 -35.0681,-8.07757 -80.1355,-9.34607 -125.05,-10.6075 -88.1694,-2.47677 -175.751,-4.93819 -180.985,-58.7575z"/>
  <path class="fil8" d="M714.927 701.298c0.131102,-1.97717 -1.36536,-3.6874 -3.34252,-3.81969 -1.97599,-0.131102 -3.6874,1.36536 -3.81851,3.34252 -4.06536,60.2682 85.0347,77.628 174.731,95.1024 43.7481,8.52166 87.6449,17.074 120.265,30.5114 1.82953,0.751182 3.92481,-0.122835 4.67599,-1.95236 0.751182,-1.82953 -0.121654,-3.92363 -1.95236,-4.67599 -33.3248,-13.7268 -77.5571,-22.3453 -121.639,-30.9319 -86.569,-16.865 -172.559,-33.6177 -168.919,-87.5764z"/>
  <path class="fil8" d="M737.959 652.237c0.448819,-1.9311 -0.751182,-3.86103 -2.68229,-4.31103 -1.9311,-0.448819 -3.86103,0.752363 -4.31103,2.68229 -13.865,58.7776 71.191,90.4761 156.819,122.386 41.7555,15.561 83.6516,31.174 113.665,49.7847 1.68307,1.03819 3.89055,0.517323 4.92874,-1.16575 1.03819,-1.68307 0.517323,-3.89055 -1.16575,-4.92874 -30.6012,-18.9756 -72.8363,-34.715 -114.928,-50.4012 -82.6489,-30.7996 -164.745,-61.3949 -152.325,-114.046z"/>
  <path class="fil8" d="M768.702 607.614c0.759449,-1.83071 -0.108662,-3.93071 -1.93819,-4.69016 -1.82953,-0.760631 -3.92953,0.10748 -4.69016,1.93701 -23.2973,55.728 55.428,100.913 134.681,146.4 38.667,22.1917 77.465,44.4603 103.989,67.6949 1.48819,1.30276 3.75237,1.15158 5.05512,-0.336614 1.30158,-1.48937 1.15039,-3.75237 -0.337796,-5.05512 -27.1252,-23.7603 -66.1997,-46.187 -105.141,-68.5371 -76.4942,-43.904 -152.479,-87.5162 -131.619,-137.413z"/>
  <path class="fil8" d="M806.321 568.627c1.05473,-1.67362 0.550394,-3.88701 -1.12323,-4.94174 -1.6748,-1.05473 -3.88819,-0.551575 -4.94292,1.12323 -32.1083,51.1807 38.1614,108.632 108.902,166.466 34.5225,28.2236 69.1595,56.543 91.5225,83.7969 1.25551,1.52717 3.5126,1.74803 5.03977,0.491339 1.52835,-1.25551 1.74803,-3.5126 0.49252,-5.03977 -22.878,-27.8835 -57.7512,-56.3941 -92.5052,-84.8079 -68.2867,-55.8284 -136.12,-111.286 -107.386,-157.088z"/>
  <path class="fil8" d="M849.825 536.305c1.30984,-1.4811 1.17165,-3.74528 -0.309449,-5.0563 -1.47992,-1.30984 -3.74528,-1.17165 -5.05512,0.309449 -40.0429,45.2339 19.8827,113.406 80.2111,182.034 29.4414,33.4925 58.9831,67.0973 76.5756,97.6276 0.98504,1.71378 3.17362,2.30433 4.88741,1.32047 1.7126,-0.983859 2.30433,-3.17244 1.31929,-4.88622 -18.0154,-31.265 -47.7532,-65.0941 -77.3906,-98.8076 -58.2355,-66.2469 -116.081,-132.053 -80.2383,-172.541z"/>
  <path class="fil8" d="M898.029 511.539c1.53543,-1.24843 1.76811,-3.50551 0.519685,-5.04095 -1.24843,-1.53425 -3.50433,-1.76693 -5.03977,-0.518504 -46.8992,38.0705 1.06654,115.127 49.3571,192.699 23.5618,37.8485 47.204,75.8256 59.5725,108.841 0.689764,1.85197 2.75315,2.79449 4.60512,2.10473 1.85315,-0.688583 2.79567,-2.75197 2.10591,-4.60512 -12.6532,-33.7725 -36.4607,-72.0178 -60.189,-110.133 -46.6146,-74.8819 -92.9186,-149.264 -50.9315,-183.347z"/>
  <path class="fil8" d="M949.629 494.998c1.72087,-0.975591 2.32323,-3.16536 1.34764,-4.88622 -0.976772,-1.72087 -3.16536,-2.32323 -4.88622,-1.34764 -52.4965,29.8878 -17.7815,113.749 17.1673,198.173 17.0386,41.1591 34.1351,82.4575 40.9536,117.134 0.379134,1.94646 2.26654,3.21614 4.21181,2.83701 1.94646,-0.380315 3.21614,-2.26654 2.83701,-4.213 -6.94134,-35.3055 -24.1878,-76.9642 -41.374,-118.481 -33.7394,-81.5009 -67.2532,-162.46 -20.2571,-189.215z"/>
  <path class="fil8" d="M1003.24 487.121c1.86024,-0.681497 2.81575,-2.7437 2.13425,-4.60512 -0.681497,-1.86024 -2.74488,-2.81575 -4.60512,-2.13425 -56.6835,20.8984 -36.1536,109.311 -15.4854,198.316 10.0843,43.4244 20.2028,86.9977 21.2551,122.252 0.0543308,1.97717 1.70197,3.53622 3.67914,3.48189 1.97599,-0.0543308 3.53622,-1.70197 3.48189,-3.67914 -1.0748,-36.0355 -11.2665,-79.9205 -21.4229,-123.657 -19.9524,-85.9205 -39.7713,-171.269 10.963,-189.975z"/>
  <path class="fil8" d="M1057.43 488.112c1.94646,-0.370866 3.22323,-2.25236 2.85118,-4.19764 -0.372048,-1.94646 -2.25236,-3.22323 -4.19882,-2.85118 -59.3339,11.3457 -53.5406,101.927 -47.7095,193.116 2.84292,44.4815 5.69764,89.1142 0.966142,124.087 -0.263386,1.96181 1.11378,3.76654 3.07559,4.02992 1.96063,0.263386 3.76654,-1.11378 4.02992,-3.07559 4.82953,-35.7036 1.95354,-80.6741 -0.910631,-125.491 -5.62796,-88.0241 -11.2205,-175.461 41.8961,-185.617z"/>
  <path class="fil8" d="M1110.72 497.95c1.97717,-0.046063 3.54213,-1.6878 3.49607,-3.66378 -0.0448819,-1.97717 -1.6878,-3.54331 -3.66378,-3.49725 -60.3898,1.48583 -69.4949,91.8001 -78.6591,182.718 -4.46811,44.3315 -8.95158,88.8131 -19.3465,122.56 -0.579922,1.89213 0.48189,3.89764 2.37402,4.47874 1.89095,0.581103 3.89764,-0.480709 4.47874,-2.37284 10.6004,-34.4162 15.1217,-79.2662 19.6264,-123.964 8.84528,-87.756 17.6327,-174.927 71.6941,-176.258z"/>
  <path class="fil8" d="M1161.69 516.384c1.96181,0.271654 3.77362,-1.09961 4.0441,-3.06024 0.271654,-1.96181 -1.09961,-3.77362 -3.06024,-4.0441 -59.8146,-8.41182 -83.569,79.1989 -107.484,167.398 -11.6575,42.9992 -23.3563,86.1438 -39.1335,117.741 -0.884646,1.7752 -0.16063,3.93189 1.61457,4.81536 1.7752,0.884646 3.93189,0.16063 4.81536,-1.61457 16.0854,-32.2122 27.8835,-75.7229 39.6402,-119.088 23.0799,-85.1233 46.0063,-169.677 99.5635,-162.147z"/>
  <path class="fil8" d="M1208.95 542.904c1.89213,0.589371 3.90473,-0.466536 4.4941,-2.35866 0.589371,-1.89095 -0.467717,-3.90355 -2.35866,-4.49292 -57.626,-18.0803 -95.3906,64.4611 -133.408,147.556 -18.5315,40.5048 -37.1268,81.1465 -57.8752,109.759 -1.16339,1.60394 -0.804331,3.84922 0.799607,5.0126 1.60512,1.16339 3.8504,0.804331 5.01378,-0.799607 21.1217,-29.126 39.8811,-70.1304 58.578,-110.995 36.6957,-80.204 73.1457,-159.874 124.756,-143.681z"/>
  <path class="fil8" d="M1251.23 576.791c1.76693,0.891733 3.92363,0.18189 4.81536,-1.58622 0.891733,-1.76693 0.18189,-3.92363 -1.58622,-4.81536 -53.9032,-27.2681 -104.658,47.98 -155.754,123.734 -24.9272,36.9579 -49.9406,74.0422 -75.0343,98.8194 -1.41142,1.38662 -1.43032,3.65788 -0.0425197,5.06811 1.3878,1.41142 3.65788,1.43032 5.0693,0.0425197 25.6583,-25.3335 50.8524,-62.6871 75.9615,-99.9131 49.3229,-73.1245 98.315,-145.76 146.571,-121.349z"/>
  <path class="fil8" d="M1287.4 617.142c1.59685,1.17047 3.84095,0.82441 5.0126,-0.772442 1.17047,-1.59803 0.82441,-3.84213 -0.772442,-5.01378 -48.7063,-35.7107 -111.09,30.2221 -173.89,96.6001 -30.6047,32.3481 -61.3158,64.806 -90.2009,85.2001 -1.62047,1.13976 -2.01024,3.37796 -0.870473,4.99843 1.13976,1.61929 3.37796,2.00906 4.99843,0.870473 29.3776,-20.7414 60.3756,-53.504 91.2674,-86.1544 60.6178,-64.0701 120.833,-127.712 164.456,-95.7284z"/>
  <path class="fil8" d="M1316.48 662.859c1.37953,1.41851 3.64961,1.44921 5.06811,0.0696851 1.41851,-1.37953 1.44921,-3.64961 0.0696851,-5.0693 -42.215,-43.2036 -114.542,11.6362 -187.355,66.8457 -35.4922,26.9126 -71.1036,53.915 -102.924,69.3024 -1.78347,0.859843 -2.5311,3.00591 -1.67126,4.78819 0.859843,1.78347 3.00591,2.5311 4.78819,1.67126 32.3906,-15.6626 68.3209,-42.9083 104.131,-70.0607 70.2827,-53.2914 140.099,-106.227 177.893,-67.5473z"/>
  <path class="fil8" d="M1337.7 712.727c1.1315,1.61929 3.36378,2.01614 4.98426,0.884646 1.62047,-1.13268 2.01614,-3.36496 0.884646,-4.98426 -34.5792,-49.5296 -114.9,-7.26024 -195.761,35.2937 -39.4347,20.7543 -79.004,41.5784 -112.872,51.541 -1.89921,0.557481 -2.98701,2.55236 -2.42835,4.45158 0.557481,1.89921 2.55236,2.98701 4.45158,2.42953 34.5555,-10.1658 74.4402,-31.1563 114.191,-52.076 78.0556,-41.0776 155.591,-81.8823 186.549,-37.5402z"/>
  <path class="fil8" d="M1350.46 765.395c0.851575,1.79055 2.99646,2.55118 4.78701,1.69843 1.79055,-0.852757 2.55236,-2.99646 1.69961,-4.78819 -26.0103,-54.5138 -112.168,-25.9488 -198.906,2.8063 -42.267,14.0114 -84.6768,28.0725 -119.787,32.3693 -1.97008,0.240945 -3.37087,2.03268 -3.1311,4.00158 0.239764,1.97008 2.03268,3.37087 4.00158,3.1311 35.6847,-4.36772 78.4961,-18.561 121.163,-32.7071 83.7213,-27.7547 166.883,-55.3252 190.173,-6.51142z"/>
  <path class="fil8" d="M1354.46 819.428c0.542126,1.9004 2.52402,3 4.42323,2.45788 1.89921,-0.542126 3,-2.52402 2.45788,-4.42323 -16.7457,-58.0441 -106.406,-43.9607 -196.668,-29.7815 -44.0197,6.913 -88.1883,13.852 -123.489,12.3496 -1.97717,-0.0767717 -3.6437,1.46457 -3.72048,3.44055 -0.0779528,1.97717 1.46339,3.6437 3.44055,3.72048 35.9575,1.53071 80.4851,-5.46496 124.864,-12.4347 87.1418,-13.689 173.702,-27.2847 188.692,24.6709z"/>
  <path class="fil8" d="M1349.54 873.398c0.22441,1.9689 2.00433,3.38386 3.97323,3.15827 1.9689,-0.22441 3.38386,-2.00433 3.15827,-3.97323 -7.02402,-60 -97.7918,-60.7737 -189.168,-61.5508 -44.5489,-0.379134 -89.2477,-0.760631 -123.829,-8.01615 -1.93819,-0.402756 -3.8374,0.840946 -4.24016,2.78032 -0.402756,1.93819 0.840946,3.8374 2.78032,4.24016 35.2205,7.39016 80.302,7.7752 125.234,8.1567 88.1953,0.750001 175.804,1.49646 182.092,55.2048z"/>
  <path class="fil8" d="M1335.88 925.849c-0.0921261,1.97599 1.43622,3.65551 3.41339,3.74882 1.97599,0.0921261 3.65551,-1.43622 3.74764,-3.41339 2.88307,-60.3414 -86.5312,-75.9508 -176.545,-91.6631 -43.9193,-7.66654 -87.9887,-15.3591 -120.855,-28.1516 -1.84488,-0.713386 -3.92008,0.205512 -4.63347,2.0504 -0.713386,1.84488 0.205512,3.92008 2.0504,4.63347 33.5977,13.0772 77.9753,20.8229 122.203,28.5437 86.8902,15.1665 173.201,30.2351 170.62,84.2516z"/>
  <path class="fil8" d="M1313.8 975.353c-0.409843,1.93819 0.827953,3.84331 2.76732,4.25315 1.93819,0.409843 3.84331,-0.827953 4.25315,-2.76614 12.7122,-59.0386 -72.9497,-89.067 -159.187,-119.294 -42.039,-14.7354 -84.2197,-29.5217 -114.61,-47.5512 -1.70551,-1.00748 -3.90709,-0.441733 -4.91457,1.26378 -1.00748,1.70551 -0.441733,3.90591 1.26378,4.91457 30.9508,18.3626 73.4989,33.2776 115.902,48.1406 83.2335,29.1733 165.912,58.1552 154.525,111.039z"/>
  <path class="fil8" d="M1283.94 1020.56c-0.728741,1.84488 0.177165,3.93307 2.02205,4.66181 1.84488,0.728741 3.93307,-0.178347 4.66063,-2.02323 22.2047,-56.178 -57.3898,-99.8115 -137.518,-143.737 -39.0992,-21.4347 -78.3319,-42.9414 -105.301,-65.6481 -1.51299,-1.27087 -3.77008,-1.07717 -5.04095,0.435827 -1.27087,1.51181 -1.07717,3.7689 0.435827,5.04095 27.5894,23.2288 67.0878,44.8819 106.453,66.4607 77.341,42.3969 154.167,84.5138 134.289,134.809z"/>
  <path class="fil8" d="M1247.09 1060.29c-1.01575,1.69843 -0.461811,3.89882 1.23543,4.91457 1.69843,1.01575 3.9,0.461811 4.91457,-1.23662 31.0937,-51.7878 -40.2874,-107.85 -112.148,-164.289 -35.0551,-27.5327 -70.2319,-55.1599 -93.1406,-81.9922 -1.2874,-1.50473 -3.55158,-1.68071 -5.05512,-0.393307 -1.50354,1.28622 -1.67953,3.5504 -0.393307,5.05394 23.4,27.4087 58.8367,55.2402 94.1516,82.976 69.3686,54.4819 138.274,108.6 110.436,154.967z"/>
  <path class="fil8" d="M1204.24 1093.45c-1.28032,1.50354 -1.09724,3.76181 0.4063,5.04095 1.50354,1.27913 3.76063,1.09724 5.04095,-0.4063 39.1418,-45.9992 -22.1067,-112.983 -83.7662,-180.416 -30.0473,-32.8607 -60.1985,-65.8347 -78.456,-96.13 -1.02284,-1.69725 -3.23032,-2.2441 -4.92874,-1.22126 -1.69843,1.02284 -2.24528,3.23032 -1.22126,4.92874 18.5563,30.7925 48.9933,64.0784 79.3264,97.252 59.5241,65.0953 118.65,129.76 83.5985,170.952z"/>
  <path class="fil8" d="M1156.52 1119.15c-1.51181,1.28032 -1.70079,3.54331 -0.420473,5.0563 1.27913,1.51181 3.54331,1.70079 5.05512,0.420473 46.1398,-38.9776 -3.32717,-115.081 -53.1272,-191.694 -24.2929,-37.3713 -48.6685,-74.8701 -61.6914,-107.662 -0.72756,-1.8378 -2.80866,-2.73662 -4.64646,-2.00788 -1.8378,0.728741 -2.73662,2.80984 -2.00788,4.64646 13.3016,33.4925 37.8603,71.2749 62.3363,108.927 48.0697,73.9524 95.8182,147.412 54.502,182.314z"/>
  <path class="fil8" d="M1105.26 1136.71c-1.69843,1.00748 -2.25709,3.20315 -1.24961,4.9004 1.00748,1.69843 3.20197,2.25827 4.9004,1.24961 51.9048,-30.9107 15.5551,-114.073 -21.0402,-197.796 -17.8417,-40.8177 -35.7449,-81.776 -43.239,-116.306 -0.419292,-1.93819 -2.33032,-3.17008 -4.26851,-2.75079 -1.93819,0.418111 -3.17008,2.32914 -2.75197,4.26733 7.63347,35.1697 25.6914,76.4823 43.6878,117.654 35.3292,80.8264 70.4209,161.112 23.961,188.78z"/>
  <path class="fil8" d="M1051.8 1145.63c-1.84488,0.720473 -2.7567,2.80276 -2.03622,4.64764 0.720473,1.84488 2.80276,2.7567 4.64764,2.03504 56.2619,-22.0028 34.004,-109.996 11.5961,-198.579 -10.9323,-43.2166 -21.9012,-86.582 -23.6445,-121.81 -0.0921261,-1.97717 -1.77165,-3.50551 -3.74764,-3.41339 -1.97717,0.0933072 -3.50551,1.77284 -3.41339,3.74882 1.7811,36.0059 12.8303,79.6843 23.8418,123.215 21.6307,85.5142 43.1185,170.459 -7.24371,190.155z"/>
  <path class="fil8" d="M997.621 1145.7c-1.93819,0.402756 -3.18189,2.30197 -2.77914,4.24016 0.401575,1.93937 2.30079,3.18307 4.24016,2.78032 59.1166,-12.5079 51.5516,-102.956 43.937,-194.012 -3.71457,-44.4189 -7.44213,-88.9867 -3.39685,-124.045 0.225591,-1.9689 -1.18937,-3.74882 -3.15827,-3.97441 -1.9689,-0.22441 -3.74882,1.19055 -3.97323,3.15945 -4.13032,35.7933 -0.375591,80.6977 3.36733,125.45 7.35119,87.8989 14.6528,175.212 -38.237,186.402z"/>
  <path class="fil8" d="M944.142 1136.9c-1.97717,0.0850394 -3.51142,1.75866 -3.42638,3.73583 0.0850394,1.97599 1.75866,3.51024 3.73583,3.4252 60.3567,-2.66811 67.6902,-93.1418 75.0721,-184.223 3.59882,-44.413 7.21182,-88.9772 16.9429,-122.919 0.543308,-1.90748 -0.563386,-3.89528 -2.47087,-4.4374 -1.9063,-0.542126 -3.8941,0.563386 -4.4374,2.47087 -9.92481,34.6181 -13.5662,79.5461 -17.1957,124.323 -7.12441,87.9119 -14.2039,175.237 -68.2205,177.624z"/>
  <path class="fil8" d="M892.817 1119.47c-1.9689,-0.231496 -3.75591,1.17638 -3.9874,3.14528 -0.231496,1.9689 1.17638,3.75473 3.14528,3.9874 59.9634,7.23662 81.9981,-80.817 104.179,-169.464 10.8177,-43.2366 21.6744,-86.6186 36.8233,-118.502 0.844489,-1.79055 0.0779528,-3.92953 -1.7126,-4.77402 -1.79055,-0.84567 -3.92953,-0.0791339 -4.7752,1.71142 -15.4571,32.537 -26.3977,76.2544 -37.2992,119.825 -21.4087,85.5615 -42.6768,170.551 -96.3733,164.071z"/>
  <path class="fil8" d="M845.045 1093.89c-1.89921,-0.549213 -3.88701,0.544489 -4.4374,2.4437 -0.550394,1.89921 0.544489,3.88701 2.4437,4.4374 57.9638,16.9477 94.1056,-66.3154 130.489,-150.141 17.7284,-40.8461 35.5181,-81.8304 55.7162,-110.864 1.1315,-1.62874 0.729922,-3.86575 -0.89882,-4.99843 -1.62874,-1.1315 -3.86693,-0.728741 -4.99843,0.900001 -20.5323,29.5134 -38.4933,70.891 -56.3906,112.127 -35.1189,80.9091 -70.0028,161.276 -121.924,146.095z"/>
  <path class="fil8" d="M802.116 1060.84c-1.78228,-0.859843 -3.92835,-0.111024 -4.78819,1.67126 -0.861024,1.78347 -0.112205,3.92835 1.67008,4.78937 54.4193,26.2028 103.694,-50.0268 153.299,-126.771 24.1772,-37.4044 48.4359,-74.9351 73.102,-100.263 1.37953,-1.41851 1.34882,-3.68859 -0.0696851,-5.06811 -1.41851,-1.37953 -3.68859,-1.35 -5.0693,0.0696851 -25.0949,25.7681 -49.5756,63.6414 -73.9725,101.386 -47.8796,74.0741 -95.439,147.652 -144.171,124.186z"/>
  <path class="fil8" d="M765.158 1021.2c-1.62047,-1.13976 -3.85985,-0.750001 -4.99843,0.870473 -1.13976,1.61929 -0.750001,3.85866 0.869292,4.99843 49.4067,34.7587 110.487,-32.3847 171.976,-99.978 29.9906,-32.967 60.0804,-66.0473 88.506,-86.9599 1.59685,-1.17047 1.94291,-3.41575 0.772442,-5.0126 -1.17165,-1.59685 -3.41575,-1.94291 -5.0126,-0.772442 -29.0244,21.3532 -59.3504,54.691 -89.5749,87.9154 -59.3516,65.2453 -118.309,130.055 -162.538,98.9387z"/>
  <path class="fil8" d="M735.179 976.054c-1.41024,-1.38662 -3.6815,-1.3689 -5.06811,0.0425197 -1.3878,1.41142 -1.3689,3.6815 0.0425197,5.0693 43.0489,42.365 114.288,-13.8827 186.005,-70.5083 34.9607,-27.6036 70.0406,-55.3016 101.538,-71.3008 1.76811,-0.891733 2.47795,-3.04843 1.58622,-4.81536 -0.891733,-1.76811 -3.04843,-2.47795 -4.81536,-1.58622 -32.0918,16.3004 -67.48,44.2406 -102.747,72.0875 -69.2256,54.6579 -137.989,108.951 -176.542,71.0115z"/>
  <path class="fil8" d="M712.987 926.617c-1.16221,-1.59803 -3.40158,-1.95 -4.99843,-0.786615 -1.59803,1.16339 -1.95,3.40158 -0.786615,4.99961 35.5453,48.8433 115.019,5.01024 195.027,-39.117 39.013,-21.5162 78.1595,-43.1079 111.848,-53.739 1.89095,-0.596457 2.94095,-2.61496 2.34449,-4.50709 -0.596457,-1.89095 -2.61496,-2.94213 -4.50709,-2.34449 -34.3264,10.8319 -73.8001,32.6044 -113.14,54.3012 -77.2406,42.6012 -153.967,84.919 -185.788,41.1933z"/>
  <path class="fil8" d="M699.19 874.216c-0.883465,-1.76811 -3.03307,-2.48386 -4.80118,-1.60039 -1.76811,0.883465 -2.48504,3.03307 -1.60039,4.80118 27.078,54.0048 112.655,23.7614 198.804,-6.68504 42.0166,-14.8476 84.1749,-29.7484 119.127,-34.7221 1.96181,-0.27874 3.32599,-2.09646 3.04725,-4.05709 -0.27874,-1.96181 -2.09646,-3.32599 -4.05709,-3.04725 -35.6587,5.07402 -78.1524,20.0929 -120.504,35.0599 -83.1674,29.3918 -165.78,58.5874 -190.016,10.2508z"/>
 </g>
</svg>
