<?xml version="1.0" encoding="UTF-8"?>
<!DOCTYPE svg PUBLIC "-//W3C//DTD SVG 1.1//EN" "http://www.w3.org/Graphics/SVG/1.1/DTD/svg11.dtd">
<!-- Creator: CorelDRAW -->
<svg xmlns="http://www.w3.org/2000/svg" xml:space="preserve" width="2048px" height="2048px" style="shape-rendering:geometricPrecision; text-rendering:geometricPrecision; image-rendering:optimizeQuality; fill-rule:evenodd; clip-rule:evenodd"
viewBox="0 0 2048 2048"
 xmlns:xlink="http://www.w3.org/1999/xlink">
 <defs>
  <style type="text/css">
   <![CDATA[
    .fil2 {fill:none}
    .fil10 {fill:#827717}
    .fil6 {fill:#983816}
    .fil7 {fill:#AD441F}
    .fil5 {fill:#B23509}
    .fil8 {fill:#B9471F}
    .fil1 {fill:#BDBDBD}
    .fil0 {fill:#E0E0E0}
    .fil9 {fill:#FFCC00}
    .fil3 {fill:#827717;fill-rule:nonzero}
    .fil4 {fill:#9E9D24;fill-rule:nonzero}
   ]]>
  </style>
   <clipPath id="id0">
    <path d="M1024 -0.0011811c565.539,0 1024,458.462 1024,1024 0,565.539 -458.462,1024 -1024,1024 -565.539,0 -1024,-458.462 -1024,-1024 0,-565.539 458.462,-1024 1024,-1024z"/>
   </clipPath>
 </defs>
 <g id="Layer_x0020_1">
  <metadata id="CorelCorpID_0Corel-Layer"/>
  <path class="fil0" d="M1024 -0.0011811c565.539,0 1024,458.462 1024,1024 0,565.539 -458.462,1024 -1024,1024 -565.539,0 -1024,-458.462 -1024,-1024 0,-565.539 458.462,-1024 1024,-1024z"/>
  <g style="clip-path:url(#id0)">
   <g id="_451249232">
    <g>
     <path id="_3342646961" class="fil1" d="M2159.88 1599.88l0 0zm-1135.88 -1135.88l0 0z"/>
     <polygon id="_334264024" class="fil1" points="1082.85,490.114 2218.73,1626 2220,1627.43 2221.23,1628.89 2222.43,1630.37 2223.6,1631.89 2224.73,1633.44 2225.82,1635.01 2226.88,1636.61 2227.89,1638.24 2228.87,1639.89 2229.81,1641.57 2230.71,1643.28 2231.58,1645 2232.4,1646.75 2233.17,1648.53 2233.91,1650.32 2234.6,1652.14 2235.25,1653.97 2235.86,1655.83 2236.42,1657.71 2236.93,1659.6 2237.4,1661.52 2237.82,1663.45 2238.2,1665.39 2238.52,1667.36 2238.8,1669.34 2239.03,1671.33 2239.21,1673.34 2239.34,1675.36 2239.42,1677.4 2239.45,1679.44 1103.56,543.563 1103.54,541.515 1103.46,539.48 1103.33,537.457 1103.15,535.448 1102.92,533.455 1102.64,531.475 1102.32,529.511 1101.94,527.563 1101.52,525.633 1101.05,523.72 1100.53,521.826 1099.97,519.949 1099.37,518.092 1098.72,516.256 1098.03,514.439 1097.29,512.644 1096.51,510.872 1095.69,509.122 1094.83,507.395 1093.93,505.692 1092.99,504.012 1092.01,502.36 1091,500.732 1089.94,499.131 1088.85,497.556 1087.72,496.01 1086.55,494.493 1085.35,493.003 1084.12,491.543 "/>
     <polygon id="_286332808" class="fil1" points="1103.56,543.563 2239.45,1679.44 2228.11,1819.85 1092.23,683.969 "/>
     <polygon id="_286332832" class="fil1" points="1092.23,683.969 2228.11,1819.85 2228.11,1822.23 1092.23,686.347 "/>
     <polygon id="_286332280" class="fil1" points="1265.92,492.866 2401.8,1628.75 2403.76,1631.37 2405.47,1634.18 2406.9,1637.15 2408.05,1640.28 2408.89,1643.54 2409.4,1646.92 2409.58,1650.41 1273.7,514.523 1273.52,511.042 1273.01,507.662 1272.17,504.398 1271.02,501.271 1269.59,498.294 1267.88,495.488 "/>
     <polygon id="_286332112" class="fil1" points="1273.7,514.523 2409.58,1650.41 2398.03,1747.53 1262.15,611.65 "/>
     <polygon id="_286332592" class="fil1" points="1262.15,611.65 2398.03,1747.53 2397.99,1750.61 2397.87,1753.67 2397.68,1756.71 2397.41,1759.73 2397.06,1762.73 2396.64,1765.71 2396.15,1768.66 2395.59,1771.59 2394.95,1774.49 2394.25,1777.37 2393.47,1780.22 2392.63,1783.04 2391.72,1785.83 2390.74,1788.6 2389.7,1791.33 2388.59,1794.03 2387.42,1796.69 2386.19,1799.33 2384.89,1801.92 2383.53,1804.49 2382.12,1807.01 2380.65,1809.5 2379.11,1811.95 2377.53,1814.36 2375.88,1816.72 2374.18,1819.05 2372.43,1821.33 2370.62,1823.57 2368.76,1825.77 2366.86,1827.92 2364.9,1830.03 2362.89,1832.08 1227.01,696.199 1229.01,694.143 1230.97,692.038 1232.88,689.887 1234.74,687.691 1236.55,685.451 1238.3,683.167 1240,680.841 1241.64,678.473 1243.23,676.064 1244.76,673.615 1246.24,671.128 1247.65,668.604 1249.01,666.042 1250.3,663.443 1251.54,660.811 1252.71,658.145 1253.82,655.445 1254.86,652.714 1255.84,649.952 1256.75,647.158 1257.59,644.337 1258.37,641.488 1259.07,638.611 1259.71,635.706 1260.27,632.778 1260.76,629.826 1261.18,626.849 1261.53,623.85 1261.8,620.829 1261.99,617.789 1262.11,614.729 "/>
     <polygon id="_286332160" class="fil1" points="1227.01,696.199 2362.89,1832.08 2360.83,1834.09 2358.73,1836.05 2356.58,1837.96 2354.38,1839.82 2352.14,1841.62 2349.86,1843.38 2347.53,1845.07 2345.16,1846.72 2342.75,1848.31 2340.3,1849.84 2337.82,1851.31 2335.29,1852.73 2332.73,1854.08 2330.13,1855.38 2327.5,1856.61 2324.83,1857.78 2322.13,1858.89 2319.4,1859.93 2316.64,1860.91 2313.85,1861.82 2311.03,1862.66 2308.18,1863.44 2305.3,1864.15 2302.4,1864.78 2299.47,1865.35 2296.51,1865.84 2293.54,1866.26 2290.54,1866.6 2287.52,1866.87 2284.48,1867.07 2281.42,1867.18 2278.34,1867.22 1142.46,731.34 1145.54,731.301 1148.6,731.184 1151.64,730.99 1154.66,730.72 1157.66,730.374 1160.63,729.955 1163.59,729.464 1166.51,728.899 1169.42,728.264 1172.29,727.557 1175.14,726.782 1177.97,725.938 1180.76,725.027 1183.52,724.051 1186.25,723.008 1188.95,721.901 1191.62,720.73 1194.25,719.496 1196.85,718.202 1199.41,716.847 1201.94,715.431 1204.42,713.957 1206.87,712.426 1209.28,710.838 1211.65,709.192 1213.97,707.494 1216.26,705.74 1218.5,703.934 1220.7,702.076 1222.84,700.166 1224.95,698.208 "/>
     <polygon id="_286332208" class="fil1" points="1142.46,731.34 2278.34,1867.22 2228.11,1867.22 1092.23,731.34 "/>
     <polygon id="_286332256" class="fil1" points="829.503,590.573 1965.38,1726.46 1967.32,1728.58 1969.04,1730.88 1970.54,1733.35 1971.8,1735.96 1972.8,1738.71 1973.54,1741.58 1973.99,1744.55 1974.15,1747.61 838.266,611.726 838.111,608.667 837.657,605.698 836.92,602.83 835.914,600.082 834.655,597.467 833.156,595.001 831.434,592.698 "/>
     <polygon id="_286332640" class="fil1" points="838.266,611.726 1974.15,1747.61 1966.73,1893.15 830.846,757.273 "/>
     <polygon id="_286332568" class="fil1" points="1092.23,731.34 2228.11,1867.22 2228.11,2126.13 1092.23,990.249 "/>
     <polygon id="_286332952" class="fil1" points="1321.33,1011.18 2457.21,2147.07 2458.51,2149.54 2459.73,2151.98 2460.86,2154.37 2461.91,2156.72 2462.87,2159.03 2463.75,2161.29 2464.55,2163.52 2465.27,2165.71 2465.91,2167.85 2466.48,2169.96 2466.97,2172.04 2467.39,2174.07 2467.74,2176.08 2468.02,2178.04 2468.23,2179.98 2468.37,2181.88 1332.49,1045.99 1332.35,1044.09 1332.14,1042.16 1331.86,1040.19 1331.51,1038.19 1331.09,1036.15 1330.6,1034.08 1330.03,1031.97 1329.39,1029.82 1328.67,1027.64 1327.87,1025.41 1326.99,1023.14 1326.03,1020.84 1324.98,1018.49 1323.85,1016.1 1322.63,1013.66 "/>
     <polygon id="_286333552" class="fil1" points="1332.49,1045.99 2468.37,2181.88 2468.46,2184.39 2468.44,2186.84 2468.3,2189.24 2468.05,2191.59 2467.7,2193.88 2467.25,2196.13 2466.7,2198.32 2466.05,2200.48 2465.32,2202.58 2464.5,2204.65 2463.6,2206.67 2462.62,2208.66 2461.57,2210.61 2460.44,2212.53 2459.24,2214.41 2457.99,2216.26 2456.67,2218.08 2455.29,2219.88 2453.86,2221.65 2452.39,2223.4 2450.86,2225.12 2449.3,2226.83 2447.69,2228.52 2446.06,2230.19 2444.39,2231.85 2442.69,2233.49 2440.97,2235.13 2439.23,2236.76 2437.48,2238.38 2435.71,2240 2433.93,2241.61 2432.15,2243.23 1296.27,1107.35 1298.05,1105.73 1299.83,1104.12 1301.6,1102.5 1303.35,1100.88 1305.09,1099.25 1306.81,1097.61 1308.51,1095.96 1310.18,1094.31 1311.81,1092.63 1313.42,1090.94 1314.98,1089.24 1316.5,1087.51 1317.98,1085.77 1319.41,1084 1320.79,1082.2 1322.1,1080.38 1323.36,1078.53 1324.56,1076.64 1325.68,1074.73 1326.74,1072.78 1327.72,1070.79 1328.62,1068.77 1329.44,1066.7 1330.17,1064.59 1330.82,1062.44 1331.37,1060.25 1331.82,1058 1332.17,1055.71 1332.42,1053.36 1332.55,1050.96 1332.58,1048.51 "/>
     <polygon id="_286333528" class="fil1" points="1296.27,1107.35 2432.15,2243.23 2430.09,2245.11 1294.2,1109.22 "/>
     <polygon id="_286333240" class="fil1" points="1294.2,1109.22 2430.09,2245.11 2402.73,2245.11 1266.85,1109.22 "/>
     <polygon id="_286333264" class="fil1" points="830.846,757.273 1966.73,1893.15 1966.75,1895.07 1966.83,1896.98 1966.95,1898.87 1967.11,1900.76 1967.33,1902.63 1967.59,1904.48 1967.9,1906.32 1968.25,1908.15 1968.65,1909.96 1969.09,1911.75 1969.58,1913.53 1970.1,1915.29 1970.67,1917.03 1971.28,1918.75 1971.93,1920.45 1972.63,1922.14 1973.36,1923.8 1974.13,1925.44 1974.94,1927.06 1975.78,1928.66 1976.67,1930.24 1977.59,1931.79 1978.55,1933.32 1979.54,1934.82 1980.57,1936.3 1981.63,1937.75 1982.72,1939.18 1983.85,1940.58 1985.01,1941.95 1986.21,1943.29 1987.43,1944.61 1988.69,1945.89 852.805,810.01 851.549,808.725 850.326,807.41 849.133,806.068 847.972,804.695 846.843,803.297 845.748,801.87 844.686,800.418 843.659,798.94 842.665,797.436 841.709,795.908 840.787,794.356 839.903,792.78 839.056,791.181 838.247,789.56 837.477,787.919 836.744,786.255 836.053,784.571 835.401,782.867 834.791,781.145 834.222,779.403 833.695,777.644 833.21,775.867 832.769,774.074 832.372,772.263 832.019,770.438 831.712,768.598 831.449,766.743 831.233,764.874 831.064,762.992 830.944,761.097 830.871,759.191 "/>
     <polygon id="_286333480" class="fil1" points="1092.23,990.249 2228.11,2126.13 2228.09,2127.12 2228.03,2128.09 2227.92,2129.05 2227.78,2130 2227.6,2130.94 2227.38,2131.86 2227.12,2132.77 2226.82,2133.66 1090.94,997.776 1091.24,996.885 1091.49,995.978 1091.72,995.056 1091.9,994.119 1092.04,993.17 1092.15,992.207 1092.21,991.234 "/>
     <polygon id="_286333600" class="fil1" points="955.771,876.963 2091.65,2012.85 2041.42,2012.85 905.542,876.963 "/>
     <polygon id="_286333408" class="fil1" points="905.542,876.963 2041.42,2012.85 2038.34,2012.81 2035.28,2012.69 2032.24,2012.49 2029.22,2012.22 2026.22,2011.88 2023.25,2011.46 2020.29,2010.97 2017.37,2010.4 2014.46,2009.77 2011.59,2009.06 2008.74,2008.29 2005.91,2007.44 2003.12,2006.53 2000.36,2005.56 1997.63,2004.51 1994.93,2003.41 1992.26,2002.23 1989.63,2001 1987.03,1999.71 1984.47,1998.35 1981.95,1996.94 1979.46,1995.46 1977.01,1993.93 1974.6,1992.34 1972.23,1990.7 1969.91,1989 1967.62,1987.25 1965.38,1985.44 1963.19,1983.58 1961.04,1981.67 1958.93,1979.71 1956.88,1977.7 820.994,841.822 823.051,843.83 825.155,845.789 827.305,847.699 829.502,849.557 831.741,851.363 834.025,853.116 836.352,854.815 838.72,856.459 841.129,858.048 843.577,859.58 846.064,861.054 848.59,862.469 851.151,863.825 853.749,865.119 856.381,866.352 859.047,867.523 861.747,868.631 864.478,869.674 867.24,870.65 870.034,871.561 872.855,872.404 875.705,873.18 878.581,873.885 881.486,874.522 884.414,875.085 887.366,875.578 890.343,875.997 893.342,876.342 896.363,876.612 899.403,876.807 902.463,876.924 "/>
     <polygon id="_286333048" class="fil1" points="1336.73,1282.6 2472.61,2418.48 2472.72,2419.95 2472.82,2421.43 2472.91,2422.9 2473,2424.38 2473.08,2425.86 2473.16,2427.34 2473.22,2428.82 2473.28,2430.3 2473.34,2431.79 2473.38,2433.28 2473.42,2434.77 2473.45,2436.26 2473.48,2437.75 2473.5,2439.24 2473.51,2440.74 2473.51,2442.24 2473.5,2444.51 2473.48,2446.78 2473.44,2449.04 2473.38,2451.3 2473.31,2453.55 2473.22,2455.81 2473.11,2458.05 2472.99,2460.3 2472.85,2462.53 2472.7,2464.77 2472.53,2467 2472.35,2469.23 2472.15,2471.45 2471.93,2473.66 2471.7,2475.88 2471.46,2478.08 2471.19,2480.29 2470.92,2482.48 2470.62,2484.68 2470.31,2486.87 2469.99,2489.05 2469.65,2491.23 2469.3,2493.4 2468.93,2495.57 2468.54,2497.74 2468.15,2499.89 2467.73,2502.05 2467.3,2504.2 2466.86,2506.34 2466.4,2508.48 2465.93,2510.61 2465.44,2512.73 1329.56,1376.85 1330.05,1374.73 1330.52,1372.59 1330.98,1370.46 1331.42,1368.31 1331.85,1366.16 1332.27,1364.01 1332.66,1361.85 1333.05,1359.69 1333.42,1357.52 1333.77,1355.35 1334.11,1353.17 1334.43,1350.98 1334.74,1348.8 1335.03,1346.6 1335.31,1344.4 1335.57,1342.2 1335.82,1339.99 1336.05,1337.78 1336.27,1335.56 1336.47,1333.34 1336.65,1331.12 1336.82,1328.89 1336.97,1326.65 1337.11,1324.41 1337.23,1322.17 1337.34,1319.92 1337.43,1317.67 1337.5,1315.42 1337.56,1313.16 1337.6,1310.89 1337.62,1308.63 1337.63,1306.35 1337.63,1304.86 1337.61,1303.36 1337.6,1301.87 1337.57,1300.37 1337.54,1298.88 1337.5,1297.39 1337.46,1295.91 1337.4,1294.42 1337.34,1292.94 1337.27,1291.45 1337.2,1289.97 1337.12,1288.5 1337.03,1287.02 1336.94,1285.54 1336.84,1284.07 "/>
     <polygon id="_286333720" class="fil1" points="1330.74,1376.85 2466.62,2512.73 2460.37,2535.23 1324.48,1399.35 "/>
     <polygon id="_286334272" class="fil1" points="781.146,1109.22 1917.03,2245.11 1889.68,2245.11 753.795,1109.22 "/>
     <polygon id="_286333696" class="fil1" points="1177.94,1581.09 2313.82,2716.97 2313.84,2717 1177.96,1581.12 "/>
     <polygon id="_286334320" class="fil1" points="1177.96,1581.12 2313.84,2717 2312.48,2717.71 2311.09,2718.31 2309.69,2718.81 2308.27,2719.22 2306.83,2719.53 2305.39,2719.74 2303.95,2719.86 2302.51,2719.88 1166.62,1584 1168.07,1583.97 1169.51,1583.86 1170.95,1583.64 1172.38,1583.34 1173.81,1582.93 1175.21,1582.43 1176.6,1581.82 "/>
     <polygon id="_286333744" class="fil1" points="711.27,1282.6 1847.15,2418.48 1846.6,2418.48 710.716,1282.6 "/>
     <polygon id="_286333768" class="fil1" points="881.052,1584 2016.93,2719.88 2015.27,2719.82 2013.64,2719.64 2012.05,2719.35 2010.5,2718.94 2008.99,2718.44 2007.53,2717.83 2006.13,2717.12 2004.79,2716.32 868.905,1580.44 870.249,1581.24 871.651,1581.94 873.108,1582.55 874.614,1583.06 876.166,1583.46 877.759,1583.76 879.389,1583.94 "/>
     <polygon id="_286333840" class="fil1" points="868.905,1580.44 2004.79,2716.32 2000.28,2713.71 1995.82,2711.04 1991.41,2708.29 1987.05,2705.47 1982.73,2702.59 1978.47,2699.63 1974.26,2696.6 1970.1,2693.51 1965.99,2690.35 1961.94,2687.12 1957.94,2683.83 1954,2680.48 818.118,1544.6 822.061,1547.95 826.059,1551.24 830.112,1554.47 834.219,1557.63 838.378,1560.72 842.59,1563.75 846.852,1566.7 851.164,1569.59 855.527,1572.41 859.939,1575.16 864.398,1577.83 "/>
     <polygon id="_286334056" class="fil1" points="1166.62,1584 2302.51,2719.88 2016.93,2719.88 881.052,1584 "/>
     <polygon id="_286333888" class="fil1" points="753.795,1109.22 1889.68,2245.11 1887.61,2243.23 751.729,1107.35 "/>
     <polygon id="_286334080" class="fil1" points="751.729,1107.35 1887.61,2243.23 1885.83,2241.61 1884.05,2240 1882.28,2238.38 1880.53,2236.76 1878.79,2235.13 742.908,1099.25 744.648,1100.88 746.403,1102.5 748.171,1104.12 749.947,1105.73 "/>
     <polygon id="_286334800" class="fil1" points="1295.93,1465.22 2431.81,2601.1 2429.11,2605.61 2426.35,2610.07 2423.51,2614.48 2420.6,2618.84 2417.63,2623.15 2414.58,2627.41 2411.46,2631.61 2408.28,2635.76 2405.03,2639.85 2401.72,2643.89 2398.34,2647.87 2394.9,2651.79 2391.39,2655.66 2387.82,2659.46 2384.19,2663.21 2380.5,2666.9 2376.75,2670.52 2372.94,2674.09 2369.07,2677.58 2365.14,2681.02 2361.16,2684.39 2357.12,2687.7 2353.02,2690.94 2348.87,2694.11 2344.67,2697.21 2340.42,2700.25 2336.11,2703.21 2331.75,2706.11 2327.34,2708.93 2322.88,2711.69 2318.38,2714.37 2313.82,2716.97 1177.94,1581.09 1182.5,1578.49 1187,1575.81 1191.46,1573.05 1195.87,1570.23 1200.23,1567.33 1204.53,1564.37 1208.79,1561.33 1212.99,1558.23 1217.14,1555.05 1221.24,1551.81 1225.28,1548.51 1229.26,1545.14 1233.19,1541.7 1237.06,1538.2 1240.87,1534.64 1244.62,1531.01 1248.31,1527.33 1251.94,1523.58 1255.51,1519.78 1259.02,1515.91 1262.46,1511.99 1265.84,1508 1269.15,1503.97 1272.4,1499.87 1275.58,1495.73 1278.7,1491.52 1281.75,1487.27 1284.72,1482.96 1287.63,1478.6 1290.47,1474.19 1293.23,1469.73 "/>
     <polygon id="_286334704" class="fil1" points="1266.85,1109.22 2402.73,2245.11 2405.98,2249.11 2409.15,2253.17 2412.27,2257.28 2415.31,2261.44 2418.29,2265.66 2421.19,2269.92 2424.03,2274.24 2426.8,2278.6 2429.5,2283.01 2432.12,2287.47 2434.67,2291.98 2437.15,2296.53 2439.56,2301.13 2441.89,2305.77 2444.14,2310.45 2446.32,2315.18 2448.42,2319.95 2450.44,2324.76 2452.38,2329.61 2454.24,2334.5 2456.03,2339.43 2457.73,2344.4 2459.34,2349.4 2460.88,2354.44 2462.33,2359.52 2463.7,2364.63 2464.98,2369.78 2466.17,2374.96 2467.28,2380.17 2468.3,2385.41 2469.23,2390.68 2470.08,2395.99 1334.2,1260.1 1333.35,1254.8 1332.42,1249.53 1331.4,1244.28 1330.29,1239.07 1329.1,1233.9 1327.82,1228.75 1326.45,1223.64 1325,1218.56 1323.46,1213.52 1321.84,1208.52 1320.14,1203.55 1318.36,1198.62 1316.5,1193.73 1314.56,1188.88 1312.54,1184.07 1310.44,1179.3 1308.26,1174.57 1306,1169.89 1303.67,1165.24 1301.27,1160.65 1298.79,1156.1 1296.24,1151.59 1293.61,1147.13 1290.92,1142.72 1288.15,1138.35 1285.31,1134.04 1282.4,1129.77 1279.43,1125.56 1276.38,1121.4 1273.27,1117.29 1270.1,1113.23 "/>
     <polygon id="_286334896" class="fil1" points="1325,1399.35 2460.88,2535.23 2460.2,2537.4 2459.5,2539.57 2458.79,2541.72 2458.06,2543.88 2457.32,2546.02 2456.56,2548.16 2455.79,2550.29 2455,2552.41 2454.2,2554.53 2453.38,2556.64 2452.55,2558.74 2451.7,2560.83 2450.84,2562.92 2449.97,2565 2449.08,2567.07 2448.17,2569.14 2447.25,2571.2 2446.32,2573.24 2445.38,2575.29 2444.41,2577.32 2443.44,2579.35 2442.45,2581.37 2441.45,2583.38 2440.43,2585.38 2439.4,2587.37 2438.36,2589.36 2437.3,2591.34 2436.23,2593.31 2435.14,2595.27 2434.04,2597.22 2432.93,2599.17 2431.81,2601.1 1295.93,1465.22 1297.05,1463.28 1298.16,1461.34 1299.26,1459.39 1300.35,1457.42 1301.42,1455.45 1302.48,1453.48 1303.52,1451.49 1304.55,1449.5 1305.57,1447.49 1306.57,1445.48 1307.56,1443.47 1308.53,1441.44 1309.49,1439.4 1310.44,1437.36 1311.37,1435.31 1312.29,1433.26 1313.2,1431.19 1314.08,1429.12 1314.96,1427.04 1315.82,1424.95 1316.67,1422.86 1317.5,1420.75 1318.32,1418.65 1319.12,1416.53 1319.91,1414.41 1320.68,1412.27 1321.43,1410.14 1322.18,1407.99 1322.9,1405.84 1323.62,1403.68 1324.31,1401.52 "/>
     <polygon id="_286334872" class="fil1" points="1316.86,1004.58 2452.74,2140.46 2453.81,2141.64 2454.8,2142.9 2455.7,2144.22 2456.5,2145.61 2457.21,2147.07 1321.33,1011.18 1320.62,1009.73 1319.82,1008.34 1318.92,1007.01 1317.93,1005.76 "/>
     <polygon id="_286334776" class="fil1" points="1334.33,1260.1 2470.21,2395.99 2473.17,2418.48 1337.28,1282.6 "/>
     <polygon id="_286334992" class="fil1" points="1337.28,1282.6 2473.17,2418.48 2472.61,2418.48 1336.73,1282.6 "/>
    </g>
    <path id="_451248656" class="fil1" d="M1024 463.999l0 0zm-56.2134 23.3504c14.4083,-14.4071 34.3051,-23.3504 56.2134,-23.3504 21.9059,0 41.804,8.94331 56.2122,23.3504 14.4071,14.4083 23.3504,34.3075 23.3504,56.2134l-11.3339 140.406 0 2.37874 50.2276 0c20.5181,0 39.189,-8.41064 52.7374,-21.9603 13.5484,-13.5484 21.9591,-32.2193 21.9591,-52.7374l-11.5488 -97.1268c0,-18.802 15.2445,-34.0465 34.0465,-34.0465 18.8032,0 34.0465,15.2445 34.0465,34.0465l-11.55 97.1268c0,32.9374 -13.4587,62.8666 -35.1425,84.5493 -21.6815,21.6827 -51.6107,35.1414 -84.5481,35.1414l-50.2276 0 0 258.908c0,2.63977 -0.454725,5.17323 -1.28976,7.52717l209.804 0c9.18898,0 17.0906,5.51221 20.5831,13.4079 7.20001,13.337 10.5744,24.7642 11.165,34.8095 1.57914,27.1087 -17.2063,44.1296 -36.2197,61.3536l-2.06811 1.87795 -27.3508 0c34.9335,42.4193 58.8378,94.1505 67.3418,150.879l0.138189 0 2.9504 22.4965 -0.5563 0c0.596457,7.84016 0.901182,15.7618 0.901182,23.7543 0,24.2469 -2.79095,47.8441 -8.06812,70.4965l1.1811 0 -6.25749 22.4965 0.511418 0c-7.19174,23.1969 -16.9961,45.2681 -29.0693,65.8713 -28.3418,48.3626 -69.1536,88.4694 -117.985,115.872l0.0153543 0.0283465c-3.58819,2.01378 -7.49292,2.93622 -11.3327,2.87835l-285.572 0c-4.4752,0 -8.64449,-1.30748 -12.1476,-3.56103 -48.3201,-27.3862 -88.7138,-67.2367 -116.831,-115.218 -12.0732,-20.6032 -21.8776,-42.6744 -29.0693,-65.8713l0.511418 0 -6.25749 -22.4965 1.1811 0c-5.27717,-22.6524 -8.06812,-46.2496 -8.06812,-70.4965 0,-7.99253 0.304725,-15.9142 0.89882,-23.7543l-0.553937 0 2.9504 -22.4965 0.138189 0c8.50394,-56.7284 32.4083,-108.46 67.3418,-150.879l-27.3508 0 -2.06693 -1.87795c-19.0158,-17.224 -37.8048,-34.2449 -36.2256,-61.3536 0.61063,-10.4941 4.27441,-22.5012 12.1583,-36.6166l-0.0437008 -0.0744095c4.17638,-7.47993 11.9906,-11.6457 19.9961,-11.5264l209.447 0c-0.83504,-2.35394 -1.28976,-4.88741 -1.28976,-7.52717l0 -113.286 -50.2288 0c-32.9374,0 -62.8666,-13.4599 -84.5481,-35.1414 -21.6827,-21.6827 -35.1414,-51.6119 -35.1414,-84.5493l-7.41969 -145.546c0,-16.5213 13.3949,-29.9162 29.9162,-29.9162 16.5213,0 29.9162,13.3949 29.9162,29.9162l-7.41969 145.546c0,20.5181 8.41064,39.189 21.9591,52.7374 13.5484,13.5484 32.2193,21.9603 52.7374,21.9603l50.2288 0 0 -137.291 -11.335 -151.116c0,-21.9059 8.9445,-41.8052 23.3516,-56.2134z"/>
   </g>
  </g>
  <path class="fil2" d="M1024 -0.0011811c565.539,0 1024,458.462 1024,1024 0,565.539 -458.462,1024 -1024,1024 -565.539,0 -1024,-458.462 -1024,-1024 0,-565.539 458.462,-1024 1024,-1024z"/>
  <path class="fil3" d="M838.266 611.726c0,-16.5213 -13.3949,-29.9162 -29.9162,-29.9162 -16.5213,0 -29.9162,13.3949 -29.9162,29.9162l7.41969 145.546c0,32.9374 13.4587,62.8666 35.1414,84.5493 21.6815,21.6815 51.6107,35.1414 84.5481,35.1414l64.9689 0c12.424,0 22.4965,-10.0724 22.4965,-22.4965 0,-12.424 -10.0724,-22.4965 -22.4965,-22.4965l-64.9689 0c-20.5181,0 -39.189,-8.41182 -52.7374,-21.9603 -13.5484,-13.5473 -21.9591,-32.2193 -21.9591,-52.7374l7.41969 -145.546z"/>
  <path class="fil3" d="M1273.7 514.523c0,-18.802 -15.2445,-34.0465 -34.0465,-34.0465 -18.8032,0 -34.0465,15.2445 -34.0465,34.0465l11.55 97.1268c0,20.5181 -8.41182,39.189 -21.9603,52.7386 -13.5484,13.5473 -32.2193,21.9591 -52.7374,21.9591l-56.2996 0c-12.424,0 -22.4965,10.0724 -22.4965,22.4965 0,12.424 10.0724,22.4965 22.4965,22.4965l56.2996 0c32.9374,0 62.8666,-13.4599 84.5481,-35.1414 21.6827,-21.6827 35.1425,-51.6119 35.1425,-84.5493l11.55 -97.1268z"/>
  <path class="fil4" d="M1024 463.999l0.00236221 0c21.9059,0 41.804,8.94331 56.2122,23.3516 14.4071,14.4071 23.3504,34.3063 23.3504,56.2122l-11.3339 140.406 0 306.28c0,12.424 -10.0724,22.4965 -22.4965,22.4965l-91.467 0c-12.424,0 -22.4965,-10.0724 -22.4965,-22.4965l0 -295.57 -11.3339 -151.116c0,-21.9059 8.9445,-41.8052 23.3516,-56.2122 14.4071,-14.4083 34.3051,-23.3516 56.2111,-23.3516z"/>
  <path class="fil5" d="M1325 1399.35c-7.19292,23.1969 -16.9949,45.2693 -29.0693,65.8713 -28.3418,48.3626 -69.1536,88.4694 -117.985,115.873l0.0153543 0.0271654c-3.58819,2.01378 -7.49292,2.93622 -11.3327,2.87717l-285.572 0c-4.4752,0 -8.64449,-1.3063 -12.1476,-3.55866 -48.3201,-27.3874 -88.7138,-67.2378 -116.831,-115.219 -12.0744,-20.602 -21.8764,-42.6744 -29.0693,-65.8713l1.5815 0c-9.23387,-29.367 -14.2146,-60.6012 -14.2146,-92.993 0,-76.6264 27.8622,-146.778 74.0505,-201.041l479.157 0c46.1882,54.2634 74.0505,124.415 74.0505,201.041 0,32.3918 -4.98071,63.626 -14.2146,92.993l1.5815 0z"/>
  <path class="fil6" d="M723.126 1394.57c-8.29725,-27.9673 -12.7547,-57.5717 -12.7547,-88.2107 0,-14.0386 0.938977,-27.8587 2.75079,-41.4048l621.756 0c1.81181,13.5461 2.75079,27.3662 2.75079,41.4048 0,30.639 -4.45748,60.2434 -12.7547,88.2107l-601.748 0z"/>
  <polygon class="fil5" points="1118.17,1282.6 1118.17,1282.6 1118.51,1282.94 "/>
  <polygon class="fil5" points="929.149,1282.6 929.15,1282.6 929.488,1282.94 "/>
  <polygon class="fil5" points="834.636,1376.85 834.635,1376.85 834.975,1376.51 "/>
  <polygon class="fil5" points="1023.66,1376.85 1023.66,1376.85 1024,1376.51 "/>
  <polygon class="fil5" points="1212.68,1376.85 1212.68,1376.85 1213.02,1376.51 "/>
  <path class="fil7" d="M1024 997.776l276.744 0c9.18898,0 17.0906,5.51221 20.5831,13.4079 26.6315,49.3323 1.00394,72.5575 -25.0547,96.1631l-2.06811 1.87795 -540.409 0 -2.06693 -1.87795c-26.3764,-23.8925 -52.3182,-47.3918 -24.0673,-97.9702l-0.0448819 -0.0744095c4.17756,-7.47875 11.9917,-11.6457 19.9973,-11.5264l276.386 0z"/>
  <path class="fil8" d="M1024 997.776l276.744 0c9.18898,0 17.0906,5.51221 20.5831,13.4079 7.20001,13.337 10.5744,24.7642 11.1591,34.8083l-616.981 0c0.611811,-10.4953 4.27087,-22.5 12.1559,-36.6154l-0.0448819 -0.0744095c4.17756,-7.47875 11.9917,-11.6457 19.9973,-11.5264l276.386 0z"/>
  <path class="fil9" d="M1334.33 1260.1l-620.667 0 -2.9504 22.4965 18.5374 0 90.1253 94.2509 -102.121 0 6.25749 22.4965 600.969 0 6.25749 -22.4965 -102.122 0 90.1253 -94.2509 18.5386 0 -2.9504 -22.4965zm-578.274 22.4965l157.831 0 -78.9154 78.1264 -78.9154 -78.1264zm94.5131 94.2509l78.9154 -78.1264 78.9154 78.1264 -157.831 0zm78.5776 -94.2509l0 0zm15.9354 0l157.828 0 -78.9142 78.1264 -78.9142 -78.1264zm94.5107 94.2509l78.9154 -78.1264 78.9154 78.1264 -157.831 0zm94.5131 -94.2509l157.83 0 -78.9154 78.1264 -78.9142 -78.1264zm-15.9354 0l0 0z"/>
  <polygon class="fil10" points="996.731,762.96 1003.5,740.626 1010.26,762.96 1003.5,785.293 "/>
  <polygon class="fil10" points="993.509,896.531 1000.27,874.197 1007.04,896.531 1000.27,918.864 "/>
  <polygon class="fil10" points="1052.39,718.29 1059.15,695.957 1065.92,718.29 1059.15,740.624 "/>
  <polygon class="fil10" points="1037.45,832.088 1044.21,809.756 1050.98,832.088 1044.21,854.422 "/>
  <polygon class="fil10" points="978.131,651.212 984.896,628.88 991.661,651.212 984.896,673.545 "/>
  <polygon class="fil10" points="1041.11,605.81 1047.87,583.477 1054.64,605.81 1047.87,628.143 "/>
  <polygon class="fil10" points="988.383,542.833 995.148,520.499 1001.91,542.833 995.148,565.166 "/>
  <polygon class="fil10" points="1050.63,953.65 1057.39,931.316 1064.16,953.65 1057.39,975.982 "/>
 </g>
</svg>
