<?xml version="1.0" encoding="UTF-8"?>
<!DOCTYPE svg PUBLIC "-//W3C//DTD SVG 1.1//EN" "http://www.w3.org/Graphics/SVG/1.1/DTD/svg11.dtd">
<!-- Creator: CorelDRAW -->
<svg xmlns="http://www.w3.org/2000/svg" xml:space="preserve" width="2048px" height="2048px" style="shape-rendering:geometricPrecision; text-rendering:geometricPrecision; image-rendering:optimizeQuality; fill-rule:evenodd; clip-rule:evenodd"
viewBox="0 0 2048 2048"
 xmlns:xlink="http://www.w3.org/1999/xlink">
 <defs>
  <style type="text/css">
   <![CDATA[
    .str0 {stroke:#212121;stroke-width:1.00039;stroke-linecap:round;stroke-linejoin:round}
    .fil2 {fill:none}
    .fil1 {fill:#0288D1}
    .fil8 {fill:#263238}
    .fil0 {fill:#29B6F6}
    .fil11 {fill:#455A64}
    .fil13 {fill:#78909C}
    .fil7 {fill:#B0BEC5}
    .fil12 {fill:#ECEFF1}
    .fil9 {fill:#ED8105}
    .fil10 {fill:#FF8F00}
    .fil5 {fill:#424242;fill-rule:nonzero}
    .fil6 {fill:#90A4AE;fill-rule:nonzero}
    .fil4 {fill:#B07933;fill-rule:nonzero}
    .fil3 {fill:#CE8E32;fill-rule:nonzero}
   ]]>
  </style>
   <clipPath id="id0">
    <path d="M1024 -0.0011811c565.539,0 1024,458.462 1024,1024 0,565.539 -458.462,1024 -1024,1024 -565.539,0 -1024,-458.462 -1024,-1024 0,-565.539 458.462,-1024 1024,-1024z"/>
   </clipPath>
 </defs>
 <g id="Layer_x0020_1">
  <metadata id="CorelCorpID_0Corel-Layer"/>
  <path class="fil0" d="M1024 -0.0011811c565.539,0 1024,458.462 1024,1024 0,565.539 -458.462,1024 -1024,1024 -565.539,0 -1024,-458.462 -1024,-1024 0,-565.539 458.462,-1024 1024,-1024z"/>
  <g style="clip-path:url(#id0)">
   <g id="_451252640">
    <g>
     <polygon id="_3370593601" class="fil1" points="1411.32,1338.13 2547.2,2474.02 1772.56,2474.02 636.682,1338.13 "/>
     <polygon id="_337059096" class="fil1" points="636.682,1338.13 1772.56,2474.02 1770.27,2474.03 1768.01,2474.09 1765.77,2474.17 1763.57,2474.29 1761.4,2474.44 1759.27,2474.63 1757.18,2474.84 1755.13,2475.08 1753.12,2475.35 1751.16,2475.65 1749.24,2475.97 1747.38,2476.33 1745.57,2476.7 1743.81,2477.1 1742.11,2477.53 1740.47,2477.98 604.584,1342.09 606.226,1341.65 607.928,1341.22 609.686,1340.82 611.497,1340.44 613.362,1340.09 615.277,1339.77 617.24,1339.47 619.248,1339.2 621.299,1338.96 623.392,1338.74 625.523,1338.56 627.691,1338.41 629.893,1338.29 632.126,1338.2 634.391,1338.15 "/>
     <polygon id="_337060248" class="fil1" points="573.006,1384.8 1708.89,2520.68 1669.53,2520.68 533.646,1384.8 "/>
     <polygon id="_337059960" class="fil1" points="803.261,1490.1 1939.14,2625.98 1940.29,2627.09 1941.25,2628.22 1942,2629.37 1942.54,2630.54 1942.87,2631.72 1942.98,2632.92 807.099,1497.04 806.988,1495.84 806.658,1494.65 806.115,1493.49 805.365,1492.34 804.412,1491.21 "/>
     <polygon id="_337060392" class="fil1" points="807.099,1497.04 1942.98,2632.92 1942.98,2636.56 807.099,1500.67 "/>
     <polygon id="_337060104" class="fil1" points="1411.61,1500.67 2547.49,2636.56 2547.49,2660.68 1411.61,1524.8 "/>
     <polygon id="_337059792" class="fil1" points="1411.61,1524.8 2547.49,2660.68 2547.38,2661.88 2547.05,2663.07 2546.51,2664.24 2545.76,2665.39 2544.81,2666.51 2543.66,2667.62 2542.31,2668.71 2540.79,2669.77 2539.08,2670.8 2537.19,2671.81 2535.14,2672.78 2532.91,2673.73 2530.54,2674.64 2528,2675.53 2525.32,2676.37 2522.49,2677.18 2519.53,2677.96 2516.43,2678.69 2513.21,2679.38 2509.86,2680.03 2506.4,2680.64 2502.82,2681.2 2499.14,2681.72 2495.36,2682.18 2491.49,2682.6 2487.52,2682.97 2483.47,2683.28 2479.34,2683.54 2475.14,2683.75 2470.86,2683.9 2466.53,2683.99 2462.14,2684.02 1326.26,1548.13 1330.65,1548.1 1334.98,1548.01 1339.25,1547.87 1343.46,1547.66 1347.59,1547.4 1351.64,1547.09 1355.6,1546.72 1359.48,1546.3 1363.26,1545.83 1366.94,1545.32 1370.52,1544.76 1373.98,1544.15 1377.32,1543.5 1380.55,1542.81 1383.65,1542.07 1386.61,1541.3 1389.44,1540.49 1392.12,1539.64 1394.65,1538.76 1397.03,1537.85 1399.25,1536.9 1401.31,1535.92 1403.19,1534.92 1404.9,1533.88 1406.43,1532.82 1407.77,1531.74 1408.93,1530.63 1409.88,1529.5 1410.63,1528.35 1411.17,1527.19 1411.5,1526 "/>
     <polygon id="_337059840" class="fil1" points="1326.26,1548.13 2462.14,2684.02 2457.74,2683.99 2453.41,2683.9 2449.14,2683.75 2444.94,2683.54 2440.81,2683.28 2436.76,2682.97 2432.79,2682.6 2428.91,2682.18 2425.13,2681.72 2421.45,2681.2 2417.88,2680.64 2414.41,2680.03 2411.07,2679.38 2407.84,2678.69 2404.75,2677.96 2401.78,2677.18 2398.96,2676.37 2396.27,2675.53 2393.74,2674.64 2391.36,2673.73 2389.14,2672.78 2387.08,2671.81 2385.2,2670.8 2383.49,2669.77 2381.96,2668.71 2380.62,2667.62 1244.74,1531.74 1246.08,1532.82 1247.61,1533.88 1249.32,1534.92 1251.2,1535.92 1253.26,1536.9 1255.48,1537.85 1257.86,1538.76 1260.39,1539.64 1263.08,1540.49 1265.9,1541.3 1268.87,1542.07 1271.96,1542.81 1275.19,1543.5 1278.53,1544.15 1282,1544.76 1285.57,1545.32 1289.25,1545.83 1293.03,1546.3 1296.91,1546.72 1300.87,1547.09 1304.93,1547.4 1309.05,1547.66 1313.26,1547.87 1317.53,1548.01 1321.86,1548.1 "/>
     <polygon id="_337059912" class="fil1" points="1408.93,1491.21 2544.81,2627.09 2545.76,2628.22 2546.51,2629.37 2547.05,2630.54 2547.38,2631.72 2547.49,2632.92 1411.61,1497.04 1411.5,1495.84 1411.17,1494.65 1410.63,1493.49 1409.88,1492.34 "/>
     <polygon id="_337060800" class="fil1" points="1411.61,1497.04 2547.49,2632.92 2547.49,2636.56 1411.61,1500.67 "/>
     <polygon id="_337060752" class="fil1" points="1255.32,523.199 2391.2,1659.08 2391.2,1790.84 1255.32,654.962 "/>
     <polygon id="_337060656" class="fil1" points="1255.32,654.962 2391.2,1790.84 2391.2,1840.97 1255.32,705.091 "/>
     <polygon id="_337061184" class="fil1" points="1255.32,705.091 2391.2,1840.97 2391.2,1869.08 1255.32,733.196 "/>
     <polygon id="_337061208" class="fil1" points="1442.18,753.371 2578.06,1889.25 2579.16,1890.52 2580.24,1891.82 1444.36,755.933 1443.28,754.636 "/>
     <polygon id="_337061160" class="fil1" points="1444.36,755.933 2580.24,1891.82 2581.26,1893.1 2582.26,1894.4 2583.23,1895.74 2584.18,1897.1 2585.11,1898.49 2586.02,1899.9 2586.91,1901.33 2587.78,1902.79 2588.62,1904.27 2589.45,1905.77 2590.25,1907.29 2591.04,1908.84 2591.8,1910.4 2592.55,1911.98 2593.27,1913.58 2593.98,1915.19 2594.67,1916.82 2595.33,1918.47 2595.98,1920.13 2596.61,1921.81 2597.23,1923.5 2597.82,1925.2 2598.4,1926.91 2598.96,1928.63 2599.5,1930.37 2600.02,1932.11 2600.53,1933.86 2601.02,1935.62 2601.49,1937.39 2601.95,1939.16 2602.39,1940.94 2602.81,1942.73 1466.93,806.845 1466.51,805.06 1466.07,803.281 1465.61,801.507 1465.14,799.74 1464.65,797.981 1464.14,796.229 1463.62,794.484 1463.07,792.751 1462.52,791.027 1461.94,789.315 1461.34,787.613 1460.73,785.924 1460.1,784.249 1459.45,782.587 1458.79,780.941 1458.1,779.308 1457.39,777.694 1456.67,776.096 1455.92,774.516 1455.16,772.954 1454.37,771.412 1453.57,769.889 1452.74,768.387 1451.9,766.907 1451.03,765.449 1450.14,764.014 1449.23,762.604 1448.3,761.218 1447.35,759.857 1446.38,758.521 1445.38,757.214 "/>
     <polygon id="_337061136" class="fil1" points="918.07,506.7 2053.95,1642.58 2055.46,1644.24 2056.8,1646.04 2057.97,1647.96 2058.95,1650 2059.74,1652.14 2060.31,1654.38 2060.66,1656.7 2060.79,1659.08 924.904,523.199 924.784,520.813 924.431,518.497 923.855,516.261 923.07,514.117 922.089,512.078 920.919,510.154 919.576,508.357 "/>
     <polygon id="_337060584" class="fil1" points="924.904,523.199 2060.79,1659.08 2060.79,1790.84 924.904,654.962 "/>
     <polygon id="_337060824" class="fil1" points="924.904,654.962 2060.79,1790.84 2060.79,1840.97 924.904,705.091 "/>
     <polygon id="_337060944" class="fil1" points="924.904,705.091 2060.79,1840.97 2060.79,1869.08 924.904,733.196 "/>
     <polygon id="_337061664" class="fil1" points="1528.42,1383.12 2664.3,2519.01 2663.42,2519.2 2662.54,2519.39 2661.65,2519.57 2660.77,2519.73 2659.89,2519.88 2659,2520.02 2658.12,2520.14 2657.24,2520.26 2656.36,2520.36 2655.48,2520.44 2654.6,2520.52 2653.73,2520.58 2652.85,2520.62 2651.98,2520.66 2651.11,2520.68 2650.24,2520.68 1514.35,1384.8 1515.22,1384.8 1516.1,1384.78 1516.97,1384.74 1517.85,1384.69 1518.72,1384.63 1519.6,1384.56 1520.48,1384.47 1521.36,1384.37 1522.24,1384.26 1523.12,1384.14 1524,1384 1524.89,1383.85 1525.77,1383.69 1526.65,1383.51 1527.54,1383.32 "/>
     <polygon id="_337061304" class="fil1" points="1464.16,1353.62 2600.04,2489.5 2598.31,2487.84 2596.42,2486.26 2594.39,2484.78 2592.21,2483.4 2589.89,2482.11 2587.43,2480.92 2584.85,2479.84 2582.13,2478.85 2579.3,2477.98 1443.41,1342.09 1446.25,1342.97 1448.97,1343.95 1451.55,1345.04 1454.01,1346.23 1456.33,1347.52 1458.51,1348.9 1460.54,1350.38 1462.43,1351.95 "/>
     <polygon id="_337061328" class="fil1" points="1443.41,1342.09 2579.3,2477.98 2577.65,2477.53 2575.95,2477.1 2574.2,2476.7 2572.38,2476.33 2570.52,2475.97 2568.6,2475.65 2566.64,2475.35 2564.63,2475.08 2562.58,2474.84 2560.49,2474.63 2558.36,2474.44 2556.19,2474.29 2553.99,2474.17 2551.76,2474.09 2549.49,2474.03 2547.2,2474.02 1411.32,1338.13 1413.61,1338.15 1415.87,1338.2 1418.11,1338.29 1420.31,1338.41 1422.48,1338.56 1424.61,1338.74 1426.7,1338.96 1428.75,1339.2 1430.76,1339.47 1432.72,1339.77 1434.64,1340.09 1436.5,1340.44 1438.31,1340.82 1440.07,1341.22 1441.77,1341.65 "/>
     <polygon id="_337061376" class="fil1" points="1514.35,1384.8 2650.24,2520.68 2610.88,2520.68 1474.99,1384.8 "/>
     <polygon id="_337061424" class="fil1" points="807.099,1500.67 1942.98,2636.56 1942.98,2660.68 807.099,1524.8 "/>
     <polygon id="_337061640" class="fil1" points="604.584,1342.09 1740.47,2477.98 1737.63,2478.85 1734.91,2479.84 1732.33,2480.92 1729.87,2482.11 1727.55,2483.4 1725.37,2484.78 1723.34,2486.26 1721.46,2487.83 1719.72,2489.5 1718.15,2491.25 1716.74,2493.09 1715.49,2495.02 1714.41,2497.03 1713.51,2499.12 1712.79,2501.29 1712.25,2503.53 576.365,1367.65 576.905,1365.4 577.629,1363.24 578.532,1361.15 579.608,1359.14 580.855,1357.21 582.267,1355.37 583.843,1353.62 585.574,1351.95 587.46,1350.38 589.493,1348.9 591.673,1347.51 593.991,1346.23 596.447,1345.04 599.033,1343.95 601.747,1342.97 "/>
     <polygon id="_337061928" class="fil1" points="576.365,1367.65 1712.25,2503.53 1708.89,2520.68 573.006,1384.8 "/>
     <polygon id="_337061808" class="fil1" points="807.099,1524.8 1942.98,2660.68 1942.87,2661.88 1942.54,2663.07 1942,2664.24 1941.25,2665.39 1940.29,2666.51 1939.14,2667.62 1937.8,2668.71 1936.27,2669.77 1934.56,2670.8 1932.68,2671.81 1930.62,2672.78 1928.4,2673.73 1926.02,2674.64 1923.49,2675.53 1920.81,2676.37 1917.98,2677.18 1915.01,2677.96 1911.92,2678.69 1908.69,2679.38 1905.35,2680.03 1901.88,2680.64 1898.31,2681.2 1894.63,2681.72 1890.85,2682.18 1886.97,2682.6 1883.01,2682.97 1878.96,2683.28 1874.83,2683.54 1870.62,2683.75 1866.35,2683.9 1862.02,2683.99 1857.63,2684.02 721.744,1548.13 726.136,1548.1 730.471,1548.01 734.742,1547.87 738.945,1547.66 743.075,1547.4 747.126,1547.09 751.091,1546.72 754.967,1546.3 758.748,1545.83 762.428,1545.32 766.003,1544.76 769.466,1544.15 772.812,1543.5 776.037,1542.81 779.134,1542.07 782.098,1541.3 784.925,1540.49 787.607,1539.64 790.142,1538.76 792.521,1537.85 794.741,1536.9 796.797,1535.92 798.682,1534.92 800.391,1533.88 801.92,1532.82 803.261,1531.74 804.412,1530.63 805.365,1529.5 806.115,1528.35 806.658,1527.19 806.988,1526 "/>
     <polygon id="_337061952" class="fil1" points="533.646,1384.8 1669.53,2520.68 1668.66,2520.68 1667.79,2520.66 1666.91,2520.62 1666.04,2520.58 1665.16,2520.52 1664.28,2520.44 1663.4,2520.36 1662.52,2520.26 1661.64,2520.14 1660.76,2520.02 1659.88,2519.88 1658.99,2519.73 1658.11,2519.57 1657.23,2519.39 1656.34,2519.2 1655.46,2519.01 519.582,1383.12 520.464,1383.32 521.347,1383.51 522.231,1383.69 523.113,1383.85 523.996,1384 524.879,1384.14 525.76,1384.26 526.641,1384.37 527.521,1384.47 528.401,1384.56 529.278,1384.63 530.155,1384.69 531.031,1384.74 531.904,1384.78 532.776,1384.8 "/>
     <polygon id="_337061616" class="fil1" points="519.582,1383.12 1655.46,2519.01 1654.12,2518.67 1652.77,2518.32 1651.43,2517.93 1650.1,2517.51 1648.77,2517.06 1647.45,2516.59 1646.13,2516.09 1644.83,2515.56 1643.53,2515 1642.23,2514.42 1640.95,2513.81 1639.68,2513.17 1638.42,2512.51 1637.17,2511.83 1635.92,2511.11 1634.7,2510.38 1633.48,2509.62 1632.28,2508.83 1631.09,2508.03 1629.91,2507.2 1628.75,2506.34 1627.61,2505.47 1626.48,2504.57 1625.37,2503.65 489.487,1367.77 490.6,1368.69 491.728,1369.59 492.872,1370.46 494.032,1371.32 495.207,1372.15 496.396,1372.95 497.599,1373.74 498.815,1374.5 500.044,1375.23 501.284,1375.94 502.536,1376.63 503.798,1377.29 505.07,1377.92 506.353,1378.53 507.645,1379.12 508.944,1379.67 510.253,1380.2 511.568,1380.71 512.889,1381.18 514.218,1381.63 515.552,1382.04 516.891,1382.43 518.234,1382.79 "/>
     <polygon id="_337061280" class="fil1" points="721.744,1548.13 1857.63,2684.02 1853.23,2683.99 1848.9,2683.9 1844.63,2683.75 1840.42,2683.54 1836.29,2683.28 1832.24,2682.97 1828.28,2682.6 1824.4,2682.18 1820.62,2681.72 1816.94,2681.2 1813.37,2680.64 1809.9,2680.03 1806.56,2679.38 1803.33,2678.69 1800.23,2677.96 1797.27,2677.18 1794.44,2676.37 1791.76,2675.53 1789.23,2674.64 1786.85,2673.73 1784.63,2672.78 1782.57,2671.81 1780.69,2670.8 1778.98,2669.77 1777.45,2668.71 1776.11,2667.62 640.225,1531.74 641.567,1532.82 643.095,1533.88 644.806,1534.92 646.691,1535.92 648.746,1536.9 650.966,1537.85 653.346,1538.76 655.88,1539.64 658.562,1540.49 661.388,1541.3 664.353,1542.07 667.45,1542.81 670.675,1543.5 674.021,1544.15 677.484,1544.76 681.058,1545.32 684.739,1545.83 688.521,1546.3 692.396,1546.72 696.362,1547.09 700.413,1547.4 704.542,1547.66 708.746,1547.87 713.017,1548.01 717.351,1548.1 "/>
     <polygon id="_337062168" class="fil1" points="1466.93,806.845 2602.81,1942.73 2718.17,2436.46 1582.28,1300.58 "/>
     <polygon id="_337062576" class="fil1" points="1582.28,1300.58 2718.17,2436.46 2718.38,2437.4 2718.57,2438.33 2718.76,2439.26 2718.93,2440.19 2719.08,2441.11 2719.22,2442.03 2719.35,2442.94 2719.46,2443.86 2719.56,2444.77 2719.65,2445.67 2719.72,2446.57 2719.78,2447.47 2719.82,2448.37 2719.86,2449.26 2719.88,2450.15 2719.88,2451.03 1584,1315.15 1583.99,1314.26 1583.97,1313.38 1583.94,1312.49 1583.9,1311.59 1583.84,1310.69 1583.76,1309.79 1583.68,1308.88 1583.58,1307.98 1583.47,1307.06 1583.34,1306.15 1583.2,1305.23 1583.04,1304.3 1582.88,1303.38 1582.69,1302.45 1582.5,1301.52 "/>
     <polygon id="_337062360" class="fil1" points="1584,1315.15 2719.88,2451.03 2719.86,2452.62 2719.8,2454.21 2719.7,2455.78 2719.57,2457.35 2719.39,2458.9 2719.18,2460.44 2718.94,2461.98 2718.65,2463.5 2718.34,2465.01 2717.98,2466.5 2717.59,2467.98 2717.17,2469.46 2716.72,2470.91 2716.24,2472.36 2715.72,2473.78 2715.17,2475.2 2714.59,2476.6 2713.98,2477.98 2713.34,2479.35 2712.67,2480.7 2711.98,2482.04 2711.25,2483.36 2710.5,2484.66 2709.73,2485.95 2708.92,2487.22 2708.1,2488.47 2707.24,2489.7 2706.37,2490.91 2705.47,2492.11 2704.54,2493.28 2703.59,2494.43 2702.63,2495.57 1566.75,1359.68 1567.71,1358.55 1568.66,1357.4 1569.58,1356.22 1570.48,1355.03 1571.36,1353.82 1572.21,1352.59 1573.04,1351.34 1573.85,1350.07 1574.62,1348.78 1575.37,1347.48 1576.1,1346.16 1576.79,1344.82 1577.46,1343.47 1578.1,1342.1 1578.71,1340.72 1579.29,1339.32 1579.84,1337.9 1580.35,1336.47 1580.84,1335.03 1581.29,1333.57 1581.71,1332.1 1582.1,1330.62 1582.45,1329.12 1582.77,1327.62 1583.06,1326.09 1583.3,1324.56 1583.51,1323.02 1583.69,1321.47 1583.82,1319.9 1583.92,1318.33 1583.98,1316.74 "/>
     <polygon id="_337062600" class="fil1" points="1566.75,1359.68 2702.63,2495.57 2701.67,2496.65 2700.69,2497.71 2699.69,2498.75 2698.67,2499.77 2697.63,2500.77 2696.57,2501.75 2695.49,2502.71 2694.4,2503.65 2693.29,2504.57 2692.16,2505.47 2691.01,2506.34 2689.85,2507.2 2688.68,2508.03 2687.49,2508.83 2686.28,2509.62 2685.07,2510.38 2683.84,2511.11 2682.6,2511.82 2681.35,2512.51 2680.09,2513.17 2678.81,2513.81 2677.53,2514.42 2676.24,2515 2674.94,2515.56 2673.63,2516.09 2672.32,2516.59 2670.99,2517.06 2669.67,2517.51 2668.33,2517.93 2666.99,2518.32 2665.65,2518.67 2664.3,2519.01 1528.42,1383.12 1529.77,1382.79 1531.11,1382.43 1532.45,1382.04 1533.78,1381.63 1535.11,1381.18 1536.43,1380.71 1537.75,1380.2 1539.06,1379.67 1540.36,1379.12 1541.65,1378.53 1542.93,1377.92 1544.21,1377.29 1545.47,1376.63 1546.72,1375.94 1547.96,1375.23 1549.19,1374.5 1550.4,1373.74 1551.61,1372.95 1552.8,1372.14 1553.97,1371.32 1555.13,1370.46 1556.27,1369.59 1557.4,1368.69 1558.52,1367.77 1559.61,1366.83 1560.69,1365.87 1561.75,1364.89 1562.79,1363.89 1563.81,1362.86 1564.81,1361.82 1565.79,1360.76 "/>
     <polygon id="_337062624" class="fil1" points="1249.99,508.357 2385.87,1644.24 2387.22,1646.04 2388.38,1647.96 2389.37,1650 2390.15,1652.14 2390.73,1654.38 2391.08,1656.7 2391.2,1659.08 1255.32,523.199 1255.2,520.813 1254.85,518.497 1254.27,516.261 1253.48,514.117 1252.5,512.078 1251.33,510.154 "/>
    </g>
    <path id="_451253000" class="fil1" d="M807.099 1500.67l0 24.1264c0,12.887 -38.2158,23.3339 -85.3548,23.3339 -47.139,0 -85.356,-10.4469 -85.356,-23.3339l0 -24.1264 0 -3.63544c0,-12.887 38.217,-23.3339 85.356,-23.3339 47.139,0 85.3548,10.4469 85.3548,23.3339l0 3.63544zm604.513 0l0 24.1264c0,12.887 -38.217,23.3339 -85.356,23.3339 -47.139,0 -85.3548,-10.4469 -85.3548,-23.3339l0 -24.1264 0 -3.63544c0,-12.887 38.2158,-23.3339 85.3548,-23.3339 47.139,0 85.356,10.4469 85.356,23.3339l0 3.63544zm-156.293 -977.475l0 131.763 0 50.1296 0 28.1044 143.684 0c19.1516,0 33.9721,8.74489 45.3567,22.7374 10.989,13.5071 18.124,31.8579 22.5744,50.9115l115.35 493.737c1.16811,4.99489 1.71614,9.86457 1.71614,14.5665 0,17.0516 -6.81497,32.5524 -17.2536,44.537 -10.1126,11.6067 -23.9351,20.0752 -38.3268,23.4378 -4.70906,1.09961 -9.43111,1.67953 -14.0658,1.67953l-39.3591 0 -3.35906 -17.1508c-2.38701,-12.1819 -12.7665,-21.1618 -28.2213,-25.5579 -8.59489,-2.44488 -19.8059,-3.95906 -32.0953,-3.95906l-774.637 0c-12.2894,0 -23.5016,1.51417 -32.0977,3.95906 -15.4536,4.39489 -25.8331,13.3748 -28.2189,25.5579l-3.35906 17.1508 -39.3603 0c-4.63465,0 -9.3567,-0.579922 -14.0646,-1.67953 -14.3894,-3.3626 -28.213,-11.8299 -38.3256,-23.4378 -10.4386,-11.9823 -17.2559,-27.4843 -17.2559,-44.537 0,-4.70315 0.548032,-9.57166 1.71614,-14.5665l115.35 -493.737c4.45276,-19.0583 11.5878,-37.4079 22.5744,-50.9126 11.3835,-13.9937 26.2051,-22.7362 45.3567,-22.7362l143.684 0 0 -28.1044 0 -50.1296 0 -131.763c0,-12.8858 10.4469,-23.3339 23.3339,-23.3339l85.5556 0c12.887,0 23.3339,10.448 23.3339,23.3339l0 131.763 0 50.1296 0 28.1044 198.191 0 -0.0011811 -28.1044 0 -50.1296 0.0011811 -131.763c0,-12.8858 10.4469,-23.3339 23.3339,-23.3339l85.5556 0c12.887,0 23.3339,10.448 23.3339,23.3339z"/>
   </g>
  </g>
  <path class="fil2" d="M1024 -0.0011811c565.539,0 1024,458.462 1024,1024 0,565.539 -458.462,1024 -1024,1024 -565.539,0 -1024,-458.462 -1024,-1024 0,-565.539 458.462,-1024 1024,-1024z"/>
  <path class="fil3" d="M1146.43 499.865l85.5556 0c12.887,0 23.3339,10.448 23.3339,23.3339l0 211.729 -132.223 0 0 -211.729c0,-12.8858 10.4469,-23.3339 23.3339,-23.3339z"/>
  <path class="fil3" d="M816.015 499.865l85.5556 0c12.887,0 23.3339,10.448 23.3339,23.3339l0 211.729 -132.223 0 0 -211.729c0,-12.8858 10.4469,-23.3339 23.3339,-23.3339z"/>
  <polygon class="fil4" points="924.904,654.962 924.904,705.091 792.681,705.091 792.681,654.962 "/>
  <polygon class="fil4" points="1255.32,654.962 1255.32,705.091 1123.09,705.091 1123.09,654.962 "/>
  <path class="fil5" d="M636.388 1524.8c0,12.887 38.217,23.3339 85.356,23.3339 47.1378,0 85.3548,-10.4469 85.3548,-23.3339l0 -27.7618c0,-12.887 -38.217,-23.3339 -85.3548,-23.3339 -47.139,0 -85.356,10.4469 -85.356,23.3339l0 27.7618z"/>
  <path class="fil5" d="M1240.9 1524.8c0,12.887 38.217,23.3339 85.3548,23.3339 47.139,0 85.356,-10.4469 85.356,-23.3339l0 -27.7618c0,-12.887 -38.217,-23.3339 -85.356,-23.3339 -47.1378,0 -85.3548,10.4469 -85.3548,23.3339l0 27.7618z"/>
  <path class="fil6" d="M636.682 1338.13l774.637 0c12.2894,0 23.5004,1.51417 32.0953,3.95906 15.4547,4.39607 25.8343,13.376 28.2213,25.5579l18.5209 94.5579 0.0236221 -0.00472441c0.18189,0.93189 0.304725,1.86024 0.373229,2.78268 0.0767717,0.768898 0.114567,1.51299 0.114567,2.23229 0,11.4236 -6.27166,19.9193 -17.1898,25.4457 -4.71615,2.38701 -10.7138,4.30512 -17.3894,5.61142 -7.69725,1.50827 -16.8449,2.39764 -26.2453,2.39764l-811.687 0c-9.39686,0 -18.5445,-0.889371 -26.2429,-2.39646 -6.67796,-1.30748 -12.6744,-3.22559 -17.3906,-5.6126 -10.9169,-5.52756 -17.191,-14.0209 -17.191,-25.4457 0,-1.52244 0.170079,-3.16063 0.509056,-4.90394l22.8768 4.37481 -22.9051 -4.44803c0.0696851,-0.359055 0.148819,-0.714567 0.233858,-1.06772l18.3189 -93.5233c2.38583,-12.1831 12.7654,-21.163 28.2189,-25.5579 8.59607,-2.44488 19.8083,-3.95906 32.0977,-3.95906z"/>
  <path class="fil7" d="M648.997 733.196l750.005 0c19.1516,0 33.9721,8.74489 45.3567,22.7374 10.989,13.5071 18.124,31.8579 22.5744,50.9115l115.35 493.737c1.16811,4.99489 1.71614,9.86457 1.71614,14.5665 0,17.0516 -6.81497,32.5524 -17.2536,44.537 -10.1126,11.6067 -23.9351,20.0752 -38.3268,23.4378 -4.70906,1.09961 -9.43111,1.67953 -14.0658,1.67953l-980.708 0c-4.63465,0 -9.3567,-0.579922 -14.0646,-1.67953 -14.3894,-3.3626 -28.213,-11.8299 -38.3256,-23.4378 -10.4386,-11.9823 -17.2559,-27.4843 -17.2559,-44.537 0,-4.70315 0.548032,-9.57166 1.71614,-14.5665l115.35 -493.737c4.45276,-19.0583 11.5878,-37.4079 22.5744,-50.9126 11.3835,-13.9937 26.2051,-22.7362 45.3567,-22.7362z"/>
  <rect class="fil8 str0" x="1010.74" y="909.747" width="26.5228" height="298.503"/>
  <path class="fil9" d="M979.566 1006.87l88.8686 0 0 41.2252c0,7.71851 -6.31536,14.0327 -14.0327,14.0327l-60.8032 0c-7.71733,0 -14.0327,-6.31418 -14.0327,-14.0327l0 -41.2252z"/>
  <path class="fil10" d="M979.566 1006.87l88.8686 0 0 26.987c0,5.05276 -4.13504,9.18662 -9.1878,9.18662l-70.493 0c-5.05276,0 -9.1878,-4.13386 -9.1878,-9.18662l0 -26.987z"/>
  <path class="fil11" d="M678.487 1160.25c-2.45669,-16.428 1.66299,-32.9693 11.5429,-46.3241 9.87993,-13.3547 24.4925,-22.1327 40.9205,-24.5882 16.428,-2.45788 32.9705,1.66181 46.3252,11.5417 13.3547,9.87993 22.1339,24.4925 24.5894,40.9205 2.45788,16.4291 -1.66299,32.9705 -11.5429,46.3241 -9.87993,13.3547 -24.4914,22.1339 -40.9217,24.5894 -16.428,2.45788 -32.9693,-1.66181 -46.3241,-11.5429 -13.3547,-9.87993 -22.1339,-24.4925 -24.5894,-40.9205z"/>
  <path class="fil12" d="M695.308 1157.73c1.78819,11.9681 8.15434,22.565 17.8843,29.7626 9.72993,7.19882 21.7252,10.187 33.6933,8.39646 11.9693,-1.78937 22.5638,-8.15552 29.7626,-17.8854 7.19764,-9.72875 10.1858,-21.724 8.39528,-33.6922 -1.78819,-11.9681 -8.15434,-22.5638 -17.8843,-29.7626 -9.72993,-7.19882 -21.7264,-10.1847 -33.6933,-8.3941 -11.9681,1.78819 -22.5638,8.15316 -29.7626,17.8831 -7.19764,9.72993 -10.1858,21.7252 -8.39528,33.6922z"/>
  <path class="fil13" d="M710.809 1185.69c0.785434,0.608268 1.58032,1.21063 2.38347,1.80473 0.80315,0.595276 1.61221,1.17874 2.42362,1.75158l15.9083 -21.502 -4.80709 -3.5563 -15.9083 21.502z"/>
  <path class="fil11" d="M735.386 921.285c16.5626,-1.27677 32.7662,4.01457 45.3803,14.8252 12.6142,10.8095 20.3256,26.0103 21.6,42.5729 1.27677,16.5626 -4.01457,32.7673 -14.824,45.3815 -10.8095,12.6142 -26.0126,20.3256 -42.574,21.6012 -16.5626,1.27677 -32.7662,-4.01575 -45.3803,-14.8264 -12.6142,-10.8095 -20.3256,-26.0103 -21.6012,-42.574 -1.27677,-16.5614 4.01575,-32.7662 14.8252,-45.3803 10.8095,-12.6142 26.0126,-20.3256 42.574,-21.6z"/>
  <path class="fil12" d="M736.692 938.242c-12.065,0.928347 -23.0894,6.52087 -30.965,15.711 -7.8756,9.19016 -11.713,20.941 -10.7823,33.0059 0.928347,12.0673 6.51969,23.0906 15.711,30.965 9.19016,7.8756 20.941,11.7142 33.0059,10.7835 12.065,-0.928347 23.0894,-6.52087 30.965,-15.711 7.8756,-9.19016 11.7118,-20.9421 10.7823,-33.0071 -0.928347,-12.065 -6.51969,-23.0882 -15.7099,-30.9638 -9.19016,-7.8756 -20.9421,-11.7142 -33.0071,-10.7835z"/>
  <path class="fil13" d="M707.698 951.706c-0.66378,0.739371 -1.32047,1.48819 -1.97126,2.24764 -0.650788,0.759449 -1.28976,1.52362 -1.91929,2.29252l20.3091 17.4036 3.89055 -4.54016 -20.3091 -17.4036z"/>
 </g>
</svg>
