<?xml version="1.0" encoding="UTF-8"?>
<!DOCTYPE svg PUBLIC "-//W3C//DTD SVG 1.1//EN" "http://www.w3.org/Graphics/SVG/1.1/DTD/svg11.dtd">
<!-- Creator: CorelDRAW -->
<svg xmlns="http://www.w3.org/2000/svg" xml:space="preserve" width="2048px" height="2048px" style="shape-rendering:geometricPrecision; text-rendering:geometricPrecision; image-rendering:optimizeQuality; fill-rule:evenodd; clip-rule:evenodd"
viewBox="0 0 2048 2048"
 xmlns:xlink="http://www.w3.org/1999/xlink">
 <defs>
  <style type="text/css">
   <![CDATA[
    .fil2 {fill:none}
    .fil1 {fill:#BDBDBD}
    .fil10 {fill:#DD2C00}
    .fil0 {fill:#E0E0E0}
    .fil7 {fill:#E65100}
    .fil6 {fill:#EF6C00}
    .fil9 {fill:#FF3D00}
    .fil4 {fill:#CFCFCE;fill-rule:nonzero}
    .fil8 {fill:#DD2C00;fill-rule:nonzero}
    .fil5 {fill:#E65100;fill-rule:nonzero}
    .fil3 {fill:#FFFFFE;fill-rule:nonzero}
   ]]>
  </style>
   <clipPath id="id0">
    <path d="M1024 -0.0011811c565.539,0 1024,458.462 1024,1024 0,565.539 -458.462,1024 -1024,1024 -565.539,0 -1024,-458.462 -1024,-1024 0,-565.539 458.462,-1024 1024,-1024z"/>
   </clipPath>
 </defs>
 <g id="Layer_x0020_1">
  <metadata id="CorelCorpID_0Corel-Layer"/>
  <path class="fil0" d="M1024 -0.0011811c565.539,0 1024,458.462 1024,1024 0,565.539 -458.462,1024 -1024,1024 -565.539,0 -1024,-458.462 -1024,-1024 0,-565.539 458.462,-1024 1024,-1024z"/>
  <g style="clip-path:url(#id0)">
   <g id="_451240280">
    <g>
     <polygon id="_3326016481" class="fil1" points="767.255,473.321 1903.14,1609.2 1905.19,1611.46 1907.02,1613.91 1908.62,1616.54 1909.96,1619.32 1911.03,1622.24 1911.81,1625.29 1912.29,1628.45 1912.46,1631.71 776.578,495.826 776.414,492.572 775.932,489.411 775.146,486.362 774.076,483.437 772.737,480.656 771.142,478.031 769.309,475.581 "/>
     <polygon id="_332601192" class="fil1" points="776.578,495.826 1912.46,1631.71 1903.69,1681.86 767.812,545.973 "/>
     <polygon id="_332602272" class="fil1" points="767.812,545.973 1903.69,1681.86 1903.69,2520.51 767.812,1384.63 "/>
     <polygon id="_332601816" class="fil1" points="1326.31,545.973 2462.19,1681.86 2462.19,2520.51 1326.31,1384.63 "/>
     <polygon id="_332602392" class="fil1" points="1542.41,1474.71 2678.3,2610.59 2663.22,2610.59 1527.33,1474.71 "/>
     <polygon id="_332602536" class="fil1" points="1527.33,1474.71 2663.22,2610.59 2663.05,2610.93 2662.88,2611.26 2662.68,2611.58 2662.47,2611.9 2662.25,2612.21 2662.01,2612.51 2661.75,2612.81 2661.48,2613.09 1525.6,1477.21 1525.87,1476.92 1526.13,1476.63 1526.37,1476.33 1526.59,1476.02 1526.8,1475.7 1527,1475.38 1527.17,1475.04 "/>
     <polygon id="_332602992" class="fil1" points="1525.6,1477.21 2661.48,2613.09 2661.08,2613.53 2660.75,2613.96 2660.49,2614.39 2660.31,2614.82 2660.2,2615.25 2660.16,2615.68 2660.18,2616.13 2660.27,2616.59 1524.39,1480.71 1524.3,1480.25 1524.28,1479.8 1524.32,1479.36 1524.43,1478.93 1524.61,1478.51 1524.87,1478.08 1525.2,1477.65 "/>
     <polygon id="_332603040" class="fil1" points="1524.39,1480.71 2660.27,2616.59 2660.46,2617.22 2660.7,2617.89 2660.98,2618.59 2661.31,2619.32 2661.69,2620.09 2662.12,2620.9 2662.59,2621.74 2663.1,2622.62 2663.66,2623.54 2664.27,2624.49 2664.92,2625.49 2665.61,2626.52 2666.34,2627.59 2667.11,2628.71 2667.92,2629.86 2668.78,2631.06 1532.9,1495.18 1532.04,1493.98 1531.23,1492.82 1530.46,1491.71 1529.72,1490.64 1529.04,1489.6 1528.39,1488.61 1527.78,1487.65 1527.22,1486.74 1526.71,1485.86 1526.24,1485.02 1525.81,1484.21 1525.43,1483.44 1525.1,1482.71 1524.81,1482.01 1524.58,1481.34 "/>
     <polygon id="_332602632" class="fil1" points="1507.5,1474.71 2643.38,2610.59 2634.92,2610.59 1499.04,1474.71 "/>
     <polygon id="_332602656" class="fil1" points="1479.03,1474.71 2614.91,2610.59 2597.09,2610.59 1461.21,1474.71 "/>
     <polygon id="_332602584" class="fil1" points="1461.21,1474.71 2597.09,2610.59 2597.45,2611.88 2597.69,2613.19 2597.84,2614.54 2597.88,2615.91 2597.82,2617.32 2597.65,2618.76 2597.39,2620.24 2597.03,2621.77 1461.15,1485.88 1461.51,1484.36 1461.77,1482.88 1461.93,1481.44 1462,1480.03 1461.96,1478.66 1461.81,1477.31 1461.57,1476 "/>
     <polygon id="_332603088" class="fil1" points="1488.31,1505.42 2624.19,2641.3 2623.77,2642.1 2623.59,2642.85 2623.63,2643.58 2623.85,2644.29 2624.22,2644.99 2624.7,2645.69 2625.27,2646.39 2625.89,2647.1 1490.01,1511.22 1489.39,1510.51 1488.82,1509.8 1488.34,1509.11 1487.97,1508.41 1487.75,1507.7 1487.71,1506.97 1487.89,1506.21 "/>
     <polygon id="_332602704" class="fil1" points="1441.29,1474.71 2577.18,2610.59 2554.7,2610.59 1418.82,1474.71 "/>
     <polygon id="_332603304" class="fil1" points="1499.04,1474.71 2634.92,2610.59 2635.23,2611.8 2635.45,2613.03 2635.57,2614.29 2635.61,2615.58 2635.56,2616.9 2635.42,2618.25 2635.2,2619.64 2634.89,2621.06 1499.01,1485.18 1499.32,1483.76 1499.54,1482.37 1499.68,1481.02 1499.73,1479.7 1499.69,1478.41 1499.56,1477.15 1499.35,1475.92 "/>
     <polygon id="_332603256" class="fil1" points="1499.01,1485.18 2634.89,2621.06 2634.61,2622.14 2634.27,2623.24 2633.87,2624.35 2633.43,2625.48 2632.93,2626.63 2632.38,2627.81 2631.78,2629.01 2631.13,2630.24 2630.44,2631.5 2629.69,2632.79 2628.89,2634.12 2628.04,2635.47 2627.15,2636.87 2626.21,2638.31 2625.22,2639.78 2624.19,2641.3 1488.31,1505.42 1489.34,1503.9 1490.33,1502.42 1491.27,1500.99 1492.16,1499.59 1493.01,1498.23 1493.81,1496.91 1494.55,1495.62 1495.25,1494.36 1495.9,1493.13 1496.5,1491.93 1497.05,1490.75 1497.55,1489.6 1497.99,1488.47 1498.39,1487.36 1498.73,1486.26 "/>
     <polygon id="_332602848" class="fil1" points="1530.51,1521.9 2666.39,2657.79 2665.57,2658.78 2664.75,2659.81 2664,2660.87 2663.34,2661.98 2662.81,2663.14 2662.46,2664.35 2662.32,2665.61 2662.43,2666.95 1526.55,1531.07 1526.44,1529.73 1526.58,1528.46 1526.93,1527.25 1527.46,1526.1 1528.12,1524.99 1528.87,1523.93 1529.68,1522.9 "/>
     <polygon id="_332603280" class="fil1" points="1461.15,1485.88 2597.03,2621.77 2596.72,2622.85 2596.36,2623.95 2595.94,2625.06 2595.47,2626.19 2594.95,2627.34 2594.38,2628.51 2593.75,2629.7 2593.08,2630.92 2592.35,2632.16 2591.58,2633.44 2590.76,2634.74 2589.89,2636.08 2588.97,2637.46 2588,2638.87 2586.99,2640.32 2585.93,2641.82 1450.05,1505.93 1451.11,1504.44 1452.12,1502.99 1453.09,1501.58 1454.01,1500.2 1454.88,1498.86 1455.7,1497.56 1456.47,1496.28 1457.2,1495.03 1457.87,1493.82 1458.49,1492.62 1459.07,1491.45 1459.59,1490.31 1460.06,1489.18 1460.48,1488.06 1460.84,1486.97 "/>
     <polygon id="_332603544" class="fil1" points="1395.53,1474.71 2531.41,2610.59 2509.59,2610.59 1373.71,1474.71 "/>
     <polygon id="_332603568" class="fil1" points="1398.77,1479.34 2534.65,2615.22 2534.06,2614.76 2533.52,2614.25 1397.64,1478.37 1398.18,1478.87 "/>
     <polygon id="_332603856" class="fil1" points="1401.07,1481.24 2536.95,2617.12 2535.9,2616.19 2534.65,2615.22 1398.77,1479.34 1400.02,1480.31 "/>
     <polygon id="_332603976" class="fil1" points="1418.82,1474.71 2554.7,2610.59 2555.96,2612.42 2556.95,2614.2 2557.69,2615.95 2558.18,2617.67 2558.45,2619.35 2558.52,2621.02 2558.4,2622.66 2558.1,2624.3 2557.65,2625.93 2557.07,2627.55 2556.36,2629.17 2555.55,2630.81 2554.65,2632.45 2553.68,2634.11 2552.66,2635.79 2551.6,2637.5 1415.72,1501.62 1416.77,1499.91 1417.8,1498.23 1418.77,1496.57 1419.67,1494.92 1420.48,1493.29 1421.19,1491.67 1421.77,1490.04 1422.22,1488.42 1422.52,1486.78 1422.64,1485.13 1422.57,1483.47 1422.3,1481.78 1421.81,1480.07 1421.07,1478.32 1420.08,1476.53 "/>
     <polygon id="_332604000" class="fil1" points="1373.71,1474.71 2509.59,2610.59 2509.45,2611.15 2509.26,2611.71 2509.03,2612.26 2508.77,2612.79 2508.46,2613.3 2508.12,2613.8 2507.73,2614.28 2507.31,2614.74 1371.43,1478.85 1371.85,1478.4 1372.24,1477.92 1372.58,1477.42 1372.88,1476.9 1373.15,1476.37 1373.38,1475.83 1373.56,1475.27 "/>
     <polygon id="_332603592" class="fil1" points="1415.72,1501.62 2551.6,2637.5 2550.8,2638.8 2550,2640.11 2549.23,2641.46 2548.51,2642.82 2547.86,2644.2 2547.3,2645.6 2546.85,2647.01 2546.55,2648.43 1410.67,1512.55 1410.97,1511.13 1411.42,1509.72 1411.98,1508.32 1412.63,1506.94 1413.35,1505.57 1414.12,1504.23 1414.92,1502.91 "/>
     <polygon id="_332603784" class="fil1" points="1526.55,1531.07 2662.43,2666.95 2662.77,2668.37 2663.24,2669.78 2663.83,2671.17 2664.51,2672.54 2665.25,2673.89 2666.05,2675.21 2666.86,2676.5 2667.68,2677.77 1531.8,1541.88 1530.98,1540.62 1530.16,1539.32 1529.37,1538 1528.63,1536.66 1527.95,1535.29 1527.36,1533.9 1526.89,1532.49 "/>
     <polygon id="_332603472" class="fil1" points="1532.9,1495.18 2668.78,2631.06 2670.34,2633.41 2671.58,2635.61 2672.51,2637.69 2673.17,2639.65 2673.56,2641.49 2673.71,2643.25 2673.64,2644.91 2673.37,2646.5 2672.91,2648.03 2672.3,2649.5 2671.55,2650.92 2670.67,2652.32 2669.7,2653.69 2668.65,2655.05 2667.54,2656.41 2666.39,2657.79 1530.51,1521.9 1531.66,1520.53 1532.77,1519.17 1533.82,1517.81 1534.79,1516.44 1535.66,1515.04 1536.42,1513.62 1537.03,1512.15 1537.48,1510.62 1537.76,1509.03 1537.83,1507.37 1537.68,1505.61 1537.29,1503.76 1536.63,1501.81 1535.7,1499.73 1534.46,1497.53 "/>
     <polygon id="_332603712" class="fil1" points="1490.01,1511.22 2625.89,2647.1 2626.79,2648.13 2627.69,2649.18 2628.58,2650.26 2629.45,2651.38 2630.28,2652.53 2631.07,2653.74 2631.81,2655.01 2632.47,2656.34 2633.07,2657.74 2633.57,2659.22 2633.97,2660.78 2634.26,2662.44 2634.42,2664.2 2634.46,2666.07 2634.34,2668.06 2634.07,2670.17 1498.19,1534.28 1498.46,1532.18 1498.57,1530.19 1498.54,1528.32 1498.38,1526.56 1498.09,1524.9 1497.69,1523.33 1497.18,1521.85 1496.59,1520.45 1495.93,1519.12 1495.19,1517.86 1494.4,1516.65 1493.57,1515.49 1492.7,1514.38 1491.81,1513.3 1490.91,1512.25 "/>
     <polygon id="_332603352" class="fil1" points="1450.05,1505.93 2585.93,2641.82 2585.49,2642.59 2585.3,2643.34 2585.33,2644.07 2585.54,2644.78 2585.89,2645.49 2586.36,2646.2 2586.92,2646.92 2587.53,2647.65 1451.65,1511.76 1451.04,1511.03 1450.48,1510.32 1450.01,1509.61 1449.65,1508.9 1449.45,1508.19 1449.42,1507.46 1449.61,1506.71 "/>
     <polygon id="_332604744" class="fil1" points="1451.65,1511.76 2587.53,2647.65 2588.4,2648.69 2589.28,2649.76 2590.14,2650.85 2590.99,2651.98 2591.79,2653.15 2592.56,2654.37 2593.26,2655.65 2593.9,2656.99 2594.46,2658.4 2594.93,2659.89 2595.3,2661.46 2595.55,2663.13 2595.68,2664.89 2595.67,2666.76 2595.52,2668.74 2595.2,2670.84 1459.32,1534.95 1459.63,1532.85 1459.79,1530.87 1459.8,1529.01 1459.67,1527.24 1459.41,1525.58 1459.05,1524.01 1458.58,1522.52 1458.02,1521.11 1457.38,1519.77 1456.67,1518.49 1455.91,1517.27 1455.1,1516.1 1454.26,1514.97 1453.4,1513.88 1452.52,1512.81 "/>
     <polygon id="_332604864" class="fil1" points="1459.32,1534.95 2595.2,2670.84 2594.93,2672.15 2594.62,2673.41 2594.27,2674.64 2593.88,2675.82 2593.45,2676.97 2592.99,2678.09 2592.5,2679.18 2591.99,2680.23 2591.46,2681.26 2590.91,2682.26 2590.34,2683.24 2589.77,2684.2 2589.19,2685.14 2588.61,2686.06 2588.02,2686.97 2587.44,2687.86 1451.56,1551.98 1452.14,1551.08 1452.72,1550.18 1453.31,1549.25 1453.89,1548.32 1454.46,1547.36 1455.03,1546.38 1455.58,1545.38 1456.11,1544.35 1456.62,1543.29 1457.11,1542.21 1457.57,1541.09 1457.99,1539.94 1458.39,1538.75 1458.74,1537.53 1459.05,1536.26 "/>
     <polygon id="_332604144" class="fil1" points="1410.67,1512.55 2546.55,2648.43 2546.46,2649.76 2546.63,2651.03 2547,2652.22 2547.55,2653.36 2548.23,2654.45 2549,2655.5 2549.83,2656.5 2550.68,2657.47 1414.8,1521.59 1413.95,1520.62 1413.12,1519.61 1412.35,1518.57 1411.67,1517.48 1411.12,1516.34 1410.75,1515.14 1410.58,1513.88 "/>
     <polygon id="_332604528" class="fil1" points="1371.43,1478.85 2507.31,2614.74 2506.91,2615.17 2506.58,2615.6 2506.32,2616.03 2506.14,2616.46 2506.03,2616.89 2505.98,2617.33 2506.01,2617.77 2506.1,2618.23 1370.22,1482.35 1370.13,1481.89 1370.1,1481.44 1370.15,1481.01 1370.26,1480.58 1370.44,1480.15 1370.7,1479.72 1371.02,1479.29 "/>
     <polygon id="_332604120" class="fil1" points="1353.85,1474.71 2489.73,2610.59 2470.32,2610.59 1334.44,1474.71 "/>
     <polygon id="_332604312" class="fil1" points="1332.08,1479.26 2467.96,2615.15 2467.55,2615.58 2467.22,2616.02 2466.97,2616.44 2466.78,2616.87 2466.67,2617.3 2466.63,2617.74 2466.65,2618.18 2466.74,2618.64 1330.86,1482.76 1330.77,1482.3 1330.75,1481.86 1330.79,1481.42 1330.9,1480.99 1331.09,1480.56 1331.34,1480.13 1331.67,1479.7 "/>
     <polygon id="_332604360" class="fil1" points="1498.19,1534.28 2634.07,2670.17 2633.83,2671.49 2633.54,2672.77 2633.22,2674 2632.85,2675.2 2632.45,2676.36 2632.01,2677.49 2631.55,2678.59 2631.06,2679.65 2630.55,2680.69 2630.03,2681.7 2629.49,2682.69 2628.93,2683.65 2628.38,2684.6 2627.81,2685.53 2627.25,2686.44 2626.69,2687.34 1490.81,1551.46 1491.37,1550.56 1491.93,1549.65 1492.49,1548.72 1493.05,1547.77 1493.6,1546.8 1494.15,1545.82 1494.67,1544.81 1495.18,1543.77 1495.67,1542.7 1496.13,1541.61 1496.56,1540.48 1496.97,1539.32 1497.34,1538.12 1497.66,1536.88 1497.95,1535.61 "/>
     <polygon id="_332604456" class="fil1" points="1490.81,1551.46 2626.69,2687.34 2626.18,2688.17 2625.7,2688.97 2625.25,2689.77 2624.86,2690.55 2624.53,2691.33 2624.28,2692.11 2624.12,2692.89 2624.07,2693.68 2624.13,2694.48 2624.33,2695.29 2624.67,2696.11 2625.16,2696.96 2625.83,2697.84 2626.68,2698.74 1490.79,1562.85 1489.95,1561.95 1489.28,1561.08 1488.78,1560.23 1488.45,1559.4 1488.25,1558.59 1488.19,1557.8 1488.24,1557.01 1488.4,1556.23 1488.65,1555.45 1488.98,1554.67 1489.37,1553.88 1489.82,1553.09 1490.3,1552.28 "/>
     <polygon id="_332604648" class="fil1" points="1483.01,1578.59 2618.89,2714.47 2615.4,2711.78 2612.48,2709.21 1476.6,1573.33 1479.52,1575.9 "/>
     <polygon id="_332604696" class="fil1" points="1370.22,1482.35 2506.1,2618.23 2506.29,2618.87 2506.52,2619.53 2506.81,2620.23 2507.14,2620.97 2507.52,2621.74 2507.95,2622.54 2508.42,2623.39 2508.93,2624.26 2509.49,2625.18 2510.1,2626.14 2510.74,2627.13 2511.43,2628.16 2512.17,2629.24 2512.94,2630.35 2513.75,2631.51 2514.6,2632.71 1378.72,1496.83 1377.87,1495.63 1377.06,1494.47 1376.28,1493.36 1375.55,1492.28 1374.86,1491.25 1374.22,1490.25 1373.61,1489.3 1373.05,1488.38 1372.54,1487.5 1372.06,1486.66 1371.64,1485.86 1371.26,1485.09 1370.93,1484.35 1370.64,1483.65 1370.41,1482.98 "/>
     <polygon id="_332604192" class="fil1" points="1334.44,1474.71 2470.32,2610.59 2470.19,2611.21 2470.01,2611.82 2469.78,2612.42 2469.51,2613.01 2469.19,2613.58 2468.83,2614.12 2468.42,2614.65 2467.96,2615.15 1332.08,1479.26 1332.53,1478.77 1332.95,1478.24 1333.31,1477.69 1333.63,1477.13 1333.9,1476.54 1334.13,1475.94 1334.31,1475.33 "/>
     <polygon id="_332607384" class="fil1" points="1378.72,1496.83 2514.6,2632.71 2516.17,2635.05 2517.4,2637.26 2518.34,2639.33 2518.99,2641.29 2519.39,2643.14 2519.54,2644.89 2519.46,2646.56 2519.19,2648.15 2518.74,2649.67 2518.13,2651.14 2517.37,2652.57 2516.5,2653.97 2515.53,2655.34 2514.48,2656.7 2513.37,2658.06 2512.22,2659.43 1376.34,1523.55 1377.49,1522.18 1378.6,1520.82 1379.65,1519.46 1380.62,1518.08 1381.49,1516.69 1382.25,1515.26 1382.86,1513.79 1383.31,1512.27 1383.58,1510.67 1383.66,1509.01 1383.51,1507.26 1383.11,1505.41 1382.46,1503.45 1381.52,1501.38 1380.29,1499.17 "/>
     <polygon id="_332615040" class="fil1" points="1330.86,1482.76 2466.74,2618.64 2466.93,2619.28 2467.17,2619.94 2467.45,2620.64 2467.79,2621.38 2468.16,2622.15 2468.59,2622.95 2469.06,2623.79 2469.58,2624.67 2470.14,2625.59 2470.74,2626.55 2471.39,2627.54 2472.08,2628.57 2472.81,2629.65 2473.58,2630.76 2474.4,2631.92 2475.25,2633.12 1339.37,1497.24 1338.52,1496.04 1337.7,1494.88 1336.93,1493.77 1336.2,1492.69 1335.51,1491.66 1334.86,1490.66 1334.26,1489.71 1333.7,1488.79 1333.18,1487.91 1332.71,1487.07 1332.28,1486.27 1331.9,1485.5 1331.57,1484.76 1331.29,1484.06 1331.05,1483.39 "/>
     <polygon id="_333766200" class="fil1" points="1314.65,1474.71 2450.54,2610.59 2430.33,2610.59 1294.45,1474.71 "/>
     <polygon id="_333765672" class="fil1" points="1292.72,1477.21 2428.6,2613.09 2428.2,2613.53 2427.87,2613.96 2427.61,2614.39 2427.43,2614.82 2427.32,2615.25 2427.27,2615.68 2427.3,2616.13 2427.39,2616.59 1291.51,1480.71 1291.42,1480.25 1291.39,1479.8 1291.44,1479.36 1291.55,1478.93 1291.73,1478.51 1291.99,1478.08 1292.32,1477.65 "/>
     <polygon id="_333765768" class="fil1" points="1494.4,1565.91 2630.28,2701.79 2631.29,2703.13 2632,2704.62 2632.42,2706.21 2632.52,2707.85 2632.3,2709.48 2631.76,2711.07 2630.89,2712.57 1495.01,1576.69 1495.88,1575.19 1496.42,1573.6 1496.64,1571.96 1496.54,1570.33 1496.12,1568.74 1495.41,1567.25 "/>
     <polygon id="_333765792" class="fil1" points="1531.8,1541.88 2667.68,2677.77 2669.09,2679.94 2670.43,2682.07 2671.66,2684.17 2672.75,2686.26 2673.66,2688.34 2674.36,2690.42 2674.8,2692.52 2674.97,2694.64 2674.8,2696.81 2674.28,2699.02 2673.37,2701.3 2672.02,2703.65 2670.21,2706.08 2667.89,2708.61 2665.04,2711.24 2661.61,2713.99 1525.73,1578.11 1529.16,1575.36 1532.01,1572.72 1534.33,1570.2 1536.14,1567.76 1537.49,1565.42 1538.4,1563.14 1538.92,1560.93 1539.08,1558.76 1538.92,1556.64 1538.48,1554.54 1537.78,1552.45 1536.87,1550.38 1535.78,1548.29 1534.55,1546.19 1533.21,1544.06 "/>
     <polygon id="_333765912" class="fil1" points="1525.73,1578.11 2661.61,2713.99 2660.13,2714.89 2658.54,2715.46 2656.9,2715.71 2655.26,2715.65 2653.66,2715.27 2652.15,2714.59 2650.77,2713.62 1514.89,1577.74 1516.27,1578.71 1517.78,1579.39 1519.38,1579.77 1521.02,1579.83 1522.66,1579.58 1524.25,1579.01 "/>
     <polygon id="_333765576" class="fil1" points="1495.01,1576.69 2630.89,2712.57 2629.73,2713.86 2628.38,2714.87 2626.88,2715.58 2625.28,2715.99 2623.64,2716.09 2621.99,2715.88 2620.39,2715.34 2618.89,2714.47 1483.01,1578.59 1484.51,1579.46 1486.11,1579.99 1487.76,1580.21 1489.4,1580.11 1491,1579.7 1492.5,1578.99 1493.85,1577.98 "/>
     <polygon id="_333766032" class="fil1" points="1414.8,1521.59 2550.68,2657.47 2551.85,2658.82 2552.99,2660.16 2554.07,2661.5 2555.07,2662.86 2555.98,2664.23 2556.76,2665.65 2557.41,2667.1 2557.89,2668.62 2558.2,2670.2 2558.31,2671.87 2558.2,2673.62 2557.84,2675.48 2557.23,2677.45 2556.34,2679.54 2555.15,2681.77 2553.64,2684.14 1417.76,1548.26 1419.27,1545.88 1420.46,1543.66 1421.35,1541.56 1421.96,1539.6 1422.31,1537.74 1422.43,1535.98 1422.32,1534.32 1422.01,1532.74 1421.53,1531.22 1420.88,1529.76 1420.09,1528.35 1419.19,1526.97 1418.19,1525.62 1417.11,1524.28 1415.97,1522.94 "/>
     <polygon id="_333765552" class="fil1" points="1451.56,1551.98 2587.44,2687.86 2586.91,2688.67 2586.41,2689.47 2585.95,2690.25 2585.54,2691.03 2585.2,2691.8 2584.93,2692.58 2584.76,2693.36 2584.69,2694.14 2584.74,2694.94 2584.92,2695.76 2585.24,2696.6 2585.72,2697.46 2586.37,2698.35 2587.21,2699.27 1451.33,1563.39 1450.49,1562.46 1449.84,1561.58 1449.36,1560.71 1449.04,1559.88 1448.86,1559.06 1448.81,1558.26 1448.88,1557.47 1449.05,1556.7 1449.32,1555.92 1449.66,1555.15 1450.07,1554.37 1450.53,1553.59 1451.03,1552.79 "/>
     <polygon id="_333765984" class="fil1" points="1294.45,1474.71 2430.33,2610.59 2430.17,2610.93 2429.99,2611.26 2429.8,2611.58 2429.59,2611.9 2429.37,2612.21 2429.13,2612.51 2428.87,2612.81 2428.6,2613.09 1292.72,1477.21 1292.99,1476.92 1293.25,1476.63 1293.49,1476.33 1293.71,1476.02 1293.92,1475.7 1294.11,1475.38 1294.29,1475.04 "/>
     <polygon id="_333765480" class="fil1" points="1339.37,1497.24 2475.25,2633.12 2476.81,2635.46 2478.05,2637.67 2478.99,2639.74 2479.64,2641.7 2480.03,2643.55 2480.18,2645.3 2480.11,2646.97 2479.84,2648.56 2479.38,2650.08 2478.77,2651.55 2478.02,2652.98 2477.15,2654.38 2476.17,2655.75 2475.12,2657.11 2474.01,2658.47 2472.87,2659.84 1336.99,1523.96 1338.13,1522.59 1339.24,1521.23 1340.29,1519.87 1341.26,1518.49 1342.14,1517.1 1342.89,1515.67 1343.5,1514.2 1343.96,1512.68 1344.23,1511.09 1344.3,1509.42 1344.15,1507.67 1343.76,1505.82 1343.11,1503.86 1342.17,1501.79 1340.93,1499.58 "/>
     <polygon id="_333765624" class="fil1" points="1372.38,1532.71 2508.26,2668.59 2508.6,2670.02 2509.07,2671.43 2509.66,2672.82 2510.33,2674.19 2511.08,2675.53 2511.87,2676.85 2512.69,2678.15 2513.51,2679.41 1377.63,1543.53 1376.81,1542.26 1375.99,1540.97 1375.2,1539.65 1374.45,1538.3 1373.77,1536.94 1373.19,1535.55 1372.71,1534.14 "/>
     <polygon id="_333766272" class="fil1" points="1274.62,1474.71 2410.5,2610.59 2402.04,2610.59 1266.16,1474.71 "/>
     <polygon id="_333766632" class="fil1" points="1246.14,1474.71 2382.03,2610.59 2364.21,2610.59 1228.33,1474.71 "/>
     <polygon id="_333766728" class="fil1" points="1454.87,1566.52 2590.75,2702.4 2591.73,2703.77 2592.41,2705.27 2592.79,2706.86 2592.86,2708.5 2592.6,2710.13 2592.03,2711.7 2591.12,2713.18 1455.24,1577.29 1456.15,1575.82 1456.72,1574.25 1456.97,1572.62 1456.91,1570.98 1456.53,1569.39 1455.85,1567.88 "/>
     <polygon id="_333766296" class="fil1" points="1376.34,1523.55 2512.22,2659.43 2511.39,2660.43 2510.58,2661.45 2509.83,2662.52 2509.17,2663.63 2508.64,2664.78 2508.29,2665.99 2508.15,2667.26 2508.26,2668.59 1372.38,1532.71 1372.26,1531.38 1372.41,1530.11 1372.76,1528.9 1373.28,1527.74 1373.94,1526.64 1374.7,1525.57 1375.51,1524.54 "/>
     <polygon id="_333766848" class="fil1" points="1409.57,1562.94 2545.45,2698.82 2545.37,2699.29 2545.35,2699.74 2545.4,2700.17 2545.52,2700.6 2545.7,2701.02 2545.96,2701.43 2546.28,2701.85 2546.68,2702.26 1410.8,1566.38 1410.4,1565.96 1410.07,1565.55 1409.82,1565.13 1409.63,1564.71 1409.52,1564.29 1409.47,1563.85 1409.49,1563.4 "/>
     <polygon id="_333766752" class="fil1" points="1417.76,1548.26 2553.64,2684.14 2552.82,2685.35 2552.03,2686.52 2551.29,2687.65 2550.58,2688.73 2549.91,2689.78 2549.29,2690.78 2548.71,2691.75 2548.17,2692.68 2547.67,2693.57 2547.22,2694.43 2546.81,2695.25 2546.44,2696.03 2546.13,2696.78 2545.86,2697.49 2545.63,2698.17 2545.45,2698.82 1409.57,1562.94 1409.75,1562.29 1409.97,1561.61 1410.25,1560.9 1410.56,1560.15 1410.93,1559.36 1411.34,1558.54 1411.79,1557.69 1412.29,1556.8 1412.83,1555.87 1413.41,1554.9 1414.03,1553.9 1414.7,1552.85 1415.4,1551.77 1416.15,1550.64 1416.94,1549.47 "/>
     <polygon id="_333766776" class="fil1" points="1291.51,1480.71 2427.39,2616.59 2427.58,2617.22 2427.81,2617.89 2428.1,2618.59 2428.43,2619.32 2428.81,2620.09 2429.24,2620.9 2429.71,2621.74 2430.22,2622.62 2430.78,2623.54 2431.39,2624.49 2432.03,2625.49 2432.72,2626.52 2433.46,2627.59 2434.23,2628.71 2435.04,2629.86 2435.9,2631.06 1300.01,1495.18 1299.16,1493.98 1298.35,1492.82 1297.58,1491.71 1296.84,1490.64 1296.15,1489.6 1295.51,1488.61 1294.9,1487.65 1294.34,1486.74 1293.83,1485.86 1293.35,1485.02 1292.93,1484.21 1292.55,1483.44 1292.22,1482.71 1291.93,1482.01 1291.7,1481.34 "/>
     <polygon id="_333766944" class="fil1" points="1266.16,1474.71 2402.04,2610.59 2402.35,2611.8 2402.56,2613.03 2402.69,2614.29 2402.73,2615.58 2402.68,2616.9 2402.54,2618.25 2402.32,2619.64 2402.01,2621.06 1266.13,1485.18 1266.44,1483.76 1266.66,1482.37 1266.8,1481.02 1266.85,1479.7 1266.81,1478.41 1266.68,1477.15 1266.47,1475.92 "/>
     <polygon id="_333766392" class="fil1" points="1228.33,1474.71 2364.21,2610.59 2364.57,2611.88 2364.81,2613.19 2364.95,2614.54 2365,2615.91 2364.93,2617.32 2364.77,2618.76 2364.51,2620.24 2364.15,2621.77 1228.27,1485.88 1228.63,1484.36 1228.89,1482.88 1229.05,1481.44 1229.11,1480.03 1229.07,1478.66 1228.93,1477.31 1228.68,1476 "/>
     <polygon id="_333766416" class="fil1" points="1266.13,1485.18 2402.01,2621.06 2401.73,2622.14 2401.38,2623.24 2400.99,2624.35 2400.55,2625.48 2400.05,2626.63 2399.5,2627.81 2398.9,2629.01 2398.25,2630.24 2397.55,2631.5 2396.81,2632.79 2396.01,2634.12 2395.16,2635.47 2394.27,2636.87 2393.33,2638.31 2392.34,2639.78 2391.31,2641.3 1255.43,1505.42 1256.46,1503.9 1257.45,1502.42 1258.39,1500.99 1259.28,1499.59 1260.13,1498.23 1260.92,1496.91 1261.67,1495.62 1262.37,1494.36 1263.02,1493.13 1263.62,1491.93 1264.17,1490.75 1264.67,1489.6 1265.11,1488.47 1265.5,1487.36 1265.84,1486.26 "/>
     <polygon id="_333766560" class="fil1" points="1255.43,1505.42 2391.31,2641.3 2390.89,2642.1 2390.71,2642.85 2390.75,2643.58 2390.97,2644.29 2391.34,2644.99 2391.82,2645.69 2392.39,2646.39 2393.01,2647.1 1257.13,1511.22 1256.51,1510.51 1255.94,1509.8 1255.45,1509.11 1255.09,1508.41 1254.87,1507.7 1254.83,1506.97 1255.01,1506.21 "/>
     <polygon id="_333767112" class="fil1" points="1443.22,1578.93 2579.1,2714.81 2575.67,2712.06 2572.82,2709.43 1436.94,1573.55 1439.79,1576.18 "/>
     <polygon id="_333767184" class="fil1" points="1455.24,1577.29 2591.12,2713.18 2589.94,2714.44 2588.57,2715.42 2587.05,2716.09 2585.45,2716.47 2583.81,2716.54 2582.17,2716.29 2580.59,2715.71 2579.1,2714.81 1443.22,1578.93 1444.7,1579.83 1446.29,1580.4 1447.93,1580.65 1449.57,1580.59 1451.17,1580.21 1452.68,1579.53 1454.06,1578.56 "/>
     <polygon id="_333767088" class="fil1" points="1297.63,1521.9 2433.51,2657.79 2432.68,2658.78 2431.87,2659.81 2431.12,2660.87 2430.46,2661.98 2429.93,2663.14 2429.58,2664.35 2429.44,2665.61 2429.55,2666.95 1293.67,1531.07 1293.56,1529.73 1293.7,1528.46 1294.05,1527.25 1294.57,1526.1 1295.24,1524.99 1295.99,1523.93 1296.8,1522.9 "/>
     <polygon id="_333767160" class="fil1" points="1300.01,1495.18 2435.9,2631.06 2437.46,2633.41 2438.7,2635.61 2439.63,2637.69 2440.29,2639.65 2440.68,2641.49 2440.83,2643.25 2440.76,2644.91 2440.48,2646.5 2440.03,2648.03 2439.42,2649.5 2438.66,2650.92 2437.79,2652.32 2436.82,2653.69 2435.77,2655.05 2434.66,2656.41 2433.51,2657.79 1297.63,1521.9 1298.78,1520.53 1299.89,1519.17 1300.94,1517.81 1301.91,1516.44 1302.78,1515.04 1303.54,1513.62 1304.15,1512.15 1304.6,1510.62 1304.87,1509.03 1304.95,1507.37 1304.8,1505.61 1304.4,1503.76 1303.75,1501.81 1302.81,1499.73 1301.58,1497.53 "/>
     <polygon id="_333734976" class="fil1" points="1333.02,1533.12 2468.9,2669 2469.24,2670.43 2469.72,2671.84 2470.3,2673.23 2470.98,2674.6 2471.73,2675.94 2472.52,2677.26 2473.34,2678.56 2474.16,2679.82 1338.28,1543.94 1337.46,1542.67 1336.64,1541.38 1335.84,1540.06 1335.1,1538.72 1334.42,1537.35 1333.83,1535.96 1333.36,1534.55 "/>
     <polygon id="_333734880" class="fil1" points="1208.41,1474.71 2344.3,2610.59 2321.82,2610.59 1185.94,1474.71 "/>
     <polygon id="_333734832" class="fil1" points="1162.65,1474.71 2298.53,2610.59 2276.71,2610.59 1140.83,1474.71 "/>
     <polygon id="_333735192" class="fil1" points="1228.27,1485.88 2364.15,2621.77 2363.84,2622.85 2363.48,2623.95 2363.06,2625.06 2362.59,2626.19 2362.07,2627.34 2361.49,2628.51 2360.87,2629.7 2360.2,2630.92 2359.47,2632.16 2358.7,2633.44 2357.88,2634.74 2357,2636.08 2356.09,2637.46 2355.12,2638.87 2354.11,2640.32 2353.04,2641.82 1217.16,1505.93 1218.22,1504.44 1219.24,1502.99 1220.2,1501.58 1221.12,1500.2 1221.99,1498.86 1222.82,1497.56 1223.59,1496.28 1224.32,1495.03 1224.99,1493.82 1225.61,1492.62 1226.19,1491.45 1226.71,1490.31 1227.18,1489.18 1227.6,1488.06 1227.96,1486.97 "/>
     <polygon id="_333734808" class="fil1" points="1165.88,1479.34 2301.76,2615.22 2301.18,2614.76 1165.3,1478.87 "/>
     <polygon id="_333734928" class="fil1" points="1293.67,1531.07 2429.55,2666.95 2429.89,2668.37 2430.36,2669.78 2430.95,2671.17 2431.62,2672.54 2432.37,2673.89 2433.16,2675.21 2433.98,2676.5 2434.8,2677.77 1298.92,1541.88 1298.1,1540.62 1297.28,1539.32 1296.49,1538 1295.74,1536.66 1295.07,1535.29 1294.48,1533.9 1294.01,1532.49 "/>
     <polygon id="_333735456" class="fil1" points="1336.99,1523.96 2472.87,2659.84 2472.04,2660.84 2471.23,2661.87 2470.47,2662.93 2469.81,2664.04 2469.28,2665.19 2468.93,2666.4 2468.79,2667.67 2468.9,2669 1333.02,1533.12 1332.91,1531.79 1333.05,1530.52 1333.4,1529.31 1333.93,1528.15 1334.59,1527.05 1335.35,1525.98 1336.16,1524.96 "/>
     <polygon id="_333735240" class="fil1" points="1168.19,1481.24 2304.07,2617.12 2303.02,2616.19 2301.76,2615.22 1165.88,1479.34 1167.14,1480.31 "/>
     <polygon id="_333735288" class="fil1" points="1257.13,1511.22 2393.01,2647.1 2393.91,2648.13 2394.81,2649.18 2395.7,2650.26 2396.56,2651.38 2397.4,2652.53 2398.19,2653.74 2398.92,2655.01 2399.59,2656.34 2400.18,2657.74 2400.69,2659.22 2401.09,2660.78 2401.38,2662.44 2401.54,2664.2 2401.58,2666.07 2401.46,2668.06 2401.19,2670.17 1265.31,1534.28 1265.58,1532.18 1265.69,1530.19 1265.66,1528.32 1265.49,1526.56 1265.2,1524.9 1264.8,1523.33 1264.3,1521.85 1263.71,1520.45 1263.04,1519.12 1262.31,1517.86 1261.52,1516.65 1260.68,1515.49 1259.82,1514.38 1258.93,1513.3 1258.03,1512.25 "/>
     <polygon id="_333735000" class="fil1" points="1185.94,1474.71 2321.82,2610.59 2323.08,2612.42 2324.07,2614.2 2324.81,2615.95 2325.3,2617.67 2325.57,2619.35 2325.64,2621.02 2325.52,2622.66 2325.22,2624.3 2324.77,2625.93 2324.19,2627.55 2323.48,2629.17 2322.67,2630.81 2321.77,2632.45 2320.8,2634.11 2319.78,2635.79 2318.72,2637.5 1182.83,1501.62 1183.89,1499.91 1184.92,1498.23 1185.89,1496.57 1186.79,1494.92 1187.6,1493.29 1188.31,1491.67 1188.89,1490.04 1189.34,1488.42 1189.64,1486.78 1189.76,1485.13 1189.69,1483.47 1189.42,1481.78 1188.92,1480.07 1188.19,1478.32 1187.2,1476.53 "/>
     <polygon id="_333735600" class="fil1" points="1217.16,1505.93 2353.04,2641.82 2352.61,2642.59 2352.42,2643.34 2352.45,2644.07 2352.65,2644.78 2353.01,2645.49 2353.48,2646.2 2354.04,2646.92 2354.65,2647.65 1218.77,1511.76 1218.16,1511.03 1217.6,1510.32 1217.13,1509.61 1216.77,1508.9 1216.57,1508.19 1216.54,1507.46 1216.73,1506.71 "/>
     <polygon id="_333735744" class="fil1" points="1218.77,1511.76 2354.65,2647.65 2355.52,2648.69 2356.4,2649.76 2357.26,2650.85 2358.1,2651.98 2358.91,2653.15 2359.68,2654.37 2360.38,2655.65 2361.02,2656.99 2361.58,2658.4 2362.05,2659.89 2362.41,2661.46 2362.67,2663.13 2362.8,2664.89 2362.79,2666.76 2362.63,2668.74 2362.32,2670.84 1226.44,1534.95 1226.75,1532.85 1226.91,1530.87 1226.92,1529.01 1226.79,1527.24 1226.53,1525.58 1226.17,1524.01 1225.7,1522.52 1225.14,1521.11 1224.5,1519.77 1223.79,1518.49 1223.03,1517.27 1222.22,1516.1 1221.38,1514.97 1220.52,1513.88 1219.64,1512.81 "/>
     <polygon id="_333736152" class="fil1" points="1140.83,1474.71 2276.71,2610.59 2276.56,2611.15 2276.38,2611.71 2276.15,2612.26 2275.89,2612.79 2275.58,2613.3 2275.24,2613.8 2274.85,2614.28 2274.43,2614.74 1138.55,1478.85 1138.97,1478.4 1139.35,1477.92 1139.7,1477.42 1140,1476.9 1140.27,1476.37 1140.5,1475.83 1140.68,1475.27 "/>
     <polygon id="_333736128" class="fil1" points="1182.83,1501.62 2318.72,2637.5 2317.92,2638.8 2317.12,2640.11 2316.35,2641.46 2315.63,2642.82 2314.98,2644.2 2314.42,2645.6 2313.97,2647.01 2313.67,2648.43 1177.78,1512.55 1178.09,1511.13 1178.54,1509.72 1179.09,1508.32 1179.75,1506.94 1180.47,1505.57 1181.24,1504.23 1182.04,1502.91 "/>
     <polygon id="_333735648" class="fil1" points="1226.44,1534.95 2362.32,2670.84 2362.05,2672.15 2361.74,2673.41 2361.39,2674.64 2360.99,2675.82 2360.57,2676.97 2360.11,2678.09 2359.62,2679.18 2359.11,2680.23 2358.58,2681.26 2358.03,2682.26 2357.46,2683.24 2356.89,2684.2 2356.31,2685.14 2355.72,2686.06 2355.14,2686.97 2354.56,2687.86 1218.68,1551.98 1219.26,1551.08 1219.84,1550.18 1220.43,1549.25 1221.01,1548.32 1221.58,1547.36 1222.15,1546.38 1222.7,1545.38 1223.23,1544.35 1223.74,1543.29 1224.23,1542.21 1224.68,1541.09 1225.11,1539.94 1225.5,1538.75 1225.86,1537.53 1226.17,1536.26 "/>
     <polygon id="_333736272" class="fil1" points="1265.31,1534.28 2401.19,2670.17 2400.95,2671.49 2400.66,2672.77 2400.33,2674 2399.97,2675.2 2399.56,2676.36 2399.13,2677.49 2398.67,2678.59 2398.18,2679.65 2397.67,2680.69 2397.14,2681.7 2396.6,2682.69 2396.05,2683.65 2395.49,2684.6 2394.93,2685.53 2394.37,2686.44 2393.81,2687.34 1257.93,1551.46 1258.49,1550.56 1259.05,1549.65 1259.61,1548.72 1260.17,1547.77 1260.72,1546.8 1261.26,1545.82 1261.79,1544.81 1262.3,1543.77 1262.79,1542.7 1263.25,1541.61 1263.68,1540.48 1264.09,1539.32 1264.45,1538.12 1264.78,1536.88 1265.07,1535.61 "/>
     <polygon id="_333735960" class="fil1" points="1298.92,1541.88 2434.8,2677.77 2436.21,2679.94 2437.55,2682.07 2438.78,2684.17 2439.87,2686.26 2440.78,2688.34 2441.48,2690.42 2441.92,2692.52 2442.08,2694.64 2441.92,2696.81 2441.4,2699.02 2440.49,2701.3 2439.14,2703.65 2437.33,2706.08 2435.01,2708.61 2432.16,2711.24 2428.73,2713.99 1292.85,1578.11 1296.28,1575.36 1299.13,1572.72 1301.45,1570.2 1303.26,1567.76 1304.6,1565.42 1305.52,1563.14 1306.04,1560.93 1306.2,1558.76 1306.04,1556.64 1305.59,1554.54 1304.9,1552.45 1303.99,1550.38 1302.9,1548.29 1301.67,1546.19 1300.33,1544.06 "/>
     <polygon id="_333735576" class="fil1" points="1338.28,1543.94 2474.16,2679.82 2475.56,2681.99 2476.9,2684.13 2478.13,2686.23 2479.22,2688.31 2480.13,2690.39 2480.83,2692.47 2481.28,2694.57 2481.44,2696.7 2481.27,2698.86 2480.76,2701.08 2479.84,2703.35 2478.49,2705.7 2476.68,2708.13 2474.37,2710.66 2471.51,2713.29 2468.08,2716.05 1332.2,1580.16 1335.63,1577.41 1338.48,1574.78 1340.8,1572.25 1342.61,1569.82 1343.96,1567.47 1344.87,1565.2 1345.39,1562.98 1345.56,1560.82 1345.4,1558.69 1344.95,1556.59 1344.25,1554.51 1343.34,1552.43 1342.25,1550.35 1341.02,1548.24 1339.68,1546.11 "/>
     <polygon id="_333736200" class="fil1" points="1377.63,1543.53 2513.51,2679.41 2514.92,2681.58 2516.26,2683.72 2517.49,2685.82 2518.58,2687.9 2519.49,2689.98 2520.18,2692.06 2520.63,2694.16 2520.79,2696.29 2520.63,2698.45 2520.11,2700.67 2519.19,2702.94 2517.85,2705.29 2516.04,2707.72 2513.72,2710.25 2510.87,2712.88 2507.44,2715.63 1371.55,1579.75 1374.98,1577 1377.84,1574.37 1380.15,1571.84 1381.97,1569.41 1383.31,1567.06 1384.23,1564.79 1384.75,1562.57 1384.91,1560.41 1384.75,1558.28 1384.3,1556.18 1383.61,1554.1 1382.7,1552.02 1381.61,1549.94 1380.37,1547.83 1379.04,1545.7 "/>
     <polygon id="_333735888" class="fil1" points="1257.93,1551.46 2393.81,2687.34 2393.3,2688.17 2392.82,2688.97 2392.37,2689.77 2391.98,2690.55 2391.65,2691.33 2391.4,2692.11 2391.24,2692.89 2391.19,2693.68 2391.25,2694.48 2391.45,2695.29 2391.78,2696.11 2392.28,2696.96 2392.94,2697.84 2393.8,2698.74 1257.91,1562.85 1257.06,1561.95 1256.4,1561.08 1255.9,1560.23 1255.56,1559.4 1255.37,1558.59 1255.31,1557.8 1255.36,1557.01 1255.52,1556.23 1255.77,1555.45 1256.1,1554.67 1256.49,1553.88 1256.93,1553.09 1257.42,1552.28 "/>
     <polygon id="_333736080" class="fil1" points="1261.52,1565.91 2397.4,2701.79 2398.41,2703.13 2399.12,2704.62 2399.54,2706.21 2399.64,2707.85 2399.42,2709.48 2398.88,2711.07 2398,2712.57 1262.12,1576.69 1263,1575.19 1263.54,1573.6 1263.76,1571.96 1263.65,1570.33 1263.24,1568.74 1262.53,1567.25 "/>
     <polygon id="_333736992" class="fil1" points="1177.78,1512.55 2313.67,2648.43 2313.58,2649.76 2313.75,2651.03 2314.12,2652.22 2314.67,2653.36 2315.35,2654.45 2316.12,2655.5 2316.95,2656.5 2317.79,2657.47 1181.91,1521.59 1181.07,1520.62 1180.24,1519.61 1179.47,1518.57 1178.79,1517.48 1178.24,1516.34 1177.87,1515.14 1177.7,1513.88 "/>
     <polygon id="_333736560" class="fil1" points="1138.55,1478.85 2274.43,2614.74 2274.03,2615.17 2273.7,2615.6 2273.44,2616.03 2273.26,2616.46 2273.15,2616.89 2273.1,2617.33 2273.13,2617.77 2273.22,2618.23 1137.34,1482.35 1137.25,1481.89 1137.22,1481.44 1137.27,1481.01 1137.38,1480.58 1137.56,1480.15 1137.81,1479.72 1138.14,1479.29 "/>
     <polygon id="_333736752" class="fil1" points="1120.97,1474.71 2256.85,2610.59 2237.44,2610.59 1101.56,1474.71 "/>
     <polygon id="_333736800" class="fil1" points="1099.19,1479.26 2235.07,2615.15 2234.67,2615.58 2234.34,2616.02 2234.09,2616.44 2233.9,2616.87 2233.79,2617.3 2233.75,2617.74 2233.77,2618.18 2233.86,2618.64 1097.98,1482.76 1097.89,1482.3 1097.87,1481.86 1097.91,1481.42 1098.02,1480.99 1098.21,1480.56 1098.46,1480.13 1098.79,1479.7 "/>
     <polygon id="_333736728" class="fil1" points="1410.8,1566.38 2546.68,2702.26 2547.81,2703.58 2548.63,2705.05 2549.13,2706.62 2549.32,2708.25 2549.2,2709.89 2548.76,2711.48 2548.01,2712.98 2546.94,2714.34 1411.05,1578.46 1412.13,1577.1 1412.88,1575.6 1413.32,1574 1413.44,1572.37 1413.25,1570.74 1412.75,1569.17 1411.93,1567.7 "/>
     <polygon id="_333736344" class="fil1" points="1332.2,1580.16 2468.08,2716.05 2466.6,2716.95 2465.02,2717.52 2463.38,2717.77 2461.73,2717.7 2460.13,2717.33 2458.62,2716.65 2457.25,2715.68 1321.37,1579.79 1322.74,1580.77 1324.25,1581.45 1325.85,1581.82 1327.5,1581.89 1329.13,1581.64 1330.72,1581.06 "/>
     <polygon id="_333736920" class="fil1" points="1262.12,1576.69 2398,2712.57 2396.85,2713.86 2395.49,2714.87 2394,2715.58 2392.4,2715.99 2390.76,2716.09 2389.11,2715.88 2387.51,2715.34 2386.01,2714.47 1250.13,1578.59 1251.63,1579.46 1253.23,1579.99 1254.88,1580.21 1256.52,1580.11 1258.12,1579.7 1259.61,1578.99 1260.97,1577.98 "/>
     <polygon id="_333736368" class="fil1" points="1137.34,1482.35 2273.22,2618.23 2273.41,2618.87 2273.64,2619.53 2273.93,2620.23 2274.26,2620.97 2274.64,2621.74 2275.06,2622.54 2275.53,2623.39 2276.05,2624.26 2276.61,2625.18 2277.22,2626.14 2277.86,2627.13 2278.55,2628.16 2279.28,2629.24 2280.06,2630.35 2280.87,2631.51 2281.72,2632.71 1145.84,1496.83 1144.99,1495.63 1144.17,1494.47 1143.4,1493.36 1142.67,1492.28 1141.98,1491.25 1141.33,1490.25 1140.73,1489.3 1140.17,1488.38 1139.65,1487.5 1139.18,1486.66 1138.76,1485.86 1138.38,1485.09 1138.05,1484.35 1137.76,1483.65 1137.53,1482.98 "/>
     <polygon id="_333736536" class="fil1" points="1101.56,1474.71 2237.44,2610.59 2237.31,2611.21 2237.13,2611.82 2236.9,2612.42 2236.63,2613.01 2236.31,2613.58 2235.95,2614.12 2235.53,2614.65 2235.07,2615.15 1099.19,1479.26 1099.65,1478.77 1100.07,1478.24 1100.43,1477.69 1100.75,1477.13 1101.02,1476.54 1101.25,1475.94 1101.43,1475.33 "/>
     <polygon id="_333736632" class="fil1" points="1145.84,1496.83 2281.72,2632.71 2283.29,2635.05 2284.52,2637.26 2285.46,2639.33 2286.11,2641.29 2286.5,2643.14 2286.65,2644.89 2286.58,2646.56 2286.31,2648.15 2285.86,2649.67 2285.24,2651.14 2284.49,2652.57 2283.62,2653.97 2282.65,2655.34 2281.6,2656.7 2280.49,2658.06 2279.34,2659.43 1143.46,1523.55 1144.61,1522.18 1145.72,1520.82 1146.77,1519.46 1147.74,1518.08 1148.61,1516.69 1149.36,1515.26 1149.98,1513.79 1150.43,1512.27 1150.7,1510.67 1150.77,1509.01 1150.62,1507.26 1150.23,1505.41 1149.58,1503.45 1148.64,1501.38 1147.4,1499.17 "/>
     <polygon id="_333737400" class="fil1" points="1097.98,1482.76 2233.86,2618.64 2234.05,2619.28 2234.29,2619.94 2234.57,2620.64 2234.9,2621.38 2235.28,2622.15 2235.71,2622.95 2236.18,2623.79 2236.7,2624.67 2237.26,2625.59 2237.86,2626.55 2238.51,2627.54 2239.2,2628.57 2239.93,2629.65 2240.7,2630.76 2241.52,2631.92 2242.37,2633.12 1106.49,1497.24 1105.64,1496.04 1104.82,1494.88 1104.05,1493.77 1103.32,1492.69 1102.63,1491.66 1101.98,1490.66 1101.38,1489.71 1100.82,1488.79 1100.3,1487.91 1099.83,1487.07 1099.4,1486.27 1099.02,1485.5 1098.69,1484.76 1098.41,1484.06 1098.17,1483.39 "/>
     <polygon id="_333737736" class="fil1" points="1081.77,1474.71 2217.65,2610.59 2199.97,2610.59 1064.09,1474.71 "/>
     <polygon id="_333737352" class="fil1" points="973.331,1395.21 2109.21,2531.09 2111.54,2533.65 2113.62,2536.43 2115.43,2539.4 2116.95,2542.55 2118.17,2545.86 2119.06,2549.3 2119.61,2552.87 2119.8,2556.54 2119.8,2587.62 983.915,1451.74 983.915,1420.66 983.728,1416.99 983.179,1413.42 982.288,1409.97 981.072,1406.67 979.549,1403.52 977.74,1400.55 975.66,1397.77 "/>
     <polygon id="_333737280" class="fil1" points="1371.55,1579.75 2507.44,2715.63 2505.95,2716.54 2504.37,2717.11 2502.73,2717.36 2501.09,2717.29 2499.48,2716.92 2497.97,2716.24 2496.6,2715.26 1360.72,1579.38 1362.09,1580.36 1363.6,1581.03 1365.21,1581.41 1366.85,1581.48 1368.49,1581.23 1370.07,1580.65 "/>
     <polygon id="_333737784" class="fil1" points="1411.05,1578.46 2546.94,2714.34 2545.61,2715.46 2544.13,2716.28 2542.55,2716.78 2540.92,2716.97 2539.27,2716.85 2537.67,2716.41 2536.16,2715.66 2534.79,2714.59 1398.91,1578.71 1400.28,1579.78 1401.79,1580.53 1403.39,1580.96 1405.03,1581.09 1406.67,1580.9 1408.25,1580.39 1409.73,1579.58 "/>
     <polygon id="_333737064" class="fil1" points="1292.85,1578.11 2428.73,2713.99 2427.25,2714.89 2425.66,2715.46 2424.02,2715.71 2422.38,2715.65 2420.78,2715.27 2419.27,2714.59 2417.89,2713.62 1282.01,1577.74 1283.38,1578.71 1284.9,1579.39 1286.5,1579.77 1288.14,1579.83 1289.78,1579.58 1291.36,1579.01 "/>
     <polygon id="_333737208" class="fil1" points="1250.13,1578.59 2386.01,2714.47 2382.52,2711.78 2379.6,2709.21 1243.72,1573.33 1246.64,1575.9 "/>
     <polygon id="_333737424" class="fil1" points="1181.91,1521.59 2317.79,2657.47 2318.97,2658.82 2320.11,2660.16 2321.19,2661.5 2322.19,2662.86 2323.09,2664.23 2323.88,2665.65 2324.52,2667.1 2325.01,2668.62 2325.32,2670.2 2325.43,2671.87 2325.31,2673.62 2324.96,2675.48 2324.35,2677.45 2323.46,2679.54 2322.27,2681.77 2320.76,2684.14 1184.88,1548.26 1186.39,1545.88 1187.58,1543.66 1188.47,1541.56 1189.08,1539.6 1189.43,1537.74 1189.54,1535.98 1189.44,1534.32 1189.13,1532.74 1188.64,1531.22 1188,1529.76 1187.21,1528.35 1186.31,1526.97 1185.31,1525.62 1184.23,1524.28 1183.09,1522.94 "/>
     <polygon id="_333738552" class="fil1" points="1218.68,1551.98 2354.56,2687.86 2354.03,2688.67 2353.53,2689.47 2353.07,2690.25 2352.66,2691.03 2352.32,2691.8 2352.05,2692.58 2351.88,2693.36 2351.81,2694.14 2351.86,2694.94 2352.04,2695.76 2352.36,2696.6 2352.84,2697.46 2353.49,2698.35 2354.33,2699.27 1218.44,1563.39 1217.61,1562.46 1216.96,1561.58 1216.48,1560.71 1216.15,1559.88 1215.98,1559.06 1215.93,1558.26 1216,1557.47 1216.17,1556.7 1216.44,1555.92 1216.78,1555.15 1217.19,1554.37 1217.65,1553.59 1218.15,1552.79 "/>
     <polygon id="_333738120" class="fil1" points="1064.09,1474.71 2199.97,2610.59 2195.46,2610.59 1059.58,1474.71 "/>
     <polygon id="_333738336" class="fil1" points="1106.49,1497.24 2242.37,2633.12 2243.93,2635.46 2245.17,2637.67 2246.11,2639.74 2246.76,2641.7 2247.15,2643.55 2247.3,2645.3 2247.23,2646.97 2246.96,2648.56 2246.5,2650.08 2245.89,2651.55 2245.14,2652.98 2244.27,2654.38 2243.29,2655.75 2242.24,2657.11 2241.13,2658.47 2239.99,2659.84 1104.11,1523.96 1105.25,1522.59 1106.36,1521.23 1107.41,1519.87 1108.38,1518.49 1109.26,1517.1 1110.01,1515.67 1110.62,1514.2 1111.08,1512.68 1111.35,1511.09 1111.42,1509.42 1111.27,1507.67 1110.88,1505.82 1110.23,1503.86 1109.29,1501.79 1108.05,1499.58 "/>
     <polygon id="_333738408" class="fil1" points="1139.5,1532.71 2275.38,2668.59 2275.71,2670.02 2276.19,2671.43 2276.77,2672.82 2277.45,2674.19 2278.2,2675.53 2278.99,2676.85 2279.81,2678.15 2280.63,2679.41 1144.75,1543.53 1143.93,1542.26 1143.11,1540.97 1142.32,1539.65 1141.57,1538.3 1140.89,1536.94 1140.31,1535.55 1139.83,1534.14 "/>
     <polygon id="_333738360" class="fil1" points="1100.14,1533.12 2236.02,2669 2236.36,2670.43 2236.83,2671.84 2237.42,2673.23 2238.1,2674.6 2238.84,2675.94 2239.64,2677.26 2240.45,2678.56 2241.28,2679.82 1105.39,1543.94 1104.57,1542.67 1103.76,1541.38 1102.96,1540.06 1102.22,1538.72 1101.54,1537.35 1100.95,1535.96 1100.48,1534.55 "/>
     <polygon id="_333738168" class="fil1" points="988.418,1451.74 2124.3,2587.62 2124.3,2610.59 988.418,1474.71 "/>
     <polygon id="_333737880" class="fil1" points="1221.99,1566.52 2357.87,2702.4 2358.85,2703.77 2359.53,2705.27 2359.91,2706.86 2359.97,2708.5 2359.72,2710.13 2359.15,2711.7 2358.24,2713.18 1222.36,1577.29 1223.27,1575.82 1223.84,1574.25 1224.09,1572.62 1224.03,1570.98 1223.65,1569.39 1222.97,1567.88 "/>
     <polygon id="_333738264" class="fil1" points="1143.46,1523.55 2279.34,2659.43 2278.51,2660.43 2277.7,2661.45 2276.95,2662.52 2276.28,2663.63 2275.76,2664.78 2275.4,2665.99 2275.27,2667.26 2275.38,2668.59 1139.5,1532.71 1139.38,1531.38 1139.52,1530.11 1139.88,1528.9 1140.4,1527.74 1141.06,1526.64 1141.82,1525.57 1142.63,1524.54 "/>
     <polygon id="_333738240" class="fil1" points="1176.69,1562.94 2312.57,2698.82 2312.49,2699.29 2312.47,2699.74 2312.52,2700.17 2312.63,2700.6 2312.82,2701.02 2313.07,2701.43 2313.4,2701.85 2313.8,2702.26 1177.92,1566.38 1177.52,1565.96 1177.19,1565.55 1176.94,1565.13 1176.75,1564.71 1176.64,1564.29 1176.59,1563.85 1176.61,1563.4 "/>
     <polygon id="_333737904" class="fil1" points="1184.88,1548.26 2320.76,2684.14 2319.93,2685.35 2319.15,2686.52 2318.4,2687.65 2317.7,2688.73 2317.03,2689.78 2316.41,2690.78 2315.83,2691.75 2315.29,2692.68 2314.79,2693.57 2314.34,2694.43 2313.93,2695.25 2313.56,2696.03 2313.25,2696.78 2312.97,2697.49 2312.75,2698.17 2312.57,2698.82 1176.69,1562.94 1176.87,1562.29 1177.09,1561.61 1177.36,1560.9 1177.68,1560.15 1178.05,1559.36 1178.45,1558.54 1178.91,1557.69 1179.4,1556.8 1179.94,1555.87 1180.53,1554.9 1181.15,1553.9 1181.82,1552.85 1182.52,1551.77 1183.27,1550.64 1184.05,1549.47 "/>
     <polygon id="_333738672" class="fil1" points="1104.11,1523.96 2239.99,2659.84 2239.16,2660.84 2238.35,2661.87 2237.59,2662.93 2236.93,2664.04 2236.4,2665.19 2236.05,2666.4 2235.91,2667.67 2236.02,2669 1100.14,1533.12 1100.03,1531.79 1100.17,1530.52 1100.52,1529.31 1101.05,1528.15 1101.71,1527.05 1102.47,1525.98 1103.28,1524.96 "/>
     <polygon id="_333739176" class="fil1" points="1105.39,1543.94 2241.28,2679.82 2242.68,2681.99 2244.02,2684.13 2245.25,2686.23 2246.34,2688.31 2247.25,2690.39 2247.95,2692.47 2248.4,2694.57 2248.56,2696.7 2248.39,2698.86 2247.87,2701.08 2246.96,2703.35 2245.61,2705.7 2243.8,2708.13 2241.48,2710.66 2238.63,2713.29 2235.2,2716.05 1099.32,1580.16 1102.75,1577.41 1105.6,1574.78 1107.92,1572.25 1109.73,1569.82 1111.08,1567.47 1111.99,1565.2 1112.51,1562.98 1112.68,1560.82 1112.52,1558.69 1112.07,1556.59 1111.37,1554.51 1110.46,1552.43 1109.37,1550.35 1108.14,1548.24 1106.8,1546.11 "/>
     <polygon id="_333739104" class="fil1" points="1144.75,1543.53 2280.63,2679.41 2282.04,2681.58 2283.37,2683.72 2284.61,2685.82 2285.69,2687.9 2286.61,2689.98 2287.3,2692.06 2287.75,2694.16 2287.91,2696.29 2287.75,2698.45 2287.23,2700.67 2286.31,2702.94 2284.97,2705.29 2283.15,2707.72 2280.84,2710.25 2277.98,2712.88 2274.55,2715.63 1138.67,1579.75 1142.1,1577 1144.96,1574.37 1147.27,1571.84 1149.09,1569.41 1150.43,1567.06 1151.35,1564.79 1151.87,1562.57 1152.03,1560.41 1151.87,1558.28 1151.42,1556.18 1150.73,1554.1 1149.81,1552.02 1148.72,1549.94 1147.49,1547.83 1146.16,1545.7 "/>
     <polygon id="_333739152" class="fil1" points="1138.67,1579.75 2274.55,2715.63 2273.07,2716.54 2271.49,2717.11 2269.85,2717.36 2268.21,2717.29 2266.6,2716.92 2265.09,2716.24 2263.72,2715.26 1127.84,1579.38 1129.21,1580.36 1130.72,1581.03 1132.32,1581.41 1133.97,1581.48 1135.61,1581.23 1137.19,1580.65 "/>
     <polygon id="_333738912" class="fil1" points="988.418,1474.71 2124.3,2610.59 2119.8,2610.59 983.915,1474.71 "/>
     <polygon id="_333738768" class="fil1" points="1210.34,1578.93 2346.22,2714.81 2342.79,2712.06 2339.94,2709.43 1204.06,1573.55 1206.91,1576.18 "/>
     <polygon id="_333739056" class="fil1" points="1222.36,1577.29 2358.24,2713.18 2357.06,2714.44 2355.68,2715.42 2354.17,2716.09 2352.57,2716.47 2350.93,2716.54 2349.29,2716.29 2347.7,2715.71 2346.22,2714.81 1210.34,1578.93 1211.82,1579.83 1213.41,1580.4 1215.05,1580.65 1216.69,1580.59 1218.29,1580.21 1219.8,1579.53 1221.17,1578.56 "/>
     <polygon id="_333738936" class="fil1" points="1327.81,475.581 2463.69,1611.46 2465.52,1613.91 2467.12,1616.54 2468.46,1619.32 2469.53,1622.24 2470.31,1625.29 2470.79,1628.45 2470.96,1631.71 1335.08,495.826 1334.91,492.572 1334.43,489.411 1333.65,486.362 1332.58,483.437 1331.24,480.656 1329.64,478.031 "/>
     <polygon id="_333739296" class="fil1" points="1335.08,495.826 2470.96,1631.71 2462.19,1681.86 1326.31,545.973 "/>
     <polygon id="_333738648" class="fil1" points="976.162,1474.71 2112.04,2610.59 2112.04,2688.35 976.162,1552.47 "/>
     <polygon id="_333739824" class="fil1" points="976.162,1552.47 2112.04,2688.35 2111.92,2691.57 2111.57,2694.7 2111.01,2697.72 2110.23,2700.62 2109.26,2703.38 2108.1,2705.98 2106.78,2708.41 2105.29,2710.65 2103.65,2712.68 2101.87,2714.5 2099.97,2716.08 2097.96,2717.41 2095.84,2718.47 2093.63,2719.24 2091.34,2719.72 2088.98,2719.88 953.101,1584 955.458,1583.84 957.748,1583.36 959.958,1582.58 962.077,1581.52 964.093,1580.19 965.994,1578.62 967.77,1576.8 969.407,1574.76 970.895,1572.52 972.223,1570.1 973.378,1567.5 974.35,1564.74 975.125,1561.84 975.693,1558.82 976.042,1555.69 "/>
     <polygon id="_333739896" class="fil1" points="953.101,1584 2088.98,2719.88 2058.36,2719.88 922.481,1584 "/>
     <polygon id="_333739728" class="fil1" points="922.481,1584 2058.36,2719.88 2003.8,2719.88 867.916,1584 "/>
     <polygon id="_333739608" class="fil1" points="867.916,1584 2003.8,2719.88 1991,2719.88 855.118,1584 "/>
     <polygon id="_333740112" class="fil1" points="855.118,1584 1991,2719.88 1972.06,2719.88 836.174,1584 "/>
     <polygon id="_333739632" class="fil1" points="836.174,1584 1972.06,2719.88 1956.43,2719.88 820.551,1584 "/>
     <polygon id="_333739920" class="fil1" points="820.551,1584 1956.43,2719.88 1925.56,2719.88 789.682,1584 "/>
     <polygon id="_333739512" class="fil1" points="513.339,1474.71 1649.22,2610.59 1641.47,2610.59 505.587,1474.71 "/>
     <polygon id="_333739752" class="fil1" points="536.4,1584 1672.28,2719.88 1669.92,2719.72 1667.63,2719.24 1665.42,2718.47 1663.31,2717.41 1661.29,2716.08 525.408,1580.19 527.424,1581.52 529.543,1582.58 531.753,1583.36 534.043,1583.84 "/>
     <polygon id="_333739536" class="fil1" points="505.587,1474.71 1641.47,2610.59 1636.96,2610.59 501.083,1474.71 "/>
     <polygon id="_333740016" class="fil1" points="789.682,1584 1925.56,2719.88 1672.28,2719.88 536.4,1584 "/>
     <polygon id="_333740400" class="fil1" points="1531.83,1395.21 2667.71,2531.09 2670.04,2533.65 2672.12,2536.43 2673.93,2539.4 2675.45,2542.55 2676.67,2545.86 2677.56,2549.3 2678.11,2552.87 2678.3,2556.54 2678.3,2587.62 1542.41,1451.74 1542.41,1420.66 1542.23,1416.99 1541.68,1413.42 1540.79,1409.97 1539.57,1406.67 1538.05,1403.52 1536.24,1400.55 1534.16,1397.77 "/>
     <polygon id="_333740640" class="fil1" points="1546.92,1451.74 2682.8,2587.62 2682.8,2610.59 1546.92,1474.71 "/>
     <polygon id="_333740232" class="fil1" points="1546.92,1474.71 2682.8,2610.59 2678.3,2610.59 1542.41,1474.71 "/>
     <polygon id="_333740256" class="fil1" points="1178.17,1578.46 2314.05,2714.34 2312.73,2715.46 2311.25,2716.28 2309.67,2716.78 2308.04,2716.97 2306.39,2716.85 2304.79,2716.41 2303.28,2715.66 2301.91,2714.59 1166.03,1578.71 1167.4,1579.78 1168.91,1580.53 1170.51,1580.96 1172.15,1581.09 1173.79,1580.9 1175.37,1580.39 1176.85,1579.58 "/>
     <polygon id="_333740712" class="fil1" points="1177.92,1566.38 2313.8,2702.26 2314.93,2703.58 2315.75,2705.05 2316.25,2706.62 2316.44,2708.25 2316.32,2709.89 2315.88,2711.48 2315.13,2712.98 2314.05,2714.34 1178.17,1578.46 1179.25,1577.1 1180,1575.6 1180.44,1574 1180.56,1572.37 1180.37,1570.74 1179.87,1569.17 1179.05,1567.7 "/>
     <polygon id="_333740808" class="fil1" points="983.915,1474.71 2119.8,2610.59 2112.04,2610.59 976.162,1474.71 "/>
     <polygon id="_333740592" class="fil1" points="1099.32,1580.16 2235.2,2716.05 2233.72,2716.95 2232.14,2717.52 2230.5,2717.77 2228.85,2717.7 2227.25,2717.33 2225.74,2716.65 2224.37,2715.68 1088.49,1579.79 1089.86,1580.77 1091.37,1581.45 1092.97,1581.82 1094.61,1581.89 1096.25,1581.64 1097.84,1581.06 "/>
    </g>
    <path id="_451240880" class="fil1" d="M1326.31 545.973l0 838.652 180.071 0c19.8166,0 36.0319,16.2154 36.0319,36.0319l0 31.0784 4.50237 0 0 22.9713 -4.50237 0.0011811 -15.0803 -0.0011811c-0.411024,0.905906 -0.988583,1.75512 -1.73268,2.50276 -1.17992,1.17874 -1.54016,2.25118 -1.21063,3.49725 0.868111,3.28819 3.84922,7.96654 8.50512,14.4732 9.22914,12.9024 3.79961,19.3642 -2.38229,26.7236 -2.19921,2.61732 -4.63229,5.51575 -3.96378,9.16182 0.701575,3.82796 3.08032,7.48229 5.25237,10.8189 7.62638,11.7142 13.8142,21.2185 -6.07441,36.2233 -3.77244,2.84882 -9.15355,2.11772 -12.0177,-1.63465 -2.86654,-3.75118 -2.12953,-9.10394 1.64173,-11.9539 7.20237,-5.43426 4.89095,-8.98701 2.04095,-13.3642 -3.08622,-4.73977 -6.46418,-9.92835 -7.76457,-17.0221 -2.11536,-11.5347 3.02717,-17.6587 7.67363,-23.1898 1.66063,-1.97717 3.11929,-3.71339 1.60276,-5.83229 -5.77914,-8.07875 -9.5882,-14.2984 -11.1083,-20.0492 -1.00039,-3.79016 -1.12323,-7.18229 -0.296457,-10.3547l-8.4567 0c0.936615,3.1937 0.900001,6.62363 -0.0318898,10.4752 -1.38307,5.71536 -5.07166,12.0142 -10.7008,20.2406 -1.48228,2.16732 0.00472441,3.86575 1.69843,5.79922 4.77402,5.44843 10.0571,11.4803 8.18386,23.0622 -1.16102,7.16693 -4.4126,12.3992 -7.38426,17.1768 -2.7567,4.43268 -4.99489,8.0315 2.28898,13.2933 3.83977,2.77087 4.6937,8.11418 1.90748,11.9339 -2.78504,3.81969 -8.1567,4.6689 -11.9976,1.89803 -20.2288,-14.6126 -14.2406,-24.2457 -6.85985,-36.1158 2.11772,-3.40394 4.43504,-7.1315 5.04922,-10.9264 0.591733,-3.65433 -1.88858,-6.48544 -4.12796,-9.04135 -6.34371,-7.24016 -11.9126,-13.5945 -2.96575,-26.6681 4.49764,-6.57166 7.37127,-11.3091 8.18859,-14.6799 0.305906,-1.26496 -0.0614174,-2.32205 -1.22953,-3.44173 -0.917717,-0.875198 -1.59685,-1.90394 -2.03622,-3.00473l-17.8122 -0.0011811c1.07835,3.40866 1.02756,7.05827 -0.0614174,11.1768 -1.51772,5.75079 -5.32796,11.9705 -11.1071,20.0492 -1.51654,2.1189 -0.0590552,3.85512 1.60158,5.83229 4.64764,5.53111 9.79017,11.6551 7.67481,23.1898 -1.30039,7.09371 -4.67835,12.2823 -7.76339,17.0221 -2.85,4.37717 -5.1626,7.92993 2.03977,13.3642 3.77244,2.85 4.50709,8.20276 1.64291,11.9539 -2.86536,3.75237 -8.24646,4.48465 -12.0189,1.63465 -19.8874,-15.0047 -13.6996,-24.5091 -6.07441,-36.2221 2.17205,-3.33662 4.55079,-6.99213 5.25355,-10.8201 0.668504,-3.64607 -1.76575,-6.54449 -3.96496,-9.16182 -6.18189,-7.35945 -11.6114,-13.8201 -2.3811,-26.7236 4.65473,-6.5067 7.63583,-11.185 8.50394,-14.4732 0.329528,-1.24606 -0.0307087,-2.31969 -1.21063,-3.49725 -0.964961,-0.969686 -1.65,-2.11063 -2.05394,-3.32362l-22.4752 0c7.49646,9.86576 2.61378,17.7189 -3.10394,26.9138 -2.11654,3.40512 -4.43386,7.13386 -5.04922,10.9276 -0.590552,3.65433 1.88858,6.48544 4.12914,9.04253 6.34252,7.23898 11.9114,13.5945 2.96457,26.6669 -4.49646,6.57166 -7.37127,11.3091 -8.18741,14.6799 -0.305906,1.26496 0.0614174,2.32205 1.22953,3.44173 3.42284,3.26575 3.53622,8.6752 0.252756,12.0791 -3.28347,3.40512 -8.72127,3.51733 -12.1429,0.251575 -6.15355,-5.89252 -7.95237,-11.9764 -6.05906,-19.7988 1.38307,-5.71536 5.07048,-12.0142 10.6996,-20.2417 1.48347,-2.16732 -0.00472441,-3.86575 -1.69843,-5.79922 -4.77402,-5.44843 -10.0571,-11.4791 -8.18268,-23.0622 1.16102,-7.16575 4.4126,-12.3992 7.38426,-17.1768 2.75551,-4.43386 4.99252,-8.03268 -2.29016,-13.2933 -1.63819,-1.18228 -2.73307,-2.83229 -3.23268,-4.63229l-21.8209 0c-0.341339,1.51772 -1.10197,2.96103 -2.28307,4.14685 -1.17874,1.17756 -1.5378,2.25118 -1.20945,3.49725 0.868111,3.28937 3.84922,7.96772 8.50394,14.4744 9.22914,12.9012 3.79961,19.3642 -2.38229,26.7236 -2.19803,2.61732 -4.63229,5.51457 -3.96378,9.16064 0.701575,3.82796 3.08032,7.48347 5.25355,10.8201 7.6252,11.7118 13.813,21.2185 -6.0756,36.2221 -3.77244,2.85 -9.15237,2.11772 -12.0177,-1.63465 -2.86536,-3.75118 -2.12953,-9.10394 1.64173,-11.9539 7.20355,-5.43426 4.89095,-8.98701 2.04095,-13.3642 -3.08504,-4.73859 -6.46418,-9.92835 -7.76457,-17.0221 -2.11536,-11.5358 3.02835,-17.6575 7.67481,-23.1898 1.66063,-1.97599 3.11929,-3.71339 1.60276,-5.83229 -5.77914,-8.07875 -9.58938,-14.2984 -11.1083,-20.048 -1.1752,-4.45276 -1.13976,-8.35631 0.22441,-12l-19.4103 0.0011811c-0.288189,1.66654 -1.07599,3.26457 -2.36339,4.5567 -1.1811,1.17874 -1.54134,2.25118 -1.21181,3.49725 0.868111,3.28937 3.8504,7.96654 8.50512,14.4744 9.22914,12.9024 3.79961,19.363 -2.38229,26.7236 -2.19921,2.61732 -4.63229,5.51457 -3.96378,9.16064 0.701575,3.82796 3.08032,7.48347 5.25355,10.8201 7.6252,11.713 13.813,21.2173 -6.0756,36.2221 -3.77126,2.85 -9.15237,2.11772 -12.0177,-1.63347 -2.86536,-3.75237 -2.12953,-9.10394 1.64291,-11.9551 7.20119,-5.43426 4.88977,-8.98583 2.03977,-13.3642 -3.08504,-4.73859 -6.463,-9.92835 -7.76457,-17.0221 -2.11417,-11.5347 3.02835,-17.6575 7.67481,-23.1898 1.66063,-1.97599 3.11811,-3.71339 1.60276,-5.83229 -5.77914,-8.07875 -9.58938,-14.2984 -11.1083,-20.048 -1.22126,-4.62048 -1.13622,-8.64922 0.383859,-12.411l-20.2016 0c-0.411024,0.905906 -0.988583,1.75512 -1.73268,2.50276 -1.17874,1.17874 -1.54016,2.25118 -1.21063,3.49725 0.869292,3.28819 3.84922,7.96654 8.50512,14.4732 9.22914,12.9024 3.79961,19.3642 -2.38229,26.7236 -2.19921,2.61732 -4.63229,5.51575 -3.96496,9.16182 0.702756,3.82796 3.0815,7.48229 5.25355,10.8189 7.62638,11.7142 13.8142,21.2185 -6.07441,36.2233 -3.77244,2.84882 -9.15355,2.11772 -12.0177,-1.63465 -2.86536,-3.75118 -2.12953,-9.10394 1.64173,-11.9539 7.20355,-5.43426 4.89095,-8.98701 2.04095,-13.3642 -3.08622,-4.73977 -6.46418,-9.92835 -7.76457,-17.0221 -2.11536,-11.5347 3.02717,-17.6587 7.67481,-23.1898 1.66063,-1.97717 3.11811,-3.71339 1.60158,-5.83229 -5.77914,-8.07875 -9.5882,-14.2984 -11.1071,-20.0492 -1.00039,-3.79016 -1.12441,-7.18229 -0.297638,-10.3547l-8.45552 0.0011811c0.936615,3.1937 0.89882,6.62363 -0.0330709,10.474 -1.38307,5.71536 -5.07048,12.0142 -10.6996,20.2406 -1.48347,2.16732 0.00354331,3.86575 1.69725,5.79922 4.77402,5.44843 10.0583,11.4803 8.18386,23.0622 -1.15984,7.16693 -4.4126,12.3992 -7.38426,17.1768 -2.7567,4.43268 -4.9937,8.0315 2.28898,13.2933 3.83977,2.77087 4.6937,8.11418 1.90748,11.9339 -2.78504,3.81969 -8.1567,4.6689 -11.9965,1.89803 -20.2299,-14.6126 -14.2417,-24.2457 -6.85985,-36.1158 2.11654,-3.40394 4.43386,-7.1315 5.04804,-10.9264 0.591733,-3.65433 -1.88858,-6.48544 -4.12796,-9.04135 -6.34371,-7.24016 -11.9114,-13.5945 -2.96575,-26.6681 4.49764,-6.57166 7.37245,-11.3091 8.18741,-14.6799 0.307087,-1.26496 -0.0590552,-2.32205 -1.22835,-3.44173 -0.917717,-0.875198 -1.59685,-1.90394 -2.03622,-3.00473l-17.8122 -0.0011811c1.07835,3.40866 1.02756,7.05827 -0.0602363,11.1768 -1.5189,5.75079 -5.32914,11.9705 -11.1083,20.0492 -1.51654,2.1189 -0.0578741,3.85512 1.60276,5.83229 4.64646,5.53111 9.78898,11.6551 7.67363,23.1898 -1.30039,7.09371 -4.67835,12.2823 -7.76339,17.0221 -2.85,4.37717 -5.16142,7.92993 2.03977,13.3642 3.77244,2.85 4.50709,8.20276 1.64291,11.9539 -2.86536,3.75237 -8.24646,4.48465 -12.0189,1.63465 -19.8874,-15.0047 -13.6996,-24.5091 -6.07441,-36.2221 2.17323,-3.33662 4.55079,-6.99213 5.25355,-10.8201 0.668504,-3.64607 -1.76575,-6.54449 -3.96378,-9.16182 -6.18189,-7.35945 -11.6114,-13.8201 -2.38229,-26.7236 4.65473,-6.5067 7.63583,-11.185 8.50394,-14.4732 0.329528,-1.24606 -0.0307087,-2.31969 -1.20945,-3.49725 -0.966142,-0.969686 -1.65,-2.11181 -2.05394,-3.32481l-22.4764 0.0011811c7.49646,9.86576 2.61496,17.7189 -3.10276,26.9138 -2.11654,3.40512 -4.43504,7.13386 -5.0504,10.9276 -0.590552,3.65433 1.88858,6.48544 4.12914,9.04253 6.34252,7.23898 11.9114,13.5945 2.96457,26.6669 -4.49646,6.57166 -7.37127,11.3091 -8.18741,14.6799 -0.305906,1.26496 0.0614174,2.32205 1.22953,3.44173 3.42284,3.26575 3.53504,8.6752 0.252756,12.0791 -3.28347,3.40512 -8.72009,3.51733 -12.1429,0.251575 -6.15237,-5.89252 -7.95237,-11.9764 -6.05906,-19.7988 1.38307,-5.71536 5.07166,-12.0142 10.6996,-20.2417 1.48347,-2.16732 -0.00354331,-3.86575 -1.69725,-5.79922 -4.7752,-5.44843 -10.0583,-11.4791 -8.18386,-23.0622 1.16102,-7.16575 4.41378,-12.3992 7.38426,-17.1768 2.7567,-4.43386 4.9937,-8.03268 -2.29016,-13.2933 -1.63701,-1.18228 -2.73189,-2.83229 -3.2315,-4.63111l-21.8221 0c-0.340158,1.51654 -1.10079,2.95984 -2.28189,4.14567 -1.17992,1.17756 -1.53898,2.25118 -1.21063,3.49725 0.868111,3.28937 3.84922,7.96772 8.50394,14.4744 9.22914,12.9012 3.79961,19.3642 -2.3811,26.7236 -2.19921,2.61732 -4.63229,5.51457 -3.96496,9.16064 0.702756,3.82796 3.08032,7.48347 5.25355,10.8201 7.62638,11.7118 13.813,21.2185 -6.0756,36.2221 -3.77126,2.85 -9.15237,2.11772 -12.0177,-1.63465 -2.86536,-3.75118 -2.12953,-9.10394 1.64173,-11.9539 7.20355,-5.43426 4.89095,-8.98701 2.04213,-13.3642 -3.08622,-4.73859 -6.46536,-9.92835 -7.76575,-17.0221 -2.11536,-11.5358 3.02835,-17.6575 7.67599,-23.1898 1.65945,-1.97599 3.11811,-3.71339 1.60158,-5.83229 -5.77914,-8.07875 -9.58938,-14.2984 -11.1071,-20.048 -1.17638,-4.45276 -1.14095,-8.35631 0.223229,-12l-19.4091 0c-0.28937,1.66654 -1.07717,3.26575 -2.36457,4.55788 -1.17874,1.17874 -1.53898,2.25118 -1.21063,3.49725 0.869292,3.28937 3.84922,7.96654 8.50512,14.4744 9.22914,12.9024 3.79961,19.363 -2.38229,26.7236 -2.19921,2.61732 -4.63229,5.51457 -3.96378,9.16064 0.701575,3.82796 3.08032,7.48347 5.25237,10.8201 7.62638,11.713 13.8142,21.2173 -6.07441,36.2221 -3.77244,2.85 -9.15355,2.11772 -12.0177,-1.63347 -2.86536,-3.75237 -2.12953,-9.10394 1.64291,-11.9551 7.20237,-5.43426 4.88977,-8.98583 2.03977,-13.3642 -3.08504,-4.73859 -6.46418,-9.92835 -7.76457,-17.0221 -2.11536,-11.5347 3.02835,-17.6575 7.67481,-23.1898 1.66063,-1.97599 3.11811,-3.71339 1.60158,-5.83229 -5.77914,-8.07875 -9.5882,-14.2984 -11.1071,-20.048 -1.22008,-4.62048 -1.13622,-8.64922 0.383859,-12.411l-17.6882 0.0011811 -4.50355 -0.0011811 0 -22.9713 4.50355 0 0 -31.0784c0,-19.8166 16.2154,-36.0319 36.0319,-36.0319l180.071 0 0 -838.652 -8.76615 -50.1473c0,-17.5772 14.25,-31.8272 31.8272,-31.8272 17.5772,0 31.8284,14.25 31.8284,31.8272l-8.76615 50.1473zm-350.15 928.733l0 77.7591c0,17.4154 -10.3252,31.5355 -23.061,31.5355l-30.6201 0 -54.5646 0 -12.7984 0 -18.9437 0 -15.6225 0 -30.8693 0 -253.282 0c-12.7358,0 -23.061,-14.1201 -23.061,-31.5355l0 -77.7579 -7.75276 0 -4.50355 -0.0011811 0 -22.9713 4.50355 0 0 -31.0784c0,-19.8166 16.2142,-36.0319 36.0319,-36.0319l180.071 0 0 -838.652 -8.76615 -50.1473c0,-17.5772 14.25,-31.8272 31.8272,-31.8272 17.5772,0 31.8272,14.25 31.8272,31.8272l-8.76615 50.1473 0 838.652 180.071 0c19.8177,0 36.0319,16.2154 36.0319,36.0319l0 31.0784 4.50355 0 0 22.9713 -4.50355 0.0011811 -7.75276 -0.0011811z"/>
   </g>
  </g>
  <path class="fil2" d="M1024 -0.0011811c565.539,0 1024,458.462 1024,1024 0,565.539 -458.462,1024 -1024,1024 -565.539,0 -1024,-458.462 -1024,-1024 0,-565.539 458.462,-1024 1024,-1024z"/>
  <path class="fil3" d="M976.162 1462.09l0 90.3721c0,17.4154 -10.3252,31.5355 -23.061,31.5355l-416.7 0c-12.7358,0 -23.061,-14.1201 -23.061,-31.5355l0 -90.3721 462.822 0z"/>
  <path class="fil4" d="M922.481 1584l-54.5646 0 39.8363 -79.9973 14.7284 79.9973zm-67.363 0l-18.9437 0 11.6752 -56.6587 7.26851 56.6587zm-34.5662 0l-30.8681 0 31.5083 -82.7209 -0.640158 82.7209z"/>
  <path class="fil5" d="M721.69 1405.7c0,12.7358 10.3252,23.061 23.061,23.061 12.7358,0 23.061,-10.3252 23.061,-23.061l0 -859.729 8.76615 -50.1473c0,-17.5772 -14.25,-31.8272 -31.8272,-31.8272 -17.5772,0 -31.8272,14.25 -31.8272,31.8272l8.76615 50.1473 0 859.729zm23.061 -917.205c4.37953,0 7.92993,3.55158 7.92993,7.92993 0,4.37953 -3.5504,7.93111 -7.92993,7.93111 -4.37835,0 -7.92993,-3.55158 -7.92993,-7.93111 0,-4.37835 3.55158,-7.92993 7.92993,-7.92993z"/>
  <path class="fil6" d="M541.619 1384.63l406.264 0c19.8177,0 36.0319,16.2154 36.0319,36.0319l0 54.0508 -478.328 0 0 -54.0508c0,-19.8166 16.2142,-36.0319 36.0319,-36.0319z"/>
  <rect class="fil7" x="501.082" y="1451.74" width="487.336" height="22.9709"/>
  <path class="fil3" d="M1099.19 1479.26c3.34134,-3.35433 3.31536,-8.76969 -0.056693,-12.0933 -3.37323,-3.32362 -8.81694,-3.29882 -12.1583,0.056693 -5.9941,5.98465 -7.64882,12.0969 -5.59016,19.8886 1.5189,5.75079 5.32914,11.9705 11.1083,20.0492 1.51536,2.1189 0.0578741,3.85512 -1.60276,5.83229 -4.64646,5.53229 -9.79017,11.6551 -7.67481,23.1898 1.30039,7.09371 4.67953,12.2835 7.76457,17.0232 2.85,4.37599 5.16142,7.92993 -2.04095,13.363 -3.77126,2.85 -4.50709,8.20276 -1.64173,11.9551 2.86536,3.75118 8.24528,4.48347 12.0177,1.63347 19.8886,-15.0047 13.7008,-24.5091 6.0756,-36.2221 -2.17323,-3.33662 -4.55197,-6.99095 -5.25355,-10.8201 -0.668504,-3.64607 1.76575,-6.54331 3.96378,-9.16064 6.18189,-7.36064 11.6114,-13.8213 2.38229,-26.7236 -4.65473,-6.5067 -7.63583,-11.1862 -8.50512,-14.4744 -0.329528,-1.24606 0.0318898,-2.31851 1.21181,-3.49725z"/>
  <path class="fil3" d="M1138.55 1478.85c3.34134,-3.35551 3.31654,-8.76969 -0.056693,-12.0933 -3.37323,-3.32481 -8.81694,-3.29882 -12.1583,0.0555119 -5.9941,5.98583 -7.64882,12.098 -5.58898,19.8898 1.5189,5.75079 5.32796,11.9705 11.1071,20.0492 1.51654,2.1189 0.0578741,3.8563 -1.60158,5.83229 -4.64764,5.53229 -9.79135,11.6539 -7.67599,23.1898 1.30158,7.09371 4.67953,12.2835 7.76457,17.0221 2.85,4.37717 5.1626,7.93111 -2.03977,13.3642 -3.77244,2.85 -4.50827,8.20276 -1.64291,11.9539 2.86536,3.75237 8.24646,4.48465 12.0177,1.63465 19.8886,-15.0047 13.702,-24.5091 6.0756,-36.2221 -2.17323,-3.33662 -4.55197,-6.99213 -5.25355,-10.8201 -0.668504,-3.64607 1.76575,-6.54331 3.96496,-9.16064 6.18071,-7.35945 11.6102,-13.8225 2.3811,-26.7236 -4.65473,-6.5067 -7.63583,-11.1862 -8.50394,-14.4744 -0.329528,-1.24606 0.0307087,-2.31851 1.21063,-3.49725z"/>
  <path class="fil3" d="M1166.03 1578.71c3.42284,3.26575 8.86064,3.15355 12.1429,-0.251575 3.28347,-3.40512 3.17008,-8.81339 -0.252756,-12.0791 -1.16929,-1.11969 -1.53543,-2.17677 -1.22835,-3.44173 0.814961,-3.37087 3.68977,-8.10827 8.18741,-14.6799 8.94568,-13.0725 3.37677,-19.428 -2.96575,-26.6681 -2.23937,-2.55591 -4.71969,-5.38701 -4.12796,-9.04016 0.614174,-3.79488 2.9315,-7.52363 5.04922,-10.9287 7.37953,-11.8689 13.3677,-21.502 -6.86103,-36.1146 -3.83977,-2.77087 -9.21142,-1.92166 -11.9976,1.89803 -2.78622,3.81969 -1.93228,9.163 1.90866,11.9339 7.28268,5.26063 5.04567,8.85946 2.28898,13.2933 -2.97047,4.77874 -6.22441,10.011 -7.38426,17.1768 -1.87441,11.5831 3.40866,17.6138 8.18268,23.0622 1.6937,1.93347 3.18189,3.63189 1.69843,5.79922 -5.62914,8.22757 -9.31654,14.5252 -10.6996,20.2417 -1.89331,7.82245 -0.0944883,13.9075 6.05906,19.7988z"/>
  <path class="fil3" d="M1210.47 1478.03c-3.34134,-3.35551 -3.31536,-8.76969 0.056693,-12.0945 3.37323,-3.32362 8.81694,-3.29764 12.1583,0.056693 5.9941,5.98465 7.64882,12.0969 5.59016,19.8898 -1.5189,5.75079 -5.32914,11.9705 -11.1083,20.0492 -1.51536,2.1189 -0.0578741,3.85512 1.60276,5.83229 4.64646,5.53111 9.78898,11.6551 7.67363,23.1898 -1.30039,7.09371 -4.67835,12.2835 -7.76339,17.0221 -2.85,4.37717 -5.1626,7.92993 2.03977,13.3642 3.77244,2.85 4.50827,8.20276 1.64291,11.9539 -2.86536,3.75237 -8.24646,4.48465 -12.0177,1.63465 -19.8886,-15.0047 -13.7008,-24.5091 -6.0756,-36.2221 2.17205,-3.33662 4.55079,-6.99213 5.25355,-10.8201 0.668504,-3.64607 -1.76575,-6.54449 -3.96378,-9.16064 -6.18308,-7.36064 -11.6114,-13.8225 -2.38229,-26.7236 4.65473,-6.50788 7.63583,-11.1862 8.50394,-14.4744 0.329528,-1.24606 -0.0307087,-2.31969 -1.21063,-3.49725z"/>
  <path class="fil3" d="M1260.07 1465.38c-3.42402,-3.26575 -8.86064,-3.15355 -12.1441,0.251575 -3.28347,3.40512 -3.17008,8.81339 0.252756,12.0791 1.16929,1.11969 1.53543,2.17677 1.22953,3.44173 -0.816142,3.37087 -3.69095,8.10827 -8.18859,14.6799 -8.94568,13.0736 -3.37677,19.428 2.96575,26.6681 2.23937,2.55591 4.71969,5.38701 4.12796,9.04016 -0.614174,3.79607 -2.9315,7.52363 -5.04922,10.9276 -7.37953,11.8701 -13.3689,21.502 6.86103,36.1158 3.83977,2.77087 9.21142,1.92166 11.9976,-1.89803 2.78504,-3.81969 1.9311,-9.163 -1.90866,-11.9339 -7.28268,-5.26063 -5.04567,-8.85946 -2.28898,-13.2933 2.97166,-4.77874 6.22441,-10.0099 7.38426,-17.1768 1.87441,-11.5819 -3.40866,-17.6138 -8.18386,-23.0622 -1.6937,-1.93347 -3.18071,-3.63189 -1.69843,-5.79922 5.63032,-8.22757 9.31772,-14.5252 10.7008,-20.2406 1.89213,-7.82245 0.0944883,-13.9075 -6.05788,-19.8z"/>
  <path class="fil3" d="M1292.72 1477.21c3.34252,-3.35551 3.31654,-8.76969 -0.056693,-12.0945 -3.37205,-3.32362 -8.81575,-3.29764 -12.1583,0.056693 -5.99292,5.98465 -7.64882,12.0969 -5.58898,19.8898 1.5189,5.75079 5.32796,11.9705 11.1071,20.0492 1.51654,2.1189 0.0590552,3.85512 -1.60158,5.83229 -4.64764,5.53111 -9.79017,11.6539 -7.67481,23.1898 1.30039,7.09371 4.67953,12.2835 7.76457,17.0221 2.85,4.37717 5.16142,7.92993 -2.04095,13.3642 -3.77126,2.85 -4.50709,8.20158 -1.64173,11.9539 2.86418,3.75237 8.24528,4.48347 12.0177,1.63347 19.8886,-15.0047 13.7008,-24.5079 6.0756,-36.2209 -2.17323,-3.3378 -4.55197,-6.99213 -5.25355,-10.8201 -0.668504,-3.64607 1.76457,-6.54449 3.96378,-9.16182 6.18189,-7.35945 11.6114,-13.8213 2.38229,-26.7236 -4.65591,-6.5067 -7.63701,-11.185 -8.50512,-14.4732 -0.329528,-1.24606 0.0307087,-2.31969 1.21063,-3.49725z"/>
  <path class="fil3" d="M1332.08 1479.26c3.34134,-3.35433 3.31536,-8.76969 -0.056693,-12.0933 -3.37323,-3.32362 -8.81694,-3.29882 -12.1583,0.056693 -5.9941,5.98465 -7.64882,12.0969 -5.59016,19.8886 1.5189,5.75079 5.32914,11.9705 11.1083,20.0492 1.51536,2.1189 0.0578741,3.85512 -1.60276,5.83229 -4.64646,5.53229 -9.79017,11.6551 -7.67481,23.1898 1.30039,7.09371 4.67953,12.2835 7.76457,17.0232 2.85,4.37599 5.16142,7.92993 -2.04095,13.363 -3.77126,2.85 -4.50709,8.20276 -1.64173,11.9551 2.86536,3.75118 8.24528,4.48347 12.0177,1.63347 19.8886,-15.0047 13.7008,-24.5091 6.0756,-36.2221 -2.17323,-3.33662 -4.55197,-6.99095 -5.25355,-10.8201 -0.668504,-3.64607 1.76575,-6.54331 3.96378,-9.16064 6.18189,-7.36064 11.6114,-13.8213 2.38229,-26.7236 -4.65473,-6.5067 -7.63583,-11.1862 -8.50512,-14.4744 -0.328347,-1.24606 0.0318898,-2.31851 1.21181,-3.49725z"/>
  <path class="fil3" d="M1371.43 1478.85c3.34134,-3.35551 3.31536,-8.76969 -0.056693,-12.0933 -3.37323,-3.32481 -8.81694,-3.29882 -12.1583,0.0555119 -5.99528,5.98583 -7.64882,12.098 -5.59016,19.8898 1.5189,5.75079 5.32914,11.9705 11.1083,20.0492 1.51536,2.1189 0.0578741,3.8563 -1.60276,5.83229 -4.64646,5.53229 -9.79017,11.6539 -7.67481,23.1898 1.30039,7.09371 4.67953,12.2835 7.76457,17.0221 2.85,4.37717 5.1626,7.93111 -2.03977,13.3642 -3.77244,2.85 -4.50827,8.20276 -1.64291,11.9539 2.86536,3.75237 8.24528,4.48465 12.0177,1.63465 19.8886,-15.0047 13.7008,-24.5091 6.0756,-36.2221 -2.17323,-3.33662 -4.55197,-6.99213 -5.25355,-10.8201 -0.668504,-3.64607 1.76575,-6.54331 3.96496,-9.16064 6.18071,-7.35945 11.6102,-13.8225 2.3811,-26.7236 -4.65473,-6.5067 -7.63583,-11.1862 -8.50394,-14.4744 -0.329528,-1.24606 0.0307087,-2.31851 1.21063,-3.49725z"/>
  <path class="fil3" d="M1398.91 1578.71c3.42284,3.26575 8.86064,3.15355 12.1441,-0.251575 3.28347,-3.40512 3.17008,-8.81339 -0.252756,-12.0791 -1.16929,-1.11969 -1.53543,-2.17677 -1.22953,-3.44173 0.816142,-3.37087 3.69095,-8.10827 8.18741,-14.6799 8.94686,-13.0725 3.37796,-19.428 -2.96457,-26.6681 -2.24055,-2.55591 -4.71969,-5.38701 -4.12914,-9.04016 0.615355,-3.79488 2.93268,-7.52363 5.04922,-10.9287 7.38071,-11.8689 13.3689,-21.502 -6.85985,-36.1146 -3.83977,-2.77087 -9.21261,-1.92166 -11.9976,1.89803 -2.78622,3.81969 -1.93228,9.163 1.90748,11.9339 7.28386,5.26063 5.04685,8.85946 2.29016,13.2933 -2.97166,4.77874 -6.22441,10.011 -7.38426,17.1768 -1.87441,11.5831 3.40866,17.6138 8.18268,23.0622 1.6937,1.93347 3.18189,3.63189 1.69843,5.79922 -5.62914,8.22757 -9.31654,14.5252 -10.6996,20.2417 -1.89331,7.82245 -0.0944883,13.9075 6.05788,19.7988z"/>
  <path class="fil3" d="M1443.35 1478.03c-3.34134,-3.35551 -3.31654,-8.76969 0.056693,-12.0945 3.37323,-3.32362 8.81694,-3.29764 12.1583,0.056693 5.9941,5.98465 7.64882,12.0969 5.59016,19.8898 -1.5189,5.75079 -5.32914,11.9705 -11.1083,20.0492 -1.51654,2.1189 -0.0590552,3.85512 1.60158,5.83229 4.64764,5.53111 9.79017,11.6551 7.67481,23.1898 -1.30039,7.09371 -4.67835,12.2835 -7.76457,17.0221 -2.84882,4.37717 -5.16142,7.92993 2.04095,13.3642 3.77244,2.85 4.50827,8.20276 1.64291,11.9539 -2.86536,3.75237 -8.24646,4.48465 -12.0189,1.63465 -19.8886,-15.0047 -13.6996,-24.5091 -6.07441,-36.2221 2.17205,-3.33662 4.55079,-6.99213 5.25237,-10.8201 0.668504,-3.64607 -1.76457,-6.54449 -3.96378,-9.16064 -6.18189,-7.36064 -11.6114,-13.8225 -2.3811,-26.7236 4.65473,-6.50788 7.63583,-11.1862 8.50394,-14.4744 0.329528,-1.24606 -0.0307087,-2.31969 -1.21063,-3.49725z"/>
  <path class="fil3" d="M1492.95 1465.38c-3.42284,-3.26575 -8.86064,-3.15355 -12.1429,0.251575 -3.28347,3.40512 -3.17008,8.81339 0.252756,12.0791 1.16811,1.11969 1.53543,2.17677 1.22835,3.44173 -0.814961,3.37087 -3.68977,8.10827 -8.18741,14.6799 -8.94686,13.0736 -3.37796,19.428 2.96457,26.6681 2.24055,2.55591 4.72087,5.38701 4.12914,9.04016 -0.614174,3.79607 -2.9315,7.52363 -5.04922,10.9276 -7.38071,11.8701 -13.3689,21.502 6.85985,36.1158 3.84095,2.77087 9.21261,1.92166 11.9976,-1.89803 2.78622,-3.81969 1.93228,-9.163 -1.90748,-11.9339 -7.28386,-5.26063 -5.04567,-8.85946 -2.28898,-13.2933 2.97047,-4.77874 6.22441,-10.0099 7.38426,-17.1768 1.87441,-11.5819 -3.40985,-17.6138 -8.18386,-23.0622 -1.6937,-1.93347 -3.18189,-3.63189 -1.69843,-5.79922 5.63032,-8.22757 9.31772,-14.5252 10.7008,-20.2406 1.89213,-7.82245 0.0933072,-13.9075 -6.05906,-19.8z"/>
  <path class="fil3" d="M1525.6 1477.21c3.34134,-3.35551 3.31654,-8.76969 -0.056693,-12.0945 -3.37323,-3.32362 -8.81694,-3.29764 -12.1583,0.056693 -5.99292,5.98465 -7.64882,12.0969 -5.58898,19.8898 1.5189,5.75079 5.32796,11.9705 11.1071,20.0492 1.51654,2.1189 0.0590552,3.85512 -1.60158,5.83229 -4.64764,5.53111 -9.79017,11.6539 -7.67481,23.1898 1.30039,7.09371 4.67835,12.2835 7.76457,17.0221 2.84882,4.37717 5.16142,7.92993 -2.04095,13.3642 -3.77244,2.85 -4.50709,8.20158 -1.64291,11.9539 2.86536,3.75237 8.24646,4.48347 12.0189,1.63347 19.8886,-15.0047 13.6996,-24.5079 6.07441,-36.2209 -2.17205,-3.3378 -4.55079,-6.99213 -5.25237,-10.8201 -0.668504,-3.64607 1.76457,-6.54449 3.96378,-9.16182 6.18189,-7.35945 11.6114,-13.8213 2.3811,-26.7236 -4.65473,-6.5067 -7.63583,-11.185 -8.50394,-14.4732 -0.329528,-1.24606 0.0307087,-2.31969 1.21063,-3.49725z"/>
  <path class="fil8" d="M1280.19 1405.7c0,12.7358 10.3264,23.061 23.061,23.061 12.7358,0 23.0622,-10.3252 23.0622,-23.061l0 -859.729 8.76615 -50.1473c0,-17.5772 -14.2512,-31.8272 -31.8284,-31.8272 -17.5772,0 -31.8272,14.25 -31.8272,31.8272l8.76615 50.1473 0 859.729zm23.061 -917.205c4.37953,0 7.93111,3.55158 7.93111,7.92993 0,4.37953 -3.55158,7.93111 -7.93111,7.93111 -4.37835,0 -7.92993,-3.55158 -7.92993,-7.93111 0,-4.37835 3.55158,-7.92993 7.92993,-7.92993z"/>
  <path class="fil9" d="M1100.12 1384.63l406.265 0c19.8166,0 36.0319,16.2154 36.0319,36.0319l0 54.0508 -478.329 0 0 -54.0508c0,-19.8166 16.2154,-36.0319 36.0319,-36.0319z"/>
  <rect class="fil10" x="1059.58" y="1451.74" width="487.336" height="22.9709"/>
 </g>
</svg>
