<?xml version="1.0" encoding="UTF-8"?>
<!DOCTYPE svg PUBLIC "-//W3C//DTD SVG 1.1//EN" "http://www.w3.org/Graphics/SVG/1.1/DTD/svg11.dtd">
<!-- Creator: CorelDRAW -->
<svg xmlns="http://www.w3.org/2000/svg" xml:space="preserve" width="2048px" height="2048px" style="shape-rendering:geometricPrecision; text-rendering:geometricPrecision; image-rendering:optimizeQuality; fill-rule:evenodd; clip-rule:evenodd"
viewBox="0 0 2048 2048"
 xmlns:xlink="http://www.w3.org/1999/xlink">
 <defs>
  <style type="text/css">
   <![CDATA[
    .fil2 {fill:none}
    .fil3 {fill:#006064}
    .fil12 {fill:#00ACC1}
    .fil4 {fill:#263238}
    .fil10 {fill:#269EAE}
    .fil8 {fill:#26C6DA}
    .fil1 {fill:#455A64}
    .fil0 {fill:#78909C}
    .fil11 {fill:#B71C1C}
    .fil5 {fill:#78909C;fill-rule:nonzero}
    .fil7 {fill:#BD4722;fill-rule:nonzero}
    .fil9 {fill:#D0D9DD;fill-rule:nonzero}
    .fil6 {fill:#F4511E;fill-rule:nonzero}
   ]]>
  </style>
   <clipPath id="id0">
    <path d="M1024 -0.0011811c565.539,0 1024,458.462 1024,1024 0,565.539 -458.462,1024 -1024,1024 -565.539,0 -1024,-458.462 -1024,-1024 0,-565.539 458.462,-1024 1024,-1024z"/>
   </clipPath>
 </defs>
 <g id="Layer_x0020_1">
  <metadata id="CorelCorpID_0Corel-Layer"/>
  <path class="fil0" d="M1024 -0.0011811c565.539,0 1024,458.462 1024,1024 0,565.539 -458.462,1024 -1024,1024 -565.539,0 -1024,-458.462 -1024,-1024 0,-565.539 458.462,-1024 1024,-1024z"/>
  <g style="clip-path:url(#id0)">
   <g id="_451247816">
    <g>
     <polygon id="_4533746401" class="fil1" points="1285.96,506.717 2421.84,1642.6 2423.02,1644.13 2424.07,1645.76 2424.98,1647.48 2425.74,1649.29 2426.35,1651.17 2426.79,1653.12 1290.91,517.241 1290.47,515.291 1289.86,513.408 1289.1,511.602 1288.19,509.879 1287.14,508.249 "/>
     <polygon id="_453374856" class="fil1" points="1308.3,1424.21 2444.18,2560.09 2443.1,2560.49 2442,2560.85 2440.87,2561.16 2439.71,2561.41 2438.54,2561.61 2437.34,2561.76 2436.12,2561.84 2434.89,2561.87 1299.01,1425.99 1300.24,1425.96 1301.46,1425.87 1302.66,1425.73 1303.83,1425.53 1304.99,1425.27 1306.12,1424.97 1307.22,1424.61 "/>
     <polygon id="_453375384" class="fil1" points="1291.27,1424.86 2427.15,2560.74 2427.03,2563.05 2426.69,2565.29 2426.13,2567.46 2425.37,2569.54 2424.42,2571.52 2423.28,2573.38 2421.98,2575.12 2420.52,2576.73 2418.92,2578.19 2417.18,2579.49 2415.31,2580.62 2413.34,2581.57 2411.26,2582.33 2409.09,2582.89 2406.85,2583.23 2404.53,2583.35 1268.65,1447.47 1270.97,1447.35 1273.21,1447.01 1275.38,1446.45 1277.46,1445.69 1279.43,1444.74 1281.3,1443.61 1283.04,1442.3 1284.64,1440.84 1286.1,1439.24 1287.4,1437.5 1288.54,1435.63 1289.49,1433.66 1290.25,1431.58 1290.81,1429.41 1291.15,1427.17 "/>
     <polygon id="_453375504" class="fil1" points="1299.01,1425.99 2434.89,2561.87 2433.88,2561.85 2432.87,2561.79 2431.88,2561.69 2430.9,2561.56 2429.94,2561.39 2428.99,2561.18 2428.06,2560.93 2427.15,2560.65 1291.27,1424.77 1292.18,1425.05 1293.11,1425.29 1294.06,1425.5 1295.02,1425.68 1296,1425.81 1296.99,1425.91 1297.99,1425.97 "/>
     <polygon id="_453375576" class="fil1" points="1291.27,1424.77 2427.15,2560.65 2427.15,2560.74 1291.27,1424.86 "/>
     <polygon id="_453375720" class="fil1" points="1353.52,1455.28 2489.4,2591.16 2489.28,2593.47 2488.94,2595.72 2488.38,2597.88 2487.62,2599.96 2486.67,2601.94 2485.54,2603.8 2484.24,2605.54 2482.78,2607.15 2481.17,2608.61 2479.43,2609.91 2477.57,2611.04 2475.59,2611.99 2473.51,2612.76 2471.35,2613.31 2469.1,2613.66 2466.79,2613.77 1330.91,1477.89 1333.22,1477.77 1335.47,1477.43 1337.63,1476.87 1339.71,1476.11 1341.69,1475.16 1343.55,1474.03 1345.29,1472.73 1346.9,1471.27 1348.36,1469.66 1349.66,1467.92 1350.79,1466.06 1351.74,1464.08 1352.5,1462 1353.06,1459.84 1353.4,1457.59 "/>
     <polygon id="_334266592" class="fil1" points="1330.91,1477.89 2466.79,2613.77 2464.48,2613.66 2462.23,2613.31 2460.07,2612.76 2457.99,2611.99 2456.01,2611.04 2454.15,2609.91 2452.41,2608.61 2450.8,2607.15 1314.92,1471.27 1316.53,1472.73 1318.27,1474.03 1320.13,1475.16 1322.11,1476.11 1324.19,1476.87 1326.35,1477.43 1328.6,1477.77 "/>
     <polygon id="_334266664" class="fil1" points="808.413,1002.46 1944.29,2138.34 1942.69,2137.56 1941.21,2136.66 1939.87,2135.65 1938.65,2134.54 802.766,998.657 803.988,999.77 805.333,1000.78 806.807,1001.67 "/>
     <polygon id="_334266856" class="fil1" points="1203.64,1447.47 2339.52,2583.35 2337.02,2583.41 2334.55,2583.59 2332.12,2583.88 2329.73,2584.29 2327.38,2584.81 2325.08,2585.43 2322.82,2586.16 2320.62,2586.99 2318.47,2587.91 2316.39,2588.93 2314.36,2590.04 2312.4,2591.24 2310.5,2592.53 2308.68,2593.9 2306.93,2595.35 2305.26,2596.88 1169.37,1461 1171.05,1459.47 1172.8,1458.02 1174.62,1456.65 1176.52,1455.36 1178.48,1454.16 1180.5,1453.05 1182.59,1452.03 1184.74,1451.1 1186.94,1450.28 1189.2,1449.55 1191.5,1448.92 1193.85,1448.41 1196.24,1448 1198.67,1447.71 1201.14,1447.53 "/>
     <polygon id="_334266976" class="fil1" points="1169.37,1461 2305.26,2596.88 2303.7,2598.44 2302.22,2600.07 2300.83,2601.77 2299.52,2603.53 2298.29,2605.35 2297.16,2607.22 2296.12,2609.15 2295.18,2611.13 2294.34,2613.16 2293.6,2615.23 2292.96,2617.35 2292.44,2619.5 2292.02,2621.69 2291.72,2623.92 2291.54,2626.17 2291.48,2628.45 1155.6,1492.57 1155.66,1490.29 1155.84,1488.03 1156.14,1485.81 1156.55,1483.62 1157.08,1481.46 1157.72,1479.35 1158.45,1477.28 1159.3,1475.25 1160.24,1473.27 1161.28,1471.34 1162.41,1469.46 1163.64,1467.65 1164.95,1465.89 1166.34,1464.19 1167.82,1462.56 "/>
     <polygon id="_334266616" class="fil1" points="1155.6,1492.57 2291.48,2628.45 2291.48,2697.27 1155.6,1561.39 "/>
     <polygon id="_334266424" class="fil1" points="1155.6,1561.39 2291.48,2697.27 2291.36,2699.58 2291.02,2701.82 2290.46,2703.99 2289.7,2706.07 2288.75,2708.05 2287.62,2709.91 2286.31,2711.65 2284.85,2713.26 2283.25,2714.72 2281.51,2716.02 2279.64,2717.15 2277.67,2718.1 2275.59,2718.86 2273.42,2719.42 2271.18,2719.76 2268.87,2719.88 1132.99,1584 1135.3,1583.88 1137.54,1583.54 1139.71,1582.98 1141.79,1582.22 1143.76,1581.27 1145.63,1580.14 1147.37,1578.83 1148.97,1577.37 1150.43,1575.77 1151.74,1574.03 1152.87,1572.16 1153.82,1570.19 1154.58,1568.11 1155.14,1565.94 1155.48,1563.7 "/>
     <polygon id="_334266640" class="fil1" points="1132.99,1584 2268.87,2719.88 2098,2719.88 962.121,1584 "/>
     <polygon id="_334266712" class="fil1" points="962.121,1584 2098,2719.88 1984.88,2719.88 848.997,1584 "/>
     <polygon id="_334266544" class="fil1" points="823.354,1558.52 1959.24,2694.41 1958.41,2693.8 1957.58,2693.54 1956.74,2693.51 1955.9,2693.59 820.014,1557.71 820.857,1557.63 821.695,1557.66 822.526,1557.92 "/>
     <polygon id="_334267744" class="fil1" points="820.014,1557.71 1955.9,2693.59 1955.51,2693.64 1955.11,2693.69 1954.72,2693.73 1954.33,2693.78 1953.94,2693.82 1953.55,2693.87 1953.16,2693.91 1952.77,2693.96 816.885,1558.08 817.277,1558.03 817.668,1557.99 818.06,1557.94 818.451,1557.9 818.842,1557.85 819.233,1557.8 819.624,1557.76 "/>
     <polygon id="_334267600" class="fil1" points="816.885,1558.08 1952.77,2693.96 1952.32,2694.45 1951.85,2694.92 1951.34,2695.36 1950.81,2695.78 1950.25,2696.16 1949.66,2696.52 1949.05,2696.84 1948.41,2697.13 812.528,1561.24 813.167,1560.96 813.78,1560.63 814.367,1560.28 814.928,1559.89 815.46,1559.48 815.964,1559.04 816.44,1558.57 "/>
     <polygon id="_334267408" class="fil1" points="848.997,1584 1984.88,2719.88 1982.95,2719.83 1981.05,2719.61 1979.19,2719.24 1977.37,2718.71 1975.62,2718.04 1973.93,2717.22 1972.31,2716.27 1970.78,2715.19 1969.33,2713.99 833.453,1578.11 834.895,1579.31 836.428,1580.39 838.045,1581.34 839.736,1582.15 841.492,1582.83 843.305,1583.35 845.167,1583.73 847.067,1583.94 "/>
     <polygon id="_334267312" class="fil1" points="645.089,1534.59 1780.97,2670.48 1778.61,2668.58 1776.18,2666.8 1773.71,2665.11 1771.18,2663.52 1768.6,2662.02 1765.98,2660.61 1763.31,2659.28 1760.6,2658.03 1757.85,2656.85 1755.06,2655.74 1752.24,2654.7 1749.38,2653.72 1746.5,2652.79 1743.59,2651.92 1740.65,2651.1 1737.69,2650.32 1734.72,2649.57 1731.72,2648.87 1728.72,2648.19 1725.69,2647.54 1722.67,2646.91 1719.63,2646.29 1716.58,2645.69 1713.54,2645.1 1710.5,2644.51 1707.45,2643.92 571.574,1508.04 574.615,1508.63 577.66,1509.22 580.704,1509.81 583.746,1510.41 586.784,1511.03 589.813,1511.66 592.835,1512.31 595.843,1512.99 598.837,1513.69 601.813,1514.43 604.771,1515.22 607.706,1516.04 610.616,1516.91 613.5,1517.84 616.354,1518.82 619.176,1519.86 621.964,1520.97 624.714,1522.14 627.426,1523.4 630.095,1524.72 632.719,1526.14 635.297,1527.64 637.825,1529.23 640.302,1530.91 642.725,1532.7 "/>
     <polygon id="_334267144" class="fil1" points="661.312,1517.55 1797.19,2653.43 1799.88,2655.92 1802.52,2658.57 1805.12,2661.37 1807.68,2664.33 1810.19,2667.46 1812.67,2670.76 676.784,1534.88 674.313,1531.58 671.8,1528.45 669.243,1525.49 666.643,1522.69 663.999,1520.04 "/>
     <polygon id="_334267288" class="fil1" points="571.574,1508.04 1707.45,2643.92 1706.28,2643.7 1705.1,2643.47 1703.92,2643.23 1702.74,2643 1701.56,2642.77 1700.39,2642.54 1699.21,2642.31 1698.03,2642.07 1696.86,2641.84 1695.68,2641.6 1694.5,2641.36 1693.33,2641.12 1692.15,2640.88 1690.97,2640.64 1689.8,2640.4 1688.62,2640.16 1687.24,2639.87 1685.87,2639.57 1684.48,2639.26 1683.1,2638.94 1681.72,2638.62 1680.34,2638.3 1678.95,2637.96 1677.57,2637.62 1676.19,2637.28 1674.8,2636.94 1673.42,2636.6 1672.05,2636.25 1670.67,2635.9 1669.3,2635.56 1667.93,2635.21 1666.56,2634.87 530.679,1498.99 532.046,1499.33 533.416,1499.68 534.788,1500.02 536.164,1500.37 537.543,1500.71 538.923,1501.06 540.304,1501.4 541.687,1501.74 543.071,1502.08 544.454,1502.41 545.839,1502.74 547.222,1503.06 548.604,1503.38 549.984,1503.69 551.363,1503.99 552.74,1504.28 553.916,1504.52 555.091,1504.76 556.268,1505 557.444,1505.24 558.621,1505.48 559.797,1505.72 560.974,1505.95 562.151,1506.19 563.328,1506.42 564.506,1506.66 565.684,1506.89 566.861,1507.12 568.039,1507.35 569.217,1507.58 570.395,1507.81 "/>
     <polygon id="_334267504" class="fil1" points="530.679,1498.99 1666.56,2634.87 1665.33,2634.57 1664.09,2634.26 1662.84,2633.96 1661.58,2633.65 1660.32,2633.34 1659.05,2633.03 1657.78,2632.72 1656.51,2632.41 1655.24,2632.09 1653.97,2631.76 1652.71,2631.43 1651.46,2631.09 1650.21,2630.75 1648.98,2630.39 1647.76,2630.03 1646.55,2629.66 510.671,1493.78 511.878,1494.15 513.1,1494.51 514.333,1494.86 515.578,1495.21 516.832,1495.55 518.092,1495.88 519.358,1496.2 520.627,1496.52 521.898,1496.84 523.167,1497.15 524.436,1497.46 525.7,1497.77 526.959,1498.07 528.208,1498.38 529.45,1498.68 "/>
     <polygon id="_334268032" class="fil1" points="510.671,1493.78 1646.55,2629.66 1645.43,2629.25 1644.38,2628.74 1643.4,2628.13 1642.5,2627.44 506.615,1491.56 507.521,1492.25 508.502,1492.85 509.553,1493.37 "/>
     <polygon id="_334268464" class="fil1" points="676.784,1534.88 1812.67,2670.76 1813.62,2672.02 1814.63,2673.23 1815.69,2674.37 1816.8,2675.47 1817.96,2676.51 682.077,1540.63 680.921,1539.59 679.812,1538.49 678.752,1537.34 677.741,1536.14 "/>
     <polygon id="_334268080" class="fil1" points="812.528,1561.24 1948.41,2697.13 1945.9,2698.14 1943.34,2699.13 1940.72,2700.09 1938.05,2701.02 1935.33,2701.92 1932.57,2702.79 1929.77,2703.63 1926.93,2704.44 1924.06,2705.21 1921.15,2705.96 1918.22,2706.67 1915.26,2707.34 1912.29,2707.98 1909.29,2708.59 1906.29,2709.16 1903.27,2709.69 1900.25,2710.19 1897.22,2710.64 1894.19,2711.06 1891.17,2711.44 1888.15,2711.78 1885.15,2712.08 1882.15,2712.33 1879.18,2712.55 1876.22,2712.72 1873.29,2712.85 1870.39,2712.93 1867.52,2712.97 1864.68,2712.97 1861.87,2712.92 1859.11,2712.82 1856.4,2712.67 1854.2,2712.52 1851.99,2712.33 1849.78,2712.1 1847.57,2711.84 1845.36,2711.55 1843.15,2711.21 1840.95,2710.83 1838.75,2710.41 1836.57,2709.95 1834.39,2709.44 1832.23,2708.89 1830.09,2708.29 1827.96,2707.64 1825.86,2706.94 1823.77,2706.19 1821.71,2705.39 1819.68,2704.53 1817.68,2703.62 1815.7,2702.65 1813.76,2701.62 1811.86,2700.54 1809.99,2699.39 1808.16,2698.18 1806.38,2696.91 1804.63,2695.57 1802.93,2694.17 667.053,1558.28 668.751,1559.69 670.495,1561.03 672.282,1562.3 674.11,1563.51 675.977,1564.65 677.882,1565.74 679.823,1566.77 681.797,1567.74 683.8,1568.65 685.832,1569.51 687.892,1570.31 689.976,1571.06 692.082,1571.76 694.208,1572.41 696.353,1573.01 698.513,1573.56 700.686,1574.07 702.872,1574.53 705.067,1574.95 707.268,1575.33 709.476,1575.66 711.687,1575.96 713.898,1576.22 716.109,1576.45 718.315,1576.63 720.517,1576.79 723.233,1576.93 725.993,1577.03 728.795,1577.08 731.634,1577.09 734.508,1577.05 737.411,1576.97 740.343,1576.84 743.298,1576.67 746.273,1576.45 749.266,1576.2 752.272,1575.9 755.288,1575.56 758.312,1575.18 761.339,1574.76 764.366,1574.3 767.39,1573.81 770.406,1573.28 773.414,1572.71 776.407,1572.1 779.382,1571.46 782.338,1570.78 785.27,1570.07 788.174,1569.33 791.047,1568.55 793.888,1567.75 796.691,1566.91 799.452,1566.04 802.17,1565.14 804.839,1564.21 807.458,1563.25 810.022,1562.26 "/>
     <polygon id="_334268440" class="fil1" points="1268.65,1447.47 2404.53,2583.35 2339.52,2583.35 1203.64,1447.47 "/>
     <polygon id="_334268104" class="fil1" points="1353.52,486.611 2489.4,1622.49 2489.4,2591.16 1353.52,1455.28 "/>
     <polygon id="_334267960" class="fil1" points="1348.36,472.229 2484.24,1608.11 2485.54,1609.85 2486.67,1611.72 2487.62,1613.69 2488.38,1615.77 2488.94,1617.94 2489.28,1620.18 2489.4,1622.49 1353.52,486.611 1353.4,484.3 1353.06,482.054 1352.5,479.887 1351.74,477.811 1350.79,475.833 1349.66,473.97 "/>
    </g>
    <path id="_451247192" class="fil1" d="M1353.52 486.611l0 968.668c0,12.4866 -10.1244,22.611 -22.611,22.611 -12.4878,0 -22.6122,-10.1244 -22.6122,-22.611l0 -31.0736c-2.83347,1.14685 -5.97756,1.78583 -9.2882,1.78583 -2.72008,0 -5.32796,-0.431103 -7.74331,-1.22126l0 0.0862205c0,12.4878 -10.1244,22.6122 -22.6122,22.6122l-65.0103 0c-13.4315,0 -25.5579,5.18268 -34.2685,13.5307 -8.5004,8.14725 -13.7788,19.3276 -13.7788,31.5733l0 68.8134c0,12.4878 -10.1232,22.6122 -22.611,22.6122l-170.864 0 -113.124 0c-10.3595,0.155906 -19.8095,-6.86575 -22.3134,-17.3622l0 -0.0389764c-2.24646,-9.41221 -4.40788,-9.15473 -6.66969,-8.88544 -1.04055,0.124016 -2.08347,0.248032 -3.12874,0.366142 -1.14803,1.34528 -2.61969,2.44606 -4.35709,3.16772 -26.413,10.9677 -63.2859,17.354 -92.0115,15.5445 -23.4449,-1.47638 -48.189,-8.4815 -62.5678,-28.3937 -20.6457,-28.5921 -53.9563,-34.0524 -86.3753,-40.3536 -6.28583,-1.22126 -12.5634,-2.46378 -18.8339,-3.76654 -7.33583,-1.52362 -14.7839,-3.4689 -22.0606,-5.28662 -6.52323,-1.62756 -13.6134,-3.21024 -20.0079,-5.20867 -6.13819,-1.92047 -9.5752,-8.42717 -7.66182,-14.5736 1.90984,-6.12993 8.42363,-9.57166 14.5571,-7.65355 5.9752,1.86969 12.6685,3.32599 18.7677,4.84961 6.9567,1.73622 14.1366,3.67205 21.1465,5.12717 6.1193,1.27087 12.2634,2.45079 18.3992,3.64488 41.3032,8.03032 74.7827,13.5284 100.904,49.7056 9.91772,13.7339 29.302,17.6917 45.1843,18.6921 17.452,1.09961 37.8815,-1.12205 56.6115,-5.73308 -20.0764,-21.5504 -34.0335,-82.5426 -29.8961,-247.012 2.58898,-102.923 24.3815,-204.147 59.7296,-298.364 -17.8512,-7.79292 -12.5055,-35.0953 -4.44449,-65.8914 8.54056,-32.6268 14.7768,-45.1241 36.691,-39.3874 4.27796,1.11969 8.21575,2.76024 11.7177,4.9193 41.1095,-81.6757 92.0198,-155.797 148.277,-218.169l0 -0.108662 0 -42.6213c0,-12.4878 10.1244,-22.6122 22.6122,-22.6122l43.0571 0c30.15,-26.7662 61.4032,-50.2607 93.189,-69.9378 22.8638,-14.1555 45.9544,-26.2831 69.0591,-36.1807 10.3748,-4.44567 20.7532,-8.43898 31.115,-11.9669 2.74843,-1.18937 5.78032,-1.84961 8.96694,-1.84961 11.113,0 20.354,8.01733 22.2543,18.5835 2.51457,-0.86693 5.24646,-1.34173 8.10119,-1.34173 3.31063,0 6.45473,0.638977 9.2882,1.78583l0 -31.0736c0,-12.4866 10.1244,-22.6122 22.6122,-22.6122 12.4866,0 22.611,10.1256 22.611,22.6122z"/>
   </g>
  </g>
  <path class="fil2" d="M1024 -0.0011811c565.539,0 1024,458.462 1024,1024 0,565.539 -458.462,1024 -1024,1024 -565.539,0 -1024,-458.462 -1024,-1024 0,-565.539 458.462,-1024 1024,-1024z"/>
  <g id="_340678688">
   <path id="_340680416" class="fil3" d="M840.66 897.184c21.9154,5.73662 34.8733,25.1433 26.3327,57.7701 -8.54056,32.6268 -33.228,54.4264 -55.1422,48.6898 -21.9142,-5.73544 -16.4221,-34.4457 -7.8815,-67.0725 8.54056,-32.6268 14.7768,-45.1241 36.691,-39.3874z"/>
   <path id="_340680488" class="fil4" d="M812.528 1561.24c5.91024,-2.45433 8.73662,-9.29646 6.28229,-15.2055 -2.45433,-5.91142 -9.29528,-8.7378 -15.2055,-6.28347 -23.687,9.83741 -55.8993,15.4382 -81.6367,13.8165 -15.8823,-1.00039 -35.2666,-4.95827 -45.1843,-18.6921 -26.1213,-36.1772 -59.6008,-41.6752 -100.904,-49.7056 -6.13583,-1.1941 -12.2799,-2.37402 -18.3992,-3.64488 -7.00985,-1.45512 -14.1898,-3.39095 -21.1465,-5.12717 -6.09922,-1.52362 -12.7925,-2.97992 -18.7677,-4.84961 -6.13347,-1.91811 -12.6473,1.52362 -14.5571,7.65355 -1.91339,6.14646 1.52362,12.6532 7.66182,14.5736 6.39449,1.99843 13.4847,3.58111 20.0079,5.20867 7.27678,1.81772 14.7248,3.763 22.0606,5.28662 6.27048,1.30276 12.548,2.54528 18.8339,3.76654 32.4189,6.30119 65.7296,11.7614 86.3753,40.3536 14.3788,19.9122 39.1229,26.9173 62.5678,28.3937 28.7256,1.80945 65.5985,-4.57678 92.0115,-15.5445z"/>
   <path id="_340680512" class="fil5" d="M1321.62 536.195c0,-11.2087 -10.1244,-20.2961 -22.611,-20.2961 -12.4878,0 -22.6122,9.08741 -22.6122,20.2961l0 869.499c0,11.2099 10.1244,20.2973 22.6122,20.2973 12.4866,0 22.611,-9.08741 22.611,-20.2973l0 -869.499z"/>
   <path id="_340680080" class="fil6" d="M1024.92 1157.12l0 -158.278c0,-6.24331 5.06221,-11.3067 11.3055,-11.3067l45.2221 0c1.98071,0 3.84331,0.510237 5.4626,1.40551l0 -22.2201 22.6099 0 0 239.978 -22.6099 0 0 -39.6768c-1.61929,0.895276 -3.48189,1.40551 -5.4626,1.40551l-45.2221 0c-6.24331,0 -11.3055,-5.06339 -11.3055,-11.3067z"/>
   <path id="_340679768" class="fil7" d="M1024.92 1157.12l0 -158.282c0,-6.24567 5.05867,-11.3043 11.3032,-11.3043l45.2256 0c1.18347,0 2.32795,0.183071 3.4004,0.520867l0 179.848c-1.07244,0.338977 -2.21693,0.520867 -3.4004,0.520867l-45.2256 0c-6.24449,0 -11.3032,-5.06457 -11.3032,-11.3032z"/>
   <path id="_340679240" class="fil8" d="M1291.27 521.269l0 903.587c0,12.4878 -10.1244,22.6122 -22.6122,22.6122l-65.0091 0c-13.4327,0 -25.5591,5.18268 -34.2697,13.5307 -8.5004,8.14725 -13.7788,19.3276 -13.7788,31.5721l0 68.8146c0,12.4878 -10.1232,22.6122 -22.611,22.6122l-283.988 0c-10.3595,0.155906 -19.8095,-6.86693 -22.3146,-17.3622l0 -0.0389764c-2.24528,-9.41103 -4.4067,-9.15473 -6.66851,-8.88544 -37.3299,4.44449 -78.0249,9.28938 -71.3304,-256.884 2.88071,-114.521 29.537,-226.94 72.1879,-329.944 45.1075,-108.937 108.105,-207.48 179.783,-286.95l0 -42.7288c0,-12.4878 10.1244,-22.6122 22.6122,-22.6122l43.0559 0c30.1512,-26.7662 61.4044,-50.2607 93.1902,-69.939 33.1311,-20.5099 66.7359,-36.7642 100.174,-48.1465 2.74843,-1.18937 5.78032,-1.84961 8.96694,-1.84961 12.4878,0 22.6122,10.1244 22.6122,22.6122zm-398.019 768.051c-18.176,-20.2299 -25.9299,-56.1225 -15.9213,-123.182 9.88465,-66.2245 35.0977,-154.252 64.1434,-220.79 27.1488,-62.1922 60.2374,-107.522 93.0816,-107.522 1.92638,0 3.93071,0.158268 6.00827,0.467717 27.326,4.07835 45.1311,35.2477 55.0016,80.2016 8.20394,37.3677 12.1217,86.0788 12.1217,135.116 0,41.315 -2.78504,83.2371 -8.1319,119.062 -9.79725,65.6493 -27.0815,100.122 -49.5012,118.853 -24.4949,20.4638 -50.7827,21.1347 -79.6158,21.1347 -29.8394,0 -56.8796,-0.741733 -77.1863,-23.3421z"/>
   <path id="_340679432" class="fil9" d="M1353.52 486.611c0,-12.4878 -10.1244,-22.6122 -22.611,-22.6122 -12.4878,0 -22.6122,10.1244 -22.6122,22.6122l0 968.666c0,12.4878 10.1244,22.6122 22.6122,22.6122 12.4866,0 22.611,-10.1244 22.611,-22.6122l0 -968.666z"/>
   <path id="_340679576" class="fil10" d="M1000.65 683.826l65.6693 -65.2335 -43.0571 0c-12.4878,0 -22.6122,10.1244 -22.6122,22.6122l0 42.6213z"/>
   <path id="_340679192" class="fil11" d="M1044.94 1307.44c2.06693,16.5437 -7.65473,30.7016 -32.2855,33.7784 -24.6331,3.07796 -46.2756,-7.8378 -48.3426,-24.3815 -0.38504,-3.08504 0.0366142,-5.73662 1.13622,-8.03032l0.646063 0c26.3788,0 50.8654,-0.499607 73.9158,-13.0299 2.67874,2.46378 4.24961,6.21142 4.92993,11.6634z"/>
   <path id="_340679864" class="fil12" d="M1228.57 512.474c-13.5201,361.205 22.5803,829.15 -266.451,1071.52l170.864 0c12.4878,0 22.611,-10.1244 22.611,-22.6122l0 -68.8134c0,-12.2457 5.27835,-23.426 13.7788,-31.5733 8.71064,-8.34804 20.837,-13.5307 34.2685,-13.5307l65.0103 0c12.4878,0 22.6122,-10.1244 22.6122,-22.6122l0 -0.0862205 0 -903.5c0,-1.37599 -0.124016,-2.72244 -0.359055,-4.02874 -1.89921,-10.5661 -11.1402,-18.5835 -22.2532,-18.5835 -3.18662,0 -6.21851,0.660237 -8.96694,1.84961 -10.3618,3.52796 -20.7402,7.52127 -31.115,11.9669z"/>
  </g>
 </g>
</svg>
