<?xml version="1.0" encoding="UTF-8"?>
<!DOCTYPE svg PUBLIC "-//W3C//DTD SVG 1.1//EN" "http://www.w3.org/Graphics/SVG/1.1/DTD/svg11.dtd">
<!-- Creator: CorelDRAW -->
<svg xmlns="http://www.w3.org/2000/svg" xml:space="preserve" width="2048px" height="2048px" style="shape-rendering:geometricPrecision; text-rendering:geometricPrecision; image-rendering:optimizeQuality; fill-rule:evenodd; clip-rule:evenodd"
viewBox="0 0 2048 2048"
 xmlns:xlink="http://www.w3.org/1999/xlink">
 <defs>
  <style type="text/css">
   <![CDATA[
    .fil2 {fill:none}
    .fil11 {fill:#263238}
    .fil12 {fill:#37474F}
    .fil9 {fill:#455A64}
    .fil8 {fill:#546E7A}
    .fil10 {fill:#90A4AE}
    .fil13 {fill:#B0BEC5}
    .fil1 {fill:#E4C230}
    .fil0 {fill:#FDD835}
    .fil3 {fill:#37474F;fill-rule:nonzero}
    .fil4 {fill:#546E7A;fill-rule:nonzero}
    .fil5 {fill:#5E7783;fill-rule:nonzero}
    .fil6 {fill:#78909C;fill-rule:nonzero}
    .fil7 {fill:#90A4AE;fill-rule:nonzero}
   ]]>
  </style>
   <clipPath id="id0">
    <path d="M1024 -0.0011811c565.539,0 1024,458.462 1024,1024 0,565.539 -458.462,1024 -1024,1024 -565.539,0 -1024,-458.462 -1024,-1024 0,-565.539 458.462,-1024 1024,-1024z"/>
   </clipPath>
 </defs>
 <g id="Layer_x0020_1">
  <metadata id="CorelCorpID_0Corel-Layer"/>
  <path class="fil0" d="M1024 -0.0011811c565.539,0 1024,458.462 1024,1024 0,565.539 -458.462,1024 -1024,1024 -565.539,0 -1024,-458.462 -1024,-1024 0,-565.539 458.462,-1024 1024,-1024z"/>
  <g style="clip-path:url(#id0)">
   <g id="_451242632">
    <g>
     <polygon id="_3305049281" class="fil1" points="1222.51,484.001 2358.39,1619.88 2358.39,1731.92 1222.51,596.041 "/>
     <path id="_330505408" class="fil1" d="M1922.19 1736.13l0 0zm-1135.88 -1135.88l0 0z"/>
     <path id="_330505864" class="fil1" d="M2540.68 1888.73l0 0zm-1135.88 -1135.88l0 0z"/>
     <polygon id="_330505888" class="fil1" points="1410.62,707.069 2546.5,1842.95 2546.5,1858.2 1410.62,722.323 "/>
     <polygon id="_330506680" class="fil1" points="1410.62,722.323 2546.5,1858.2 2546.5,1887.95 1410.62,752.071 "/>
     <polygon id="_330506560" class="fil1" points="1410.62,752.071 2546.5,1887.95 2545.79,1888.13 2545.07,1888.29 2544.35,1888.42 2543.62,1888.53 2542.89,1888.61 2542.15,1888.68 2541.42,1888.71 2540.68,1888.73 1404.8,752.843 1405.54,752.831 1406.27,752.794 1407.01,752.732 1407.74,752.647 1408.47,752.539 1409.19,752.406 1409.91,752.251 "/>
     <polygon id="_330506488" class="fil1" points="1404.8,752.843 2540.68,1888.73 2540.52,1888.73 1404.64,752.843 "/>
     <polygon id="_330507016" class="fil1" points="1404.64,752.843 2540.52,1888.73 1779.08,1888.73 643.198,752.843 "/>
     <polygon id="_330506944" class="fil1" points="643.198,752.843 1779.08,1888.73 1778.33,1888.71 1777.58,1888.68 1776.84,1888.61 1776.11,1888.53 1775.38,1888.42 1774.67,1888.29 1773.96,1888.14 1773.26,1887.96 637.376,752.077 638.077,752.253 638.787,752.406 639.504,752.539 640.229,752.647 640.961,752.732 641.7,752.794 642.446,752.831 "/>
     <polygon id="_330506896" class="fil1" points="785.071,900.81 1920.95,2036.69 1922,2037.91 1922.8,2039.32 1923.32,2040.88 1923.52,2042.56 787.638,906.679 787.434,904.996 786.917,903.434 786.118,902.029 "/>
     <polygon id="_330507088" class="fil1" points="787.638,906.679 1923.52,2042.56 1923.8,2056.62 787.914,920.736 "/>
     <polygon id="_330507400" class="fil1" points="864.164,903.333 2000.04,2039.21 2010.67,2051.55 874.788,915.672 "/>
     <polygon id="_330507784" class="fil1" points="874.788,915.672 2010.67,2051.55 2011.12,2052.12 2011.51,2052.71 2011.85,2053.33 2012.13,2053.96 2012.35,2054.61 2012.52,2055.27 2012.64,2055.94 2012.7,2056.62 876.819,920.736 876.759,920.061 876.643,919.391 876.473,918.729 876.248,918.08 875.966,917.446 875.63,916.83 875.236,916.237 "/>
     <polygon id="_330507160" class="fil1" points="908.24,923.598 2044.12,2059.48 2045.06,2060.43 2045.88,2061.48 909.995,925.594 909.176,924.543 "/>
     <polygon id="_330507424" class="fil1" points="909.995,925.594 2045.88,2061.48 2065.32,2090.32 929.435,954.441 "/>
     <polygon id="_330507280" class="fil1" points="1198.09,902.479 2333.97,2038.36 2335.14,2039.59 2336,2040.99 2336.58,2042.51 2336.84,2044.09 2336.81,2045.7 2336.46,2047.28 2335.8,2048.79 2334.82,2050.17 1198.94,914.292 1199.92,912.904 1200.58,911.396 1200.92,909.816 1200.96,908.209 1200.69,906.624 1200.12,905.11 1199.25,903.712 "/>
     <polygon id="_330507184" class="fil1" points="1198.94,914.292 2334.82,2050.17 2329.28,2056.62 1193.39,920.736 "/>
     <polygon id="_330507352" class="fil1" points="1276.65,900.81 2412.53,2036.69 2413.58,2037.91 2414.38,2039.32 2414.9,2040.88 2415.1,2042.56 1279.22,906.679 1279.01,904.996 1278.5,903.434 1277.7,902.029 "/>
     <polygon id="_330507544" class="fil1" points="1279.22,906.679 2415.1,2042.56 2415.37,2056.62 1279.49,920.736 "/>
     <polygon id="_330507448" class="fil1" points="1355.74,903.333 2491.62,2039.21 2502.25,2051.55 1366.37,915.672 "/>
     <polygon id="_330507328" class="fil1" points="1366.37,915.672 2502.25,2051.55 2502.7,2052.12 2503.09,2052.71 2503.43,2053.33 2503.71,2053.96 2503.93,2054.61 2504.1,2055.27 2504.22,2055.94 2504.28,2056.62 1368.4,920.736 1368.34,920.061 1368.22,919.391 1368.05,918.729 1367.83,918.08 1367.55,917.446 1367.21,916.83 1366.82,916.237 "/>
     <polygon id="_330508288" class="fil1" points="1400.75,924.543 2536.64,2060.43 2537.46,2061.48 1401.57,925.594 "/>
     <polygon id="_330508432" class="fil1" points="1401.57,925.594 2537.46,2061.48 2556.9,2090.32 1421.01,954.441 "/>
     <polygon id="_330508144" class="fil1" points="1578.89,962.593 2714.77,2098.48 2716.06,2100.2 2717.18,2102.05 2718.12,2104 2718.87,2106.06 2719.43,2108.21 2719.77,2110.43 2719.88,2112.72 1584,976.841 1583.89,974.551 1583.55,972.327 1582.99,970.181 1582.24,968.122 1581.3,966.165 1580.18,964.318 "/>
     <polygon id="_330508456" class="fil1" points="1584,976.841 2719.88,2112.72 2719.88,2202.43 1584,1066.55 "/>
     <polygon id="_330508240" class="fil1" points="1584,1066.55 2719.88,2202.43 2719.88,2646.77 1584,1510.89 "/>
     <polygon id="_330508336" class="fil1" points="1584,1510.89 2719.88,2646.77 2719.77,2649.06 2719.43,2651.29 2718.87,2653.43 2718.12,2655.49 2717.18,2657.45 2716.06,2659.3 2714.77,2661.02 2713.32,2662.61 2711.73,2664.06 2710.01,2665.35 2708.16,2666.47 2706.2,2667.41 2704.14,2668.16 2702,2668.72 2699.77,2669.06 2697.48,2669.17 1561.6,1533.29 1563.89,1533.17 1566.11,1532.83 1568.26,1532.28 1570.32,1531.53 1572.28,1530.59 1574.12,1529.46 1575.85,1528.17 1577.44,1526.73 1578.89,1525.14 1580.18,1523.41 1581.3,1521.57 1582.24,1519.61 1582.99,1517.55 1583.55,1515.4 1583.89,1513.18 "/>
     <polygon id="_330508504" class="fil1" points="1561.6,1533.29 2697.48,2669.17 2686.28,2669.17 1550.4,1533.29 "/>
     <polygon id="_330508480" class="fil1" points="1550.4,1533.29 2686.28,2669.17 2686.28,2697.1 1550.4,1561.22 "/>
     <polygon id="_330508408" class="fil1" points="1550.4,1561.22 2686.28,2697.1 2686.28,2697.46 2686.27,2697.81 2686.26,2698.16 2686.24,2698.5 2686.21,2698.85 2686.18,2699.2 2686.15,2699.54 2686.11,2699.88 1550.23,1564 1550.27,1563.66 1550.3,1563.31 1550.33,1562.97 1550.36,1562.62 1550.37,1562.27 1550.39,1561.92 1550.4,1561.57 "/>
     <polygon id="_330508168" class="fil1" points="706.511,902.479 1842.39,2038.36 1843.56,2039.59 1844.43,2040.99 1845,2042.51 1845.26,2044.09 1845.23,2045.7 1844.88,2047.28 1844.22,2048.79 1843.24,2050.17 707.363,914.292 708.338,912.904 708.999,911.396 709.346,909.816 709.384,908.209 709.116,906.624 708.545,905.11 707.676,903.712 "/>
     <polygon id="_330508624" class="fil1" points="707.363,914.292 1843.24,2050.17 1837.7,2056.62 701.814,920.736 "/>
     <polygon id="_330509248" class="fil1" points="542.402,1533.29 1678.28,2669.17 1678.28,2697.1 542.402,1561.22 "/>
     <polygon id="_330509176" class="fil1" points="542.402,1561.22 1678.28,2697.1 1678.28,2697.46 1678.27,2697.81 1678.26,2698.16 1678.24,2698.5 1678.22,2698.85 1678.19,2699.2 1678.15,2699.54 1678.11,2699.88 542.23,1564 542.27,1563.66 542.305,1563.31 542.334,1562.97 542.358,1562.62 542.377,1562.27 542.391,1561.92 542.399,1561.57 "/>
     <polygon id="_330509440" class="fil1" points="497.601,1533.29 1633.48,2669.17 1622.28,2669.17 486.401,1533.29 "/>
     <polygon id="_330509296" class="fil1" points="486.401,1533.29 1622.28,2669.17 1619.99,2669.06 1617.77,2668.72 1615.62,2668.16 1613.56,2667.41 1611.6,2666.47 1609.76,2665.35 1608.03,2664.06 472.151,1528.17 473.875,1529.46 475.722,1530.59 477.681,1531.53 479.739,1532.28 481.887,1532.83 484.111,1533.17 "/>
     <polygon id="_330508768" class="fil1" points="542.23,1564 1678.11,2699.88 1633.65,2699.88 497.772,1564 "/>
     <polygon id="_330509224" class="fil1" points="1505.6,1533.29 2641.48,2669.17 1678.28,2669.17 542.402,1533.29 "/>
     <polygon id="_330509128" class="fil1" points="1550.23,1564 2686.11,2699.88 2641.65,2699.88 1505.77,1564 "/>
    </g>
    <path id="_451242464" class="fil1" d="M1404.8 752.843l0 0zm-618.489 -152.594l0 0zm436.205 -116.249l0 112.041 26.1295 0c5.13898,0 9.87166,1.7315 13.6512,4.64055l147.917 106.09 0.413386 0.296457 0 15.2539 0 29.7484c-1.89567,0.510237 -3.85512,0.770079 -5.82638,0.772442l-0.16063 0 -761.438 0c-2.01378,0 -3.96496,-0.26811 -5.82166,-0.766536l0 -45.0095 0.411024 -0.295276 148.513 -106.532c3.95788,-2.83937 8.52875,-4.20118 13.0547,-4.19882l26.1319 0 0 -112.041 397.026 0zm-443.405 414.475c4.62048,-0.090945 8.44016,3.58111 8.52993,8.20276l0.276378 14.0575 69.1323 0 -5.54882 -6.4441c-3.02599,-3.49725 -2.64449,-8.78623 0.852757,-11.8134 3.49725,-3.02599 8.78623,-2.64331 11.8134,0.853938l10.624 12.339c1.27323,1.47165 1.94291,3.26103 2.0315,5.06457l23.9457 0c3.83032,0 7.21064,1.9252 9.23032,4.85788l19.4398 28.8473 189.51 0 22.1126 -29.5914 -0.0283465 -0.0318898c2.21339,-2.68819 5.41654,-4.07953 8.64686,-4.08189l23.9445 0c0.0885827,-1.80354 0.758268,-3.59292 2.0315,-5.06457l10.624 -12.339c3.02599,-3.49725 8.31615,-3.87992 11.8134,-0.853938 3.49607,3.02717 3.87874,8.31615 0.852757,11.8134l-5.54882 6.4441 69.3591 0 -0.269292 -13.7303c-0.090945,-4.62048 3.58229,-8.44135 8.20276,-8.52993 4.62166,-0.090945 8.44135,3.58111 8.53111,8.20276l0.275197 14.0575 69.1323 0 -5.54882 -6.4441c-3.02599,-3.49725 -2.64331,-8.78623 0.852757,-11.8134 3.49725,-3.02599 8.78741,-2.64331 11.8134,0.853938l10.624 12.339c1.27323,1.47165 1.94291,3.26103 2.0315,5.06457l23.9457 0c3.83032,0 7.21064,1.9252 9.23032,4.85788l19.441 28.8473 140.586 0c12.3709,0 22.4008,10.0299 22.4008,22.3996l0 89.7095 0 444.338c0,12.3709 -10.0299,22.4008 -22.4008,22.4008l-11.2016 0 0 27.9319c0,0.941339 -0.0578741,1.86732 -0.17126,2.77795l-44.4579 0c-0.112205,-0.910631 -0.17126,-1.83662 -0.17126,-2.77795l0 -27.9319 -963.197 0 0 27.9319c0,0.941339 -0.0590552,1.86732 -0.17126,2.77795l-44.4579 0c-0.113386,-0.910631 -0.17126,-1.83662 -0.17126,-2.77795l0 -27.9319 -11.2004 0c-12.3721,0 -22.402,-10.0299 -22.402,-22.4008l0 -444.338 0 -89.7095c0,-12.3697 10.0299,-22.3996 22.402,-22.3996l140.966 0 22.1126 -29.5914 -0.0283465 -0.0318898c2.21339,-2.68819 5.41654,-4.07953 8.64568,-4.08189l23.9457 0c0.0885827,-1.80354 0.758268,-3.59292 2.0315,-5.06457l10.624 -12.339c3.02599,-3.49725 8.31497,-3.87992 11.8134,-0.853938 3.49607,3.02717 3.87874,8.31615 0.851575,11.8134l-5.54882 6.4441 69.3603 0 -0.270473 -13.7303c-0.0897638,-4.62048 3.58347,-8.44135 8.20394,-8.52993z"/>
   </g>
  </g>
  <path class="fil2" d="M1024 -0.0011811c565.539,0 1024,458.462 1024,1024 0,565.539 -458.462,1024 -1024,1024 -565.539,0 -1024,-458.462 -1024,-1024 0,-565.539 458.462,-1024 1024,-1024z"/>
  <path class="fil3" d="M542.402 1516.42c0,-12.3721 -10.0299,-22.4008 -22.4008,-22.4008 -12.3709,0 -22.3996,10.0287 -22.3996,22.4008l0 44.7992c0,0.941339 0.0578741,1.86732 0.17126,2.77795l44.4579 0c0.112205,-0.910631 0.17126,-1.83662 0.17126,-2.77795l0 -44.7992z"/>
  <path class="fil3" d="M1550.4 1516.42c0,-12.3721 -10.0287,-22.4008 -22.3996,-22.4008 -12.3709,0 -22.4008,10.0287 -22.4008,22.4008l0 44.7992c0,0.941339 0.0590552,1.86732 0.17126,2.77795l44.4579 0c0.113386,-0.910631 0.17126,-1.83662 0.17126,-2.77795l0 -44.7992z"/>
  <path class="fil3" d="M1149.68 920.736l242.667 0c3.83032,0 7.21064,1.92402 9.23032,4.85788l22.4303 33.2835 0.0318898 -0.0259843c3.93189,4.77402 3.24685,11.8335 -1.52835,15.7642 -2.08583,1.71851 -4.60985,2.55473 -7.11851,2.55355l-291.2 0c-6.18544,0 -11.2004,-5.01496 -11.2004,-11.2004 0,-3.04725 1.22008,-5.81103 3.19607,-7.8319l24.8729 -33.2882 8.61851 7.0878 -8.64686 -7.11851c2.21339,-2.68819 5.41772,-4.07953 8.64686,-4.08071l0 -0.0011811zm237.435 22.4008l-232.204 0 -7.04528 11.6327 243.854 0 -4.60512 -11.6327z"/>
  <path class="fil3" d="M1198.94 914.292c3.02599,-3.49725 2.64449,-8.78741 -0.852757,-11.8122 -3.49725,-3.02599 -8.78741,-2.64449 -11.8134,0.852757l-10.624 12.339c-3.02599,3.49725 -2.64331,8.78623 0.853938,11.8122 3.49725,3.02599 8.78623,2.64449 11.8122,-0.852757l10.624 -12.339z"/>
  <path class="fil3" d="M1355.74 903.333c-3.02599,-3.49725 -8.31615,-3.87874 -11.8134,-0.852757 -3.49725,3.02481 -3.87874,8.31497 -0.852757,11.8122l10.624 12.339c3.02599,3.49725 8.31615,3.87874 11.8134,0.852757 3.49725,-3.02599 3.87874,-8.31497 0.852757,-11.8122l-10.624 -12.339z"/>
  <path class="fil3" d="M1262.8 923.285c0.0897638,4.62048 3.90945,8.29371 8.53111,8.20276 4.62048,-0.0897638 8.29253,-3.90945 8.20276,-8.52993l-0.318898 -16.2791c-0.0897638,-4.62048 -3.90945,-8.29371 -8.53111,-8.20394 -4.62048,0.090945 -8.29253,3.91063 -8.20276,8.53111l0.318898 16.2791z"/>
  <path class="fil3" d="M658.098 920.736l242.667 0c3.83032,0 7.21064,1.92402 9.23032,4.85788l22.4292 33.2835 0.0330709 -0.0259843c3.93071,4.77402 3.24685,11.8335 -1.52835,15.7642 -2.08701,1.71851 -4.61103,2.55473 -7.11851,2.55355l-291.2 0c-6.18544,0 -11.2004,-5.01496 -11.2004,-11.2004 0,-3.04725 1.2189,-5.81103 3.19488,-7.8319l24.874 -33.2882 -0.0283465 -0.0307087c2.21339,-2.68819 5.41654,-4.07953 8.64686,-4.08071l0 -0.0011811zm237.435 22.4008l-232.204 0 -7.04528 11.6327 243.854 0 -4.60512 -11.6327z"/>
  <path class="fil3" d="M707.364 914.292c3.02599,-3.49725 2.64331,-8.78741 -0.853938,-11.8122 -3.49725,-3.02599 -8.78623,-2.64449 -11.8122,0.852757l-10.624 12.339c-3.02599,3.49725 -2.64449,8.78623 0.852757,11.8122 3.49725,3.02599 8.78741,2.64449 11.8134,-0.852757l10.624 -12.339z"/>
  <path class="fil3" d="M864.164 903.333c-3.02599,-3.49725 -8.31615,-3.87874 -11.8134,-0.852757 -3.49725,3.02481 -3.87874,8.31497 -0.852757,11.8122l10.624 12.339c3.02599,3.49725 8.31497,3.87874 11.8122,0.852757 3.49725,-3.02599 3.87992,-8.31497 0.853938,-11.8122l-10.624 -12.339z"/>
  <path class="fil3" d="M771.224 923.285c0.0897638,4.62048 3.90945,8.29371 8.52993,8.20276 4.62166,-0.0897638 8.29371,-3.90945 8.20394,-8.52993l-0.320079 -16.2791c-0.0897638,-4.62048 -3.90945,-8.29371 -8.52993,-8.20394 -4.62048,0.090945 -8.29371,3.91063 -8.20276,8.53111l0.318898 16.2791z"/>
  <polygon class="fil4" points="508.8,1109.62 1539.2,1109.62 1539.2,1488.49 508.8,1488.49 "/>
  <path class="fil4" d="M486.401 954.441l1075.2 0c12.3709,0 22.4008,10.0299 22.4008,22.3996l0 534.048c0,12.3709 -10.0299,22.4008 -22.4008,22.4008l-1075.2 0c-12.3721,0 -22.402,-10.0299 -22.402,-22.4008l0 -534.048c0,-12.3697 10.0299,-22.3996 22.402,-22.3996z"/>
  <path class="fil5" d="M486.401 954.441l1075.2 0c12.3709,0 22.4008,10.0299 22.4008,22.3996l0 89.7095 -1120 0 0 -89.7095c0,-12.3697 10.0299,-22.3996 22.402,-22.3996z"/>
  <path class="fil4" d="M1200.11 640.843l-352.225 0c-12.3709,0 -22.4008,-10.0299 -22.4008,-22.4008l0 -134.441 397.026 0 0 134.441c0,12.3709 -10.0287,22.4008 -22.3996,22.4008z"/>
  <path class="fil6" d="M799.355 596.041l449.287 0c5.13898,0 9.87166,1.7315 13.6512,4.64055l148.33 106.387 0 15.2445 -5.82284 8.12953 5.82284 -8.12008 0 29.7484c-1.89567,0.510237 -3.85512,0.770079 -5.82284,0.772442l-0.00354331 0 -0.16063 0 -761.438 0c-2.01378,0 -3.96496,-0.26811 -5.82166,-0.766536l0 -45.0095 148.931 -106.818 -0.00708662 -0.00944883c3.95788,-2.83937 8.52875,-4.20118 13.0547,-4.19882z"/>
  <path class="fil7" d="M1410.21 706.772l0.413386 0.296457 0 15.2445 -5.82284 8.12953 5.82284 -8.12008 0 29.7484c-1.89567,0.510237 -3.85512,0.770079 -5.82284,0.772442l-0.00354331 0 -0.16063 0 -761.438 0c-2.01378,0 -3.96496,-0.26811 -5.82166,-0.766536l0 -45.0095 0.411024 -0.295276 772.423 0z"/>
  <polygon class="fil8" points="1012.8,1469.89 1012.8,1133.64 531.2,1133.64 531.2,1469.89 "/>
  <polygon class="fil8" points="1035.2,1133.64 1035.2,1469.89 1516.8,1469.89 1516.8,1133.64 "/>
  <path class="fil9" d="M1540.66 1108.16l0 381.781 -1033.32 0 0 -381.781 1033.32 0zm-1008 26.9362l0 333.336 478.682 0 0 -333.336 -478.682 0zm503.999 333.336l478.685 0 0 -333.336 -478.685 0 0 333.336z"/>
  <path class="fil10" d="M700.189 1035.01c7.17402,-6.27402 11.6126,-14.9433 11.6126,-24.5162 0,-9.57402 -4.43859,-18.2433 -11.6126,-24.5173 -7.17402,-6.2752 -17.0847,-10.1563 -28.0311,-10.1563 -10.9465,0 -20.8571,3.88229 -28.0311,10.1551 -7.17402,6.27638 -11.6126,14.9457 -11.6126,24.5185 0,9.57402 4.43859,18.2421 11.6126,24.5162 7.17402,6.27402 17.0847,10.1563 28.0311,10.1563 10.9465,0 20.8571,-3.88111 28.0311,-10.1563z"/>
  <path class="fil10" d="M830.575 1010.5c0,9.57284 4.43859,18.2421 11.6126,24.5162 7.1752,6.2752 17.0858,10.1563 28.0323,10.1563 10.9441,0 20.8571,-3.88229 28.0311,-10.1563 7.17284,-6.27402 11.6114,-14.9421 11.6114,-24.5162 0,-9.57284 -4.43859,-18.2421 -11.6114,-24.5185 -7.17402,-6.27284 -17.087,-10.1551 -28.0311,-10.1551 -10.9465,0 -20.8571,3.88111 -28.0323,10.1563 -7.17402,6.27402 -11.6126,14.9433 -11.6126,24.5173z"/>
  <path class="fil10" d="M1138.14 1010.5c0,9.57402 4.43859,18.2421 11.6114,24.5162 7.17402,6.27402 17.087,10.1563 28.0311,10.1563 10.9465,0 20.8571,-3.88111 28.0323,-10.1563 7.17402,-6.27402 11.6126,-14.9433 11.6126,-24.5162 0,-9.57402 -4.43859,-18.2433 -11.6126,-24.5173 -7.1752,-6.2752 -17.0858,-10.1563 -28.0323,-10.1563 -10.9441,0 -20.8571,3.88229 -28.0311,10.1551 -7.17284,6.27638 -11.6114,14.9457 -11.6114,24.5185z"/>
  <path class="fil10" d="M1336.2 1010.5c0,9.57284 4.43859,18.2421 11.6126,24.5162 7.17402,6.2752 17.0847,10.1563 28.0311,10.1563 10.9465,0 20.8571,-3.88229 28.0311,-10.1563 7.17402,-6.27402 11.6126,-14.9421 11.6126,-24.5162 0,-9.57284 -4.43859,-18.2421 -11.6126,-24.5185 -7.17402,-6.27284 -17.0847,-10.1551 -28.0311,-10.1551 -10.9465,0 -20.8571,3.88111 -28.0311,10.1563 -7.17402,6.27402 -11.6126,14.9433 -11.6126,24.5173z"/>
  <path class="fil11" d="M1355.37 1007.39l0 -0.0011811c0.246851,-1.24843 9.61536,-0.869292 20.9244,0.846851 11.3067,1.71614 20.2736,4.11969 20.0256,5.3693l0 0c-1.96181,9.88938 -12.7205,16.5165 -24.0284,14.8004 -11.3079,-1.71614 -18.8847,-11.126 -16.9217,-21.0154zm0 -0.0011811c1.96299,-9.89056 12.7205,-16.5165 24.0284,-14.8004 11.3079,1.71614 18.8835,11.1248 16.9217,21.0166 -0.248032,1.24843 -9.61654,0.869292 -20.9232,-0.846851 -11.3079,-1.71614 -20.2748,-4.11969 -20.0268,-5.3693z"/>
  <path class="fil12" d="M1355.37 1007.4c-0.204331,1.25079 8.25827,4.4752 19.5532,6.19016 11.2949,1.71496 21.1512,1.26496 21.3992,0.0153543 0.248032,-1.24843 -7.67481,-3.73583 -20.3114,-6.03308 -12.6366,-2.29725 -20.5146,-0.806694 -20.6386,-0.180709 -0.124016,0.625985 -0.0011811,0.00472441 -0.00236221,0.00826772z"/>
  <path class="fil11" d="M1196.88 1003.33l0 0c0.571654,1.16575 -7.51654,5.31733 -18.0638,9.2752 -10.5473,3.9567 -19.5614,6.22087 -20.1331,5.0563l0 -0.0011811c-4.52481,-9.22442 0.357874,-19.9122 10.9051,-23.8689 10.5484,-3.9567 22.7669,0.312992 27.2918,9.53859zm0 0c4.52363,9.2256 -0.359055,19.9122 -10.9063,23.8689 -10.5473,3.95788 -22.7646,-0.312992 -27.2906,-9.53741 -0.571654,-1.16575 7.51654,-5.31733 18.0638,-9.2752 10.5473,-3.9567 19.5614,-6.22087 20.1331,-5.0563z"/>
  <path class="fil12" d="M1179.29 1013.44c10.5473,-3.9567 18.1618,-8.94095 17.5902,-10.1055 -0.571654,-1.16457 -9.79371,0.690945 -20.3221,4.64055 -10.5284,3.94961 -18.3898,8.49686 -17.8807,9.67796 0.00236221,0.00472441 0.00354331,0.00826772 0.00590552,0.0129921 0.571654,1.16457 10.0595,-0.269292 20.6067,-4.22599z"/>
  <path class="fil11" d="M870.219 992.32l0 0c1.44921,0 2.62441,8.1378 2.62441,18.176 0,10.037 -1.1752,18.176 -2.62441,18.176l0 0c-11.4768,0 -20.7815,-8.13898 -20.7815,-18.176 0,-10.0382 9.30473,-18.176 20.7815,-18.176zm0 0c11.478,0 20.7815,8.1378 20.7815,18.176 0,10.037 -9.30355,18.1748 -20.7815,18.176 -1.44921,0 -2.62323,-8.13898 -2.62323,-18.176 0,-10.0382 1.17402,-18.176 2.62323,-18.176z"/>
  <path class="fil12" d="M874.572 1010.5c0,-10.0382 -1.94764,-18.176 -4.35237,-18.176 -2.40355,0 -4.35237,8.1378 -4.35237,18.176 0,10.037 1.94882,18.176 4.35237,18.176 2.40473,0 4.35237,-8.13898 4.35237,-18.176z"/>
  <path class="fil11" d="M672.158 992.32l0 0c1.45039,0 2.62441,8.1378 2.62441,18.176 0,10.037 -1.17402,18.176 -2.62441,18.176l0 0c-11.4768,0 -20.7815,-8.13898 -20.7815,-18.176 0,-10.0382 9.30473,-18.176 20.7815,-18.176zm0 0c11.478,0 20.7815,8.1378 20.7815,18.176 0,10.037 -9.30355,18.1748 -20.7815,18.176 -1.44921,0 -2.62323,-8.13898 -2.62323,-18.176 0,-10.0382 1.17402,-18.176 2.62323,-18.176z"/>
  <path class="fil12" d="M672.159 1028.67c2.40355,0 4.35237,-8.13898 4.35237,-18.176 0,-10.0382 -1.94882,-18.176 -4.35237,-18.176 -2.40473,0 -4.35355,8.1378 -4.35355,18.176 0,10.037 1.94882,18.176 4.35355,18.176z"/>
  <rect class="fil13" x="955.185" y="1233.86" width="9.11517" height="135.808"/>
  <rect class="fil13" x="1083.7" y="1233.86" width="9.11517" height="135.808"/>
 </g>
</svg>
