<?xml version="1.0" encoding="UTF-8"?>
<!DOCTYPE svg PUBLIC "-//W3C//DTD SVG 1.1//EN" "http://www.w3.org/Graphics/SVG/1.1/DTD/svg11.dtd">
<!-- Creator: CorelDRAW -->
<svg xmlns="http://www.w3.org/2000/svg" xml:space="preserve" width="2048px" height="2048px" style="shape-rendering:geometricPrecision; text-rendering:geometricPrecision; image-rendering:optimizeQuality; fill-rule:evenodd; clip-rule:evenodd"
viewBox="0 0 2048 2048"
 xmlns:xlink="http://www.w3.org/1999/xlink">
 <defs>
  <style type="text/css">
   <![CDATA[
    .fil2 {fill:none}
    .fil7 {fill:#90A4AE}
    .fil4 {fill:#BDBDBD}
    .fil1 {fill:#D84315}
    .fil0 {fill:#F4511E}
    .fil3 {fill:#424242;fill-rule:nonzero}
    .fil8 {fill:#616161;fill-rule:nonzero}
    .fil6 {fill:#70B8C9;fill-rule:nonzero}
    .fil5 {fill:#80DEEA;fill-rule:nonzero}
   ]]>
  </style>
   <clipPath id="id0">
    <path d="M1024 -0.0011811c565.539,0 1024,458.462 1024,1024 0,565.539 -458.462,1024 -1024,1024 -565.539,0 -1024,-458.462 -1024,-1024 0,-565.539 458.462,-1024 1024,-1024z"/>
   </clipPath>
 </defs>
 <g id="Layer_x0020_1">
  <metadata id="CorelCorpID_0Corel-Layer"/>
  <path class="fil0" d="M1024 -0.0011811c565.539,0 1024,458.462 1024,1024 0,565.539 -458.462,1024 -1024,1024 -565.539,0 -1024,-458.462 -1024,-1024 0,-565.539 458.462,-1024 1024,-1024z"/>
  <g style="clip-path:url(#id0)">
   <g id="_451247984">
    <g>
     <polygon id="_3342742241" class="fil1" points="1286.19,583.829 2422.07,1719.71 2427.45,1726.07 2432.67,1732.55 2437.74,1739.17 2442.66,1745.9 2447.41,1752.76 2452,1759.74 2456.43,1766.83 2460.69,1774.04 2464.78,1781.35 2468.69,1788.77 2472.44,1796.3 2476,1803.93 2479.38,1811.66 2482.58,1819.49 2485.59,1827.41 2488.41,1835.42 2491.04,1843.52 2493.48,1851.71 2495.71,1859.97 2497.75,1868.32 2499.58,1876.75 2501.21,1885.25 2502.63,1893.83 2503.84,1902.47 2504.84,1911.18 2505.62,1919.95 2506.18,1928.79 2506.52,1937.68 2506.63,1946.63 1370.75,810.748 1370.63,801.799 1370.3,792.905 1369.74,784.071 1368.96,775.296 1367.96,766.587 1366.75,757.943 1365.33,749.37 1363.7,740.868 1361.87,732.441 1359.83,724.092 1357.59,715.824 1355.16,707.638 1352.53,699.538 1349.71,691.527 1346.7,683.607 1343.5,675.78 1340.12,668.051 1336.55,660.421 1332.81,652.893 1328.9,645.469 1324.81,638.154 1320.55,630.949 1316.12,623.856 1311.53,616.88 1306.77,610.022 1301.86,603.285 1296.79,596.672 1291.57,590.185 "/>
     <polygon id="_334274296" class="fil1" points="1370.75,810.748 2506.63,1946.63 2506.56,1955.99 2506.37,1964.96 2506.05,1973.54 2505.61,1981.75 2505.05,1989.61 2504.37,1997.13 2503.59,2004.31 2502.7,2011.19 2501.71,2017.76 2500.62,2024.04 2499.43,2030.04 2498.15,2035.78 2496.79,2041.28 2495.34,2046.54 2493.81,2051.57 2492.21,2056.4 2490.53,2061.03 2488.79,2065.47 2486.97,2069.75 2485.1,2073.88 2483.18,2077.86 2481.19,2081.71 2479.16,2085.44 2477.08,2089.07 2474.96,2092.61 2472.81,2096.08 2470.61,2099.48 2468.39,2102.84 2466.14,2106.15 2463.87,2109.45 2461.57,2112.73 2459.26,2116.02 1323.38,980.137 1325.69,976.849 1327.99,973.566 1330.26,970.272 1332.51,966.954 1334.73,963.601 1336.93,960.198 1339.08,956.733 1341.2,953.19 1343.28,949.559 1345.31,945.824 1347.29,941.974 1349.22,937.993 1351.09,933.871 1352.9,929.592 1354.65,925.145 1356.33,920.514 1357.93,915.688 1359.46,910.653 1360.91,905.395 1362.27,899.901 1363.55,894.159 1364.74,888.153 1365.83,881.873 1366.82,875.303 1367.71,868.431 1368.49,861.244 1369.17,853.727 1369.73,845.87 1370.17,837.655 1370.49,829.073 1370.68,820.109 "/>
     <polygon id="_334275256" class="fil1" points="1323.38,980.137 2459.26,2116.02 2456.92,2119.36 2454.57,2122.74 2452.21,2126.18 2449.86,2129.71 2447.51,2133.34 2445.18,2137.09 2442.86,2140.98 2440.57,2145.04 2438.31,2149.29 2436.08,2153.74 2433.89,2158.42 2431.75,2163.35 2429.66,2168.55 2427.63,2174.03 2425.66,2179.82 2423.76,2185.95 2421.93,2192.42 2420.17,2199.27 2418.51,2206.51 2416.93,2214.16 2415.44,2222.24 2414.06,2230.78 2412.78,2239.8 2411.62,2249.31 2410.57,2259.33 2409.64,2269.89 2408.84,2281.01 2408.17,2292.71 2407.64,2305 2407.26,2317.92 2407.03,2331.47 2406.95,2345.69 1271.07,1209.81 1271.15,1195.59 1271.38,1182.04 1271.76,1169.12 1272.29,1156.83 1272.96,1145.13 1273.76,1134.01 1274.69,1123.45 1275.73,1113.42 1276.9,1103.91 1278.18,1094.9 1279.56,1086.36 1281.05,1078.28 1282.62,1070.63 1284.29,1063.39 1286.04,1056.54 1287.88,1050.07 1289.78,1043.94 1291.75,1038.15 1293.78,1032.66 1295.87,1027.47 1298.01,1022.54 1300.2,1017.86 1302.43,1013.41 1304.69,1009.16 1306.98,1005.1 1309.3,1001.2 1311.63,997.454 1313.98,993.825 1316.33,990.301 1318.69,986.858 1321.04,983.478 "/>
     <polygon id="_334275280" class="fil1" points="1271.07,1209.81 2406.95,2345.69 2406.94,2347.66 2406.92,2349.62 2406.88,2351.58 2406.83,2353.54 2406.76,2355.5 2406.67,2357.45 2406.57,2359.39 2406.46,2361.33 2406.33,2363.27 2406.18,2365.21 2406.03,2367.14 2405.85,2369.07 2405.66,2370.99 2405.46,2372.91 2405.24,2374.82 2405.01,2376.74 2404.76,2378.64 2404.5,2380.54 2404.22,2382.44 2403.93,2384.33 2403.63,2386.22 2403.31,2388.11 2402.97,2389.99 2402.63,2391.86 2402.26,2393.73 2401.89,2395.6 2401.5,2397.46 2401.1,2399.31 2400.68,2401.16 2400.25,2403.01 2399.8,2404.85 2399.34,2406.68 1263.46,1270.8 1263.92,1268.96 1264.37,1267.12 1264.8,1265.28 1265.21,1263.43 1265.62,1261.57 1266.01,1259.71 1266.38,1257.85 1266.75,1255.98 1267.09,1254.1 1267.43,1252.22 1267.75,1250.34 1268.05,1248.45 1268.34,1246.56 1268.62,1244.66 1268.88,1242.76 1269.13,1240.85 1269.36,1238.94 1269.58,1237.03 1269.78,1235.11 1269.97,1233.19 1270.14,1231.26 1270.3,1229.33 1270.45,1227.39 1270.58,1225.45 1270.69,1223.51 1270.79,1221.56 1270.87,1219.61 1270.94,1217.66 1271,1215.7 1271.04,1213.74 1271.06,1211.78 "/>
     <polygon id="_334274896" class="fil1" points="1263.46,1270.8 2399.34,2406.68 2398.86,2408.55 2398.36,2410.41 2397.85,2412.27 2397.33,2414.12 2396.78,2415.97 2396.23,2417.81 2395.66,2419.65 2395.07,2421.48 2394.47,2423.31 2393.86,2425.13 2393.23,2426.95 2392.59,2428.76 2391.93,2430.57 2391.26,2432.37 2390.58,2434.16 2389.88,2435.95 2389.17,2437.74 2388.44,2439.51 2387.7,2441.29 2386.95,2443.05 2386.18,2444.81 2385.4,2446.56 2384.61,2448.31 2383.8,2450.05 2382.98,2451.79 2382.15,2453.52 2381.3,2455.24 2380.44,2456.95 2379.57,2458.66 2378.68,2460.36 2377.78,2462.06 2376.87,2463.75 1240.99,1327.87 1241.9,1326.18 1242.8,1324.48 1243.68,1322.78 1244.56,1321.07 1245.42,1319.35 1246.26,1317.63 1247.1,1315.9 1247.92,1314.17 1248.73,1312.43 1249.52,1310.68 1250.3,1308.93 1251.07,1307.17 1251.82,1305.4 1252.56,1303.63 1253.29,1301.85 1254,1300.07 1254.7,1298.28 1255.38,1296.49 1256.05,1294.69 1256.71,1292.88 1257.35,1291.07 1257.98,1289.25 1258.59,1287.43 1259.19,1285.6 1259.78,1283.77 1260.35,1281.93 1260.9,1280.09 1261.44,1278.24 1261.97,1276.39 1262.48,1274.53 1262.98,1272.67 "/>
     <polygon id="_334275472" class="fil1" points="1241.05,1327.91 2376.93,2463.8 2376.29,2464.9 2375.6,2465.95 2374.86,2466.95 2374.07,2467.91 2373.24,2468.81 2372.37,2469.66 2371.45,2470.45 2370.5,2471.2 2369.52,2471.88 2368.5,2472.52 2367.46,2473.1 2366.39,2473.62 2365.29,2474.08 2364.17,2474.49 2363.04,2474.84 2361.88,2475.13 1226,1339.24 1227.15,1338.95 1228.29,1338.61 1229.41,1338.2 1230.5,1337.74 1231.58,1337.21 1232.62,1336.64 1233.64,1336 1234.62,1335.31 1235.57,1334.57 1236.48,1333.77 1237.36,1332.92 1238.19,1332.02 1238.98,1331.07 1239.72,1330.07 1240.41,1329.02 "/>
     <polygon id="_334275880" class="fil1" points="1226,1339.24 2361.88,2475.13 2361.88,2475.17 1226,1339.29 "/>
     <polygon id="_334275784" class="fil1" points="1226,1339.29 2361.88,2475.17 2361.69,2475.17 1225.8,1339.29 "/>
     <polygon id="_334275640" class="fil1" points="1225.8,1339.29 2361.69,2475.17 2361.06,2475.29 2360.44,2475.4 2359.81,2475.49 2359.18,2475.56 2358.55,2475.62 2357.91,2475.65 2357.27,2475.67 2356.63,2475.67 1220.75,1339.79 1221.39,1339.79 1222.03,1339.77 1222.66,1339.73 1223.3,1339.68 1223.93,1339.61 1224.56,1339.52 1225.18,1339.41 "/>
     <polygon id="_334275664" class="fil1" points="1172.07,1339.29 2307.96,2475.17 2307.27,2475.17 1171.38,1339.29 "/>
     <polygon id="_334275952" class="fil1" points="1220.75,1339.79 2356.63,2475.67 2307.96,2475.67 1172.07,1339.79 "/>
     <polygon id="_334276216" class="fil1" points="1171.38,1339.29 2307.27,2475.17 2307.27,2503.02 1171.38,1367.14 "/>
     <polygon id="_334276288" class="fil1" points="1188.5,1373.81 2324.38,2509.7 2325.85,2511.31 2327.16,2513.07 2328.31,2514.95 2329.26,2516.94 2330.03,2519.03 2330.59,2521.21 2330.94,2523.48 2331.05,2525.8 1195.17,1389.92 1195.06,1387.59 1194.71,1385.33 1194.15,1383.15 1193.38,1381.05 1192.42,1379.06 1191.28,1377.18 1189.97,1375.43 "/>
     <polygon id="_334276696" class="fil1" points="1195.17,1389.92 2331.05,2525.8 2330.94,2528.13 2330.59,2530.4 2330.03,2532.58 2329.26,2534.67 2328.31,2536.66 2327.16,2538.54 2325.85,2540.3 2324.38,2541.91 2322.76,2543.38 2321.01,2544.7 2319.13,2545.84 2317.14,2546.8 2315.05,2547.56 2312.86,2548.12 2310.6,2548.47 2308.27,2548.59 1172.39,1412.7 1174.72,1412.59 1176.98,1412.24 1179.17,1411.68 1181.26,1410.91 1183.25,1409.95 1185.13,1408.81 1186.88,1407.5 1188.5,1406.03 1189.97,1404.41 1191.28,1402.66 1192.42,1400.78 1193.38,1398.79 1194.15,1396.7 1194.71,1394.51 1195.06,1392.25 "/>
     <polygon id="_334276504" class="fil1" points="1172.39,1412.7 2308.27,2548.59 2307.27,2548.59 1171.38,1412.7 "/>
     <polygon id="_334276528" class="fil1" points="1171.38,1412.7 2307.27,2548.59 2307.27,2582.06 1171.38,1446.17 "/>
     <polygon id="_334276336" class="fil1" points="1188.5,1452.85 2324.38,2588.73 2325.85,2590.35 2327.16,2592.1 2328.31,2593.98 2329.26,2595.97 2330.03,2598.06 2330.59,2600.25 2330.94,2602.51 2331.05,2604.84 1195.17,1468.95 1195.06,1466.63 1194.71,1464.36 1194.15,1462.18 1193.38,1460.09 1192.42,1458.1 1191.28,1456.22 1189.97,1454.46 "/>
     <polygon id="_334276360" class="fil1" points="1195.17,1468.95 2331.05,2604.84 2330.94,2607.17 2330.59,2609.43 2330.03,2611.61 2329.26,2613.7 2328.31,2615.7 2327.16,2617.58 2325.85,2619.33 2324.38,2620.95 2322.76,2622.42 2321.01,2623.73 2319.13,2624.87 2317.14,2625.83 2315.05,2626.6 2312.86,2627.16 2310.6,2627.5 2308.27,2627.62 1172.39,1491.74 1174.72,1491.62 1176.98,1491.27 1179.17,1490.71 1181.26,1489.95 1183.25,1488.99 1185.13,1487.85 1186.88,1486.53 1188.5,1485.06 1189.97,1483.45 1191.28,1481.69 1192.42,1479.81 1193.38,1477.82 1194.15,1475.73 1194.71,1473.55 1195.06,1471.28 "/>
     <polygon id="_334276432" class="fil1" points="1172.39,1491.74 2308.27,2627.62 2307.27,2627.62 1171.38,1491.74 "/>
     <polygon id="_334276960" class="fil1" points="1171.38,1491.74 2307.27,2627.62 2307.27,2638.81 1171.38,1502.93 "/>
     <polygon id="_334277032" class="fil1" points="1171.38,1502.93 2307.27,2638.81 2307.25,2640.4 2307.18,2641.98 2307.08,2643.55 2306.95,2645.11 2306.77,2646.66 2306.55,2648.19 2306.3,2649.71 2306.01,2651.23 2305.68,2652.72 2305.32,2654.21 2304.91,2655.68 2304.48,2657.13 2304.01,2658.57 2303.51,2660 2302.97,2661.41 2302.4,2662.8 2301.8,2664.17 2301.16,2665.53 2300.49,2666.87 2299.79,2668.19 2299.06,2669.5 2298.31,2670.78 2297.52,2672.04 2296.7,2673.28 2295.85,2674.5 2294.97,2675.7 2294.07,2676.88 2293.14,2678.03 2292.18,2679.17 2291.2,2680.28 2290.19,2681.36 2289.15,2682.42 1153.27,1546.54 1154.31,1545.48 1155.32,1544.39 1156.3,1543.29 1157.26,1542.15 1158.19,1541 1159.09,1539.82 1159.97,1538.62 1160.82,1537.4 1161.63,1536.16 1162.42,1534.89 1163.18,1533.61 1163.91,1532.31 1164.61,1530.99 1165.28,1529.65 1165.91,1528.29 1166.52,1526.92 1167.09,1525.52 1167.63,1524.12 1168.13,1522.69 1168.6,1521.25 1169.03,1519.8 1169.43,1518.32 1169.8,1516.84 1170.12,1515.34 1170.42,1513.83 1170.67,1512.31 1170.89,1510.77 1171.06,1509.23 1171.2,1507.67 1171.3,1506.1 1171.36,1504.52 "/>
     <polygon id="_334277416" class="fil1" points="1153.27,1546.54 2289.15,2682.42 2288.09,2683.45 2287.01,2684.46 2285.9,2685.45 2284.77,2686.41 2283.61,2687.34 2282.43,2688.24 2281.24,2689.12 2280.01,2689.96 2278.77,2690.78 2277.51,2691.57 2276.23,2692.33 2274.93,2693.06 2273.6,2693.76 2272.26,2694.43 2270.91,2695.06 2269.53,2695.67 2268.14,2696.24 2266.73,2696.78 2265.31,2697.28 2263.87,2697.75 2262.41,2698.18 2260.94,2698.58 2259.46,2698.95 2257.96,2699.27 2256.45,2699.57 2254.92,2699.82 2253.39,2700.03 2251.84,2700.21 2250.28,2700.35 2248.71,2700.45 2247.14,2700.51 2245.55,2700.53 1109.67,1564.65 1111.25,1564.63 1112.83,1564.57 1114.4,1564.47 1115.96,1564.33 1117.51,1564.15 1119.04,1563.94 1120.57,1563.68 1122.08,1563.39 1123.58,1563.06 1125.06,1562.7 1126.53,1562.3 1127.98,1561.87 1129.43,1561.4 1130.85,1560.89 1132.26,1560.36 1133.65,1559.78 1135.03,1559.18 1136.38,1558.54 1137.72,1557.88 1139.04,1557.18 1140.35,1556.45 1141.63,1555.69 1142.89,1554.9 1144.13,1554.08 1145.35,1553.23 1146.55,1552.36 1147.73,1551.45 1148.89,1550.52 1150.02,1549.57 1151.13,1548.58 1152.21,1547.57 "/>
     <polygon id="_334277584" class="fil1" points="938.335,1564.65 2074.22,2700.53 2072.63,2700.51 2071.05,2700.45 2069.48,2700.35 2067.92,2700.21 2066.37,2700.03 2064.84,2699.82 2063.32,2699.57 2061.8,2699.27 2060.31,2698.95 2058.82,2698.58 2057.35,2698.18 2055.9,2697.75 2054.46,2697.28 2053.03,2696.78 2051.62,2696.24 2050.23,2695.67 2048.86,2695.06 2047.5,2694.43 2046.16,2693.76 2044.84,2693.06 2043.53,2692.33 2042.25,2691.57 2040.99,2690.78 2039.75,2689.96 2038.53,2689.12 2037.33,2688.24 2036.15,2687.34 2034.99,2686.41 2033.86,2685.45 897.981,1549.57 899.114,1550.52 900.269,1551.45 901.446,1552.36 902.645,1553.23 903.866,1554.08 905.109,1554.9 906.372,1555.69 907.653,1556.45 908.956,1557.18 910.276,1557.88 911.617,1558.54 912.974,1559.18 914.349,1559.78 915.741,1560.36 917.15,1560.89 918.575,1561.4 920.016,1561.87 921.471,1562.3 922.941,1562.7 924.425,1563.06 925.922,1563.39 927.434,1563.68 928.957,1563.94 930.493,1564.15 932.039,1564.33 933.598,1564.47 935.167,1564.57 936.746,1564.63 "/>
     <polygon id="_334277104" class="fil1" points="876.616,1491.74 2012.5,2627.62 2011.49,2627.62 875.605,1491.74 "/>
     <polygon id="_334277536" class="fil1" points="875.605,1491.74 2011.49,2627.62 2009.16,2627.5 2006.9,2627.16 2004.71,2626.6 2002.62,2625.83 2000.63,2624.87 1998.75,2623.73 1997,2622.42 861.114,1486.53 862.868,1487.85 864.746,1488.99 866.737,1489.95 868.831,1490.71 871.014,1491.27 873.276,1491.62 "/>
     <polygon id="_334277440" class="fil1" points="876.616,1412.7 2012.5,2548.59 2011.49,2548.59 875.605,1412.7 "/>
     <polygon id="_334277560" class="fil1" points="875.605,1412.7 2011.49,2548.59 2009.16,2548.47 2006.9,2548.12 2004.71,2547.56 2002.62,2546.8 2000.63,2545.84 1998.75,2544.7 1997,2543.38 861.114,1407.5 862.868,1408.81 864.746,1409.95 866.737,1410.91 868.831,1411.68 871.014,1412.24 873.276,1412.59 "/>
     <polygon id="_334277464" class="fil1" points="876.616,1339.29 2012.5,2475.17 2011.81,2475.17 875.925,1339.29 "/>
     <polygon id="_334277704" class="fil1" points="875.925,1339.29 2011.81,2475.17 2011.81,2475.67 875.925,1339.79 "/>
     <polygon id="_334277200" class="fil1" points="875.925,1339.79 2011.81,2475.67 1962.83,2475.67 826.947,1339.79 "/>
     <polygon id="_334278184" class="fil1" points="826.947,1339.79 1962.83,2475.67 1962.22,2475.66 1961.61,2475.64 1961,2475.6 1960.4,2475.54 1959.8,2475.47 1959.21,2475.39 1958.63,2475.28 1958.05,2475.17 822.165,1339.29 822.746,1339.4 823.332,1339.5 823.923,1339.59 824.519,1339.66 825.12,1339.72 825.725,1339.76 826.334,1339.78 "/>
     <polygon id="_334278352" class="fil1" points="821.998,1339.25 1957.88,2475.13 1956.54,2474.79 1955.24,2474.38 1953.98,2473.89 1952.75,2473.33 1951.56,2472.7 1950.42,2472 1949.32,2471.23 1948.27,2470.41 1947.27,2469.53 811.385,1333.65 812.385,1334.53 813.436,1335.35 814.535,1336.11 815.681,1336.81 816.869,1337.44 818.097,1338.01 819.363,1338.5 820.664,1338.91 "/>
     <polygon id="_334278424" class="fil1" points="822.165,1339.29 1958.05,2475.17 1957.88,2475.17 821.998,1339.29 "/>
     <polygon id="_334278088" class="fil1" points="1113.73,1564.65 2249.61,2700.53 2247.78,2701.61 2245.87,2702.67 2243.87,2703.7 2241.81,2704.71 2239.66,2705.69 2237.45,2706.65 2235.16,2707.57 2232.8,2708.47 2230.38,2709.34 2227.89,2710.18 2225.34,2711 2222.72,2711.78 2220.04,2712.53 2217.3,2713.24 2214.51,2713.93 2211.66,2714.58 2208.76,2715.19 2205.8,2715.78 2202.79,2716.32 2199.74,2716.83 2196.63,2717.31 2193.48,2717.74 2190.29,2718.14 2187.06,2718.5 2183.78,2718.82 2180.47,2719.1 2177.12,2719.33 2173.74,2719.53 2170.32,2719.68 2166.87,2719.79 2163.39,2719.86 2159.88,2719.88 2156.37,2719.86 2152.89,2719.79 2149.44,2719.68 2146.02,2719.53 2142.64,2719.33 2139.29,2719.1 2135.98,2718.82 2132.7,2718.5 2129.47,2718.14 2126.28,2717.74 2123.13,2717.31 2120.02,2716.83 2116.97,2716.32 2113.96,2715.78 2111,2715.19 2108.1,2714.58 2105.25,2713.93 2102.46,2713.24 2099.72,2712.53 2097.04,2711.78 2094.42,2711 2091.87,2710.18 2089.38,2709.34 2086.96,2708.47 2084.6,2707.57 2082.31,2706.65 2080.1,2705.69 2077.96,2704.71 2075.89,2703.7 2073.9,2702.67 2071.98,2701.61 2070.15,2700.53 934.268,1564.65 936.101,1565.73 938.015,1566.79 940.006,1567.82 942.074,1568.83 944.216,1569.81 946.432,1570.76 948.719,1571.69 951.074,1572.59 953.499,1573.46 955.989,1574.3 958.543,1575.11 961.159,1575.89 963.838,1576.64 966.575,1577.36 969.369,1578.04 972.219,1578.7 975.124,1579.31 978.08,1579.89 981.087,1580.44 984.144,1580.95 987.246,1581.42 990.395,1581.86 993.588,1582.26 996.822,1582.62 1000.1,1582.93 1003.41,1583.21 1006.76,1583.45 1010.14,1583.65 1013.56,1583.8 1017.01,1583.91 1020.49,1583.98 1024,1584 1027.51,1583.98 1030.99,1583.91 1034.44,1583.8 1037.85,1583.65 1041.24,1583.45 1044.59,1583.21 1047.9,1582.93 1051.18,1582.62 1054.41,1582.26 1057.6,1581.86 1060.75,1581.42 1063.85,1580.95 1066.91,1580.44 1069.92,1579.89 1072.87,1579.31 1075.78,1578.7 1078.63,1578.04 1081.42,1577.36 1084.16,1576.64 1086.84,1575.89 1089.46,1575.11 1092.01,1574.3 1094.5,1573.46 1096.92,1572.59 1099.28,1571.69 1101.57,1570.76 1103.78,1569.81 1105.92,1568.83 1107.99,1567.82 1109.98,1566.79 1111.9,1565.73 "/>
    </g>
    <path id="_451247960" class="fil1" d="M1269.19 565.562c62.7497,62.7497 101.562,149.438 101.562,245.186 0,101.994 -22.6701,134.252 -47.3646,169.389 -24.9343,35.4792 -52.317,74.4414 -52.317,229.67 0,21.0095 -2.63977,41.4473 -7.60394,60.991 -5.06693,19.9477 -12.6768,39.0898 -22.4776,57.0674l0.068504 0.0472441c-3.2752,6.00709 -8.86182,9.94961 -15.052,11.3303l0 0.0425197 -0.197244 0c-1.65236,0.35315 -3.34843,0.525591 -5.05276,0.504331l-48.6768 0 0 -0.504331 -0.690945 0 0 27.854 1.00866 0c12.5811,0 22.7811,10.2 22.7811,22.7823 0,12.5811 -10.2,22.7811 -22.7811,22.7811l-1.00866 0 0 33.4701 1.00866 0c12.5811,0 22.7811,10.2 22.7811,22.7811 0,12.5823 -10.2,22.7823 -22.7811,22.7823l-1.00866 0 0 11.1945c0,16.9949 -6.93898,32.4307 -18.1122,43.6063 -11.1756,11.1744 -26.6114,18.1122 -43.6063,18.1122l4.06536 0c-19.1256,11.6528 -52.1705,19.3512 -89.732,19.3512 -37.5614,0 -70.6064,-7.69843 -89.7308,-19.3512l4.06654 0c-16.9949,0 -32.4307,-6.9378 -43.6063,-18.1122 -11.1744,-11.1744 -18.1122,-26.6114 -18.1122,-43.6063l0 -11.1945 -1.01102 0c-12.5811,0 -22.7811,-10.2 -22.7811,-22.7823 0,-12.5811 10.2,-22.7811 22.7811,-22.7811l1.01102 0 0 -33.4701 -1.01102 0c-12.5811,0 -22.7811,-10.2 -22.7811,-22.7811 0,-12.5823 10.2,-22.7823 22.7811,-22.7823l1.01102 0 0 -27.854 -0.690945 0 0 0.504331 -48.978 0c-1.64055,0 -3.23977,-0.174803 -4.78229,-0.504331l-0.166536 0 0 -0.0354331c-7.19764,-1.59449 -13.1126,-6.59292 -15.9744,-13.2189 -9.32481,-17.4425 -16.5921,-35.9622 -21.4878,-55.2331 -4.96418,-19.5437 -7.60394,-39.9815 -7.60394,-60.991 0,-155.229 -27.3827,-194.191 -52.317,-229.67 -24.6945,-35.1366 -47.3646,-67.3949 -47.3646,-169.389 0,-95.7485 38.8122,-182.437 101.563,-245.186 62.7497,-62.7497 149.438,-101.562 245.186,-101.562 95.7485,0 182.437,38.8122 245.186,101.562z"/>
   </g>
  </g>
  <path class="fil2" d="M1024 -0.0011811c565.539,0 1024,458.462 1024,1024 0,565.539 -458.462,1024 -1024,1024 -565.539,0 -1024,-458.462 -1024,-1024 0,-565.539 458.462,-1024 1024,-1024z"/>
  <path class="fil3" d="M899.397 1307.58l249.206 0c12.5811,0 22.7811,10.2 22.7811,22.7811l0 172.575c0,16.9949 -6.93898,32.4307 -18.1122,43.6063 -11.1756,11.1744 -26.6114,18.1122 -43.6063,18.1122l-171.331 0c-16.9949,0 -32.4307,-6.9378 -43.6063,-18.1122 -11.1744,-11.1744 -18.1122,-26.6114 -18.1122,-43.6063l0 -172.575c0,-12.5811 10.2,-22.7811 22.7811,-22.7811z"/>
  <path class="fil4" d="M1113.73 1564.65l-179.463 0c19.1244,11.6528 52.1705,19.3512 89.7308,19.3512 37.5614,0 70.6064,-7.69843 89.732,-19.3512z"/>
  <path class="fil5" d="M1024 464c95.7485,0 182.437,38.8122 245.186,101.562 62.7497,62.7497 101.562,149.438 101.562,245.186 0,101.994 -22.6701,134.252 -47.3646,169.389 -24.9343,35.4792 -52.317,74.4414 -52.317,229.67 0,21.0095 -2.63977,41.4473 -7.60394,60.991 -5.06693,19.9477 -12.6768,39.0898 -22.4776,57.0674l-14.9835 -8.16142 0 0.00236221 15.052 8.20631c-3.2752,6.00709 -8.86182,9.94961 -15.052,11.3303l0 0.0425197 -0.197244 0c-1.65236,0.35315 -3.34843,0.525591 -5.05276,0.504331l-48.6768 0 0 -0.504331 -296.15 0 0 0.504331 -48.978 0c-1.64055,0 -3.23977,-0.174803 -4.78229,-0.504331l-0.166536 0 0 -0.0354331c-7.19764,-1.59449 -13.1126,-6.59292 -15.9744,-13.2189 -9.32481,-17.4425 -16.5921,-35.9622 -21.4878,-55.2331 -4.96418,-19.5437 -7.60394,-39.9815 -7.60394,-60.991 0,-155.229 -27.3827,-194.191 -52.317,-229.67 -24.6945,-35.1366 -47.3646,-67.3949 -47.3646,-169.389 0,-95.7485 38.8122,-182.437 101.563,-245.186 62.7497,-62.7497 149.438,-101.562 245.186,-101.562z"/>
  <path class="fil6" d="M1149.29 1339.29l-250.59 0 0 -198.334c0,-12.8835 5.29961,-24.6118 13.8378,-33.1276 8.51457,-8.49449 20.25,-13.7669 33.1477,-13.7669l156.619 0c12.8965,0 24.6331,5.27244 33.1465,13.7669 8.5382,8.51575 13.839,20.2441 13.839,33.1276l0 198.334z"/>
  <path class="fil7" d="M985.542 1098.13c6.94843,-57.567 5.78741,-143.304 -4.77166,-194.443 -12.2055,-59.1071 -36.8965,-113.493 -76.0229,-162.416 3.37559,-3.18189 6.62008,-6.77835 9.86457,-10.3748 6.14882,-6.81497 12.3,-13.6323 15.1146,-13.6323 2.97992,0 9.13701,6.53032 15.2929,13.0583 9.55394,10.1339 19.1103,20.2689 31.8437,20.2689 10.9382,0 20.1921,-5.60788 29.4414,-11.2134 6.46063,-3.91536 12.9225,-7.83071 17.6953,-7.83071 4.47402,0 10.885,4.2437 17.2961,8.48505 9.30001,6.15591 18.6036,12.313 29.8418,12.313 12.5433,0 22.0831,-9.58465 31.6217,-19.1693 6.17245,-6.20079 12.3473,-12.4039 15.515,-12.4039 3.88701,0 10.1681,5.05867 16.4492,10.1173 3.45236,2.78032 6.90355,5.55945 10.474,7.96772 -40.2567,49.5449 -65.5619,104.75 -77.9694,164.83 -10.5591,51.1382 -11.7201,136.876 -4.77048,194.443l22.8638 0c-7.02284,-56.1745 -6.06733,-140.408 4.15276,-189.904 12.2776,-59.4497 38.0079,-113.85 79.4469,-162.35 9.72757,-1.13386 18.0744,-6.79016 26.4213,-12.4476 6.37796,-4.32284 12.7571,-8.64686 17.2051,-8.64686 6.29056,0 11.3906,-5.10119 11.3906,-11.3906 0,-6.29056 -5.1,-11.3917 -11.3906,-11.3917 -11.263,0 -20.5984,6.32835 -29.9303,12.6532 -6.37796,4.32284 -12.7571,8.64686 -17.2063,8.64686 -3.88583,0 -10.1681,-5.05867 -16.448,-10.1185 -9.42993,-7.59449 -18.8622,-15.1914 -30.6886,-15.1914 -12.541,0 -22.0831,9.58583 -31.6217,19.1693 -6.17245,6.20197 -12.3484,12.4051 -15.515,12.4051 -4.47402,0 -10.8862,-4.2437 -17.2949,-8.48623 -9.30237,-6.15591 -18.6047,-12.313 -29.8429,-12.313 -10.9394,0 -20.1921,5.6067 -29.4414,11.2134 -6.46063,3.91536 -12.9225,7.8319 -17.6953,7.8319 -2.97992,0 -9.13701,-6.53032 -15.2929,-13.0595 -9.55394,-10.1339 -19.1114,-20.2689 -31.8437,-20.2689 -12.8976,0 -22.4599,10.5992 -32.0221,21.1973 -3.77953,4.19055 -7.55788,8.37993 -10.5638,10.9866 -2.39764,0.0354331 -4.79646,0.826772 -6.81378,2.40118 -4.47284,-0.904725 -9.99804,-4.16339 -15.5221,-7.42323 -9.21261,-5.43662 -18.4276,-10.8732 -29.3528,-10.8732 -6.28937,0 -11.3906,5.10119 -11.3906,11.3906 0,6.29056 5.10119,11.3906 11.3906,11.3906 4.78701,0 11.2878,3.83504 17.7851,7.67008 9.21261,5.43662 18.4264,10.8732 29.3528,10.8732 0.552756,0 1.10079,-0.0212599 1.64173,-0.0602363 38.4296,46.9323 62.5323,99.2457 74.2926,156.191 10.2201,49.4953 11.1756,133.729 4.15394,189.904l22.8638 0z"/>
  <path class="fil8" d="M875.605 1367.14c-12.5811,0 -22.7811,10.2 -22.7811,22.7823 0,12.5811 10.2,22.7811 22.7811,22.7811l296.788 0c12.5811,0 22.7811,-10.2 22.7811,-22.7811 0,-12.5823 -10.2,-22.7823 -22.7811,-22.7823l-296.788 0z"/>
  <path class="fil8" d="M875.605 1446.17c-12.5811,0 -22.7811,10.2 -22.7811,22.7811 0,12.5823 10.2,22.7823 22.7811,22.7823l296.788 0c12.5811,0 22.7811,-10.2 22.7811,-22.7823 0,-12.5811 -10.2,-22.7811 -22.7811,-22.7811l-296.788 0z"/>
 </g>
</svg>
