<?xml version="1.0" encoding="UTF-8"?>
<!DOCTYPE svg PUBLIC "-//W3C//DTD SVG 1.1//EN" "http://www.w3.org/Graphics/SVG/1.1/DTD/svg11.dtd">
<!-- Creator: CorelDRAW -->
<svg xmlns="http://www.w3.org/2000/svg" xml:space="preserve" width="2048px" height="2048px" style="shape-rendering:geometricPrecision; text-rendering:geometricPrecision; image-rendering:optimizeQuality; fill-rule:evenodd; clip-rule:evenodd"
viewBox="0 0 2048 2048"
 xmlns:xlink="http://www.w3.org/1999/xlink">
 <defs>
  <style type="text/css">
   <![CDATA[
    .fil2 {fill:none}
    .fil1 {fill:#689F38}
    .fil0 {fill:#9CCC65}
    .fil3 {fill:#A7813F}
    .fil9 {fill:#FF8F00}
    .fil4 {fill:#FFB74D}
    .fil8 {fill:#3E2723;fill-rule:nonzero}
    .fil5 {fill:#424242;fill-rule:nonzero}
    .fil7 {fill:#E65100;fill-rule:nonzero}
    .fil11 {fill:#F57C00;fill-rule:nonzero}
    .fil6 {fill:#FD9E22;fill-rule:nonzero}
    .fil10 {fill:#FFA726;fill-rule:nonzero}
   ]]>
  </style>
   <clipPath id="id0">
    <path d="M1024 -0.0011811c565.539,0 1024,458.462 1024,1024 0,565.539 -458.462,1024 -1024,1024 -565.539,0 -1024,-458.462 -1024,-1024 0,-565.539 458.462,-1024 1024,-1024z"/>
   </clipPath>
 </defs>
 <g id="Layer_x0020_1">
  <metadata id="CorelCorpID_0Corel-Layer"/>
  <path class="fil0" d="M1024 -0.0011811c565.539,0 1024,458.462 1024,1024 0,565.539 -458.462,1024 -1024,1024 -565.539,0 -1024,-458.462 -1024,-1024 0,-565.539 458.462,-1024 1024,-1024z"/>
  <g style="clip-path:url(#id0)">
   <g id="_451245032">
    <g>
     <polygon id="_3305039921" class="fil1" points="1583.65,464 2719.53,1599.88 2719.53,1646.52 1583.65,510.641 "/>
     <polygon id="_330503440" class="fil1" points="1583.65,510.641 2719.53,1646.52 2715.86,1646.57 2712.21,1646.71 2708.58,1646.93 2704.98,1647.25 2701.41,1647.65 2697.86,1648.14 2694.34,1648.72 2690.84,1649.38 2687.38,1650.12 2683.95,1650.95 2680.55,1651.86 2677.18,1652.84 2673.85,1653.91 2670.55,1655.05 2667.29,1656.27 2664.07,1657.57 2660.89,1658.94 2657.75,1660.38 2654.65,1661.9 2651.59,1663.48 2648.57,1665.14 2645.61,1666.86 2642.68,1668.66 2639.81,1670.51 2636.98,1672.44 2634.2,1674.43 2631.47,1676.48 2628.8,1678.59 2626.17,1680.77 2623.6,1683 2621.09,1685.29 2618.63,1687.64 1482.75,551.759 1485.21,549.409 1487.72,547.117 1490.29,544.883 1492.91,542.709 1495.59,540.596 1498.32,538.544 1501.1,536.555 1503.92,534.631 1506.8,532.773 1509.72,530.98 1512.69,529.256 1515.71,527.6 1518.77,526.014 1521.87,524.5 1525.01,523.056 1528.19,521.686 1531.41,520.391 1534.67,519.17 1537.97,518.027 1541.3,516.962 1544.66,515.974 1548.06,515.067 1551.5,514.242 1554.96,513.498 1558.45,512.837 1561.98,512.261 1565.53,511.771 1569.1,511.367 1572.7,511.05 1576.33,510.824 1579.98,510.687 "/>
     <polygon id="_330503488" class="fil1" points="1482.75,551.759 2618.63,1687.64 2616.23,1690.05 2613.89,1692.51 2611.61,1695.03 2609.39,1697.59 2607.23,1700.21 2605.14,1702.89 2603.11,1705.61 2601.14,1708.37 2599.24,1711.19 2597.41,1714.05 2595.65,1716.96 2593.96,1719.91 2592.34,1722.91 2590.79,1725.94 2589.32,1729.02 2587.92,1732.14 2586.6,1735.29 2585.35,1738.48 2584.18,1741.71 2583.1,1744.97 2582.09,1748.27 2581.16,1751.6 2580.32,1754.96 2579.56,1758.35 2578.88,1761.77 2578.3,1765.22 2577.79,1768.69 2577.38,1772.2 2577.06,1775.72 2576.83,1779.27 2576.69,1782.85 2576.64,1786.44 1440.76,650.559 1440.81,646.965 1440.95,643.391 1441.18,639.84 1441.5,636.313 1441.91,632.812 1442.41,629.336 1443,625.888 1443.68,622.466 1444.44,619.075 1445.28,615.715 1446.21,612.386 1447.21,609.089 1448.3,605.827 1449.47,602.599 1450.72,599.408 1452.04,596.253 1453.44,593.137 1454.91,590.061 1456.46,587.025 1458.08,584.031 1459.77,581.079 1461.53,578.171 1463.36,575.309 1465.26,572.493 1467.22,569.724 1469.25,567.003 1471.35,564.332 1473.51,561.711 1475.73,559.144 1478.01,556.628 1480.35,554.167 "/>
     <polygon id="_330504136" class="fil1" points="1440.76,650.559 2576.64,1786.44 2576.52,1788.83 2576.16,1791.14 2575.57,1793.38 2574.77,1795.52 2573.77,1797.56 2572.57,1799.48 2571.2,1801.27 2569.66,1802.93 2567.97,1804.44 2566.14,1805.78 2564.18,1806.95 2562.1,1807.93 2559.91,1808.71 2557.62,1809.29 2555.26,1809.64 2552.83,1809.76 1416.94,673.878 1419.38,673.758 1421.74,673.405 1424.03,672.83 1426.21,672.045 1428.3,671.064 1430.26,669.896 1432.09,668.553 1433.78,667.048 1435.32,665.392 1436.69,663.597 1437.88,661.674 1438.89,659.636 1439.69,657.493 1440.28,655.258 1440.64,652.943 "/>
     <polygon id="_330504784" class="fil1" points="1416.94,673.878 2552.83,1809.76 2536.41,1809.76 1400.53,673.878 "/>
     <polygon id="_330504232" class="fil1" points="565.248,551.759 1701.13,1687.64 1698.67,1685.29 1696.16,1683 1693.59,1680.77 1690.97,1678.59 1688.29,1676.48 1685.56,1674.43 1682.78,1672.44 1679.96,1670.51 1677.08,1668.66 1674.16,1666.86 1671.19,1665.14 1668.17,1663.48 1665.11,1661.9 1662.01,1660.38 1658.87,1658.94 1655.69,1657.57 1652.47,1656.27 1649.21,1655.05 1645.91,1653.91 1642.58,1652.84 1639.22,1651.86 1635.82,1650.95 1632.38,1650.12 1628.92,1649.38 1625.43,1648.72 1621.91,1648.14 1618.36,1647.65 1614.78,1647.25 1611.18,1646.93 1607.55,1646.71 1603.9,1646.57 1600.23,1646.52 464.351,510.641 468.022,510.687 471.67,510.824 475.296,511.05 478.898,511.367 482.475,511.771 486.024,512.261 489.546,512.837 493.039,513.498 496.503,514.242 499.934,515.067 503.334,515.974 506.7,516.962 510.032,518.027 513.329,519.17 516.587,520.391 519.809,521.686 522.991,523.056 526.133,524.5 529.233,526.014 532.291,527.6 535.306,529.256 538.275,530.98 541.198,532.773 544.074,534.631 546.902,536.555 549.681,538.544 552.408,540.596 555.084,542.709 557.708,544.883 560.276,547.117 562.79,549.409 "/>
     <polygon id="_330504184" class="fil1" points="631.055,673.878 1766.94,1809.76 1764.5,1809.64 1762.14,1809.29 1759.85,1808.71 1757.67,1807.93 1755.58,1806.95 1753.62,1805.78 1751.79,1804.44 1750.1,1802.93 614.215,667.048 615.906,668.553 617.739,669.896 619.704,671.064 621.785,672.045 623.973,672.83 626.255,673.405 628.62,673.758 "/>
     <polygon id="_330504520" class="fil1" points="647.468,673.878 1783.35,1809.76 1766.94,1809.76 631.055,673.878 "/>
     <polygon id="_330504280" class="fil1" points="1400.53,673.878 2536.41,1809.76 2536.41,2580.63 1400.53,1444.75 "/>
     <polygon id="_330504424" class="fil1" points="1560.88,1584 2696.76,2719.88 1623,2719.88 487.115,1584 "/>
     <polygon id="_330504664" class="fil1" points="487.115,1584 1623,2719.88 1620.66,2719.76 1618.39,2719.41 1616.2,2718.83 1614.1,2718.05 1612.11,2717.07 1610.22,2715.9 1608.47,2714.56 472.584,1578.68 474.343,1580.02 476.227,1581.19 478.223,1582.17 480.322,1582.95 482.511,1583.53 484.779,1583.88 "/>
     <polygon id="_330504544" class="fil1" points="1577.04,1451.58 2712.92,2587.46 2714.39,2589.12 2715.71,2590.91 2716.85,2592.84 2717.81,2594.87 2718.58,2597.02 2719.15,2599.25 2719.49,2601.57 2719.61,2603.95 1583.73,1468.07 1583.61,1465.68 1583.26,1463.37 1582.7,1461.13 1581.93,1458.99 1580.97,1456.95 1579.83,1455.03 1578.51,1453.24 "/>
     <polygon id="_330504304" class="fil1" points="1583.73,1468.07 2719.61,2603.95 2719.61,2696.56 1583.73,1560.68 "/>
     <polygon id="_330504616" class="fil1" points="1583.73,1560.68 2719.61,2696.56 2719.49,2698.95 2719.15,2701.26 2718.58,2703.5 2717.81,2705.64 2716.85,2707.68 2715.71,2709.6 2714.39,2711.4 2712.92,2713.05 2711.3,2714.56 2709.54,2715.9 2707.65,2717.07 2705.66,2718.05 2703.56,2718.83 2701.37,2719.41 2699.1,2719.76 2696.76,2719.88 1560.88,1584 1563.22,1583.88 1565.49,1583.53 1567.68,1582.95 1569.78,1582.17 1571.77,1581.19 1573.66,1580.02 1575.41,1578.68 1577.04,1577.17 1578.51,1575.51 1579.83,1573.72 1580.97,1571.8 1581.93,1569.76 1582.7,1567.61 1583.26,1565.38 1583.61,1563.06 "/>
    </g>
    <path id="_451245320" class="fil1" d="M464.351 464l1119.3 0 0 46.6406c-39.2705,0 -74.9882,15.7488 -100.898,41.1189 -25.9087,25.3713 -41.9918,60.3461 -41.9918,98.7993 0,12.8788 -10.663,23.3197 -23.8146,23.3197l-16.4138 0 0 770.869 160.352 0c12.6165,0 22.8449,10.4421 22.8449,23.3209l0 92.6115c0,12.8788 -10.2284,23.3209 -22.8449,23.3209l-1073.77 0c-12.6165,0 -22.8437,-10.4421 -22.8437,-23.3209l0 -92.6115c0,-12.8788 10.2272,-23.3209 22.8437,-23.3209l160.352 0 0 -770.869 -16.4126 0c-13.1528,0 -23.8158,-10.441 -23.8158,-23.3197 0,-38.4532 -16.0831,-73.428 -41.9918,-98.7993 -25.9099,-25.3701 -61.6276,-41.1189 -100.897,-41.1189l0 -46.6406z"/>
   </g>
  </g>
  <path class="fil2" d="M1024 -0.0011811c565.539,0 1024,458.462 1024,1024 0,565.539 -458.462,1024 -1024,1024 -565.539,0 -1024,-458.462 -1024,-1024 0,-565.539 458.462,-1024 1024,-1024z"/>
  <rect class="fil3" x="777.28" y="640.35" width="471.407" height="826.67"/>
  <path class="fil4" d="M670.789 626.874l139.918 0c12.8788,0 23.3197,10.441 23.3197,23.3209l0 817.496c0,12.8788 -10.441,23.3209 -23.3197,23.3209l-139.918 0c-12.8788,0 -23.3209,-10.4421 -23.3209,-23.3209l0 -817.496c0,-12.8799 10.4421,-23.3209 23.3209,-23.3209z"/>
  <path class="fil4" d="M1237.29 626.874l139.918 0c12.8788,0 23.3197,10.441 23.3197,23.3209l0 817.496c0,12.8788 -10.441,23.3209 -23.3197,23.3209l-139.918 0c-12.8788,0 -23.3209,-10.4421 -23.3209,-23.3209l0 -817.496c0,-12.8799 10.4421,-23.3209 23.3209,-23.3209z"/>
  <path class="fil5" d="M1460.58 510.641l-849.836 0c2.97756,2.62323 5.87363,5.33859 8.67875,8.14371 28.6028,28.6028 48.0237,66.404 53.3221,108.454l725.835 0c5.29843,-42.0496 24.7193,-79.8508 53.3221,-108.454 2.80512,-2.80512 5.70119,-5.52048 8.67757,-8.14371z"/>
  <path class="fil6" d="M464.351 464l1119.3 0 0 46.6406c-39.2705,0 -74.9882,15.7488 -100.897,41.1189 -25.9099,25.3713 -41.9929,60.3461 -41.9929,98.7993 0,12.8788 -10.663,23.3197 -23.8158,23.3197l-785.888 0c-13.1528,0 -23.8158,-10.441 -23.8158,-23.3197 0,-38.4532 -16.0831,-73.428 -41.9918,-98.7993 -25.9099,-25.3701 -61.6276,-41.1189 -100.897,-41.1189l0 -46.6406z"/>
  <polygon class="fil5" points="1560.41,1491.39 510.912,1491.39 510.912,1537.36 1560.41,1537.36 "/>
  <path class="fil6" d="M487.115 1444.75l1073.77 0c12.6165,0 22.8449,10.4421 22.8449,23.3209l0 92.6115c0,12.8788 -10.2284,23.3209 -22.8449,23.3209l-1073.77 0c-12.6154,0 -22.8437,-10.4421 -22.8437,-23.3209l0 -92.6115c0,-12.8788 10.2284,-23.3209 22.8437,-23.3209z"/>
  <path class="fil5" d="M1056.36 1107.34c-4.96063,-9.04489 -9.66379,-17.6173 -13.7717,-25.5272 0.126378,11.9067 1.63465,24.2421 3.09213,36.1677 4.28859,35.0764 8.19922,67.0607 -20.1402,84.5351 -7.93938,4.89804 -14.9835,-1.39725 -21.541,-12.0295 -2.7815,-4.51063 -5.72126,-9.89528 -8.59371,-15.1547 -1.50591,-2.75906 -2.98937,-5.47678 -4.31103,-7.89095 -4.94174,11.4532 -9.08032,22.8295 -12.2681,33.7618 -4.18111,14.328 -6.71221,27.8268 -7.25552,39.6473 -0.796064,17.2795 7.3063,29.6398 19.7138,37.265 8.31024,5.10591 18.5374,8.23938 29.4425,9.4441 11.1791,1.23425 22.9855,0.448819 34.1575,-2.30315 22.8862,-5.63977 42.952,-19.4917 48.6189,-40.9926 9.0756,-34.4315 -22.4173,-91.845 -47.1437,-136.923z"/>
  <path class="fil7" d="M1046.88 1046.66c3.43465,11.7118 13.6949,30.4181 25.4776,51.9 26.2654,47.8843 59.7178,108.869 48.7855,150.347 -7.57914,28.7587 -33.0579,46.95 -61.8981,54.0567 -13.2532,3.26575 -27.2563,4.19764 -40.513,2.73307 -13.5295,-1.49528 -26.3729,-5.47796 -37.0099,-12.0154 -17.8477,-10.9665 -29.5004,-28.7492 -28.3536,-53.615 0.611811,-13.2862 3.39095,-28.2366 7.97008,-43.9311 4.60985,-15.8043 11.0658,-32.4378 18.9791,-48.9284 3.10394,-6.46772 7.7941,-7.77757 13.7764,-4.90394 5.45906,2.61851 11.2512,13.2248 17.3091,24.3201 2.76024,5.05512 5.58662,10.2319 8.0941,14.2973 1.01811,1.65118 -0.800788,2.17677 3.29528,-0.350788 18.3591,-11.3209 8.3067,-31.3394 4.7563,-60.3745 -2.9941,-24.4949 -6.18308,-50.5807 1.76575,-74.4272l-0.0295276 -0.034252c1.59449,-4.78819 6.77127,-7.37481 11.5595,-5.77914 3.16299,1.05354 5.36457,3.67087 6.03544,6.70512z"/>
  <path class="fil5" d="M971.468 977.881c-7.08071,16.2354 -12.6721,31.7575 -12.6839,41.4721 -0.022441,16.5295 7.49528,30.0626 14.1024,41.9552 3.34961,6.02953 6.5126,11.7248 8.74725,17.3669 1.44567,-3.28701 2.75079,-6.78308 3.85866,-10.3843 3.82796,-12.4382 5.06339,-25.6323 1.37835,-34.9441 -5.84174,-14.7626 -11.4461,-30.8799 -14.3705,-48.3107 -0.396851,-2.36457 -0.742914,-4.7504 -1.03228,-7.15512z"/>
  <path class="fil7" d="M940.576 1019.35c0.0283465,-20.8465 17.3221,-56.4449 30.2729,-83.106l4.42559 -9.10867 8.21103 3.92717 -8.23938 -3.95315c2.18268,-4.55079 7.64292,-6.4689 12.1937,-4.28622 4.16693,1.99961 6.12638,6.74882 4.74922,11.0291 -4.4126,16.774 -4.2567,32.9197 -1.69606,48.1831 2.63504,15.7051 7.87914,30.7217 13.3701,44.5973 5.31378,13.4256 3.97323,31.017 -0.948426,47.0103 -5.4815,17.8099 -15.7358,34.2544 -26.3528,41.0563l0.0200788 0.0318898c-4.25079,2.72008 -9.90355,1.47874 -12.6236,-2.77323 -2.07402,-3.24213 -1.84488,-7.29804 0.266929,-10.2484 5.113,-9.27284 -0.550394,-19.4717 -7.26024,-31.5508 -7.67953,-13.8213 -16.4173,-29.5512 -16.389,-50.8087z"/>
  <path class="fil8" d="M1026.61 1353.01c4.61339,-9.46536 1.09724,-21.0957 -7.85316,-25.9736 -8.95158,-4.87796 -19.9488,-1.16102 -24.5622,8.30552 -5.2063,10.6925 -20.0551,16.1445 -35.5004,21.815 -22.2118,8.15316 -45.2941,16.6264 -60.0591,41.2489 -5.40237,9.00709 -2.87717,20.941 5.63977,26.6528 8.51812,5.713 19.8024,3.04252 25.2047,-5.96457 8.04922,-13.4232 24.8752,-19.6016 41.0658,-25.5437 22.5532,-8.27953 44.2335,-16.2378 56.0646,-40.5402z"/>
  <path class="fil8" d="M1121.19 1373.19c4.94882,1.00039 9.72875,-2.43071 10.6736,-7.663 0.946064,-5.23347 -2.29843,-10.2874 -7.24607,-11.2878 -21.8587,-4.42678 -39.6154,7.66182 -58.0843,20.2358 -15.789,10.7492 -32.1969,21.9189 -50.2276,20.015 -5.00788,-0.520867 -9.46772,3.34961 -9.96024,8.64568 -0.49252,5.29607 3.16772,10.0122 8.1756,10.5331 24.3603,2.57244 43.4717,-10.4398 61.8638,-22.9606 15.3496,-10.4492 30.104,-20.4945 44.8052,-17.5181z"/>
  <path class="fil8" d="M1065.22 1356.46c-8.47442,-5.74371 -10.9417,-17.6658 -5.50985,-26.628 5.43189,-8.96103 16.7067,-11.5701 25.1811,-5.82638 16.7221,11.3776 18.7925,29.4709 20.8795,47.7107 1.31221,11.4626 2.63977,23.0681 14.7484,21.7937 10.037,-1.08898 19.0099,6.63308 20.0398,17.2477 1.02992,10.6146 -6.27284,20.1024 -16.3099,21.1925 -47.7367,5.02087 -51.2244,-25.4504 -54.6697,-55.5532 -1.05709,-9.23859 -2.10709,-18.404 -4.35945,-19.937z"/>
  <path class="fil9" d="M702.353 736.186l76.7894 0 7.28741 0 0 7.28741 0 630.938 0 7.28741 -7.28741 0 -76.7894 0 -7.28623 0 -0.0011811 -7.28741 0 -630.938 0.0011811 -7.28741 7.28623 0zm69.502 14.5748l-62.2146 0 0 616.363 62.2146 0 0 -616.363z"/>
  <path class="fil9" d="M1268.86 736.186l76.7894 0 7.28859 0 0 7.28741 0 630.938 0 7.28741 -7.28859 0 -76.7894 0 -7.28623 0 -0.0011811 -7.28741 0 -630.938 0.0011811 -7.28741 7.28623 0zm69.502 14.5748l-62.2134 0 0 616.363 62.2134 0 0 -616.363z"/>
  <path class="fil10" d="M1062.51 1181.45c-0.0129921,-9.46772 -7.86733,-25.6358 -13.7492,-37.7445l-2.01024 -4.1374 -3.72874 1.78347 3.74174 -1.79528c-0.990946,-2.06693 -3.47126,-2.9374 -5.53819,-1.94646 -1.89213,0.908268 -2.7815,3.06496 -2.15669,5.00906 2.00433,7.61812 1.93347,14.9516 0.770079,21.8835 -1.19646,7.13386 -3.57874,13.9536 -6.07205,20.2547 -2.41299,6.09804 -1.80473,14.087 0.431103,21.352 2.48858,8.0882 7.14686,15.5575 11.9681,18.6461l-0.00944883 0.0153543c1.9311,1.23543 4.49882,0.670867 5.73426,-1.26024 0.941339,-1.47165 0.837402,-3.31418 -0.121654,-4.65473 -2.32205,-4.21181 0.250394,-8.84292 3.29764,-14.3291 3.4878,-6.27756 7.4563,-13.4221 7.44331,-23.0764z"/>
  <path class="fil11" d="M958.779 1019.19c0.0129921,-9.46772 7.86733,-25.6358 13.7492,-37.7445l2.01024 -4.1374 3.72874 1.78465 -3.74174 -1.79646c0.990946,-2.06693 3.47126,-2.9374 5.53819,-1.94646 1.89331,0.908268 2.78268,3.06496 2.15669,5.00906 -2.00433,7.61812 -1.93347,14.9516 -0.770079,21.8835 1.19646,7.13386 3.57874,13.9536 6.07205,20.2559 2.41418,6.09686 1.80473,14.087 -0.431103,21.3508 -2.48858,8.0882 -7.14567,15.5575 -11.9681,18.6461l0.00944883 0.0153543c-1.9311,1.23543 -4.49764,0.670867 -5.73308,-1.26024 -0.94252,-1.47165 -0.838583,-3.31418 0.120473,-4.65355 2.32205,-4.213 -0.249213,-8.8441 -3.29764,-14.3303 -3.4878,-6.27756 -7.4563,-13.4221 -7.44331,-23.0764z"/>
 </g>
</svg>
