<?xml version="1.0" encoding="UTF-8"?>
<!DOCTYPE svg PUBLIC "-//W3C//DTD SVG 1.1//EN" "http://www.w3.org/Graphics/SVG/1.1/DTD/svg11.dtd">
<!-- Creator: CorelDRAW -->
<svg xmlns="http://www.w3.org/2000/svg" xml:space="preserve" width="2048px" height="2048px" style="shape-rendering:geometricPrecision; text-rendering:geometricPrecision; image-rendering:optimizeQuality; fill-rule:evenodd; clip-rule:evenodd"
viewBox="0 0 2048 2048"
 xmlns:xlink="http://www.w3.org/1999/xlink">
 <defs>
  <style type="text/css">
   <![CDATA[
    .fil2 {fill:none}
    .fil1 {fill:#0288D1}
    .fil6 {fill:#3E2723}
    .fil8 {fill:#4E342E}
    .fil0 {fill:#4FC3F7}
    .fil9 {fill:#D7CCC8}
    .fil7 {fill:#ECEFF1}
    .fil5 {fill:#3E2723;fill-rule:nonzero}
    .fil3 {fill:#4E342E;fill-rule:nonzero}
    .fil4 {fill:#B2EBF2;fill-rule:nonzero}
   ]]>
  </style>
   <clipPath id="id0">
    <path d="M1024 -0.0011811c565.539,0 1024,458.462 1024,1024 0,565.539 -458.462,1024 -1024,1024 -565.539,0 -1024,-458.462 -1024,-1024 0,-565.539 458.462,-1024 1024,-1024z"/>
   </clipPath>
 </defs>
 <g id="Layer_x0020_1">
  <metadata id="CorelCorpID_0Corel-Layer"/>
  <path class="fil0" d="M1024 -0.0011811c565.539,0 1024,458.462 1024,1024 0,565.539 -458.462,1024 -1024,1024 -565.539,0 -1024,-458.462 -1024,-1024 0,-565.539 458.462,-1024 1024,-1024z"/>
  <g style="clip-path:url(#id0)">
   <g id="_451244144">
    <g>
     <polygon id="_3304988561" class="fil1" points="1328.78,592.02 2464.66,1727.9 2467.26,1730.96 2469.77,1734.04 2472.18,1737.16 2474.48,1740.31 1338.6,604.424 1336.29,601.277 1333.89,598.16 1331.38,595.074 "/>
     <polygon id="_330499336" class="fil1" points="1415.34,612.916 2551.22,1748.8 2552.56,1750.59 2553.73,1752.52 2554.71,1754.56 2555.5,1756.7 2556.08,1758.94 2556.43,1761.25 2556.55,1763.64 1420.67,627.758 1420.55,625.372 1420.19,623.056 1419.62,620.82 1418.83,618.675 1417.85,616.636 1416.68,614.712 "/>
     <polygon id="_330499960" class="fil1" points="1420.67,627.758 2556.55,1763.64 2556.55,1810.31 1420.67,674.424 "/>
     <polygon id="_330499720" class="fil1" points="1508.67,682.915 2644.55,1818.8 2645.9,1820.59 2647.07,1822.52 2648.05,1824.56 2648.83,1826.7 2649.41,1828.94 2649.76,1831.25 2649.88,1833.64 1514,697.758 1513.88,695.372 1513.53,693.055 1512.95,690.819 1512.17,688.675 1511.18,686.636 1510.02,684.712 "/>
     <polygon id="_330499984" class="fil1" points="1514,697.758 2649.88,1833.64 2649.88,2230.31 1514,1094.42 "/>
     <polygon id="_330500104" class="fil1" points="1514,1094.42 2649.88,2230.31 2649.76,2232.69 2649.41,2235.01 2648.83,2237.25 2648.05,2239.39 2647.07,2241.43 2645.9,2243.35 2644.55,2245.15 2643.05,2246.81 2641.39,2248.31 2639.59,2249.66 2637.67,2250.82 2635.63,2251.81 2633.49,2252.59 2631.25,2253.17 2628.93,2253.52 2626.55,2253.64 1490.67,1117.76 1493.05,1117.64 1495.37,1117.28 1497.6,1116.71 1499.75,1115.92 1501.79,1114.94 1503.71,1113.77 1505.51,1112.43 1507.17,1110.92 1508.67,1109.27 1510.02,1107.47 1511.18,1105.55 1512.17,1103.51 1512.95,1101.36 1513.53,1099.13 1513.88,1096.81 "/>
     <polygon id="_330500152" class="fil1" points="1490.67,1117.76 2626.55,2253.64 1693.21,2253.64 557.333,1117.76 "/>
     <polygon id="_330500224" class="fil1" points="557.333,1117.76 1693.21,2253.64 1690.83,2253.52 1688.51,2253.17 1686.28,2252.59 1684.13,2251.81 1682.09,2250.82 1680.17,2249.66 1678.37,2248.31 542.491,1112.43 544.288,1113.77 546.212,1114.94 548.25,1115.92 550.395,1116.71 552.631,1117.28 554.947,1117.64 "/>
     <polygon id="_330499792" class="fil1" points="1577.17,1149.02 2713.05,2284.9 2714.55,2286.56 2715.9,2288.36 2717.07,2290.28 2718.05,2292.32 2718.83,2294.46 2719.41,2296.7 2719.76,2299.02 2719.88,2301.4 1584,1165.52 1583.88,1163.13 1583.53,1160.82 1582.95,1158.58 1582.17,1156.44 1581.18,1154.4 1580.01,1152.47 1578.67,1150.68 "/>
     <polygon id="_330500320" class="fil1" points="1584,1165.52 2719.88,2301.4 2719.76,2303.79 2719.41,2306.11 2718.83,2308.34 2718.05,2310.48 2717.07,2312.52 2715.9,2314.45 2714.55,2316.25 2713.05,2317.9 2711.39,2319.41 2709.59,2320.75 2707.67,2321.92 2705.63,2322.9 2703.49,2323.69 2701.25,2324.26 2698.93,2324.62 2696.55,2324.74 1560.67,1188.85 1563.05,1188.73 1565.37,1188.38 1567.61,1187.8 1569.75,1187.02 1571.79,1186.04 1573.71,1184.87 1575.51,1183.53 1577.17,1182.02 1578.67,1180.36 1580.01,1178.57 1581.18,1176.64 1582.17,1174.6 1582.95,1172.46 1583.53,1170.22 1583.88,1167.91 "/>
     <polygon id="_330500464" class="fil1" points="1560.67,1188.85 2696.55,2324.74 2649.88,2324.74 1514,1188.85 "/>
     <polygon id="_330500752" class="fil1" points="1514,1188.85 2649.88,2324.74 2649.88,2470.33 1514,1334.45 "/>
     <polygon id="_330500800" class="fil1" points="1514,1334.45 2649.88,2470.33 2649.88,2470.36 2649.88,2470.39 2649.88,2470.42 2649.88,2470.45 2649.88,2470.48 2649.88,2470.51 2649.88,2470.54 2649.88,2470.57 1514,1334.68 1514,1334.65 1514,1334.63 1514,1334.6 1514,1334.57 1514,1334.54 1514,1334.51 1514,1334.48 "/>
     <polygon id="_330500848" class="fil1" points="1514,1334.68 2649.88,2470.57 2649.88,2470.6 2649.88,2470.63 2649.88,2470.66 2649.88,2470.69 2649.88,2470.72 2649.88,2470.75 2649.88,2470.77 2649.88,2470.8 1514,1334.92 1514,1334.89 1514,1334.86 1514,1334.83 1514,1334.8 1514,1334.77 1514,1334.74 1514,1334.71 "/>
     <polygon id="_330500872" class="fil1" points="1514,1334.92 2649.88,2470.8 2649.88,2639.73 1514,1503.85 "/>
     <polygon id="_330500536" class="fil1" points="1514,1503.85 2649.88,2639.73 2649.76,2642.12 2649.41,2644.44 2648.83,2646.67 2648.05,2648.82 2647.07,2650.86 2645.9,2652.78 2644.55,2654.58 2643.05,2656.23 2641.39,2657.74 2639.59,2659.08 2637.67,2660.25 2635.63,2661.23 2633.49,2662.02 2631.25,2662.59 2628.93,2662.95 2626.55,2663.07 1490.67,1527.19 1493.05,1527.06 1495.37,1526.71 1497.6,1526.14 1499.75,1525.35 1501.79,1524.37 1503.71,1523.2 1505.51,1521.86 1507.17,1520.35 1508.67,1518.69 1510.01,1516.9 1511.18,1514.97 1512.17,1512.93 1512.95,1510.79 1513.53,1508.55 1513.88,1506.24 "/>
     <polygon id="_330500920" class="fil1" points="1490.67,1527.19 2626.55,2663.07 2597.3,2663.07 1461.42,1527.19 "/>
     <polygon id="_330500968" class="fil1" points="1461.42,1527.19 2597.3,2663.07 2597.3,2695.77 1461.42,1559.89 "/>
     <polygon id="_330500416" class="fil1" points="1461.42,1559.89 2597.3,2695.77 2597.29,2696.12 1461.41,1560.24 "/>
     <polygon id="_330500680" class="fil1" points="534,1188.85 1669.88,2324.74 1623.22,2324.74 487.334,1188.85 "/>
     <polygon id="_330501160" class="fil1" points="487.334,1188.85 1623.22,2324.74 1620.83,2324.62 1618.51,2324.26 1616.28,2323.69 1614.13,2322.9 1612.09,2321.92 1610.17,2320.75 1608.37,2319.41 472.491,1183.53 474.287,1184.87 476.211,1186.04 478.251,1187.02 480.395,1187.8 482.631,1188.38 484.948,1188.73 "/>
     <polygon id="_330501112" class="fil1" points="633.249,1527.19 1769.13,2663.07 1769.13,2695.77 633.249,1559.89 "/>
     <polygon id="_330501664" class="fil1" points="633.249,1559.89 1769.13,2695.77 1769.13,2696.12 633.245,1560.24 "/>
     <polygon id="_330501184" class="fil1" points="586.581,1527.19 1722.46,2663.07 1693.22,2663.07 557.334,1527.19 "/>
     <polygon id="_330501352" class="fil1" points="557.334,1527.19 1693.22,2663.07 1690.83,2662.95 1688.51,2662.59 1686.28,2662.02 1684.13,2661.23 1682.09,2660.25 1680.17,2659.08 1678.37,2657.74 542.491,1521.86 544.288,1523.2 546.212,1524.37 548.252,1525.35 550.395,1526.14 552.631,1526.71 554.948,1527.06 "/>
     <polygon id="_330501568" class="fil1" points="633.245,1560.24 1769.13,2696.12 1722.47,2696.12 586.585,1560.24 "/>
     <polygon id="_330501448" class="fil1" points="1414.75,1527.19 2550.63,2663.07 1769.13,2663.07 633.249,1527.19 "/>
     <polygon id="_330501736" class="fil1" points="1461.41,1560.24 2597.29,2696.12 2550.64,2696.12 1414.76,1560.24 "/>
    </g>
    <path id="_451244696" class="fil1" d="M1220.39 521.676c52.7091,20.3658 94.1505,49.0205 118.21,82.7481l58.7327 0c12.887,0 23.3339,10.448 23.3339,23.3339l0 46.6666 69.9993 0c12.8858,0 23.3339,10.4469 23.3339,23.3339l0 396.666c0,12.887 -10.448,23.3339 -23.3339,23.3339l-933.334 0c-12.8858,0 -23.3339,-10.4469 -23.3339,-23.3339l0 -396.666c0,-12.887 10.448,-23.3339 23.3339,-23.3339l70.0004 0 0 -46.6666c0,-12.8858 10.4469,-23.3339 23.3339,-23.3339l58.7315 0c24.0579,-33.7276 65.5004,-62.3823 118.21,-82.7481 55.1398,-21.3059 123.129,-33.9177 196.391,-33.9177 73.2627,0 141.252,12.6118 196.391,33.9177zm-663.057 620.509l933.331 0c0.0791339,0 0.158268,0 0.237402,0.0011811l69.763 0c12.887,0 23.3339,10.448 23.3339,23.3339 0,12.887 -10.4469,23.3339 -23.3339,23.3339l-46.6666 0 0 145.593c0.0011811,0.0791339 0.0011811,0.158268 0.0011811,0.237402 0,0.0791339 0,0.158268 -0.0011811,0.237402l0 168.93c0,12.8858 -10.4469,23.3339 -23.3339,23.3339l-29.2477 0 0 32.7036 -0.00472441 0.351969 -46.6583 0 -0.00472441 -0.351969 0 -32.7036 -781.502 0 0 32.7036 -0.00354331 0.351969 -46.6595 0 -0.00472441 -0.351969 0 -32.7036 -29.2465 0c-12.887,0 -23.3339,-10.448 -23.3339,-23.3339l0.0011811 -169.167 -0.0011811 -145.831 -46.6666 0c-12.887,0 -23.3339,-10.4469 -23.3339,-23.3339 0,-12.8858 10.4469,-23.3339 23.3339,-23.3339l69.763 0c0.0791339,-0.0011811 0.158268,-0.0011811 0.237402,-0.0011811z"/>
   </g>
  </g>
  <path class="fil2" d="M1024 -0.0011811c565.539,0 1024,458.462 1024,1024 0,565.539 -458.462,1024 -1024,1024 -565.539,0 -1024,-458.462 -1024,-1024 0,-565.539 458.462,-1024 1024,-1024z"/>
  <path class="fil3" d="M1490.67 1117.76l-933.334 0c-12.8858,0 -23.3339,-10.4469 -23.3339,-23.3339l0 -396.666c0,-12.887 10.448,-23.3339 23.3339,-23.3339l70.0004 0 0 -46.6666c0,-12.8858 10.4469,-23.3339 23.3339,-23.3339l58.7315 0c24.0579,-33.7276 65.5004,-62.3823 118.21,-82.7481 55.1398,-21.3059 123.129,-33.9177 196.391,-33.9177 73.2627,0 141.252,12.6118 196.391,33.9177 52.7091,20.3658 94.1505,49.0205 118.21,82.7481l58.7327 0c12.887,0 23.3339,10.448 23.3339,23.3339l0 46.6666 69.9993 0c12.8858,0 23.3339,10.4469 23.3339,23.3339l0 396.666c0,12.887 -10.448,23.3339 -23.3339,23.3339z"/>
  <path class="fil4" d="M580.667 1071.09l886.666 0 0 -349.999 -69.9993 0c-12.887,0 -23.3339,-10.448 -23.3339,-23.3339l0 -46.6666 -48.0697 0c-8.98229,0 -16.7764,-5.0752 -20.6776,-12.5138 -17.0953,-29.1461 -53.2382,-54.8185 -101.633,-73.5178 -49.8024,-19.2425 -111.939,-30.6343 -179.62,-30.6343 -67.6808,0 -129.817,11.3917 -179.62,30.6343 -48.8126,18.861 -85.1646,44.8146 -102.076,74.2737l-20.2347 -11.576 20.2358 11.6173c-4.35945,7.59568 -12.3461,11.8099 -20.5229,11.7165l-47.7815 0 0 46.6666c0,12.8858 -10.448,23.3339 -23.3339,23.3339l-70.0004 0 0 349.999z"/>
  <path class="fil5" d="M586.581 1559.89l0.00472441 0.351969 46.6595 0 0.00354331 -0.351969 0 -46.8591c0,-12.887 -10.4469,-23.3339 -23.3339,-23.3339 -12.8858,0 -23.3339,10.4469 -23.3339,23.3339l0 46.8591z"/>
  <path class="fil5" d="M1414.75 1559.89l0.00472441 0.351969 46.6583 0 0.00472441 -0.351969 0 -46.8591c0,-12.887 -10.448,-23.3339 -23.3339,-23.3339 -12.887,0 -23.3339,10.4469 -23.3339,23.3339l0 46.8591z"/>
  <rect class="fil6" x="560.921" y="1169.22" width="933.334" height="326.302"/>
  <polygon class="fil7" points="1191.07,687.746 1215.93,711.931 922.445,988.813 "/>
  <polygon class="fil7" points="843.829,1007.01 832.066,995.573 970.896,864.598 "/>
  <path class="fil3" d="M557.334 1142.18l933.331 0c12.887,0 23.3339,10.4469 23.3339,23.3339l0 338.333c0,12.8858 -10.4469,23.3339 -23.3339,23.3339l-933.331 0c-12.887,0 -23.3339,-10.448 -23.3339,-23.3339l0 -338.333c0,-12.887 10.4469,-23.3339 23.3339,-23.3339zm909.998 46.6678l-886.664 0 0 291.665 886.664 0 0 -291.665z"/>
  <path class="fil3" d="M487.334 1142.19c-12.887,0 -23.3339,10.448 -23.3339,23.3339 0,12.887 10.4469,23.3339 23.3339,23.3339l1073.33 0c12.887,0 23.3339,-10.4469 23.3339,-23.3339 0,-12.8858 -10.4469,-23.3339 -23.3339,-23.3339l-1073.33 0z"/>
  <path class="fil3" d="M1490.67 1358.02c12.8858,0 23.3339,-10.448 23.3339,-23.3339 0,-12.887 -10.448,-23.3339 -23.3339,-23.3339l-933.331 0c-12.8858,0 -23.3339,10.4469 -23.3339,23.3339 0,12.8858 10.448,23.3339 23.3339,23.3339l933.331 0z"/>
  <path class="fil3" d="M1000.66 1317.19c0,12.8858 10.448,23.3339 23.3339,23.3339 12.887,0 23.3339,-10.448 23.3339,-23.3339l0 -140c0,-12.887 -10.4469,-23.3339 -23.3339,-23.3339 -12.8858,0 -23.3339,10.4469 -23.3339,23.3339l0 140z"/>
  <polygon class="fil8" points="1064.83,1206.35 1064.83,1293.85 1449.83,1293.85 1449.83,1206.35 "/>
  <polygon class="fil8" points="598.167,1206.35 598.167,1293.85 983.168,1293.85 983.168,1206.35 "/>
  <polygon class="fil8" points="1449.83,1375.52 598.167,1375.52 598.167,1463.02 1449.83,1463.02 "/>
  <path class="fil9" d="M1257.33 1237.99c6.68859,0 12.1099,5.42245 12.1099,12.1099 0,6.68859 -5.42126,12.1099 -12.1099,12.1099 -6.68741,0 -12.1087,-5.42126 -12.1087,-12.1099 0,-6.68741 5.42126,-12.1099 12.1087,-12.1099z"/>
  <path class="fil9" d="M790.667 1237.99c6.68859,0 12.1099,5.42245 12.1099,12.1099 0,6.68859 -5.42126,12.1099 -12.1099,12.1099 -6.68859,0 -12.1099,-5.42126 -12.1099,-12.1099 0,-6.68741 5.42126,-12.1099 12.1099,-12.1099z"/>
  <path class="fil9" d="M1094 1428.02c4.83189,0 8.74961,-3.91772 8.74961,-8.75079 0,-4.83189 -3.91772,-8.74961 -8.74961,-8.74961l-140.001 0c-4.83189,0 -8.74961,3.91772 -8.74961,8.74961 0,4.83307 3.91772,8.75079 8.74961,8.75079l140.001 0z"/>
 </g>
</svg>
