<?xml version="1.0" encoding="UTF-8"?>
<!DOCTYPE svg PUBLIC "-//W3C//DTD SVG 1.1//EN" "http://www.w3.org/Graphics/SVG/1.1/DTD/svg11.dtd">
<!-- Creator: CorelDRAW -->
<svg xmlns="http://www.w3.org/2000/svg" xml:space="preserve" width="2048px" height="2048px" style="shape-rendering:geometricPrecision; text-rendering:geometricPrecision; image-rendering:optimizeQuality; fill-rule:evenodd; clip-rule:evenodd"
viewBox="0 0 2048 2048"
 xmlns:xlink="http://www.w3.org/1999/xlink">
 <defs>
  <style type="text/css">
   <![CDATA[
    .fil2 {fill:none}
    .fil15 {fill:#00BCD4}
    .fil13 {fill:#37474F}
    .fil10 {fill:#455A64}
    .fil1 {fill:#512DA8}
    .fil12 {fill:#78909C}
    .fil0 {fill:#7E57C2}
    .fil18 {fill:#898E8F}
    .fil4 {fill:#9E9E9E}
    .fil3 {fill:#BDBDBD}
    .fil17 {fill:#D50000}
    .fil11 {fill:#ECEFF1}
    .fil16 {fill:#FF6F00}
    .fil14 {fill:#FFD740}
    .fil6 {fill:#263238;fill-rule:nonzero}
    .fil5 {fill:#4B4B4D;fill-rule:nonzero}
    .fil7 {fill:#CFD8DC;fill-rule:nonzero}
    .fil9 {fill:#FF6F00;fill-rule:nonzero}
    .fil8 {fill:#FFB300;fill-rule:nonzero}
   ]]>
  </style>
   <clipPath id="id0">
    <path d="M1024 -0.0011811c565.539,0 1024,458.462 1024,1024 0,565.539 -458.462,1024 -1024,1024 -565.539,0 -1024,-458.462 -1024,-1024 0,-565.539 458.462,-1024 1024,-1024z"/>
   </clipPath>
 </defs>
 <g id="Layer_x0020_1">
  <metadata id="CorelCorpID_0Corel-Layer"/>
  <path class="fil0" d="M1024 -0.0011811c565.539,0 1024,458.462 1024,1024 0,565.539 -458.462,1024 -1024,1024 -565.539,0 -1024,-458.462 -1024,-1024 0,-565.539 458.462,-1024 1024,-1024z"/>
  <g style="clip-path:url(#id0)">
   <g id="_451247936">
    <g>
     <polygon id="_3342780641" class="fil1" points="1349.03,659.135 2484.91,1795.02 2484.91,1800.11 2484.92,1800.31 2484.96,1800.49 2485.02,1800.67 2485.1,1800.84 2485.21,1800.99 2485.33,1801.13 1349.45,665.251 1349.33,665.11 1349.22,664.956 1349.14,664.789 1349.08,664.612 1349.04,664.424 1349.03,664.228 "/>
     <polygon id="_334277944" class="fil1" points="1363.41,664.83 2499.29,1800.71 2499.29,1801.36 1363.41,665.478 "/>
     <polygon id="_334279432" class="fil1" points="1578.67,667.626 2714.55,1803.51 2715.9,1805.3 2717.07,1807.23 2718.05,1809.27 2718.83,1811.41 2719.41,1813.65 2719.76,1815.97 2719.88,1818.35 1584,682.469 1583.88,680.083 1583.53,677.765 1582.95,675.53 1582.17,673.386 1581.18,671.346 1580.01,669.422 "/>
     <polygon id="_334279864" class="fil1" points="1584,682.469 2719.88,1818.35 2719.88,2501.41 1584,1365.53 "/>
     <polygon id="_334279384" class="fil1" points="1584,1365.53 2719.88,2501.41 2719.76,2503.8 2719.41,2506.12 2718.83,2508.35 2718.05,2510.5 2717.07,2512.54 2715.9,2514.46 2714.55,2516.26 2713.05,2517.91 2711.39,2519.42 2709.59,2520.76 2707.67,2521.93 2705.63,2522.91 2703.49,2523.7 2701.25,2524.27 2698.93,2524.63 2696.55,2524.75 1560.67,1388.87 1563.05,1388.74 1565.37,1388.39 1567.61,1387.82 1569.75,1387.03 1571.79,1386.05 1573.71,1384.88 1575.51,1383.54 1577.17,1382.03 1578.67,1380.37 1580.01,1378.58 1581.18,1376.65 1582.17,1374.61 1582.95,1372.47 1583.53,1370.23 1583.88,1367.92 "/>
     <polygon id="_334279768" class="fil1" points="1363.69,1383.5 2499.58,2519.38 2499.36,2519.2 2499.11,2519.07 2498.84,2518.99 2498.55,2518.96 1362.66,1383.07 1362.96,1383.1 1363.23,1383.19 1363.48,1383.32 "/>
     <polygon id="_334279600" class="fil1" points="1362.66,1383.07 2498.55,2518.96 2486.37,2518.96 2486.07,2518.99 2485.8,2519.07 2485.55,2519.2 2485.34,2519.38 2485.16,2519.6 2485.02,2519.85 2484.94,2520.12 2484.91,2520.41 2484.91,2524.75 1349.03,1388.87 1349.03,1384.53 1349.06,1384.24 1349.14,1383.96 1349.28,1383.72 1349.45,1383.5 1349.67,1383.32 1349.92,1383.19 1350.19,1383.1 1350.48,1383.07 "/>
     <polygon id="_334279576" class="fil1" points="1560.67,1388.87 2696.55,2524.75 2500,2524.75 1364.12,1388.87 "/>
     <polygon id="_334280104" class="fil1" points="1349.03,1388.87 2484.91,2524.75 1623.21,2524.75 487.333,1388.87 "/>
     <polygon id="_334279912" class="fil1" points="487.333,1388.87 1623.21,2524.75 1620.83,2524.63 1618.51,2524.27 1616.28,2523.7 1614.13,2522.91 1612.09,2521.93 1610.17,2520.76 1608.37,2519.42 472.491,1383.54 474.287,1384.88 476.211,1386.05 478.25,1387.03 480.395,1387.82 482.631,1388.39 484.947,1388.74 "/>
    </g>
    <path id="_451248872" class="fil1" d="M487.333 659.135l861.694 0 0 5.09292c0,0.530315 0.285827,0.99567 0.709843,1.25079l0 -0.648426 13.676 0 0 0.648426c0.425197,-0.255118 0.709843,-0.720473 0.709843,-1.25079l0 -5.09292 196.544 0c12.887,0 23.3339,10.4469 23.3339,23.3339l0 683.063c0,12.887 -10.4469,23.3339 -23.3339,23.3339l-196.544 0 0 -4.33465c0,-0.801969 -0.654331,-1.45748 -1.45748,-1.45748l-12.1807 0c-0.801969,0 -1.45748,0.655512 -1.45748,1.45748l0 4.33465 -861.694 0c-12.8858,0 -23.3339,-10.4469 -23.3339,-23.3339l0 -683.063c0,-12.887 10.448,-23.3339 23.3339,-23.3339z"/>
   </g>
  </g>
  <path class="fil2" d="M1024 -0.0011811c565.539,0 1024,458.462 1024,1024 0,565.539 -458.462,1024 -1024,1024 -565.539,0 -1024,-458.462 -1024,-1024 0,-565.539 458.462,-1024 1024,-1024z"/>
  <path class="fil3" d="M487.333 659.135l861.694 0 0 5.09292c0,0.80315 0.655512,1.45866 1.45748,1.45866l12.1807 0c0.80315,0 1.45748,-0.655512 1.45748,-1.45866l0 -5.09292 196.544 0c12.887,0 23.3339,10.4469 23.3339,23.3339l0 683.063c0,12.887 -10.4469,23.3339 -23.3339,23.3339l-196.544 0 0 -4.33465c0,-0.801969 -0.654331,-1.45748 -1.45748,-1.45748l-12.1807 0c-0.801969,0 -1.45748,0.655512 -1.45748,1.45748l0 4.33465 -861.694 0c-12.8858,0 -23.3339,-10.4469 -23.3339,-23.3339l0 -683.063c0,-12.887 10.448,-23.3339 23.3339,-23.3339z"/>
  <path class="fil4" d="M585.564 1255.03l673.436 0c8.7815,0 17.0717,-3.49488 23.2736,-9.69686 6.20315,-6.20315 9.69686,-14.4921 9.69686,-23.2736l0 -396.11c0,-8.78268 -3.4937,-17.0717 -9.69686,-23.2736 -6.20197,-6.20315 -14.4921,-9.69686 -23.2736,-9.69686l-673.436 0c-8.7815,0 -17.0717,3.4937 -23.2736,9.69686 -6.20315,6.20197 -9.69686,14.491 -9.69686,23.2736l0 396.11c0,8.7815 3.4937,17.0705 9.69686,23.2736 6.20197,6.20197 14.4921,9.69686 23.2736,9.69686z"/>
  <path class="fil5" d="M1083.07 1204.2c-3.50906,-3.8563 -10.7362,-4.95237 -16.1398,-2.44843 -5.40355,2.50512 -6.93898,7.663 -3.42992,11.5205l40.5402 44.5595c3.50906,3.8563 10.735,4.95237 16.1386,2.44843 5.40355,-2.50512 6.94016,-7.663 3.43111,-11.5205l-40.5402 -44.5595z"/>
  <path class="fil5" d="M761.488 1204.2c3.50906,-3.8563 10.735,-4.95237 16.1386,-2.44843 5.40355,2.50512 6.94016,7.663 3.43111,11.5205l-40.5402 44.5595c-3.50906,3.8563 -10.7362,4.95237 -16.1398,2.44843 -5.40355,-2.50512 -6.93898,-7.663 -3.42992,-11.5205l40.5402 -44.5595z"/>
  <path class="fil6" d="M585.564 1244.09l673.436 0c2.9504,0 5.78977,-0.572835 8.38465,-1.65473 2.61024,-1.08662 5.04213,-2.72244 7.1563,-4.83662 2.11417,-2.11417 3.75,-4.54607 4.8378,-7.15749 1.08071,-2.59488 1.65354,-5.43426 1.65354,-8.38347l0 -396.11c0,-2.9504 -0.572835,-5.78977 -1.65354,-8.38465 -1.0878,-2.61024 -2.72362,-5.04213 -4.8378,-7.1563 -2.11417,-2.11417 -4.54607,-3.75 -7.1563,-4.8378 -2.59488,-1.08071 -5.43426,-1.65354 -8.38465,-1.65354l-673.436 0c-2.9504,0 -5.78977,0.572835 -8.38465,1.65354 -2.61024,1.0878 -5.04213,2.72362 -7.1563,4.8378 -2.11417,2.11417 -3.75,4.54607 -4.8378,7.1563 -1.08071,2.59488 -1.65354,5.43426 -1.65354,8.38465l0 396.11c0,2.94921 0.572835,5.78859 1.65354,8.38347 1.0878,2.61142 2.72362,5.04331 4.8378,7.15749 2.11417,2.11417 4.54607,3.75 7.1563,4.83662 2.59488,1.08189 5.43426,1.65473 8.38465,1.65473zm673.436 21.8752l-673.436 0c-5.80748,0 -11.4827,-1.16575 -16.7587,-3.3626 -5.30315,-2.20984 -10.1445,-5.43426 -14.2476,-9.53859 -4.10433,-4.10315 -7.32875,-8.9445 -9.53859,-14.2476 -2.19803,-5.27599 -3.3626,-10.9512 -3.3626,-16.7587l0 -396.11c0,-5.80748 1.16457,-11.4827 3.3626,-16.7587 2.20984,-5.30315 5.43426,-10.1445 9.53859,-14.2476 4.10315,-4.10433 8.9445,-7.32875 14.2476,-9.53859 5.27599,-2.19803 10.9512,-3.3626 16.7587,-3.3626l673.436 0c5.80748,0 11.4827,1.16457 16.7587,3.3626 5.30315,2.20984 10.1445,5.43426 14.2476,9.53859 4.10433,4.10315 7.32875,8.9445 9.53859,14.2476 2.19803,5.27599 3.3626,10.9512 3.3626,16.7587l0 396.11c0,5.80748 -1.16457,11.4827 -3.3626,16.7587 -2.20984,5.30315 -5.43426,10.1445 -9.53859,14.2476 -4.10315,4.10433 -8.9445,7.32875 -14.2476,9.53859 -5.27599,2.19685 -10.9512,3.3626 -16.7587,3.3626z"/>
  <path class="fil7" d="M865.195 1016.99c-4.08307,4.29095 -3.91418,11.0811 0.376772,15.1642 4.29213,4.08189 11.0823,3.913 15.1654,-0.377953l2.76969 -2.91969c11.9114,-12.5457 5.0693,-19.6417 -2.85827,-27.8658 -2.15551,-2.23583 -4.67008,-4.84489 -2.41654,-8.07875 13.0689,-18.7547 7.08544,-21.587 -3.50788,-26.6044 -0.98504,-0.466536 -2.48032,-1.17638 -1.12087,-10.5201 0.542126,-3.71575 0.537402,-5.84174 0.531496,-9.17127l-0.0011811 -0.98504c0,-5.91615 -4.79646,-10.7126 -10.7126,-10.7126 -5.91615,0 -10.7126,4.79646 -10.7126,10.7126l0.00236221 0.98504c0.00236221,2.20276 0.00590552,3.60945 -0.36378,6.14646 -2.61732,17.9847 1.91575,25.5106 7.15985,29.4992 -10.6677,16.6382 -1.88268,25.7528 5.68229,33.5988 0.290551,0.302362 5.01024,-4.14331 2.77559,-1.79055l-2.76969 2.91969z"/>
  <path class="fil7" d="M893.352 874.184c-4.92756,-3.28701 -6.2563,-9.94725 -2.96929,-14.8748 3.28701,-4.92756 9.94843,-6.25749 14.876,-2.96929l3.34488 2.23701c14.3799,9.61654 9.26812,18.0449 3.34488,27.8114 -1.60984,2.65512 -3.4878,5.75434 -0.578741,8.413 16.8768,15.4181 11.6646,19.4977 2.43543,26.7248 -0.858662,0.670867 -2.16024,1.69252 1.22244,10.5071 1.34646,3.50551 1.80945,5.58071 2.53701,8.82993l0.214961 0.961418c1.30276,5.77087 -2.31969,11.5051 -8.09056,12.8079 -5.77087,1.30158 -11.5063,-2.32087 -12.8079,-8.09174l-0.214961 -0.961418c-0.48189,-2.14961 -0.788977,-3.52205 -1.70788,-5.91615 -6.51142,-16.9665 -3.74646,-25.3063 0.491339,-30.352 -14.0705,-13.8803 -7.50591,-24.7063 -1.85433,-34.0252 0.217323,-0.357874 5.79922,2.93977 3.10158,1.13622l-3.34488 -2.23819z"/>
  <path class="fil7" d="M915.235 1028.67c2.36575,5.42835 8.68465,7.90985 14.1142,5.5441 5.42835,-2.36575 7.90985,-8.68465 5.5441,-14.113 -5.37166,-12.3024 -8.78977,-22.1977 -7.57678,-29.0067 0.928347,-5.20867 5.94331,-9.46418 17.3847,-12.9992l3.45 -1.06654c26.5595,-8.20631 27.1725,-15.0874 28.7717,-33.0721 0.209055,-2.35512 0.446457,-5.00906 0.917717,-8.42835 0.787796,-5.8689 -3.33071,-11.2677 -9.19961,-12.0555 -5.8689,-0.788977 -11.2689,3.33071 -12.0567,9.19961 -0.454725,3.30236 -0.745276,6.55394 -1.00158,9.43583 -0.672048,7.56851 -0.93189,10.4646 -13.7327,14.4201l-3.45 1.06654c-20.4603,6.32245 -29.8406,16.2532 -32.2559,29.804 -2.12835,11.9516 2.16024,25.3996 9.09095,41.2713z"/>
  <path class="fil8" d="M761.13 1013.63l161.152 0 161.152 0c5.93859,0 10.7539,4.81654 10.7539,10.7551 0,47.4685 -19.2414,90.4465 -50.3504,121.554 -31.1079,31.1091 -74.0859,50.3516 -121.556,50.3516 -47.4697,0 -90.4477,-19.2425 -121.556,-50.3516 -31.1091,-31.1079 -50.3516,-74.0859 -50.3516,-121.554 0,-5.93859 4.81654,-10.7551 10.7551,-10.7551z"/>
  <path class="fil9" d="M761.13 1013.63l161.152 0 161.152 0c5.93859,0 10.7539,4.81654 10.7539,10.7539 0,3.06851 -0.0814961,6.11575 -0.240945,9.1441l-343.33 0c-0.159449,-3.02835 -0.242126,-6.0756 -0.242126,-9.1441 0,-5.93741 4.81654,-10.7539 10.7551,-10.7539z"/>
  <path class="fil10" d="M1475.58 892.561c-14.4201,4.80709 -29.9882,3.70512 -43.5863,-3.09213 -13.5969,-6.79843 -23.8217,-18.5882 -28.6299,-33.0107 -4.80827,-14.4201 -3.70394,-29.9894 3.09331,-43.5851 6.79725,-13.598 18.5882,-23.8229 33.0095,-28.6311 14.4201,-4.80827 29.9894,-3.70394 43.5851,3.09331 13.5969,6.79607 23.824,18.5882 28.6311,33.0083 4.80827,14.4213 3.70512,29.9894 -3.09213,43.5863 -6.79725,13.598 -18.5894,23.824 -33.0107,28.6311z"/>
  <path class="fil10" d="M1451.44 937.849c11.2772,-1.62284 22.6063,1.26732 31.728,8.09646 9.12166,6.82796 15.0851,16.8839 16.7055,28.161 1.62284,11.2772 -1.26732,22.6063 -8.09528,31.728 -6.82796,9.12166 -16.8851,15.0862 -28.1622,16.7067 -11.2772,1.62165 -22.6063,-1.2685 -31.728,-8.09646 -9.12048,-6.82796 -15.0851,-16.8839 -16.7067,-28.1622 -1.62165,-11.2772 1.2685,-22.6063 8.09764,-31.728 6.82796,-9.12048 16.8839,-15.0851 28.161,-16.7055z"/>
  <polygon class="fil10" points="1514.62,1068.65 1514.62,1266.69 1400.43,1266.69 1400.43,1068.65 "/>
  <path class="fil11" d="M1471.89 881.494c11.485,-3.82914 20.85,-11.9492 26.2642,-22.7799 5.41536,-10.8331 6.29056,-23.1945 2.46024,-34.6807 -3.82914,-11.485 -11.9492,-20.8488 -22.7799,-26.2642 -10.8307,-5.41418 -23.1945,-6.29056 -34.6796,-2.46024 -11.4862,3.82914 -20.85,11.948 -26.2642,22.7799 -5.41536,10.8307 -6.29174,23.1945 -2.46142,34.6796 3.82914,11.4874 11.948,20.85 22.7799,26.2654 10.8319,5.41418 23.1945,6.28937 34.6807,2.46024z"/>
  <path class="fil12" d="M1479.65 798.727c-0.595276,-0.330709 -1.2,-0.650788 -1.81299,-0.957875 -0.612993,-0.305906 -1.23189,-0.597638 -1.85433,-0.875198l-16.1469 32.2973 3.66851 1.83425 16.1457 -32.2985z"/>
  <path class="fil11" d="M1453.1 949.396c-8.21575,1.17992 -15.5079,5.50512 -20.4827,12.1512 -4.97481,6.64489 -7.07127,14.8606 -5.88898,23.0764 1.17992,8.21575 5.50512,15.5079 12.1512,20.4827 6.64489,4.97481 14.8606,7.07008 23.0764,5.88898 8.21457,-1.1811 15.5079,-5.5063 20.4827,-12.1512 4.97481,-6.64607 7.07008,-14.8618 5.8878,-23.0776 -1.17992,-8.21457 -5.50512,-15.5067 -12.15,-20.4815 -6.64607,-4.97481 -14.8618,-7.07127 -23.0764,-5.88898z"/>
  <polygon class="fil13" points="1502.95,1080.32 1412.1,1080.32 1412.1,1255.03 1502.95,1255.03 "/>
  <rect class="fil14" x="1424.6" y="1098.93" width="65.8532" height="15.0623"/>
  <rect class="fil15" x="1424.6" y="1129.21" width="65.8532" height="15.0623"/>
  <rect class="fil16" x="1424.6" y="1161.56" width="23.0075" height="15.0623"/>
  <rect class="fil16" x="1467.44" y="1161.56" width="23.0075" height="15.0623"/>
  <rect class="fil17" x="1424.6" y="1190.28" width="23.0075" height="15.0623"/>
  <rect class="fil17" x="1467.44" y="1190.28" width="23.0075" height="15.0623"/>
  <path class="fil12" d="M1433.86 959.919c-0.420473,0.536221 -0.837402,1.07835 -1.24725,1.62756 -0.411024,0.548032 -0.814961,1.10079 -1.21063,1.65473l14.6858 10.9949 2.45788 -3.28347 -14.6858 -10.9937z"/>
  <path class="fil5" d="M591.146 1189.4c-6.44292,0 -11.6669,5.22402 -11.6669,11.6669 0,6.44292 5.22402,11.6669 11.6669,11.6669 32.5429,0 65.0859,0 97.6276,0 13.1658,-0.3 27.7642,4.78819 40.93,4.5815 124.057,-1.95827 248.116,-0.0696851 372.174,0.582284 15.4441,0.0814961 29.4603,-5.19685 44.9055,-5.16378l106.634 0c6.44292,0 11.6669,-5.22402 11.6669,-11.6669 0,-6.44292 -5.22402,-11.6669 -11.6669,-11.6669 -35.7981,0 -71.5961,0 -107.393,0 -14.6858,-0.311811 -27.9425,4.77874 -42.6272,4.5815 -125.576,-1.69134 -251.156,0.448819 -376.733,0.759449 -12.6579,0.0307087 -26.7496,-5.34095 -39.4087,-5.34095l-96.1087 0z"/>
  <rect class="fil18" x="1349.74" y="664.83" width="13.6756" height="718.243"/>
 </g>
</svg>
