<?xml version="1.0" encoding="UTF-8"?>
<!DOCTYPE svg PUBLIC "-//W3C//DTD SVG 1.1//EN" "http://www.w3.org/Graphics/SVG/1.1/DTD/svg11.dtd">
<!-- Creator: CorelDRAW -->
<svg xmlns="http://www.w3.org/2000/svg" xml:space="preserve" width="2048px" height="2048px" style="shape-rendering:geometricPrecision; text-rendering:geometricPrecision; image-rendering:optimizeQuality; fill-rule:evenodd; clip-rule:evenodd"
viewBox="0 0 2048 2048"
 xmlns:xlink="http://www.w3.org/1999/xlink">
 <defs>
  <style type="text/css">
   <![CDATA[
    .fil2 {fill:none}
    .fil5 {fill:#49302A}
    .fil4 {fill:#4E342E}
    .fil1 {fill:#F06292}
    .fil0 {fill:#F48FB1}
    .fil3 {fill:#452A23;fill-rule:nonzero}
   ]]>
  </style>
   <clipPath id="id0">
    <path d="M1024 -0.0011811c565.539,0 1024,458.462 1024,1024 0,565.539 -458.462,1024 -1024,1024 -565.539,0 -1024,-458.462 -1024,-1024 0,-565.539 458.462,-1024 1024,-1024z"/>
   </clipPath>
 </defs>
 <g id="Layer_x0020_1">
  <metadata id="CorelCorpID_0Corel-Layer"/>
  <path class="fil0" d="M1024 -0.0011811c565.539,0 1024,458.462 1024,1024 0,565.539 -458.462,1024 -1024,1024 -565.539,0 -1024,-458.462 -1024,-1024 0,-565.539 458.462,-1024 1024,-1024z"/>
  <g style="clip-path:url(#id0)">
   <g id="_451241816">
    <g>
     <path id="_3337563841" class="fil1" d="M2135.78 1710.7l0 0zm-1135.88 -1135.88l0 0z"/>
     <path id="_333756936" class="fil1" d="M2135.99 1710.46l0 0zm-1135.88 -1135.88l0 0z"/>
     <path id="_333757104" class="fil1" d="M2136.2 1710.23l0 0zm-1135.88 -1135.88l0 0z"/>
     <path id="_333757176" class="fil1" d="M2136.41 1710l0 0zm-1135.88 -1135.88l0 0z"/>
     <path id="_333757272" class="fil1" d="M2136.62 1709.78l0 0zm-1135.88 -1135.88l0 0z"/>
     <path id="_333757584" class="fil1" d="M2136.84 1709.56l0 0zm-1135.88 -1135.88l0 0z"/>
     <polygon id="_333757656" class="fil1" points="1041.88,472.491 2177.76,1608.37 2179.1,1610.17 2180.27,1612.09 2181.26,1614.13 2182.04,1616.28 2182.62,1618.51 2182.97,1620.83 2183.09,1623.22 1047.21,487.334 1047.09,484.948 1046.74,482.631 1046.16,480.395 1045.37,478.251 1044.39,476.211 1043.22,474.287 "/>
     <polygon id="_333757560" class="fil1" points="1047.21,487.334 2183.09,1623.22 2181.31,1626.77 2179.76,1630.02 2178.41,1633 2177.24,1635.71 2176.26,1638.19 2175.43,1640.45 2174.75,1642.51 2174.2,1644.39 2173.76,1646.12 2173.43,1647.7 2173.19,1649.16 2173.02,1650.53 2172.9,1651.81 2172.83,1653.04 2172.79,1654.22 2172.77,1655.39 1036.89,519.506 1036.91,518.34 1036.95,517.156 1037.02,515.93 1037.14,514.646 1037.31,513.28 1037.55,511.817 1037.88,510.234 1038.32,508.511 1038.87,506.631 1039.55,504.57 1040.37,502.31 1041.36,499.832 1042.53,497.116 1043.88,494.141 1045.43,490.887 "/>
     <polygon id="_333757512" class="fil1" points="1036.89,519.506 2172.77,1655.39 2181.77,1686.68 1045.89,550.795 "/>
     <polygon id="_333758136" class="fil1" points="1161.2,576.145 2297.08,1712.03 2256.41,1742.02 1120.53,606.14 "/>
     <polygon id="_333758304" class="fil1" points="1002.78,569.108 2138.66,1704.99 2136.94,1704.7 2135.34,1704.11 2133.89,1703.24 2132.64,1702.12 996.758,566.242 998.012,567.356 999.457,568.226 1001.06,568.822 "/>
     <polygon id="_333758376" class="fil1" points="1003.4,608.122 2139.28,1744 2137.38,1742.4 2135.71,1740.66 999.825,604.773 1001.5,606.518 "/>
     <polygon id="_333758256" class="fil1" points="927.47,606.14 2063.35,1742.02 2022.69,1712.03 886.804,576.145 "/>
     <polygon id="_333758496" class="fil1" points="997.202,763.336 2133.08,1899.22 2134.1,1900.29 2135.11,1901.38 2136.11,1902.49 2137.11,1903.61 2138.1,1904.74 2139.09,1905.88 2140.08,1907.03 2141.07,1908.19 2142.05,1909.36 2143.04,1910.52 1007.16,774.638 1006.17,773.473 1005.19,772.31 1004.2,771.152 1003.21,770 1002.22,768.857 1001.23,767.723 1000.23,766.603 999.226,765.497 998.218,764.408 "/>
     <polygon id="_333758232" class="fil1" points="902.442,714.853 2038.32,1850.74 1987.12,1812.96 851.234,677.082 "/>
     <polygon id="_333757800" class="fil1" points="1039.86,887.59 2175.74,2023.47 2175.75,2024.47 2175.75,2025.48 2175.76,2026.51 2175.78,2027.6 2175.81,2028.74 2175.84,2029.95 2175.88,2031.26 2175.94,2032.66 2176,2034.19 2176.08,2035.84 2176.17,2037.65 2176.28,2039.62 2176.4,2041.76 2176.54,2044.1 2176.7,2046.64 2176.87,2049.41 2177.07,2052.41 2177.28,2055.66 2177.52,2059.18 2177.78,2062.98 2178.07,2067.08 2178.38,2071.48 2178.72,2076.21 2179.08,2081.28 2179.47,2086.71 2179.89,2092.51 2180.34,2098.68 2180.83,2105.26 2181.34,2112.25 2181.89,2119.68 2182.47,2127.54 2183.09,2135.86 2183.18,2137.28 2183.25,2138.7 2183.3,2140.13 2183.33,2141.55 2183.34,2142.97 2183.34,2144.4 2183.32,2145.82 2183.3,2147.25 2183.27,2148.67 2183.24,2150.1 2183.2,2151.52 2183.17,2152.95 2183.14,2154.38 2183.11,2155.8 2183.1,2157.23 2183.09,2158.65 1047.21,1022.77 1047.21,1021.34 1047.23,1019.92 1047.26,1018.49 1047.29,1017.07 1047.32,1015.64 1047.36,1014.22 1047.39,1012.79 1047.42,1011.37 1047.44,1009.94 1047.46,1008.52 1047.46,1007.09 1047.45,1005.67 1047.42,1004.24 1047.37,1002.82 1047.3,1001.4 1047.21,999.98 1046.59,991.658 1046.01,983.793 1045.46,976.372 1044.94,969.38 1044.46,962.801 1044.01,956.623 1043.59,950.827 1043.2,945.402 1042.84,940.332 1042.5,935.6 1042.19,931.195 1041.9,927.1 1041.64,923.3 1041.4,919.781 1041.19,916.528 1040.99,913.527 1040.82,910.761 1040.66,908.218 1040.52,905.88 1040.4,903.735 1040.29,901.768 1040.2,899.962 1040.12,898.305 1040.06,896.78 1040,895.373 1039.96,894.069 1039.92,892.855 1039.9,891.713 1039.88,890.631 1039.87,889.593 1039.86,888.584 "/>
     <polygon id="_333758280" class="fil1" points="1047.21,1022.77 2183.09,2158.65 2175.74,2201.37 1039.86,1065.49 "/>
     <polygon id="_333758040" class="fil1" points="1039.86,1065.49 2175.74,2201.37 2183.09,2229.29 1047.21,1093.41 "/>
     <polygon id="_333757920" class="fil1" points="1047.21,1093.41 2183.09,2229.29 2183.09,2457.44 1047.21,1321.56 "/>
     <polygon id="_333758088" class="fil1" points="1148.22,1365.08 2284.1,2500.97 2291.96,2508.87 2299.33,2517.16 2306.27,2525.8 2312.83,2534.71 2319.07,2543.84 2325.04,2553.14 2330.79,2562.53 2336.38,2571.97 2341.85,2581.4 2347.25,2590.75 2352.65,2599.97 2358.09,2608.99 2363.63,2617.77 2369.32,2626.23 2375.2,2634.33 2381.35,2642 2387.79,2649.18 2394.6,2655.82 1258.72,1519.94 1251.91,1513.3 1245.47,1506.12 1239.32,1498.45 1233.44,1490.35 1227.75,1481.89 1222.21,1473.11 1216.77,1464.08 1211.37,1454.87 1205.96,1445.52 1200.5,1436.09 1194.91,1426.65 1189.16,1417.25 1183.19,1407.96 1176.95,1398.83 1170.39,1389.91 1163.45,1381.28 1156.08,1372.98 "/>
     <polygon id="_333758760" class="fil1" points="1301.7,1544.52 2437.58,2680.41 2439.12,2682.17 2440.45,2684.05 2441.58,2686.03 2442.5,2688.09 2443.21,2690.22 2443.71,2692.4 2444,2694.62 2444.08,2696.85 2443.95,2699.08 2443.6,2701.3 2443.03,2703.49 2442.25,2705.63 2441.24,2707.7 2440.02,2709.69 2438.58,2711.59 1302.69,1575.71 1304.14,1573.81 1305.36,1571.82 1306.37,1569.75 1307.15,1567.61 1307.72,1565.42 1308.07,1563.2 1308.2,1560.97 1308.12,1558.73 1307.83,1556.52 1307.33,1554.34 1306.62,1552.21 1305.7,1550.14 1304.57,1548.16 1303.24,1546.29 "/>
     <polygon id="_333758592" class="fil1" points="1302.69,1575.71 2438.58,2711.59 2436.95,2713.33 2435.18,2714.87 2433.3,2716.2 2431.32,2717.33 2429.26,2718.25 2427.13,2718.96 2424.95,2719.46 2422.74,2719.75 2420.5,2719.83 2418.27,2719.7 2416.05,2719.35 2413.86,2718.78 2411.72,2718 2409.65,2716.99 2407.66,2715.77 2405.76,2714.32 1269.88,1578.44 1271.78,1579.89 1273.77,1581.11 1275.84,1582.11 1277.98,1582.9 1280.17,1583.46 1282.39,1583.81 1284.62,1583.95 1286.85,1583.87 1289.07,1583.58 1291.25,1583.08 1293.38,1582.36 1295.44,1581.44 1297.42,1580.31 1299.3,1578.98 1301.06,1577.45 "/>
     <polygon id="_333759120" class="fil1" points="1150.36,1466.8 2286.24,2602.69 2280,2596.97 2273.68,2591.43 2267.24,2586.09 2260.66,2580.97 2253.94,2576.08 2247.03,2571.44 2239.94,2567.08 2232.63,2563.02 2225.08,2559.26 2217.27,2555.84 2209.19,2552.76 2200.82,2550.05 2192.12,2547.73 2183.09,2545.82 1047.21,1409.94 1056.24,1411.85 1064.93,1414.17 1073.31,1416.88 1081.39,1419.95 1089.2,1423.38 1096.74,1427.13 1104.06,1431.2 1111.15,1435.56 1118.06,1440.2 1124.78,1445.08 1131.36,1450.21 1137.8,1455.55 1144.12,1461.09 "/>
     <polygon id="_333759048" class="fil1" points="1269.88,1578.44 2405.76,2714.32 2397.72,2708.66 2389.95,2702.83 2382.43,2696.85 2375.15,2690.75 2368.08,2684.54 2361.2,2678.24 1225.32,1542.36 1232.2,1548.66 1239.27,1554.87 1246.55,1560.97 1254.07,1566.95 1261.84,1572.78 "/>
     <polygon id="_333758568" class="fil1" points="1047.21,1409.94 2183.09,2545.82 2183.09,2549.82 1047.21,1413.94 "/>
     <polygon id="_333759264" class="fil1" points="1000.54,1409.99 2136.42,2545.87 2127.41,2547.79 2118.73,2550.12 2110.37,2552.83 2102.3,2555.91 2094.51,2559.34 2086.97,2563.1 2079.67,2567.17 2072.58,2571.53 2065.69,2576.17 2058.97,2581.06 2052.41,2586.18 2045.98,2591.52 2039.66,2597.06 2033.43,2602.77 2027.28,2608.64 2021.17,2614.66 2015.1,2620.79 2009.04,2627.02 2002.97,2633.34 1996.87,2639.72 1990.73,2646.15 1984.51,2652.6 1978.2,2659.05 1971.78,2665.5 1965.23,2671.91 1958.53,2678.27 1951.65,2684.57 1944.59,2690.77 1937.31,2696.87 1929.8,2702.84 1922.04,2708.66 1914,2714.32 778.119,1578.44 786.155,1572.78 793.919,1566.96 801.429,1560.99 808.707,1554.89 815.773,1548.69 822.646,1542.39 829.348,1536.03 835.899,1529.62 842.318,1523.17 848.626,1516.71 854.845,1510.26 860.992,1503.84 867.09,1497.46 873.16,1491.14 879.22,1484.91 885.291,1478.78 891.394,1472.76 897.549,1466.89 903.775,1461.18 910.094,1455.64 916.527,1450.3 923.092,1445.18 929.811,1440.29 936.703,1435.65 943.79,1431.29 951.092,1427.22 958.627,1423.46 966.419,1420.03 974.486,1416.95 982.848,1414.23 991.526,1411.91 "/>
     <polygon id="_333758688" class="fil1" points="1037.2,1461.29 2173.08,2597.17 2183.09,2696.55 1047.21,1560.67 "/>
     <polygon id="_333758712" class="fil1" points="1047.21,1560.67 2183.09,2696.55 2182.97,2698.93 2182.62,2701.25 2182.04,2703.49 2181.26,2705.63 2180.27,2707.67 2179.1,2709.59 2177.76,2711.39 2176.26,2713.05 2174.6,2714.55 2172.8,2715.9 2170.88,2717.07 2168.84,2718.05 2166.69,2718.83 2164.46,2719.41 2162.14,2719.76 2159.76,2719.88 1023.87,1584 1026.26,1583.88 1028.58,1583.53 1030.81,1582.95 1032.96,1582.17 1035,1581.18 1036.92,1580.01 1038.72,1578.67 1040.37,1577.17 1041.88,1575.51 1043.22,1573.71 1044.39,1571.79 1045.37,1569.75 1046.16,1567.61 1046.74,1565.37 1047.09,1563.05 "/>
     <polygon id="_333759024" class="fil1" points="1023.87,1584 2159.76,2719.88 2157.37,2719.76 2155.05,2719.41 2152.82,2718.83 2150.67,2718.05 2148.63,2717.07 2146.71,2715.9 2144.91,2714.55 1009.03,1578.67 1010.83,1580.01 1012.75,1581.18 1014.79,1582.17 1016.94,1582.95 1019.17,1583.53 1021.49,1583.88 "/>
     <polygon id="_333759000" class="fil1" points="1047.21,1413.94 2183.09,2549.82 2173.08,2597.17 1037.2,1461.29 "/>
     <polygon id="_333759432" class="fil1" points="778.119,1578.44 1914,2714.32 1912.11,2715.77 1910.11,2716.99 1908.04,2718 1905.9,2718.78 1903.71,2719.35 1901.49,2719.7 1899.26,2719.83 1897.03,2719.75 1894.81,2719.46 1892.63,2718.96 1890.5,2718.25 1888.44,2717.33 1886.46,2716.2 1884.58,2714.87 748.698,1578.98 750.577,1580.31 752.556,1581.44 754.62,1582.36 756.749,1583.08 758.931,1583.58 761.145,1583.87 763.379,1583.95 765.612,1583.81 767.832,1583.46 770.019,1582.9 772.158,1582.11 774.231,1581.11 776.225,1579.89 "/>
     <polygon id="_333759984" class="fil1" points="969.967,785.166 2105.85,1921.05 2103.67,1919.13 2101.58,1917.13 2099.56,1915.06 963.68,779.177 965.698,781.244 967.79,783.244 "/>
     <polygon id="_333759960" class="fil1" points="938.559,751.302 2074.44,1887.18 2038.32,1850.74 902.442,714.853 "/>
     <polygon id="_333759528" class="fil1" points="944.846,757.29 2080.73,1893.17 2078.71,1891.11 2076.62,1889.11 2074.44,1887.18 938.559,751.302 940.736,753.224 942.827,755.223 "/>
     <polygon id="_333759336" class="fil1" points="1006.27,810.114 2142.15,1946 2105.85,1921.05 969.967,785.166 "/>
     <polygon id="_333759576" class="fil1" points="851.234,677.082 1987.12,1812.96 1986.38,1813.15 1985.64,1813.32 1984.88,1813.46 1984.12,1813.57 1983.35,1813.66 1982.57,1813.73 1981.78,1813.77 1980.99,1813.78 845.109,677.9 845.901,677.887 846.687,677.847 847.466,677.781 848.236,677.69 848.999,677.574 849.754,677.434 850.499,677.269 "/>
     <polygon id="_333759600" class="fil1" points="845.109,677.9 1980.99,1813.78 1979.95,1813.76 1978.91,1813.69 1977.89,1813.58 1976.89,1813.42 1975.9,1813.22 1974.93,1812.98 1973.97,1812.7 1973.04,1812.38 1972.12,1812.03 1971.23,1811.63 1970.36,1811.2 1969.52,1810.74 1968.7,1810.24 1967.91,1809.71 1967.15,1809.15 1966.42,1808.56 830.539,672.682 831.27,673.271 832.031,673.831 832.821,674.36 833.638,674.856 834.481,675.321 835.349,675.749 836.242,676.143 837.155,676.499 838.091,676.818 839.045,677.098 840.018,677.339 841.008,677.538 842.013,677.695 843.033,677.808 844.065,677.877 "/>
     <polygon id="_333759480" class="fil1" points="830.539,672.682 1966.42,1808.56 1965.64,1807.88 1964.91,1807.15 829.027,671.271 829.763,671.993 "/>
     <polygon id="_333759696" class="fil1" points="861.192,645.416 1997.07,1781.3 1997.77,1782.05 1998.42,1782.84 1999.03,1783.65 1999.6,1784.5 2000.11,1785.37 2000.58,1786.27 2001,1787.19 2001.37,1788.13 2001.69,1789.1 2001.95,1790.09 2002.15,1791.1 2002.3,1792.12 2002.39,1793.17 2002.42,1794.23 866.542,658.345 866.512,657.284 866.422,656.24 866.272,655.213 866.066,654.205 865.804,653.216 865.489,652.249 865.12,651.304 864.701,650.383 864.232,649.485 863.715,648.615 863.15,647.771 862.541,646.956 861.888,646.171 "/>
     <polygon id="_333759720" class="fil1" points="866.542,658.345 2002.42,1794.23 2002.42,1794.48 2002.42,1794.74 2002.41,1794.99 2002.4,1795.24 2002.38,1795.5 2002.36,1795.75 2002.34,1796 2002.31,1796.25 866.43,660.364 866.456,660.115 866.479,659.865 866.498,659.614 866.514,659.362 866.526,659.109 866.535,658.855 866.54,658.6 "/>
     <polygon id="_333759936" class="fil1" points="1041.18,810.498 2177.06,1946.38 2175.74,2023.47 1039.86,887.59 "/>
     <polygon id="_333760272" class="fil1" points="1037.82,743.251 2173.7,1879.13 2173.69,1880.18 2173.68,1881.24 2173.68,1882.33 2173.7,1883.44 2173.75,1884.59 2173.83,1885.78 2173.95,1887.04 2174.11,1888.37 2174.32,1889.78 2174.6,1891.28 2174.93,1892.87 2175.34,1894.58 2175.82,1896.4 2176.39,1898.36 2177.05,1900.45 2177.8,1902.69 1041.92,766.806 1041.17,764.566 1040.51,762.474 1039.94,760.521 1039.46,758.696 1039.05,756.992 1038.72,755.395 1038.44,753.898 1038.23,752.49 1038.07,751.162 1037.95,749.903 1037.87,748.704 1037.82,747.553 1037.8,746.443 1037.8,745.362 1037.81,744.302 "/>
     <polygon id="_333760128" class="fil1" points="981.092,661.975 2116.97,1797.86 2115.24,1796.33 2113.58,1794.74 2111.98,1793.1 976.099,657.22 977.702,658.862 979.363,660.449 "/>
     <polygon id="_333760704" class="fil1" points="956.149,635.084 2092.03,1770.97 2063.35,1742.02 927.47,606.14 "/>
     <polygon id="_333760776" class="fil1" points="961.142,639.839 2097.02,1775.72 2095.42,1774.08 2093.76,1772.49 2092.03,1770.97 956.149,635.084 957.878,636.61 959.539,638.197 "/>
     <polygon id="_333760368" class="fil1" points="1005.13,678.5 2141.02,1814.38 2116.97,1797.86 981.092,661.975 "/>
     <polygon id="_333760200" class="fil1" points="886.804,576.145 2022.69,1712.03 2022.1,1712.18 2021.51,1712.31 2020.91,1712.42 2020.31,1712.51 2019.69,1712.58 2019.07,1712.63 2018.45,1712.67 2017.82,1712.68 881.94,576.794 882.57,576.784 883.194,576.752 883.811,576.7 884.424,576.628 885.03,576.535 885.629,576.424 886.221,576.293 "/>
     <polygon id="_333760752" class="fil1" points="881.94,576.794 2017.82,1712.68 2016.17,1712.6 2014.57,1712.39 2013.01,1712.04 2011.51,1711.56 2010.07,1710.97 2008.71,1710.26 2007.44,1709.45 2006.25,1708.53 870.369,572.651 871.554,573.564 872.831,574.378 874.19,575.086 875.625,575.682 877.125,576.158 878.684,576.506 880.292,576.721 "/>
     <polygon id="_333760440" class="fil1" points="870.369,572.651 2006.25,1708.53 2005.05,1707.41 869.168,571.53 "/>
     <polygon id="_333760560" class="fil1" points="894.712,551 2030.59,1686.88 2031.66,1688.1 2032.6,1689.42 2033.38,1690.82 2034.01,1692.31 2034.46,1693.86 2034.75,1695.48 2034.84,1697.15 898.961,561.265 898.866,559.594 898.583,557.978 898.124,556.426 897.498,554.943 896.715,553.539 895.783,552.222 "/>
     <polygon id="_333760176" class="fil1" points="898.961,561.265 2034.84,1697.15 2034.84,1697.35 2034.84,1697.55 2034.83,1697.75 2034.82,1697.96 2034.81,1698.16 2034.79,1698.36 2034.78,1698.55 2034.75,1698.75 898.873,562.87 898.894,562.672 898.912,562.473 898.927,562.274 898.939,562.073 898.948,561.872 898.955,561.67 898.96,561.468 "/>
     <polygon id="_333761136" class="fil1" points="1003.33,645.289 2139.22,1781.17 2139.99,1782 1004.11,646.121 "/>
     <polygon id="_333761016" class="fil1" points="1043.44,678.106 2179.32,1813.99 2178.64,1848.57 1042.76,712.686 "/>
     <polygon id="_333761160" class="fil1" points="1044.83,607.947 2180.71,1743.83 2179.96,1781.8 1044.08,645.921 "/>
     <polygon id="_333761544" class="fil1" points="1045.89,550.795 2181.77,1686.68 2181.83,1686.88 1045.95,551.001 "/>
     <polygon id="_333761184" class="fil1" points="1219.67,646.171 2355.55,1782.05 2356.2,1782.84 2356.81,1783.65 2357.38,1784.5 2357.89,1785.37 2358.36,1786.27 2358.78,1787.19 2359.15,1788.13 2359.47,1789.1 2359.73,1790.09 2359.93,1791.1 2360.08,1792.12 2360.17,1793.17 2360.2,1794.23 1224.32,658.345 1224.29,657.284 1224.2,656.24 1224.05,655.213 1223.85,654.205 1223.59,653.216 1223.27,652.249 1222.9,651.304 1222.48,650.383 1222.01,649.485 1221.5,648.615 1220.93,647.771 1220.32,646.956 "/>
     <polygon id="_333760872" class="fil1" points="1224.32,658.345 2360.2,1794.23 2360.17,1795.29 2360.08,1796.33 2359.93,1797.36 2359.73,1798.36 2359.47,1799.35 2359.15,1800.32 2358.78,1801.27 2358.36,1802.19 2357.89,1803.08 2357.38,1803.95 2356.81,1804.8 2356.2,1805.61 2355.55,1806.4 2354.85,1807.15 2354.12,1807.88 2353.34,1808.56 1217.46,672.682 1218.24,671.993 1218.97,671.271 1219.67,670.516 1220.32,669.73 1220.93,668.915 1221.5,668.072 1222.01,667.202 1222.48,666.304 1222.9,665.383 1223.27,664.438 1223.59,663.471 1223.85,662.482 1224.05,661.475 1224.2,660.448 1224.29,659.404 "/>
     <polygon id="_333761232" class="fil1" points="1202.89,677.9 2338.77,1813.78 2337.98,1813.77 2337.19,1813.73 2336.41,1813.66 2335.64,1813.57 2334.88,1813.46 2334.13,1813.32 2333.38,1813.15 2332.65,1812.96 1196.77,677.082 1197.5,677.269 1198.25,677.434 1199,677.574 1199.76,677.69 1200.53,677.781 1201.31,677.847 1202.1,677.887 "/>
     <polygon id="_333761088" class="fil1" points="1051.5,554.073 2187.38,1689.96 2188.31,1691.25 2189.01,1692.69 2189.45,1694.25 2189.6,1695.9 2189.25,1698.58 2188.33,1700.67 2187.03,1702.25 2185.54,1703.39 2184.05,1704.17 2182.74,1704.68 2181.82,1705 2181.47,1705.2 1045.59,569.32 1045.94,569.116 1046.86,568.799 1048.17,568.288 1049.66,567.504 1051.15,566.365 1052.45,564.791 1053.37,562.701 1053.72,560.015 1053.57,558.365 1053.13,556.805 1052.43,555.364 "/>
     <polygon id="_333761376" class="fil1" points="1045.59,569.32 2181.47,1705.2 2181.41,1708.16 1045.53,572.281 "/>
     <polygon id="_333761568" class="fil1" points="1047.32,573.959 2183.2,1709.84 2184.02,1710.75 2184.8,1711.7 2185.53,1712.69 2186.2,1713.72 2186.82,1714.79 2187.38,1715.89 2187.88,1717.02 2188.33,1718.19 2188.71,1719.38 2189.02,1720.6 2189.27,1721.85 2189.45,1723.12 2189.56,1724.4 2189.6,1725.71 1053.72,589.829 1053.68,588.521 1053.57,587.234 1053.39,585.965 1053.14,584.721 1052.82,583.5 1052.44,582.306 1052,581.142 1051.5,580.008 1050.94,578.906 1050.32,577.839 1049.64,576.809 1048.92,575.819 1048.14,574.868 "/>
     <polygon id="_333762120" class="fil1" points="1053.72,589.829 2189.6,1725.71 2189.56,1727.08 2189.44,1728.42 2189.24,1729.75 2188.97,1731.05 2188.62,1732.32 2188.21,1733.56 2187.73,1734.77 2187.18,1735.94 2186.57,1737.08 2185.89,1738.18 2185.16,1739.24 2184.37,1740.25 2183.53,1741.22 2182.64,1742.14 2181.7,1743.01 2180.71,1743.83 1044.83,607.947 1045.82,607.13 1046.76,606.259 1047.65,605.339 1048.49,604.371 1049.28,603.356 1050.01,602.298 1050.69,601.198 1051.3,600.061 1051.85,598.885 1052.33,597.676 1052.74,596.435 1053.09,595.164 1053.36,593.866 1053.56,592.542 1053.68,591.195 "/>
     <polygon id="_333761640" class="fil1" points="1120.53,606.14 2256.41,1742.02 2227.73,1770.97 1091.85,635.084 "/>
     <polygon id="_333762288" class="fil1" points="1091.85,635.084 2227.73,1770.97 2226,1772.49 2224.34,1774.08 2222.74,1775.72 2221.19,1777.41 2219.67,1779.13 2218.18,1780.87 2216.72,1782.64 2215.26,1784.41 2213.8,1786.19 2212.34,1787.95 2210.85,1789.7 2209.34,1791.42 2207.78,1793.1 2206.18,1794.74 2204.52,1796.33 2202.79,1797.86 1066.91,661.975 1068.64,660.449 1070.3,658.862 1071.9,657.22 1073.46,655.535 1074.97,653.815 1076.46,652.068 1077.92,650.304 1079.38,648.53 1080.84,646.756 1082.3,644.991 1083.79,643.244 1085.3,641.525 1086.86,639.839 1088.46,638.197 1090.12,636.61 "/>
     <polygon id="_333761688" class="fil1" points="1178.83,551 2314.71,1686.88 2315.78,1688.1 2316.72,1689.42 2317.5,1690.82 2318.12,1692.31 2318.58,1693.86 2318.87,1695.48 2318.96,1697.15 1183.08,561.265 1182.98,559.594 1182.7,557.978 1182.24,556.426 1181.62,554.943 1180.83,553.539 1179.9,552.222 "/>
     <polygon id="_333761712" class="fil1" points="1183.08,561.265 2318.96,1697.15 2318.87,1698.82 2318.58,1700.43 2318.13,1701.99 2317.5,1703.47 2316.72,1704.87 2315.78,1706.19 2314.71,1707.41 2313.51,1708.53 1177.63,572.651 1178.83,571.53 1179.9,570.308 1180.84,568.991 1181.62,567.586 1182.24,566.104 1182.7,564.551 1182.98,562.935 "/>
     <polygon id="_333762096" class="fil1" points="1177.63,572.651 2313.51,1708.53 2312.33,1709.45 2311.05,1710.26 2309.69,1710.97 2308.26,1711.56 2306.76,1712.04 2305.2,1712.39 2303.59,1712.6 2301.94,1712.68 1166.06,576.794 1167.71,576.721 1169.32,576.506 1170.87,576.158 1172.37,575.682 1173.81,575.086 1175.17,574.378 1176.45,573.564 "/>
     <polygon id="_333761760" class="fil1" points="1166.06,576.794 2301.94,1712.68 2301.31,1712.67 2300.69,1712.63 2300.07,1712.58 2299.46,1712.51 2298.85,1712.42 2298.25,1712.31 2297.66,1712.18 2297.08,1712.03 1161.2,576.145 1161.78,576.293 1162.37,576.424 1162.97,576.535 1163.58,576.628 1164.19,576.7 1164.81,576.752 1165.43,576.784 "/>
     <polygon id="_333762240" class="fil1" points="1217.46,672.682 2353.34,1808.56 2352.61,1809.15 2351.85,1809.71 2351.06,1810.24 2350.24,1810.74 2349.4,1811.2 2348.53,1811.63 2347.64,1812.03 2346.73,1812.38 2345.79,1812.7 2344.84,1812.98 2343.86,1813.22 2342.87,1813.42 2341.87,1813.58 2340.85,1813.69 2339.82,1813.76 2338.77,1813.78 1202.89,677.9 1203.94,677.877 1204.97,677.808 1205.99,677.695 1206.99,677.538 1207.98,677.339 1208.95,677.098 1209.91,676.818 1210.84,676.499 1211.76,676.143 1212.65,675.749 1213.52,675.321 1214.36,674.856 1215.18,674.36 1215.97,673.831 1216.73,673.271 "/>
     <polygon id="_333762192" class="fil1" points="1196.77,677.082 2332.65,1812.96 2281.44,1850.74 1145.56,714.853 "/>
     <polygon id="_333762336" class="fil1" points="1066.91,661.975 2202.79,1797.86 2179.32,1813.99 1043.44,678.106 "/>
     <polygon id="_333762888" class="fil1" points="1145.56,714.853 2281.44,1850.74 2245.32,1887.18 1109.44,751.302 "/>
     <polygon id="_333762456" class="fil1" points="1042.76,712.686 2178.64,1848.57 2173.7,1879.13 1037.82,743.251 "/>
     <polygon id="_333762600" class="fil1" points="1109.44,751.302 2245.32,1887.18 2243.15,1889.11 2241.05,1891.11 2239.04,1893.17 2237.08,1895.3 2235.17,1897.46 2233.3,1899.66 2231.45,1901.88 2229.62,1904.12 2227.78,1906.35 2225.94,1908.57 2224.07,1910.77 2222.16,1912.94 2220.2,1915.06 2218.18,1917.13 2216.09,1919.13 2213.91,1921.05 1078.03,785.166 1080.21,783.244 1082.3,781.244 1084.32,779.177 1086.28,777.056 1088.18,774.89 1090.06,772.69 1091.9,770.468 1093.74,768.234 1095.57,766.001 1097.42,763.779 1099.29,761.579 1101.2,759.413 1103.15,757.29 1105.17,755.223 1107.26,753.224 "/>
     <polygon id="_333763152" class="fil1" points="1041.92,766.806 2177.8,1902.69 2177.69,1909.38 1041.81,773.499 "/>
     <polygon id="_333762696" class="fil1" points="1078.03,785.166 2213.91,1921.05 2177.06,1946.38 1041.18,810.498 "/>
    </g>
    <path id="_451241936" class="fil1" d="M999.9 574.819l0 0zm0.21378 -0.242126l0 0zm0.206693 -0.229134l0 0zm0.209055 -0.225591l0 0zm0.212599 -0.223229l0 0zm0.214961 -0.220866l0 0zm201.934 65.1095c5.59607,0 10.7563,1.99606 14.5701,5.21811 4.23898,3.58111 6.86221,8.64331 6.86221,14.3386 0,5.69174 -2.62205,10.7551 -6.86221,14.3374 -3.81496,3.22205 -8.97402,5.21811 -14.5701,5.21811 -2.12126,0 -4.17874,-0.287008 -6.1252,-0.818505l-51.2079 37.7717 -36.117 36.4488c-11.8618,10.0228 -19.5461,23.8418 -31.4079,33.8634l-36.8575 25.3323 -1.31339 77.0918c0,10.5815 0.561024,21.1193 7.34646,112.39 0.562205,7.57442 0,15.1925 0,22.7882l-7.34646 42.724 7.34646 27.9142 0 228.155c160.488,12.7559 149.137,193.706 252.751,221.332 9.81615,8.30552 11.0398,22.9973 2.73425,32.8134 -8.30552,9.81615 -22.9973,11.0398 -32.8134,2.73425 -87.3284,-59.4768 -124.461,-150.35 -222.672,-168.5l0 3.99567 -10.0075 47.3528 10.0075 99.3768c0,12.887 -10.4469,23.3339 -23.3339,23.3339 -12.8858,0 -23.3339,-10.4469 -23.3339,-23.3339l10.0075 -99.8115 -10.0075 -47.6776 0 -3.19134c-98.0245,18.2575 -135.168,109.029 -222.422,168.455 -9.81615,8.30552 -24.5079,7.0819 -32.8134,-2.73425 -8.30552,-9.81615 -7.0819,-24.5079 2.73425,-32.8134 103.56,-27.6118 92.2725,-208.391 252.501,-221.314l0 -227.413 7.34764 -27.8929 -7.34764 -43.1244 0 -22.7894 7.34764 -112.51c0,-25.2768 -1.51181,-51.0154 -1.62284,-77.7355l-36.2988 -24.9484c-11.8618,-10.0217 -19.5461,-23.8406 -31.4079,-33.8634l-36.117 -36.4488 -51.2079 -37.7717c-1.94646,0.531496 -4.00394,0.818505 -6.1252,0.818505 -5.59607,0 -10.7551,-1.99606 -14.5701,-5.21811 -4.24016,-3.58229 -6.86221,-8.64568 -6.86221,-14.3374 0,-5.69528 2.62323,-10.7575 6.86221,-14.3386 3.81378,-3.22205 8.97402,-5.21811 14.5701,-5.21811 5.59607,0 10.7563,1.99488 14.5713,5.21811 4.23898,3.58111 6.86221,8.64331 6.86221,14.3386 0,0.682678 -0.0389764,1.35709 -0.112205,2.01969l46.617 44.5559 40.7197 28.3725 37.1811 24.1099c5.70945,4.82363 10.963,11.0162 16.2071,17.2358 0.11811,-1.97244 0.250394,-3.95315 0.396851,-5.93859 1.02756,-13.9134 4.35709,-19.2957 4.28977,-25.4492 -0.0625985,-5.82048 -3.80433,-16.8992 -4.8189,-30.9473 -0.805512,-11.1614 -1.41496,-22.3807 -1.88858,-33.8032l-24.0425 -16.5248c-9.42048,-7.95827 -15.5221,-18.9331 -24.9425,-26.8914l-28.6795 -28.9441 -40.6654 -29.9953c-1.54606,0.421654 -3.17953,0.649607 -4.86378,0.649607 -4.44449,0 -8.54056,-1.58504 -11.5713,-4.14331 -3.36733,-2.8441 -5.44961,-6.86575 -5.44961,-11.3858 0,-4.52126 2.08465,-8.54174 5.44961,-11.3858 3.02835,-2.55945 7.12678,-4.14449 11.5713,-4.14449 4.44449,0 8.54174,1.58386 11.5713,4.14449 3.36496,2.8441 5.44961,6.86457 5.44961,11.3858 0,0.542126 -0.0295276,1.07835 -0.0885827,1.60512l37.0181 35.3811 32.3362 22.5319 29.5252 19.1457c2.19095,1.85079 4.29567,3.95433 6.3567,6.19252 -0.28937,-12.2209 -0.500788,-24.8032 -0.7063,-37.9075l-0.0011811 -0.0921261c-10.7291,-8.1567 -11.8984,-22.9666 -3.90709,-32.8217l0.0177165 -0.0212599 0.183071 -0.220866 0.0141732 -0.0153543 0.200788 -0.233858 0.20315 -0.231496 0.206693 -0.229134 0.210236 -0.227953 0.216142 -0.226772 0.219685 -0.22441 0.209055 -0.207874 0.0141732 -0.0129921 0.206693 -0.201969 0.0177165 -0.0165354 0.206693 -0.194882 0.022441 -0.0200788 0.204331 -0.187795 0.0271654 -0.0248032 0.201969 -0.180709 0.0318898 -0.0283465 0.200788 -0.174803 0.0366142 -0.0307087 0.199606 -0.168898 0.282284 -0.233858 -0.0496063 -2.87717c-4.72678,-0.32126 -8.49568,-4.2874 -8.49568,-9.09331 0,-4.68544 3.58347,-8.57481 8.14489,-9.06261 9.02363,-19.4492 8.87835,-25.3418 8.70709,-31.2307 -0.18189,-6.27166 -0.393307,-12.541 -10.5933,-32.387 0,-12.887 10.448,-23.3339 23.3339,-23.3339 12.887,0 23.3339,10.4469 23.3339,23.3339 -10.0748,19.7764 -10.1988,25.9736 -10.3205,32.1721l9.00355 31.2886 0.0590552 0.206693c4.44213,0.666142 7.76694,4.52008 7.76694,9.01418 0,8.02796 -8.1189,8.83938 -8.12835,9.30473l-0.0590552 2.96103c4.99725,4.22363 8.18741,10.5307 8.18741,17.5477 0,7.34056 -3.49016,13.9039 -8.89135,18.1181l-0.751182 37.9737c2.00197,-2.1626 4.04764,-4.19646 6.17245,-5.99174l29.5252 -19.1457 32.3362 -22.5319 37.0181 -35.3811c-0.0590552,-0.526772 -0.0885827,-1.06299 -0.0885827,-1.60512 0,-4.52126 2.08465,-8.54174 5.44961,-11.3858 3.02953,-2.56063 7.12678,-4.14449 11.5713,-4.14449 4.44449,0 8.54292,1.58504 11.5713,4.14449 3.36496,2.8441 5.44961,6.86457 5.44961,11.3858 0,4.52008 -2.08229,8.54174 -5.44961,11.3858 -3.03071,2.55827 -7.12678,4.14331 -11.5713,4.14331 -1.68425,0 -3.31772,-0.227953 -4.86378,-0.649607l-40.6654 29.9953 -28.6795 28.9441c-9.42048,7.95827 -15.5221,18.9331 -24.9425,26.8914l-23.4685 16.1303 -0.683859 34.5803 -4.93229 30.5646c-0.0944883,5.59607 -0.190158,11.191 4.09725,23.5559l-0.114567 6.69213c4.92638,-5.83111 9.88465,-11.5665 15.2457,-16.0961l37.1811 -24.1099 40.7197 -28.3725 46.617 -44.5559c-0.0732284,-0.662599 -0.112205,-1.33701 -0.112205,-2.01969 0,-5.69528 2.62323,-10.7575 6.86221,-14.3386 3.81496,-3.22323 8.9752,-5.21811 14.5713,-5.21811z"/>
   </g>
  </g>
  <path class="fil2" d="M1024 -0.0011811c565.539,0 1024,458.462 1024,1024 0,565.539 -458.462,1024 -1024,1024 -565.539,0 -1024,-458.462 -1024,-1024 0,-565.539 458.462,-1024 1024,-1024z"/>
  <path class="fil3" d="M748.04 1542.89c-9.81615,8.30552 -11.0398,22.9973 -2.73425,32.8134 8.30552,9.81615 22.9973,11.0398 32.8134,2.73425 92.7331,-63.1583 128.855,-161.733 241.628,-171.021l4.25315 -86.5406c-185.006,-3.53032 -167.587,193.12 -275.96,222.014z"/>
  <path class="fil3" d="M1299.96 1542.89c9.81615,8.30552 11.0398,22.9973 2.73425,32.8134 -8.30552,9.81615 -22.9973,11.0398 -32.8134,2.73425 -92.7331,-63.1583 -128.855,-161.733 -241.628,-171.021l-4.25315 -86.5406c185.006,-3.53032 167.587,193.12 275.96,222.014z"/>
  <path class="fil3" d="M862.118 656.242c-4.90748,-4.15158 -12.2539,-3.53977 -16.4055,1.36772 -4.15276,4.90867 -3.54095,12.2551 1.36772,16.4067l55.3619 40.8366 36.117 36.4488c11.8618,10.0228 19.5461,23.8418 31.4079,33.8634l46.513 31.9689 7.5189 -8.88662 -7.52835 8.91261c2.19213,1.85197 4.86851,2.75551 7.52953,2.75315l0 -27.2858 -0.0011811 0.0011811c-11.6504,-9.84331 -21.4004,-25.3831 -33.0508,-35.2264l-37.1811 -24.1099 -40.7197 -28.3725 -50.9292 -48.678z"/>
  <path class="fil3" d="M1185.88 656.242c4.90748,-4.15158 12.2539,-3.53977 16.4055,1.36772 4.15276,4.90867 3.54095,12.2551 -1.36772,16.4067l-55.3619 40.8366 -36.117 36.4488c-11.8618,10.0228 -19.5461,23.8418 -31.4079,33.8634l-46.513 31.9689 -7.5189 -8.88662 7.52835 8.91261c-2.19213,1.85197 -4.86851,2.75551 -7.52953,2.75315l0 -27.2858 0.0011811 0.0011811c11.6504,-9.84331 21.4004,-25.3831 33.0508,-35.2264l37.1811 -24.1099 40.7197 -28.3725 50.9292 -48.678z"/>
  <path class="fil3" d="M845.109 638.788c5.59725,0 10.7563,1.99488 14.5713,5.21811 4.23898,3.58111 6.86221,8.64331 6.86221,14.3386 0,5.69174 -2.62205,10.7551 -6.86103,14.3374 -3.81614,3.22205 -8.97638,5.21811 -14.5725,5.21811 -5.59607,0 -10.7551,-1.99606 -14.5713,-5.21811 -4.23898,-3.58229 -6.86103,-8.64568 -6.86103,-14.3374 0,-5.69528 2.62323,-10.7575 6.86221,-14.3386 3.81378,-3.22205 8.97402,-5.21811 14.5701,-5.21811z"/>
  <path class="fil3" d="M1202.89 638.788c-5.59725,0 -10.7563,1.99488 -14.5713,5.21811 -4.23898,3.58111 -6.86221,8.64331 -6.86221,14.3386 0,5.69174 2.62205,10.7551 6.86103,14.3374 3.81614,3.22205 8.97638,5.21811 14.5725,5.21811 5.59607,0 10.7551,-1.99606 14.5713,-5.21811 4.23898,-3.58229 6.86103,-8.64568 6.86103,-14.3374 0,-5.69528 -2.62323,-10.7575 -6.86221,-14.3386 -3.81378,-3.22205 -8.97402,-5.21811 -14.5701,-5.21811z"/>
  <path class="fil3" d="M895.448 559.596c-3.89764,-3.29646 -9.73111,-2.81103 -13.0288,1.08662 -3.29646,3.89764 -2.81103,9.73111 1.08662,13.0276l43.9642 32.4296 28.6795 28.9441c9.42048,7.95945 15.5221,18.9331 24.9425,26.8914l36.9366 25.3878 5.97048 -7.05709 -5.97874 7.07717c1.74213,1.47047 3.86693,2.18858 5.97993,2.1874l0 -21.6685 -0.0011811 0c-9.25158,-7.81654 -16.9937,-20.1567 -26.2453,-27.9732l-29.5264 -19.1457 -32.3362 -22.5319 -40.4433 -38.6551z"/>
  <path class="fil3" d="M1152.55 559.596c3.89764,-3.29646 9.73111,-2.81103 13.0288,1.08662 3.29646,3.89764 2.81103,9.73111 -1.08662,13.0276l-43.9642 32.4296 -28.6795 28.9441c-9.42048,7.95945 -15.5221,18.9331 -24.9425,26.8914l-36.9366 25.3878 -5.97048 -7.05709 5.97874 7.07717c-1.74213,1.47047 -3.86693,2.18858 -5.97993,2.1874l0 -21.6685 0.0011811 0c9.25158,-7.81654 16.9937,-20.1567 26.2453,-27.9732l29.5264 -19.1457 32.3362 -22.5319 40.4433 -38.6551z"/>
  <path class="fil3" d="M881.94 545.736c4.44449,0 8.54056,1.58386 11.5713,4.14331 3.36614,2.8441 5.44961,6.86339 5.44961,11.3858 0,4.52008 -2.08229,8.54174 -5.44961,11.3858 -3.02953,2.55945 -7.12796,4.14331 -11.5713,4.14331 -4.44449,0 -8.54174,-1.58386 -11.5713,-4.14331 -3.36614,-2.8441 -5.44843,-6.86575 -5.44843,-11.3858 0,-4.52244 2.08347,-8.54174 5.44843,-11.3858 3.02835,-2.55945 7.12678,-4.14331 11.5713,-4.14331z"/>
  <path class="fil3" d="M1166.06 545.736c-4.44449,0 -8.54056,1.58386 -11.5713,4.14331 -3.36614,2.8441 -5.44961,6.86339 -5.44961,11.3858 0,4.52008 2.08229,8.54174 5.44961,11.3858 3.02953,2.55945 7.12796,4.14331 11.5713,4.14331 4.44449,0 8.54174,-1.58386 11.5713,-4.14331 3.36614,-2.8441 5.44843,-6.86575 5.44843,-11.3858 0,-4.52244 -2.08347,-8.54174 -5.44843,-11.3858 -3.02835,-2.55945 -7.12678,-4.14331 -11.5713,-4.14331z"/>
  <path class="fil4" d="M1045.95 551.001c4.37953,0.656693 7.76694,4.45748 7.76694,9.013l0 0.0011811c0,4.67835 -3.57166,8.56182 -8.12363,9.06024l-0.0637796 3.20551c4.99725,4.22363 8.18741,10.5307 8.18741,17.5477l0 0c0,7.34056 -3.49016,13.9039 -8.89135,18.1181l-2.07047 104.739 -4.93229 30.5646c-0.0944883,5.59607 -0.190158,11.191 4.09725,23.5559l-2.05866 120.783c0,10.5815 0.561024,21.1193 7.34646,112.39 0.562205,7.57442 0,15.1925 0,22.7882l-7.34646 42.724 7.34646 27.9142 0 320.53 -10.0075 47.3528 10.0075 99.3768c0,12.887 -10.4469,23.3339 -23.3339,23.3339 -12.8858,0 -23.3339,-10.4469 -23.3339,-23.3339l10.0075 -99.8115 -10.0075 -47.6776 0 -319.011 7.34764 -27.8929 -7.34764 -43.1244 0 -22.7894 7.34764 -112.51c0,-38.0764 -3.43111,-77.2028 -0.336614,-119.15 1.02756,-13.9134 4.35709,-19.2957 4.28977,-25.4492 -0.0625985,-5.82048 -3.80433,-16.8992 -4.8189,-30.9473 -2.37992,-32.9551 -3.03189,-66.3969 -3.62126,-104.182 -5.53229,-4.20591 -9.1193,-10.8508 -9.1193,-18.2929l0 0c0,-7.18347 3.34134,-13.6217 8.54528,-17.8441l-0.0496063 -2.87717c-4.72678,-0.32126 -8.49568,-4.2874 -8.49568,-9.09213l0 -0.0011811c0,-4.68544 3.58347,-8.57481 8.14489,-9.06261 9.02363,-19.4492 8.87835,-25.3418 8.70709,-31.2307 -0.18189,-6.27166 -0.393307,-12.541 -10.5933,-32.387 0,-12.887 10.448,-23.3339 23.3339,-23.3339 12.887,0 23.3339,10.4469 23.3339,23.3339 -10.0748,19.7764 -10.1988,25.9736 -10.3205,32.1721l9.06261 31.4953z"/>
  <path class="fil5" d="M1045.95 551.001c4.37953,0.656693 7.76694,4.45748 7.76694,9.013l0 0.0011811c0,4.67835 -3.57166,8.56182 -8.12363,9.06024l-0.00472441 0.244488c-6.35315,0.90945 -13.7256,1.4315 -21.5894,1.4315 -7.71142,0 -14.9504,-0.500788 -21.2173,-1.37835l-0.00472441 -0.265748c-4.72678,-0.32126 -8.49568,-4.2874 -8.49568,-9.09213l0 -0.0011811c0,-4.68544 3.58347,-8.57481 8.14489,-9.06261l0.100394 -0.217323c6.32599,-0.900001 13.6571,-1.41496 21.4725,-1.41496 7.98898,0 15.4701,0.538583 21.8917,1.4752l0.0590552 0.206693z"/>
  <path class="fil5" d="M1045.53 572.239l-0.0011811 0.0425197c4.99725,4.22363 8.18741,10.5307 8.18741,17.5477l0 0c0,7.34056 -3.49016,13.9039 -8.89135,18.1181l-0.00472441 0.206693c-6.17599,1.62047 -13.2721,2.54528 -20.8217,2.54528 -7.45749,0 -14.4732,-0.900001 -20.5973,-2.48504l-0.0011811 -0.0921261c-5.53229,-4.20591 -9.1193,-10.8508 -9.1193,-18.2929l0 0c0,-7.05237 3.22087,-13.3854 8.26182,-17.6102 6.32245,-1.72559 13.6476,-2.71418 21.4559,-2.71418 7.84016,0 15.1914,0.99567 21.5315,2.73425z"/>
 </g>
</svg>
