<?xml version="1.0" encoding="UTF-8"?>
<!DOCTYPE svg PUBLIC "-//W3C//DTD SVG 1.1//EN" "http://www.w3.org/Graphics/SVG/1.1/DTD/svg11.dtd">
<!-- Creator: CorelDRAW -->
<svg xmlns="http://www.w3.org/2000/svg" xml:space="preserve" width="2048px" height="2048px" style="shape-rendering:geometricPrecision; text-rendering:geometricPrecision; image-rendering:optimizeQuality; fill-rule:evenodd; clip-rule:evenodd"
viewBox="0 0 2048 2048"
 xmlns:xlink="http://www.w3.org/1999/xlink">
 <defs>
  <style type="text/css">
   <![CDATA[
    .fil2 {fill:none}
    .fil10 {fill:#455A64}
    .fil1 {fill:#7CB342}
    .fil6 {fill:#8F3B1D}
    .fil5 {fill:#A13210}
    .fil0 {fill:#AED581}
    .fil8 {fill:#B0BEC5}
    .fil7 {fill:#DD2C00}
    .fil3 {fill:#FF6F00}
    .fil11 {fill:#FFFFFE}
    .fil9 {fill:#263238;fill-rule:nonzero}
    .fil4 {fill:#37474F;fill-rule:nonzero}
   ]]>
  </style>
   <clipPath id="id0">
    <path d="M1024 -0.0011811c565.539,0 1024,458.462 1024,1024 0,565.539 -458.462,1024 -1024,1024 -565.539,0 -1024,-458.462 -1024,-1024 0,-565.539 458.462,-1024 1024,-1024z"/>
   </clipPath>
 </defs>
 <g id="Layer_x0020_1">
  <metadata id="CorelCorpID_0Corel-Layer"/>
  <path class="fil0" d="M1024 -0.0011811c565.539,0 1024,458.462 1024,1024 0,565.539 -458.462,1024 -1024,1024 -565.539,0 -1024,-458.462 -1024,-1024 0,-565.539 458.462,-1024 1024,-1024z"/>
  <g style="clip-path:url(#id0)">
   <g id="_451253840">
    <g>
     <polygon id="_3370636081" class="fil1" points="1128.3,610.995 2264.18,1746.88 2255.57,1737.81 2246.78,1729.21 2237.81,1721.09 2228.68,1713.42 2219.39,1706.22 2209.96,1699.45 2200.39,1693.13 2190.69,1687.24 2180.88,1681.77 2170.96,1676.71 2160.94,1672.06 2150.83,1667.81 2140.64,1663.95 2130.37,1660.47 2120.05,1657.37 2109.68,1654.63 2099.26,1652.25 2088.81,1650.23 2078.34,1648.54 2067.85,1647.19 2057.35,1646.17 2046.86,1645.47 2036.39,1645.07 2025.94,1644.98 2015.51,1645.19 2005.14,1645.68 1994.81,1646.45 1984.54,1647.5 1974.35,1648.8 838.464,512.921 848.662,511.615 858.928,510.572 869.255,509.8 879.634,509.307 890.055,509.102 900.507,509.19 910.983,509.583 921.472,510.286 931.966,511.309 942.454,512.659 952.929,514.343 963.379,516.37 973.796,518.748 984.171,521.485 994.494,524.588 1004.75,528.067 1014.94,531.928 1025.06,536.178 1035.08,540.828 1045,545.885 1054.81,551.356 1064.51,557.248 1074.08,563.572 1083.51,570.334 1092.8,577.542 1101.93,585.204 1110.9,593.328 1119.69,601.923 "/>
     <polygon id="_337064232" class="fil1" points="838.464,512.921 1974.35,1648.8 1970.15,1649.42 1965.97,1650.08 1961.81,1650.78 1957.66,1651.52 1953.53,1652.3 1949.41,1653.12 1945.32,1653.99 1941.24,1654.89 1937.18,1655.83 1933.13,1656.81 1929.11,1657.83 1925.11,1658.88 1921.13,1659.97 1917.17,1661.1 1913.23,1662.26 1909.32,1663.46 1905.43,1664.69 1901.57,1665.96 1897.73,1667.26 1893.92,1668.59 1890.13,1669.96 1886.37,1671.35 1882.64,1672.78 1878.93,1674.24 1875.26,1675.73 1871.62,1677.24 1868,1678.79 1864.42,1680.37 1860.86,1681.97 1857.35,1683.6 1853.86,1685.25 1850.4,1686.94 714.524,551.056 717.977,549.372 721.464,547.717 724.984,546.087 728.535,544.484 732.119,542.908 735.734,541.362 739.379,539.845 743.053,538.356 746.757,536.899 750.49,535.471 754.249,534.075 758.036,532.709 761.849,531.377 765.688,530.078 769.553,528.812 773.441,527.579 777.354,526.381 781.289,525.218 785.248,524.091 789.229,523 793.23,521.945 797.252,520.928 801.295,519.948 805.355,519.006 809.436,518.104 813.533,517.241 817.649,516.417 821.781,515.635 825.929,514.894 830.094,514.193 834.271,513.537 "/>
     <polygon id="_337064136" class="fil1" points="714.524,551.056 1850.4,1686.94 1847.04,1688.62 1843.71,1690.33 1840.41,1692.05 1837.15,1693.8 1833.93,1695.58 1830.75,1697.37 1827.6,1699.19 1824.5,1701.02 1821.43,1702.88 1818.41,1704.75 1815.42,1706.64 1812.48,1708.56 1809.58,1710.48 1806.72,1712.43 1803.91,1714.39 1801.14,1716.37 1798.41,1718.36 1795.73,1720.37 1793.1,1722.4 1790.51,1724.43 1787.98,1726.48 1785.49,1728.55 1783.04,1730.62 1780.65,1732.71 1778.31,1734.81 1776.02,1736.92 1773.77,1739.04 1771.59,1741.16 1769.45,1743.3 1767.36,1745.45 1765.33,1747.6 1763.36,1749.76 627.478,613.88 629.454,611.718 631.483,609.565 633.566,607.419 635.704,605.281 637.893,603.153 640.134,601.034 642.426,598.926 644.769,596.827 647.162,594.74 649.604,592.665 652.094,590.601 654.634,588.551 657.22,586.515 659.853,584.491 662.532,582.482 665.256,580.489 668.026,578.51 670.839,576.548 673.698,574.602 676.597,572.673 679.541,570.762 682.525,568.869 685.55,566.995 688.616,565.14 691.721,563.305 694.867,561.489 698.051,559.695 701.272,557.922 704.53,556.171 707.826,554.443 711.158,552.737 "/>
     <polygon id="_337064160" class="fil1" points="627.478,613.88 1763.36,1749.76 1761.1,1752.32 1758.92,1754.88 1756.82,1757.45 1754.81,1760.02 1752.89,1762.58 1751.06,1765.14 1749.31,1767.7 1747.66,1770.26 1746.1,1772.81 1744.63,1775.35 1743.26,1777.89 1741.98,1780.42 1740.8,1782.93 1739.72,1785.44 1738.75,1787.93 1737.87,1790.41 1737.09,1792.87 1736.42,1795.32 1735.86,1797.75 1735.4,1800.17 1735.05,1802.56 1734.81,1804.93 1734.69,1807.28 1734.67,1809.61 1734.77,1811.91 1734.98,1814.19 1735.31,1816.44 1735.76,1818.66 1736.33,1820.85 1737.02,1823.01 1737.83,1825.14 1738.76,1827.24 602.879,691.358 601.946,689.26 601.136,687.129 600.447,684.968 599.88,682.775 599.431,680.553 599.102,678.303 598.888,676.027 598.789,673.725 598.804,671.398 598.932,669.048 599.171,666.676 599.52,664.283 599.977,661.871 600.541,659.439 601.212,656.991 601.986,654.527 602.865,652.048 603.844,649.555 604.923,647.05 606.102,644.533 607.379,642.005 608.751,639.469 610.219,636.925 611.78,634.375 613.433,631.819 615.178,629.26 617.012,626.697 618.934,624.133 620.943,621.567 623.038,619.002 625.216,616.439 "/>
     <polygon id="_337063752" class="fil1" points="799.364,757.069 1935.24,1892.95 1935.72,1893.53 1936.09,1894.2 1936.31,1894.93 1936.4,1895.72 1936.4,1914.44 800.514,778.556 800.514,759.837 800.434,759.049 800.205,758.316 799.843,757.649 "/>
     <polygon id="_337064376" class="fil1" points="1033.54,878.442 2169.42,2014.32 2174.75,2020.05 2179.95,2025.91 2185.01,2031.88 2189.92,2037.98 2194.7,2044.2 2199.32,2050.53 2203.8,2056.98 2208.12,2063.53 2212.29,2070.2 2216.31,2076.96 2220.16,2083.83 2223.85,2090.81 2227.37,2097.88 2230.73,2105.04 2233.92,2112.29 2236.93,2119.64 2239.77,2127.07 2242.43,2134.59 2244.91,2142.19 2247.21,2149.86 2249.32,2157.62 2251.24,2165.45 2252.97,2173.35 2254.51,2181.31 2255.85,2189.35 2256.99,2197.44 2257.93,2205.6 2258.66,2213.82 2259.19,2222.09 2259.51,2230.42 2259.62,2238.79 1123.74,1102.91 1123.63,1094.54 1123.31,1086.21 1122.78,1077.94 1122.05,1069.72 1121.11,1061.56 1119.97,1053.46 1118.63,1045.43 1117.09,1037.46 1115.36,1029.56 1113.44,1021.74 1111.33,1013.98 1109.03,1006.3 1106.55,998.707 1103.89,991.19 1101.05,983.757 1098.04,976.412 1094.85,969.157 1091.49,961.993 1087.97,954.924 1084.28,947.952 1080.42,941.081 1076.41,934.313 1072.24,927.649 1067.92,921.093 1063.44,914.648 1058.82,908.316 1054.04,902.1 1049.13,896 1044.07,890.023 1038.87,884.169 "/>
     <polygon id="_337064640" class="fil1" points="1123.74,1102.91 2259.62,2238.79 2259.62,2300.2 1123.74,1164.32 "/>
     <polygon id="_337064904" class="fil1" points="649.708,756.544 1785.59,1892.43 1786.07,1893 1786.61,1893.65 1787.21,1894.39 1787.87,1895.2 1788.59,1896.08 1789.35,1897.03 1790.17,1898.06 1791.03,1899.14 1791.94,1900.28 1792.89,1901.49 1793.88,1902.74 1794.91,1904.05 1795.97,1905.4 1797.06,1906.8 1798.18,1908.24 1799.33,1909.72 1800.5,1911.23 1801.69,1912.77 1802.89,1914.35 1804.12,1915.94 1805.36,1917.56 1806.6,1919.2 1807.86,1920.85 1809.12,1922.51 1810.38,1924.19 1811.64,1925.86 1812.9,1927.55 1814.16,1929.22 1815.41,1930.9 1816.64,1932.57 1817.86,1934.23 1819.07,1935.87 683.19,799.987 681.983,798.343 680.761,796.686 679.524,795.017 678.278,793.342 677.024,791.663 675.764,789.982 674.501,788.304 673.237,786.631 671.977,784.967 670.723,783.315 669.474,781.679 668.238,780.061 667.013,778.464 665.804,776.892 664.614,775.349 663.445,773.836 662.299,772.359 661.178,770.92 660.088,769.521 659.027,768.167 658.002,766.86 657.012,765.604 656.063,764.402 655.153,763.257 654.29,762.173 653.474,761.151 652.706,760.198 651.991,759.314 651.331,758.503 650.73,757.77 650.188,757.116 "/>
     <polygon id="_337064712" class="fil1" points="1146.31,1442.56 2282.19,2578.44 2282.16,2580.67 2282.08,2582.89 2281.94,2585.1 2281.74,2587.29 2281.49,2589.47 2281.19,2591.63 2280.83,2593.77 2280.42,2595.89 2279.96,2598 2279.45,2600.09 2278.88,2602.15 2278.27,2604.2 2277.61,2606.23 2276.9,2608.23 2276.15,2610.21 2275.34,2612.17 2274.5,2614.1 2273.6,2616.01 2272.66,2617.9 2271.68,2619.76 2270.65,2621.59 2269.58,2623.39 2268.47,2625.17 2267.32,2626.91 2266.13,2628.63 2264.9,2630.32 2263.63,2631.98 2262.32,2633.6 2260.97,2635.19 2259.58,2636.75 2258.16,2638.28 2256.71,2639.77 1120.83,1503.89 1122.28,1502.4 1123.7,1500.87 1125.09,1499.31 1126.43,1497.72 1127.74,1496.09 1129.02,1494.44 1130.25,1492.75 1131.44,1491.03 1132.59,1489.29 1133.7,1487.51 1134.77,1485.71 1135.8,1483.87 1136.78,1482.02 1137.72,1480.13 1138.61,1478.22 1139.46,1476.29 1140.27,1474.33 1141.02,1472.35 1141.73,1470.34 1142.39,1468.32 1143,1466.27 1143.56,1464.2 1144.08,1462.12 1144.54,1460.01 1144.95,1457.89 1145.3,1455.74 1145.61,1453.58 1145.86,1451.41 1146.05,1449.22 1146.19,1447.01 1146.28,1444.79 "/>
     <polygon id="_337064976" class="fil1" points="1120.83,1503.89 2256.71,2639.77 2255.22,2641.23 2253.69,2642.65 2252.13,2644.03 2250.54,2645.38 2248.91,2646.69 2247.26,2647.96 2245.57,2649.19 2243.85,2650.38 2242.11,2651.54 2240.33,2652.65 2238.53,2653.72 2236.69,2654.74 2234.84,2655.72 2232.95,2656.66 2231.04,2657.56 2229.11,2658.41 2227.15,2659.21 2225.17,2659.97 2223.17,2660.67 2221.14,2661.34 2219.09,2661.95 2217.03,2662.51 2214.94,2663.02 2212.83,2663.48 2210.71,2663.89 2208.57,2664.25 2206.4,2664.55 2204.23,2664.8 2202.04,2665 2199.83,2665.14 2197.61,2665.22 2195.38,2665.25 1059.5,1529.37 1061.73,1529.34 1063.95,1529.26 1066.16,1529.12 1068.35,1528.92 1070.52,1528.67 1072.68,1528.37 1074.83,1528.01 1076.95,1527.6 1079.06,1527.14 1081.14,1526.63 1083.21,1526.06 1085.26,1525.45 1087.28,1524.79 1089.29,1524.08 1091.27,1523.33 1093.23,1522.52 1095.16,1521.68 1097.07,1520.78 1098.96,1519.84 1100.81,1518.86 1102.64,1517.83 1104.45,1516.76 1106.22,1515.65 1107.97,1514.5 1109.69,1513.31 1111.38,1512.08 1113.03,1510.81 1114.66,1509.5 1116.25,1508.15 1117.81,1506.76 1119.33,1505.34 "/>
     <polygon id="_337064352" class="fil1" points="1193.49,1580.91 2329.38,2716.79 2286.33,2695.58 1150.44,1559.69 "/>
     <polygon id="_337064568" class="fil1" points="1150.44,1559.69 2286.33,2695.58 2269.81,2687.44 1133.93,1551.55 "/>
     <polygon id="_337065000" class="fil1" points="1133.93,1551.55 2269.81,2687.44 2268.08,2686.62 2266.42,2685.67 2264.84,2684.57 2263.35,2683.33 1127.47,1547.44 1128.96,1548.68 1130.54,1549.78 1132.2,1550.74 "/>
     <polygon id="_337065096" class="fil1" points="602.879,691.358 1738.76,1827.24 1739.81,1829.37 1740.92,1831.52 1742.1,1833.69 1743.33,1835.88 1744.63,1838.09 1745.97,1840.3 1747.36,1842.53 1748.79,1844.77 1750.27,1847 1751.77,1849.24 1753.31,1851.47 1754.88,1853.7 1756.47,1855.92 1758.07,1858.13 1759.7,1860.32 1761.33,1862.5 1762.97,1864.65 1764.61,1866.78 1766.25,1868.89 1767.88,1870.96 1769.51,1873 1771.12,1875.01 1772.71,1876.97 1774.29,1878.9 1775.83,1880.78 1777.35,1882.61 1778.83,1884.39 1780.27,1886.12 1781.68,1887.79 1783.03,1889.4 1784.34,1890.95 1785.59,1892.43 649.708,756.544 648.456,755.063 647.151,753.516 645.795,751.906 644.393,750.236 642.949,748.509 641.467,746.728 639.95,744.896 638.404,743.017 636.832,741.092 635.239,739.125 633.628,737.119 632.002,735.079 630.368,733.005 628.727,730.901 627.086,728.77 625.446,726.616 623.814,724.44 622.192,722.247 620.585,720.04 618.996,717.819 617.431,715.591 615.892,713.357 614.385,711.12 612.912,708.883 611.478,706.649 610.088,704.422 608.745,702.204 607.453,699.997 606.217,697.808 605.039,695.636 603.925,693.485 "/>
     <polygon id="_337064448" class="fil1" points="1123.74,1164.32 2259.62,2300.2 2260.49,2302.18 2261.34,2304.16 2262.19,2306.15 2263.03,2308.15 2263.86,2310.14 2264.67,2312.15 2265.48,2314.16 2266.28,2316.17 2267.06,2318.2 2267.84,2320.22 2268.61,2322.25 2269.36,2324.29 2270.1,2326.33 2270.84,2328.37 2271.56,2330.42 2272.27,2332.48 2272.97,2334.54 2273.66,2336.6 2274.34,2338.67 2275.01,2340.74 2275.67,2342.82 2276.32,2344.91 2276.96,2347 2277.58,2349.09 2278.2,2351.19 2278.8,2353.29 2279.39,2355.4 2279.97,2357.51 2280.55,2359.62 2281.1,2361.74 2281.65,2363.87 2282.19,2365.99 1146.31,1230.11 1145.77,1227.98 1145.22,1225.86 1144.66,1223.74 1144.09,1221.62 1143.51,1219.51 1142.92,1217.41 1142.31,1215.3 1141.7,1213.21 1141.07,1211.11 1140.44,1209.02 1139.79,1206.94 1139.13,1204.86 1138.46,1202.79 1137.78,1200.72 1137.09,1198.65 1136.39,1196.59 1135.68,1194.54 1134.96,1192.49 1134.22,1190.44 1133.48,1188.4 1132.72,1186.37 1131.96,1184.34 1131.18,1182.31 1130.4,1180.29 1129.6,1178.28 1128.79,1176.27 1127.98,1174.26 1127.15,1172.26 1126.31,1170.27 1125.46,1168.28 1124.6,1166.3 "/>
     <polygon id="_340330536" class="fil1" points="1191.46,617.615 2327.34,1753.5 2328,1754.32 2328.63,1755.17 2329.22,1756.05 2329.77,1756.97 2330.27,1757.91 2330.73,1758.89 2331.15,1759.89 2331.53,1760.92 1195.64,625.033 1195.27,624.004 1194.85,623.004 1194.39,622.029 1193.88,621.084 1193.34,620.17 1192.75,619.287 1192.12,618.434 "/>
     <polygon id="_340330512" class="fil1" points="1195.64,625.033 2331.53,1760.92 2331.64,1761.26 2331.75,1761.61 2331.85,1761.97 2331.95,1762.32 2332.04,1762.68 2332.12,1763.05 2332.2,1763.41 2332.28,1763.78 1196.4,627.896 1196.32,627.528 1196.24,627.163 1196.16,626.801 1196.06,626.442 1195.97,626.085 1195.86,625.732 1195.76,625.381 "/>
     <polygon id="_340330008" class="fil1" points="1197.92,627.238 2333.8,1763.12 2484.22,2534.05 1348.34,1398.16 "/>
     <polygon id="_340330056" class="fil1" points="1146.31,1230.11 2282.19,2365.99 2282.19,2392.21 1146.31,1256.33 "/>
     <polygon id="_340330488" class="fil1" points="1171.86,1257.57 2307.74,2393.46 2308.26,2394.08 2308.65,2394.8 2308.9,2395.6 2308.99,2396.44 2308.99,2507.44 2308.91,2508.22 2308.68,2508.96 2308.31,2509.62 2307.83,2510.2 2307.25,2510.68 2306.59,2511.05 2305.85,2511.27 2305.07,2511.36 2282.19,2511.36 1146.31,1375.47 1169.19,1375.47 1169.97,1375.39 1170.71,1375.16 1171.37,1374.8 1171.95,1374.32 1172.43,1373.74 1172.8,1373.08 1173.02,1372.34 1173.1,1371.55 1173.1,1260.56 1173.02,1259.71 1172.77,1258.92 1172.38,1258.2 "/>
     <polygon id="_340330080" class="fil1" points="1529.11,1363.48 2664.99,2499.36 2676.84,2522.3 1540.96,1386.42 "/>
     <polygon id="_340330152" class="fil1" points="1531.32,1416.81 2667.2,2552.69 2666.56,2553 1530.68,1417.12 "/>
     <polygon id="_340330584" class="fil1" points="1511.29,1331.15 2647.18,2467.04 2648.67,2468.7 2650,2470.53 2651.17,2472.52 1515.29,1336.64 1514.12,1334.64 1512.78,1332.81 "/>
     <polygon id="_340330704" class="fil1" points="1515.29,1336.64 2651.17,2472.52 2651.25,2472.67 2651.33,2472.83 2651.4,2472.98 2651.48,2473.14 2651.55,2473.29 2651.62,2473.45 2651.69,2473.6 2651.76,2473.76 1515.88,1337.88 1515.81,1337.72 1515.74,1337.57 1515.67,1337.41 1515.6,1337.25 1515.52,1337.1 1515.44,1336.95 1515.37,1336.79 "/>
     <polygon id="_340330272" class="fil1" points="1304.95,1419.78 2440.83,2555.67 2439.02,2556.56 1303.14,1420.68 "/>
     <polygon id="_340330320" class="fil1" points="1146.31,1375.47 2282.19,2511.36 2282.19,2578.44 1146.31,1442.56 "/>
     <polygon id="_340331256" class="fil1" points="1530.68,1417.12 2666.56,2553 2351.19,2717.31 1215.31,1581.43 "/>
     <polygon id="_340331304" class="fil1" points="1215.31,1581.43 2351.19,2717.31 2351.2,2717.33 1215.32,1581.44 "/>
     <polygon id="_340330896" class="fil1" points="1215.32,1581.44 2351.2,2717.33 2349.85,2717.97 2348.48,2718.53 2347.09,2718.98 2345.69,2719.34 2344.28,2719.61 2342.86,2719.79 2341.45,2719.87 2340.04,2719.87 2338.64,2719.78 2337.24,2719.6 2335.87,2719.34 2334.51,2718.99 2333.18,2718.56 2331.88,2718.05 2330.61,2717.46 2329.38,2716.79 1193.49,1580.91 1194.73,1581.58 1196,1582.17 1197.3,1582.68 1198.63,1583.11 1199.99,1583.46 1201.36,1583.72 1202.75,1583.9 1204.16,1583.99 1205.57,1583.99 1206.98,1583.9 1208.4,1583.73 1209.81,1583.46 1211.21,1583.1 1212.6,1582.64 1213.97,1582.09 "/>
     <polygon id="_340331328" class="fil1" points="1059.5,1529.37 2195.38,2665.25 2129.11,2665.25 993.225,1529.37 "/>
     <polygon id="_340331112" class="fil1" points="993.225,1529.37 2129.11,2665.25 1890.98,2665.25 755.098,1529.37 "/>
     <polygon id="_340330800" class="fil1" points="755.098,1529.37 1890.98,2665.25 1890.05,2666.33 1889.12,2667.39 1888.17,2668.45 1887.21,2669.5 1886.25,2670.53 1885.27,2671.56 1884.28,2672.58 1883.28,2673.58 747.401,1537.7 748.399,1536.69 749.386,1535.68 750.364,1534.65 751.332,1533.61 752.288,1532.57 753.236,1531.51 754.172,1530.44 "/>
     <polygon id="_340330728" class="fil1" points="747.401,1537.7 1883.28,2673.58 1880.84,2675.97 1878.34,2678.3 1875.79,2680.56 1873.18,2682.77 1870.51,2684.91 1867.8,2686.99 1865.04,2689.01 1862.22,2690.96 1859.36,2692.85 1856.45,2694.66 1853.49,2696.41 1850.49,2698.09 1847.44,2699.7 1844.35,2701.23 1841.22,2702.69 1838.05,2704.08 1834.84,2705.39 1831.59,2706.63 1828.3,2707.79 1824.97,2708.87 1821.61,2709.87 1818.22,2710.79 1814.79,2711.62 1811.34,2712.38 1807.85,2713.04 1804.33,2713.63 1800.78,2714.12 1797.21,2714.53 1793.61,2714.85 1789.98,2715.08 1786.33,2715.22 1782.66,2715.27 646.776,1579.38 650.449,1579.34 654.099,1579.2 657.725,1578.97 661.326,1578.65 664.9,1578.24 668.447,1577.74 671.965,1577.16 675.454,1576.49 678.914,1575.74 682.34,1574.9 685.733,1573.99 689.092,1572.99 692.417,1571.91 695.704,1570.75 698.954,1569.51 702.167,1568.2 705.34,1566.81 708.471,1565.35 711.56,1563.81 714.606,1562.21 717.609,1560.53 720.566,1558.78 723.477,1556.96 726.34,1555.08 729.154,1553.13 731.919,1551.11 734.633,1549.03 737.295,1546.89 739.905,1544.68 742.459,1542.41 744.958,1540.09 "/>
     <polygon id="_340330992" class="fil1" points="646.776,1579.38 1782.66,2715.27 1778.98,2715.22 1775.33,2715.08 1771.71,2714.85 1768.11,2714.53 1764.53,2714.12 1760.98,2713.63 1757.47,2713.04 1753.98,2712.38 1750.52,2711.62 1747.09,2710.79 1743.7,2709.87 1740.34,2708.87 1737.02,2707.79 1733.73,2706.63 1730.48,2705.39 1727.26,2704.08 1724.09,2702.69 1720.96,2701.23 1717.87,2699.7 1714.82,2698.09 1711.82,2696.41 1708.87,2694.66 1705.95,2692.85 1703.09,2690.96 1700.28,2689.01 1697.51,2686.99 1694.8,2684.91 1692.14,2682.77 556.255,1546.89 558.917,1549.03 561.63,1551.11 564.395,1553.13 567.209,1555.08 570.074,1556.96 572.984,1558.78 575.941,1560.53 578.944,1562.21 581.99,1563.82 585.08,1565.35 588.211,1566.81 591.383,1568.2 594.596,1569.51 597.846,1570.75 601.134,1571.91 604.458,1572.99 607.817,1573.99 611.211,1574.9 614.638,1575.74 618.096,1576.49 621.585,1577.16 625.104,1577.74 628.652,1578.24 632.226,1578.65 635.827,1578.97 639.453,1579.2 643.102,1579.34 "/>
     <polygon id="_340331040" class="fil1" points="1163.37,582.583 2299.25,1718.47 2308.85,1729.57 2318.22,1741.24 2327.34,1753.5 1191.46,617.615 1182.34,605.358 1172.97,593.684 "/>
     <polygon id="_340331832" class="fil1" points="1515.88,1337.88 2651.76,2473.76 2664.99,2499.36 1529.11,1363.48 "/>
     <polygon id="_340331880" class="fil1" points="1541.01,1386.4 2676.89,2522.28 2677.85,2524.38 2678.57,2526.53 2679.07,2528.71 2679.35,2530.9 2679.41,2533.09 2679.26,2535.26 2678.9,2537.4 2678.34,2539.49 2677.59,2541.52 2676.64,2543.47 2675.51,2545.33 2674.19,2547.08 2672.7,2548.71 2671.03,2550.19 2669.2,2551.53 2667.2,2552.69 1531.32,1416.81 1533.32,1415.64 1535.15,1414.31 1536.82,1412.82 1538.31,1411.2 1539.63,1409.45 1540.76,1407.59 1541.71,1405.64 1542.46,1403.61 1543.02,1401.52 1543.38,1399.38 1543.53,1397.2 1543.47,1395.02 1543.19,1392.82 1542.69,1390.65 1541.97,1388.5 "/>
    </g>
    <path id="_451253888" class="fil1" d="M1197.92 627.238l150.425 770.925 136.533 -71.1355c11.0516,-5.74371 24.6685,-1.44213 30.4122,9.60946 0.21378,0.409843 0.411024,0.82441 0.596457,1.24134l13.2248 25.5981 11.8536 22.9453 0.0496063 -0.0248032c5.72008,11.0728 1.38189,24.6874 -9.69213,30.4087l-0.637796 0.316536 -315.369 164.308 0.00708662 0.0129921c-7.13977,3.71929 -15.352,3.24449 -21.8256,-0.53504l-43.05 -21.215 -16.5189 -8.14016c-4.6937,-1.96654 -8.75316,-5.5252 -11.2831,-10.3937 -5.74489,-11.0516 -1.44331,-24.6685 9.60828,-30.4134l172.873 -90.0674 -0.174803 -0.895276 -1.80827 0.895276 -151.97 -778.848 1.77165 -0.668504c-84.2257,-115.289 -206.116,-143.552 -314.478,-128.241 -44.7933,6.32953 -87.2871,20.0469 -123.94,38.1343 -36.0981,17.8134 -66.2658,39.7335 -87.0461,62.8241 -24.5587,27.2858 -35.2181,55.2815 -24.5988,77.478 10.787,22.5437 33.7831,49.7493 46.8296,65.1863 4.76693,5.63859 20.7024,25.9949 33.4819,43.4433l26.1981 -0.233858 23.0091 -20.4768 0.129921 -0.114567 18.1252 -0.161811 0 -18.8835c0,-2.31024 1.88858,-4.19882 4.2,-4.19882l41.7437 0c2.15551,0 3.91772,1.76339 3.91772,3.9189l0 18.7193 24.9732 -0.223229c78.9733,-0.702756 149.651,41.5796 202.58,94.5095 59.028,59.028 95.6682,140.469 95.6682,230.068l0 61.4079c9.3189,21.0721 16.904,43.0642 22.5721,65.7934l0 26.2205 22.5662 0c2.32795,0 4.23071,1.90276 4.23071,4.22953l0 110.992c0,2.15551 -1.76339,3.9189 -3.9189,3.9189l-22.878 0 0 67.0855c0,23.8973 -9.75946,45.6059 -25.4823,61.3288 -15.7205,15.7228 -37.4315,25.4823 -61.3288,25.4823l-66.2717 0 -238.127 0c-2.45551,2.87953 -5.02323,5.65867 -7.69725,8.33268 -25.7528,25.7528 -61.33,41.6823 -100.625,41.6823 -39.2965,0 -74.8737,-15.9284 -100.628,-41.6823 -25.7528,-25.7528 -41.6823,-61.3311 -41.6823,-100.626 0,-39.2953 15.9295,-74.8725 41.6835,-100.626 15.8551,-15.8563 35.4355,-27.9886 57.3142,-34.9713l0 -111.965 0 -25.3453 0 -22.5898 0 -25.3441 0 -22.5898 0 -25.3441 0 -86.6198 0 -4.40788 0 -57.2989 0 -99.8434c0,-7.24725 3.41693,-13.6961 8.72599,-17.8252l15.6071 -0.640158c-5.90788,-7.5815 -10.4622,-13.6547 -12.4689,-16.0288 -14.3244,-16.9477 -39.5693,-46.8154 -52.9996,-74.8843 -19.4551,-40.6583 -5.1567,-86.1249 31.6512,-127.022 24.4689,-27.1878 59.3493,-52.6819 100.623,-73.0489 40.7197,-20.0941 87.9284,-35.3339 137.691,-42.365 123.728,-17.4839 263.196,15.4193 359.165,149.3 1.81772,2.13898 3.2563,4.64055 4.18583,7.41733 0.308268,0.923623 0.562205,1.87914 0.753544,2.86299l1.5189 -0.657875z"/>
   </g>
  </g>
  <path class="fil2" d="M1024 -0.0011811c565.539,0 1024,458.462 1024,1024 0,565.539 -458.462,1024 -1024,1024 -565.539,0 -1024,-458.462 -1024,-1024 0,-565.539 458.462,-1024 1024,-1024z"/>
  <path class="fil3" d="M1173.1 1260.56l0 110.992c0,2.15551 -1.76339,3.9189 -3.9189,3.9189l-30.7925 0 0 -119.14 30.4807 0c2.32795,0 4.23071,1.90276 4.23071,4.22953z"/>
  <path class="fil4" d="M1307.21 1431.36c2.38583,12.2197 14.2264,20.1933 26.4461,17.8075 12.2197,-2.38583 20.1921,-14.2264 17.8075,-26.4461l-155.088 -794.825 0.0236221 -0.00354331c-0.767717,-3.93425 -2.51693,-7.42914 -4.93937,-10.2803 -95.9694,-133.88 -235.438,-166.784 -359.165,-149.3 -49.7622,7.03111 -96.9709,22.2709 -137.691,42.365 -41.2737,20.3669 -76.154,45.8611 -100.623,73.0489 -36.8079,40.8969 -51.1063,86.3635 -31.6512,127.022 13.4303,28.0689 38.6752,57.9367 52.9996,74.8843 7.55197,8.9315 51.1701,70.2402 67.2355,67.2319 12.2197,-2.2878 20.2713,-14.0504 17.9835,-26.2689 -1.30866,-7.0004 -42.6296,-60.3449 -50.8382,-70.0548 -13.0465,-15.437 -36.0425,-42.6426 -46.8296,-65.1863 -10.6193,-22.1965 0.0401575,-50.1922 24.5988,-77.478 20.7803,-23.0906 50.9481,-45.0107 87.0461,-62.8241 36.6532,-18.0874 79.1469,-31.8047 123.94,-38.1343 108.41,-15.3189 230.36,12.9768 314.589,128.393l154.155 790.048z"/>
  <path class="fil5" d="M754.853 755.918l41.7437 0c2.15551,0 3.91772,1.76339 3.91772,3.9189l0 30.7925 -49.8615 0 0 -30.5126c0,-2.31024 1.88858,-4.19882 4.2,-4.19882z"/>
  <path class="fil3" d="M977.018 1504.03l63.5162 0c22.904,0 43.7103,-9.35316 58.7776,-24.4229 15.0697,-15.0685 24.424,-35.8748 24.424,-58.7776l0 -317.918c0,-89.5997 -36.6402,-171.04 -95.6682,-230.068 -52.93,-52.93 -123.607,-95.2123 -202.58,-94.5095l-92.9599 0.829134 -23.139 20.5914 -44.6552 0.398032 -52.5437 2.15315c-5.30906,4.12914 -8.72599,10.578 -8.72599,17.8252 0,234.761 0,449.138 0,683.899l373.555 0z"/>
  <path class="fil6" d="M732.397 779.277l-23.0091 20.4768 -44.6552 0.398032 -52.5437 2.15315c-5.30906,4.12914 -8.72599,10.578 -8.72599,17.8252l0 157.142 128.934 0 0 -197.995z"/>
  <path class="fil5" d="M709.395 799.747l-0.00708662 0.00590552 -44.6552 0.398032 -52.5437 2.15315c-5.30906,4.12914 -8.72599,10.578 -8.72599,17.8252l0 161.55 105.932 0 0 -181.932z"/>
  <path class="fil7" d="M993.225 1529.37l66.2717 0c23.8984,0 45.6083,-9.75946 61.3288,-25.4823 15.7228,-15.7228 25.4823,-37.4315 25.4823,-61.3288l0 -212.446c-44.2784,-177.562 -205.56,-310.139 -396.331,-310.139l-146.513 0 0 609.396 389.762 0z"/>
  <path class="fil4" d="M1133.93 1551.55l59.5689 29.3551c6.47363,3.77953 14.6858,4.25433 21.8256,0.53504l-0.00708662 -0.0129921 315.369 -164.308c0.21378,-0.101575 0.426378,-0.206693 0.637796,-0.316536 11.074,-5.72126 15.4122,-19.3358 9.69213,-30.4087l-0.0496063 0.0248032 -25.0784 -48.5433c-0.185433,-0.416929 -0.382677,-0.831497 -0.596457,-1.24134 -5.74371,-11.0516 -19.3606,-15.3532 -30.4122,-9.60946l-352.624 183.718c-11.0516,5.74489 -15.3532,19.3618 -9.60828,30.4134 2.52992,4.86851 6.58938,8.42717 11.2831,10.3937z"/>
  <ellipse class="fil8" cx="646.775" cy="1437.08" rx="114.619" ry="114.62"/>
  <path class="fil4" d="M615.75 1406.05c7.94174,-7.94056 18.9106,-12.8528 31.0252,-12.8528 12.1134,0 23.0823,4.91221 31.024,12.8528 7.94056,7.94056 12.8528,18.9095 12.8528,31.024 0,12.1146 -4.91221,23.0847 -12.8528,31.024 -7.94174,7.94056 -18.9106,12.8528 -31.024,12.8528 -12.1146,0 -23.0835,-4.91221 -31.0252,-12.8528 -7.94056,-7.94056 -12.8528,-18.9106 -12.8528,-31.024 0,-12.1134 4.91221,-23.0835 12.8528,-31.024z"/>
  <path class="fil9" d="M646.776 1362.99c-20.4614,0 -38.9847,8.29253 -52.3902,21.6992 -13.4055,13.4067 -21.6992,31.9288 -21.6992,52.389 0,20.4603 8.29371,38.9847 21.698,52.3902 13.4067,13.4055 31.9299,21.698 52.3914,21.698 20.4603,0 38.9835,-8.29253 52.389,-21.698 13.4055,-13.4055 21.6992,-31.9299 21.6992,-52.3902 0,-20.4603 -8.29371,-38.9823 -21.6992,-52.389 -13.4055,-13.4067 -31.9288,-21.6992 -52.389,-21.6992zm-100.626 -26.5382c25.7528,-25.754 61.3311,-41.6835 100.626,-41.6835 39.2941,0 74.8725,15.9295 100.625,41.6835 25.754,25.754 41.6835,61.3311 41.6835,100.626 0,39.2953 -15.9295,74.8725 -41.6835,100.626 -25.7516,25.7528 -61.3311,41.6823 -100.625,41.6823 -39.2953,0 -74.8737,-15.9295 -100.628,-41.6823 -25.7528,-25.754 -41.6823,-61.3311 -41.6823,-100.626 0,-39.2953 15.9295,-74.8725 41.6835,-100.626z"/>
  <path class="fil10" d="M1150.44 1559.69l378.664 -196.217 -13.2248 -25.5981c-0.185433,-0.416929 -0.382677,-0.831497 -0.596457,-1.24134 -5.74371,-11.0516 -19.3606,-15.3532 -30.4122,-9.60946l-138.051 71.9256 -41.7 21.7252 -172.873 90.0674c-11.0516,5.74489 -15.3532,19.3618 -9.60828,30.4134 2.52992,4.86851 6.58938,8.42717 11.2831,10.3937l16.5189 8.14016z"/>
  <path class="fil3" d="M603.463 1068.3l174.656 0c6.97087,0 12.6732,5.70237 12.6732,12.6721l0 0c0,6.96969 -5.70237,12.6721 -12.6732,12.6721l-174.656 0 0 -25.3441z"/>
  <path class="fil3" d="M603.463 1116.23l217.632 0c6.96969,0 12.6721,5.70237 12.6721,12.6721l0 0.0011811c0,6.96851 -5.70237,12.6709 -12.6721,12.6709l-217.632 0 0 -25.3441z"/>
  <path class="fil3" d="M603.463 1164.17l257.302 0c6.96969,0 12.6709,5.70237 12.6709,12.6721l0 0.0011811c0,6.96969 -5.70237,12.6721 -12.6709,12.6721l-257.302 0 0 -25.3453z"/>
  <path class="fil11" d="M1195.64 625.033l-44.4733 16.7977 151.97 778.848 45.2256 -22.3866 -150.45 -771.054 -1.5189 0.657875c-0.191339,-0.983859 -0.445276,-1.93937 -0.753544,-2.86299z"/>
 </g>
</svg>
