<?xml version="1.0" encoding="UTF-8"?>
<!DOCTYPE svg PUBLIC "-//W3C//DTD SVG 1.1//EN" "http://www.w3.org/Graphics/SVG/1.1/DTD/svg11.dtd">
<!-- Creator: CorelDRAW -->
<svg xmlns="http://www.w3.org/2000/svg" xml:space="preserve" width="2048px" height="2048px" style="shape-rendering:geometricPrecision; text-rendering:geometricPrecision; image-rendering:optimizeQuality; fill-rule:evenodd; clip-rule:evenodd"
viewBox="0 0 2048 2048"
 xmlns:xlink="http://www.w3.org/1999/xlink">
 <defs>
  <style type="text/css">
   <![CDATA[
    .fil2 {fill:none}
    .fil14 {fill:#00BCD4}
    .fil12 {fill:#00C853}
    .fil21 {fill:#1F292D}
    .fil8 {fill:#263238}
    .fil9 {fill:#364D55}
    .fil3 {fill:#37474F}
    .fil6 {fill:#424242}
    .fil4 {fill:#455A64}
    .fil20 {fill:#8BC34A}
    .fil1 {fill:#8D6E63}
    .fil0 {fill:#A1887F}
    .fil11 {fill:#B0BEC5}
    .fil10 {fill:#CFD8DC}
    .fil18 {fill:#DD2C00}
    .fil13 {fill:#EEFF41}
    .fil17 {fill:#F38A08}
    .fil19 {fill:#FF3D00}
    .fil15 {fill:#FF5722}
    .fil16 {fill:#FF9800}
    .fil5 {fill:#FFD54F}
    .fil7 {fill:#263238;fill-rule:nonzero}
   ]]>
  </style>
   <clipPath id="id0">
    <path d="M1024 -0.0011811c565.539,0 1024,458.462 1024,1024 0,565.539 -458.462,1024 -1024,1024 -565.539,0 -1024,-458.462 -1024,-1024 0,-565.539 458.462,-1024 1024,-1024z"/>
   </clipPath>
 </defs>
 <g id="Layer_x0020_1">
  <metadata id="CorelCorpID_0Corel-Layer"/>
  <path class="fil0" d="M1024 -0.0011811c565.539,0 1024,458.462 1024,1024 0,565.539 -458.462,1024 -1024,1024 -565.539,0 -1024,-458.462 -1024,-1024 0,-565.539 458.462,-1024 1024,-1024z"/>
  <g style="clip-path:url(#id0)">
   <g id="_451271576">
    <g>
     <polygon id="_3326216401" class="fil1" points="1584,487.335 2719.88,1623.22 2719.88,2276.55 1584,1140.67 "/>
     <polygon id="_332621760" class="fil1" points="877.166,470.835 2013.05,1606.72 2014.55,1608.37 2015.9,1610.17 2017.07,1612.09 2018.05,1614.13 2018.83,1616.28 2019.41,1618.51 2019.76,1620.83 2019.88,1623.22 884.001,487.335 883.881,484.949 883.528,482.632 882.953,480.396 882.167,478.252 881.185,476.213 880.016,474.289 878.672,472.492 "/>
     <polygon id="_332621088" class="fil1" points="884.001,487.335 2019.88,1623.22 2019.88,2276.55 884.001,1140.67 "/>
     <polygon id="_332621472" class="fil1" points="1187.33,1164 2323.21,2299.88 2320.83,2299.76 2318.51,2299.41 2316.28,2298.83 2314.13,2298.05 2312.09,2297.07 2310.17,2295.9 2308.37,2294.55 2306.71,2293.05 1170.83,1157.17 1172.49,1158.67 1174.29,1160.01 1176.21,1161.18 1178.25,1162.17 1180.39,1162.95 1182.63,1163.53 1184.95,1163.88 "/>
     <polygon id="_332622432" class="fil1" points="1578.67,472.492 2714.55,1608.37 2715.9,1610.17 2717.07,1612.09 2718.05,1614.13 2718.83,1616.28 2719.41,1618.51 2719.76,1620.83 2719.88,1623.22 1584,487.335 1583.88,484.949 1583.53,482.632 1582.95,480.396 1582.17,478.252 1581.18,476.213 1580.01,474.289 "/>
     <polygon id="_332622192" class="fil1" points="1560.67,1164 2696.55,2299.88 2323.21,2299.88 1187.33,1164 "/>
     <polygon id="_332622000" class="fil1" points="884.001,1140.67 2019.88,2276.55 2019.76,2278.93 2019.41,2281.25 2018.83,2283.49 2018.05,2285.63 2017.07,2287.67 2015.9,2289.59 2014.55,2291.39 2013.05,2293.05 2011.39,2294.55 2009.59,2295.9 2007.67,2297.07 2005.63,2298.05 2003.49,2298.83 2001.25,2299.41 1998.93,2299.76 1996.55,2299.88 860.668,1164 863.053,1163.88 865.37,1163.53 867.605,1162.95 869.75,1162.17 871.789,1161.18 873.713,1160.01 875.509,1158.67 877.166,1157.17 878.672,1155.51 880.016,1153.71 881.185,1151.79 882.167,1149.75 882.953,1147.6 883.528,1145.37 883.881,1143.05 "/>
     <polygon id="_332622096" class="fil1" points="860.668,1164 1996.55,2299.88 1623.22,2299.88 487.334,1164 "/>
     <polygon id="_332622456" class="fil1" points="487.334,1164 1623.22,2299.88 1620.83,2299.76 1618.51,2299.41 1616.28,2298.83 1614.13,2298.05 1612.09,2297.07 1610.17,2295.9 1608.37,2294.55 472.491,1158.67 474.287,1160.01 476.211,1161.18 478.251,1162.17 480.395,1162.95 482.631,1163.53 484.948,1163.88 "/>
     <polygon id="_332621952" class="fil1" points="1584,1140.67 2719.88,2276.55 2719.76,2278.93 2719.41,2281.25 2718.83,2283.49 2718.05,2285.63 2717.07,2287.67 2715.9,2289.59 2714.55,2291.39 2713.05,2293.05 2711.39,2294.55 2709.59,2295.9 2707.67,2297.07 2705.63,2298.05 2703.49,2298.83 2701.25,2299.41 2698.93,2299.76 2696.55,2299.88 1560.67,1164 1563.05,1163.88 1565.37,1163.53 1567.61,1162.95 1569.75,1162.17 1571.79,1161.18 1573.71,1160.01 1575.51,1158.67 1577.17,1157.17 1578.67,1155.51 1580.01,1153.71 1581.18,1151.79 1582.17,1149.75 1582.95,1147.6 1583.53,1145.37 1583.88,1143.05 "/>
     <polygon id="_332621928" class="fil1" points="1577.16,1217.5 2713.05,2353.38 2714.55,2355.04 2715.9,2356.83 2717.06,2358.76 2718.05,2360.8 2718.83,2362.94 2719.41,2365.18 2719.76,2367.5 2719.88,2369.88 1584,1234 1583.88,1231.61 1583.53,1229.3 1582.95,1227.06 1582.17,1224.92 1581.18,1222.88 1580.01,1220.95 1578.67,1219.16 "/>
     <polygon id="_332622120" class="fil1" points="1584,1234 2719.88,2369.88 2719.88,2670.07 1584,1534.19 "/>
     <polygon id="_332622264" class="fil1" points="1584,1534.19 2719.88,2670.07 2719.88,2696.55 1584,1560.66 "/>
     <polygon id="_332622360" class="fil1" points="1584,1560.66 2719.88,2696.55 2719.76,2698.93 2719.41,2701.25 2718.83,2703.49 2718.05,2705.63 2717.06,2707.67 2715.9,2709.59 2714.55,2711.39 2713.05,2713.05 2711.39,2714.55 2709.59,2715.9 2707.67,2717.07 2705.63,2718.05 2703.49,2718.83 2701.25,2719.41 2698.93,2719.76 2696.55,2719.88 1560.67,1584 1563.05,1583.88 1565.37,1583.53 1567.6,1582.95 1569.75,1582.16 1571.79,1581.18 1573.71,1580.01 1575.51,1578.67 1577.16,1577.16 1578.67,1575.51 1580.01,1573.71 1581.18,1571.79 1582.17,1569.75 1582.95,1567.6 1583.53,1565.37 1583.88,1563.05 "/>
     <polygon id="_332622480" class="fil1" points="1560.67,1584 2696.55,2719.88 1623.22,2719.88 487.334,1584 "/>
     <polygon id="_332623056" class="fil1" points="487.334,1584 1623.22,2719.88 1620.83,2719.76 1618.51,2719.41 1616.28,2718.83 1614.13,2718.05 1612.09,2717.07 1610.17,2715.9 1608.37,2714.55 472.491,1578.67 474.287,1580.01 476.211,1581.18 478.251,1582.16 480.395,1582.95 482.631,1583.53 484.948,1583.88 "/>
    </g>
    <path id="_451271552" class="fil1" d="M1584 487.335l0 653.331c0,12.887 -10.4469,23.3339 -23.3339,23.3339l-373.334 0c-12.8858,0 -23.3339,-10.4469 -23.3339,-23.3339l0 -653.331c0,-12.887 10.448,-23.3339 23.3339,-23.3339l373.334 0c12.887,0 23.3339,10.4469 23.3339,23.3339zm-699.999 0l0 653.331c0,12.887 -10.448,23.3339 -23.3339,23.3339l-373.334 0c-12.887,0 -23.3339,-10.4469 -23.3339,-23.3339l0 -653.331c0,-12.887 10.4469,-23.3339 23.3339,-23.3339l373.334 0c12.8858,0 23.3339,10.4469 23.3339,23.3339zm-396.668 723.33l1073.33 0c12.8858,0 23.3339,10.4469 23.3339,23.3339l0 300.189 0 26.4768c0,12.887 -10.448,23.3339 -23.3339,23.3339l-1073.33 0c-12.887,0 -23.3339,-10.4469 -23.3339,-23.3339l0 -26.4768 0 -300.189c0,-12.887 10.4469,-23.3339 23.3339,-23.3339z"/>
   </g>
  </g>
  <path class="fil2" d="M1024 -0.0011811c565.539,0 1024,458.462 1024,1024 0,565.539 -458.462,1024 -1024,1024 -565.539,0 -1024,-458.462 -1024,-1024 0,-565.539 458.462,-1024 1024,-1024z"/>
  <path class="fil3" d="M1187.33 464.001l373.334 0c12.887,0 23.3339,10.4469 23.3339,23.3339l0 653.331c0,12.887 -10.4469,23.3339 -23.3339,23.3339l-373.334 0c-12.8858,0 -23.3339,-10.4469 -23.3339,-23.3339l0 -653.331c0,-12.887 10.448,-23.3339 23.3339,-23.3339z"/>
  <path class="fil4" d="M1187.33 487.334c-0.00944883,0 -0.0188977,0 0,0.0011811l0 653.332 373.335 -0.0011811 -0.0011811 -653.332 -373.334 0z"/>
  <path class="fil5" d="M1275.01 1025.57c-25.3358,-25.3358 -41.0067,-60.3367 -41.0067,-98.993 0,-38.6575 15.6709,-73.6583 41.0067,-98.9942 25.337,-25.3358 60.3367,-41.0067 98.9942,-41.0067 38.6563,0 73.6571,15.6709 98.9942,41.0067 25.3347,25.3358 41.0067,60.3367 41.0067,98.9942 0,38.6563 -15.6721,73.6571 -41.0067,98.993 -25.337,25.337 -60.3378,41.0067 -98.9942,41.0067 -38.6575,0 -73.6571,-15.6697 -98.9942,-41.0067z"/>
  <path class="fil6" d="M1320.17 926.577c0,14.8642 6.02363,28.3217 15.763,38.0611 9.74056,9.73938 23.1969,15.7642 38.0622,15.7642 14.8642,0 28.3217,-6.02481 38.0611,-15.7642 9.73938,-9.73938 15.7642,-23.1969 15.7642,-38.0611 0,-14.8654 -6.02481,-28.3229 -15.7642,-38.0622 -9.73938,-9.73938 -23.1969,-15.763 -38.0611,-15.763 -14.8654,0 -28.3217,6.02363 -38.0622,15.763 -9.73938,9.73938 -15.763,23.1969 -15.763,38.0622z"/>
  <path class="fil5" d="M1317.36 707.304c-14.4945,-14.4957 -23.4603,-34.5201 -23.4603,-56.6363 0,-22.1173 8.96575,-42.1418 23.4603,-56.6363 14.4957,-14.4957 34.5201,-23.4614 56.6374,-23.4614 22.1162,0 42.1406,8.96575 56.6363,23.4614 14.4945,14.4945 23.4614,34.5189 23.4614,56.6363 0,22.1162 -8.96694,42.1406 -23.4614,56.6363 -14.4957,14.4957 -34.5201,23.4614 -56.6363,23.4614 -22.1173,0 -42.1418,-8.96575 -56.6374,-23.4614z"/>
  <path class="fil7" d="M1260.9 1025.63c-10.7185,-12.2386 -19.4988,-26.2642 -25.8461,-41.589 -7.34764,-17.739 -11.4036,-37.1528 -11.4036,-57.4654 0,-20.3126 4.05591,-39.7276 11.4036,-57.4666 6.21497,-15.0036 14.7602,-28.7634 25.1764,-40.8189 -7.6689,-3.44292 -13.0122,-11.1473 -13.0122,-20.0988 0,-12.1618 9.85985,-22.0217 22.0217,-22.0217 9.90001,0 18.274,6.53386 21.0461,15.5221 8.20276,-5.50158 16.9878,-10.2236 26.2453,-14.0587 17.739,-7.34764 37.1528,-11.4047 57.4654,-11.4047 20.3126,0 39.7264,4.05709 57.4654,11.4047 9.64016,3.99331 18.7677,8.9504 27.2563,14.7437 2.55118,-9.33898 11.0953,-16.2071 21.2445,-16.2071 12.1606,0 22.0205,9.85985 22.0205,22.0217 0,9.29292 -5.75788,17.2417 -13.8992,20.4744 10.2685,11.9658 18.704,25.5945 24.8551,40.4457 7.34764,17.7366 11.4036,37.1492 11.4036,57.4642 0,20.3138 -4.05591,39.7264 -11.4036,57.4642 -6.28701,15.1807 -14.9646,29.0858 -25.5449,41.2429 8.50512,3.04843 14.589,11.1815 14.589,20.7331 0,12.1618 -9.85985,22.0217 -22.0205,22.0217 -10.4728,0 -19.239,-7.31221 -21.4713,-17.1095 -8.42717,5.72835 -17.4756,10.6311 -27.0295,14.5902 -17.739,7.34764 -37.1528,11.4036 -57.4654,11.4036 -20.3126,0 -39.7264,-4.05591 -57.4654,-11.4036 -9.16418,-3.79607 -17.8618,-8.46024 -25.9925,-13.891 -2.4815,9.4441 -11.0764,16.4102 -21.2988,16.4102 -12.1618,0 -22.0217,-9.85985 -22.0217,-22.0217 0,-9.20906 5.65512,-17.1 13.6819,-20.3858zm-12.1217 -47.2276c6.84331,16.5248 16.9122,31.4362 29.4331,43.9571 12.5209,12.5221 27.4335,22.5898 43.9583,29.4343 15.9295,6.59882 33.4335,10.2425 51.8268,10.2425 18.3933,0 35.8973,-3.6437 51.8268,-10.2425 16.5248,-6.84449 31.4374,-16.9122 43.9583,-29.4343 12.5197,-12.5209 22.5898,-27.4335 29.4331,-43.9595 6.60001,-15.9284 10.2425,-33.4311 10.2425,-51.8244 0,-18.3945 -3.64252,-35.8961 -10.2425,-51.8256 -6.84331,-16.5248 -16.9134,-31.4386 -29.4331,-43.9595 -12.5209,-12.5209 -27.4335,-22.5898 -43.9583,-29.4343 -15.9295,-6.59882 -33.4335,-10.2413 -51.8268,-10.2413 -18.3933,0 -35.8973,3.64252 -51.8268,10.2413 -16.5248,6.84449 -31.4374,16.9134 -43.9583,29.4343 -12.5209,12.5209 -22.5898,27.4323 -29.4331,43.9583 -6.60001,15.9284 -10.2425,33.4323 -10.2425,51.8268 0,18.3933 3.64252,35.8973 10.2425,51.8268z"/>
  <path class="fil7" d="M1310.6 706.188c-6.00827,-6.85985 -10.9287,-14.7213 -14.4874,-23.3103 -4.11851,-9.94371 -6.39213,-20.8252 -6.39213,-32.2099 0,-11.3858 2.27362,-22.2673 6.39213,-32.2099 3.48425,-8.40946 8.27363,-16.1221 14.1118,-22.8792 -4.29922,-1.92992 -7.29331,-6.24804 -7.29331,-11.2654 0,-6.81615 5.52638,-12.3425 12.3437,-12.3425 5.54882,0 10.2425,3.66142 11.7957,8.70001 4.59804,-3.08504 9.52205,-5.73071 14.7106,-7.88032 9.94253,-4.11851 20.824,-6.39213 32.2099,-6.39213 11.3847,0 22.2662,2.27362 32.2087,6.39213 5.40355,2.23819 10.5189,5.01615 15.2776,8.26418 1.42913,-5.23465 6.21851,-9.08387 11.9079,-9.08387 6.81615,0 12.3425,5.52638 12.3425,12.3425 0,5.20867 -3.22796,9.66379 -7.79056,11.4756 5.75552,6.70749 10.4835,14.3457 13.9311,22.6701 4.11851,9.94135 6.39213,20.8229 6.39213,32.2087 0,11.3858 -2.27362,22.2662 -6.39213,32.2087 -3.52441,8.50867 -8.38701,16.3028 -14.3185,23.1166 4.76693,1.70906 8.17796,6.26693 8.17796,11.6221 0,6.81615 -5.52638,12.3425 -12.3425,12.3425 -5.87008,0 -10.7835,-4.09843 -12.0354,-9.58938 -4.72323,3.21024 -9.79489,5.95867 -15.15,8.17678 -9.94253,4.11851 -20.824,6.39213 -32.2087,6.39213 -11.3858,0 -22.2673,-2.27362 -32.2099,-6.39213 -5.13662,-2.12717 -10.0122,-4.74213 -14.5689,-7.78583 -1.39016,5.2937 -6.20788,9.19843 -11.9374,9.19843 -6.81733,0 -12.3437,-5.52638 -12.3437,-12.3425 0,-5.1626 3.1689,-9.58465 7.6689,-11.4272zm-6.79489 -26.4709c3.83622,9.26221 9.47953,17.6197 16.4977,24.6378 7.01812,7.01812 15.3768,12.6626 24.639,16.4977 8.92796,3.69922 18.7394,5.74134 29.0492,5.74134 10.3087,0 20.1201,-2.04213 29.0481,-5.74134 9.26339,-3.83504 17.6209,-9.47953 24.639,-16.4977 7.01693,-7.01812 12.6614,-15.3768 16.4977,-24.639 3.69922,-8.92796 5.74134,-18.7382 5.74134,-29.0481 0,-10.3099 -2.04213,-20.1201 -5.74134,-29.0481 -3.83622,-9.26221 -9.48072,-17.6221 -16.4977,-24.6402 -7.01812,-7.01693 -15.3756,-12.6614 -24.639,-16.4965 -8.92796,-3.69922 -18.7394,-5.74134 -29.0481,-5.74134 -10.3099,0 -20.1213,2.04213 -29.0492,5.74134 -9.26221,3.83504 -17.6209,9.47953 -24.639,16.4965 -7.01812,7.01812 -12.6614,15.3768 -16.4977,24.639 -3.69922,8.92796 -5.74016,18.7394 -5.74016,29.0492 0,10.3099 2.04095,20.1201 5.74016,29.0492z"/>
  <path class="fil6" d="M1343.2 650.667c0,8.50394 3.44646,16.2036 9.0189,21.776 5.57245,5.57245 13.2709,9.0189 21.776,9.0189 8.50394,0 16.2036,-3.44646 21.776,-9.0189 5.57126,-5.57245 9.01772,-13.2721 9.01772,-21.776 0,-8.50512 -3.44646,-16.2036 -9.01772,-21.776 -5.57245,-5.57245 -13.2721,-9.0189 -21.776,-9.0189 -8.50512,0 -16.2036,3.44646 -21.776,9.0189 -5.57245,5.57245 -9.0189,13.2709 -9.0189,21.776z"/>
  <path class="fil5" d="M1358.1 926.577c0,4.39134 1.77992,8.36812 4.65827,11.2453 2.87717,2.87717 6.85276,4.65709 11.2453,4.65709 4.39134,0 8.36812,-1.77992 11.2453,-4.65709 2.87835,-2.87717 4.65827,-6.85394 4.65827,-11.2453 0,-4.39252 -1.77992,-8.36812 -4.65827,-11.2465 -2.87717,-2.87717 -6.85394,-4.65709 -11.2453,-4.65709 -4.39252,0 -8.36812,1.77992 -11.2453,4.65709 -2.87835,2.87835 -4.65827,6.85394 -4.65827,11.2465z"/>
  <circle class="fil8" cx="1205" cy="505.92" r="8.25996"/>
  <circle class="fil8" cx="1205" cy="1118.42" r="8.25996"/>
  <circle class="fil8" cx="1543.63" cy="505.92" r="8.25996"/>
  <circle class="fil8" cx="1543.63" cy="1118.42" r="8.25996"/>
  <path class="fil4" d="M487.334 1210.67l1073.33 0c12.8858,0 23.3339,10.4469 23.3339,23.3339l0 326.666c0,12.887 -10.448,23.3339 -23.3339,23.3339l-1073.33 0c-12.887,0 -23.3339,-10.4469 -23.3339,-23.3339l0 -326.666c0,-12.887 10.4469,-23.3339 23.3339,-23.3339z"/>
  <path class="fil9" d="M1584 1534.19l0 26.4768c0,12.887 -10.448,23.3339 -23.3339,23.3339l-1073.33 0c-12.887,0 -23.3339,-10.4469 -23.3339,-23.3339l0 -26.4768 1120 0z"/>
  <path class="fil10" d="M1211.37 1306.51c13.213,0 25.1752,5.3563 33.8351,14.0162 8.65985,8.65985 14.0162,20.6232 14.0162,33.8351 0,13.2118 -5.3563,25.1752 -14.0162,33.8339 -8.65985,8.66103 -20.6221,14.0173 -33.8351,14.0173 -13.2118,0 -25.1752,-5.3563 -33.8339,-14.0173 -8.65985,-8.65867 -14.0173,-20.6221 -14.0173,-33.8339 0,-13.2118 5.35748,-25.1752 14.0173,-33.8351 8.65867,-8.65985 20.6221,-14.0162 33.8339,-14.0162z"/>
  <path class="fil11" d="M1226.29 1339.44c-3.81851,-3.81851 -9.0945,-6.18071 -14.9232,-6.18071 -5.82874,0 -11.1047,2.36221 -14.9221,6.18071 -3.81851,3.81733 -6.17953,9.09331 -6.17953,14.9221 0,5.82874 2.36103,11.1047 6.17953,14.9221 3.81733,3.81851 9.09331,6.17953 14.9221,6.17953 5.82874,0 11.1047,-2.36103 14.9232,-6.17953 3.81733,-3.81733 6.17953,-9.09331 6.17953,-14.9221 0,-5.82874 -2.36221,-11.1047 -6.17953,-14.9221z"/>
  <path class="fil10" d="M1391.21 1305.64c25.3181,0 48.241,10.2638 64.8343,26.8571 16.5945,16.5933 26.8583,39.5174 26.8583,64.8343 0,25.3181 -10.2638,48.2422 -26.8583,64.8355 -16.5933,16.5933 -39.5162,26.8571 -64.8343,26.8571 -25.3169,0 -48.241,-10.2638 -64.8355,-26.8571 -16.5933,-16.5933 -26.8571,-39.5174 -26.8571,-64.8355 0,-25.3169 10.2638,-48.241 26.8571,-64.8343 16.5945,-16.5933 39.5185,-26.8571 64.8355,-26.8571z"/>
  <path class="fil11" d="M1429.91 1358.63c-9.90237,-9.90237 -23.5843,-16.0276 -38.6988,-16.0276 -15.1146,0 -28.7977,6.1252 -38.7,16.0276 -9.90237,9.90237 -16.0276,23.5855 -16.0276,38.6988 0,15.1158 6.1252,28.7977 16.0276,38.7 9.90237,9.90237 23.5855,16.0276 38.7,16.0276 15.1146,0 28.7965,-6.1252 38.6988,-16.0276 9.90237,-9.90237 16.0276,-23.5843 16.0276,-38.7 0,-15.1134 -6.1252,-28.7965 -16.0276,-38.6988z"/>
  <path class="fil8" d="M577.806 1461.86c-7.02048,0 -12.7122,5.69174 -12.7122,12.7122 0,7.02048 5.69174,12.7122 12.7122,12.7122l342.232 0c7.02048,0 12.7122,-5.69174 12.7122,-12.7122 0,-7.02048 -5.69174,-12.7122 -12.7122,-12.7122l-342.232 0z"/>
  <path class="fil8" d="M577.806 1358.29c-7.02048,0 -12.7122,5.69174 -12.7122,12.7134 0,7.02048 5.69174,12.7122 12.7122,12.7122l342.232 0c7.02048,0 12.7122,-5.69174 12.7122,-12.7122 0,-7.02166 -5.69174,-12.7134 -12.7122,-12.7134l-342.232 0z"/>
  <path class="fil8" d="M577.806 1410.08c-7.02048,0 -12.7122,5.69174 -12.7122,12.7122 0,7.02048 5.69174,12.7122 12.7122,12.7122l342.232 0c7.02048,0 12.7122,-5.69174 12.7122,-12.7122 0,-7.02048 -5.69174,-12.7122 -12.7122,-12.7122l-342.232 0z"/>
  <path class="fil8" d="M577.806 1306.51c-7.02048,0 -12.7122,5.69174 -12.7122,12.7122 0,7.02048 5.69174,12.7122 12.7122,12.7122l342.232 0c7.02048,0 12.7122,-5.69174 12.7122,-12.7122 0,-7.02048 -5.69174,-12.7122 -12.7122,-12.7122l-342.232 0z"/>
  <rect class="fil8" x="967.501" y="1306.51" width="70.6366" height="180.773"/>
  <rect class="fil12" x="981.551" y="1328.35" width="42.5348" height="20.888"/>
  <rect class="fil13" x="981.551" y="1367.09" width="42.5348" height="20.888"/>
  <rect class="fil14" x="981.551" y="1405.82" width="42.5348" height="20.888"/>
  <rect class="fil15" x="981.551" y="1444.56" width="42.5348" height="20.888"/>
  <rect class="fil8" x="1069.19" y="1471.33" width="194.257" height="15.9515"/>
  <polygon class="fil16" points="1172.78,1468.87 1187.78,1471.24 1200.31,1471.24 1215.31,1468.87 1215.31,1489.75 1200.31,1487.38 1187.78,1487.38 1172.78,1489.75 "/>
  <polygon class="fil17" points="1172.78,1468.87 1187.2,1471.15 1187.2,1487.47 1172.78,1489.75 "/>
  <polygon class="fil17" points="1200.21,1471.24 1200.31,1471.24 1215.31,1468.87 1215.31,1489.75 1200.31,1487.38 1200.21,1487.38 "/>
  <rect class="fil8" x="1069.19" y="1425" width="194.257" height="15.9515"/>
  <polygon class="fil16" points="1120.37,1422.53 1135.37,1424.91 1147.9,1424.91 1162.9,1422.53 1162.9,1443.42 1147.9,1441.05 1135.37,1441.05 1120.37,1443.42 "/>
  <polygon class="fil17" points="1120.37,1422.53 1134.79,1424.81 1134.79,1441.14 1120.37,1443.42 "/>
  <polygon class="fil17" points="1147.8,1424.91 1147.9,1424.91 1162.9,1422.53 1162.9,1443.42 1147.9,1441.05 1147.8,1441.05 "/>
  <circle class="fil18" cx="1373.74" cy="1356.31" r="5.49854"/>
  <circle class="fil18" cx="1228.1" cy="1354.77" r="3.35359"/>
  <rect class="fil8" x="1069.19" y="1306.51" width="76.9044" height="31.9004"/>
  <rect class="fil11" x="1082.01" y="1317.43" width="51.272" height="10.0672"/>
  <rect class="fil8" x="1069.19" y="1358.64" width="76.9044" height="31.9004"/>
  <circle class="fil19" cx="1090.34" cy="1374.59" r="9.39936"/>
  <circle class="fil20" cx="1124.95" cy="1374.59" r="9.39936"/>
  <circle class="fil21" cx="1090.34" cy="1374.59" r="4.9124"/>
  <circle class="fil21" cx="1124.95" cy="1374.59" r="4.9124"/>
  <path class="fil3" d="M487.334 464.001l373.334 0c12.8858,0 23.3339,10.4469 23.3339,23.3339l0 653.331c0,12.887 -10.448,23.3339 -23.3339,23.3339l-373.334 0c-12.887,0 -23.3339,-10.4469 -23.3339,-23.3339l0 -653.331c0,-12.887 10.4469,-23.3339 23.3339,-23.3339z"/>
  <path class="fil4" d="M487.334 487.334c-0.00944883,0 -0.0200788,0 -0.0011811,0.0011811l0.0011811 653.332 373.334 -0.0011811 0 -653.332 -373.334 0z"/>
  <path class="fil5" d="M575.006 1025.57c-25.3358,-25.3358 -41.0067,-60.3367 -41.0067,-98.993 0,-38.6575 15.6709,-73.6583 41.0067,-98.9942 25.337,-25.3358 60.3367,-41.0067 98.9942,-41.0067 38.6563,0 73.6571,15.6709 98.9942,41.0067 25.3347,25.3358 41.0067,60.3367 41.0067,98.9942 0,38.6563 -15.6721,73.6571 -41.0067,98.993 -25.337,25.337 -60.3378,41.0067 -98.9942,41.0067 -38.6575,0 -73.6571,-15.6697 -98.9942,-41.0067z"/>
  <path class="fil6" d="M620.175 926.577c0,14.8642 6.02363,28.3217 15.7642,38.0611 9.73938,9.73938 23.1957,15.7642 38.0611,15.7642 14.8654,0 28.3217,-6.02481 38.0622,-15.7642 9.7382,-9.73938 15.763,-23.1969 15.763,-38.0611 0,-14.8654 -6.02481,-28.3229 -15.763,-38.0622 -9.74056,-9.73938 -23.1969,-15.763 -38.0622,-15.763 -14.8654,0 -28.3217,6.02363 -38.0611,15.763 -9.74056,9.73938 -15.7642,23.1969 -15.7642,38.0622z"/>
  <path class="fil5" d="M617.358 707.304c-14.4945,-14.4957 -23.4603,-34.5201 -23.4603,-56.6363 0,-22.1173 8.96575,-42.1418 23.4603,-56.6363 14.4957,-14.4957 34.5201,-23.4614 56.6374,-23.4614 22.1162,0 42.1406,8.96575 56.6363,23.4614 14.4945,14.4945 23.4614,34.5189 23.4614,56.6363 0,22.1162 -8.96694,42.1406 -23.4614,56.6363 -14.4957,14.4957 -34.5201,23.4614 -56.6363,23.4614 -22.1173,0 -42.1418,-8.96575 -56.6374,-23.4614z"/>
  <path class="fil7" d="M560.904 1025.63c-10.7185,-12.2386 -19.4988,-26.2642 -25.8461,-41.589 -7.34764,-17.739 -11.4036,-37.1528 -11.4036,-57.4654 0,-20.3126 4.05591,-39.7276 11.4036,-57.4666 6.21497,-15.0036 14.7602,-28.7634 25.1764,-40.8189 -7.6689,-3.44292 -13.0122,-11.1473 -13.0122,-20.0988 0,-12.1618 9.85985,-22.0217 22.0217,-22.0217 9.90001,0 18.274,6.53386 21.0461,15.5221 8.20276,-5.50158 16.9878,-10.2236 26.2453,-14.0587 17.739,-7.34764 37.1528,-11.4047 57.4654,-11.4047 20.3126,0 39.7264,4.05709 57.4654,11.4047 9.64016,3.99331 18.7677,8.9504 27.2563,14.7437 2.55118,-9.33898 11.0953,-16.2071 21.2445,-16.2071 12.1606,0 22.0205,9.85985 22.0205,22.0217 0,9.29292 -5.75788,17.2417 -13.8992,20.4744 10.2685,11.9658 18.704,25.5945 24.8551,40.4457 7.34764,17.7366 11.4036,37.1492 11.4036,57.4642 0,20.3138 -4.05591,39.7264 -11.4036,57.4642 -6.28701,15.1807 -14.9646,29.0858 -25.5449,41.2429 8.50512,3.04843 14.589,11.1815 14.589,20.7331 0,12.1618 -9.85985,22.0217 -22.0205,22.0217 -10.4728,0 -19.239,-7.31221 -21.4713,-17.1095 -8.42599,5.72835 -17.4756,10.6311 -27.0295,14.5902 -17.739,7.34764 -37.1528,11.4036 -57.4654,11.4036 -20.3126,0 -39.7264,-4.05591 -57.4654,-11.4036 -9.16418,-3.79607 -17.8618,-8.46024 -25.9925,-13.891 -2.4815,9.4441 -11.0764,16.4102 -21.2988,16.4102 -12.1618,0 -22.0217,-9.85985 -22.0217,-22.0217 0,-9.20906 5.65512,-17.1 13.6819,-20.3858zm-12.1217 -47.2276c6.84331,16.5248 16.9122,31.4362 29.4331,43.9571 12.5209,12.5221 27.4335,22.5898 43.9583,29.4343 15.9295,6.59882 33.4335,10.2425 51.8268,10.2425 18.3933,0 35.8973,-3.6437 51.8268,-10.2425 16.5248,-6.84449 31.4374,-16.9122 43.9583,-29.4343 12.5197,-12.5209 22.5898,-27.4335 29.4331,-43.9595 6.60001,-15.9284 10.2425,-33.4311 10.2425,-51.8244 0,-18.3945 -3.64252,-35.8961 -10.2425,-51.8256 -6.84331,-16.5248 -16.9134,-31.4386 -29.4331,-43.9595 -12.5209,-12.5209 -27.4335,-22.5898 -43.9583,-29.4343 -15.9295,-6.59882 -33.4335,-10.2413 -51.8268,-10.2413 -18.3933,0 -35.8973,3.64252 -51.8268,10.2413 -16.5248,6.84449 -31.4374,16.9134 -43.9583,29.4343 -12.5209,12.5209 -22.5898,27.4323 -29.4331,43.9583 -6.60001,15.9284 -10.2425,33.4323 -10.2425,51.8268 0,18.3933 3.64252,35.8973 10.2425,51.8268z"/>
  <path class="fil7" d="M610.604 706.188c-6.00827,-6.85985 -10.9287,-14.7213 -14.4874,-23.3103 -4.11733,-9.94371 -6.39095,-20.8252 -6.39095,-32.2099 0,-11.3858 2.27362,-22.2673 6.39095,-32.2099 3.48425,-8.40946 8.27363,-16.1221 14.1118,-22.8792 -4.29922,-1.92992 -7.29331,-6.24804 -7.29331,-11.2654 0,-6.81615 5.52638,-12.3425 12.3437,-12.3425 5.54882,0 10.2425,3.66142 11.7957,8.70001 4.59804,-3.08504 9.52205,-5.73071 14.7106,-7.88032 9.94253,-4.11851 20.824,-6.39213 32.2099,-6.39213 11.3847,0 22.2662,2.27362 32.2087,6.39213 5.40355,2.23819 10.5189,5.01615 15.2776,8.26418 1.43032,-5.23465 6.21851,-9.08387 11.9079,-9.08387 6.81615,0 12.3425,5.52638 12.3425,12.3425 0,5.20867 -3.22796,9.66379 -7.79056,11.4756 5.75552,6.70749 10.4835,14.3457 13.9311,22.6701 4.11851,9.94135 6.39213,20.8229 6.39213,32.2087 0,11.3858 -2.27362,22.2662 -6.39213,32.2087 -3.52441,8.50867 -8.38701,16.3028 -14.3173,23.1166 4.76575,1.70906 8.17678,6.26693 8.17678,11.6221 0,6.81615 -5.52638,12.3425 -12.3425,12.3425 -5.87008,0 -10.7835,-4.09843 -12.0354,-9.58938 -4.72323,3.21024 -9.79489,5.95867 -15.15,8.17678 -9.94253,4.11851 -20.824,6.39213 -32.2087,6.39213 -11.3858,0 -22.2673,-2.27362 -32.2099,-6.39213 -5.13662,-2.12717 -10.0122,-4.74213 -14.5689,-7.78583 -1.39016,5.2937 -6.20788,9.19843 -11.9374,9.19843 -6.81733,0 -12.3437,-5.52638 -12.3437,-12.3425 0,-5.1626 3.17008,-9.58465 7.6689,-11.4272zm-6.79489 -26.4709c3.83622,9.26221 9.47953,17.6197 16.4977,24.6378 7.01812,7.01812 15.3768,12.6626 24.639,16.4977 8.92796,3.69922 18.7394,5.74134 29.0492,5.74134 10.3087,0 20.1201,-2.04213 29.0481,-5.74134 9.26339,-3.83504 17.6209,-9.47953 24.639,-16.4977 7.01693,-7.01812 12.6614,-15.3768 16.4977,-24.639 3.69922,-8.92796 5.74134,-18.7382 5.74134,-29.0481 0,-10.3099 -2.04213,-20.1201 -5.74134,-29.0481 -3.83622,-9.26221 -9.48072,-17.6221 -16.4977,-24.6402 -7.01812,-7.01693 -15.3756,-12.6614 -24.639,-16.4965 -8.92796,-3.69922 -18.7394,-5.74134 -29.0481,-5.74134 -10.3099,0 -20.1213,2.04213 -29.0492,5.74134 -9.26221,3.83504 -17.6209,9.47953 -24.639,16.4965 -7.01812,7.01812 -12.6614,15.3768 -16.4977,24.639 -3.69803,8.92796 -5.74016,18.7394 -5.74016,29.0492 0,10.3099 2.04213,20.1201 5.74016,29.0492z"/>
  <path class="fil6" d="M643.2 650.667c0,8.50394 3.44646,16.2036 9.0189,21.776 5.57245,5.57245 13.2709,9.0189 21.776,9.0189 8.50394,0 16.2036,-3.44646 21.776,-9.0189 5.57126,-5.57245 9.01772,-13.2721 9.01772,-21.776 0,-8.50512 -3.44646,-16.2036 -9.01772,-21.776 -5.57245,-5.57245 -13.2721,-9.0189 -21.776,-9.0189 -8.50512,0 -16.2036,3.44646 -21.776,9.0189 -5.57245,5.57245 -9.0189,13.2709 -9.0189,21.776z"/>
  <path class="fil5" d="M658.097 926.577c0,4.39134 1.77992,8.36812 4.65827,11.2453 2.87717,2.87717 6.85276,4.65709 11.2453,4.65709 4.39252,0 8.36812,-1.77992 11.2453,-4.65709 2.87835,-2.87717 4.65827,-6.85394 4.65827,-11.2453 0,-4.39252 -1.77992,-8.36812 -4.65827,-11.2465 -2.87717,-2.87717 -6.85276,-4.65709 -11.2453,-4.65709 -4.39252,0 -8.36812,1.77992 -11.2453,4.65709 -2.87835,2.87835 -4.65827,6.85394 -4.65827,11.2465z"/>
  <circle class="fil8" cx="504.997" cy="505.92" r="8.25996"/>
  <circle class="fil8" cx="504.997" cy="1118.42" r="8.25996"/>
  <circle class="fil8" cx="843.631" cy="505.92" r="8.25996"/>
  <circle class="fil8" cx="843.631" cy="1118.42" r="8.25996"/>
 </g>
</svg>
