<?xml version="1.0" encoding="UTF-8"?>
<!DOCTYPE svg PUBLIC "-//W3C//DTD SVG 1.1//EN" "http://www.w3.org/Graphics/SVG/1.1/DTD/svg11.dtd">
<!-- Creator: CorelDRAW -->
<svg xmlns="http://www.w3.org/2000/svg" xml:space="preserve" width="2048px" height="2048px" style="shape-rendering:geometricPrecision; text-rendering:geometricPrecision; image-rendering:optimizeQuality; fill-rule:evenodd; clip-rule:evenodd"
viewBox="0 0 2048 2048"
 xmlns:xlink="http://www.w3.org/1999/xlink">
 <defs>
  <style type="text/css">
   <![CDATA[
    .fil2 {fill:none}
    .fil1 {fill:#B71C1C}
    .fil3 {fill:#C3C3C3}
    .fil4 {fill:#D6D6D6}
    .fil0 {fill:#E53935}
    .fil5 {fill:#FF9800}
   ]]>
  </style>
   <clipPath id="id0">
    <path d="M1024 -0.0011811c565.539,0 1024,458.462 1024,1024 0,565.539 -458.462,1024 -1024,1024 -565.539,0 -1024,-458.462 -1024,-1024 0,-565.539 458.462,-1024 1024,-1024z"/>
   </clipPath>
 </defs>
 <g id="Layer_x0020_1">
  <metadata id="CorelCorpID_0Corel-Layer"/>
  <path class="fil0" d="M1024 -0.0011811c565.539,0 1024,458.462 1024,1024 0,565.539 -458.462,1024 -1024,1024 -565.539,0 -1024,-458.462 -1024,-1024 0,-565.539 458.462,-1024 1024,-1024z"/>
  <g style="clip-path:url(#id0)">
   <g id="_451246736">
    <g>
     <polygon id="_4533934801" class="fil1" points="1193.92,542.55 2329.8,1678.43 2334.35,1683.85 2338.78,1689.44 2343.09,1695.22 2347.27,1701.18 2351.32,1707.32 2355.24,1713.64 2359.02,1720.14 2362.66,1726.83 2366.15,1733.69 2369.49,1740.74 2372.68,1747.97 2375.71,1755.38 2378.58,1762.97 2381.28,1770.75 2383.82,1778.7 2386.18,1786.84 2388.36,1795.16 2390.37,1803.67 2392.19,1812.35 2393.82,1821.22 1257.94,685.334 1256.31,676.467 1254.49,667.784 1252.48,659.281 1250.3,650.962 1247.94,642.823 1245.4,634.867 1242.7,627.091 1239.83,619.499 1236.8,612.088 1233.61,604.858 1230.27,597.811 1226.78,590.944 1223.14,584.26 1219.36,577.757 1215.44,571.435 1211.39,565.295 1207.21,559.337 1202.9,553.561 1198.47,547.965 "/>
     <polygon id="_453393504" class="fil1" points="1024.07,463.999 2159.96,1599.88 2159.96,1599.98 1024.07,464.094 "/>
     <polygon id="_453364632" class="fil1" points="1394.86,1520.22 2530.75,2656.1 2519.27,2659.65 2507.78,2663.11 2496.3,2666.47 2484.82,2669.75 2473.33,2672.93 2461.84,2676.01 2450.35,2679 2438.86,2681.9 2427.36,2684.7 2415.86,2687.4 2404.36,2690 2392.86,2692.49 2381.36,2694.89 2369.85,2697.19 2358.34,2699.38 2346.83,2701.46 2335.32,2703.44 2323.8,2705.32 2312.29,2707.08 2300.77,2708.74 2289.24,2710.29 2277.72,2711.72 2266.19,2713.04 2254.66,2714.25 2243.13,2715.35 2231.59,2716.33 2220.06,2717.19 2208.52,2717.93 2196.97,2718.56 2185.43,2719.07 2173.88,2719.45 2162.33,2719.72 1026.45,1583.83 1038,1583.57 1049.55,1583.18 1061.09,1582.68 1072.64,1582.05 1084.18,1581.31 1095.71,1580.44 1107.25,1579.46 1118.78,1578.37 1130.31,1577.16 1141.84,1575.84 1153.36,1574.4 1164.89,1572.86 1176.4,1571.2 1187.92,1569.44 1199.44,1567.56 1210.95,1565.58 1222.46,1563.49 1233.97,1561.3 1245.48,1559.01 1256.98,1556.61 1268.48,1554.11 1279.98,1551.51 1291.48,1548.81 1302.98,1546.02 1314.47,1543.12 1325.96,1540.13 1337.45,1537.04 1348.94,1533.86 1360.42,1530.59 1371.9,1527.22 1383.38,1523.77 "/>
     <polygon id="_453364920" class="fil1" points="1026.45,1583.83 2162.33,2719.72 2150.75,2719.86 2139.16,2719.87 2127.57,2719.77 2115.97,2719.53 2104.36,2719.17 2092.76,2718.68 2081.14,2718.06 2069.52,2717.3 2057.9,2716.42 2046.27,2715.4 2034.64,2714.25 2023,2712.97 2011.35,2711.55 1999.7,2709.99 1988.04,2708.29 1976.38,2706.46 1964.72,2704.48 1953.04,2702.36 1941.36,2700.1 1929.68,2697.69 1917.99,2695.15 1906.3,2692.45 1894.59,2689.61 1882.89,2686.62 1871.17,2683.48 1859.46,2680.19 1847.73,2676.75 1836,2673.16 1824.26,2669.41 1812.52,2665.51 1800.77,2661.46 1789.02,2657.24 653.136,1521.36 664.891,1525.57 676.64,1529.63 688.382,1533.53 700.119,1537.28 711.85,1540.87 723.575,1544.31 735.293,1547.6 747.006,1550.74 758.714,1553.73 770.415,1556.57 782.11,1559.26 793.799,1561.81 805.483,1564.22 817.162,1566.48 828.834,1568.6 840.501,1570.57 852.162,1572.41 863.819,1574.11 875.469,1575.66 887.115,1577.09 898.755,1578.37 910.388,1579.52 922.018,1580.54 933.642,1581.42 945.261,1582.17 956.874,1582.79 968.483,1583.29 980.087,1583.65 991.685,1583.88 1003.28,1583.99 1014.87,1583.98 "/>
     <polygon id="_453364944" class="fil1" points="1284.7,685.334 2420.58,1821.22 2530.75,2656.1 1394.86,1520.22 "/>
    </g>
    <path id="_451246520" class="fil1" d="M1131.48 491.723c60.8741,33.587 110.078,98.0694 126.464,193.611l26.7614 0 110.163 834.888c-122.433,38.3032 -245.196,61.4528 -368.413,63.6119 -123.533,2.16496 -247.895,-16.7032 -373.315,-62.4709l110.314 -836.029 26.7603 0c16.3866,-95.5442 65.5902,-160.025 126.462,-193.612 33.4961,-18.4819 70.4871,-27.7229 107.402,-27.7229l0 0.0956694c37.0264,0 74.0209,9.21024 107.401,27.6284z"/>
   </g>
  </g>
  <path class="fil2" d="M1024 -0.0011811c565.539,0 1024,458.462 1024,1024 0,565.539 -458.462,1024 -1024,1024 -565.539,0 -1024,-458.462 -1024,-1024 0,-565.539 458.462,-1024 1024,-1024z"/>
  <path class="fil3" d="M789.722 688.245l468.705 0c-15.8788,-97.1446 -65.4615,-162.595 -126.952,-196.523 -33.3803,-18.4181 -70.3749,-27.6284 -107.401,-27.6284l0 -0.0956694c-36.9154,0 -73.9064,9.24213 -107.402,27.7229 -61.4882,33.9272 -111.071,99.3768 -126.95,196.524zm63.4654 -48.9414l341.773 0c-16.6784,-43.3973 -44.7886,-81.3686 -87.1288,-104.731 -25.6559,-14.1543 -54.463,-21.5374 -83.7579,-21.5374l-5.74489 0c-27.3177,0.911812 -54.0355,8.3067 -78.0142,21.5374 -42.3402,23.361 -70.4493,61.3335 -87.1276,104.731z"/>
  <path class="fil4" d="M1284.7 685.334l110.163 834.886c-122.433,38.3044 -245.196,61.454 -368.413,63.613 -123.533,2.16496 -247.895,-16.7032 -373.315,-62.4709l110.314 -836.029 521.252 0zm-348.803 94.1918l-50.2607 -6.17126 -6.13583 49.9666 24.15 17.1366 26.1118 -10.9654 6.13465 -49.9666zm62.7827 652.045l50.6386 0 0 50.3422 -26.0575 14.0658 -24.5811 -14.0658 0 -50.3422zm0 -81.0225l50.6386 0 0 50.3422 -26.0575 14.0658 -24.5811 -14.0658 0 -50.3422zm0 -81.0213l50.6386 0 0 50.341 -26.0575 14.0669 -24.5811 -14.0669 0 -50.341zm0 -81.0225l50.6386 0 0 50.341 -26.0575 14.0669 -24.5811 -14.0669 0 -50.341zm0 -81.0225l50.6386 0 0 50.341 -26.0575 14.0669 -24.5811 -14.0669 0 -50.341zm0 -81.0225l50.6386 0 0 50.341 -26.0575 14.0669 -24.5811 -14.0669 0 -50.341zm0 -81.0225l50.6386 0 0 50.341 -26.0575 14.0669 -24.5811 -14.0669 0 -50.341zm0 -81.0225l50.6386 0 0 50.341 -26.0575 14.0669 -24.5811 -14.0669 0 -50.341zm0 -81.0225l50.6386 0 0 50.341 -26.0575 14.0669 -24.5811 -14.0669 0 -50.341zm192.414 639.481l50.2618 -6.17126 6.13465 49.9666 -24.15 17.1378 -26.1118 -10.9665 -6.13465 -49.9666zm-9.87402 -80.4178l50.2618 -6.17126 6.13465 49.9654 -24.15 17.1378 -26.1118 -10.9654 -6.13465 -49.9666zm-9.87402 -80.419l50.2607 -6.17126 6.13583 49.9666 -24.15 17.1378 -26.1118 -10.9665 -6.13465 -49.9666zm-9.87284 -80.4178l50.2595 -6.17126 6.13465 49.9666 -24.1488 17.1354 -26.1118 -10.9654 -6.13347 -49.9654zm-9.8752 -80.4178l50.2607 -6.17126 6.13465 49.9642 -24.1477 17.1378 -26.1118 -10.9654 -6.13583 -49.9654zm-9.87402 -80.419l50.2618 -6.17126 6.13465 49.9666 -24.15 17.1366 -26.1106 -10.9654 -6.13583 -49.9666zm-9.8752 -80.419l50.263 -6.17126 6.13347 49.9666 -24.1488 17.1378 -26.1106 -10.9665 -6.13701 -49.9666zm-9.87402 -80.4178l50.2618 -6.17126 6.13583 49.9654 -24.1488 17.1366 -26.1118 -10.9642 -6.13701 -49.9666zm-9.87284 -80.419l50.2607 -6.17126 6.13583 49.9666 -24.15 17.1366 -26.1118 -10.9654 -6.13465 -49.9666zm-255.196 643.347l-50.2618 -6.17126 -6.13465 49.9666 24.1488 17.1378 26.1118 -10.9654 6.13583 -49.9678zm9.87402 -80.4178l-50.2618 -6.17126 -6.13465 49.9654 24.1488 17.1378 26.1118 -10.9654 6.13583 -49.9666zm9.87284 -80.4178l-50.2607 -6.17126 -6.13465 49.9654 24.15 17.1366 26.1118 -10.9654 6.13347 -49.9654zm9.8752 -80.419l-50.2607 -6.17126 -6.13583 49.9654 24.15 17.1378 26.1118 -10.9665 6.13465 -49.9654zm9.87402 -80.4178l-50.2607 -6.17126 -6.13583 49.9654 24.1488 17.1378 26.113 -10.9665 6.13465 -49.9654zm9.87402 -80.419l-50.2618 -6.17126 -6.13465 49.9666 24.1488 17.1366 26.1118 -10.9654 6.13583 -49.9666zm9.87402 -80.419l-50.2618 -6.17126 -6.13347 49.9666 24.1488 17.1378 26.1118 -10.9665 6.13465 -49.9666zm9.8752 -80.419l-50.2618 -6.17126 -6.13465 49.9678 24.1488 17.1366 26.1118 -10.9654 6.13583 -49.9678z"/>
  <path class="fil5" d="M1341.04 1485.38l-99.1265 -751.24 -435.678 0 -99.4938 754.019c103.044,33.0626 210.326,48.7843 318.853,46.8815 107.059,-1.87559 212.701,-20.4024 315.446,-49.6607zm53.8229 34.8437l-110.163 -834.886 -521.252 0 -110.314 836.029c125.42,45.7678 249.782,64.6359 373.315,62.4709 123.217,-2.15906 245.98,-25.3087 368.413,-63.613z"/>
 </g>
</svg>
