<?xml version="1.0" encoding="UTF-8"?>
<!DOCTYPE svg PUBLIC "-//W3C//DTD SVG 1.1//EN" "http://www.w3.org/Graphics/SVG/1.1/DTD/svg11.dtd">
<!-- Creator: CorelDRAW -->
<svg xmlns="http://www.w3.org/2000/svg" xml:space="preserve" width="2048px" height="2048px" style="shape-rendering:geometricPrecision; text-rendering:geometricPrecision; image-rendering:optimizeQuality; fill-rule:evenodd; clip-rule:evenodd"
viewBox="0 0 2048 2048"
 xmlns:xlink="http://www.w3.org/1999/xlink">
 <defs>
  <style type="text/css">
   <![CDATA[
    .fil2 {fill:none}
    .fil1 {fill:#4E342E}
    .fil0 {fill:#6D4C41}
    .fil8 {fill:#E07518}
    .fil6 {fill:#D58929;fill-rule:nonzero}
    .fil7 {fill:#E07518;fill-rule:nonzero}
    .fil5 {fill:#E89B26;fill-rule:nonzero}
    .fil3 {fill:#F57F17;fill-rule:nonzero}
    .fil4 {fill:#F9A825;fill-rule:nonzero}
   ]]>
  </style>
   <clipPath id="id0">
    <path d="M1024 -0.0011811c565.539,0 1024,458.462 1024,1024 0,565.539 -458.462,1024 -1024,1024 -565.539,0 -1024,-458.462 -1024,-1024 0,-565.539 458.462,-1024 1024,-1024z"/>
   </clipPath>
 </defs>
 <g id="Layer_x0020_1">
  <metadata id="CorelCorpID_0Corel-Layer"/>
  <path class="fil0" d="M1024 -0.0011811c565.539,0 1024,458.462 1024,1024 0,565.539 -458.462,1024 -1024,1024 -565.539,0 -1024,-458.462 -1024,-1024 0,-565.539 458.462,-1024 1024,-1024z"/>
  <g style="clip-path:url(#id0)">
   <g id="_451245608">
    <g>
     <path id="_4533797281" class="fil1" d="M1875.7 2719.88l0 0zm-1135.88 -1135.88l0 0z"/>
     <polygon id="_453379656" class="fil1" points="822.025,1584 1957.91,2719.88 1915.06,2719.88 779.183,1584 "/>
     <polygon id="_453380688" class="fil1" points="613.028,666.166 1748.91,1802.05 1746.47,1801.93 1744.1,1801.57 1741.82,1800.98 1739.63,1800.18 1737.54,1799.17 1735.58,1797.98 1733.74,1796.61 1732.05,1795.07 596.167,659.187 597.86,660.726 599.697,662.097 601.662,663.291 603.747,664.295 605.938,665.096 608.223,665.683 610.59,666.043 "/>
     <polygon id="_453380592" class="fil1" points="822.025,1541.54 1957.91,2677.42 1957.91,2719.88 822.025,1584 "/>
     <polygon id="_453381552" class="fil1" points="703.502,785.149 1839.38,1921.03 1838.08,1923.08 1836.6,1924.96 1834.96,1926.65 1833.19,1928.16 1831.29,1929.47 1829.29,1930.59 1827.2,1931.5 1825.03,1932.21 1822.8,1932.71 1820.54,1933 1818.24,1933.07 1815.94,1932.91 1813.65,1932.53 1811.38,1931.92 1809.15,1931.06 1806.97,1929.97 671.09,794.09 673.264,795.183 675.495,796.034 677.765,796.649 680.06,797.032 682.362,797.187 684.655,797.12 686.921,796.833 689.148,796.331 691.315,795.621 693.409,794.704 695.412,793.587 697.309,792.275 699.082,790.769 700.717,789.077 702.195,787.202 "/>
     <polygon id="_453381360" class="fil1" points="671.09,794.09 1806.97,1929.97 1805.59,1929.19 669.704,793.305 "/>
     <polygon id="_453381312" class="fil1" points="669.704,793.305 1805.59,1929.19 1727.27,1884.82 591.388,748.934 "/>
     <polygon id="_453381600" class="fil1" points="591.388,748.934 1727.27,1884.82 1676.55,1884.82 540.67,748.934 "/>
     <polygon id="_453381792" class="fil1" points="540.67,748.934 1676.55,1884.82 1674.11,1884.69 1671.75,1884.33 1669.46,1883.74 1667.27,1882.94 1665.19,1881.94 1663.22,1880.74 1661.39,1879.37 1659.69,1877.83 523.811,741.95 525.505,743.489 527.34,744.862 529.306,746.056 531.39,747.06 533.58,747.862 535.865,748.45 538.232,748.811 "/>
     <polygon id="_453381384" class="fil1" points="662.026,666.062 1797.91,1801.94 1748.91,1801.96 613.028,666.074 "/>
     <polygon id="_453381144" class="fil1" points="1093.15,487.722 2229.03,1623.6 2230.57,1625.36 2232.02,1627.18 2233.37,1629.06 2234.61,1631 2235.76,1633.02 2236.79,1635.09 2237.72,1637.23 2238.53,1639.44 2239.22,1641.71 2239.8,1644.04 2240.25,1646.45 2240.58,1648.91 2240.78,1651.45 2240.84,1654.05 1104.96,518.164 1104.9,515.565 1104.7,513.032 1104.37,510.565 1103.92,508.163 1103.34,505.826 1102.65,503.556 1101.84,501.35 1100.91,499.21 1099.88,497.133 1098.73,495.122 1097.49,493.176 1096.14,491.294 1094.69,489.475 "/>
     <polygon id="_453381528" class="fil1" points="1104.96,518.164 2240.84,1654.05 2240.84,1659.64 1104.96,523.753 "/>
     <polygon id="_453381648" class="fil1" points="1104.96,523.753 2240.84,1659.64 2240.84,1659.82 1104.96,523.935 "/>
     <polygon id="_453381480" class="fil1" points="1386.27,665.287 2522.15,1801.17 1797.87,1801.34 661.989,665.457 "/>
     <polygon id="_453382320" class="fil1" points="661.989,665.457 1797.87,1801.34 1797.91,1801.94 662.026,666.062 "/>
     <polygon id="_453382512" class="fil1" points="613.028,666.074 1748.91,1801.96 1748.91,1802.05 613.028,666.166 "/>
     <polygon id="_453382296" class="fil1" points="700.182,757.157 1836.06,1893.04 1837.57,1894.81 1838.88,1896.71 1840,1898.71 1840.91,1900.81 1841.62,1902.97 1842.13,1905.2 1842.41,1907.47 1842.48,1909.76 1842.33,1912.06 1841.94,1914.36 1841.33,1916.63 1840.48,1918.86 1839.38,1921.03 703.502,785.149 704.594,782.975 705.447,780.744 706.061,778.473 706.444,776.179 706.6,773.877 706.531,771.584 706.244,769.318 705.743,767.091 705.032,764.924 704.116,762.83 703,760.827 701.686,758.93 "/>
     <polygon id="_453382272" class="fil1" points="815.734,843.478 1951.61,1979.36 1953,1980.88 1954.24,1982.53 1955.31,1984.3 1956.22,1986.17 1956.94,1988.14 1957.47,1990.19 1957.8,1992.31 1957.91,1994.49 1957.91,2677.42 822.025,1541.54 822.025,858.607 821.914,856.424 821.588,854.304 821.058,852.255 820.335,850.289 819.431,848.418 818.355,846.651 817.118,845.001 "/>
     <polygon id="_453382104" class="fil1" points="905.144,843.478 2041.03,1979.36 2042.41,1980.88 2043.65,1982.53 2044.72,1984.3 2045.63,1986.17 2046.35,1988.14 2046.88,1990.19 2047.21,1992.31 2047.32,1994.49 2047.32,2677.42 911.436,1541.54 911.436,858.607 911.325,856.424 910.999,854.304 910.469,852.255 909.746,850.289 908.841,848.418 907.765,846.651 906.529,845.001 "/>
     <polygon id="_453382440" class="fil1" points="1453.48,626.774 2589.36,1762.66 2590.68,1764.37 2591.82,1766.17 2592.79,1768.05 2593.58,1770.01 2594.2,1772.02 2594.63,1774.07 2594.89,1776.15 2594.96,1778.24 2594.85,1780.34 2594.55,1782.43 2594.07,1784.51 2593.39,1786.54 2592.53,1788.53 2591.46,1790.45 2590.21,1792.3 1454.33,656.421 1455.58,654.569 1456.64,652.643 1457.51,650.657 1458.19,648.623 1458.67,646.552 1458.97,644.462 1459.08,642.361 1459.01,640.264 1458.75,638.183 1458.32,636.133 1457.7,634.124 1456.91,632.171 1455.94,630.286 1454.8,628.483 "/>
     <polygon id="_453382080" class="fil1" points="1454.33,656.421 2590.21,1792.3 2589.21,1793.55 2588.15,1794.71 2587.03,1795.78 2585.85,1796.77 2584.62,1797.67 2583.34,1798.49 2582.02,1799.22 2580.67,1799.86 2579.28,1800.42 2577.86,1800.88 2576.42,1801.26 2574.96,1801.54 2573.48,1801.74 2572,1801.84 2570.51,1801.85 2569.02,1801.76 1433.14,665.882 1434.63,665.966 1436.12,665.957 1437.6,665.854 1439.08,665.66 1440.54,665.376 1441.98,665.001 1443.4,664.536 1444.79,663.982 1446.14,663.339 1447.46,662.61 1448.74,661.792 1449.97,660.889 1451.15,659.899 1452.27,658.823 1453.33,657.664 "/>
     <polygon id="_453382560" class="fil1" points="1433.14,665.882 2569.02,1801.76 2522.12,1801.78 1386.24,665.893 "/>
     <polygon id="_453382656" class="fil1" points="1456.61,748.934 2592.49,1884.82 2514.44,1929.04 1378.56,793.156 "/>
     <polygon id="_453382152" class="fil1" points="1378.56,793.156 2514.44,1929.04 2512.79,1929.97 1376.91,794.09 "/>
     <polygon id="_453382776" class="fil1" points="1376.91,794.09 2512.79,1929.97 2510.61,1931.06 2508.38,1931.92 2506.11,1932.53 2503.82,1932.91 2501.52,1933.07 2499.23,1933 2496.96,1932.71 2494.73,1932.21 2492.56,1931.5 2490.47,1930.59 2488.47,1929.47 2486.57,1928.16 2484.8,1926.65 2483.16,1924.96 1347.28,789.077 1348.92,790.769 1350.69,792.275 1352.59,793.587 1354.59,794.704 1356.68,795.621 1358.85,796.331 1361.08,796.833 1363.34,797.12 1365.64,797.187 1367.94,797.032 1370.23,796.649 1372.5,796.034 1374.73,795.183 "/>
     <polygon id="_453382848" class="fil1" points="911.436,1584 2047.32,2719.88 2004.48,2719.88 868.594,1584 "/>
     <polygon id="_453382896" class="fil1" points="1000.85,1584 2136.73,2719.88 2093.89,2719.88 958.005,1584 "/>
     <polygon id="_453383352" class="fil1" points="911.436,1541.54 2047.32,2677.42 2047.32,2719.88 911.436,1584 "/>
     <polygon id="_453383160" class="fil1" points="994.555,843.478 2130.44,1979.36 2131.82,1980.88 2133.06,1982.53 2134.13,1984.3 2135.04,1986.17 2135.76,1988.14 2136.29,1990.19 2136.62,1992.31 2136.73,1994.49 2136.73,2677.42 1000.85,1541.54 1000.85,858.607 1000.74,856.424 1000.41,854.304 999.88,852.255 999.157,850.289 998.252,848.418 997.176,846.651 995.939,845.001 "/>
     <polygon id="_453382824" class="fil1" points="1000.85,1541.54 2136.73,2677.42 2136.73,2719.88 1000.85,1584 "/>
     <polygon id="_453383424" class="fil1" points="1083.97,843.478 2219.85,1979.36 2221.23,1980.88 2222.47,1982.53 2223.54,1984.3 2224.45,1986.17 2225.17,1988.14 2225.7,1990.19 2226.03,1992.31 2226.14,1994.49 2226.14,2677.42 1090.26,1541.54 1090.26,858.607 1090.15,856.424 1089.82,854.304 1089.29,852.255 1088.57,850.289 1087.66,848.418 1086.59,846.651 1085.35,845.001 "/>
     <polygon id="_453383040" class="fil1" points="1090.26,1541.54 2226.14,2677.42 2226.14,2719.88 1090.26,1584 "/>
     <polygon id="_453383304" class="fil1" points="1173.38,843.478 2309.26,1979.36 2310.64,1980.88 2311.88,1982.53 2312.95,1984.3 2313.86,1986.17 2314.58,1988.14 2315.11,1990.19 2315.44,1992.31 2315.55,1994.49 2315.55,2677.42 1179.67,1541.54 1179.67,858.607 1179.56,856.424 1179.23,854.304 1178.7,852.255 1177.98,850.289 1177.07,848.418 1176,846.651 1174.76,845.001 "/>
     <polygon id="_453382752" class="fil1" points="1179.67,1541.54 2315.55,2677.42 2315.55,2719.88 1179.67,1584 "/>
     <polygon id="_453383184" class="fil1" points="1525.73,709.925 2661.61,1845.81 2662.98,1847.64 2664.18,1849.61 2665.18,1851.69 2665.98,1853.88 2666.57,1856.17 2666.93,1858.54 2667.05,1860.97 1531.17,725.091 1531.05,722.653 1530.69,720.286 1530.1,718.001 1529.3,715.81 1528.29,713.725 1527.1,711.76 "/>
     <polygon id="_453383880" class="fil1" points="1531.17,725.091 2667.05,1860.97 2666.93,1863.41 2666.57,1865.78 2665.98,1868.06 2665.18,1870.25 2664.18,1872.34 2662.98,1874.3 2661.61,1876.14 2660.07,1877.83 2658.38,1879.37 2656.54,1880.74 2654.57,1881.94 2652.49,1882.94 2650.3,1883.74 2648.01,1884.33 2645.65,1884.69 2643.21,1884.82 1507.33,748.934 1509.77,748.811 1512.13,748.45 1514.42,747.862 1516.61,747.06 1518.69,746.056 1520.66,744.862 1522.5,743.489 1524.19,741.95 1525.73,740.256 1527.1,738.421 1528.29,736.456 1529.3,734.371 1530.1,732.181 1530.69,729.896 1531.05,727.529 "/>
     <polygon id="_453384168" class="fil1" points="1507.33,748.934 2643.21,1884.82 2592.49,1884.82 1456.61,748.934 "/>
     <polygon id="_453383784" class="fil1" points="1262.79,843.478 2398.67,1979.36 2400.05,1980.88 2401.29,1982.53 2402.37,1984.3 2403.27,1986.17 2403.99,1988.14 2404.52,1990.19 2404.85,1992.31 2404.96,1994.49 2404.96,2677.42 1269.08,1541.54 1269.08,858.607 1268.97,856.424 1268.64,854.304 1268.11,852.255 1267.39,850.289 1266.48,848.418 1265.41,846.651 1264.17,845.001 "/>
     <polygon id="_453383520" class="fil1" points="1269.08,1541.54 2404.96,2677.42 2404.96,2719.88 1269.08,1584 "/>
     <polygon id="_453383664" class="fil1" points="1269.08,1584 2404.96,2719.88 2362.12,2719.88 1226.24,1584 "/>
     <polygon id="_453383568" class="fil1" points="1179.67,1584 2315.55,2719.88 2272.71,2719.88 1136.83,1584 "/>
     <polygon id="_453383952" class="fil1" points="1090.26,1584 2226.14,2719.88 2183.3,2719.88 1047.42,1584 "/>
    </g>
    <path id="_451245896" class="fil1" d="M739.815 1584l0 0zm82.2107 0.00236221l-42.8422 0 0 -42.463 0 -682.932c0,-11.7815 9.63898,-21.4205 21.4217,-21.4205 11.7815,0 21.4205,9.63898 21.4205,21.4205l0 682.932 0 42.463zm89.4107 0l-42.8422 0 0 -42.463 0 -682.932c0,-11.7815 9.63898,-21.4205 21.4217,-21.4205 11.7815,0 21.4205,9.63898 21.4205,21.4205l0 682.932 0 42.463zm89.4107 0l-42.8422 0 0 -42.463 0 -682.932c0,-11.7815 9.63898,-21.4205 21.4217,-21.4205 11.7815,0 21.4205,9.63898 21.4205,21.4205l0 682.932 0 42.463zm89.4107 0l-42.8422 0 0 -42.463 0 -682.932c0,-11.7815 9.63898,-21.4205 21.4217,-21.4205 11.7815,0 21.4205,9.63898 21.4205,21.4205l0 682.932 0 42.463zm89.4107 0l-42.8422 0 0 -42.463 0 -682.932c0,-11.7815 9.63898,-21.4205 21.4217,-21.4205 11.7815,0 21.4205,9.63898 21.4205,21.4205l0 682.932 0 42.463zm89.4107 0l-42.8422 0 0 -42.463 0 -682.932c0,-11.7815 9.63898,-21.4205 21.4217,-21.4205 11.7815,0 21.4205,9.63898 21.4205,21.4205l0 682.932 0 42.463zm112.892 -847.429l55.1741 -31.2591c3.80433,-2.56772 8.38701,-4.06654 13.3217,-4.06654l56.8619 0c13.1681,0 23.8429,10.676 23.8429,23.8441 0,13.1669 -10.6748,23.8429 -23.8429,23.8429l-50.7178 0 -78.0544 44.2217 -1.64882 0.934253c-11.4177,6.47953 -25.9299,2.47677 -32.4107,-8.94095 -6.48071,-11.4189 -2.47795,-25.9311 8.94095,-32.4118l28.5331 -16.1646zm-715.681 0.147638l28.2709 16.0169c11.4177,6.48071 15.4217,20.9929 8.94095,32.4118 -6.48071,11.4177 -20.9929,15.4205 -32.4118,8.94095l-1.38543 -0.785434 -78.3166 -44.3705 -50.7178 0c-13.1669,0 -23.8429,-10.676 -23.8429,-23.8429 0,-13.1681 10.676,-23.8441 23.8429,-23.8441l56.8619 0c4.93465,0 9.51969,1.49882 13.3228,4.06654l55.4351 31.4067zm86.9257 -183.373c62.7709,-16.9595 130.152,-25.8295 190.337,-29.3941l0 -0.116929 0 -5.67166c0,-28.0748 22.9914,-44.8713 52.4174,-51.2268 8.7756,-1.89567 18.463,-2.8441 28.2874,-2.84528l0 -0.0933072c9.5445,0 19.2248,0.981497 28.2874,2.9374 29.4272,6.35788 52.4185,23.152 52.4185,51.228l0 5.58898 0 0.18189c70.4646,4.08189 133.924,14.191 188.516,28.9217 64.7788,17.4803 117.796,41.6681 155.995,70.2627l0.0555119 -0.0744095c0.882284,0.661418 1.70669,1.37126 2.46851,2.12599 8.35985,8.2382 9.55749,21.5929 2.32677,31.2496 -5.13071,6.85394 -13.2425,10.1563 -21.189,9.46182l-46.9004 0.0106299 0.0366142 -0.605906 -724.283 0.170079 0.0366142 0.604725 -48.9981 0.011811 0 0.0921261c-13.1681,0.00354331 -23.8453,-10.6689 -23.8477,-23.837 -0.00236221,-6.73701 2.79213,-12.8221 7.28268,-17.1591 1.2378,-1.19528 2.60551,-2.25709 4.07835,-3.16418 42.0154,-31.0796 95.6635,-53.2571 152.674,-68.6587z"/>
   </g>
  </g>
  <path class="fil2" d="M1024 -0.0011811c565.539,0 1024,458.462 1024,1024 0,565.539 -458.462,1024 -1024,1024 -565.539,0 -1024,-458.462 -1024,-1024 0,-565.539 458.462,-1024 1024,-1024z"/>
  <path class="fil3" d="M671.09 794.09c11.4189,6.47953 25.9311,2.47677 32.4118,-8.94095 6.48071,-11.4189 2.47677,-25.9311 -8.94095,-32.4118l-83.706 -47.4237c-3.80315,-2.56772 -8.3882,-4.06654 -13.3228,-4.06654l-56.8619 0c-13.1669,0 -23.8429,10.676 -23.8429,23.8441 0,13.1669 10.676,23.8429 23.8429,23.8429l50.7178 0 79.702 45.1559zm836.239 -45.1559c13.1681,0 23.8429,-10.676 23.8429,-23.8429 0,-13.1681 -10.6748,-23.8441 -23.8429,-23.8441l-56.8619 0c-4.93465,0 -9.51733,1.49882 -13.3217,4.06654l-83.7072 47.4237c-11.4189,6.48071 -15.4217,20.9929 -8.94095,32.4118 6.48071,11.4177 20.9929,15.4205 32.4107,8.94095l79.7032 -45.1559 50.7178 0z"/>
  <path class="fil4" d="M1386.27 665.287l-53.9941 894.748 0.00236221 0.121654c0,13.1681 -10.676,23.8441 -23.8441,23.8441l-568.622 0 0 -0.00236221c-12.5209,0.011811 -23.0351,-9.7441 -23.7992,-22.4055l23.7992 -1.43622 -23.7496 1.39725 -54.0756 -896.097 724.283 -0.170079z"/>
  <path class="fil5" d="M822.025 1584l-42.8422 0 0 -725.395c0,-11.7815 9.63898,-21.4205 21.4205,-21.4205l0.0011811 0c11.7815,0 21.4205,9.63898 21.4205,21.4205l0 725.395z"/>
  <path class="fil5" d="M911.436 1584l-42.8422 0 0 -725.395c0,-11.7815 9.63898,-21.4205 21.4205,-21.4205l0.0011811 0c11.7815,0 21.4205,9.63898 21.4205,21.4205l0 725.395z"/>
  <path class="fil5" d="M1000.85 1584l-42.8422 0 0 -725.395c0,-11.7815 9.63898,-21.4205 21.4205,-21.4205l0.0011811 0c11.7815,0 21.4205,9.63898 21.4205,21.4205l0 725.395z"/>
  <path class="fil5" d="M1090.26 1584l-42.8422 0 0 -725.395c0,-11.7815 9.63898,-21.4205 21.4205,-21.4205l0.0011811 0c11.7815,0 21.4205,9.63898 21.4205,21.4205l0 725.395z"/>
  <path class="fil5" d="M1179.67 1584l-42.8422 0 0 -725.395c0,-11.7815 9.63898,-21.4205 21.4205,-21.4205l0.0011811 0c11.7815,0 21.4205,9.63898 21.4205,21.4205l0 725.395z"/>
  <path class="fil5" d="M1269.08 1584l-42.8422 0 0 -725.395c0,-11.7815 9.63898,-21.4205 21.4205,-21.4205l0.0011811 0c11.7815,0 21.4205,9.63898 21.4205,21.4205l0 725.395z"/>
  <path class="fil6" d="M1333.39 1541.54l-1.11614 18.4973 0.00236221 0.121654c0,13.1681 -10.676,23.8441 -23.8441,23.8441l-568.622 0 0 -0.00236221c-12.5209,0.011811 -23.0351,-9.7441 -23.7992,-22.4055l23.7992 -1.43622 -23.7496 1.39725 -1.20827 -20.0162 618.538 0z"/>
  <polygon class="fil5" points="1386.27,665.287 1382.89,721.365 665.364,721.365 661.989,665.457 "/>
  <path class="fil3" d="M1104.96 523.935c70.4646,4.08189 133.924,14.191 188.516,28.9217 64.7788,17.4803 117.796,41.6681 155.995,70.2627l0.0555119 -0.0744095c10.539,7.89095 12.6862,22.8355 4.79528,33.3756 -5.13071,6.85394 -13.2425,10.1563 -21.189,9.46182l-820.109 0.191339 0 0.0921261c-13.1681,0.00354331 -23.8453,-10.6689 -23.8477,-23.837 -0.00236221,-8.59371 4.54252,-16.1256 11.361,-20.3232 42.0154,-31.0796 95.6635,-53.2571 152.674,-68.6587 62.7709,-16.9595 130.152,-25.8295 190.337,-29.3941l0 -5.78859c0,-28.0748 22.9914,-44.8713 52.4174,-51.2268 8.7756,-1.89567 18.463,-2.8441 28.2874,-2.84528l0 -0.0933072c9.5445,0 19.2248,0.981497 28.2874,2.9374 29.4272,6.35788 52.4185,23.152 52.4185,51.228l0 5.77087z"/>
  <path class="fil7" d="M1452 625.171c8.35985,8.2382 9.55749,21.5929 2.32677,31.2496 -5.13071,6.85394 -13.2425,10.1563 -21.189,9.46182l-820.109 0.191339 0 0.0921261c-13.1681,0.00354331 -23.8453,-10.6689 -23.8477,-23.837 -0.00236221,-6.73701 2.79213,-12.8221 7.28386,-17.1579l855.535 0z"/>
  <path class="fil8" d="M1104.96 518.164c0,-28.076 -22.9914,-44.8701 -52.4185,-51.228 -9.06261,-1.95591 -18.7429,-2.9374 -28.2874,-2.9374l0 0.0933072c-9.82442,0.0011811 -19.5118,0.949607 -28.2874,2.84528 -29.426,6.35552 -52.4174,23.152 -52.4174,51.2268l0 5.67166c20.948,6.88347 49.3288,11.1095 80.5784,11.1095 31.3748,0 59.8595,-4.26024 80.8323,-11.1921l0 -5.58898z"/>
  <path class="fil7" d="M943.535 550.837c1.93583,-0.67441 2.95866,-2.79331 2.28425,-4.72914 -0.675591,-1.93583 -2.79331,-2.95984 -4.72914,-2.28425l-160.592 55.8804c-1.93583,0.675591 -2.95984,2.79331 -2.28425,4.73032 0.67441,1.93583 2.79331,2.95866 4.72914,2.28425l160.592 -55.8815z"/>
  <path class="fil7" d="M1027.49 554.898c0,-2.05748 -1.66772,-3.72638 -3.7252,-3.72638 -2.05748,0 -3.72638,1.6689 -3.72638,3.72638l0 55.8815c0,2.05748 1.6689,3.7252 3.72638,3.7252 2.05748,0 3.7252,-1.66772 3.7252,-3.7252l0 -55.8815z"/>
  <path class="fil7" d="M1107.17 543.824c-1.93583,-0.675591 -4.05355,0.348425 -4.72914,2.28425 -0.67441,1.93583 0.348425,4.05473 2.28425,4.72914l160.592 55.8815c1.93583,0.67441 4.05473,-0.348425 4.72914,-2.28425 0.675591,-1.93701 -0.348425,-4.05473 -2.28425,-4.73032l-160.592 -55.8804z"/>
 </g>
</svg>
