<?xml version="1.0" encoding="UTF-8"?>
<!DOCTYPE svg PUBLIC "-//W3C//DTD SVG 1.1//EN" "http://www.w3.org/Graphics/SVG/1.1/DTD/svg11.dtd">
<!-- Creator: CorelDRAW -->
<svg xmlns="http://www.w3.org/2000/svg" xml:space="preserve" width="2048px" height="2048px" style="shape-rendering:geometricPrecision; text-rendering:geometricPrecision; image-rendering:optimizeQuality; fill-rule:evenodd; clip-rule:evenodd"
viewBox="0 0 2048 2048"
 xmlns:xlink="http://www.w3.org/1999/xlink">
 <defs>
  <style type="text/css">
   <![CDATA[
    .fil2 {fill:none}
    .fil12 {fill:#382320}
    .fil11 {fill:#861F16}
    .fil7 {fill:#90CAF9}
    .fil4 {fill:#9EABB1}
    .fil10 {fill:#A29B8C}
    .fil5 {fill:#E67145}
    .fil1 {fill:#E6C047}
    .fil6 {fill:#FB925B}
    .fil0 {fill:#FFD54F}
    .fil8 {fill:#861F16;fill-rule:nonzero}
    .fil9 {fill:#90CAF9;fill-rule:nonzero}
    .fil3 {fill:#FB925B;fill-rule:nonzero}
   ]]>
  </style>
   <clipPath id="id0">
    <path d="M1024 -0.0011811c565.539,0 1024,458.462 1024,1024 0,565.539 -458.462,1024 -1024,1024 -565.539,0 -1024,-458.462 -1024,-1024 0,-565.539 458.462,-1024 1024,-1024z"/>
   </clipPath>
 </defs>
 <g id="Layer_x0020_1">
  <metadata id="CorelCorpID_0Corel-Layer"/>
  <path class="fil0" d="M1024 -0.0011811c565.539,0 1024,458.462 1024,1024 0,565.539 -458.462,1024 -1024,1024 -565.539,0 -1024,-458.462 -1024,-1024 0,-565.539 458.462,-1024 1024,-1024z"/>
  <g style="clip-path:url(#id0)">
   <g id="_451246904">
    <g>
     <polygon id="_4533708721" class="fil1" points="796.498,739.816 1932.38,1875.7 1836.06,1875.7 700.179,739.816 "/>
     <polygon id="_453371064" class="fil1" points="700.179,739.816 1836.06,1875.7 1809.01,1894.98 673.132,759.097 "/>
     <polygon id="_453372216" class="fil1" points="1315.89,1162.18 2451.77,2298.06 2451.77,2609.23 1315.89,1473.35 "/>
     <polygon id="_453372288" class="fil1" points="1563.84,1468.82 2699.72,2604.7 2698.3,2603.91 2697,2602.94 2695.85,2601.8 1559.97,1465.92 1561.12,1467.06 1562.41,1468.03 "/>
     <polygon id="_453373296" class="fil1" points="1584,1541.59 2719.88,2677.47 2719.88,2678.42 1584,1542.54 "/>
     <polygon id="_453373320" class="fil1" points="1584,1542.54 2719.88,2678.42 2719.88,2717.21 1584,1581.33 "/>
     <polygon id="_453373368" class="fil1" points="1584,1581.33 2719.88,2717.21 2464.15,2717.21 1328.27,1581.33 "/>
     <polygon id="_453373176" class="fil1" points="1328.27,1581.33 2464.15,2717.21 2395.32,2717.21 1259.44,1581.33 "/>
     <polygon id="_453373008" class="fil1" points="1259.44,1581.33 2395.32,2717.21 2368.7,2717.21 1232.82,1581.33 "/>
     <polygon id="_453373056" class="fil1" points="730.425,1162.18 1866.31,2298.06 1842.86,2298.06 706.974,1162.18 "/>
     <polygon id="_453373248" class="fil1" points="1072.57,1581.33 2208.45,2717.21 1924.44,2717.21 788.555,1581.33 "/>
     <polygon id="_453373440" class="fil1" points="788.555,1581.33 1924.44,2717.21 1853.93,2717.21 718.048,1581.33 "/>
     <polygon id="_453373032" class="fil1" points="474.891,1468.98 1610.77,2604.86 1609.27,2604.1 1607.9,2603.14 472.021,1467.26 473.387,1468.22 "/>
     <polygon id="_453373104" class="fil1" points="487.502,1450.15 1623.38,2586.04 1624.79,2587.74 1625.86,2589.71 1626.53,2591.87 1626.77,2594.2 1626.64,2595.91 1626.27,2597.55 1625.68,2599.09 1624.89,2600.51 1623.91,2601.8 1622.76,2602.94 1621.47,2603.91 1620.04,2604.7 484.155,1468.82 485.585,1468.03 486.881,1467.06 488.03,1465.92 489.009,1464.63 489.802,1463.21 490.392,1461.67 490.758,1460.03 490.884,1458.32 490.649,1455.99 489.977,1453.82 488.912,1451.86 "/>
     <polygon id="_453373128" class="fil1" points="488.426,1471.23 1624.31,2607.11 1625.07,2607.76 1625.8,2608.47 1626.49,2609.23 490.614,1473.35 489.92,1472.59 489.191,1471.88 "/>
     <polygon id="_453373488" class="fil1" points="718.048,1581.33 1853.93,2717.21 1599.88,2717.21 463.999,1581.33 "/>
     <polygon id="_453373680" class="fil1" points="706.974,1162.18 1842.86,2298.06 1813.28,2319.15 677.397,1183.27 "/>
     <polygon id="_453373512" class="fil1" points="1232.82,1581.33 2368.7,2717.21 2208.45,2717.21 1072.57,1581.33 "/>
     <polygon id="_453373872" class="fil1" points="1576.83,1450.15 2712.71,2586.04 2714.12,2587.74 2715.19,2589.71 2715.86,2591.87 2716.09,2594.2 2715.96,2595.97 2715.57,2597.65 2714.95,2599.23 2714.11,2600.68 2713.07,2601.99 2711.86,2603.14 2710.49,2604.1 2708.99,2604.86 1573.11,1468.98 1574.61,1468.22 1575.98,1467.25 1577.19,1466.11 1578.23,1464.8 1579.06,1463.34 1579.69,1461.77 1580.08,1460.08 1580.21,1458.32 1579.98,1455.99 1579.31,1453.82 1578.24,1451.86 "/>
     <polygon id="_453373536" class="fil1" points="1578.44,1472.59 2714.32,2608.47 2715.21,2609.47 2716.05,2610.55 2716.81,2611.71 2717.49,2612.94 2718.1,2614.23 2718.63,2615.58 2719.07,2616.99 2719.42,2618.45 2719.67,2619.95 2719.83,2621.5 2719.88,2623.08 1584,1487.19 1583.95,1485.61 1583.79,1484.07 1583.54,1482.56 1583.19,1481.11 1582.75,1479.7 1582.22,1478.35 1581.61,1477.05 1580.92,1475.83 1580.16,1474.67 1579.33,1473.59 "/>
     <polygon id="_453373824" class="fil1" points="1384.86,724.433 2520.74,1860.32 2500.53,1888.72 1364.65,752.838 "/>
     <polygon id="_453374112" class="fil1" points="1364.65,752.838 2500.53,1888.72 2482.27,1875.7 1346.39,739.816 "/>
     <polygon id="_453374184" class="fil1" points="1346.39,739.816 2482.27,1875.7 2385.7,1875.7 1249.82,739.816 "/>
     <polygon id="_453373848" class="fil1" points="1249.82,739.816 2385.7,1875.7 2385.7,2185.43 1249.82,1049.55 "/>
     <polygon id="_453373608" class="fil1" points="1395.67,1153.72 2531.55,2289.61 2511.34,2318.01 1375.46,1182.13 "/>
     <polygon id="_453374376" class="fil1" points="1375.46,1182.13 2511.34,2318.01 2483.42,2298.06 1347.54,1162.18 "/>
     <polygon id="_453374424" class="fil1" points="1347.54,1162.18 2483.42,2298.06 2451.77,2298.06 1315.89,1162.18 "/>
     <polygon id="_453374616" class="fil1" points="1584,1487.19 2719.88,2623.08 2719.88,2677.47 1584,1541.59 "/>
    </g>
    <path id="_451247504" class="fil1" d="M1315.89 1473.35l241.497 0c1.8,-2.08819 4.00512,-3.66496 6.45827,-4.53426 -3.97087,-1.82599 -6.72875,-5.83937 -6.72875,-10.4965 0,-6.37914 5.17087,-11.5488 11.5488,-11.5488 6.37796,0 11.5488,5.16969 11.5488,11.5488 0,4.80118 -2.9315,8.91969 -7.10316,10.6606 6.32008,2.4874 10.891,9.70276 10.891,18.2138l0 54.3957 0 0.946064 0 38.7969 -255.735 0 -68.8217 0 -26.6256 0 -160.252 0 -284.01 0 -70.5071 0 -254.049 0 0 -38.7969 0 -0.946064 0 -54.3957c0,-8.51103 4.57205,-15.7264 10.8921,-18.2138 -4.17166,-1.74095 -7.10434,-5.85827 -7.10434,-10.6606 0,-6.37914 5.17087,-11.5488 11.5488,-11.5488 6.37796,0 11.5488,5.16969 11.5488,11.5488 0,4.65709 -2.75788,8.67048 -6.72875,10.4965 2.45315,0.869292 4.65945,2.44488 6.45827,4.53426l239.811 0 0 -311.169 -23.4508 0 -29.5772 21.0851 -20.211 -28.4044 139.312 -99.3095 0 -315.736 -96.319 0 -27.0473 19.2815 -20.2122 -28.4044 360.275 -256.826 10.1067 -7.19882 10.1055 7.19882 351.456 250.566 -20.211 28.4044 -18.2646 -13.0217 -96.5705 0 0 309.736 145.856 104.171 -20.211 28.4044 -27.926 -19.9465 -31.6477 0 0 311.169z"/>
   </g>
  </g>
  <path class="fil2" d="M1024 -0.0011811c565.539,0 1024,458.462 1024,1024 0,565.539 -458.462,1024 -1024,1024 -565.539,0 -1024,-458.462 -1024,-1024 0,-565.539 458.462,-1024 1024,-1024z"/>
  <path class="fil3" d="M1315.89 1152.48c0,141.666 0,283.334 0,425 -195.154,0 -390.309,0 -585.463,0 0,-141.666 0,-283.334 0,-425 195.155,0 390.31,0 585.463,0z"/>
  <rect class="fil4" x="718.048" y="1565.68" width="610.217" height="15.654"/>
  <polygon class="fil5" points="796.498,702.031 796.498,1073.2 1249.82,1072.84 1249.82,702.031 "/>
  <polygon class="fil5" points="697.021,739.816 1349.29,739.816 1023.16,507.457 "/>
  <polygon class="fil6" points="663.886,1162.18 1366.44,1162.18 1374.55,1147.93 1023.16,897.579 660.265,1156.13 "/>
  <path class="fil7" d="M1023.42 1032.45c21.7382,0 39.3614,17.6232 39.3614,39.3614 0,21.7382 -17.6232,39.3614 -39.3614,39.3614 -21.7382,0 -39.3626,-17.6232 -39.3626,-39.3614 0,-21.7382 17.6244,-39.3614 39.3626,-39.3614z"/>
  <path class="fil8" d="M1023.42 1028.81c11.8736,0 22.6252,4.81418 30.4075,12.5965 7.78229,7.78229 12.5965,18.5339 12.5965,30.4075 0,11.8748 -4.81418,22.6252 -12.5965,30.4075 -7.78229,7.78111 -18.5339,12.5965 -30.4075,12.5965 -11.8748,0 -22.6252,-4.81536 -30.4075,-12.5976 -7.78229,-7.78111 -12.5965,-18.5339 -12.5965,-30.4063 0,-11.8725 4.81418,-22.6252 12.5965,-30.4075 7.78229,-7.78229 18.5327,-12.5965 30.4075,-12.5965zm25.2591 17.7461c-6.463,-6.463 -15.3945,-10.4622 -25.2591,-10.4622 -9.86457,0 -18.7961,3.99922 -25.2579,10.4622 -6.46418,6.463 -10.4622,15.3933 -10.4622,25.2579 0,9.86457 3.99803,18.7949 10.4622,25.2579 6.46182,6.463 15.3933,10.461 25.2579,10.461 9.86457,0 18.7949,-3.99803 25.2579,-10.4599 6.463,-6.463 10.4622,-15.3945 10.4622,-25.2591 0,-9.86457 -3.99922,-18.7949 -10.461,-25.2579z"/>
  <polygon class="fil7" points="973.267,780.38 973.267,814.113 1023.16,814.113 1023.16,780.38 "/>
  <path class="fil8" d="M976.909 784.022l0 26.4484 42.6059 0 0 -26.4484 -42.6059 0zm-7.28504 30.091l0 -33.7335c0,-2.01142 1.6311,-3.64134 3.64252,-3.64134l49.891 0c2.01142,0 3.64252,1.62992 3.64252,3.64134l0 33.7335c0,2.01142 -1.6311,3.64134 -3.64252,3.64134l-49.891 0c-2.01142,0 -3.64252,-1.62992 -3.64252,-3.64134z"/>
  <polygon class="fil7" points="1073.05,780.38 1073.05,814.113 1023.16,814.113 1023.16,780.38 "/>
  <path class="fil8" d="M1076.69 780.38l0 33.7335c0,2.01142 -1.6311,3.64134 -3.64252,3.64134l-49.891 0c-2.01142,0 -3.64252,-1.62992 -3.64252,-3.64134l0 -33.7335c0,-2.01142 1.6311,-3.64134 3.64252,-3.64134l49.891 0c2.01142,0 3.64252,1.62992 3.64252,3.64134zm-7.28504 30.091l0 -26.4484 -42.6059 0 0 26.4484 42.6059 0z"/>
  <polygon class="fil7" points="973.267,847.846 973.267,814.113 1023.16,814.113 1023.16,847.846 "/>
  <path class="fil8" d="M969.624 847.846l0 -33.7323c0,-2.01142 1.6311,-3.64252 3.64252,-3.64252l49.891 0c2.01142,0 3.64252,1.6311 3.64252,3.64252l0 33.7323c0,2.01142 -1.6311,3.64252 -3.64252,3.64252l-49.891 0c-2.01142,0 -3.64252,-1.6311 -3.64252,-3.64252zm7.28504 -30.091l0 26.4496 42.6059 0 0 -26.4496 -42.6059 0z"/>
  <polygon class="fil7" points="1073.05,847.846 1073.05,814.113 1023.16,814.113 1023.16,847.846 "/>
  <path class="fil8" d="M1069.41 844.204l0 -26.4496 -42.6059 0 0 26.4496 42.6059 0zm7.28504 -30.091l0 33.7323c0,2.01142 -1.6311,3.64252 -3.64252,3.64252l-49.891 0c-2.01142,0 -3.64252,-1.6311 -3.64252,-3.64252l0 -33.7323c0,-2.01142 1.6311,-3.64252 3.64252,-3.64252l49.891 0c2.01142,0 3.64252,1.6311 3.64252,3.64252z"/>
  <path class="fil7" d="M1014.57 608.9c21.7382,0 39.3614,17.6232 39.3614,39.3626 0,21.7382 -17.6232,39.3603 -39.3614,39.3603 -21.7382,0 -39.3626,-17.6221 -39.3626,-39.3603 0,-21.7394 17.6244,-39.3626 39.3626,-39.3626z"/>
  <path class="fil8" d="M1014.57 605.258c11.8736,0 22.6252,4.81536 30.4075,12.5965 7.78229,7.78229 12.5965,18.5339 12.5965,30.4087 0,11.8736 -4.81418,22.624 -12.5965,30.4063 -7.78229,7.78229 -18.5339,12.5965 -30.4075,12.5965 -11.8748,0 -22.6252,-4.81418 -30.4075,-12.5965 -7.78229,-7.78229 -12.5965,-18.5339 -12.5965,-30.4063 0,-11.8748 4.81418,-22.6264 12.5965,-30.4075 7.78229,-7.78229 18.5327,-12.5976 30.4075,-12.5976zm25.2591 17.7461c-6.46418,-6.463 -15.3957,-10.461 -25.2591,-10.461 -9.86457,0 -18.7961,3.99922 -25.2591,10.461 -6.463,6.463 -10.461,15.3933 -10.461,25.2591 0,9.86339 3.99803,18.7937 10.461,25.2567 6.463,6.463 15.3945,10.4622 25.2591,10.4622 9.86457,0 18.7949,-3.99803 25.2579,-10.461 6.463,-6.463 10.4622,-15.3945 10.4622,-25.2579 0,-9.86457 -3.99922,-18.7961 -10.461,-25.2591z"/>
  <polygon class="fil8" points="1364.65,752.838 1023.3,509.471 673.132,759.097 652.92,730.693 1013.2,473.867 1023.3,466.668 1033.41,473.867 1384.86,724.433 "/>
  <polygon class="fil8" points="1375.46,1182.13 1027.57,933.64 677.397,1183.27 657.186,1154.86 1017.46,898.037 1027.57,890.837 1037.67,898.037 1395.67,1153.72 "/>
  <polygon class="fil9" points="1085.08,1559.57 1220.3,1559.57 1220.3,1272.06 1085.08,1272.06 "/>
  <path class="fil8" d="M1088.73 1555.93l127.934 0 0 -280.225 -127.934 0 0 280.225zm131.575 7.28386l-135.216 0c-2.01142,0 -3.64252,-1.6311 -3.64252,-3.64252l0 -287.508c0,-2.01142 1.6311,-3.64252 3.64252,-3.64252l135.216 0c2.01142,0 3.64252,1.6311 3.64252,3.64252l0 287.508c0,2.01142 -1.6311,3.64252 -3.64252,3.64252z"/>
  <polygon class="fil9" points="1040.05,1272.06 1040.05,1452.35 859.906,1452.35 859.906,1272.06 "/>
  <path class="fil8" d="M1043.69 1272.06l0 180.292c0,2.01142 -1.6311,3.64252 -3.64252,3.64252l-180.142 0c-2.01142,0 -3.64252,-1.6311 -3.64252,-3.64252l0 -180.292c0,-2.01142 1.6311,-3.64252 3.64252,-3.64252l180.142 0c2.01142,0 3.64252,1.6311 3.64252,3.64252zm-7.28386 176.651l0 -173.009 -172.858 0 0 173.009 172.858 0z"/>
  <polygon class="fil8" points="1040.05,1317.31 1040.05,1326.52 859.906,1326.52 859.906,1317.31 "/>
  <polygon class="fil8" points="1219.46,1361.83 1219.46,1371.05 1085.92,1371.05 1085.92,1361.83 "/>
  <polygon class="fil8" points="1219.46,1460.58 1219.46,1469.79 1085.92,1469.79 1085.92,1460.58 "/>
  <polygon class="fil8" points="945.369,1272.06 954.584,1272.06 954.584,1452.2 945.369,1452.2 "/>
  <rect class="fil10" x="1072.57" y="1555.16" width="160.252" height="26.1734"/>
  <rect class="fil11" x="1065.07" y="1555.16" width="175.248" height="8.5358"/>
  <circle class="fil12" cx="1107.24" cy="1415.81" r="5.97411"/>
  <path class="fil11" d="M1337.43 1496.66c1.61221,3.74174 2.63032,9.24331 2.63032,15.3768 0,6.13347 -1.01811,11.6362 -2.63032,15.378 0.992127,1.18583 1.59095,2.72244 1.59095,4.40197 0,2.50866 -1.33583,4.70079 -3.32244,5.87363 0.220866,0.48189 0.344882,1.01929 0.344882,1.58622 0,2.06811 -1.64291,3.74528 -3.66969,3.74528 -2.02795,0 -3.67087,-1.67717 -3.67087,-3.74528 0,-0.56693 0.122835,-1.10433 0.344882,-1.58622 -1.98662,-1.17284 -3.32244,-3.36496 -3.32244,-5.87363 0,-1.67953 0.6,-3.21614 1.59213,-4.40197 -1.61221,-3.74174 -2.63032,-9.2445 -2.63032,-15.378 0,-6.13347 1.01811,-11.635 2.63032,-15.3768 -0.992127,-1.18465 -1.59213,-2.72244 -1.59213,-4.40315 0,-2.50984 1.33583,-4.70079 3.32244,-5.87363 -0.222047,-0.48189 -0.344882,-1.01929 -0.344882,-1.58622 0,-2.06811 1.64291,-3.7441 3.67087,-3.7441 2.02677,0 3.66969,1.67599 3.66969,3.7441 0,0.56693 -0.124016,1.10433 -0.344882,1.58622 1.98662,1.17284 3.32244,3.36378 3.32244,5.87363 0,1.68071 -0.598819,3.21851 -1.59095,4.40315z"/>
  <path class="fil11" d="M1362.96 1496.66c1.61221,3.74174 2.63032,9.24331 2.63032,15.3768 0,6.13347 -1.01811,11.635 -2.63032,15.378 0.992127,1.18465 1.59213,2.72126 1.59213,4.40197 0,2.50866 -1.33701,4.70079 -3.32244,5.87363 0.220866,0.48189 0.344882,1.01929 0.344882,1.58622 0,2.06811 -1.64291,3.74528 -3.67087,3.74528 -2.02677,0 -3.67087,-1.67717 -3.67087,-3.74528 0,-0.56693 0.125197,-1.10433 0.346063,-1.58622 -1.98662,-1.17284 -3.32362,-3.36496 -3.32362,-5.87363 0,-1.68071 0.6,-3.21733 1.59213,-4.40197 -1.61221,-3.74292 -2.63032,-9.2445 -2.63032,-15.378 0,-6.13347 1.01811,-11.635 2.63032,-15.3768 -0.992127,-1.18583 -1.59213,-2.72244 -1.59213,-4.40315 0,-2.50984 1.33701,-4.70079 3.32362,-5.87363 -0.220866,-0.48189 -0.346063,-1.01929 -0.346063,-1.58622 0,-2.06811 1.6441,-3.7441 3.67087,-3.7441 2.02795,0 3.67087,1.67599 3.67087,3.7441 0,0.56693 -0.124016,1.10433 -0.344882,1.58622 1.98543,1.17284 3.32244,3.36378 3.32244,5.87363 0,1.68071 -0.6,3.21733 -1.59213,4.40315z"/>
  <path class="fil11" d="M1388.48 1496.66c1.61221,3.74174 2.63032,9.24331 2.63032,15.3768 0,6.13347 -1.01811,11.635 -2.63032,15.378 0.993308,1.18465 1.59213,2.72126 1.59213,4.40197 0,2.50984 -1.33583,4.70079 -3.32244,5.87363 0.220866,0.480709 0.344882,1.01811 0.344882,1.58622 0,2.06693 -1.64291,3.7441 -3.67087,3.7441 -2.02677,0 -3.67087,-1.67717 -3.67087,-3.7441 0,-0.568111 0.124016,-1.10551 0.344882,-1.58622 -1.98662,-1.17284 -3.32244,-3.36378 -3.32244,-5.87363 0,-1.68071 0.6,-3.21733 1.59213,-4.40197 -1.61221,-3.74292 -2.63032,-9.2445 -2.63032,-15.378 0,-6.13347 1.01811,-11.635 2.63032,-15.3768 -0.992127,-1.18583 -1.59213,-2.72244 -1.59213,-4.40315 0,-2.50984 1.33583,-4.70079 3.32244,-5.87363 -0.220866,-0.48189 -0.344882,-1.01929 -0.344882,-1.58622 0,-2.06811 1.6441,-3.7441 3.67087,-3.7441 2.02795,0 3.67087,1.67599 3.67087,3.7441 0,0.56693 -0.124016,1.10433 -0.344882,1.58622 1.98662,1.17284 3.32244,3.36378 3.32244,5.87363 0,1.68071 -0.598819,3.21733 -1.59213,4.40315z"/>
  <path class="fil11" d="M1414.01 1496.66c1.61221,3.74292 2.63032,9.24331 2.63032,15.3768 0,6.13347 -1.01811,11.6362 -2.63032,15.378 0.992127,1.18583 1.59095,2.72244 1.59095,4.40197 0,2.51103 -1.33583,4.70079 -3.32244,5.87363 0.220866,0.48189 0.344882,1.01929 0.344882,1.5874 0,2.06693 -1.64291,3.7441 -3.66969,3.7441 -2.02795,0 -3.67087,-1.67717 -3.67087,-3.7441 0,-0.568111 0.122835,-1.10551 0.344882,-1.5874 -1.98662,-1.17284 -3.32244,-3.3626 -3.32244,-5.87363 0,-1.67953 0.6,-3.21614 1.59213,-4.40197 -1.61221,-3.74174 -2.63032,-9.2445 -2.63032,-15.378 0,-6.13347 1.01811,-11.6339 2.63032,-15.3768 -0.992127,-1.18465 -1.59213,-2.72126 -1.59213,-4.40197 0,-2.51103 1.33583,-4.70197 3.32244,-5.87481 -0.222047,-0.48189 -0.344882,-1.01811 -0.344882,-1.58622 0,-2.06811 1.64291,-3.7441 3.67087,-3.7441 2.02677,0 3.66969,1.67599 3.66969,3.7441 0,0.568111 -0.124016,1.10433 -0.344882,1.58622 1.98662,1.17284 3.32244,3.36378 3.32244,5.87481 0,1.68071 -0.598819,3.21733 -1.59095,4.40197z"/>
  <path class="fil11" d="M1439.54 1496.66c1.61221,3.74174 2.63032,9.24331 2.63032,15.3768 0,6.13347 -1.01811,11.6362 -2.63032,15.378 0.992127,1.18465 1.59213,2.72126 1.59213,4.40197 0,2.50866 -1.33701,4.70079 -3.32244,5.87363 0.220866,0.48189 0.344882,1.01929 0.344882,1.58622 0,2.06811 -1.64291,3.74528 -3.67087,3.74528 -2.02677,0 -3.67087,-1.67717 -3.67087,-3.74528 0,-0.56693 0.124016,-1.10433 0.346063,-1.58622 -1.98662,-1.17284 -3.32362,-3.36496 -3.32362,-5.87363 0,-1.68071 0.6,-3.21733 1.59213,-4.40197 -1.61221,-3.74174 -2.63032,-9.2445 -2.63032,-15.378 0,-6.13347 1.01811,-11.635 2.63032,-15.3768 -0.992127,-1.18583 -1.59213,-2.72244 -1.59213,-4.40315 0,-2.50984 1.33701,-4.70079 3.32362,-5.87363 -0.222047,-0.48189 -0.346063,-1.01929 -0.346063,-1.58622 0,-2.06811 1.6441,-3.7441 3.67087,-3.7441 2.02795,0 3.67087,1.67599 3.67087,3.7441 0,0.56693 -0.124016,1.10433 -0.344882,1.58622 1.98543,1.17284 3.32244,3.36378 3.32244,5.87363 0,1.68071 -0.6,3.21733 -1.59213,4.40315z"/>
  <path class="fil11" d="M1465.07 1496.66c1.61221,3.74174 2.6315,9.24331 2.6315,15.3768 0,6.13347 -1.01929,11.635 -2.6315,15.378 0.993308,1.18465 1.59331,2.72126 1.59331,4.40197 0,2.50866 -1.33701,4.70079 -3.32362,5.87363 0.222047,0.480709 0.344882,1.01811 0.344882,1.58622 0,2.06811 -1.64291,3.7441 -3.66969,3.7441 -2.02795,0 -3.67087,-1.67599 -3.67087,-3.7441 0,-0.568111 0.122835,-1.10551 0.344882,-1.58622 -1.98662,-1.17284 -3.32362,-3.36496 -3.32362,-5.87363 0,-1.68071 0.6,-3.21733 1.59331,-4.40197 -1.61221,-3.74292 -2.6315,-9.2445 -2.6315,-15.378 0,-6.13347 1.01929,-11.635 2.6315,-15.3768 -0.993308,-1.18583 -1.59331,-2.72244 -1.59331,-4.40315 0,-2.50984 1.33701,-4.70079 3.32362,-5.87363 -0.222047,-0.48189 -0.344882,-1.01929 -0.344882,-1.58622 0,-2.06811 1.64291,-3.7441 3.67087,-3.7441 2.02677,0 3.66969,1.67599 3.66969,3.7441 0,0.56693 -0.122835,1.10433 -0.344882,1.58622 1.98662,1.17284 3.32362,3.36378 3.32362,5.87363 0,1.68071 -0.6,3.21733 -1.59331,4.40315z"/>
  <path class="fil11" d="M1490.6 1496.66c1.61339,3.74174 2.63032,9.24331 2.63032,15.3768 0,6.13347 -1.01693,11.635 -2.63032,15.378 0.992127,1.18465 1.59213,2.72126 1.59213,4.40197 0,2.50984 -1.33701,4.70079 -3.32244,5.87363 0.220866,0.480709 0.346063,1.01811 0.346063,1.58622 0,2.06693 -1.6441,3.7441 -3.67205,3.7441 -2.02677,0 -3.66969,-1.67717 -3.66969,-3.7441 0,-0.568111 0.122835,-1.10551 0.344882,-1.58622 -1.98662,-1.17284 -3.32244,-3.36378 -3.32244,-5.87363 0,-1.68071 0.598819,-3.21733 1.59095,-4.40197 -1.61102,-3.74292 -2.63032,-9.2445 -2.63032,-15.378 0,-6.13347 1.01929,-11.635 2.63032,-15.3768 -0.992127,-1.18583 -1.59095,-2.72244 -1.59095,-4.40315 0,-2.50984 1.33583,-4.70079 3.32244,-5.87363 -0.222047,-0.48189 -0.344882,-1.01929 -0.344882,-1.58622 0,-2.06811 1.64291,-3.7441 3.66969,-3.7441 2.02795,0 3.67205,1.67599 3.67205,3.7441 0,0.56693 -0.125197,1.10433 -0.346063,1.58622 1.98543,1.17284 3.32244,3.36378 3.32244,5.87363 0,1.68071 -0.6,3.21733 -1.59213,4.40315z"/>
  <path class="fil11" d="M1516.13 1496.66c1.61339,3.74174 2.6315,9.24331 2.6315,15.3768 0,6.13347 -1.01811,11.6362 -2.6315,15.378 0.993308,1.18583 1.59331,2.72244 1.59331,4.40197 0,2.50984 -1.33701,4.70079 -3.32244,5.87363 0.220866,0.48189 0.344882,1.01929 0.344882,1.58622 0,2.06811 -1.64291,3.74528 -3.67087,3.74528 -2.02795,0 -3.66969,-1.67717 -3.66969,-3.74528 0,-0.56693 0.122835,-1.10433 0.343701,-1.58622 -1.98543,-1.17284 -3.32244,-3.36378 -3.32244,-5.87363 0,-1.67953 0.6,-3.21614 1.59213,-4.40197 -1.61221,-3.74174 -2.63032,-9.2445 -2.63032,-15.378 0,-6.13347 1.01811,-11.635 2.63032,-15.3768 -0.992127,-1.18465 -1.59213,-2.72126 -1.59213,-4.40197 0,-2.51103 1.33701,-4.70197 3.32244,-5.87481 -0.220866,-0.48189 -0.343701,-1.01929 -0.343701,-1.58622 0,-2.06811 1.64173,-3.7441 3.66969,-3.7441 2.02795,0 3.67087,1.67599 3.67087,3.7441 0,0.56693 -0.124016,1.10433 -0.344882,1.58622 1.98543,1.17284 3.32244,3.36378 3.32244,5.87481 0,1.68071 -0.6,3.21733 -1.59331,4.40197z"/>
  <path class="fil11" d="M1311.9 1496.66c1.61221,3.74174 2.63032,9.24331 2.63032,15.3768 0,6.13347 -1.01811,11.6362 -2.63032,15.378 0.992127,1.18583 1.59213,2.72244 1.59213,4.40197 0,2.50984 -1.33701,4.70079 -3.32244,5.87363 0.220866,0.48189 0.344882,1.01929 0.344882,1.5874 0,2.06693 -1.64291,3.7441 -3.67087,3.7441 -2.02677,0 -3.66969,-1.67717 -3.66969,-3.7441 0,-0.568111 0.122835,-1.10551 0.343701,-1.5874 -1.98662,-1.17284 -3.32244,-3.36378 -3.32244,-5.87363 0,-1.67953 0.6,-3.21614 1.59213,-4.40197 -1.61102,-3.74174 -2.63032,-9.2445 -2.63032,-15.378 0,-6.13347 1.01929,-11.635 2.63032,-15.3768 -0.992127,-1.18465 -1.59213,-2.72126 -1.59213,-4.40315 0,-2.50984 1.33583,-4.70079 3.32244,-5.87363 -0.220866,-0.48189 -0.343701,-1.01811 -0.343701,-1.58622 0,-2.06811 1.64291,-3.7441 3.66969,-3.7441 2.02795,0 3.67087,1.67599 3.67087,3.7441 0,0.568111 -0.124016,1.10433 -0.344882,1.58622 1.98543,1.17284 3.32244,3.36378 3.32244,5.87363 0,1.68189 -0.6,3.21851 -1.59213,4.40315z"/>
  <path class="fil11" d="M1541.66 1496.66c1.61221,3.74174 2.6315,9.24331 2.6315,15.3768 0,6.13347 -1.01929,11.635 -2.6315,15.378 0.993308,1.18465 1.59213,2.72126 1.59213,4.40197 0,2.50984 -1.33583,4.70079 -3.32244,5.87363 0.220866,0.480709 0.344882,1.01811 0.344882,1.58622 0,2.06811 -1.64291,3.74528 -3.66969,3.74528 -2.02795,0 -3.67087,-1.67717 -3.67087,-3.74528 0,-0.568111 0.122835,-1.10551 0.344882,-1.58622 -1.98662,-1.17284 -3.32362,-3.36378 -3.32362,-5.87363 0,-1.68071 0.6,-3.21733 1.59331,-4.40197 -1.61221,-3.74292 -2.63032,-9.2445 -2.63032,-15.378 0,-6.13347 1.01811,-11.635 2.63032,-15.3768 -0.993308,-1.18583 -1.59331,-2.72244 -1.59331,-4.40197 0,-2.51103 1.33701,-4.70197 3.32362,-5.87481 -0.222047,-0.48189 -0.344882,-1.01929 -0.344882,-1.58622 0,-2.06811 1.64291,-3.7441 3.67087,-3.7441 2.02677,0 3.66969,1.67599 3.66969,3.7441 0,0.56693 -0.124016,1.10433 -0.344882,1.58622 1.98662,1.17284 3.32244,3.36378 3.32244,5.87481 0,1.67953 -0.598819,3.21614 -1.59213,4.40197z"/>
  <path class="fil8" d="M1584 1487.19c0,-10.5709 -7.04882,-19.141 -15.7441,-19.141 -8.6941,0 -15.7429,8.57009 -15.7429,19.141l0 55.3406c0,10.5709 7.04882,19.1398 15.7429,19.1398 8.69528,0 15.7441,-8.5689 15.7441,-19.1398l0 -55.3406z"/>
  <path class="fil8" d="M1290.93 1487.19c0,-10.5709 -7.04882,-19.141 -15.7441,-19.141 -8.6941,0 -15.7441,8.57009 -15.7441,19.141l0 55.3406c0,10.5709 7.05001,19.1398 15.7441,19.1398 8.69528,0 15.7441,-8.5689 15.7441,-19.1398l0 -55.3406z"/>
  <path class="fil8" d="M1584 1581.33l0 -39.7429c-108.186,0 -216.371,0 -324.557,0l0 39.7429c108.186,0 216.371,0 324.557,0z"/>
  <rect class="fil11" x="1274.01" y="1473.35" width="287.625" height="8.13124"/>
  <circle class="fil11" cx="1275.19" cy="1458.32" r="11.5489"/>
  <circle class="fil11" cx="1568.66" cy="1458.32" r="11.5489"/>
  <path class="fil11" d="M710.573 1496.66c-1.61221,3.74174 -2.63032,9.24331 -2.63032,15.3768 0,6.13347 1.01811,11.6362 2.63032,15.378 -0.992127,1.18583 -1.59095,2.72244 -1.59095,4.40197 0,2.50866 1.33583,4.70079 3.32126,5.87363 -0.220866,0.48189 -0.344882,1.01929 -0.344882,1.58622 0,2.06811 1.64291,3.74528 3.67087,3.74528 2.02677,0 3.66969,-1.67717 3.66969,-3.74528 0,-0.56693 -0.122835,-1.10433 -0.344882,-1.58622 1.98662,-1.17284 3.32244,-3.36496 3.32244,-5.87363 0,-1.67953 -0.598819,-3.21614 -1.59095,-4.40197 1.61102,-3.74174 2.63032,-9.2445 2.63032,-15.378 0,-6.13347 -1.01929,-11.635 -2.63032,-15.3768 0.992127,-1.18465 1.59095,-2.72244 1.59095,-4.40315 0,-2.50984 -1.33583,-4.70079 -3.32244,-5.87363 0.222047,-0.48189 0.344882,-1.01929 0.344882,-1.58622 0,-2.06811 -1.64291,-3.7441 -3.66969,-3.7441 -2.02795,0 -3.67087,1.67599 -3.67087,3.7441 0,0.56693 0.124016,1.10433 0.344882,1.58622 -1.98543,1.17284 -3.32126,3.36378 -3.32126,5.87363 0,1.68071 0.598819,3.21851 1.59095,4.40315z"/>
  <path class="fil11" d="M685.045 1496.66c-1.61221,3.74174 -2.6315,9.24331 -2.6315,15.3768 0,6.13347 1.01929,11.635 2.6315,15.378 -0.993308,1.18465 -1.59331,2.72126 -1.59331,4.40197 0,2.50866 1.33701,4.70079 3.32244,5.87363 -0.220866,0.48189 -0.343701,1.01929 -0.343701,1.58622 0,2.06811 1.64173,3.74528 3.66969,3.74528 2.02795,0 3.67087,-1.67717 3.67087,-3.74528 0,-0.56693 -0.124016,-1.10433 -0.344882,-1.58622 1.98543,-1.17284 3.32244,-3.36496 3.32244,-5.87363 0,-1.68071 -0.6,-3.21733 -1.59213,-4.40197 1.61221,-3.74292 2.63032,-9.2445 2.63032,-15.378 0,-6.13347 -1.01811,-11.635 -2.63032,-15.3768 0.992127,-1.18583 1.59213,-2.72244 1.59213,-4.40315 0,-2.50984 -1.33701,-4.70079 -3.32244,-5.87363 0.220866,-0.48189 0.344882,-1.01929 0.344882,-1.58622 0,-2.06811 -1.64291,-3.7441 -3.67087,-3.7441 -2.02795,0 -3.66969,1.67599 -3.66969,3.7441 0,0.56693 0.122835,1.10433 0.343701,1.58622 -1.98543,1.17284 -3.32244,3.36378 -3.32244,5.87363 0,1.68071 0.6,3.21733 1.59331,4.40315z"/>
  <path class="fil11" d="M659.514 1496.66c-1.61221,3.74174 -2.63032,9.24331 -2.63032,15.3768 0,6.13347 1.01811,11.635 2.63032,15.378 -0.992127,1.18465 -1.59095,2.72126 -1.59095,4.40197 0,2.50984 1.33583,4.70079 3.32244,5.87363 -0.222047,0.480709 -0.346063,1.01811 -0.346063,1.58622 0,2.06693 1.6441,3.7441 3.67087,3.7441 2.02677,0 3.67087,-1.67717 3.67087,-3.7441 0,-0.568111 -0.122835,-1.10551 -0.344882,-1.58622 1.98662,-1.17284 3.32244,-3.36378 3.32244,-5.87363 0,-1.68071 -0.6,-3.21733 -1.59213,-4.40197 1.61221,-3.74292 2.63032,-9.2445 2.63032,-15.378 0,-6.13347 -1.01811,-11.635 -2.63032,-15.3768 0.992127,-1.18583 1.59213,-2.72244 1.59213,-4.40315 0,-2.50984 -1.33583,-4.70079 -3.32244,-5.87363 0.222047,-0.48189 0.344882,-1.01929 0.344882,-1.58622 0,-2.06811 -1.6441,-3.7441 -3.67087,-3.7441 -2.02677,0 -3.67087,1.67599 -3.67087,3.7441 0,0.56693 0.124016,1.10433 0.346063,1.58622 -1.98662,1.17284 -3.32244,3.36378 -3.32244,5.87363 0,1.68071 0.598819,3.21733 1.59095,4.40315z"/>
  <path class="fil11" d="M633.986 1496.66c-1.61221,3.74292 -2.63032,9.24331 -2.63032,15.3768 0,6.13347 1.01811,11.6362 2.63032,15.378 -0.992127,1.18583 -1.59095,2.72244 -1.59095,4.40197 0,2.51103 1.33583,4.70079 3.32126,5.87363 -0.220866,0.48189 -0.344882,1.01929 -0.344882,1.5874 0,2.06693 1.64291,3.7441 3.67087,3.7441 2.02677,0 3.66969,-1.67717 3.66969,-3.7441 0,-0.568111 -0.122835,-1.10551 -0.344882,-1.5874 1.98662,-1.17284 3.32362,-3.3626 3.32362,-5.87363 0,-1.67953 -0.6,-3.21614 -1.59213,-4.40197 1.61102,-3.74174 2.63032,-9.2445 2.63032,-15.378 0,-6.13347 -1.01929,-11.6339 -2.63032,-15.3768 0.992127,-1.18465 1.59213,-2.72126 1.59213,-4.40197 0,-2.51103 -1.33701,-4.70197 -3.32362,-5.87481 0.222047,-0.48189 0.344882,-1.01811 0.344882,-1.58622 0,-2.06811 -1.64291,-3.7441 -3.66969,-3.7441 -2.02795,0 -3.67087,1.67599 -3.67087,3.7441 0,0.568111 0.124016,1.10433 0.344882,1.58622 -1.98543,1.17284 -3.32126,3.36378 -3.32126,5.87481 0,1.68071 0.598819,3.21733 1.59095,4.40197z"/>
  <path class="fil11" d="M608.457 1496.66c-1.61221,3.74174 -2.6315,9.24331 -2.6315,15.3768 0,6.13347 1.01929,11.6362 2.6315,15.378 -0.993308,1.18465 -1.59331,2.72126 -1.59331,4.40197 0,2.50866 1.33701,4.70079 3.32244,5.87363 -0.220866,0.48189 -0.343701,1.01929 -0.343701,1.58622 0,2.06811 1.64173,3.74528 3.66969,3.74528 2.02795,0 3.67087,-1.67717 3.67087,-3.74528 0,-0.56693 -0.124016,-1.10433 -0.344882,-1.58622 1.98543,-1.17284 3.32244,-3.36496 3.32244,-5.87363 0,-1.68071 -0.6,-3.21733 -1.59213,-4.40197 1.61221,-3.74174 2.63032,-9.2445 2.63032,-15.378 0,-6.13347 -1.01811,-11.635 -2.63032,-15.3768 0.992127,-1.18583 1.59213,-2.72244 1.59213,-4.40315 0,-2.50984 -1.33701,-4.70079 -3.32244,-5.87363 0.220866,-0.48189 0.344882,-1.01929 0.344882,-1.58622 0,-2.06811 -1.64291,-3.7441 -3.67087,-3.7441 -2.02795,0 -3.66969,1.67599 -3.66969,3.7441 0,0.56693 0.122835,1.10433 0.343701,1.58622 -1.98543,1.17284 -3.32244,3.36378 -3.32244,5.87363 0,1.68071 0.6,3.21733 1.59331,4.40315z"/>
  <path class="fil11" d="M582.928 1496.66c-1.61221,3.74174 -2.6315,9.24331 -2.6315,15.3768 0,6.13347 1.01929,11.635 2.6315,15.378 -0.993308,1.18465 -1.59213,2.72126 -1.59213,4.40197 0,2.50866 1.33583,4.70079 3.32244,5.87363 -0.220866,0.480709 -0.344882,1.01811 -0.344882,1.58622 0,2.06811 1.64291,3.7441 3.66969,3.7441 2.02795,0 3.67205,-1.67599 3.67205,-3.7441 0,-0.568111 -0.124016,-1.10551 -0.346063,-1.58622 1.98662,-1.17284 3.32362,-3.36496 3.32362,-5.87363 0,-1.68071 -0.6,-3.21733 -1.59331,-4.40197 1.61339,-3.74292 2.6315,-9.2445 2.6315,-15.378 0,-6.13347 -1.01811,-11.635 -2.6315,-15.3768 0.993308,-1.18583 1.59331,-2.72244 1.59331,-4.40315 0,-2.50984 -1.33701,-4.70079 -3.32362,-5.87363 0.222047,-0.48189 0.346063,-1.01929 0.346063,-1.58622 0,-2.06811 -1.6441,-3.7441 -3.67205,-3.7441 -2.02677,0 -3.66969,1.67599 -3.66969,3.7441 0,0.56693 0.124016,1.10433 0.344882,1.58622 -1.98662,1.17284 -3.32244,3.36378 -3.32244,5.87363 0,1.68071 0.598819,3.21733 1.59213,4.40315z"/>
  <path class="fil11" d="M557.398 1496.66c-1.61221,3.74174 -2.63032,9.24331 -2.63032,15.3768 0,6.13347 1.01811,11.635 2.63032,15.378 -0.992127,1.18465 -1.59095,2.72126 -1.59095,4.40197 0,2.50984 1.33583,4.70079 3.32126,5.87363 -0.220866,0.480709 -0.344882,1.01811 -0.344882,1.58622 0,2.06693 1.64291,3.7441 3.67087,3.7441 2.02677,0 3.66969,-1.67717 3.66969,-3.7441 0,-0.568111 -0.122835,-1.10551 -0.344882,-1.58622 1.98662,-1.17284 3.32362,-3.36378 3.32362,-5.87363 0,-1.68071 -0.6,-3.21733 -1.59213,-4.40197 1.61102,-3.74292 2.63032,-9.2445 2.63032,-15.378 0,-6.13347 -1.01929,-11.635 -2.63032,-15.3768 0.992127,-1.18583 1.59213,-2.72244 1.59213,-4.40315 0,-2.50984 -1.33701,-4.70079 -3.32362,-5.87363 0.222047,-0.48189 0.344882,-1.01929 0.344882,-1.58622 0,-2.06811 -1.64291,-3.7441 -3.66969,-3.7441 -2.02795,0 -3.67087,1.67599 -3.67087,3.7441 0,0.56693 0.124016,1.10433 0.344882,1.58622 -1.98543,1.17284 -3.32126,3.36378 -3.32126,5.87363 0,1.68071 0.598819,3.21733 1.59095,4.40315z"/>
  <path class="fil11" d="M531.87 1496.66c-1.61221,3.74174 -2.6315,9.24331 -2.6315,15.3768 0,6.13347 1.01929,11.6362 2.6315,15.378 -0.993308,1.18583 -1.59331,2.72244 -1.59331,4.40197 0,2.50984 1.33701,4.70079 3.32362,5.87363 -0.222047,0.48189 -0.344882,1.01929 -0.344882,1.58622 0,2.06811 1.64291,3.74528 3.66969,3.74528 2.02795,0 3.67087,-1.67717 3.67087,-3.74528 0,-0.56693 -0.124016,-1.10433 -0.344882,-1.58622 1.98543,-1.17284 3.32244,-3.36378 3.32244,-5.87363 0,-1.67953 -0.6,-3.21614 -1.59213,-4.40197 1.61221,-3.74174 2.63032,-9.2445 2.63032,-15.378 0,-6.13347 -1.01811,-11.635 -2.63032,-15.3768 0.992127,-1.18465 1.59213,-2.72126 1.59213,-4.40197 0,-2.51103 -1.33701,-4.70197 -3.32244,-5.87481 0.220866,-0.48189 0.344882,-1.01929 0.344882,-1.58622 0,-2.06811 -1.64291,-3.7441 -3.67087,-3.7441 -2.02677,0 -3.66969,1.67599 -3.66969,3.7441 0,0.56693 0.122835,1.10433 0.344882,1.58622 -1.98662,1.17284 -3.32362,3.36378 -3.32362,5.87481 0,1.68071 0.6,3.21733 1.59331,4.40197z"/>
  <path class="fil11" d="M736.101 1496.66c-1.61221,3.74174 -2.63032,9.24331 -2.63032,15.3768 0,6.13347 1.01811,11.6362 2.63032,15.378 -0.992127,1.18583 -1.59095,2.72244 -1.59095,4.40197 0,2.50984 1.33583,4.70079 3.32244,5.87363 -0.222047,0.48189 -0.346063,1.01929 -0.346063,1.5874 0,2.06693 1.6441,3.7441 3.67087,3.7441 2.02677,0 3.67087,-1.67717 3.67087,-3.7441 0,-0.568111 -0.122835,-1.10551 -0.344882,-1.5874 1.98662,-1.17284 3.32244,-3.36378 3.32244,-5.87363 0,-1.67953 -0.6,-3.21614 -1.59213,-4.40197 1.61221,-3.74174 2.63032,-9.2445 2.63032,-15.378 0,-6.13347 -1.01811,-11.635 -2.63032,-15.3768 0.992127,-1.18465 1.59213,-2.72126 1.59213,-4.40315 0,-2.50984 -1.33583,-4.70079 -3.32244,-5.87363 0.222047,-0.48189 0.344882,-1.01811 0.344882,-1.58622 0,-2.06811 -1.6441,-3.7441 -3.67087,-3.7441 -2.02677,0 -3.67087,1.67599 -3.67087,3.7441 0,0.568111 0.124016,1.10433 0.346063,1.58622 -1.98662,1.17284 -3.32244,3.36378 -3.32244,5.87363 0,1.68189 0.598819,3.21851 1.59095,4.40315z"/>
  <path class="fil11" d="M506.34 1496.66c-1.61221,3.74174 -2.63032,9.24331 -2.63032,15.3768 0,6.13347 1.01811,11.635 2.63032,15.378 -0.992127,1.18465 -1.59213,2.72126 -1.59213,4.40197 0,2.50984 1.33701,4.70079 3.32244,5.87363 -0.220866,0.480709 -0.344882,1.01811 -0.344882,1.58622 0,2.06811 1.6441,3.74528 3.67087,3.74528 2.02677,0 3.67087,-1.67717 3.67087,-3.74528 0,-0.568111 -0.124016,-1.10551 -0.346063,-1.58622 1.98662,-1.17284 3.32362,-3.36378 3.32362,-5.87363 0,-1.68071 -0.6,-3.21733 -1.59213,-4.40197 1.61221,-3.74292 2.63032,-9.2445 2.63032,-15.378 0,-6.13347 -1.01811,-11.635 -2.63032,-15.3768 0.992127,-1.18583 1.59213,-2.72244 1.59213,-4.40197 0,-2.51103 -1.33701,-4.70197 -3.32362,-5.87481 0.222047,-0.48189 0.346063,-1.01929 0.346063,-1.58622 0,-2.06811 -1.6441,-3.7441 -3.67087,-3.7441 -2.02677,0 -3.67087,1.67599 -3.67087,3.7441 0,0.56693 0.124016,1.10433 0.344882,1.58622 -1.98543,1.17284 -3.32244,3.36378 -3.32244,5.87481 0,1.67953 0.6,3.21614 1.59213,4.40197z"/>
  <path class="fil8" d="M463.999 1487.19c0,-10.5709 7.04882,-19.141 15.7441,-19.141 8.6941,0 15.7441,8.57009 15.7441,19.141l0 55.3406c0,10.5709 -7.05001,19.1398 -15.7441,19.1398 -8.69528,0 -15.7441,-8.5689 -15.7441,-19.1398l0 -55.3406z"/>
  <path class="fil8" d="M757.067 1487.19c0,-10.5709 7.05001,-19.141 15.7441,-19.141 8.69528,0 15.7441,8.57009 15.7441,19.141l0 55.3406c0,10.5709 -7.04882,19.1398 -15.7441,19.1398 -8.6941,0 -15.7441,-8.5689 -15.7441,-19.1398l0 -55.3406z"/>
  <path class="fil8" d="M463.999 1581.33l0 -39.7429c108.186,0 216.371,0 324.557,0l0 39.7429c-108.186,0 -216.371,0 -324.557,0z"/>
  <rect class="fil11" x="486.36" y="1473.35" width="287.625" height="8.13124"/>
  <circle class="fil11" cx="772.812" cy="1458.32" r="11.5489"/>
  <circle class="fil11" cx="479.336" cy="1458.32" r="11.5489"/>
 </g>
</svg>
