<?xml version="1.0" encoding="UTF-8"?>
<!DOCTYPE svg PUBLIC "-//W3C//DTD SVG 1.1//EN" "http://www.w3.org/Graphics/SVG/1.1/DTD/svg11.dtd">
<!-- Creator: CorelDRAW -->
<svg xmlns="http://www.w3.org/2000/svg" xml:space="preserve" width="2048px" height="2048px" style="shape-rendering:geometricPrecision; text-rendering:geometricPrecision; image-rendering:optimizeQuality; fill-rule:evenodd; clip-rule:evenodd"
viewBox="0 0 2048 2048"
 xmlns:xlink="http://www.w3.org/1999/xlink">
 <defs>
  <style type="text/css">
   <![CDATA[
    .fil2 {fill:none}
    .fil7 {fill:#00AE97}
    .fil1 {fill:#BFCB4E}
    .fil0 {fill:#DCE775}
    .fil5 {fill:#00796B;fill-rule:nonzero}
    .fil6 {fill:#008F81;fill-rule:nonzero}
    .fil3 {fill:#009688;fill-rule:nonzero}
    .fil4 {fill:#00BFA5;fill-rule:nonzero}
   ]]>
  </style>
   <clipPath id="id0">
    <path d="M1024 -0.0011811c565.539,0 1024,458.462 1024,1024 0,565.539 -458.462,1024 -1024,1024 -565.539,0 -1024,-458.462 -1024,-1024 0,-565.539 458.462,-1024 1024,-1024z"/>
   </clipPath>
 </defs>
 <g id="Layer_x0020_1">
  <metadata id="CorelCorpID_0Corel-Layer"/>
  <path class="fil0" d="M1024 -0.0011811c565.539,0 1024,458.462 1024,1024 0,565.539 -458.462,1024 -1024,1024 -565.539,0 -1024,-458.462 -1024,-1024 0,-565.539 458.462,-1024 1024,-1024z"/>
  <g style="clip-path:url(#id0)">
   <g id="_451244912">
    <g>
     <polygon id="_3305230001" class="fil1" points="1201.83,489.163 2337.71,1625.05 2338.84,1626.38 2339.93,1627.74 2341,1629.13 2342.03,1630.55 2343.03,1631.99 2343.99,1633.45 2344.92,1634.94 2345.82,1636.45 2346.68,1637.99 2347.5,1639.55 2348.28,1641.13 2349.03,1642.73 2349.74,1644.35 2350.41,1646 2351.05,1647.66 2351.64,1649.34 2352.19,1651.04 2352.7,1652.76 2353.17,1654.5 2353.6,1656.25 2353.98,1658.02 2354.33,1659.81 2354.63,1661.61 2354.88,1663.42 2355.09,1665.25 2355.25,1667.09 2355.37,1668.95 2355.44,1670.81 2355.46,1672.69 1219.58,536.81 1219.56,534.931 1219.49,533.064 1219.37,531.208 1219.21,529.367 1219,527.537 1218.75,525.723 1218.45,523.923 1218.1,522.137 1217.72,520.368 1217.29,518.615 1216.82,516.879 1216.31,515.161 1215.76,513.46 1215.16,511.778 1214.53,510.115 1213.86,508.471 1213.15,506.848 1212.4,505.246 1211.62,503.665 1210.79,502.107 1209.94,500.57 1209.04,499.057 1208.11,497.568 1207.15,496.104 1206.15,494.664 1205.12,493.249 1204.05,491.861 1202.95,490.498 "/>
     <polygon id="_453375960" class="fil1" points="1219.58,536.81 2355.46,1672.69 2355.44,1674.57 2355.37,1676.44 2355.25,1678.29 2355.09,1680.14 2354.88,1681.97 2354.63,1683.78 2354.33,1685.58 2353.98,1687.37 2353.6,1689.13 2353.17,1690.89 2352.7,1692.62 2352.19,1694.34 2351.64,1696.04 2351.05,1697.73 2350.41,1699.39 2349.74,1701.03 2349.03,1702.66 2348.28,1704.26 2347.5,1705.84 2346.68,1707.4 2345.82,1708.93 2344.92,1710.45 2343.99,1711.94 2343.03,1713.4 2342.03,1714.84 2341,1716.26 2339.93,1717.64 2338.84,1719.01 2337.71,1720.34 2336.55,1721.65 2335.36,1722.93 2334.14,1724.18 1198.26,588.295 1199.48,587.045 1200.67,585.766 1201.83,584.458 1202.95,583.124 1204.05,581.762 1205.12,580.373 1206.15,578.958 1207.15,577.518 1208.11,576.054 1209.04,574.564 1209.94,573.051 1210.79,571.515 1211.62,569.957 1212.4,568.375 1213.15,566.774 1213.86,565.15 1214.53,563.507 1215.16,561.844 1215.76,560.162 1216.31,558.461 1216.82,556.741 1217.29,555.005 1217.72,553.252 1218.1,551.483 1218.45,549.697 1218.75,547.897 1219,546.083 1219.21,544.254 1219.37,542.412 1219.49,540.557 1219.56,538.689 "/>
     <polygon id="_453376176" class="fil1" points="1198.26,588.295 2334.14,1724.18 2332.89,1725.4 2331.61,1726.59 2330.3,1727.75 2328.97,1728.88 2327.6,1729.97 2326.22,1731.04 2324.8,1732.07 2323.36,1733.07 2321.9,1734.03 2320.41,1734.96 2318.89,1735.86 2317.36,1736.72 2315.8,1737.54 2314.22,1738.32 2312.62,1739.07 2310.99,1739.78 2309.35,1740.45 2307.69,1741.09 2306,1741.68 2304.3,1742.23 2302.59,1742.74 2300.85,1743.21 2299.1,1743.64 2297.33,1744.03 2295.54,1744.37 2293.74,1744.67 2291.93,1744.92 2290.1,1745.13 2288.26,1745.29 2286.4,1745.41 2284.53,1745.48 2282.65,1745.51 1146.77,609.623 1148.65,609.599 1150.52,609.528 1152.37,609.41 1154.22,609.247 1156.04,609.038 1157.86,608.784 1159.66,608.486 1161.44,608.143 1163.21,607.758 1164.97,607.33 1166.7,606.86 1168.42,606.349 1170.12,605.796 1171.81,605.203 1173.47,604.571 1175.11,603.899 1176.74,603.189 1178.34,602.442 1179.92,601.656 1181.48,600.833 1183.01,599.974 1184.53,599.08 1186.02,598.15 1187.48,597.186 1188.92,596.188 1190.33,595.156 1191.72,594.091 1193.08,592.994 1194.42,591.865 1195.73,590.705 1197.01,589.515 "/>
     <polygon id="_453376008" class="fil1" points="1146.77,609.623 2282.65,1745.51 2281.03,1745.49 2279.41,1745.43 2277.8,1745.34 2276.2,1745.22 2274.62,1745.06 2273.04,1744.87 2271.47,1744.64 2269.91,1744.38 2268.36,1744.09 2266.83,1743.76 2265.3,1743.41 2263.79,1743.02 2262.29,1742.6 2260.81,1742.14 2259.33,1741.66 2257.88,1741.15 2256.43,1740.6 2255,1740.03 2253.59,1739.42 2252.19,1738.79 2250.8,1738.13 2249.43,1737.44 2248.08,1736.73 2246.74,1735.98 2245.43,1735.21 2244.12,1734.42 2242.84,1733.59 2241.58,1732.74 2240.33,1731.87 2239.1,1730.97 2237.9,1730.04 2236.71,1729.09 1100.83,593.209 1102.01,594.159 1103.22,595.084 1104.45,595.985 1105.7,596.86 1106.96,597.709 1108.24,598.534 1109.54,599.331 1110.86,600.102 1112.2,600.846 1113.55,601.562 1114.92,602.25 1116.3,602.911 1117.7,603.543 1119.12,604.146 1120.55,604.719 1121.99,605.263 1123.45,605.777 1124.93,606.26 1126.41,606.713 1127.91,607.134 1129.42,607.524 1130.95,607.882 1132.48,608.208 1134.03,608.501 1135.59,608.761 1137.16,608.987 1138.73,609.18 1140.32,609.338 1141.92,609.462 1143.53,609.551 1145.15,609.605 "/>
     <polygon id="_453376920" class="fil1" points="1100.83,593.209 2236.71,1729.09 2236.19,1728.67 2235.68,1728.24 2235.17,1727.8 2234.67,1727.36 2234.17,1726.92 2233.67,1726.47 2233.18,1726.02 2232.69,1725.56 1096.81,589.678 1097.3,590.135 1097.79,590.588 1098.29,591.036 1098.79,591.48 1099.29,591.919 1099.8,592.354 1100.31,592.784 "/>
     <polygon id="_453377160" class="fil1" points="1096.81,589.678 2232.69,1725.56 2232.69,1825.91 1096.81,690.027 "/>
     <polygon id="_453377232" class="fil1" points="1314.19,713.884 2450.08,1849.77 2451.24,1851.07 2452.36,1852.41 2453.46,1853.77 2454.53,1855.16 2455.56,1856.57 2456.56,1858.01 2457.52,1859.48 2458.45,1860.97 2459.35,1862.48 2460.2,1864.02 2461.03,1865.58 2461.81,1867.16 2462.56,1868.76 2463.27,1870.38 2463.94,1872.03 2464.58,1873.69 2465.17,1875.37 2465.72,1877.07 2466.23,1878.79 2466.7,1880.53 2467.13,1882.28 2467.51,1884.05 2467.86,1885.83 2468.16,1887.63 2468.41,1889.45 2468.62,1891.28 2468.78,1893.12 2468.9,1894.98 2468.97,1896.84 2468.99,1898.72 1333.11,762.839 1333.09,760.96 1333.02,759.093 1332.9,757.237 1332.74,755.395 1332.53,753.566 1332.27,751.751 1331.98,749.951 1331.63,748.166 1331.25,746.397 1330.82,744.643 1330.35,742.907 1329.84,741.188 1329.29,739.488 1328.69,737.806 1328.06,736.143 1327.39,734.499 1326.68,732.876 1325.93,731.274 1325.15,729.693 1324.32,728.134 1323.46,726.598 1322.57,725.085 1321.64,723.596 1320.68,722.131 1319.68,720.69 1318.65,719.277 1317.58,717.888 1316.48,716.526 1315.35,715.191 "/>
     <polygon id="_453377208" class="fil1" points="1333.11,762.839 2468.99,1898.72 2468.97,1900.6 2468.9,1902.47 2468.78,1904.32 2468.62,1906.16 2468.41,1907.99 2468.16,1909.81 2467.86,1911.61 2467.51,1913.39 2467.13,1915.16 2466.7,1916.92 2466.23,1918.65 2465.72,1920.37 2465.17,1922.07 2464.58,1923.75 2463.94,1925.42 2463.27,1927.06 2462.56,1928.68 2461.81,1930.29 2461.03,1931.87 2460.2,1933.42 2459.35,1934.96 2458.45,1936.47 2457.52,1937.96 2456.56,1939.43 2455.56,1940.87 2454.53,1942.28 2453.46,1943.67 2452.36,1945.03 2451.24,1946.37 2450.08,1947.68 2448.89,1948.96 2447.66,1950.2 1311.78,814.322 1313,813.073 1314.19,811.794 1315.35,810.486 1316.48,809.151 1317.58,807.79 1318.65,806.401 1319.68,804.986 1320.68,803.546 1321.64,802.08 1322.57,800.592 1323.46,799.078 1324.32,797.542 1325.15,795.983 1325.93,794.403 1326.68,792.8 1327.39,791.177 1328.06,789.534 1328.69,787.871 1329.29,786.19 1329.84,784.489 1330.35,782.769 1330.82,781.033 1331.25,779.28 1331.63,777.511 1331.98,775.726 1332.27,773.926 1332.53,772.111 1332.74,770.282 1332.9,768.44 1333.02,766.586 1333.09,764.718 "/>
     <polygon id="_453377064" class="fil1" points="1311.78,814.322 2447.66,1950.2 2446.41,1951.42 2445.14,1952.62 2443.83,1953.78 2442.49,1954.9 2441.13,1956 2439.74,1957.07 2438.33,1958.1 2436.89,1959.1 2435.42,1960.06 2433.93,1960.99 2432.42,1961.88 2430.89,1962.74 2429.33,1963.57 2427.75,1964.35 2426.14,1965.1 2424.52,1965.81 2422.88,1966.48 2421.21,1967.11 2419.53,1967.71 2417.83,1968.26 2416.11,1968.77 2414.38,1969.24 2412.62,1969.67 2410.85,1970.05 2409.07,1970.39 2407.27,1970.69 2405.45,1970.95 2403.63,1971.16 2401.78,1971.32 2399.93,1971.44 2398.06,1971.51 2396.18,1971.53 1260.3,835.649 1262.18,835.626 1264.05,835.555 1265.9,835.437 1267.74,835.274 1269.57,835.065 1271.39,834.811 1273.19,834.512 1274.97,834.17 1276.74,833.784 1278.49,833.357 1280.23,832.887 1281.95,832.375 1283.65,831.824 1285.33,831.231 1287,830.599 1288.64,829.927 1290.26,829.217 1291.86,828.468 1293.45,827.683 1295,826.861 1296.54,826.002 1298.05,825.107 1299.54,824.177 1301.01,823.214 1302.45,822.216 1303.86,821.183 1305.25,820.119 1306.61,819.022 1307.95,817.893 1309.25,816.733 1310.53,815.542 "/>
     <polygon id="_453376800" class="fil1" points="1194.85,794.554 2330.73,1930.44 2294.34,1930.44 1158.45,794.554 "/>
     <polygon id="_453376560" class="fil1" points="1214.35,819.237 2350.23,1955.12 2348.72,1953.85 2347.24,1952.54 2345.8,1951.19 2344.4,1949.8 2343.03,1948.38 1207.15,812.495 1208.52,813.921 1209.92,815.309 1211.36,816.657 1212.84,817.967 "/>
     <polygon id="_453376944" class="fil1" points="1260.3,835.649 2396.18,1971.53 2394.56,1971.51 2392.94,1971.46 2391.33,1971.37 2389.73,1971.25 2388.14,1971.09 2386.56,1970.9 2385,1970.67 2383.44,1970.41 2381.89,1970.12 2380.36,1969.79 2378.83,1969.43 2377.32,1969.04 2375.82,1968.62 2374.34,1968.17 2372.86,1967.69 2371.4,1967.17 2369.96,1966.63 2368.53,1966.06 2367.11,1965.45 2365.71,1964.82 2364.33,1964.16 2362.96,1963.47 2361.61,1962.76 2360.27,1962.01 2358.95,1961.24 2357.65,1960.44 2356.37,1959.62 2355.1,1958.77 2353.86,1957.89 2352.63,1956.99 2351.42,1956.07 2350.23,1955.12 1214.35,819.237 1215.54,820.186 1216.75,821.111 1217.98,822.012 1219.22,822.888 1220.49,823.737 1221.77,824.561 1223.07,825.359 1224.39,826.13 1225.73,826.873 1227.08,827.59 1228.45,828.278 1229.83,828.938 1231.23,829.57 1232.65,830.173 1234.08,830.747 1235.52,831.29 1236.98,831.804 1238.45,832.288 1239.94,832.74 1241.44,833.161 1242.95,833.552 1244.47,833.91 1246.01,834.234 1247.56,834.527 1249.11,834.787 1250.68,835.014 1252.26,835.207 1253.85,835.365 1255.45,835.489 1257.06,835.577 1258.67,835.632 "/>
     <polygon id="_453376704" class="fil1" points="951.187,589.678 2087.07,1725.56 2086.58,1726.02 2086.09,1726.47 2085.59,1726.92 2085.09,1727.36 2084.59,1727.8 2084.08,1728.24 2083.57,1728.67 2083.05,1729.09 947.172,593.209 947.688,592.784 948.2,592.354 948.708,591.919 949.213,591.48 949.712,591.036 950.208,590.588 950.7,590.135 "/>
     <polygon id="_453376968" class="fil1" points="1392.58,985.106 2528.46,2120.99 2529.85,2122.56 2531.21,2124.16 2532.52,2125.8 2533.8,2127.47 2535.04,2129.17 2536.24,2130.9 2537.4,2132.66 2538.52,2134.45 2539.59,2136.27 2540.63,2138.11 2541.61,2139.99 2542.56,2141.88 2543.46,2143.81 2544.31,2145.76 2545.12,2147.73 2545.88,2149.73 2546.59,2151.75 2547.25,2153.8 2547.87,2155.86 2548.43,2157.95 2548.94,2160.06 2549.41,2162.18 2549.82,2164.33 2550.18,2166.49 2550.48,2168.67 2550.73,2170.87 2550.93,2173.08 2551.07,2175.31 2551.16,2177.55 2551.19,2179.81 1415.3,1043.93 1415.28,1041.67 1415.19,1039.43 1415.05,1037.2 1414.85,1034.99 1414.6,1032.79 1414.3,1030.61 1413.94,1028.44 1413.53,1026.3 1413.06,1024.17 1412.55,1022.07 1411.99,1019.98 1411.37,1017.92 1410.71,1015.87 1410,1013.85 1409.24,1011.85 1408.43,1009.88 1407.58,1007.93 1406.68,1006 1405.73,1004.1 1404.74,1002.23 1403.71,1000.38 1402.64,998.566 1401.52,996.777 1400.36,995.016 1399.16,993.285 1397.92,991.586 1396.64,989.917 1395.32,988.281 1393.97,986.677 "/>
     <polygon id="_453377040" class="fil1" points="947.172,593.209 2083.05,1729.09 2081.86,1730.04 2080.66,1730.97 2079.43,1731.87 2078.18,1732.74 2076.92,1733.59 2075.64,1734.42 2074.33,1735.21 2073.02,1735.98 2071.68,1736.73 2070.33,1737.44 2068.96,1738.13 2067.57,1738.79 2066.17,1739.42 2064.76,1740.03 2063.33,1740.6 2061.88,1741.15 2060.43,1741.66 2058.95,1742.14 2057.47,1742.6 2055.97,1743.02 2054.46,1743.41 2052.93,1743.76 2051.4,1744.09 2049.85,1744.38 2048.29,1744.64 2046.72,1744.87 2045.14,1745.06 2043.55,1745.22 2041.96,1745.34 2040.35,1745.43 2038.73,1745.49 2037.11,1745.51 901.224,609.623 902.85,609.605 904.466,609.551 906.074,609.462 907.673,609.338 909.262,609.18 910.842,608.987 912.411,608.761 913.968,608.501 915.516,608.208 917.051,607.882 918.575,607.524 920.087,607.134 921.585,606.713 923.071,606.26 924.544,605.777 926.003,605.263 927.447,604.719 928.877,604.146 930.294,603.543 931.693,602.911 933.079,602.25 934.446,601.562 935.799,600.846 937.135,600.102 938.453,599.331 939.754,598.534 941.037,597.709 942.302,596.86 943.548,595.985 944.775,595.084 945.983,594.159 "/>
     <polygon id="_453377616" class="fil1" points="901.224,609.623 2037.11,1745.51 2035.23,1745.48 2033.36,1745.41 2031.5,1745.29 2029.66,1745.13 2027.83,1744.92 2026.02,1744.67 2024.22,1744.37 2022.43,1744.03 2020.66,1743.64 2018.91,1743.21 2017.17,1742.74 2015.46,1742.23 2013.76,1741.68 2012.07,1741.09 2010.41,1740.45 2008.77,1739.78 2007.14,1739.07 2005.54,1738.32 2003.96,1737.54 2002.4,1736.72 2000.87,1735.86 1999.35,1734.96 1997.86,1734.03 1996.4,1733.07 1994.96,1732.07 1993.54,1731.04 1992.16,1729.97 1990.79,1728.88 1989.46,1727.75 1988.15,1726.59 1986.87,1725.4 1985.62,1724.18 849.742,588.295 850.992,589.515 852.271,590.705 853.577,591.865 854.912,592.994 856.275,594.091 857.663,595.156 859.078,596.188 860.518,597.186 861.982,598.15 863.472,599.08 864.985,599.974 866.521,600.833 868.079,601.656 869.661,602.442 871.262,603.189 872.885,603.899 874.529,604.571 876.192,605.203 877.874,605.796 879.575,606.349 881.293,606.86 883.029,607.33 884.782,607.758 886.551,608.143 888.337,608.486 890.137,608.784 891.951,609.038 893.781,609.247 895.622,609.41 897.478,609.528 899.345,609.599 "/>
     <polygon id="_453377880" class="fil1" points="889.543,794.554 2025.42,1930.44 1989.03,1930.44 853.149,794.554 "/>
     <polygon id="_453378024" class="fil1" points="1247.57,1078.58 2383.45,2214.46 2296.48,2214.46 1160.6,1078.58 "/>
     <polygon id="_453377832" class="fil1" points="1263.42,1103.04 2399.3,2238.92 2398.31,2237.94 1262.43,1102.06 "/>
     <polygon id="_453377928" class="fil1" points="1327.82,1131.42 2463.7,2267.3 2461.74,2267.28 2459.8,2267.21 2457.87,2267.11 2455.94,2266.96 2454.03,2266.77 2452.13,2266.54 2450.25,2266.26 2448.38,2265.95 2446.52,2265.6 2444.67,2265.21 2442.84,2264.78 2441.02,2264.31 2439.22,2263.81 2437.43,2263.26 2435.66,2262.68 2433.91,2262.06 2432.18,2261.41 2430.46,2260.72 2428.75,2260 2427.07,2259.24 2425.41,2258.45 2423.76,2257.62 2422.14,2256.76 2420.53,2255.86 2418.95,2254.94 2417.39,2253.98 2415.85,2252.99 2414.33,2251.97 2412.83,2250.92 2411.35,2249.84 2409.9,2248.73 2408.48,2247.59 1272.6,1111.7 1274.02,1112.84 1275.47,1113.96 1276.95,1115.04 1278.45,1116.09 1279.96,1117.11 1281.51,1118.1 1283.07,1119.06 1284.65,1119.98 1286.26,1120.88 1287.88,1121.74 1289.53,1122.56 1291.19,1123.36 1292.87,1124.12 1294.58,1124.84 1296.29,1125.53 1298.03,1126.18 1299.78,1126.8 1301.55,1127.38 1303.34,1127.92 1305.14,1128.43 1306.96,1128.9 1308.79,1129.33 1310.63,1129.72 1312.5,1130.07 1314.37,1130.38 1316.25,1130.65 1318.15,1130.89 1320.06,1131.08 1321.99,1131.23 1323.92,1131.33 1325.86,1131.4 "/>
     <polygon id="_453377496" class="fil1" points="853.149,794.554 1989.03,1930.44 1988.13,1932.22 1987.19,1933.98 1986.2,1935.71 1985.17,1937.41 1984.09,1939.08 1982.96,1940.71 1981.8,1942.31 1980.59,1943.88 1979.34,1945.42 1978.06,1946.92 1976.73,1948.38 1975.36,1949.8 1973.96,1951.19 1972.51,1952.54 1971.04,1953.85 1969.53,1955.12 833.644,819.237 835.157,817.967 836.633,816.657 838.074,815.309 839.479,813.921 840.845,812.495 842.174,811.033 843.462,809.534 844.711,808 845.918,806.431 847.083,804.829 848.206,803.194 849.285,801.526 850.32,799.828 851.309,798.1 852.252,796.341 "/>
     <polygon id="_453377544" class="fil1" points="833.644,819.237 1969.53,1955.12 1968.34,1956.07 1967.13,1956.99 1965.9,1957.89 1964.66,1958.77 1963.39,1959.62 1962.11,1960.44 1960.81,1961.24 1959.49,1962.01 1958.15,1962.76 1956.8,1963.47 1955.43,1964.16 1954.05,1964.82 1952.65,1965.45 1951.23,1966.06 1949.8,1966.63 1948.36,1967.17 1946.9,1967.69 1945.42,1968.17 1943.94,1968.62 1942.44,1969.04 1940.93,1969.43 1939.4,1969.79 1937.87,1970.12 1936.32,1970.41 1934.76,1970.67 1933.2,1970.9 1931.62,1971.09 1930.03,1971.25 1928.43,1971.37 1926.82,1971.46 1925.2,1971.51 1923.58,1971.53 787.698,835.649 789.323,835.632 790.94,835.577 792.547,835.489 794.147,835.365 795.735,835.207 797.314,835.014 798.883,834.787 800.441,834.527 801.988,834.234 803.523,833.91 805.047,833.552 806.559,833.161 808.058,832.74 809.544,832.288 811.016,831.804 812.475,831.29 813.92,830.747 815.35,830.173 816.765,829.57 818.166,828.938 819.55,828.278 820.919,827.59 822.271,826.873 823.607,826.13 824.925,825.359 826.227,824.561 827.509,823.737 828.774,822.888 830.02,822.012 831.247,821.111 832.456,820.186 "/>
     <polygon id="_453377640" class="fil1" points="787.698,835.649 1923.58,1971.53 1921.7,1971.51 1919.83,1971.44 1917.98,1971.32 1916.14,1971.16 1914.31,1970.95 1912.49,1970.69 1910.69,1970.39 1908.91,1970.05 1907.14,1969.67 1905.38,1969.24 1903.65,1968.77 1901.93,1968.26 1900.23,1967.71 1898.55,1967.11 1896.88,1966.48 1895.24,1965.81 1893.62,1965.1 1892.01,1964.35 1890.43,1963.57 1888.87,1962.74 1887.34,1961.88 1885.83,1960.99 1884.34,1960.06 1882.87,1959.1 1881.43,1958.1 1880.02,1957.07 1878.63,1956 1877.27,1954.9 1875.93,1953.78 1874.62,1952.62 1873.34,1951.42 1872.09,1950.2 736.214,814.322 737.463,815.542 738.742,816.733 740.05,817.893 741.384,819.022 742.746,820.119 744.135,821.183 745.55,822.216 746.99,823.214 748.456,824.177 749.945,825.107 751.458,826.002 752.993,826.861 754.553,827.683 756.133,828.468 757.736,829.217 759.358,829.927 761.001,830.599 762.664,831.231 764.347,831.824 766.048,832.375 767.767,832.887 769.503,833.357 771.256,833.784 773.025,834.17 774.811,834.512 776.611,834.811 778.425,835.065 780.255,835.274 782.096,835.437 783.951,835.555 785.819,835.626 "/>
     <polygon id="_453377688" class="fil1" points="1272.6,1111.7 2408.48,2247.59 2407.26,2246.58 2406.07,2245.55 2404.89,2244.49 2403.73,2243.42 2402.59,2242.33 2401.48,2241.21 1265.59,1105.33 1266.71,1106.44 1267.85,1107.54 1269.01,1108.61 1270.19,1109.66 1271.38,1110.69 "/>
     <polygon id="_453378648" class="fil1" points="1545.96,1390.85 2681.84,2526.73 2681.81,2528.28 2681.72,2529.81 2681.56,2531.34 2681.35,2532.86 2681.07,2534.37 2680.73,2535.86 2680.33,2537.35 2679.88,2538.83 2679.36,2540.3 2678.78,2541.75 2678.15,2543.2 2677.45,2544.64 2676.7,2546.06 2675.89,2547.48 2675.01,2548.88 2674.09,2550.28 1538.21,1414.39 1539.13,1413 1540,1411.59 1540.82,1410.18 1541.57,1408.75 1542.26,1407.32 1542.9,1405.87 1543.48,1404.41 1543.99,1402.95 1544.45,1401.47 1544.85,1399.98 1545.19,1398.48 1545.46,1396.98 1545.68,1395.46 1545.83,1393.93 1545.93,1392.39 "/>
     <polygon id="_453378552" class="fil1" points="1160.6,1078.58 2296.48,2214.46 2295.51,2218.21 2294.69,2221.88 2294.03,2225.48 2293.51,2229.01 2293.13,2232.47 2292.89,2235.87 2292.79,2239.2 2292.81,2242.48 2292.95,2245.7 2293.21,2248.87 2293.59,2251.99 2294.07,2255.06 2294.66,2258.09 2295.34,2261.07 2296.12,2264.02 2296.99,2266.94 2297.95,2269.82 2298.98,2272.67 2300.09,2275.5 2301.28,2278.3 2302.52,2281.08 2303.83,2283.85 2305.2,2286.6 2306.61,2289.34 2308.08,2292.07 2309.58,2294.79 2311.12,2297.52 2312.7,2300.24 2314.3,2302.96 2315.93,2305.69 2317.57,2308.43 2319.23,2311.19 1183.35,1175.3 1181.69,1172.55 1180.05,1169.81 1178.42,1167.08 1176.82,1164.36 1175.24,1161.63 1173.7,1158.91 1172.19,1156.19 1170.73,1153.46 1169.31,1150.72 1167.95,1147.97 1166.64,1145.2 1165.39,1142.42 1164.21,1139.62 1163.1,1136.79 1162.07,1133.94 1161.11,1131.06 1160.24,1128.14 1159.46,1125.19 1158.78,1122.21 1158.19,1119.18 1157.7,1116.1 1157.33,1112.99 1157.07,1109.82 1156.92,1106.6 1156.9,1103.32 1157.01,1099.99 1157.25,1096.59 1157.63,1093.13 1158.14,1089.6 1158.81,1086 1159.62,1082.33 "/>
     <polygon id="_453378240" class="fil1" points="1538.21,1474.26 2674.09,2610.15 2674.08,2610.66 1538.2,1474.78 "/>
     <polygon id="_453378504" class="fil1" points="1538.2,1474.78 2674.08,2610.66 2674.09,2610.98 1538.21,1475.1 "/>
     <polygon id="_453378072" class="fil1" points="1183.35,1175.3 2319.23,2311.19 2320.71,2313.64 2322.2,2316.1 2323.68,2318.58 2325.16,2321.08 2326.64,2323.59 2328.12,2326.11 2329.59,2328.66 2331.05,2331.23 2332.5,2333.82 2333.93,2336.43 2335.35,2339.08 2336.75,2341.75 2338.13,2344.45 2339.49,2347.18 2340.82,2349.95 2342.13,2352.75 2343.4,2355.59 2344.65,2358.47 2345.86,2361.38 2347.04,2364.34 2348.18,2367.35 2349.29,2370.39 2350.35,2373.49 2351.36,2376.63 2352.33,2379.83 2353.25,2383.07 2354.13,2386.37 2354.95,2389.73 2355.71,2393.14 2356.42,2396.62 2357.07,2400.15 2357.65,2403.75 1221.77,1267.86 1221.19,1264.27 1220.54,1260.74 1219.83,1257.26 1219.06,1253.85 1218.25,1250.49 1217.37,1247.19 1216.45,1243.95 1215.48,1240.75 1214.46,1237.61 1213.41,1234.51 1212.3,1231.46 1211.16,1228.46 1209.98,1225.5 1208.77,1222.58 1207.52,1219.71 1206.25,1216.87 1204.94,1214.07 1203.61,1211.3 1202.25,1208.57 1200.87,1205.87 1199.47,1203.2 1198.05,1200.55 1196.61,1197.94 1195.17,1195.35 1193.71,1192.78 1192.24,1190.23 1190.76,1187.7 1189.28,1185.19 1187.8,1182.7 1186.31,1180.22 1184.83,1177.76 "/>
     <polygon id="_453378456" class="fil1" points="887.402,1078.58 2023.28,2214.46 1936.31,2214.46 800.434,1078.58 "/>
     <polygon id="_453378336" class="fil1" points="1024,1584 2159.88,2719.88 2147.06,2719.86 2134.31,2719.77 2121.65,2719.63 2109.07,2719.43 2096.58,2719.17 2084.19,2718.87 2071.9,2718.5 2059.7,2718.09 2047.62,2717.62 2035.64,2717.1 2023.78,2716.53 2012.03,2715.91 2000.4,2715.24 1988.9,2714.53 1977.53,2713.76 1966.3,2712.94 1955.2,2712.08 1944.24,2711.18 1933.43,2710.22 1922.76,2709.23 1912.25,2708.19 1901.9,2707.1 1891.7,2705.97 1881.67,2704.8 1871.81,2703.59 1862.12,2702.34 1852.61,2701.05 1843.28,2699.72 1834.13,2698.35 1825.17,2696.95 1816.4,2695.5 1807.83,2694.02 671.952,1558.14 680.523,1559.62 689.291,1561.06 698.249,1562.47 707.397,1563.84 716.729,1565.17 726.24,1566.46 735.929,1567.71 745.79,1568.92 755.82,1570.09 766.014,1571.22 776.369,1572.3 786.881,1573.34 797.545,1574.34 808.358,1575.29 819.317,1576.2 830.416,1577.06 841.653,1577.88 853.023,1578.64 864.523,1579.36 876.147,1580.03 887.894,1580.65 899.757,1581.22 911.735,1581.74 923.822,1582.21 936.016,1582.62 948.31,1582.98 960.703,1583.29 973.19,1583.55 985.768,1583.74 998.43,1583.89 1011.18,1583.97 "/>
     <polygon id="_453378696" class="fil1" points="671.952,1558.14 1807.83,2694.02 1798.55,2692.33 1789.5,2690.57 1780.68,2688.74 1772.1,2686.86 1763.76,2684.9 1755.66,2682.89 1747.82,2680.81 1740.23,2678.67 1732.9,2676.47 1725.83,2674.22 1719.03,2671.9 1712.5,2669.52 1706.24,2667.09 1700.27,2664.6 1694.58,2662.05 1689.18,2659.45 1684.08,2656.8 1679.27,2654.09 1674.76,2651.33 1670.57,2648.51 1666.68,2645.65 1663.1,2642.73 527.223,1506.85 530.796,1509.77 534.684,1512.63 538.883,1515.44 543.388,1518.21 548.196,1520.91 553.301,1523.57 558.701,1526.17 564.389,1528.72 570.362,1531.21 576.616,1533.64 583.145,1536.01 589.947,1538.33 597.016,1540.59 604.347,1542.79 611.938,1544.93 619.783,1547.01 627.878,1549.02 636.219,1550.97 644.801,1552.86 653.62,1554.69 662.672,1556.45 "/>
     <polygon id="_453379032" class="fil1" points="800.434,1078.58 1936.31,2214.46 1935.23,2216.88 1934.07,2219.25 1932.85,2221.59 1931.55,2223.88 1930.2,2226.13 1928.77,2228.33 1927.29,2230.49 1925.74,2232.59 1924.13,2234.65 1922.46,2236.66 1920.74,2238.62 1918.96,2240.52 1917.12,2242.38 1915.23,2244.17 1913.28,2245.91 1911.28,2247.59 775.404,1111.7 777.4,1110.02 779.344,1108.29 781.236,1106.49 783.074,1104.64 784.856,1102.74 786.582,1100.78 788.249,1098.77 789.858,1096.71 791.405,1094.6 792.891,1092.45 794.314,1090.24 795.673,1088 796.965,1085.71 798.191,1083.37 799.347,1081 "/>
     <polygon id="_453378888" class="fil1" points="775.404,1111.7 1911.28,2247.59 1909.86,2248.73 1908.41,2249.84 1906.93,2250.92 1905.43,2251.97 1903.92,2252.99 1902.37,2253.98 1900.81,2254.94 1899.23,2255.86 1897.62,2256.76 1896,2257.62 1894.35,2258.45 1892.69,2259.24 1891.01,2260 1889.3,2260.72 1887.59,2261.41 1885.85,2262.06 1884.1,2262.68 1882.33,2263.26 1880.54,2263.81 1878.74,2264.31 1876.92,2264.78 1875.09,2265.21 1873.25,2265.6 1871.38,2265.95 1869.51,2266.26 1867.63,2266.54 1865.73,2266.77 1863.82,2266.96 1861.89,2267.11 1859.96,2267.21 1858.02,2267.28 1856.06,2267.3 720.182,1131.42 722.137,1131.4 724.08,1131.33 726.014,1131.23 727.936,1131.08 729.846,1130.89 731.745,1130.65 733.63,1130.38 735.504,1130.07 737.364,1129.72 739.21,1129.33 741.041,1128.9 742.858,1128.43 744.66,1127.92 746.445,1127.38 748.216,1126.8 749.969,1126.18 751.705,1125.53 753.423,1124.84 755.125,1124.12 756.807,1123.36 758.471,1122.56 760.116,1121.74 761.741,1120.88 763.346,1119.98 764.93,1119.06 766.492,1118.1 768.035,1117.11 769.554,1116.09 771.051,1115.04 772.525,1113.96 773.977,1112.84 "/>
     <polygon id="_453378840" class="fil1" points="720.182,1131.42 1856.06,2267.3 1853.81,2267.27 1851.56,2267.19 1849.33,2267.05 1847.12,2266.85 1844.92,2266.6 1842.74,2266.29 1840.58,2265.93 1838.43,2265.52 1836.31,2265.06 1834.2,2264.55 1832.11,2263.98 1830.05,2263.37 1828.01,2262.7 1825.98,2261.99 1823.99,2261.23 1822.01,2260.42 1820.06,2259.57 1818.14,2258.67 1816.24,2257.73 1814.36,2256.74 1812.52,2255.71 1810.7,2254.63 1808.91,2253.52 1807.15,2252.36 1805.42,2251.16 1803.72,2249.92 1802.05,2248.64 1800.41,2247.32 1798.81,2245.96 1797.24,2244.57 661.359,1108.69 662.93,1110.08 664.534,1111.44 666.171,1112.76 667.838,1114.04 669.538,1115.28 671.268,1116.47 673.029,1117.63 674.819,1118.75 676.636,1119.83 678.482,1120.86 680.356,1121.85 682.255,1122.79 684.18,1123.69 686.13,1124.54 688.105,1125.35 690.103,1126.11 692.124,1126.82 694.167,1127.48 696.233,1128.1 698.319,1128.66 700.426,1129.18 702.552,1129.64 704.697,1130.05 706.861,1130.41 709.041,1130.72 711.238,1130.97 713.451,1131.16 715.681,1131.3 717.924,1131.39 "/>
     <polygon id="_453379080" class="fil1" points="1376.05,1558.14 2511.93,2694.02 2503.36,2695.5 2494.59,2696.95 2485.63,2698.35 2476.48,2699.72 2467.15,2701.05 2457.64,2702.34 2447.95,2703.59 2438.09,2704.8 2428.06,2705.97 2417.87,2707.1 2407.51,2708.19 2397,2709.23 2386.34,2710.22 2375.52,2711.18 2364.56,2712.08 2353.47,2712.94 2342.23,2713.76 2330.86,2714.53 2319.36,2715.24 2307.73,2715.91 2295.99,2716.53 2284.12,2717.1 2272.15,2717.62 2260.06,2718.09 2247.87,2718.5 2235.57,2718.87 2223.18,2719.17 2210.69,2719.43 2198.11,2719.63 2185.45,2719.77 2172.7,2719.86 2159.88,2719.88 1024,1584 1036.82,1583.97 1049.57,1583.89 1062.23,1583.74 1074.81,1583.55 1087.3,1583.29 1099.69,1582.98 1111.98,1582.62 1124.18,1582.21 1136.27,1581.74 1148.24,1581.22 1160.11,1580.65 1171.85,1580.03 1183.48,1579.36 1194.98,1578.64 1206.35,1577.88 1217.58,1577.06 1228.68,1576.2 1239.64,1575.29 1250.46,1574.34 1261.12,1573.34 1271.63,1572.3 1281.99,1571.22 1292.18,1570.09 1302.21,1568.92 1312.07,1567.71 1321.76,1566.46 1331.27,1565.17 1340.6,1563.84 1349.75,1562.47 1358.71,1561.06 1367.48,1559.62 "/>
     <polygon id="_453379200" class="fil1" points="1530.97,1358.67 2666.85,2494.56 2668.44,2496.21 2669.95,2497.87 2671.37,2499.56 2672.7,2501.26 2673.94,2502.97 2675.1,2504.71 2676.16,2506.45 2677.14,2508.22 2678.02,2510 2678.82,2511.8 2679.52,2513.61 2680.13,2515.44 2680.65,2517.28 2681.08,2519.14 2681.41,2521.01 2681.65,2522.9 2681.79,2524.81 2681.84,2526.73 1545.96,1390.85 1545.91,1388.93 1545.77,1387.02 1545.53,1385.13 1545.2,1383.26 1544.77,1381.4 1544.25,1379.55 1543.64,1377.73 1542.94,1375.91 1542.14,1374.12 1541.26,1372.34 1540.28,1370.57 1539.22,1368.82 1538.06,1367.09 1536.82,1365.37 1535.49,1363.67 1534.07,1361.99 1532.56,1360.32 "/>
     <polygon id="_453379272" class="fil1" points="1538.21,1414.39 2674.09,2550.28 2674.09,2610.15 1538.21,1474.26 "/>
     <polygon id="_453379224" class="fil1" points="1221.77,1267.86 2357.65,2403.75 2357.8,2404.75 2357.95,2405.76 2358.09,2406.76 2358.23,2407.77 2358.36,2408.78 2358.49,2409.79 2358.61,2410.8 2358.73,2411.82 2358.84,2412.83 2358.95,2413.85 2359.05,2414.87 2359.14,2415.88 2359.24,2416.9 2359.32,2417.93 2359.41,2418.95 2359.48,2419.97 1223.6,1284.09 1223.52,1283.07 1223.44,1282.04 1223.35,1281.02 1223.26,1280 1223.17,1278.98 1223.06,1277.97 1222.96,1276.95 1222.84,1275.94 1222.73,1274.92 1222.61,1273.91 1222.48,1272.9 1222.35,1271.89 1222.21,1270.88 1222.07,1269.87 1221.92,1268.87 "/>
     <polygon id="_453378936" class="fil1" points="1538.21,1475.1 2674.09,2610.98 2673.91,2614.35 2673.37,2617.69 2672.47,2620.98 2671.23,2624.23 2669.64,2627.43 2667.71,2630.58 2665.44,2633.69 2662.84,2636.76 2659.91,2639.77 2656.66,2642.73 2653.09,2645.65 2649.2,2648.51 2645,2651.33 2640.49,2654.09 2635.69,2656.8 2630.58,2659.45 2625.18,2662.05 2619.49,2664.6 2613.52,2667.09 2607.27,2669.52 2600.74,2671.9 2593.93,2674.22 2586.87,2676.47 2579.53,2678.67 2571.94,2680.81 2564.1,2682.89 2556,2684.9 2547.66,2686.86 2539.08,2688.74 2530.26,2690.57 2521.21,2692.33 2511.93,2694.02 1376.05,1558.14 1385.33,1556.45 1394.38,1554.69 1403.2,1552.86 1411.78,1550.97 1420.12,1549.02 1428.22,1547.01 1436.06,1544.93 1443.65,1542.79 1450.98,1540.59 1458.05,1538.33 1464.86,1536.01 1471.38,1533.64 1477.64,1531.21 1483.61,1528.72 1489.3,1526.17 1494.7,1523.57 1499.8,1520.91 1504.61,1518.21 1509.12,1515.44 1513.32,1512.63 1517.2,1509.77 1520.78,1506.85 1524.03,1503.89 1526.96,1500.87 1529.56,1497.81 1531.83,1494.7 1533.76,1491.55 1535.35,1488.34 1536.59,1485.1 1537.49,1481.81 1538.03,1478.47 "/>
     <polygon id="_453378864" class="fil1" points="849.742,588.295 1985.62,1724.18 1984.4,1722.93 848.522,587.045 "/>
     <polygon id="_453379008" class="fil1" points="1158.45,794.554 2294.34,1930.44 2294.34,2092.32 1158.45,956.441 "/>
     <polygon id="_453379632" class="fil1" points="1415.3,1043.93 2551.19,2179.81 2551.16,2182.07 2551.07,2184.31 2550.93,2186.54 2550.73,2188.76 2550.48,2190.95 2550.18,2193.13 2549.82,2195.3 2549.41,2197.44 2548.94,2199.57 2548.43,2201.68 2547.87,2203.76 2547.25,2205.83 2546.59,2207.87 2545.88,2209.89 2545.12,2211.89 2544.31,2213.86 2543.46,2215.81 2542.56,2217.74 2541.61,2219.64 2540.63,2221.51 2539.59,2223.36 2538.52,2225.18 2537.4,2226.97 2536.24,2228.73 2535.04,2230.46 2533.8,2232.16 2532.52,2233.82 2531.21,2235.46 2529.85,2237.07 2528.46,2238.64 2527.03,2240.17 2525.56,2241.67 1389.68,1105.79 1391.14,1104.29 1392.58,1102.75 1393.97,1101.18 1395.32,1099.58 1396.64,1097.94 1397.92,1096.27 1399.16,1094.57 1400.36,1092.84 1401.52,1091.08 1402.64,1089.29 1403.71,1087.48 1404.74,1085.63 1405.73,1083.76 1406.68,1081.86 1407.58,1079.93 1408.43,1077.98 1409.24,1076.01 1410,1074.01 1410.71,1071.99 1411.37,1069.94 1411.99,1067.88 1412.55,1065.79 1413.06,1063.69 1413.53,1061.56 1413.94,1059.42 1414.3,1057.25 1414.6,1055.07 1414.85,1052.87 1415.05,1050.66 1415.19,1048.43 1415.28,1046.19 "/>
     <polygon id="_453379704" class="fil1" points="1389.68,1105.79 2525.56,2241.67 2524.06,2243.14 2522.52,2244.57 2520.95,2245.96 2519.35,2247.32 2517.71,2248.64 2516.04,2249.92 2514.34,2251.16 2512.61,2252.36 2510.85,2253.52 2509.06,2254.63 2507.24,2255.71 2505.4,2256.74 2503.53,2257.73 2501.63,2258.67 2499.7,2259.57 2497.75,2260.42 2495.78,2261.23 2493.78,2261.99 2491.76,2262.7 2489.71,2263.37 2487.65,2263.98 2485.56,2264.55 2483.46,2265.06 2481.33,2265.52 2479.18,2265.93 2477.02,2266.29 2474.84,2266.6 2472.64,2266.85 2470.43,2267.05 2468.2,2267.19 2465.96,2267.27 2463.7,2267.3 1327.82,1131.42 1330.07,1131.39 1332.32,1131.3 1334.55,1131.16 1336.76,1130.97 1338.96,1130.72 1341.14,1130.41 1343.3,1130.05 1345.45,1129.64 1347.57,1129.18 1349.68,1128.66 1351.77,1128.1 1353.83,1127.48 1355.87,1126.82 1357.9,1126.11 1359.9,1125.35 1361.87,1124.54 1363.82,1123.69 1365.74,1122.79 1367.64,1121.85 1369.52,1120.86 1371.36,1119.83 1373.18,1118.75 1374.97,1117.63 1376.73,1116.47 1378.46,1115.28 1380.16,1114.04 1381.83,1112.76 1383.47,1111.44 1385.07,1110.08 1386.64,1108.69 1388.18,1107.26 "/>
    </g>
    <path id="_451245392" class="fil1" d="M901.224 464l245.548 0c20.1047,0 38.3079,8.15079 51.4831,21.3284 13.1764,13.1752 21.3284,31.3784 21.3284,51.4819 0,20.1036 -8.15197,38.3079 -21.3284,51.4843 -13.1752,13.1764 -31.3784,21.3284 -51.4831,21.3284 -17.3788,0 -33.3792,-6.15473 -45.9461,-16.4138 -1.38189,-1.12795 -2.72126,-2.30551 -4.01575,-3.5315l0 100.349 163.489 0c20.1047,0 38.3067,8.15079 51.4831,21.3284 13.1788,13.1764 21.3295,31.3796 21.3295,51.4843 0,20.1024 -8.15079,38.3055 -21.3295,51.4831 -13.1764,13.1764 -31.3784,21.3272 -51.4831,21.3272 -17.3788,0 -33.3768,-6.15355 -45.9461,-16.4126 -8.16024,-6.6626 -14.85,-15.0768 -19.5047,-24.6827l-36.3945 0 0 161.887 169.362 0c24.1571,0 46.03,9.79371 61.8615,25.6264 15.8327,15.8339 25.6264,37.7067 25.6264,61.8626 0,24.1559 -9.79371,46.03 -25.6264,61.8615 -15.8315,15.8327 -37.7044,25.6264 -61.8615,25.6264 -20.8973,0 -40.1256,-7.39134 -55.2213,-19.7138 -3.26221,-2.66339 -6.32953,-5.55945 -9.17599,-8.66339 -5.3563,-5.16969 -9.74056,-11.3398 -12.8539,-18.2079 -1.07835,-2.0374 -2.07992,-4.12205 -3,-6.25158l-86.9682 0c-11.2146,40.3937 5.00552,67.2957 22.754,96.7217 15.7571,26.1248 32.4874,53.8642 38.4213,92.5619 0.819686,5.35276 1.4315,10.761 1.82953,16.2248 49.793,2.97166 99.7761,8.33623 153.946,17.7567 51.7807,9.00355 93.6426,21.0272 122.393,35.5099 29.6516,14.9386 46.017,32.9244 46.017,53.491 0,8.27717 -2.6504,16.1374 -7.75158,23.5477l0 59.8701 -0.00590552 0.514961 0.00708662 0.315355c0,36.2492 -61.9701,65.3327 -162.16,83.0457 -90.365,15.9768 -214.857,25.8603 -352.048,25.8603 -137.191,0 -261.683,-9.88347 -352.048,-25.8603 -100.189,-17.713 -162.16,-46.7965 -162.16,-83.0457l0.00708662 -0.315355 -0.00590552 -0.514961 0 -59.8701c-5.10119,-7.41024 -7.75158,-15.2705 -7.75158,-23.5477 0,-20.5666 16.3654,-38.5524 46.017,-53.491 28.7504,-14.4827 70.6123,-26.5063 122.393,-35.5099 52.4953,-9.12993 103.249,-14.1189 153.885,-16.9063 0.39567,-5.75315 1.02638,-11.4449 1.88977,-17.0752 5.93268,-38.6977 22.6642,-66.4371 38.4213,-92.5619 17.7473,-29.426 33.9685,-56.328 22.754,-96.7217l-86.9682 0c-5.60788,12.9839 -14.2512,24.3248 -25.0299,33.1229 -15.0957,12.3225 -34.324,19.7138 -55.2213,19.7138 -24.1559,0 -46.03,-9.79371 -61.8615,-25.6264 -15.8327,-15.8315 -25.6264,-37.7055 -25.6264,-61.8615 0,-24.1559 9.79371,-46.0288 25.6264,-61.8626 15.8315,-15.8327 37.7055,-25.6264 61.8615,-25.6264l169.361 0 0 -161.887 -36.3945 0c-4.65473,9.60591 -11.3457,18.0213 -19.5047,24.6827 -12.5681,10.2591 -28.5673,16.4126 -45.9461,16.4126 -20.1036,0 -38.3067,-8.15079 -51.4843,-21.3272 -13.1776,-13.1776 -21.3284,-31.3807 -21.3284,-51.4831 0,-20.1047 8.15079,-38.3079 21.3284,-51.4843 13.1776,-13.1776 31.3807,-21.3284 51.4843,-21.3284l163.489 0 0 -100.349c-1.29449,1.22599 -2.63386,2.40355 -4.01575,3.5315 -12.5669,10.2591 -28.5673,16.4138 -45.9473,16.4138 -20.1036,0 -38.3067,-8.15197 -51.4819,-21.3284 -13.1776,-13.1764 -21.3284,-31.3807 -21.3284,-51.4843 0,-20.1036 8.15079,-38.3067 21.3284,-51.4819 13.1752,-13.1776 31.3784,-21.3284 51.4819,-21.3284z"/>
   </g>
  </g>
  <path class="fil2" d="M1024 -0.0011811c565.539,0 1024,458.462 1024,1024 0,565.539 -458.462,1024 -1024,1024 -565.539,0 -1024,-458.462 -1024,-1024 0,-565.539 458.462,-1024 1024,-1024z"/>
  <path class="fil3" d="M1538.2 1474.78l0.00708662 0.316536c0,36.2481 -61.9701,65.3315 -162.16,83.0446 -90.3662,15.9768 -214.856,25.8603 -352.048,25.8603 -137.192,0 -261.682,-9.88347 -352.048,-25.8603 -100.189,-17.713 -162.16,-46.7965 -162.16,-83.0446l0.00708662 -0.316536c-0.00472441,-0.17126 -0.00590552,-0.343701 -0.00590552,-0.514961l0 -85.2898c39.0378,36.9685 121.165,52.9217 158.488,59.5193 52.9524,9.36261 106.976,15.1654 160.559,19.1847 64.8898,4.86733 130.097,6.99686 195.16,6.99686 65.0623,0 130.27,-2.12953 195.16,-6.99686 53.5831,-4.01929 107.607,-9.82205 160.559,-19.1847 37.3229,-6.59764 119.45,-22.5508 158.488,-59.5193l0 85.2898 -0.00590552 0.514961z"/>
  <path class="fil4" d="M1376.31 1309.1c100.264,17.4366 162.28,46.0666 162.28,81.7512 0,35.6847 -62.0162,64.3146 -162.28,81.7512 -90.4335,15.7276 -215.019,25.4551 -352.311,25.4551 -137.293,0 -261.878,-9.72757 -352.311,-25.4551 -100.264,-17.4366 -162.28,-46.0666 -162.28,-81.7512 0,-35.6847 62.0162,-64.3146 162.28,-81.7512 122.934,-21.3803 236.379,-19.9524 361.251,-20.8512 123.145,-0.885827 222.685,-0.138189 343.372,20.8512z"/>
  <path class="fil5" d="M1377.55 1301.85c51.7807,9.00355 93.6426,21.0272 122.393,35.5099 29.6516,14.9386 46.017,32.9244 46.017,53.491 0,20.5677 -16.3654,38.5524 -46.017,53.4898 -28.7504,14.4839 -70.6123,26.5075 -122.393,35.5111 -46.2933,8.05158 -101.479,14.537 -162.704,18.9603 -58.9595,4.26024 -123.428,6.61182 -190.844,6.61182 -67.4162,0 -131.884,-2.35158 -190.844,-6.61182 -61.2249,-4.42323 -116.411,-10.9087 -162.704,-18.9603 -51.7807,-9.00355 -93.6426,-21.0272 -122.393,-35.5111 -29.6516,-14.9374 -46.017,-32.9221 -46.017,-53.4898 0,-20.5666 16.3654,-38.5524 46.017,-53.491 28.7504,-14.4827 70.6123,-26.5063 122.393,-35.5099 112.286,-19.5295 216.607,-20.1106 328.843,-20.7319 11.1213,-0.0614174 22.3229,-0.125197 33.6166,-0.205512 61.754,-0.444095 117.576,-0.479528 172.982,2.22166 55.7079,2.71654 111.063,8.17796 171.654,18.7158zm115.776 48.6296c-27.4146,-13.8095 -67.8662,-25.3677 -118.251,-34.1292 -60.0922,-10.4504 -114.853,-15.861 -169.871,-18.5433 -55.3193,-2.69646 -110.843,-2.66221 -172.234,-2.22166 -11.2925,0.080315 -22.4941,0.144095 -33.6154,0.205512 -111.471,0.617717 -215.084,1.1941 -326.426,20.5595 -50.3847,8.76142 -90.8363,20.3197 -118.251,34.1292 -24.4217,12.3024 -37.9016,25.9323 -37.9016,40.3713 0,14.439 13.4799,28.0689 37.9016,40.3713 27.4146,13.8095 67.8662,25.3677 118.251,34.1292 45.8552,7.97481 100.551,14.4012 161.264,18.7878 58.4315,4.22244 122.539,6.55158 189.809,6.55158 67.2697,0 131.378,-2.32914 189.809,-6.55158 60.7134,-4.38662 115.409,-10.813 161.264,-18.7878 50.3847,-8.76142 90.8363,-20.3197 118.251,-34.1292 24.4217,-12.3024 37.9016,-25.9323 37.9016,-40.3713 0,-14.439 -13.4799,-28.0689 -37.9016,-40.3713z"/>
  <path class="fil3" d="M972.629 525.644l102.739 0c11.8406,0 21.4417,13.8071 21.4417,30.8386l0 174.745 -145.623 0 0 -174.745c0,-17.0315 9.60001,-30.8386 21.4417,-30.8386z"/>
  <path class="fil6" d="M972.629 525.644l49.4044 0 0 205.585 -70.8461 0 0 -174.748c0,-17.0303 9.60001,-30.8374 21.4417,-30.8374z"/>
  <path class="fil3" d="M910.985 751.672l226.028 0c11.8417,0 21.4417,13.9973 21.4417,31.2614l0 236.023 -268.911 0 0 -236.023c0,-17.2642 9.60001,-31.2614 21.4417,-31.2614z"/>
  <path class="fil6" d="M910.985 751.672l113.35 0 0 267.285 -134.792 0 0 -236.023c0,-17.2642 9.60119,-31.2614 21.4417,-31.2614z"/>
  <path class="fil3" d="M880.503 1059.64c22.898,51.404 4.52835,81.8705 -15.8563,115.668 -15.7559,26.1248 -32.4862,53.8642 -38.4201,92.5619 -3.23504,21.1075 -3.21851,43.0843 0.301181,65.9245 3.31063,21.4878 9.74174,43.7622 19.4988,66.8126 2.48386,7.20119 8.73662,12.848 16.7799,14.178l0.0649607 -0.0472441c52.3028,8.65158 105.367,13.0843 159.214,13.1374 53.1733,0.0519685 106.912,-4.18347 161.234,-12.861 7.70552,-0.591733 14.8276,-5.34213 18.0827,-12.9366l-0.0259843 -0.0708662c10.0925,-23.5488 16.7162,-46.2898 20.0953,-68.2123 3.51851,-22.8402 3.53622,-44.817 0.3,-65.9245 -5.93268,-38.6977 -22.663,-66.4371 -38.4201,-92.5619 -20.3847,-33.7973 -38.7532,-64.2638 -15.8551,-115.668l-286.993 0z"/>
  <path class="fil6" d="M880.503 1059.64c22.898,51.404 4.52835,81.8705 -15.8551,115.668 -15.7571,26.1248 -32.4886,53.8642 -38.4213,92.5619 -3.23504,21.1075 -3.21851,43.0843 0.301181,65.9245 3.31063,21.4878 9.74174,43.7611 19.4988,66.8126 2.48386,7.20119 8.73662,12.848 16.7799,14.178l0.0637796 -0.0472441c52.3052,8.65158 105.369,13.0843 159.215,13.1374l2.25 -0.0011811 0 -368.234 -143.832 0z"/>
  <path class="fil4" d="M1260.3 690.027c20.1036,0 38.3067,8.15079 51.4843,21.3284 13.1776,13.1776 21.3272,31.3796 21.3272,51.4831 0,20.1036 -8.14961,38.3067 -21.3272,51.4843 -13.1776,13.1764 -31.3807,21.3272 -51.4843,21.3272 -17.3788,0 -33.3768,-6.15355 -45.9461,-16.4126 -8.16024,-6.6626 -14.85,-15.0768 -19.5047,-24.6815l-341.7 0c-4.65591,9.60473 -11.3445,18.0201 -19.5047,24.6815 -12.5693,10.2591 -28.5673,16.4126 -45.9461,16.4126 -20.1036,0 -38.3067,-8.15079 -51.4843,-21.3272 -13.1776,-13.1776 -21.3272,-31.3807 -21.3272,-51.4843 0,-20.1036 8.14961,-38.3055 21.3272,-51.4831 13.1776,-13.1776 31.3807,-21.3284 51.4843,-21.3284l472.602 0z"/>
  <path class="fil4" d="M1146.77 464c20.1047,0 38.3079,8.15197 51.4831,21.3284 13.1764,13.1752 21.3284,31.3784 21.3284,51.4831 0,20.1036 -8.15197,38.3079 -21.3284,51.4831 -13.1752,13.1764 -31.3784,21.3284 -51.4831,21.3284 -17.3788,0 -33.3792,-6.15473 -45.9461,-16.4138 -8.16024,-6.66142 -14.8488,-15.0768 -19.5047,-24.6815l-114.645 0c-4.65591,9.60473 -11.3445,18.0201 -19.5047,24.6815 -12.5669,10.2591 -28.5673,16.4138 -45.9461,16.4138 -20.1047,0 -38.3079,-8.15197 -51.4831,-21.3284 -13.1764,-13.1752 -21.3284,-31.3796 -21.3284,-51.4831 0,-20.1047 8.15197,-38.3079 21.3284,-51.4831 13.1752,-13.1764 31.3784,-21.3284 51.4831,-21.3284l245.547 0z"/>
  <path class="fil4" d="M1327.82 956.441c24.1559,0 46.03,9.79489 61.8615,25.6264 15.8327,15.8327 25.6264,37.7055 25.6264,61.8626 0,24.1559 -9.79371,46.0288 -25.6264,61.8615 -15.8315,15.8327 -37.7055,25.6264 -61.8615,25.6264 -20.8973,0 -40.1256,-7.39134 -55.2213,-19.715 -10.7787,-8.79686 -19.4221,-20.139 -25.0299,-33.1217l-447.131 0c-5.60788,12.9827 -14.2512,24.3248 -25.0299,33.1217 -15.0957,12.3236 -34.324,19.715 -55.2213,19.715 -24.1559,0 -46.0288,-9.79371 -61.8615,-25.6264 -15.8327,-15.8327 -25.6264,-37.7055 -25.6264,-61.8615 0,-24.1571 9.79371,-46.03 25.6264,-61.8626 15.8327,-15.8315 37.7055,-25.6264 61.8615,-25.6264l607.634 0z"/>
  <ellipse class="fil7" cx="742.933" cy="1060.39" rx="59.2718" ry="59.2718"/>
  <ellipse class="fil7" cx="1304.58" cy="1060.39" rx="59.2718" ry="59.2718"/>
  <ellipse class="fil7" cx="811.104" cy="776.115" rx="44.8832" ry="44.8832"/>
  <ellipse class="fil7" cx="1236.41" cy="776.115" rx="44.8832" ry="44.8832"/>
  <ellipse class="fil7" cx="938.363" cy="559.743" rx="28.8846" ry="28.8846"/>
  <ellipse class="fil7" cx="1109.64" cy="559.743" rx="28.8846" ry="28.8846"/>
 </g>
</svg>
