<?xml version="1.0" encoding="UTF-8"?>
<!DOCTYPE svg PUBLIC "-//W3C//DTD SVG 1.1//EN" "http://www.w3.org/Graphics/SVG/1.1/DTD/svg11.dtd">
<!-- Creator: CorelDRAW -->
<svg xmlns="http://www.w3.org/2000/svg" xml:space="preserve" width="2048px" height="2048px" style="shape-rendering:geometricPrecision; text-rendering:geometricPrecision; image-rendering:optimizeQuality; fill-rule:evenodd; clip-rule:evenodd"
viewBox="0 0 2048 2048"
 xmlns:xlink="http://www.w3.org/1999/xlink">
 <defs>
  <style type="text/css">
   <![CDATA[
    .fil2 {fill:none}
    .fil7 {fill:#3E2723}
    .fil4 {fill:#4E342E}
    .fil6 {fill:#5D4037}
    .fil13 {fill:#B2EBF2}
    .fil1 {fill:#D32F2F}
    .fil0 {fill:#EF5350}
    .fil14 {fill:#FFAB91}
    .fil15 {fill:#FFCCBC}
    .fil10 {fill:#1FBED2;fill-rule:nonzero}
    .fil9 {fill:#26C6DA;fill-rule:nonzero}
    .fil8 {fill:#28B9CC;fill-rule:nonzero}
    .fil3 {fill:#4E342E;fill-rule:nonzero}
    .fil5 {fill:#6D4C41;fill-rule:nonzero}
    .fil12 {fill:#B0BEC5;fill-rule:nonzero}
    .fil11 {fill:#CFD8DC;fill-rule:nonzero}
   ]]>
  </style>
   <clipPath id="id0">
    <path d="M1024 -0.0011811c565.539,0 1024,458.462 1024,1024 0,565.539 -458.462,1024 -1024,1024 -565.539,0 -1024,-458.462 -1024,-1024 0,-565.539 458.462,-1024 1024,-1024z"/>
   </clipPath>
 </defs>
 <g id="Layer_x0020_1">
  <metadata id="CorelCorpID_0Corel-Layer"/>
  <path class="fil0" d="M1024 -0.0011811c565.539,0 1024,458.462 1024,1024 0,565.539 -458.462,1024 -1024,1024 -565.539,0 -1024,-458.462 -1024,-1024 0,-565.539 458.462,-1024 1024,-1024z"/>
  <g style="clip-path:url(#id0)">
   <g id="_451250480">
    <g>
     <polygon id="_2863450241" class="fil1" points="1578.78,483.748 2714.66,1619.63 2715.98,1621.39 2717.12,1623.27 2718.08,1625.27 2718.85,1627.37 2719.42,1629.56 2719.76,1631.83 2719.88,1634.17 1584,498.287 1583.88,495.95 1583.54,493.681 1582.97,491.49 1582.2,489.39 1581.24,487.392 1580.1,485.508 "/>
     <polygon id="_286344568" class="fil1" points="1584,498.287 2719.88,1634.17 2719.88,1938.7 1584,802.815 "/>
     <polygon id="_286346392" class="fil1" points="1584,802.815 2719.88,1938.7 2719.88,1938.73 2719.88,1938.76 2719.88,1938.79 2719.88,1938.81 2719.88,1938.84 2719.88,1938.87 2719.88,1938.9 2719.88,1938.93 1584,803.05 1584,803.02 1584,802.991 1584,802.961 1584,802.932 1584,802.903 1584,802.874 1584,802.844 "/>
     <polygon id="_286346512" class="fil1" points="1584,803.05 2719.88,1938.93 2719.88,1938.96 2719.88,1938.99 2719.88,1939.02 2719.88,1939.05 2719.88,1939.08 2719.88,1939.11 2719.88,1939.14 2719.88,1939.17 1584,803.285 1584,803.255 1584,803.226 1584,803.196 1584,803.167 1584,803.138 1584,803.109 1584,803.079 "/>
     <polygon id="_286346464" class="fil1" points="1584,803.285 2719.88,1939.17 2719.88,2639.88 1584,1504 "/>
     <polygon id="_286346656" class="fil1" points="1584,1504 2719.88,2639.88 2719.76,2642.22 2719.42,2644.49 2718.85,2646.68 2718.08,2648.78 2717.12,2650.78 2715.98,2652.66 2714.66,2654.42 2713.19,2656.04 2711.56,2657.52 2709.8,2658.84 2707.92,2659.98 2705.92,2660.94 2703.82,2661.71 2701.63,2662.28 2699.36,2662.62 2697.02,2662.74 1561.14,1526.86 1563.48,1526.74 1565.75,1526.39 1567.94,1525.83 1570.04,1525.06 1572.04,1524.1 1573.92,1522.95 1575.68,1521.64 1577.31,1520.16 1578.78,1518.54 1580.1,1516.78 1581.24,1514.89 1582.2,1512.9 1582.97,1510.8 1583.54,1508.61 1583.88,1506.34 "/>
     <polygon id="_286346680" class="fil1" points="1561.14,1526.86 2697.02,2662.74 2678.98,2662.74 1543.1,1526.86 "/>
     <polygon id="_286345936" class="fil1" points="1543.1,1526.86 2678.98,2662.74 2678.98,2687.69 1543.1,1551.81 "/>
     <polygon id="_286346032" class="fil1" points="1497.39,1526.86 2633.27,2662.74 2159.88,2662.74 1024,1526.85 "/>
     <polygon id="_286346872" class="fil1" points="1520.25,1572.57 2656.13,2708.45 2653.79,2708.35 2651.52,2708.03 2649.33,2707.52 2647.23,2706.82 2645.23,2705.95 2643.35,2704.91 2641.59,2703.71 2639.96,2702.37 1504.08,1566.49 1505.71,1567.83 1507.47,1569.02 1509.35,1570.07 1511.35,1570.94 1513.45,1571.64 1515.64,1572.15 1517.91,1572.46 "/>
     <polygon id="_286347424" class="fil1" points="1543.1,1551.81 2678.98,2687.69 2678.87,2689.82 2678.52,2691.88 2677.96,2693.87 2677.19,2695.77 2676.22,2697.59 2675.08,2699.3 2673.76,2700.9 2672.29,2702.37 2670.66,2703.71 2668.91,2704.91 2667.02,2705.95 2665.02,2706.82 2662.92,2707.52 2660.73,2708.03 2658.46,2708.35 2656.13,2708.45 1520.25,1572.57 1522.58,1572.46 1524.85,1572.15 1527.04,1571.64 1529.14,1570.94 1531.14,1570.07 1533.02,1569.02 1534.78,1567.83 1536.41,1566.49 1537.88,1565.02 1539.2,1563.42 1540.34,1561.71 1541.31,1559.89 1542.07,1557.99 1542.64,1556 1542.98,1553.94 "/>
     <polygon id="_286346896" class="fil1" points="1024,1526.85 2159.88,2662.74 1686.49,2662.74 550.613,1526.86 "/>
     <polygon id="_286347232" class="fil1" points="550.613,1526.86 1686.49,2662.74 1686.49,2687.69 550.613,1551.81 "/>
     <polygon id="_286347088" class="fil1" points="504.898,1526.86 1640.78,2662.74 1622.74,2662.74 486.857,1526.86 "/>
     <polygon id="_286346752" class="fil1" points="486.857,1526.86 1622.74,2662.74 1620.4,2662.62 1618.13,2662.28 1615.94,2661.71 1613.84,2660.94 1611.84,2659.98 1609.96,2658.84 1608.2,2657.52 472.317,1521.64 474.077,1522.95 475.961,1524.1 477.959,1525.06 480.059,1525.83 482.25,1526.39 484.519,1526.74 "/>
     <polygon id="_286347184" class="fil1" points="550.613,1551.81 1686.49,2687.69 1686.38,2689.82 1686.03,2691.88 1685.47,2693.87 1684.7,2695.77 1683.73,2697.59 1682.59,2699.3 1681.27,2700.9 1679.8,2702.37 1678.18,2703.71 1676.42,2704.91 1674.53,2705.95 1672.53,2706.82 1670.43,2707.52 1668.24,2708.03 1665.97,2708.35 1663.64,2708.45 527.755,1572.57 530.092,1572.46 532.361,1572.15 534.552,1571.64 536.652,1570.94 538.65,1570.07 540.534,1569.02 542.294,1567.83 543.917,1566.49 545.393,1565.02 546.709,1563.42 547.854,1561.71 548.816,1559.89 549.585,1557.99 550.148,1556 550.495,1553.94 "/>
     <polygon id="_286347280" class="fil1" points="527.755,1572.57 1663.64,2708.45 1661.3,2708.35 1659.03,2708.03 1656.84,2707.52 1654.74,2706.82 1652.74,2705.95 1650.86,2704.91 1649.1,2703.71 513.217,1567.83 514.975,1569.02 516.86,1570.07 518.859,1570.94 520.959,1571.64 523.148,1572.15 525.419,1572.46 "/>
    </g>
    <path id="_451250576" class="fil1" d="M486.857 475.429l1074.29 0c12.6236,0 22.8579,10.2343 22.8579,22.8579l0 304.527c0.0011811,0.0779528 0.0011811,0.157087 0.0011811,0.23504 0,0.0779528 0,0.157087 -0.0011811,0.23504l0 700.714c0,12.6236 -10.2343,22.8579 -22.8579,22.8579l-18.0402 0 0 24.9555c0,11.4638 -10.2343,20.7579 -22.8567,20.7579 -12.6236,0 -22.8579,-9.2941 -22.8579,-20.7579l0 -24.9555 -473.387 -0.00236221 -473.387 0.00236221 0 24.9555c0,11.4638 -10.2343,20.7579 -22.8579,20.7579 -12.6225,0 -22.8567,-9.2941 -22.8567,-20.7579l0 -24.9555 -18.0414 0c-12.6236,0 -22.8579,-10.2343 -22.8579,-22.8579l0.0011811 -350.475 0 -350.475 -0.0011811 -304.762c0,-12.6236 10.2343,-22.8579 22.8579,-22.8579z"/>
   </g>
  </g>
  <path class="fil2" d="M1024 -0.0011811c565.539,0 1024,458.462 1024,1024 0,565.539 -458.462,1024 -1024,1024 -565.539,0 -1024,-458.462 -1024,-1024 0,-565.539 458.462,-1024 1024,-1024z"/>
  <path class="fil3" d="M504.898 1551.81c0,11.4638 10.2343,20.7579 22.8567,20.7579 12.6236,0 22.8579,-9.2941 22.8579,-20.7579l0 -42.5091c0,-11.4638 -10.2343,-20.7579 -22.8579,-20.7579 -12.6225,0 -22.8567,9.2941 -22.8567,20.7579l0 42.5091z"/>
  <path class="fil3" d="M1497.39 1551.81c0,11.4638 10.2343,20.7579 22.8579,20.7579 12.6225,0 22.8567,-9.2941 22.8567,-20.7579l0 -42.5091c0,-11.4638 -10.2343,-20.7579 -22.8567,-20.7579 -12.6236,0 -22.8579,9.2941 -22.8579,20.7579l0 42.5091z"/>
  <rect class="fil4" x="493.033" y="505.02" width="1061.93" height="992.246"/>
  <path class="fil5" d="M486.857 475.429l1074.29 0c12.6236,0 22.8579,10.2343 22.8579,22.8579l0 1005.71c0,12.6236 -10.2343,22.8579 -22.8579,22.8579l-1074.29 0c-12.6236,0 -22.8579,-10.2343 -22.8579,-22.8579l0 -1005.71c0,-12.6236 10.2343,-22.8579 22.8579,-22.8579zm1051.43 45.7158l-1028.57 0 0 959.996 1028.57 0 0 -959.996z"/>
  <path class="fil5" d="M486.858 780.192c-12.6236,0 -22.8579,10.2343 -22.8579,22.8579 0,12.6236 10.2343,22.8579 22.8579,22.8579l1074.29 0c12.6236,0 22.8579,-10.2343 22.8579,-22.8579 0,-12.6236 -10.2343,-22.8579 -22.8579,-22.8579l-1074.29 0z"/>
  <path class="fil5" d="M1001.14 1504c0,12.6236 10.2343,22.8579 22.8579,22.8579 12.6236,0 22.8579,-10.2343 22.8579,-22.8579l0 -342.853c0,-12.6236 -10.2343,-22.8579 -22.8579,-22.8579 -12.6236,0 -22.8579,10.2343 -22.8579,22.8579l0 342.853z"/>
  <path class="fil6" d="M978.285 1199.24l-445.714 0 0 258.202c1.73386,0.18189 3.45591,0.464174 5.15788,0.843308l440.556 0 0 -259.045z"/>
  <path class="fil6" d="M1069.71 1199.24l445.714 0 0 258.202c-1.73386,0.18189 -3.45591,0.464174 -5.15788,0.843308l-440.556 0 0 -259.045z"/>
  <path class="fil7" d="M930.283 1312.19c9.15473,0 16.5756,7.42205 16.5756,16.5768 0,9.15473 -7.42087,16.5756 -16.5756,16.5756 -9.15473,0 -16.5756,-7.42087 -16.5756,-16.5756 0,-9.15473 7.42087,-16.5768 16.5756,-16.5768z"/>
  <path class="fil7" d="M1118.67 1312.19c9.15473,0 16.5756,7.42205 16.5756,16.5768 0,9.15473 -7.42087,16.5756 -16.5756,16.5756 -9.15591,0 -16.5768,-7.42087 -16.5768,-16.5756 0,-9.15473 7.42087,-16.5768 16.5768,-16.5768z"/>
  <path class="fil8" d="M1469.25 630.71c-2.9941,1.84961 -3.92244,5.77678 -2.07284,8.77087 1.84843,2.99528 5.77559,3.92363 8.77087,2.07402 3.57874,-2.2063 7.04646,-3.49134 10.2732,-3.92481 3.2811,-0.440552 6.32599,0.022441 8.96694,1.3063 2.66221,1.29449 4.9937,3.47126 6.82323,6.43701 1.93465,3.14173 3.31536,7.16457 3.96378,11.9882 1.37599,10.226 -0.837402,21.6874 -5.52756,31.9477 -4.6689,10.213 -11.7213,19.0973 -20.048,24.2303 -2.99528,1.84961 -3.92363,5.77678 -2.07402,8.77087 1.84843,2.99528 5.77559,3.92363 8.77087,2.07402 10.5177,-6.48308 19.2803,-17.3894 24.9437,-29.778 5.64095,-12.339 8.27953,-26.2984 6.57756,-38.9445 -0.890552,-6.62953 -2.89961,-12.3413 -5.76142,-16.9854 -3.1311,-5.07874 -7.2756,-8.87835 -12.1217,-11.2347 -4.87205,-2.36811 -10.3784,-3.23859 -16.2142,-2.45433 -4.94292,0.664961 -10.1055,2.53937 -15.2705,5.72245z"/>
  <path class="fil9" d="M1351.99 612.723l122.946 -15.2728 0 -0.00354331c3.50551,-0.434646 6.7004,2.05394 7.13623,5.55945 0.233858,1.88504 -0.377953,3.68032 -1.5378,5.00552 -11.263,14.4437 -5.11654,36.6083 1.33701,59.8678 8.91142,32.1284 18.339,66.1052 -10.4811,92.4591l-4.29803 -4.69725 4.31693 4.72087c-1.22717,1.12205 -2.77441,1.67599 -4.31693,1.6748l0 0.0011811 -96.2717 0c-2.45669,0 -4.58859,-1.38543 -5.66103,-3.41693 -23.5347,-40.48 -15.8551,-67.291 -9.51142,-89.4296 4.80709,-16.7717 8.70237,-30.3697 -7.37953,-45.45l-0.0106299 0.011811c-2.57717,-2.41654 -2.70827,-6.46418 -0.292914,-9.04135 1.10079,-1.1752 2.53937,-1.84016 4.0252,-1.98898z"/>
  <path class="fil10" d="M1351.99 612.723l65.3091 -8.113 0 157.428 -46.4788 0c-2.45669,0 -4.58859,-1.38543 -5.66103,-3.41693 -23.5347,-40.48 -15.8551,-67.291 -9.51142,-89.4296 4.80709,-16.7717 8.70237,-30.3697 -7.37953,-45.45l-0.0106299 0.011811c-2.57717,-2.41654 -2.70827,-6.46418 -0.292914,-9.04135 1.10079,-1.1752 2.53937,-1.84016 4.0252,-1.98898z"/>
  <path class="fil11" d="M830.573 616.275c21.0295,0 40.0725,8.52757 53.8548,22.3099 13.7835,13.7835 22.3099,32.8264 22.3099,53.8559 0,21.0307 -8.52638,40.0725 -22.3099,53.8548 -13.7823,13.7835 -32.8252,22.3099 -53.8548,22.3099 -21.0295,0 -40.0725,-8.52638 -53.8559,-22.3099 -13.7835,-13.7823 -22.3099,-32.824 -22.3099,-53.8548 0,-21.0307 8.52638,-40.0725 22.3099,-53.8559 13.7835,-13.7823 32.8252,-22.3099 53.8559,-22.3099z"/>
  <path class="fil11" d="M665.899 616.275c21.0295,0 40.0713,8.52757 53.8548,22.3099 13.7823,13.7835 22.3099,32.8264 22.3099,53.8559 0,21.0307 -8.52757,40.0725 -22.3099,53.8548 -13.7835,13.7835 -32.8252,22.3099 -53.8548,22.3099 -21.0307,0 -40.0737,-8.52638 -53.8571,-22.3099 -13.7823,-13.7823 -22.3087,-32.824 -22.3087,-53.8548 0,-21.0307 8.52638,-40.0725 22.3087,-53.8559 13.7835,-13.7823 32.8252,-22.3099 53.8571,-22.3099z"/>
  <path class="fil12" d="M830.574 649.669c11.8087,0 22.5024,4.78937 30.2421,12.5291 7.73977,7.73977 12.528,18.4335 12.528,30.2433 0,11.8087 -4.78819,22.5024 -12.528,30.2421 -7.73977,7.73977 -18.4335,12.528 -30.2421,12.528 -11.8099,0 -22.5036,-4.78819 -30.2433,-12.528 -7.73977,-7.73977 -12.5291,-18.4335 -12.5291,-30.2421 0,-11.811 4.78937,-22.5036 12.5291,-30.2433 7.73977,-7.73977 18.4323,-12.5291 30.2433,-12.5291z"/>
  <path class="fil12" d="M665.899 649.669c11.8099,0 22.5024,4.78937 30.2421,12.5291 7.74095,7.73977 12.5291,18.4335 12.5291,30.2433 0,11.8087 -4.78819,22.5024 -12.5291,30.2421 -7.73977,7.73977 -18.4323,12.528 -30.2421,12.528 -11.8099,0 -22.5036,-4.78819 -30.2433,-12.528 -7.73977,-7.73977 -12.528,-18.4335 -12.528,-30.2421 0,-11.811 4.78819,-22.5036 12.528,-30.2433 7.73977,-7.73977 18.4335,-12.5291 30.2433,-12.5291z"/>
  <path class="fil9" d="M1210.73 648.199l81.6225 0c3.16418,0 5.72953,2.56536 5.72953,5.72953 0,0.453544 -0.0531496,0.895276 -0.152362,1.31811l-20.3858 102.182 -5.61733 -1.11969 5.61851 1.12087c-0.550394,2.7626 -3.00591,4.663 -5.72835,4.60866l-40.7422 0c-2.83937,0 -5.19567,-2.06575 -5.6504,-4.7752l-20.3929 -102.214 -0.00236221 0c-0.617717,-3.10276 1.39606,-6.12166 4.49764,-6.73938 0.405118,-0.080315 0.807875,-0.116929 1.20354,-0.111024z"/>
  <path class="fil10" d="M1210.73 648.199l40.7492 0 0 113.839 -20.4047 0c-2.83937,0 -5.19567,-2.06575 -5.6504,-4.7752l-20.3929 -102.214 -0.00236221 0c-0.617717,-3.10276 1.39606,-6.12166 4.49764,-6.73938 0.405118,-0.080315 0.807875,-0.116929 1.20354,-0.111024z"/>
  <path class="fil9" d="M1103.46 648.199l81.6225 0c3.16299,0 5.72953,2.56536 5.72953,5.72953 0,0.453544 -0.0531496,0.895276 -0.152362,1.31811l-20.387 102.182 -5.61733 -1.11969 5.61851 1.12087c-0.549213,2.7626 -3.00473,4.663 -5.72717,4.60866l-40.7433 0c-2.83937,0 -5.19567,-2.06575 -5.64922,-4.7752l-20.3929 -102.214 -0.00236221 0c-0.617717,-3.10276 1.39606,-6.12166 4.49764,-6.73938 0.405118,-0.080315 0.807875,-0.116929 1.20354,-0.111024z"/>
  <path class="fil10" d="M1103.46 648.199l40.7481 0 0 113.839 -20.4047 0c-2.83937,0 -5.19567,-2.06575 -5.64922,-4.7752l-20.3929 -102.214 -0.00236221 0c-0.617717,-3.10276 1.39606,-6.12166 4.49764,-6.73938 0.405118,-0.080315 0.807875,-0.116929 1.20354,-0.111024z"/>
  <path class="fil9" d="M996.197 648.199l81.6213 0c3.16418,0 5.72953,2.56536 5.72953,5.72953 0,0.453544 -0.0519685,0.895276 -0.151181,1.31811l-20.387 102.182 -5.61733 -1.11969 5.61851 1.12087c-0.550394,2.7626 -3.00473,4.663 -5.72717,4.60866l-40.7433 0c-2.83937,0 -5.19567,-2.06575 -5.64922,-4.7752l-20.3941 -102.214 -0.0011811 0c-0.617717,-3.10276 1.39606,-6.12166 4.49764,-6.73938 0.403937,-0.080315 0.806694,-0.116929 1.20354,-0.111024z"/>
  <path class="fil10" d="M996.197 648.199l40.7481 0 0 113.839 -20.4047 0c-2.83937,0 -5.19567,-2.06575 -5.64922,-4.7752l-20.3941 -102.214 -0.0011811 0c-0.617717,-3.10276 1.39606,-6.12166 4.49764,-6.73938 0.403937,-0.080315 0.806694,-0.116929 1.20354,-0.111024z"/>
  <path class="fil13" d="M1134.84 1099.76l-82.3607 0c-1.16221,0 -2.31378,-0.157087 -3.42756,-0.493701 -6.10749,-1.8437 -9.57166,-8.29961 -7.72914,-14.4083 7.66654,-18.3437 24.2894,-70.3016 50.8559,-74.4461 12.4217,-1.93701 21.7087,10.7587 28.0571,20.4036 4.66772,7.09016 8.63741,14.8299 12.2551,22.4988 4.69607,9.95434 8.93387,20.1662 13.0016,30.3898 0.574016,1.44213 0.90945,2.93622 0.90945,4.49292 0,6.38386 -5.17796,11.563 -11.5618,11.563z"/>
  <path class="fil13" d="M1105.18 974.665l0 45.0154c0,6.3815 -5.17914,11.563 -11.5618,11.563 -6.38386,0 -11.5618,-5.17914 -11.5618,-11.563l0 -45.0154c0,-6.38268 5.17796,-11.5618 11.5618,-11.5618 6.38268,0 11.5618,5.17914 11.5618,11.5618z"/>
  <path class="fil13" d="M1076.27 963.103l34.6937 0c6.38268,0 11.5618,2.79685 11.5618,6.24331 0,3.44646 -5.17914,6.24213 -11.5618,6.24213l-34.6937 0c-6.38268,0 -11.5618,-2.79567 -11.5618,-6.24213 0,-3.44646 5.17914,-6.24331 11.5618,-6.24331z"/>
  <path class="fil14" d="M918.276 1062.75c-4.32756,-2.14016 -9.63308,-0.480709 -11.8441,3.70866 -2.20984,4.18819 -0.494882,9.32009 3.83386,11.4602 5.98701,2.96103 12.7465,5.2878 19.5071,5.61733 5.67874,0.277559 11.2748,-0.864568 15.9732,-4.06654 4.77402,-3.25276 7.71851,-7.97363 9.06142,-13.4244 1.31575,-5.34213 0.996851,-11.0492 -0.102756,-16.4008 -2.70355,-13.1575 -10.487,-26.3232 -19.0193,-36.7642 -8.89135,-10.878 -20.5099,-21.202 -33.3307,-27.541 -4.32874,-2.13898 -9.63426,-0.479528 -11.8465,3.70985 -2.20984,4.18701 -0.493701,9.32009 3.83504,11.4602 10.5697,5.22638 20.2016,13.9689 27.5292,22.9347 6.78662,8.30197 13.3677,19.0205 15.5173,29.4886 0.594095,2.89488 0.956694,6.27638 0.242126,9.16772 -0.308268,1.25315 -0.879922,2.60197 -1.98662,3.3815 -1.36536,0.96378 -3.37559,1.10315 -5.02678,1.02165 -4.18465,-0.206693 -8.63859,-1.92284 -12.3425,-3.75355z"/>
  <path class="fil15" d="M899.861 974.286l1.20709 6.0567 20.7744 104.132c0.312992,1.56024 0.284646,0.588189 0.284646,2.63032 0,6.82205 -5.53465,12.3567 -12.3555,12.3567l-88.0194 0c-1.59449,0 -0.71693,0.116929 -2.50276,-0.238583 -6.68032,-1.32992 -11.035,-7.85434 -9.70276,-14.5347l21.9933 -110.225c1.16102,-5.82048 6.1689,-10.1185 12.1512,-10.1185l43.9359 0c5.71418,0 11.185,4.43268 12.2339,9.94135z"/>
  <path class="fil13" d="M1254.97 1099.76l-82.3607 0c-1.16221,0 -2.31378,-0.157087 -3.42756,-0.493701 -6.1063,-1.8437 -9.57048,-8.29961 -7.72796,-14.4083 7.66536,-18.3437 24.2894,-70.3016 50.8548,-74.4461 12.4217,-1.93701 21.7099,10.7587 28.0583,20.4036 4.66772,7.09016 8.63623,14.8299 12.2539,22.4988 4.69607,9.95434 8.93387,20.1662 13.0016,30.3898 0.574016,1.44213 0.910631,2.93622 0.910631,4.49292 0,6.38386 -5.17914,11.563 -11.563,11.563z"/>
  <path class="fil13" d="M1375.11 1099.76l-82.3619 0c-1.16102,0 -2.3126,-0.157087 -3.42638,-0.493701 -6.10749,-1.8437 -9.57166,-8.29961 -7.72914,-14.4083 7.66536,-18.3437 24.2894,-70.3016 50.8559,-74.4461 12.4217,-1.93701 21.7087,10.7587 28.0571,20.4036 4.66772,7.09016 8.63623,14.8299 12.2551,22.4988 4.69489,9.95434 8.93268,20.1662 13.0016,30.3898 0.572835,1.44213 0.90945,2.93622 0.90945,4.49292 0,6.38386 -5.17914,11.563 -11.5618,11.563z"/>
  <path class="fil13" d="M1225.31 974.665l0 45.0154c0,6.3815 -5.17914,11.563 -11.563,11.563 -6.38268,0 -11.5618,-5.17914 -11.5618,-11.563l0 -45.0154c0,-6.38268 5.17914,-11.5618 11.5618,-11.5618 6.38386,0 11.563,5.17914 11.563,11.5618z"/>
  <path class="fil13" d="M1345.45 974.665l0 45.0154c0,6.3815 -5.17914,11.563 -11.5618,11.563 -6.38386,0 -11.563,-5.17914 -11.563,-11.563l0 -45.0154c0,-6.38268 5.17914,-11.5618 11.563,-11.5618 6.38268,0 11.5618,5.17914 11.5618,11.5618z"/>
  <path class="fil13" d="M1196.4 963.103l34.6925 0c6.38386,0 11.5618,2.79685 11.5618,6.24331 0,3.44646 -5.17796,6.24213 -11.5618,6.24213l-34.6925 0c-6.38386,0 -11.563,-2.79567 -11.563,-6.24213 0,-3.44646 5.17914,-6.24331 11.563,-6.24331z"/>
  <path class="fil13" d="M1316.54 963.103l34.6925 0c6.38386,0 11.563,2.79685 11.563,6.24331 0,3.44646 -5.17914,6.24213 -11.563,6.24213l-34.6925 0c-6.38268,0 -11.5618,-2.79567 -11.5618,-6.24213 0,-3.44646 5.17914,-6.24331 11.5618,-6.24331z"/>
  <path class="fil14" d="M747.445 1062.75c-4.32874,-2.14016 -9.63308,-0.480709 -11.8453,3.70866 -2.20984,4.18819 -0.494882,9.32009 3.83386,11.4602 5.98701,2.96103 12.7476,5.2878 19.5083,5.61733 5.67874,0.277559 11.2748,-0.864568 15.9721,-4.06654 4.77402,-3.25276 7.71969,-7.97363 9.06142,-13.4244 1.31693,-5.34213 0.998032,-11.0492 -0.101575,-16.4008 -2.70355,-13.1575 -10.487,-26.3232 -19.0205,-36.7642 -8.89016,-10.878 -20.5087,-21.202 -33.3307,-27.541 -4.32756,-2.13898 -9.63426,-0.479528 -11.8453,3.70985 -2.20984,4.18701 -0.493701,9.32009 3.83386,11.4602 10.5697,5.22638 20.2016,13.9689 27.5292,22.9347 6.78662,8.30197 13.3689,19.0205 15.5173,29.4886 0.595276,2.89488 0.957875,6.27638 0.243307,9.16772 -0.309449,1.25315 -0.881103,2.60197 -1.98662,3.3815 -1.36536,0.96378 -3.37677,1.10315 -5.02678,1.02165 -4.18465,-0.206693 -8.63859,-1.92284 -12.3425,-3.75355z"/>
  <path class="fil15" d="M729.029 974.286l1.20709 6.0567 20.7756 104.132c0.311811,1.56024 0.283465,0.588189 0.283465,2.63032 0,6.82205 -5.53465,12.3567 -12.3555,12.3567l-88.0182 0c-1.59449,0 -0.718111,0.116929 -2.50394,-0.238583 -6.68032,-1.32992 -11.035,-7.85434 -9.70158,-14.5347l21.9921 -110.225c1.16102,-5.82048 6.17008,-10.1185 12.1512,-10.1185l43.9359 0c5.71536,0 11.185,4.43268 12.2339,9.94135z"/>
  <path class="fil5" d="M486.858 1130.67c-12.6236,0 -22.8579,10.2343 -22.8579,22.8579 0,12.6236 10.2343,22.8579 22.8579,22.8579l1051.43 0c12.6236,0 22.8579,-10.2343 22.8579,-22.8579 0,-12.6236 -10.2343,-22.8579 -22.8579,-22.8579l-1051.43 0z"/>
 </g>
</svg>
