<?xml version="1.0" encoding="UTF-8"?>
<!DOCTYPE svg PUBLIC "-//W3C//DTD SVG 1.1//EN" "http://www.w3.org/Graphics/SVG/1.1/DTD/svg11.dtd">
<!-- Creator: CorelDRAW -->
<svg xmlns="http://www.w3.org/2000/svg" xml:space="preserve" width="2048px" height="2048px" style="shape-rendering:geometricPrecision; text-rendering:geometricPrecision; image-rendering:optimizeQuality; fill-rule:evenodd; clip-rule:evenodd"
viewBox="0 0 2048 2048"
 xmlns:xlink="http://www.w3.org/1999/xlink">
 <defs>
  <style type="text/css">
   <![CDATA[
    .fil2 {fill:none}
    .fil3 {fill:#1565C0}
    .fil9 {fill:#1F2A30}
    .fil6 {fill:#263238}
    .fil10 {fill:#455A64}
    .fil1 {fill:#7CB342}
    .fil0 {fill:#AED581}
    .fil8 {fill:#D50000}
    .fil7 {fill:#F57F17}
    .fil4 {fill:#263238;fill-rule:nonzero}
    .fil5 {fill:#455A64;fill-rule:nonzero}
   ]]>
  </style>
   <clipPath id="id0">
    <path d="M1024 -0.0011811c565.539,0 1024,458.462 1024,1024 0,565.539 -458.462,1024 -1024,1024 -565.539,0 -1024,-458.462 -1024,-1024 0,-565.539 458.462,-1024 1024,-1024z"/>
   </clipPath>
 </defs>
 <g id="Layer_x0020_1">
  <metadata id="CorelCorpID_0Corel-Layer"/>
  <path class="fil0" d="M1024 -0.0011811c565.539,0 1024,458.462 1024,1024 0,565.539 -458.462,1024 -1024,1024 -565.539,0 -1024,-458.462 -1024,-1024 0,-565.539 458.462,-1024 1024,-1024z"/>
  <g style="clip-path:url(#id0)">
   <g id="_451249376">
    <g>
     <polygon id="_2863376801" class="fil1" points="1267.49,480.388 2403.37,1616.27 2404.97,1618.13 2406.48,1620.06 2407.89,1622.05 2409.19,1624.11 2410.39,1626.22 2411.48,1628.38 2412.47,1630.59 2413.34,1632.85 2414.11,1635.14 2414.76,1637.48 2415.3,1639.85 2415.72,1642.25 2416.02,1644.68 2416.2,1647.13 2416.26,1649.61 2416.26,2463.5 2416.18,2469.88 2415.95,2476.24 2415.55,2482.57 2415,2488.88 2414.3,2495.16 2413.44,2501.4 2412.43,2507.61 2411.27,2513.78 2409.96,2519.91 2408.5,2526 2406.89,2532.05 2405.14,2538.05 2403.24,2544 2401.19,2549.9 2399,2555.75 2396.67,2561.54 2394.2,2567.27 2391.59,2572.94 2388.84,2578.55 2385.95,2584.09 2382.93,2589.56 2379.77,2594.97 2376.47,2600.3 2373.04,2605.55 2369.48,2610.73 2365.79,2615.82 2361.97,2620.84 2358.02,2625.77 2353.94,2630.61 2349.74,2635.36 2345.41,2640.02 2340.96,2644.58 1205.08,1508.7 1209.53,1504.13 1213.86,1499.47 1218.06,1494.72 1222.14,1489.88 1226.09,1484.95 1229.91,1479.94 1233.6,1474.84 1237.16,1469.67 1240.59,1464.41 1243.89,1459.09 1247.05,1453.68 1250.07,1448.21 1252.96,1442.67 1255.71,1437.06 1258.32,1431.39 1260.79,1425.66 1263.12,1419.87 1265.31,1414.02 1267.35,1408.12 1269.25,1402.17 1271.01,1396.17 1272.62,1390.12 1274.08,1384.03 1275.39,1377.9 1276.55,1371.73 1277.56,1365.52 1278.42,1359.27 1279.12,1353 1279.67,1346.69 1280.06,1340.36 1280.3,1334 1280.38,1327.62 1280.38,513.724 1280.32,511.252 1280.14,508.8 1279.84,506.372 1279.41,503.97 1278.88,501.599 1278.23,499.262 1277.46,496.963 1276.59,494.706 1275.6,492.495 1274.51,490.334 1273.31,488.224 1272.01,486.17 1270.6,484.178 1269.09,482.249 "/>
     <polygon id="_286337944" class="fil1" points="1205.08,1508.7 2340.96,2644.58 2336.39,2649.03 2331.74,2653.36 2326.98,2657.57 2322.14,2661.64 2317.21,2665.59 2312.2,2669.42 2307.11,2673.11 2301.93,2676.67 2296.68,2680.09 2291.35,2683.39 2285.94,2686.55 2280.47,2689.57 2274.93,2692.46 2269.32,2695.21 2263.65,2697.82 2257.92,2700.29 2252.13,2702.62 2246.28,2704.81 2240.38,2706.86 2234.43,2708.76 2228.43,2710.51 2222.38,2712.12 2216.29,2713.58 2210.16,2714.89 2203.99,2716.05 2197.78,2717.06 2191.53,2717.92 2185.26,2718.62 2178.95,2719.17 2172.62,2719.57 2166.26,2719.8 2159.88,2719.88 2153.5,2719.8 2147.14,2719.57 2140.81,2719.17 2134.51,2718.62 2128.23,2717.92 2121.99,2717.06 2115.78,2716.05 2109.6,2714.89 2103.47,2713.58 2097.38,2712.12 2091.33,2710.51 2085.33,2708.76 2079.38,2706.86 2073.48,2704.81 2067.63,2702.62 2061.84,2700.29 2056.11,2697.82 2050.44,2695.21 2044.83,2692.46 2039.29,2689.57 2033.82,2686.55 2028.42,2683.39 2023.09,2680.09 2017.83,2676.67 2012.66,2673.11 2007.56,2669.42 2002.55,2665.59 1997.62,2661.64 1992.78,2657.57 856.896,1521.68 861.738,1525.76 866.665,1529.71 871.679,1533.53 876.775,1537.22 881.951,1540.78 887.206,1544.21 892.535,1547.51 897.937,1550.67 903.411,1553.69 908.952,1556.58 914.56,1559.33 920.231,1561.94 925.961,1564.41 931.752,1566.74 937.599,1568.93 943.498,1570.97 949.45,1572.88 955.451,1574.63 961.498,1576.24 967.589,1577.7 973.723,1579.01 979.894,1580.17 986.104,1581.18 992.348,1582.04 998.624,1582.74 1004.93,1583.29 1011.26,1583.68 1017.62,1583.92 1024,1584 1030.38,1583.92 1036.74,1583.68 1043.07,1583.29 1049.38,1582.74 1055.65,1582.04 1061.9,1581.18 1068.11,1580.17 1074.28,1579.01 1080.41,1577.7 1086.5,1576.24 1092.55,1574.63 1098.55,1572.88 1104.5,1570.97 1110.4,1568.93 1116.25,1566.74 1122.04,1564.41 1127.77,1561.94 1133.44,1559.33 1139.05,1556.58 1144.59,1553.69 1150.06,1550.67 1155.47,1547.51 1160.79,1544.21 1166.05,1540.78 1171.22,1537.22 1176.32,1533.53 1181.33,1529.71 1186.26,1525.76 1191.1,1521.68 1195.85,1517.48 1200.51,1513.15 "/>
    </g>
    <path id="_451249736" class="fil1" d="M782.218 478.598c9.34843,-9.34725 21.8977,-14.5996 35.126,-14.5996l413.313 0c13.2284,0 25.7764,5.25237 35.1248,14.5996 9.34843,9.34961 14.5996,21.8977 14.5996,35.126l0 813.896c0,68.1674 -27.137,132.908 -75.3048,181.076 -48.1678,48.1678 -112.909,75.3048 -181.076,75.3048 -68.1674,0 -132.908,-27.137 -181.077,-75.3048 -48.1678,-48.1678 -75.3048,-112.909 -75.3048,-181.076l0 -813.896c0,-13.2284 5.25237,-25.7764 14.5996,-35.126z"/>
   </g>
  </g>
  <path class="fil2" d="M1024 -0.0011811c565.539,0 1024,458.462 1024,1024 0,565.539 -458.462,1024 -1024,1024 -565.539,0 -1024,-458.462 -1024,-1024 0,-565.539 458.462,-1024 1024,-1024z"/>
  <path class="fil3" d="M817.344 464c-13.2284,0 -25.7776,5.25119 -35.126,14.5996 -9.34725,9.34843 -14.5996,21.8965 -14.5996,35.1248l0 813.896c0,68.1674 27.137,132.908 75.306,181.076 48.1666,48.1678 112.909,75.3036 181.076,75.3036 68.1674,0 132.908,-27.1358 181.076,-75.3036 48.1678,-48.1678 75.3048,-112.909 75.3048,-181.076l0 -813.896c0,-13.2284 -5.25119,-25.7764 -14.5996,-35.1248 -9.34843,-9.34843 -21.8965,-14.5996 -35.1248,-14.5996l-413.313 0z"/>
  <path class="fil4" d="M883.756 1090.2c-6.45355,0 -11.687,5.23347 -11.687,11.687 0,6.45355 5.23347,11.6882 11.687,11.6882l32.7059 0c6.45355,0 11.687,-5.23465 11.687,-11.6882 0,-6.45355 -5.23347,-11.687 -11.687,-11.687l-32.7059 0z"/>
  <path class="fil4" d="M1131.54 1090.2c-6.45355,0 -11.687,5.23347 -11.687,11.687 0,6.45355 5.23347,11.6882 11.687,11.6882l32.7047 0c6.45355,0 11.687,-5.23465 11.687,-11.6882 0,-6.45355 -5.23347,-11.687 -11.687,-11.687l-32.7047 0z"/>
  <path class="fil4" d="M1011.81 1241.27c0,6.45355 5.23347,11.6882 11.6882,11.6882 6.45355,0 11.687,-5.23465 11.687,-11.6882l0 -32.7047c0,-6.45355 -5.23347,-11.687 -11.687,-11.687 -6.45473,0 -11.6882,5.23347 -11.6882,11.687l0 32.7047z"/>
  <path class="fil4" d="M1011.81 993.49c0,6.45473 5.23347,11.6882 11.6882,11.6882 6.45355,0 11.687,-5.23347 11.687,-11.6882l0 -32.7036c0,-6.45355 -5.23347,-11.687 -11.687,-11.687 -6.45473,0 -11.6882,5.23347 -11.6882,11.687l0 32.7036z"/>
  <path class="fil4" d="M848.453 1101.88c0,-46.565 18.3449,-90.8457 51.2705,-123.77 32.9244,-32.9244 77.2052,-51.2693 123.77,-51.2693 46.5638,0 90.8446,18.3449 123.769,51.2693 32.9256,32.9256 51.2693,77.2052 51.2693,123.77 0,46.5638 -18.3437,90.8446 -51.2693,123.77 -32.9244,32.9256 -77.2052,51.2693 -123.769,51.2693 -46.565,0 -90.8446,-18.3437 -123.77,-51.2693 -32.9256,-32.9256 -51.2705,-77.2064 -51.2705,-123.77z"/>
  <path class="fil4" d="M932.937 1011.33c-21.3295,21.3295 -34.2815,49.1315 -36.9792,78.8694l20.504 0c6.45355,0 11.687,5.23347 11.687,11.687 0,6.45355 -5.23347,11.6882 -11.687,11.6882l-20.504 0c2.69764,29.7378 15.6484,57.5386 36.9792,78.8682 21.3295,21.3295 49.1315,34.2792 78.8682,36.978l0 -20.8488c0,-6.45355 5.23347,-11.687 11.6882,-11.687 6.45355,0 11.687,5.23347 11.687,11.687l0 20.8488c29.7366,-2.69882 57.5386,-15.6484 78.8682,-36.978 21.3295,-21.3295 34.2803,-49.1315 36.9792,-78.8682l-19.4882 0c-6.45355,0 -11.687,-5.23465 -11.687,-11.6882 0,-6.45355 5.23347,-11.687 11.687,-11.687l19.4882 0c-2.69882,-29.7378 -15.6496,-57.5398 -36.9792,-78.8694 -21.3295,-21.3295 -49.1304,-34.2803 -78.8682,-36.9792l0 19.1421c0,6.45473 -5.23347,11.6882 -11.687,11.6882 -6.45473,0 -11.6882,-5.23347 -11.6882,-11.6882l0 -19.1421c-29.7366,2.69882 -57.5386,15.6508 -78.8682,36.9792z"/>
  <path class="fil5" d="M1024 1077.66c6.45473,0 12.3024,2.61496 16.5295,6.84331 4.22835,4.22835 6.84331,10.0736 6.84331,16.5307 0,6.45473 -2.61496,12.3012 -6.84331,16.5295 -4.22717,4.22835 -10.0748,6.84331 -16.5295,6.84331 -6.45709,0 -12.3024,-2.61496 -16.5295,-6.84331 -4.22835,-4.22835 -6.84331,-10.0748 -6.84331,-16.5295 0,-6.45709 2.61496,-12.3024 6.84331,-16.5307 4.22717,-4.22835 10.0724,-6.84331 16.5295,-6.84331z"/>
  <polygon class="fil6" points="928.204,784.314 853.034,784.314 853.034,737.566 928.204,737.566 "/>
  <polygon class="fil6" points="928.204,872.682 853.034,872.682 853.034,825.934 928.204,825.934 "/>
  <polygon class="fil6" points="928.204,697.829 853.034,697.829 853.034,651.082 928.204,651.082 "/>
  <polygon class="fil7" points="928.204,597.96 853.034,597.96 853.034,551.209 928.204,551.209 "/>
  <polygon class="fil6" points="853.034,1308.97 928.204,1308.97 928.204,1355.72 853.034,1355.72 "/>
  <polygon class="fil6" points="853.034,1408.84 928.204,1408.84 928.204,1455.59 853.034,1455.59 "/>
  <polygon class="fil6" points="1125.05,1455.59 1125.05,1408.84 1200.22,1408.84 1200.22,1455.59 "/>
  <polygon class="fil6" points="1125.05,1308.97 1200.22,1308.97 1200.22,1355.72 1125.05,1355.72 "/>
  <polygon class="fil6" points="989.042,1408.84 1064.21,1408.84 1064.21,1455.59 989.042,1455.59 "/>
  <polygon class="fil6" points="989.041,784.314 989.041,737.566 1064.21,737.566 1064.21,784.314 "/>
  <polygon class="fil6" points="989.041,872.682 989.041,825.934 1064.21,825.934 1064.21,872.682 "/>
  <polygon class="fil6" points="1064.21,697.829 989.042,697.829 989.042,651.082 1064.21,651.082 "/>
  <polygon class="fil8" points="1200.22,597.96 1125.05,597.96 1125.05,551.209 1200.22,551.209 "/>
  <polygon class="fil6" points="1200.22,697.829 1125.05,697.829 1125.05,651.082 1200.22,651.082 "/>
  <polygon class="fil6" points="1200.22,784.314 1125.05,784.314 1125.05,737.566 1200.22,737.566 "/>
  <polygon class="fil6" points="1200.22,872.682 1125.05,872.682 1125.05,825.934 1200.22,825.934 "/>
  <path class="fil9" d="M1151.03 1090.2c-2.69882,-29.7378 -15.6496,-57.5398 -36.9792,-78.8694 -21.3295,-21.3295 -49.1304,-34.2803 -78.8682,-36.9792l0 19.1421c0,6.45473 -5.23347,11.6882 -11.687,11.6882 -6.45473,0 -11.6882,-5.23347 -11.6882,-11.6882l0 -19.1421c-29.7366,2.69882 -57.5386,15.6508 -78.8682,36.9792 -21.3295,21.3295 -34.2815,49.1315 -36.9792,78.8694l20.504 0c6.45355,0 11.687,5.23347 11.687,11.687 0,6.45355 -5.23347,11.6882 -11.687,11.6882l-20.504 0c2.69764,29.7378 15.6484,57.5386 36.9792,78.8682 21.3295,21.3295 49.1315,34.2792 78.8682,36.978l0 -20.8488c0,-6.45355 5.23347,-11.687 11.6882,-11.687 6.45355,0 11.687,5.23347 11.687,11.687l0 20.8488c29.7366,-2.69882 57.5386,-15.6484 78.8682,-36.978 21.3295,-21.3295 34.2803,-49.1315 36.9792,-78.8682l-19.4882 0c-6.45355,0 -11.687,-5.23465 -11.687,-11.6882 0,-6.45355 5.23347,-11.687 11.687,-11.687l19.4882 0zm-103.655 10.8343c0,6.45473 -2.61496,12.3012 -6.84331,16.5295 -4.22717,4.22835 -10.0748,6.84331 -16.5295,6.84331 -6.45709,0 -12.3024,-2.61496 -16.5295,-6.84331 -4.22835,-4.22835 -6.84331,-10.0748 -6.84331,-16.5295 0,-6.45709 2.61496,-12.3024 6.84331,-16.5307 4.22717,-4.22835 10.0724,-6.84331 16.5295,-6.84331 6.45473,0 12.3024,2.61496 16.5295,6.84331 4.22835,4.22835 6.84331,10.0736 6.84331,16.5307z"/>
  <path class="fil10" d="M1035.18 993.49l0 -19.1421 0 -13.5614c0,-6.45355 -5.23347,-11.687 -11.687,-11.687 -6.45473,0 -11.6882,5.23347 -11.6882,11.687l0 13.5614 0 19.1421c0,6.45473 5.23347,11.6882 11.6882,11.6882 6.45355,0 11.687,-5.23347 11.687,-11.6882z"/>
  <path class="fil10" d="M1151.03 1090.2l-19.4882 0c-6.45355,0 -11.687,5.23347 -11.687,11.687 0,6.45355 5.23347,11.6882 11.687,11.6882l19.4882 0 13.2165 0c6.45355,0 11.687,-5.23465 11.687,-11.6882 0,-6.45355 -5.23347,-11.687 -11.687,-11.687l-13.2165 0z"/>
  <path class="fil10" d="M1035.18 1208.57c0,-6.45355 -5.23347,-11.687 -11.687,-11.687 -6.45473,0 -11.6882,5.23347 -11.6882,11.687l0 20.8488 0 11.8559c0,6.45355 5.23347,11.6882 11.6882,11.6882 6.45355,0 11.687,-5.23465 11.687,-11.6882l0 -11.8559 0 -20.8488z"/>
  <path class="fil10" d="M895.958 1113.57l20.504 0c6.45355,0 11.687,-5.23465 11.687,-11.6882 0,-6.45355 -5.23347,-11.687 -11.687,-11.687l-20.504 0 -12.202 0c-6.45355,0 -11.687,5.23347 -11.687,11.687 0,6.45355 5.23347,11.6882 11.687,11.6882l12.202 0z"/>
 </g>
</svg>
