<?xml version="1.0" encoding="UTF-8"?>
<!DOCTYPE svg PUBLIC "-//W3C//DTD SVG 1.1//EN" "http://www.w3.org/Graphics/SVG/1.1/DTD/svg11.dtd">
<!-- Creator: CorelDRAW -->
<svg xmlns="http://www.w3.org/2000/svg" xml:space="preserve" width="2048px" height="2048px" style="shape-rendering:geometricPrecision; text-rendering:geometricPrecision; image-rendering:optimizeQuality; fill-rule:evenodd; clip-rule:evenodd"
viewBox="0 0 2048 2048"
 xmlns:xlink="http://www.w3.org/1999/xlink">
 <defs>
  <style type="text/css">
   <![CDATA[
    .str0 {stroke:#212121;stroke-width:1.00039;stroke-linecap:round;stroke-linejoin:round}
    .fil2 {fill:none}
    .fil18 {fill:#3E2723}
    .fil3 {fill:#4E342E}
    .fil7 {fill:#5D4037}
    .fil1 {fill:#66BB6A}
    .fil0 {fill:#A5D6A7}
    .fil9 {fill:#B2EBF2}
    .fil10 {fill:#FFAB91}
    .fil11 {fill:#FFCCBC}
    .fil6 {fill:#1FBED2;fill-rule:nonzero}
    .fil5 {fill:#26C6DA;fill-rule:nonzero}
    .fil4 {fill:#28B9CC;fill-rule:nonzero}
    .fil14 {fill:#523B34;fill-rule:nonzero}
    .fil15 {fill:#5D4037;fill-rule:nonzero}
    .fil8 {fill:#6D4C41;fill-rule:nonzero}
    .fil13 {fill:#B0BEC5;fill-rule:nonzero}
    .fil12 {fill:#CFD8DC;fill-rule:nonzero}
    .fil17 {fill:#D83A08;fill-rule:nonzero}
    .fil16 {fill:#FF3D00;fill-rule:nonzero}
   ]]>
  </style>
   <clipPath id="id0">
    <path d="M1024 -0.0011811c565.539,0 1024,458.462 1024,1024 0,565.539 -458.462,1024 -1024,1024 -565.539,0 -1024,-458.462 -1024,-1024 0,-565.539 458.462,-1024 1024,-1024z"/>
   </clipPath>
 </defs>
 <g id="Layer_x0020_1">
  <metadata id="CorelCorpID_0Corel-Layer"/>
  <path class="fil0" d="M1024 -0.0011811c565.539,0 1024,458.462 1024,1024 0,565.539 -458.462,1024 -1024,1024 -565.539,0 -1024,-458.462 -1024,-1024 0,-565.539 458.462,-1024 1024,-1024z"/>
  <g style="clip-path:url(#id0)">
   <g id="_451243928">
    <g>
     <polygon id="_3304930481" class="fil1" points="1577.68,472.134 2713.56,1608.02 2714.85,1609.74 2715.97,1611.58 2716.91,1613.53 2717.66,1615.59 2718.21,1617.73 2718.55,1619.95 2718.67,1622.23 1582.79,486.351 1582.67,484.066 1582.33,481.846 1581.78,479.705 1581.03,477.651 1580.09,475.698 1578.97,473.855 "/>
     <polygon id="_330493312" class="fil1" points="1582.79,486.351 2718.67,1622.23 2718.67,2024.56 1582.79,888.679 "/>
     <polygon id="_330493984" class="fil1" points="1582.79,888.679 2718.67,2024.56 2718.55,2026.85 2718.21,2029.07 2717.66,2031.21 2716.91,2033.26 2715.97,2035.21 2714.85,2037.06 2713.56,2038.78 2712.12,2040.37 2710.54,2041.81 2708.81,2043.09 2706.97,2044.21 2705.02,2045.16 2702.96,2045.91 2700.82,2046.46 2698.6,2046.8 2696.32,2046.91 1560.44,911.03 1562.72,910.914 1564.94,910.576 1567.08,910.025 1569.14,909.274 1571.09,908.332 1572.93,907.213 1574.65,905.926 1576.24,904.483 1577.68,902.896 1578.97,901.175 1580.09,899.332 1581.03,897.379 1581.78,895.325 1582.33,893.183 1582.67,890.964 "/>
     <polygon id="_330494056" class="fil1" points="1560.44,911.03 2696.32,2046.91 2405.75,2046.91 1269.87,911.03 "/>
     <polygon id="_330493816" class="fil1" points="1269.87,911.03 2405.75,2046.91 1623.45,2046.91 487.564,911.03 "/>
     <polygon id="_330493408" class="fil1" points="487.564,911.03 1623.45,2046.91 1621.16,2046.8 1618.94,2046.46 1616.8,2045.91 1614.75,2045.16 1612.79,2044.21 1610.95,2043.09 1609.23,2041.81 1607.64,2040.37 471.759,904.483 473.346,905.926 475.067,907.213 476.911,908.332 478.864,909.274 480.918,910.025 483.059,910.576 485.279,910.914 "/>
     <polygon id="_330493720" class="fil1" points="1385.51,1107.89 2521.39,2243.78 2522.89,2245.43 2524.23,2247.22 2525.4,2249.14 2526.38,2251.18 2527.16,2253.32 2527.73,2255.55 2528.09,2257.86 2528.21,2260.24 1392.33,1124.36 1392.21,1121.98 1391.85,1119.67 1391.28,1117.43 1390.5,1115.3 1389.52,1113.26 1388.35,1111.34 1387.01,1109.55 "/>
     <polygon id="_330493696" class="fil1" points="1392.33,1124.36 2528.21,2260.24 2528.21,2263.35 1392.33,1127.46 "/>
     <polygon id="_330493768" class="fil1" points="1392.33,1127.46 2528.21,2263.35 2528.21,2339.58 1392.33,1203.7 "/>
     <polygon id="_330493792" class="fil1" points="1363.95,1176.55 2499.83,2312.43 2303.66,2312.43 1167.77,1176.55 "/>
     <polygon id="_330493504" class="fil1" points="1392.33,1203.7 2528.21,2339.58 2528.13,2341.8 2527.89,2344.28 2527.51,2346.97 2526.99,2349.85 2526.35,2352.86 2525.59,2355.96 2524.73,2359.13 2523.77,2362.3 2522.74,2365.46 2521.63,2368.55 2520.45,2371.54 2519.23,2374.39 2517.96,2377.05 2516.67,2379.49 2515.35,2381.67 2514.02,2383.54 2512.69,2385.07 2511.37,2386.22 2510.08,2386.94 2508.81,2387.2 2507.58,2386.95 2506.41,2386.16 1370.53,1250.28 1371.7,1251.07 1372.93,1251.32 1374.19,1251.06 1375.49,1250.33 1376.81,1249.19 1378.14,1247.66 1379.47,1245.79 1380.79,1243.61 1382.08,1241.17 1383.35,1238.51 1384.57,1235.66 1385.75,1232.67 1386.86,1229.58 1387.89,1226.42 1388.85,1223.24 1389.71,1220.08 1390.47,1216.97 1391.11,1213.96 1391.63,1211.09 1392.01,1208.4 1392.25,1205.92 "/>
     <polygon id="_330494128" class="fil1" points="535.196,1008.75 1671.08,2144.63 1672.58,2146.28 1673.92,2148.08 1675.09,2150 1676.07,2152.03 1676.85,2154.17 1677.42,2156.4 1677.78,2158.71 1677.9,2161.1 542.015,1025.21 541.895,1022.83 541.542,1020.52 540.969,1018.29 540.186,1016.15 539.206,1014.11 538.039,1012.19 536.698,1010.4 "/>
     <polygon id="_330494632" class="fil1" points="542.015,1025.21 1677.9,2161.1 1678.9,2170.55 1679.84,2179.95 1680.7,2189.3 1681.5,2198.61 1682.24,2207.87 1682.91,2217.07 1683.51,2226.24 1684.05,2235.35 1684.53,2244.43 1684.95,2253.45 1685.31,2262.44 1685.61,2271.38 1685.85,2280.28 1686.04,2289.14 1686.17,2297.95 1686.24,2306.73 1686.26,2315.47 1686.23,2324.17 1686.15,2332.83 1686.01,2341.46 1685.83,2350.05 1685.6,2358.6 1685.32,2367.12 1684.99,2375.6 1684.62,2384.06 1684.2,2392.47 1683.74,2400.86 1683.24,2409.22 1682.69,2417.55 1682.1,2425.84 1681.48,2434.11 1680.82,2442.35 544.935,1306.47 545.599,1298.23 546.224,1289.96 546.809,1281.66 547.354,1273.34 547.857,1264.98 548.318,1256.59 548.736,1248.17 549.108,1239.72 549.435,1231.24 549.715,1222.72 549.948,1214.16 550.132,1205.57 550.267,1196.95 550.35,1188.29 550.382,1179.59 550.361,1170.85 550.285,1162.07 550.157,1153.25 549.971,1144.4 549.729,1135.5 549.428,1126.56 549.069,1117.57 548.651,1108.54 548.17,1099.47 547.629,1090.36 547.024,1081.19 546.355,1071.98 545.621,1062.73 544.822,1053.42 543.955,1044.07 543.019,1034.67 "/>
     <polygon id="_330494416" class="fil1" points="876.105,1176.55 2011.99,2312.43 1815.24,2312.43 679.36,1176.55 "/>
     <polygon id="_330494656" class="fil1" points="679.36,1176.55 1815.24,2312.43 1815.24,2339.58 679.36,1203.7 "/>
     <polygon id="_330494344" class="fil1" points="679.36,1203.7 1815.24,2339.58 1815.16,2348.79 1814.93,2357 1814.55,2364.25 1814.05,2370.59 1813.42,2376.05 1812.67,2380.67 1811.83,2384.49 1810.9,2387.56 1809.88,2389.91 1808.79,2391.59 1807.64,2392.63 1806.44,2393.08 1805.2,2392.98 1803.93,2392.36 1802.64,2391.27 666.758,1255.38 668.05,1256.48 669.321,1257.09 670.562,1257.2 671.761,1256.75 672.91,1255.71 673.998,1254.03 675.015,1251.68 675.95,1248.61 676.793,1244.79 677.535,1240.16 678.165,1234.71 678.673,1228.37 679.048,1221.12 679.28,1212.91 "/>
     <polygon id="_330494512" class="fil1" points="704.995,1327.89 1840.88,2463.77 1840.88,2696.6 704.995,1560.72 "/>
     <polygon id="_330494536" class="fil1" points="899.388,1584 2035.27,2719.88 2032.89,2719.76 2030.58,2719.41 2028.35,2718.84 2026.21,2718.05 2024.17,2717.07 2022.25,2715.91 2020.46,2714.57 884.578,1578.68 886.371,1580.02 888.29,1581.19 890.325,1582.17 892.464,1582.95 894.695,1583.53 897.008,1583.88 "/>
     <polygon id="_330494704" class="fil1" points="1121.21,1444.3 2257.09,2580.19 2058.55,2580.19 922.672,1444.3 "/>
     <polygon id="_330495232" class="fil1" points="1144.49,1584 2280.37,2719.88 2277.99,2719.76 2275.68,2719.41 2273.45,2718.84 2271.31,2718.05 2269.27,2717.07 2267.35,2715.91 2265.56,2714.57 2263.91,2713.06 1128.03,1577.18 1129.68,1578.68 1131.47,1580.02 1133.39,1581.19 1135.43,1582.17 1137.57,1582.95 1139.8,1583.53 1142.11,1583.88 "/>
     <polygon id="_330495208" class="fil1" points="696.521,1309.92 1832.4,2445.81 1834.06,2447.31 1835.56,2448.96 1836.9,2450.75 1838.07,2452.67 1839.05,2454.71 1839.83,2456.85 1840.4,2459.08 1840.76,2461.39 1840.88,2463.77 704.995,1327.89 704.874,1325.51 704.521,1323.2 703.948,1320.96 703.165,1318.83 702.185,1316.79 701.018,1314.87 699.677,1313.08 698.175,1311.43 "/>
     <polygon id="_330495592" class="fil1" points="922.672,1444.3 2058.55,2580.19 2058.55,2696.6 922.672,1560.72 "/>
     <polygon id="_330495136" class="fil1" points="922.672,1560.72 2058.55,2696.6 2058.43,2698.98 2058.08,2701.29 2057.51,2703.52 2056.72,2705.66 2055.74,2707.7 2054.58,2709.62 2053.24,2711.41 2051.73,2713.06 2050.08,2714.57 2048.29,2715.91 2046.37,2717.07 2044.33,2718.05 2042.19,2718.84 2039.96,2719.41 2037.65,2719.76 2035.27,2719.88 899.388,1584 901.769,1583.88 904.08,1583.53 906.311,1582.95 908.45,1582.17 910.487,1581.19 912.406,1580.02 914.199,1578.68 915.852,1577.18 917.355,1575.53 918.695,1573.74 919.861,1571.82 920.842,1569.78 921.626,1567.64 922.198,1565.41 922.551,1563.1 "/>
     <polygon id="_330495376" class="fil1" points="658.428,1523.72 1794.31,2659.61 1655.96,2659.61 520.081,1523.72 "/>
     <polygon id="_330495616" class="fil1" points="681.712,1584 1817.59,2719.88 1815.21,2719.76 1812.9,2719.41 1810.67,2718.84 1808.53,2718.05 1806.5,2717.07 1804.57,2715.91 1802.78,2714.57 666.902,1578.68 668.693,1580.02 670.614,1581.19 672.649,1582.17 674.788,1582.95 677.019,1583.53 679.33,1583.88 "/>
     <polygon id="_330494992" class="fil1" points="704.995,1560.72 1840.88,2696.6 1840.76,2698.98 1840.4,2701.29 1839.83,2703.52 1839.05,2705.66 1838.07,2707.7 1836.9,2709.62 1835.56,2711.41 1834.06,2713.06 1832.4,2714.57 1830.61,2715.91 1828.69,2717.07 1826.66,2718.05 1824.52,2718.84 1822.29,2719.41 1819.97,2719.76 1817.59,2719.88 681.712,1584 684.093,1583.88 686.404,1583.53 688.635,1582.95 690.774,1582.17 692.809,1581.19 694.73,1580.02 696.521,1578.68 698.175,1577.18 699.677,1575.53 701.018,1573.74 702.185,1571.82 703.165,1569.78 703.948,1567.64 704.521,1565.41 704.874,1563.1 "/>
     <polygon id="_330495016" class="fil1" points="520.081,1523.72 1655.96,2659.61 1651.24,2699.33 515.354,1563.45 "/>
     <polygon id="_330495424" class="fil1" points="515.354,1563.45 1651.24,2699.33 1650.84,2701.68 1650.22,2703.93 1649.39,2706.08 1648.36,2708.11 1647.15,2710.01 1645.76,2711.78 1644.23,2713.4 1642.54,2714.86 1640.72,2716.16 1638.79,2717.28 1636.75,2718.21 1634.61,2718.95 1632.4,2719.47 1630.12,2719.78 1627.78,2719.86 1625.41,2719.7 489.525,1583.82 491.901,1583.98 494.236,1583.9 496.517,1583.59 498.731,1583.07 500.866,1582.33 502.907,1581.4 504.843,1580.28 506.659,1578.98 508.344,1577.52 509.883,1575.9 511.267,1574.13 512.477,1572.22 513.505,1570.19 514.335,1568.05 514.956,1565.79 "/>
     <polygon id="_330496312" class="fil1" points="489.525,1583.82 1625.41,2719.7 1623.06,2719.3 1620.81,2718.68 1618.66,2717.85 1616.63,2716.82 1614.72,2715.61 1612.96,2714.23 477.076,1578.35 478.843,1579.73 480.748,1580.94 482.778,1581.97 484.924,1582.8 487.177,1583.42 "/>
     <polygon id="_330496120" class="fil1" points="1167.77,1176.55 2303.66,2312.43 2303.66,2696.6 1167.77,1560.72 "/>
     <polygon id="_330496264" class="fil1" points="1167.77,1560.72 2303.66,2696.6 2303.54,2698.98 2303.18,2701.29 2302.61,2703.52 2301.83,2705.66 2300.85,2707.7 2299.68,2709.62 2298.34,2711.41 2296.84,2713.06 2295.18,2714.57 2293.39,2715.91 2291.47,2717.07 2289.44,2718.05 2287.3,2718.84 2285.07,2719.41 2282.75,2719.76 2280.37,2719.88 1144.49,1584 1146.87,1583.88 1149.18,1583.53 1151.42,1582.95 1153.55,1582.17 1155.59,1581.19 1157.51,1580.02 1159.3,1578.68 1160.95,1577.18 1162.46,1575.53 1163.8,1573.74 1164.96,1571.82 1165.94,1569.78 1166.73,1567.64 1167.3,1565.41 1167.65,1563.1 "/>
     <polygon id="_330496000" class="fil1" points="1552.55,1025.21 2688.43,2161.1 2686.9,2172.51 2685.49,2183.8 2684.19,2194.96 2683.01,2205.99 2681.94,2216.91 2680.97,2227.7 2680.12,2238.38 2679.37,2248.94 2678.73,2259.39 2678.18,2269.72 2677.74,2279.95 2677.4,2290.07 2677.15,2300.08 2677,2309.99 2676.94,2319.8 2676.98,2329.5 2677.1,2339.11 2677.31,2348.62 2677.61,2358.04 2677.99,2367.37 2678.45,2376.61 2678.99,2385.76 2679.61,2394.82 2680.31,2403.8 2681.08,2412.7 2681.93,2421.52 2682.85,2430.26 2683.83,2438.93 2684.89,2447.52 2686,2456.04 2687.19,2464.49 2688.43,2472.87 1552.55,1336.99 1551.31,1328.61 1550.12,1320.16 1549.01,1311.64 1547.95,1303.04 1546.97,1294.38 1546.05,1285.64 1545.2,1276.82 1544.43,1267.92 1543.73,1258.94 1543.11,1249.88 1542.57,1240.73 1542.11,1231.49 1541.73,1222.16 1541.43,1212.74 1541.22,1203.23 1541.1,1193.62 1541.06,1183.91 1541.12,1174.11 1541.27,1164.2 1541.52,1154.19 1541.86,1144.07 1542.3,1133.84 1542.85,1123.51 1543.49,1113.06 1544.24,1102.5 1545.09,1091.82 1546.06,1081.03 1547.13,1070.11 1548.31,1059.08 1549.61,1047.91 1551.02,1036.63 "/>
     <polygon id="_330495832" class="fil1" points="1552.55,1336.99 2688.43,2472.87 2714.73,2693.87 1578.85,1557.99 "/>
     <polygon id="_330496024" class="fil1" points="1527.9,1523.58 2663.78,2659.46 2663.57,2659.5 2663.36,2659.53 2663.15,2659.55 2662.94,2659.57 2662.73,2659.59 2662.51,2659.6 2662.29,2659.6 2662.07,2659.61 1526.19,1523.72 1526.41,1523.72 1526.63,1523.72 1526.84,1523.7 1527.06,1523.69 1527.27,1523.67 1527.48,1523.64 1527.69,1523.61 "/>
     <polygon id="_330495880" class="fil1" points="1526.19,1523.72 2662.07,2659.61 2525.45,2659.61 1389.57,1523.72 "/>
     <polygon id="_330495712" class="fil1" points="1578.85,1557.99 2714.73,2693.87 2714.89,2696.25 2714.81,2698.58 2714.5,2700.86 2713.98,2703.08 2713.24,2705.21 2712.31,2707.25 2711.19,2709.19 2709.89,2711.01 2708.43,2712.69 2706.81,2714.23 2705.04,2715.61 2703.13,2716.82 2701.1,2717.85 2698.96,2718.68 2696.7,2719.3 2694.36,2719.7 1558.48,1583.82 1560.82,1583.42 1563.08,1582.8 1565.22,1581.97 1567.25,1580.94 1569.16,1579.73 1570.92,1578.35 1572.55,1576.81 1574.01,1575.12 1575.31,1573.31 1576.43,1571.37 1577.36,1569.33 1578.09,1567.2 1578.62,1564.98 1578.93,1562.7 1579.01,1560.37 "/>
     <polygon id="_330495736" class="fil1" points="1558.48,1583.82 2694.36,2719.7 2691.98,2719.86 2689.64,2719.78 2687.36,2719.47 2685.15,2718.95 2683.02,2718.21 2680.97,2717.28 2679.04,2716.16 2677.22,2714.86 2675.54,2713.4 1539.66,1577.52 1541.34,1578.98 1543.16,1580.28 1545.09,1581.4 1547.13,1582.33 1549.27,1583.07 1551.48,1583.59 1553.76,1583.9 1556.1,1583.98 "/>
     <polygon id="_330496096" class="fil1" points="1389.57,1523.72 2525.45,2659.61 2525.45,2696.6 1389.57,1560.72 "/>
     <polygon id="_330495808" class="fil1" points="1389.57,1560.72 2525.45,2696.6 2525.33,2698.98 2524.98,2701.29 2524.41,2703.52 2523.62,2705.66 2522.64,2707.7 2521.48,2709.62 2520.14,2711.41 2518.63,2713.06 2516.98,2714.57 2515.19,2715.91 2513.27,2717.07 2511.23,2718.05 2509.09,2718.84 2506.86,2719.41 2504.55,2719.76 2502.17,2719.88 1366.29,1584 1368.67,1583.88 1370.98,1583.53 1373.21,1582.95 1375.35,1582.17 1377.39,1581.19 1379.31,1580.02 1381.1,1578.68 1382.75,1577.18 1384.25,1575.53 1385.59,1573.74 1386.76,1571.82 1387.74,1569.78 1388.53,1567.64 1389.1,1565.41 1389.45,1563.1 "/>
     <polygon id="_330497032" class="fil1" points="1366.29,1584 2502.17,2719.88 2499.79,2719.76 2497.48,2719.41 2495.25,2718.84 2493.11,2718.05 2491.07,2717.07 2489.15,2715.91 2487.36,2714.57 2485.71,2713.06 1349.83,1577.18 1351.48,1578.68 1353.27,1580.02 1355.19,1581.19 1357.23,1582.17 1359.36,1582.95 1361.6,1583.53 1363.91,1583.88 "/>
     <polygon id="_330497056" class="fil1" points="1547.23,1010.4 2683.11,2146.28 2684.46,2148.08 2685.62,2150 2686.6,2152.03 2687.39,2154.17 2687.96,2156.4 2688.31,2158.71 2688.43,2161.1 1552.55,1025.21 1552.43,1022.83 1552.08,1020.52 1551.5,1018.29 1550.72,1016.15 1549.74,1014.11 1548.57,1012.19 "/>
    </g>
    <path id="_451243424" class="fil1" d="M487.564 464l782.303 0 290.569 0c12.3437,0 22.3524,10.0075 22.3524,22.3512l0 402.327c0,12.3437 -10.0087,22.3512 -22.3524,22.3512l-290.569 0 -782.303 0c-12.3437,0 -22.3524,-10.0075 -22.3524,-22.3512l0 -402.327c0,-12.3437 10.0087,-22.3512 22.3524,-22.3512zm187.271 637.075l694.209 0c12.8575,0 23.2831,10.4244 23.2831,23.2831l0 3.10512 0 76.2319c0,22.187 -28.3772,95.0481 -28.3772,0l0 -27.1453 -196.175 0 0 384.168c0,12.8575 -10.4244,23.2831 -23.2831,23.2831 -12.8587,0 -23.2831,-10.4256 -23.2831,-23.2831l0 -116.414 -198.536 0 0 116.414c0,12.8575 -10.4256,23.2831 -23.2843,23.2831 -12.8575,0 -23.2831,-10.4256 -23.2831,-23.2831l0 -384.168 -196.745 0 0 27.1453c0,103.72 -27.8079,30.052 -27.8079,0l0 -76.2319 0 -3.10512c0,-12.8587 10.4244,-23.2831 23.2831,-23.2831zm6.87638 203.53c12.8587,0 23.2831,10.4256 23.2831,23.2831l0 232.83c0,12.8575 -10.4244,23.2831 -23.2831,23.2831 -12.8587,0 -23.2831,-10.4256 -23.2831,-23.2831l0 -36.9933 -138.347 0 -4.72678 39.7217c-1.50591,12.7571 -13.0713,21.8788 -25.8295,20.3729 -12.7571,-1.50709 -21.8788,-13.0725 -20.3729,-25.8295l26.2973 -221.001c13.5992,-89.0611 16.9441,-189.331 0,-311.776 0,-12.8587 10.4244,-23.2843 23.2831,-23.2843 12.8587,0 23.2831,10.4256 23.2831,23.2843 11.0823,101.104 10.1988,193.506 2.91969,281.256 47.0693,4.58386 89.4792,1.97717 136.776,-1.86378zm870.839 -279.392c-16.9441,122.445 -13.5992,222.715 0,311.776l26.2973 221.001c1.50591,12.7571 -7.61575,24.3225 -20.3729,25.8295 -12.7583,1.50591 -24.3236,-7.61575 -25.8295,-20.3729l-4.74331 -39.8658c-0.555119,0.0944883 -1.12677,0.144095 -1.70906,0.144095l-136.622 0 0 36.9933c0,12.8575 -10.4244,23.2831 -23.2831,23.2831 -12.8587,0 -23.2831,-10.4256 -23.2831,-23.2831l0 -232.83c0,-12.8575 10.4244,-23.2831 23.2831,-23.2831 47.2973,3.84095 89.7072,6.44764 136.776,1.86378 -7.27914,-87.7501 -8.1626,-180.153 2.91969,-281.256 0,-12.8587 10.4244,-23.2843 23.2831,-23.2843 12.8587,0 23.2831,10.4256 23.2831,23.2843z"/>
   </g>
  </g>
  <path class="fil2" d="M1024 -0.0011811c565.539,0 1024,458.462 1024,1024 0,565.539 -458.462,1024 -1024,1024 -565.539,0 -1024,-458.462 -1024,-1024 0,-565.539 458.462,-1024 1024,-1024z"/>
  <rect class="fil3 str0" x="494.805" y="488.179" width="763.968" height="394.717"/>
  <path class="fil4" d="M1189.75 556.347c-2.28543,1.41024 -2.99292,4.40788 -1.58268,6.69213 1.41142,2.28543 4.40788,2.9941 6.69331,1.58268 2.73071,-1.68307 5.37756,-2.66457 7.83898,-2.99528 2.50394,-0.335433 4.82835,0.0177165 6.84331,0.996851 2.0315,0.988583 3.81142,2.64921 5.20748,4.91221 1.47638,2.39764 2.52992,5.46733 3.02481,9.14883 1.05,7.80355 -0.638977,16.5496 -4.2189,24.3792 -3.56221,7.79292 -8.94331,14.5725 -15.2988,18.4902 -2.28543,1.41142 -2.99292,4.40788 -1.58268,6.69331 1.41142,2.28425 4.40788,2.99292 6.69331,1.58268 8.0256,-4.94764 14.713,-13.2709 19.0347,-22.7244 4.30394,-9.41576 6.3189,-20.0681 5.01969,-29.7177 -0.680315,-5.05985 -2.21339,-9.41812 -4.39725,-12.9626 -2.38937,-3.8752 -5.55119,-6.77481 -9.24922,-8.57245 -3.71811,-1.80709 -7.92048,-2.47205 -12.3732,-1.87323 -3.77244,0.507874 -7.71142,1.93819 -11.6528,4.36772z"/>
  <path class="fil5" d="M1100.27 542.62l93.8198 -11.6551 0 -0.00236221c2.6752,-0.33189 5.113,1.56732 5.44607,4.24252 0.178347,1.43858 -0.288189,2.80866 -1.17402,3.81969 -8.59489,11.0221 -3.90473,27.9355 1.02047,45.6851 6.80079,24.5173 13.9949,50.4449 -7.99843,70.5556l-3.27992 -3.58465 3.2941 3.60236c-0.936615,0.8563 -2.11654,1.27913 -3.2941,1.27913l0 0 -73.4646 0c-1.87559,0 -3.50197,-1.05709 -4.32048,-2.60788 -17.9587,-30.8906 -12.098,-51.3485 -7.25788,-68.243 3.66851,-12.7996 6.64016,-23.1756 -5.6315,-34.6831l-0.00826772 0.00826772c-1.96654,-1.8437 -2.06575,-4.93229 -0.223229,-6.89882 0.840946,-0.896457 1.93819,-1.40433 3.07205,-1.51772z"/>
  <path class="fil6" d="M1100.27 542.62l49.8367 -6.19134 0 120.134 -35.4674 0c-1.87559,0 -3.50197,-1.05709 -4.32048,-2.60788 -17.9587,-30.8906 -12.098,-51.3485 -7.25788,-68.243 3.66851,-12.7996 6.64016,-23.1756 -5.6315,-34.6831l-0.00826772 0.00826772c-1.96654,-1.8437 -2.06575,-4.93229 -0.223229,-6.89882 0.840946,-0.896457 1.93819,-1.40433 3.07205,-1.51772z"/>
  <rect class="fil3" x="1271.62" y="494.089" width="284.669" height="384.712"/>
  <polygon class="fil7" points="1303.39,519.879 1303.39,855.151 1526.91,855.151 1526.91,519.879 "/>
  <path class="fil8" d="M487.564 464l782.303 0c12.3437,0 22.3524,10.0075 22.3524,22.3524l0 402.325c0,12.3449 -10.0087,22.3524 -22.3524,22.3524l-782.303 0c-12.3437,0 -22.3524,-10.0075 -22.3524,-22.3524l0 -402.325c0,-12.3449 10.0087,-22.3524 22.3524,-22.3524zm759.95 44.7036l-737.598 0 0 357.623 737.598 0 0 -357.623z"/>
  <path class="fil8" d="M1538.08 508.704l-245.864 0 0 357.623 245.864 0 0 -357.623zm-268.217 -44.7036l290.569 0c12.3437,0 22.3524,10.0075 22.3524,22.3524l0 402.325c0,12.3449 -10.0087,22.3524 -22.3524,22.3524l-290.569 0c-12.3437,0 -22.3524,-10.0075 -22.3524,-22.3524l0 -402.325c0,-12.3449 10.0087,-22.3524 22.3524,-22.3524z"/>
  <path class="fil8" d="M509.917 665.163c-12.3449,0 -22.3524,10.0075 -22.3524,22.3524 0,12.3437 10.0075,22.3512 22.3524,22.3512l737.599 0c12.3437,0 22.3524,-10.0075 22.3524,-22.3512 0,-12.3449 -10.0087,-22.3524 -22.3524,-22.3524l-737.599 0z"/>
  <path class="fil9" d="M971.632 851.672l-67.9642 0c-0.959056,0 -1.90984,-0.129921 -2.82874,-0.407481 -5.03977,-1.52126 -7.89804,-6.84922 -6.37796,-11.8902 6.32599,-15.137 20.0445,-58.0134 41.9658,-61.4327 10.2508,-1.59921 17.915,8.87835 23.1532,16.8366 3.85158,5.85119 7.12678,12.2374 10.1126,18.5669 3.8752,8.21339 7.37245,16.6406 10.7291,25.0772 0.473622,1.19055 0.751182,2.42244 0.751182,3.70748 0,5.26772 -4.27323,9.54213 -9.54095,9.54213z"/>
  <path class="fil9" d="M947.155 748.443l0 37.1469c0,5.26536 -4.27441,9.54095 -9.54095,9.54095 -5.26772,0 -9.54213,-4.27441 -9.54213,-9.54095l0 -37.1469c0,-5.26772 4.27441,-9.54095 9.54213,-9.54095 5.26654,0 9.54095,4.27323 9.54095,9.54095z"/>
  <path class="fil9" d="M923.298 738.902l28.6288 0c5.26772,0 9.54213,2.30788 9.54213,5.15079 0,2.8441 -4.27441,5.15197 -9.54213,5.15197l-28.6288 0c-5.26654,0 -9.54095,-2.30788 -9.54095,-5.15197 0,-2.84292 4.27441,-5.15079 9.54095,-5.15079z"/>
  <path class="fil10" d="M792.922 821.131c-3.57166,-1.76575 -7.94883,-0.39567 -9.77481,3.06024 -1.82362,3.45709 -0.407481,7.69134 3.16418,9.45709 4.94055,2.4437 10.5189,4.363 16.0973,4.63583 4.68662,0.229134 9.30473,-0.713386 13.1811,-3.35551 3.93898,-2.68465 6.36969,-6.58111 7.47756,-11.0787 1.08662,-4.40788 0.823229,-9.11812 -0.0838583,-13.5343 -2.2311,-10.8567 -8.65394,-21.7205 -15.6957,-30.3366 -7.33583,-8.97757 -16.924,-17.4957 -27.5044,-22.7268 -3.57166,-1.76575 -7.95001,-0.39567 -9.77481,3.06024 -1.82362,3.45591 -0.407481,7.69134 3.16299,9.45827 8.72245,4.31221 16.6713,11.5264 22.7173,18.9248 5.60079,6.85158 11.0315,15.6957 12.8055,24.3343 0.490158,2.38937 0.790158,5.17914 0.200788,7.56497 -0.256299,1.03465 -0.72756,2.14725 -1.64055,2.79095 -1.12677,0.794883 -2.78622,0.90945 -4.14803,0.843308 -3.45236,-0.17126 -7.12796,-1.5874 -10.1847,-3.09803z"/>
  <path class="fil11" d="M777.726 748.129l0.99567 4.99843 17.1437 85.93c0.257481,1.2874 0.23504,0.485433 0.23504,2.17087 0,5.62914 -4.56733,10.1965 -10.1965,10.1965l-72.6331 0c-1.31575,0 -0.591733,0.0956694 -2.06575,-0.196063 -5.51221,-1.09724 -9.10631,-6.48189 -8.0067,-11.9953l18.1488 -90.9568c0.957875,-4.80355 5.09174,-8.3504 10.0276,-8.3504l36.2563 0c4.71496,0 9.22914,3.65788 10.0949,8.20276z"/>
  <path class="fil12" d="M736.149 531.378c18.0603,0 34.4138,7.32402 46.2508,19.1599 11.837,11.837 19.1599,28.1918 19.1599,46.2532 0,18.0603 -7.32284,34.4138 -19.1599,46.2508 -11.837,11.837 -28.1906,19.1599 -46.2508,19.1599 -18.0614,0 -34.4162,-7.32284 -46.2532,-19.1599 -11.837,-11.837 -19.1599,-28.1906 -19.1599,-46.2508 0,-18.0614 7.32284,-34.4162 19.1599,-46.2532 11.837,-11.8358 28.1918,-19.1599 46.2532,-19.1599z"/>
  <path class="fil12" d="M594.723 531.378c18.0603,0 34.415,7.32402 46.252,19.1599 11.8358,11.837 19.1599,28.1918 19.1599,46.2532 0,18.0603 -7.32402,34.4138 -19.1599,46.2508 -11.837,11.837 -28.1918,19.1599 -46.252,19.1599 -18.0603,0 -34.415,-7.32284 -46.252,-19.1599 -11.837,-11.837 -19.1599,-28.1906 -19.1599,-46.2508 0,-18.0614 7.32284,-34.4162 19.1599,-46.2532 11.837,-11.8358 28.1906,-19.1599 46.252,-19.1599z"/>
  <path class="fil13" d="M736.149 560.059c10.1421,0 19.3264,4.11142 25.9725,10.7587 6.64725,6.64725 10.7599,15.8315 10.7599,25.9736 0,10.1421 -4.1126,19.3252 -10.7599,25.9725 -6.64607,6.64725 -15.8303,10.7599 -25.9725,10.7599 -10.1421,0 -19.3264,-4.1126 -25.9736,-10.7599 -6.64725,-6.64725 -10.7587,-15.8303 -10.7587,-25.9725 0,-10.1421 4.11142,-19.3264 10.7587,-25.9736 6.64725,-6.64725 15.8315,-10.7587 25.9736,-10.7587z"/>
  <path class="fil13" d="M594.723 560.059c10.1421,0 19.3264,4.11142 25.9736,10.7587 6.64607,6.64725 10.7587,15.8315 10.7587,25.9736 0,10.1421 -4.1126,19.3252 -10.7587,25.9725 -6.64725,6.64725 -15.8315,10.7599 -25.9736,10.7599 -10.1421,0 -19.3264,-4.1126 -25.9725,-10.7599 -6.64725,-6.64725 -10.7599,-15.8303 -10.7599,-25.9725 0,-10.1421 4.1126,-19.3264 10.7599,-25.9736 6.64607,-6.64725 15.8303,-10.7587 25.9725,-10.7587z"/>
  <path class="fil5" d="M1021.6 569.691l62.2855 0c2.41536,0 4.37244,1.95827 4.37244,4.37244 0,0.346063 -0.0401575,0.683859 -0.115748,1.0063l-15.5563 77.9753 -4.2874 -0.853938 4.2874 0.853938c-0.419292,2.10945 -2.29252,3.55866 -4.37008,3.51733l-31.0914 0c-2.16614,0 -3.96496,-1.57559 -4.31103,-3.6437l-15.5622 -78.0001 -0.0011811 0c-0.472441,-2.36693 1.06536,-4.67126 3.43229,-5.14252 0.308268,-0.0614174 0.615355,-0.0885827 0.917717,-0.0850394z"/>
  <path class="fil6" d="M1021.6 569.691l31.0949 0 0 86.8713 -15.5705 0c-2.16614,0 -3.96496,-1.57559 -4.31103,-3.6437l-15.5622 -78.0001 -0.0011811 0c-0.472441,-2.36693 1.06536,-4.67126 3.43229,-5.14252 0.308268,-0.0614174 0.615355,-0.0885827 0.917717,-0.0850394z"/>
  <path class="fil14" d="M518.235 1503.58c-5.56418,0 -10.0748,4.51063 -10.0748,10.0736 0,5.563 4.51063,10.0736 10.0748,10.0736l143.946 0c5.563,0 10.0736,-4.51063 10.0736,-10.0736 0,-5.563 -4.51063,-10.0736 -10.0736,-10.0736l-143.946 0z"/>
  <path class="fil14" d="M1382.25 1503.58c-5.56418,0 -10.0736,4.51063 -10.0736,10.0736 0,5.563 4.50945,10.0736 10.0736,10.0736l143.946 0c5.563,0 10.0736,-4.51063 10.0736,-10.0736 0,-5.563 -4.51063,-10.0736 -10.0736,-10.0736l-143.946 0z"/>
  <path class="fil14" d="M917.168 1397.74c-12.8587,0 -23.2843,10.4244 -23.2843,23.2831 0,12.8587 10.4256,23.2843 23.2843,23.2843l209.544 0c12.8587,0 23.2843,-10.4256 23.2843,-23.2843 0,-12.8587 -10.4256,-23.2831 -23.2843,-23.2831l-209.544 0z"/>
  <path class="fil14" d="M528.585 1304.61c-12.8587,0 -23.2843,10.4256 -23.2843,23.2831 0,12.8587 10.4256,64.2107 23.2843,64.2107l129.843 0 0 168.619c0,12.8575 10.4244,23.2831 23.2831,23.2831 12.8587,0 23.2831,-10.4256 23.2831,-23.2831l0 -232.83c0,-12.8575 -10.4244,-23.2831 -23.2831,-23.2831 -52.7079,4.28032 -99.3461,7.02756 -153.126,0z"/>
  <path class="fil14" d="M1519.41 1304.61c12.8587,0 23.2843,10.4256 23.2843,23.2831 0,12.8587 -10.4256,64.2107 -23.2843,64.2107l-129.843 0 0 168.619c0,12.8575 -10.4244,23.2831 -23.2831,23.2831 -12.8587,0 -23.2831,-10.4256 -23.2831,-23.2831l0 -232.83c0,-12.8575 10.4244,-23.2831 23.2831,-23.2831 52.7079,4.28032 99.3461,7.02756 153.126,0z"/>
  <path class="fil15" d="M542.015 1025.21c0,-12.8587 -10.4244,-23.2843 -23.2831,-23.2843 -12.8587,0 -23.2831,10.4256 -23.2831,23.2843 16.9441,122.445 13.5992,222.715 0,311.776l-26.2973 221.001c-1.50591,12.7571 7.61575,24.3225 20.3729,25.8295 12.7583,1.50591 24.3236,-7.61575 25.8295,-20.3729l26.3528 -221.472c0.201969,-1.23307 0.308268,-2.49921 0.308268,-3.78898 9.80906,-97.1906 12.4264,-199.611 0,-312.972z"/>
  <path class="fil15" d="M1505.98 1025.21c0,-12.8587 10.4244,-23.2843 23.2831,-23.2843 12.8587,0 23.2831,10.4256 23.2831,23.2843 -16.9441,122.445 -13.5992,222.715 0,311.776l26.2973 221.001c1.50591,12.7571 -7.61575,24.3225 -20.3729,25.8295 -12.7583,1.50591 -24.3236,-7.61575 -25.8295,-20.3729l-26.3528 -221.472c-0.201969,-1.23307 -0.308268,-2.49921 -0.308268,-3.78898 -9.80906,-97.1906 -12.4264,-199.611 0,-312.972z"/>
  <path class="fil15" d="M922.672 1144.19c0,-12.8587 -10.4256,-23.2843 -23.2843,-23.2843 -12.8575,0 -23.2831,10.4256 -23.2831,23.2843l0 416.526c0,12.8575 10.4256,23.2831 23.2831,23.2831 12.8587,0 23.2843,-10.4256 23.2843,-23.2831l0 -416.526z"/>
  <path class="fil15" d="M1167.77 1144.19c0,-12.8587 -10.4244,-23.2843 -23.2831,-23.2843 -12.8587,0 -23.2831,10.4256 -23.2831,23.2843l0 416.526c0,12.8575 10.4244,23.2831 23.2831,23.2831 12.8587,0 23.2831,-10.4256 23.2831,-23.2831l0 -416.526z"/>
  <path class="fil16" d="M651.552 1203.7c0,30.052 27.8079,103.72 27.8079,0l0 -27.1453 684.59 0 0 27.1453c0,95.0481 28.3772,22.187 28.3772,0l0 -79.3371c0,-12.8587 -10.4256,-23.2831 -23.2831,-23.2831l-694.209 0c-12.8587,0 -23.2831,10.4244 -23.2831,23.2831l0 79.3371z"/>
  <path class="fil17" d="M1392.33 1127.46l0 -3.10512c0,-12.8587 -10.4256,-23.2831 -23.2831,-23.2831l-694.209 0c-12.8587,0 -23.2831,10.4244 -23.2831,23.2831l0 3.10512 740.775 0z"/>
  <path class="fil18" d="M1331.45 670.629c9.32599,0 16.8851,7.56024 16.8851,16.8851 0,9.32599 -7.55906,16.8839 -16.8851,16.8839 -9.32599,0 -16.8839,-7.55788 -16.8839,-16.8839 0,-9.32481 7.55788,-16.8851 16.8839,-16.8851z"/>
  <path class="fil5" d="M939.75 569.691l62.2855 0c2.41418,0 4.37244,1.95827 4.37244,4.37244 0,0.346063 -0.0401575,0.683859 -0.116929,1.0063l-15.5563 77.9753 -4.28622 -0.853938 4.2874 0.853938c-0.420473,2.10945 -2.2937,3.55866 -4.37126,3.51733l-31.0902 0c-2.16732,0 -3.96496,-1.57559 -4.31221,-3.6437l-15.561 -78.0001 -0.00236221 0c-0.47126,-2.36693 1.06536,-4.67126 3.43229,-5.14252 0.309449,-0.0614174 0.616536,-0.0885827 0.918898,-0.0850394z"/>
  <path class="fil6" d="M939.75 569.691l31.0949 0 0 86.8713 -15.5705 0c-2.16732,0 -3.96496,-1.57559 -4.31221,-3.6437l-15.561 -78.0001 -0.00236221 0c-0.47126,-2.36693 1.06536,-4.67126 3.43229,-5.14252 0.309449,-0.0614174 0.616536,-0.0885827 0.918898,-0.0850394z"/>
  <path class="fil5" d="M857.894 569.691l62.2867 0c2.41418,0 4.37126,1.95827 4.37126,4.37244 0,0.346063 -0.0401575,0.683859 -0.115748,1.0063l-15.5563 77.9753 -4.2874 -0.853938 4.2874 0.853938c-0.419292,2.10945 -2.29252,3.55866 -4.37008,3.51733l-31.0914 0c-2.16614,0 -3.96496,-1.57559 -4.31103,-3.6437l-15.5622 -78.0001 -0.0011811 0c-0.47126,-2.36693 1.06536,-4.67126 3.43229,-5.14252 0.308268,-0.0614174 0.615355,-0.0885827 0.917717,-0.0850394z"/>
  <path class="fil6" d="M857.894 569.691l31.0961 0 0 86.8713 -15.5717 0c-2.16614,0 -3.96496,-1.57559 -4.31103,-3.6437l-15.5622 -78.0001 -0.0011811 0c-0.47126,-2.36693 1.06536,-4.67126 3.43229,-5.14252 0.308268,-0.0614174 0.615355,-0.0885827 0.917717,-0.0850394z"/>
  <path class="fil9" d="M1070.77 851.672l-67.9642 0c-0.959056,0 -1.90984,-0.129921 -2.82874,-0.407481 -5.03977,-1.52126 -7.89804,-6.84922 -6.37796,-11.8902 6.32599,-15.137 20.0445,-58.0134 41.9658,-61.4327 10.2508,-1.59921 17.915,8.87835 23.1532,16.8366 3.85276,5.85119 7.12678,12.2374 10.1126,18.5669 3.8752,8.21339 7.37245,16.6406 10.7291,25.0772 0.473622,1.19055 0.751182,2.42244 0.751182,3.70748 0,5.26772 -4.27323,9.54213 -9.54095,9.54213z"/>
  <path class="fil9" d="M1169.9 851.672l-67.9642 0c-0.959056,0 -1.90984,-0.129921 -2.82874,-0.407481 -5.03977,-1.52126 -7.89804,-6.84922 -6.37796,-11.8902 6.32599,-15.137 20.0445,-58.0134 41.9658,-61.4327 10.2508,-1.59921 17.915,8.87835 23.1532,16.8366 3.85276,5.85119 7.12796,12.2374 10.1126,18.5669 3.8752,8.21339 7.37245,16.6406 10.7291,25.0772 0.473622,1.19055 0.751182,2.42244 0.751182,3.70748 0,5.26772 -4.27323,9.54213 -9.54095,9.54213z"/>
  <path class="fil9" d="M1046.29 748.443l0 37.1469c0,5.26536 -4.27441,9.54095 -9.54095,9.54095 -5.26772,0 -9.54213,-4.27441 -9.54213,-9.54095l0 -37.1469c0,-5.26772 4.27441,-9.54095 9.54213,-9.54095 5.26654,0 9.54095,4.27323 9.54095,9.54095z"/>
  <path class="fil9" d="M1145.42 748.443l0 37.1469c0,5.26536 -4.27323,9.54095 -9.54095,9.54095 -5.26772,0 -9.54213,-4.27441 -9.54213,-9.54095l0 -37.1469c0,-5.26772 4.27441,-9.54095 9.54213,-9.54095 5.26772,0 9.54095,4.27323 9.54095,9.54095z"/>
  <path class="fil9" d="M1022.43 738.902l28.6276 0c5.26772,0 9.54213,2.30788 9.54213,5.15079 0,2.8441 -4.27441,5.15197 -9.54213,5.15197l-28.6276 0c-5.26772,0 -9.54213,-2.30788 -9.54213,-5.15197 0,-2.84292 4.27441,-5.15079 9.54213,-5.15079z"/>
  <path class="fil9" d="M1121.57 738.902l28.6276 0c5.26772,0 9.54213,2.30788 9.54213,5.15079 0,2.8441 -4.27441,5.15197 -9.54213,5.15197l-28.6276 0c-5.26772,0 -9.54213,-2.30788 -9.54213,-5.15197 0,-2.84292 4.27441,-5.15079 9.54213,-5.15079z"/>
  <path class="fil10" d="M651.951 821.131c-3.57166,-1.76575 -7.94883,-0.39567 -9.77481,3.06024 -1.82362,3.45709 -0.407481,7.69134 3.16418,9.45709 4.94055,2.4437 10.5189,4.363 16.0984,4.63583 4.68544,0.229134 9.30355,-0.713386 13.1799,-3.35551 3.94016,-2.68465 6.36969,-6.58111 7.47756,-11.0787 1.08662,-4.40788 0.823229,-9.11812 -0.0838583,-13.5343 -2.2311,-10.8567 -8.65394,-21.7205 -15.6957,-30.3366 -7.33583,-8.97757 -16.924,-17.4957 -27.5044,-22.7268 -3.57166,-1.76575 -7.95001,-0.39567 -9.77481,3.06024 -1.82362,3.45591 -0.407481,7.69134 3.16418,9.45827 8.72245,4.31221 16.6701,11.5264 22.7162,18.9248 5.60079,6.85158 11.0315,15.6957 12.8055,24.3343 0.491339,2.38937 0.790158,5.17914 0.200788,7.56497 -0.255118,1.03465 -0.72756,2.14725 -1.64055,2.79095 -1.12559,0.794883 -2.78504,0.90945 -4.14803,0.843308 -3.45236,-0.17126 -7.12796,-1.5874 -10.1847,-3.09803z"/>
  <path class="fil11" d="M636.755 748.129l0.99567 4.99843 17.1437 85.93c0.257481,1.2874 0.23504,0.485433 0.23504,2.17087 0,5.62914 -4.56733,10.1965 -10.1965,10.1965l-72.6331 0c-1.31575,0 -0.591733,0.0956694 -2.06575,-0.196063 -5.51221,-1.09724 -9.10631,-6.48189 -8.00552,-11.9953l18.1477 -90.9568c0.957875,-4.80355 5.09174,-8.3504 10.0276,-8.3504l36.2563 0c4.71496,0 9.22914,3.65788 10.0949,8.20276z"/>
 </g>
</svg>
