<?xml version="1.0" encoding="UTF-8"?>
<!DOCTYPE svg PUBLIC "-//W3C//DTD SVG 1.1//EN" "http://www.w3.org/Graphics/SVG/1.1/DTD/svg11.dtd">
<!-- Creator: CorelDRAW -->
<svg xmlns="http://www.w3.org/2000/svg" xml:space="preserve" width="2048px" height="2048px" style="shape-rendering:geometricPrecision; text-rendering:geometricPrecision; image-rendering:optimizeQuality; fill-rule:evenodd; clip-rule:evenodd"
viewBox="0 0 2048 2048"
 xmlns:xlink="http://www.w3.org/1999/xlink">
 <defs>
  <style type="text/css">
   <![CDATA[
    .fil2 {fill:none}
    .fil1 {fill:#00695C}
    .fil0 {fill:#00897B}
    .fil7 {fill:#80DEEA;fill-rule:nonzero}
    .fil6 {fill:#AEB4B8;fill-rule:nonzero}
    .fil5 {fill:#BAC2C6;fill-rule:nonzero}
    .fil3 {fill:#CFD8DC;fill-rule:nonzero}
    .fil4 {fill:#FFFFFE;fill-rule:nonzero}
   ]]>
  </style>
   <clipPath id="id0">
    <path d="M1024 -0.0011811c565.539,0 1024,458.462 1024,1024 0,565.539 -458.462,1024 -1024,1024 -565.539,0 -1024,-458.462 -1024,-1024 0,-565.539 458.462,-1024 1024,-1024z"/>
   </clipPath>
 </defs>
 <g id="Layer_x0020_1">
  <metadata id="CorelCorpID_0Corel-Layer"/>
  <path class="fil0" d="M1024 -0.0011811c565.539,0 1024,458.462 1024,1024 0,565.539 -458.462,1024 -1024,1024 -565.539,0 -1024,-458.462 -1024,-1024 0,-565.539 458.462,-1024 1024,-1024z"/>
  <g style="clip-path:url(#id0)">
   <g id="_451250504">
    <g>
     <polygon id="_2863468001" class="fil1" points="1118.94,510.902 2254.82,1646.78 2045.05,1646.78 909.171,510.902 "/>
     <polygon id="_286346824" class="fil1" points="909.171,510.902 2045.05,1646.78 2045.05,2487.5 909.171,1351.62 "/>
     <polygon id="_286349728" class="fil1" points="1226.79,749.747 2362.67,1885.63 2256.13,1885.63 1120.25,749.747 "/>
     <polygon id="_286349272" class="fil1" points="1240.39,793.449 2376.27,1929.33 2376.27,1952.78 1240.39,816.899 "/>
     <polygon id="_286349008" class="fil1" points="1240.39,816.899 2376.27,1952.78 2376.21,1954.03 2376.01,1955.26 2375.69,1956.45 2375.24,1957.59 2374.68,1958.69 2374.01,1959.72 2373.22,1960.68 2372.33,1961.56 1236.45,825.673 1237.34,824.794 1238.12,823.835 1238.8,822.804 1239.36,821.711 1239.81,820.564 1240.13,819.375 1240.33,818.15 "/>
     <polygon id="_286349128" class="fil1" points="1298.33,875.522 2434.21,2011.4 2432.04,2011.11 2429.96,2010.43 2428.04,2009.39 2426.34,2008.01 1290.45,872.13 1292.16,873.507 1294.08,874.55 1296.16,875.231 "/>
     <polygon id="_286349536" class="fil1" points="1228.29,828.622 2364.17,1964.5 2362,1964.21 2359.92,1963.53 2358,1962.49 2356.29,1961.11 1220.41,825.229 1222.12,826.607 1224.04,827.65 1226.11,828.33 "/>
     <polygon id="_286349320" class="fil1" points="1163.59,785.6 2299.47,1921.48 2300.48,1922.77 2301.32,1924.21 2301.94,1925.79 2302.33,1927.5 2302.47,1929.33 1166.59,793.449 1166.45,791.616 1166.06,789.903 1165.44,788.323 1164.6,786.885 "/>
     <polygon id="_286350304" class="fil1" points="1240.39,840.35 2376.27,1976.23 2376.27,1999.68 1240.39,863.8 "/>
     <polygon id="_286350112" class="fil1" points="1120.25,749.747 2256.13,1885.63 2253.73,1885.51 2251.4,1885.15 2249.16,1884.57 2247,1883.79 2244.95,1882.8 2243.02,1881.62 2241.21,1880.27 2239.55,1878.76 1103.67,742.877 1105.33,744.392 1107.14,745.742 1109.07,746.916 1111.12,747.904 1113.27,748.692 1115.52,749.271 1117.85,749.625 "/>
     <polygon id="_286350040" class="fil1" points="1166.59,793.449 2302.47,1929.33 2302.47,1952.78 1166.59,816.898 "/>
     <polygon id="_286349968" class="fil1" points="1166.59,816.898 2302.47,1952.78 2302.4,1954.03 2302.21,1955.26 2301.88,1956.45 2301.44,1957.59 2300.88,1958.69 2300.2,1959.72 2299.41,1960.68 2298.52,1961.55 1162.64,825.672 1163.53,824.793 1164.32,823.834 1165,822.804 1165.56,821.71 1166,820.563 1166.33,819.374 1166.52,818.149 "/>
     <polygon id="_286350064" class="fil1" points="1228.29,875.522 2364.17,2011.4 2362,2011.11 2359.92,2010.43 2358,2009.39 2356.29,2008.01 1220.41,872.13 1222.12,873.507 1224.04,874.55 1226.11,875.231 "/>
     <polygon id="_286350184" class="fil1" points="1162.64,825.672 2298.52,1961.55 2297.67,1962.24 2296.79,1962.84 2295.88,1963.34 2294.95,1963.75 2294.01,1964.06 2293.05,1964.3 2292.09,1964.44 2291.12,1964.51 1155.24,828.627 1156.21,828.562 1157.17,828.415 1158.13,828.183 1159.07,827.864 1160,827.455 1160.91,826.955 1161.79,826.361 "/>
     <polygon id="_286350208" class="fil1" points="1154.48,828.621 2290.36,1964.5 2288.19,1964.21 2286.11,1963.53 2284.19,1962.49 2282.49,1961.11 1146.61,825.227 1148.31,826.606 1150.23,827.649 1152.31,828.329 "/>
     <polygon id="_286350448" class="fil1" points="1166.59,863.8 2302.47,1999.68 2302.4,2000.93 2302.21,2002.16 2301.88,2003.35 2301.44,2004.49 2300.88,2005.59 2300.2,2006.62 2299.41,2007.58 2298.52,2008.46 1162.64,872.573 1163.53,871.694 1164.32,870.735 1165,869.704 1165.56,868.612 1166,867.465 1166.33,866.275 1166.52,865.051 "/>
     <polygon id="_286350760" class="fil1" points="1162.64,872.573 2298.52,2008.46 2297.67,2009.15 2296.79,2009.74 2295.88,2010.24 2294.95,2010.65 2294.01,2010.97 2293.05,2011.2 2292.09,2011.35 2291.12,2011.41 1155.24,875.528 1156.21,875.463 1157.17,875.316 1158.13,875.084 1159.07,874.764 1160,874.357 1160.91,873.856 1161.79,873.263 "/>
     <polygon id="_286350856" class="fil1" points="1163.12,878.92 2299,2014.8 2300.43,2016.49 2301.52,2018.46 2302.22,2020.68 2302.47,2023.13 1166.59,887.25 1166.34,884.798 1165.64,882.575 1164.55,880.607 "/>
     <polygon id="_286350640" class="fil1" points="1154.48,875.521 2290.36,2011.4 2288.19,2011.11 2286.11,2010.43 2284.19,2009.39 2282.49,2008.01 1146.61,872.129 1148.31,873.506 1150.23,874.549 1152.31,875.229 "/>
     <polygon id="_286351192" class="fil1" points="1166.59,910.7 2302.47,2046.58 2302.4,2047.83 2302.21,2049.06 2301.88,2050.25 2301.44,2051.39 2300.88,2052.49 2300.2,2053.52 2299.41,2054.48 2298.52,2055.36 1162.64,919.474 1163.53,918.595 1164.32,917.636 1165,916.606 1165.56,915.512 1166,914.365 1166.33,913.176 1166.52,911.951 "/>
     <polygon id="_286350544" class="fil1" points="1166.59,887.25 2302.47,2023.13 2302.47,2046.58 1166.59,910.7 "/>
     <polygon id="_286350664" class="fil1" points="1163.12,832.02 2299,1967.9 2300.43,1969.59 2301.52,1971.56 2302.22,1973.78 2302.47,1976.23 1166.59,840.349 1166.34,837.897 1165.64,835.674 1164.55,833.707 "/>
     <polygon id="_286351120" class="fil1" points="1240.39,863.8 2376.27,1999.68 2376.21,2000.93 2376.01,2002.16 2375.69,2003.35 2375.24,2004.49 2374.68,2005.59 2374.01,2006.62 2373.22,2007.58 2372.33,2008.46 1236.45,872.573 1237.34,871.694 1238.12,870.735 1238.8,869.705 1239.36,868.612 1239.81,867.465 1240.13,866.275 1240.33,865.051 "/>
     <polygon id="_286350880" class="fil1" points="1236.45,825.673 2372.33,1961.56 2371.48,1962.24 2370.59,1962.84 2369.69,1963.34 2368.76,1963.75 2367.81,1964.07 2366.86,1964.3 2365.89,1964.45 2364.93,1964.51 1229.05,828.628 1230.01,828.563 1230.97,828.416 1231.93,828.184 1232.88,827.865 1233.81,827.456 1234.71,826.957 1235.59,826.362 "/>
     <polygon id="_286350952" class="fil1" points="1237.39,785.6 2373.27,1921.48 2374.29,1922.77 2375.12,1924.21 2375.75,1925.79 2376.14,1927.5 2376.27,1929.33 1240.39,793.449 1240.26,791.616 1239.87,789.903 1239.24,788.323 1238.41,786.885 "/>
     <polygon id="_286351072" class="fil1" points="1333.33,749.747 2469.21,1885.63 2362.67,1885.63 1226.79,749.747 "/>
     <polygon id="_286351768" class="fil1" points="1310.44,793.449 2446.32,1929.33 2446.32,1952.78 1310.44,816.899 "/>
     <polygon id="_286351792" class="fil1" points="1310.44,816.899 2446.32,1952.78 2446.25,1954.03 2446.05,1955.26 2445.73,1956.45 2445.29,1957.59 2444.72,1958.69 2444.05,1959.72 2443.26,1960.68 2442.37,1961.56 1306.49,825.673 1307.38,824.794 1308.17,823.835 1308.84,822.804 1309.41,821.711 1309.85,820.564 1310.17,819.375 1310.37,818.15 "/>
     <polygon id="_286351408" class="fil1" points="1306.49,825.673 2442.37,1961.56 2441.52,1962.24 2440.64,1962.84 2439.73,1963.34 2438.8,1963.75 2437.86,1964.07 2436.9,1964.3 2435.94,1964.45 2434.97,1964.51 1299.09,828.628 1300.05,828.563 1301.02,828.416 1301.97,828.184 1302.92,827.865 1303.85,827.456 1304.76,826.957 1305.64,826.362 "/>
     <polygon id="_286351888" class="fil1" points="1166.59,840.349 2302.47,1976.23 2302.47,1999.68 1166.59,863.8 "/>
     <polygon id="_286351936" class="fil1" points="1228.29,922.424 2364.17,2058.31 2362,2058.01 2359.92,2057.33 2358,2056.29 2356.29,2054.91 1220.41,919.031 1222.12,920.409 1224.04,921.452 1226.11,922.132 "/>
     <polygon id="_286352032" class="fil1" points="1236.45,966.375 2372.33,2102.26 2371.48,2102.95 2370.59,2103.54 2369.69,2104.04 2368.76,2104.45 2367.81,2104.77 2366.86,2105 2365.89,2105.15 2364.93,2105.21 1229.05,969.33 1230.01,969.265 1230.97,969.119 1231.93,968.886 1232.88,968.567 1233.81,968.159 1234.71,967.659 1235.59,967.065 "/>
     <polygon id="_286352632" class="fil1" points="1228.29,969.324 2364.17,2105.21 2362,2104.92 2359.92,2104.23 2358,2103.19 2356.29,2101.81 1220.41,965.932 1222.12,967.309 1224.04,968.352 1226.11,969.033 "/>
     <polygon id="_286352344" class="fil1" points="1162.64,919.474 2298.52,2055.36 2297.67,2056.05 2296.79,2056.64 2295.88,2057.14 2294.95,2057.55 2294.01,2057.87 2293.05,2058.1 2292.09,2058.25 2291.12,2058.31 1155.24,922.429 1156.21,922.364 1157.17,922.217 1158.13,921.985 1159.07,921.666 1160,921.257 1160.91,920.757 1161.79,920.163 "/>
     <polygon id="_286352680" class="fil1" points="1163.12,925.822 2299,2061.7 2300.43,2063.39 2301.52,2065.36 2302.22,2067.58 2302.47,2070.03 1166.59,934.151 1166.34,931.699 1165.64,929.476 1164.55,927.509 "/>
     <polygon id="_286352320" class="fil1" points="1154.48,922.423 2290.36,2058.31 2288.19,2058.01 2286.11,2057.33 2284.19,2056.29 2282.49,2054.91 1146.61,919.029 1148.31,920.408 1150.23,921.451 1152.31,922.131 "/>
     <polygon id="_286352248" class="fil1" points="1166.59,934.151 2302.47,2070.03 2302.47,2093.48 1166.59,957.602 "/>
     <polygon id="_286352800" class="fil1" points="1166.59,957.602 2302.47,2093.48 2302.4,2094.74 2302.21,2095.96 2301.88,2097.15 2301.44,2098.3 2300.88,2099.39 2300.2,2100.42 2299.41,2101.38 2298.52,2102.26 1162.64,966.375 1163.53,965.496 1164.32,964.537 1165,963.506 1165.56,962.414 1166,961.267 1166.33,960.078 1166.52,958.853 "/>
     <polygon id="_286352824" class="fil1" points="1162.64,966.375 2298.52,2102.26 2297.06,2103.37 2295.52,2104.21 2293.92,2104.79 2292.29,2105.13 2290.65,2105.22 2289.03,2105.08 2287.45,2104.72 2285.94,2104.16 2284.51,2103.4 2283.2,2102.45 2282.02,2101.33 1146.14,965.45 1147.32,966.57 1148.63,967.516 1150.06,968.276 1151.57,968.839 1153.15,969.196 1154.77,969.334 1156.41,969.243 1158.04,968.912 1159.63,968.331 1161.18,967.489 "/>
     <polygon id="_286352272" class="fil1" points="1236.45,1060.18 2372.33,2196.06 2371.48,2196.75 2370.59,2197.34 2369.69,2197.84 2368.76,2198.25 2367.81,2198.57 2366.86,2198.8 2365.89,2198.95 2364.93,2199.01 1229.05,1063.13 1230.01,1063.07 1230.97,1062.92 1231.93,1062.69 1232.88,1062.37 1233.81,1061.96 1234.71,1061.46 1235.59,1060.87 "/>
     <polygon id="_286352392" class="fil1" points="1236.92,1066.53 2372.81,2202.41 2374.23,2204.09 2375.33,2206.06 2376.03,2208.29 2376.27,2210.74 1240.39,1074.85 1240.15,1072.4 1239.45,1070.18 1238.35,1068.21 "/>
     <polygon id="_286353472" class="fil1" points="1228.29,1063.13 2364.17,2199.01 2362,2198.72 2359.92,2198.04 2358,2196.99 2356.29,2195.62 1220.41,1059.73 1222.12,1061.11 1224.04,1062.15 1226.11,1062.83 "/>
     <polygon id="_286353520" class="fil1" points="1240.39,1098.31 2376.27,2234.19 2376.21,2235.44 2376.01,2236.66 2375.69,2237.85 2375.24,2239 2374.68,2240.09 2374.01,2241.12 2373.22,2242.08 2372.33,2242.96 1236.45,1107.08 1237.34,1106.2 1238.12,1105.24 1238.8,1104.21 1239.36,1103.12 1239.81,1101.97 1240.13,1100.78 1240.33,1099.56 "/>
     <polygon id="_286353592" class="fil1" points="1236.45,1107.08 2372.33,2242.96 2370.86,2244.07 2369.32,2244.92 2367.72,2245.5 2366.09,2245.83 2364.46,2245.92 2362.84,2245.78 2361.26,2245.42 2359.74,2244.86 2358.32,2244.1 2357,2243.16 2355.83,2242.04 1219.94,1106.15 1221.12,1107.27 1222.43,1108.22 1223.86,1108.98 1225.38,1109.54 1226.96,1109.9 1228.58,1110.04 1230.21,1109.95 1231.84,1109.62 1233.44,1109.03 1234.98,1108.19 "/>
     <polygon id="_286353424" class="fil1" points="1240.39,1074.85 2376.27,2210.74 2376.27,2234.19 1240.39,1098.31 "/>
     <polygon id="_286352896" class="fil1" points="1228.29,1016.23 2364.17,2152.11 2362,2151.82 2359.92,2151.14 2358,2150.09 2356.29,2148.72 1220.41,1012.83 1222.12,1014.21 1224.04,1015.25 1226.11,1015.93 "/>
     <polygon id="_286353208" class="fil1" points="1236.92,972.724 2372.81,2108.61 2374.23,2110.29 2375.33,2112.26 2376.03,2114.48 2376.27,2116.94 1240.39,981.053 1240.15,978.601 1239.45,976.378 1238.35,974.41 "/>
     <polygon id="_286353448" class="fil1" points="1240.39,934.152 2376.27,2070.03 2376.27,2093.48 1240.39,957.602 "/>
     <polygon id="_286353040" class="fil1" points="1240.39,887.251 2376.27,2023.13 2376.27,2046.58 1240.39,910.701 "/>
     <polygon id="_286353232" class="fil1" points="1310.44,910.701 2446.32,2046.58 2446.25,2047.83 2446.05,2049.06 2445.73,2050.25 2445.29,2051.4 2444.72,2052.49 2444.05,2053.52 2443.26,2054.48 2442.37,2055.36 1306.49,919.475 1307.38,918.596 1308.17,917.637 1308.84,916.606 1309.41,915.513 1309.85,914.366 1310.17,913.177 1310.37,911.952 "/>
     <polygon id="_286353352" class="fil1" points="1298.33,828.622 2434.21,1964.5 2432.04,1964.21 2429.96,1963.53 2428.04,1962.49 2426.34,1961.11 1290.45,825.229 1292.16,826.607 1294.08,827.65 1296.16,828.33 "/>
     <polygon id="_286354120" class="fil1" points="1310.44,863.8 2446.32,1999.68 2446.25,2000.93 2446.05,2002.16 2445.73,2003.35 2445.29,2004.49 2444.72,2005.59 2444.05,2006.62 2443.26,2007.58 2442.37,2008.46 1306.49,872.573 1307.38,871.694 1308.17,870.735 1308.84,869.705 1309.41,868.612 1309.85,867.465 1310.17,866.275 1310.37,865.051 "/>
     <polygon id="_286353784" class="fil1" points="1306.49,872.573 2442.37,2008.46 2441.52,2009.15 2440.64,2009.74 2439.73,2010.24 2438.8,2010.65 2437.86,2010.97 2436.9,2011.2 2435.94,2011.35 2434.97,2011.41 1299.09,875.528 1300.05,875.463 1301.02,875.317 1301.97,875.084 1302.92,874.765 1303.85,874.357 1304.76,873.857 1305.64,873.263 "/>
     <polygon id="_286353664" class="fil1" points="1236.92,832.021 2372.81,1967.9 2374.23,1969.59 2375.33,1971.56 2376.03,1973.78 2376.27,1976.23 1240.39,840.35 1240.15,837.898 1239.45,835.675 1238.35,833.707 "/>
     <polygon id="_286353952" class="fil1" points="1310.44,887.251 2446.32,2023.13 2446.32,2046.58 1310.44,910.701 "/>
     <polygon id="_286354168" class="fil1" points="1306.49,919.475 2442.37,2055.36 2441.52,2056.05 2440.64,2056.64 2439.73,2057.14 2438.8,2057.55 2437.86,2057.87 2436.9,2058.1 2435.94,2058.25 2434.97,2058.31 1299.09,922.43 1300.05,922.365 1301.02,922.218 1301.97,921.986 1302.92,921.667 1303.85,921.258 1304.76,920.759 1305.64,920.164 "/>
     <polygon id="_286353712" class="fil1" points="1236.45,872.573 2372.33,2008.46 2371.48,2009.15 2370.59,2009.74 2369.69,2010.24 2368.76,2010.65 2367.81,2010.97 2366.86,2011.2 2365.89,2011.35 2364.93,2011.41 1229.05,875.528 1230.01,875.463 1230.97,875.317 1231.93,875.084 1232.88,874.765 1233.81,874.357 1234.71,873.857 1235.59,873.263 "/>
     <polygon id="_286354264" class="fil1" points="1236.92,878.922 2372.81,2014.8 2374.23,2016.49 2375.33,2018.46 2376.03,2020.68 2376.27,2023.13 1240.39,887.251 1240.15,884.799 1239.45,882.576 1238.35,880.608 "/>
     <polygon id="_286353616" class="fil1" points="1298.33,922.424 2434.21,2058.31 2432.04,2058.01 2429.96,2057.33 2428.04,2056.29 2426.34,2054.91 1290.45,919.031 1292.16,920.409 1294.08,921.452 1296.16,922.132 "/>
     <polygon id="_286353688" class="fil1" points="1306.49,966.375 2442.37,2102.26 2441.52,2102.95 2440.64,2103.54 2439.73,2104.04 2438.8,2104.45 2437.86,2104.77 2436.9,2105 2435.94,2105.15 2434.97,2105.21 1299.09,969.33 1300.05,969.265 1301.02,969.119 1301.97,968.886 1302.92,968.567 1303.85,968.159 1304.76,967.659 1305.64,967.065 "/>
     <polygon id="_286355056" class="fil1" points="1236.45,919.475 2372.33,2055.36 2371.48,2056.05 2370.59,2056.64 2369.69,2057.14 2368.76,2057.55 2367.81,2057.87 2366.86,2058.1 2365.89,2058.25 2364.93,2058.31 1229.05,922.43 1230.01,922.365 1230.97,922.218 1231.93,921.986 1232.88,921.667 1233.81,921.258 1234.71,920.759 1235.59,920.164 "/>
     <polygon id="_286354960" class="fil1" points="1236.92,925.823 2372.81,2061.71 2374.23,2063.39 2375.33,2065.36 2376.03,2067.58 2376.27,2070.03 1240.39,934.152 1240.15,931.7 1239.45,929.477 1238.35,927.509 "/>
     <polygon id="_286354624" class="fil1" points="1240.39,910.701 2376.27,2046.58 2376.21,2047.83 2376.01,2049.06 2375.69,2050.25 2375.24,2051.4 2374.68,2052.49 2374.01,2053.52 2373.22,2054.48 2372.33,2055.36 1236.45,919.475 1237.34,918.596 1238.12,917.637 1238.8,916.606 1239.36,915.513 1239.81,914.366 1240.13,913.177 1240.33,911.952 "/>
     <polygon id="_286354672" class="fil1" points="1064.07,1378.78 2199.96,2514.66 2201.03,2515.71 1065.15,1379.83 "/>
     <polygon id="_286355080" class="fil1" points="1065.15,1379.83 2201.03,2515.71 2202.09,2516.79 2203.11,2517.89 2204.11,2519.02 2205.09,2520.17 2206.03,2521.34 2206.95,2522.54 2207.84,2523.76 2208.7,2525.01 2209.53,2526.27 2210.34,2527.55 2211.11,2528.86 2211.85,2530.18 2212.56,2531.53 2213.23,2532.89 2213.88,2534.27 2214.49,2535.67 2215.07,2537.09 2215.62,2538.52 2216.13,2539.97 2216.6,2541.44 2217.05,2542.92 2217.45,2544.42 2217.82,2545.93 2218.15,2547.46 2218.45,2549 2218.7,2550.55 2218.92,2552.11 2219.1,2553.69 2219.24,2555.28 2219.35,2556.88 2219.41,2558.49 2219.43,2560.11 1083.55,1424.23 1083.53,1422.61 1083.47,1421 1083.36,1419.4 1083.22,1417.81 1083.04,1416.23 1082.82,1414.67 1082.57,1413.11 1082.27,1411.57 1081.94,1410.05 1081.57,1408.54 1081.16,1407.04 1080.72,1405.56 1080.25,1404.09 1079.74,1402.64 1079.19,1401.21 1078.61,1399.79 1078,1398.39 1077.35,1397.01 1076.68,1395.64 1075.97,1394.3 1075.23,1392.98 1074.45,1391.67 1073.65,1390.39 1072.82,1389.12 1071.96,1387.88 1071.07,1386.66 1070.15,1385.46 1069.21,1384.29 1068.23,1383.14 1067.23,1382.01 1066.21,1380.91 "/>
     <polygon id="_286354696" class="fil1" points="1083.55,1424.23 2219.43,2560.11 2219.41,2561.73 2219.35,2563.34 2219.24,2564.94 2219.1,2566.53 2218.92,2568.11 2218.7,2569.67 2218.45,2571.22 2218.15,2572.76 2217.82,2574.29 2217.45,2575.8 2217.05,2577.3 2216.6,2578.78 2216.13,2580.25 2215.62,2581.7 2215.07,2583.13 2214.49,2584.55 2213.88,2585.95 2213.23,2587.33 2212.56,2588.69 2211.85,2590.04 2211.11,2591.36 2210.34,2592.67 2209.53,2593.95 2208.7,2595.22 2207.84,2596.46 2206.95,2597.68 2206.03,2598.88 2205.09,2600.05 2204.11,2601.2 2203.11,2602.33 2202.09,2603.43 2201.03,2604.51 1065.15,1468.63 1066.21,1467.55 1067.23,1466.45 1068.23,1465.32 1069.21,1464.17 1070.15,1462.99 1071.07,1461.8 1071.96,1460.58 1072.82,1459.33 1073.65,1458.07 1074.45,1456.79 1075.23,1455.48 1075.97,1454.16 1076.68,1452.81 1077.35,1451.45 1078,1450.07 1078.61,1448.67 1079.19,1447.25 1079.74,1445.82 1080.25,1444.36 1080.72,1442.9 1081.16,1441.42 1081.57,1439.92 1081.94,1438.41 1082.27,1436.88 1082.57,1435.34 1082.82,1433.79 1083.04,1432.22 1083.22,1430.65 1083.36,1429.06 1083.47,1427.46 1083.53,1425.85 "/>
     <polygon id="_286354384" class="fil1" points="958.389,1416.85 2094.27,2552.73 2068.18,2532.79 932.294,1396.91 "/>
     <polygon id="_286354552" class="fil1" points="932.294,1396.91 2068.18,2532.79 2044.44,2523.53 908.555,1387.65 "/>
     <polygon id="_286354768" class="fil1" points="1065.15,1468.63 2201.03,2604.51 2199.96,2605.56 2198.85,2606.59 2197.73,2607.59 2196.57,2608.56 2195.4,2609.51 2194.2,2610.43 2192.98,2611.32 2191.74,2612.18 2190.48,2613.01 2189.19,2613.81 2187.89,2614.58 2186.56,2615.32 2185.22,2616.03 2183.86,2616.71 2182.47,2617.35 2181.07,2617.97 2179.66,2618.55 2178.22,2619.09 2176.77,2619.6 2175.31,2620.08 2173.82,2620.52 2172.33,2620.93 2170.81,2621.29 2169.29,2621.63 2167.75,2621.92 2166.2,2622.18 2164.63,2622.4 2163.05,2622.58 2161.47,2622.72 2159.86,2622.82 2158.25,2622.88 2156.63,2622.9 1020.75,1487.02 1022.37,1487 1023.98,1486.94 1025.58,1486.84 1027.17,1486.7 1028.75,1486.52 1030.31,1486.3 1031.87,1486.04 1033.41,1485.75 1034.93,1485.41 1036.44,1485.04 1037.94,1484.64 1039.42,1484.2 1040.89,1483.72 1042.34,1483.21 1043.78,1482.66 1045.19,1482.08 1046.59,1481.47 1047.97,1480.83 1049.34,1480.15 1050.68,1479.44 1052.01,1478.7 1053.31,1477.93 1054.6,1477.13 1055.86,1476.3 1057.1,1475.43 1058.32,1474.54 1059.52,1473.63 1060.69,1472.68 1061.84,1471.71 1062.97,1470.71 1064.07,1469.68 "/>
     <polygon id="_286354840" class="fil1" points="908.555,1387.65 2044.44,2523.53 2044.05,2524.98 2043.58,2526.38 2043.02,2527.74 2042.38,2529.06 2041.66,2530.33 2040.87,2531.55 2040,2532.72 2039.07,2533.82 903.187,1397.94 904.122,1396.83 904.986,1395.67 905.78,1394.45 906.498,1393.18 907.137,1391.86 907.696,1390.5 908.169,1389.09 "/>
     <polygon id="_286355536" class="fil1" points="1020.75,1487.02 2156.63,2622.9 2155.01,2622.88 2153.4,2622.82 2151.8,2622.72 2150.22,2622.58 2148.64,2622.4 2147.07,2622.18 2145.52,2621.92 2143.98,2621.63 2142.46,2621.29 2140.94,2620.93 2139.45,2620.52 2137.96,2620.08 2136.5,2619.6 2135.05,2619.09 2133.61,2618.55 2132.19,2617.97 2130.8,2617.35 2129.41,2616.71 2128.05,2616.03 2126.71,2615.32 2125.38,2614.58 2124.08,2613.81 2122.79,2613.01 2121.53,2612.18 2120.29,2611.32 2119.07,2610.43 2117.87,2609.51 2116.7,2608.56 2115.54,2607.59 2114.42,2606.59 978.536,1470.71 979.663,1471.71 980.814,1472.68 981.988,1473.63 983.186,1474.54 984.406,1475.43 985.648,1476.3 986.911,1477.13 988.196,1477.93 989.501,1478.7 990.825,1479.44 992.169,1480.15 993.533,1480.83 994.914,1481.47 996.314,1482.08 997.731,1482.66 999.166,1483.21 1000.62,1483.72 1002.08,1484.2 1003.57,1484.64 1005.06,1485.04 1006.57,1485.41 1008.1,1485.75 1009.64,1486.04 1011.19,1486.3 1012.76,1486.52 1014.33,1486.7 1015.92,1486.84 1017.52,1486.94 1019.13,1487 "/>
     <polygon id="_286355344" class="fil1" points="863.358,1389.38 1999.24,2525.26 1975.03,2534.71 839.144,1398.82 "/>
     <polygon id="_286355416" class="fil1" points="796.235,1377.75 1932.12,2513.63 1933.22,2514.66 1934.3,2515.71 798.416,1379.83 797.338,1378.78 "/>
     <polygon id="_286355584" class="fil1" points="798.416,1379.83 1934.3,2515.71 1935.27,2516.71 1936.22,2517.72 1937.15,2518.76 1938.06,2519.82 1938.94,2520.9 1939.8,2521.99 1940.63,2523.11 1941.44,2524.25 805.563,1388.36 804.753,1387.23 803.918,1386.11 803.058,1385.01 802.176,1383.94 801.27,1382.88 800.34,1381.84 799.39,1380.82 "/>
     <polygon id="_286355392" class="fil1" points="839.144,1398.82 1975.03,2534.71 1952.19,2552.16 816.311,1416.27 "/>
     <polygon id="_286355680" class="fil1" points="816.311,1416.27 1952.19,2552.16 1952.31,2553.14 1952.41,2554.12 1952.49,2555.11 1952.57,2556.1 1952.62,2557.1 1952.66,2558.1 1952.68,2559.1 1952.69,2560.11 816.811,1424.23 816.803,1423.22 816.779,1422.21 816.74,1421.21 816.684,1420.22 816.614,1419.22 816.529,1418.24 816.427,1417.25 "/>
     <polygon id="_286355272" class="fil1" points="816.811,1424.23 1952.69,2560.11 1952.67,2561.73 1952.61,2563.34 1952.51,2564.94 1952.37,2566.53 1952.19,2568.11 1951.97,2569.67 1951.71,2571.22 1951.42,2572.76 1951.08,2574.29 1950.71,2575.8 1950.31,2577.3 1949.87,2578.78 1949.39,2580.25 1948.88,2581.7 1948.33,2583.13 1947.76,2584.55 1947.14,2585.95 1946.5,2587.33 1945.82,2588.69 1945.11,2590.04 1944.37,2591.36 1943.6,2592.67 1942.8,2593.95 1941.97,2595.22 1941.1,2596.46 1940.21,2597.68 1939.3,2598.88 1938.35,2600.05 1937.38,2601.2 1936.38,2602.33 1935.35,2603.43 1934.3,2604.51 798.416,1468.63 799.469,1467.55 800.495,1466.45 801.495,1465.32 802.469,1464.17 803.415,1462.99 804.334,1461.8 805.223,1460.58 806.084,1459.33 806.916,1458.07 807.718,1456.79 808.49,1455.48 809.231,1454.16 809.939,1452.81 810.617,1451.45 811.262,1450.07 811.875,1448.67 812.454,1447.25 812.999,1445.82 813.511,1444.36 813.987,1442.9 814.429,1441.42 814.834,1439.92 815.202,1438.41 815.535,1436.88 815.829,1435.34 816.087,1433.79 816.307,1432.22 816.486,1430.65 816.628,1429.06 816.729,1427.46 816.791,1425.85 "/>
     <polygon id="_286355896" class="fil1" points="798.416,1468.63 1934.3,2604.51 1933.22,2605.56 1932.12,2606.59 1930.99,2607.59 1929.84,2608.56 1928.66,2609.51 1927.47,2610.43 1926.25,2611.32 1925,2612.18 1923.74,2613.01 1922.46,2613.81 1921.15,2614.58 1919.83,2615.32 1918.48,2616.03 1917.12,2616.71 1915.74,2617.35 1914.34,2617.97 1912.92,2618.55 1911.49,2619.09 1910.03,2619.6 1908.57,2620.08 1907.09,2620.52 1905.59,2620.93 1904.08,2621.29 1902.55,2621.63 1901.01,2621.92 1899.46,2622.18 1897.89,2622.4 1896.32,2622.58 1894.73,2622.72 1893.13,2622.82 1891.52,2622.88 1889.9,2622.9 754.016,1487.02 755.637,1487 757.247,1486.94 758.847,1486.84 760.436,1486.7 762.012,1486.52 763.577,1486.3 765.131,1486.04 766.669,1485.75 768.195,1485.41 769.707,1485.04 771.205,1484.64 772.687,1484.2 774.153,1483.72 775.605,1483.21 777.038,1482.66 778.456,1482.08 779.855,1481.47 781.237,1480.83 782.6,1480.15 783.944,1479.44 785.27,1478.7 786.575,1477.93 787.858,1477.13 789.122,1476.3 790.365,1475.43 791.585,1474.54 792.782,1473.63 793.957,1472.68 795.108,1471.71 796.235,1470.71 797.338,1469.68 "/>
     <polygon id="_286355224" class="fil1" points="903.187,1397.94 2039.07,2533.82 2032.68,2579.01 896.801,1443.13 "/>
     <polygon id="_286356064" class="fil1" points="896.801,1443.13 2032.68,2579.01 2035.05,2595.74 899.166,1459.86 "/>
     <polygon id="_286356520" class="fil1" points="948.513,1521.21 2084.39,2657.09 2084.37,2658.71 2084.31,2660.32 2084.21,2661.92 2084.07,2663.51 2083.89,2665.09 2083.67,2666.65 2083.41,2668.2 2083.12,2669.74 2082.79,2671.27 2082.42,2672.78 2082.01,2674.28 2081.57,2675.76 2081.09,2677.23 2080.58,2678.68 2080.04,2680.11 2079.46,2681.53 2078.85,2682.93 2078.2,2684.31 2077.52,2685.67 2076.81,2687.02 2076.07,2688.34 2075.3,2689.65 2074.5,2690.93 2073.67,2692.19 2072.81,2693.44 2071.92,2694.66 2071,2695.86 2070.05,2697.03 2069.08,2698.18 2068.08,2699.31 2067.05,2700.41 2066,2701.49 930.119,1565.61 931.171,1564.53 932.198,1563.43 933.198,1562.3 934.171,1561.15 935.117,1559.97 936.036,1558.78 936.926,1557.56 937.787,1556.31 938.618,1555.05 939.42,1553.76 940.192,1552.46 940.933,1551.13 941.642,1549.79 942.32,1548.43 942.965,1547.05 943.577,1545.65 944.156,1544.23 944.702,1542.79 945.213,1541.34 945.689,1539.88 946.131,1538.4 946.536,1536.9 946.905,1535.39 947.238,1533.86 947.532,1532.32 947.789,1530.77 948.009,1529.2 948.189,1527.63 948.33,1526.04 948.432,1524.44 948.493,1522.83 "/>
     <polygon id="_286356040" class="fil1" points="930.119,1565.61 2066,2701.49 2064.92,2702.54 2063.82,2703.57 2062.69,2704.57 2061.54,2705.54 2060.37,2706.49 2059.17,2707.41 2057.95,2708.3 2056.71,2709.16 2055.44,2709.99 2054.16,2710.79 2052.85,2711.56 2051.53,2712.3 2050.18,2713.01 2048.82,2713.69 2047.44,2714.33 2046.04,2714.95 2044.62,2715.53 2043.19,2716.07 2041.74,2716.58 2040.27,2717.06 2038.79,2717.5 2037.29,2717.91 2035.78,2718.27 2034.25,2718.61 2032.71,2718.9 2031.16,2719.16 2029.6,2719.38 2028.02,2719.56 2026.43,2719.7 2024.83,2719.8 2023.22,2719.86 2021.6,2719.88 885.719,1584 887.339,1583.98 888.949,1583.92 890.55,1583.82 892.138,1583.68 893.715,1583.5 895.28,1583.28 896.832,1583.02 898.372,1582.73 899.897,1582.39 901.409,1582.02 902.906,1581.62 904.388,1581.18 905.855,1580.7 907.306,1580.19 908.741,1579.64 910.158,1579.07 911.558,1578.45 912.94,1577.81 914.303,1577.13 915.647,1576.42 916.972,1575.68 918.277,1574.91 919.561,1574.11 920.825,1573.27 922.067,1572.41 923.287,1571.52 924.485,1570.61 925.659,1569.66 926.811,1568.69 927.937,1567.69 929.04,1566.66 "/>
     <polygon id="_286356352" class="fil1" points="885.719,1584 2021.6,2719.88 2019.98,2719.86 2018.37,2719.8 2016.77,2719.7 2015.18,2719.56 2013.6,2719.38 2012.04,2719.16 2010.49,2718.9 2008.95,2718.61 2007.42,2718.27 2005.91,2717.91 2004.41,2717.5 2002.93,2717.06 2001.46,2716.58 2000.01,2716.07 1998.58,2715.53 1997.16,2714.95 1995.76,2714.33 1994.38,2713.69 1993.02,2713.01 1991.67,2712.3 1990.35,2711.56 1989.04,2710.79 1987.76,2709.99 1986.5,2709.16 1985.25,2708.3 1984.03,2707.41 1982.83,2706.49 1981.66,2705.54 1980.51,2704.57 844.628,1568.69 845.78,1569.66 846.954,1570.61 848.151,1571.52 849.372,1572.41 850.614,1573.27 851.877,1574.11 853.162,1574.91 854.467,1575.68 855.791,1576.42 857.135,1577.13 858.499,1577.81 859.88,1578.45 861.279,1579.07 862.697,1579.64 864.132,1580.19 865.582,1580.7 867.049,1581.18 868.531,1581.62 870.028,1582.02 871.54,1582.39 873.066,1582.73 874.606,1583.02 876.158,1583.28 877.723,1583.5 879.299,1583.68 880.888,1583.82 882.488,1583.92 884.098,1583.98 "/>
     <polygon id="_286356232" class="fil1" points="754.016,1487.02 1889.9,2622.9 1888.28,2622.88 1886.67,2622.82 1885.07,2622.72 1883.48,2622.58 1881.9,2622.4 1880.34,2622.18 1878.78,2621.92 1877.24,2621.63 1875.72,2621.29 1874.21,2620.93 1872.71,2620.52 1871.23,2620.08 1869.76,2619.6 1868.31,2619.09 1866.88,2618.55 1865.46,2617.97 1864.06,2617.35 1862.68,2616.71 1861.31,2616.03 1859.97,2615.32 1858.65,2614.58 1857.34,2613.81 1856.06,2613.01 1854.79,2612.18 1853.55,2611.32 1852.33,2610.43 1851.13,2609.51 1849.96,2608.56 1848.81,2607.59 712.926,1471.71 714.077,1472.68 715.251,1473.63 716.449,1474.54 717.669,1475.43 718.912,1476.3 720.174,1477.13 721.459,1477.93 722.764,1478.7 724.088,1479.44 725.432,1480.15 726.797,1480.83 728.177,1481.47 729.577,1482.08 730.994,1482.66 732.429,1483.21 733.88,1483.72 735.347,1484.2 736.829,1484.64 738.325,1485.04 739.837,1485.41 741.363,1485.75 742.903,1486.04 744.455,1486.3 746.02,1486.52 747.597,1486.7 749.186,1486.84 750.786,1486.94 752.396,1487 "/>
     <polygon id="_286356448" class="fil1" points="926.885,1473.79 2062.77,2609.67 2064.41,2611.15 2066,2612.69 930.119,1476.81 928.528,1475.27 "/>
     <polygon id="_286356256" class="fil1" points="930.119,1476.81 2066,2612.69 2067.05,2613.77 2068.08,2614.87 2069.08,2616 2070.05,2617.15 2071,2618.32 2071.92,2619.52 2072.81,2620.74 2073.67,2621.98 2074.5,2623.25 2075.3,2624.53 2076.07,2625.84 2076.81,2627.16 2077.52,2628.51 2078.2,2629.87 2078.85,2631.25 2079.46,2632.65 2080.04,2634.07 2080.58,2635.5 2081.09,2636.95 2081.57,2638.42 2082.01,2639.9 2082.42,2641.4 2082.79,2642.91 2083.12,2644.44 2083.41,2645.98 2083.67,2647.53 2083.89,2649.09 2084.07,2650.67 2084.21,2652.26 2084.31,2653.86 2084.37,2655.47 2084.39,2657.09 948.513,1521.21 948.493,1519.59 948.432,1517.98 948.33,1516.38 948.189,1514.79 948.009,1513.21 947.789,1511.65 947.532,1510.09 947.238,1508.55 946.905,1507.03 946.536,1505.52 946.131,1504.02 945.689,1502.54 945.213,1501.07 944.702,1499.62 944.156,1498.18 943.577,1496.77 942.965,1495.37 942.32,1493.99 941.642,1492.62 940.933,1491.28 940.192,1489.95 939.42,1488.65 938.618,1487.36 937.787,1486.1 936.926,1484.86 936.036,1483.64 935.117,1482.44 934.171,1481.27 933.198,1480.11 932.198,1478.99 931.171,1477.88 "/>
     <polygon id="_286356184" class="fil1" points="1216.43,508.691 2352.31,1644.57 2354.31,1646.94 2356.26,1649.36 2358.15,1651.82 2359.98,1654.33 2361.75,1656.88 2363.47,1659.48 2365.12,1662.12 2366.71,1664.8 2368.23,1667.52 2369.69,1670.28 2371.09,1673.08 2372.42,1675.92 2373.68,1678.79 2374.88,1681.7 2376,1684.65 2377.05,1687.63 2378.03,1690.64 2378.94,1693.68 2379.78,1696.75 2380.54,1699.85 2381.23,1702.98 2381.83,1706.14 2382.37,1709.33 2382.82,1712.53 2383.19,1715.77 2383.48,1719.02 2383.69,1722.3 2383.82,1725.6 2383.86,1728.92 1247.98,593.038 1247.93,589.719 1247.81,586.419 1247.6,583.141 1247.31,579.885 1246.94,576.652 1246.48,573.443 1245.95,570.26 1245.34,567.102 1244.66,563.972 1243.9,560.871 1243.06,557.798 1242.15,554.756 1241.17,551.745 1240.12,548.768 1238.99,545.822 1237.8,542.912 1236.54,540.038 1235.21,537.2 1233.81,534.4 1232.35,531.637 1230.83,528.916 1229.24,526.233 1227.58,523.594 1225.87,520.998 1224.1,518.444 1222.27,515.935 1220.38,513.474 1218.43,511.057 "/>
     <polygon id="_286356616" class="fil1" points="1247.98,593.038 2383.86,1728.92 2383.85,1729.55 2383.83,1730.17 2383.79,1730.79 2383.73,1731.41 2383.66,1732.02 2383.57,1732.63 2383.46,1733.23 2383.34,1733.82 1247.46,597.941 1247.58,597.345 1247.69,596.744 1247.77,596.138 1247.85,595.526 1247.9,594.911 1247.94,594.291 1247.97,593.666 "/>
     <polygon id="_286356856" class="fil1" points="1324.26,640.29 2460.14,1776.17 2461.91,1778.22 2463.63,1780.3 2465.32,1782.42 2466.96,1784.57 2468.56,1786.76 2470.11,1788.99 2471.62,1791.25 2473.08,1793.54 2474.49,1795.86 2475.85,1798.21 2477.17,1800.6 2478.44,1803.01 2479.66,1805.46 2480.83,1807.93 2481.95,1810.43 2483.02,1812.96 2484.03,1815.52 2484.99,1818.1 2485.9,1820.71 2486.76,1823.34 2487.55,1826 2488.3,1828.68 2488.99,1831.38 2489.62,1834.1 2490.19,1836.85 2490.71,1839.62 2491.16,1842.41 2491.56,1845.21 2491.9,1848.04 1356.02,712.158 1355.68,709.332 1355.28,706.524 1354.82,703.736 1354.31,700.968 1353.74,698.221 1353.1,695.496 1352.42,692.793 1351.67,690.113 1350.87,687.455 1350.02,684.824 1349.11,682.216 1348.15,679.634 1347.13,677.078 1346.07,674.548 1344.95,672.047 1343.78,669.573 1342.56,667.13 1341.29,664.714 1339.97,662.33 1338.61,659.976 1337.19,657.654 1335.73,655.363 1334.23,653.106 1332.68,650.882 1331.08,648.693 1329.44,646.538 1327.75,644.419 1326.03,642.336 "/>
     <polygon id="_286357312" class="fil1" points="1179.66,537.906 2315.54,1673.79 2314.19,1672.34 2312.81,1670.93 1176.93,535.048 1178.31,536.461 "/>
     <polygon id="_286357144" class="fil1" points="1176.93,535.048 2312.81,1670.93 2311.4,1669.55 2309.95,1668.2 2308.47,1666.89 2306.97,1665.62 2305.43,1664.37 2303.86,1663.17 2302.26,1662 2300.64,1660.87 2298.98,1659.78 2297.3,1658.73 2295.6,1657.72 2293.86,1656.74 2292.11,1655.81 2290.32,1654.92 2288.52,1654.07 2286.69,1653.27 2284.84,1652.51 2282.96,1651.79 2281.07,1651.12 2279.15,1650.5 2277.22,1649.92 2275.27,1649.38 2273.29,1648.9 2271.3,1648.46 2269.3,1648.07 2267.27,1647.74 2265.23,1647.45 2263.18,1647.21 2261.11,1647.02 2259.02,1646.89 2256.93,1646.81 2254.82,1646.78 1118.94,510.902 1121.05,510.929 1123.14,511.009 1125.23,511.143 1127.3,511.328 1129.35,511.565 1131.39,511.854 1133.42,512.191 1135.42,512.58 1137.41,513.016 1139.39,513.501 1141.34,514.034 1143.27,514.614 1145.19,515.24 1147.08,515.911 1148.96,516.628 1150.81,517.388 1152.64,518.193 1154.44,519.039 1156.22,519.93 1157.98,520.861 1159.71,521.833 1161.42,522.846 1163.1,523.898 1164.76,524.99 1166.38,526.12 1167.98,527.287 1169.55,528.492 1171.09,529.733 1172.59,531.01 1174.07,532.322 1175.52,533.669 "/>
     <polygon id="_286357120" class="fil1" points="1306.97,832.021 2442.85,1967.9 2444.28,1969.59 2445.37,1971.56 2446.07,1973.78 2446.32,1976.23 1310.44,840.35 1310.19,837.898 1309.49,835.675 1308.4,833.707 "/>
     <polygon id="_286357000" class="fil1" points="1310.44,840.35 2446.32,1976.23 2446.32,1999.68 1310.44,863.8 "/>
     <polygon id="_286357024" class="fil1" points="1310.44,934.152 2446.32,2070.03 2446.32,2093.48 1310.44,957.602 "/>
     <polygon id="_286357408" class="fil1" points="1356.02,712.158 2491.9,1848.04 2491.99,1848.91 2492.07,1849.78 2492.15,1850.66 2492.23,1851.54 2492.3,1852.41 2492.36,1853.29 2492.41,1854.18 2492.47,1855.06 2492.51,1855.94 2492.55,1856.83 2492.58,1857.72 2492.61,1858.61 2492.63,1859.5 2492.65,1860.39 2492.65,1861.28 2492.66,1862.18 1356.78,726.295 1356.77,725.399 1356.77,724.506 1356.75,723.615 1356.73,722.724 1356.7,721.835 1356.67,720.947 1356.63,720.061 1356.58,719.176 1356.53,718.294 1356.48,717.412 1356.41,716.532 1356.35,715.654 1356.27,714.778 1356.19,713.903 1356.11,713.03 "/>
     <polygon id="_286357432" class="fil1" points="1356.78,726.295 2492.66,1862.18 2492.54,1864.57 2492.18,1866.9 2491.6,1869.15 2490.82,1871.31 2489.83,1873.35 2488.65,1875.29 2487.3,1877.09 2485.79,1878.76 2484.12,1880.27 2482.32,1881.62 2480.39,1882.8 2478.33,1883.79 2476.18,1884.57 2473.93,1885.15 2471.61,1885.51 2469.21,1885.63 1333.33,749.747 1335.72,749.625 1338.05,749.271 1340.3,748.692 1342.45,747.904 1344.5,746.916 1346.44,745.742 1348.24,744.392 1349.91,742.877 1351.42,741.212 1352.77,739.407 1353.95,737.473 1354.93,735.423 1355.72,733.269 1356.3,731.021 1356.66,728.692 "/>
     <polygon id="_286357240" class="fil1" points="1307.43,785.6 2443.32,1921.48 2444.33,1922.77 2445.16,1924.21 2445.79,1925.79 2446.18,1927.5 2446.32,1929.33 1310.44,793.449 1310.3,791.616 1309.91,789.903 1309.28,788.323 1308.45,786.885 "/>
     <polygon id="_286356760" class="fil1" points="1306.97,878.922 2442.85,2014.8 2444.28,2016.49 2445.37,2018.46 2446.07,2020.68 2446.32,2023.13 1310.44,887.251 1310.19,884.799 1309.49,882.576 1308.4,880.608 "/>
     <polygon id="_286357768" class="fil1" points="1306.97,925.823 2442.85,2061.71 2444.28,2063.39 2445.37,2065.36 2446.07,2067.58 2446.32,2070.03 1310.44,934.152 1310.19,931.7 1309.49,929.477 1308.4,927.509 "/>
     <polygon id="_286358008" class="fil1" points="1306.97,972.724 2442.85,2108.61 2444.28,2110.29 2445.37,2112.26 2446.07,2114.48 2446.32,2116.94 1310.44,981.053 1310.19,978.601 1309.49,976.378 1308.4,974.41 "/>
     <polygon id="_286357864" class="fil1" points="1310.44,957.602 2446.32,2093.48 2446.25,2094.74 2446.05,2095.96 2445.73,2097.15 2445.29,2098.3 2444.72,2099.39 2444.05,2100.42 2443.26,2101.38 2442.37,2102.26 1306.49,966.375 1307.38,965.496 1308.17,964.537 1308.84,963.507 1309.41,962.414 1309.85,961.267 1310.17,960.078 1310.37,958.853 "/>
     <polygon id="_286357960" class="fil1" points="1298.33,969.324 2434.21,2105.21 2432.04,2104.92 2429.96,2104.23 2428.04,2103.19 2426.34,2101.81 1290.45,965.932 1292.16,967.309 1294.08,968.352 1296.16,969.033 "/>
     <polygon id="_286357912" class="fil1" points="1310.44,981.053 2446.32,2116.94 2446.32,2140.39 1310.44,1004.5 "/>
     <polygon id="_286357936" class="fil1" points="1310.44,1004.5 2446.32,2140.39 2446.25,2141.64 2446.05,2142.86 2445.73,2144.05 2445.29,2145.2 2444.72,2146.29 2444.05,2147.32 2443.26,2148.28 2442.37,2149.16 1306.49,1013.28 1307.38,1012.4 1308.17,1011.44 1308.84,1010.41 1309.41,1009.32 1309.85,1008.17 1310.17,1006.98 1310.37,1005.75 "/>
     <polygon id="_286357528" class="fil1" points="1240.39,957.602 2376.27,2093.48 2376.21,2094.74 2376.01,2095.96 2375.69,2097.15 2375.24,2098.3 2374.68,2099.39 2374.01,2100.42 2373.22,2101.38 2372.33,2102.26 1236.45,966.375 1237.34,965.496 1238.12,964.537 1238.8,963.507 1239.36,962.414 1239.81,961.267 1240.13,960.078 1240.33,958.853 "/>
     <polygon id="_286357480" class="fil1" points="1298.33,1016.23 2434.21,2152.11 2432.04,2151.82 2429.96,2151.14 2428.04,2150.09 2426.34,2148.72 1290.45,1012.83 1292.16,1014.21 1294.08,1015.25 1296.16,1015.93 "/>
     <polygon id="_286357576" class="fil1" points="1310.44,1027.95 2446.32,2163.84 2446.32,2174.75 1310.44,1038.87 "/>
     <polygon id="_286358296" class="fil1" points="1240.39,981.053 2376.27,2116.94 2376.27,2140.39 1240.39,1004.5 "/>
     <polygon id="_286358872" class="fil1" points="1306.49,1047.64 2442.37,2183.52 2440.91,2184.64 2439.36,2185.48 2437.77,2186.06 2436.14,2186.39 2434.5,2186.48 2432.88,2186.34 2431.3,2185.99 2429.79,2185.42 2428.36,2184.67 2427.05,2183.72 2425.87,2182.6 1289.99,1046.72 1291.17,1047.84 1292.48,1048.78 1293.91,1049.54 1295.42,1050.11 1297,1050.46 1298.62,1050.6 1300.26,1050.51 1301.89,1050.18 1303.48,1049.6 1305.03,1048.76 "/>
     <polygon id="_286358416" class="fil1" points="1310.44,1038.87 2446.32,2174.75 2446.25,2176 2446.05,2177.23 2445.73,2178.42 2445.29,2179.56 2444.72,2180.66 2444.05,2181.69 2443.26,2182.65 2442.37,2183.52 1306.49,1047.64 1307.38,1046.76 1308.17,1045.8 1308.84,1044.77 1309.41,1043.68 1309.85,1042.53 1310.17,1041.34 1310.37,1040.12 "/>
     <polygon id="_286358464" class="fil1" points="1240.39,1004.5 2376.27,2140.39 2376.21,2141.64 2376.01,2142.86 2375.69,2144.05 2375.24,2145.2 2374.68,2146.29 2374.01,2147.32 2373.22,2148.28 2372.33,2149.16 1236.45,1013.28 1237.34,1012.4 1238.12,1011.44 1238.8,1010.41 1239.36,1009.32 1239.81,1008.17 1240.13,1006.98 1240.33,1005.75 "/>
     <polygon id="_286358488" class="fil1" points="1236.45,1013.28 2372.33,2149.16 2371.48,2149.85 2370.59,2150.44 2369.69,2150.94 2368.76,2151.35 2367.81,2151.67 2366.86,2151.9 2365.89,2152.05 2364.93,2152.11 1229.05,1016.23 1230.01,1016.17 1230.97,1016.02 1231.93,1015.79 1232.88,1015.47 1233.81,1015.06 1234.71,1014.56 1235.59,1013.97 "/>
     <polygon id="_286358368" class="fil1" points="1240.39,1027.95 2376.27,2163.84 2376.27,2187.29 1240.39,1051.4 "/>
     <polygon id="_286358824" class="fil1" points="1240.39,1051.4 2376.27,2187.29 2376.21,2188.54 2376.01,2189.76 2375.69,2190.95 2375.24,2192.1 2374.68,2193.19 2374.01,2194.22 2373.22,2195.18 2372.33,2196.06 1236.45,1060.18 1237.34,1059.3 1238.12,1058.34 1238.8,1057.31 1239.36,1056.22 1239.81,1055.07 1240.13,1053.88 1240.33,1052.65 "/>
     <polygon id="_286358728" class="fil1" points="1236.92,1019.63 2372.81,2155.51 2374.23,2157.19 2375.33,2159.16 2376.03,2161.38 2376.27,2163.84 1240.39,1027.95 1240.15,1025.5 1239.45,1023.28 1238.35,1021.31 "/>
     <polygon id="_286359256" class="fil1" points="1306.49,1013.28 2442.37,2149.16 2441.52,2149.85 2440.64,2150.44 2439.73,2150.94 2438.8,2151.35 2437.86,2151.67 2436.9,2151.9 2435.94,2152.05 2434.97,2152.11 1299.09,1016.23 1300.05,1016.17 1301.02,1016.02 1301.97,1015.79 1302.92,1015.47 1303.85,1015.06 1304.76,1014.56 1305.64,1013.97 "/>
     <polygon id="_286359424" class="fil1" points="1306.97,1019.63 2442.85,2155.51 2444.28,2157.19 2445.37,2159.16 2446.07,2161.38 2446.32,2163.84 1310.44,1027.95 1310.19,1025.5 1309.49,1023.28 1308.4,1021.31 "/>
    </g>
    <path id="_451250552" class="fil1" d="M1299.09 828.628c5.87717,0.237402 11.3469,4.90276 11.3469,11.7224l0 23.4496c0,3.36024 -1.4315,6.54686 -3.94725,8.77324 -2.22402,1.97008 -4.82953,2.89134 -7.39961,2.95512 5.87717,0.237402 11.3469,4.90394 11.3469,11.7224l0 23.4508c0,3.36024 -1.4315,6.54567 -3.94725,8.77324 -2.22402,1.9689 -4.82953,2.89134 -7.39961,2.95512 5.87717,0.237402 11.3469,4.90276 11.3469,11.7224l0 23.4496c0,3.36024 -1.4315,6.54686 -3.94725,8.77324 -2.22402,1.97008 -4.82953,2.89134 -7.39961,2.95512 5.87717,0.237402 11.3469,4.90394 11.3469,11.7224l0 23.4508c0,3.36024 -1.4315,6.54567 -3.94725,8.77324 -2.22402,1.9689 -4.82953,2.89134 -7.39961,2.95512 5.87717,0.237402 11.3469,4.90276 11.3469,11.7224l0 10.9146c0,3.36024 -1.4315,6.54567 -3.94725,8.77324 -7.55197,6.68623 -19.5036,1.3063 -19.5036,-8.77324l0 -10.9146c0,-3.36024 1.4315,-6.54686 3.94607,-8.77324 2.2252,-1.97008 4.83071,-2.89016 7.39961,-2.95512 -5.87717,-0.236221 -11.3457,-4.90394 -11.3457,-11.7224l0 -23.4508c0,-3.36024 1.4315,-6.54567 3.94607,-8.77324 2.2252,-1.9689 4.83071,-2.89016 7.39961,-2.95512 -5.87717,-0.236221 -11.3457,-4.90276 -11.3457,-11.7224l0 -23.4496c0,-3.36024 1.4315,-6.54686 3.94607,-8.77324 2.2252,-1.97008 4.83071,-2.89016 7.39961,-2.95512 -5.87717,-0.236221 -11.3457,-4.90394 -11.3457,-11.7224l0 -23.4508c0,-3.36024 1.4315,-6.54567 3.94607,-8.77324 2.2252,-1.9689 4.83071,-2.89016 7.39961,-2.95512 -5.87717,-0.236221 -11.3457,-4.90276 -11.3457,-11.7224l0 -23.4496c0,-3.36024 1.4315,-6.54686 3.94607,-8.77324 2.2252,-1.97008 4.83071,-2.89016 7.39961,-2.95512 -5.87717,-0.236221 -11.3457,-4.90394 -11.3457,-11.7224l0 -23.4508c0,-3.36024 1.4315,-6.54567 3.94607,-8.77324 7.55316,-6.68623 19.5047,-1.3063 19.5047,8.77324l0 23.4508c0,3.36024 -1.4315,6.54567 -3.94725,8.77324 -2.22402,1.9689 -4.82953,2.89134 -7.39961,2.95512zm-58.6961 105.524l0 23.4496c0,3.36024 -1.4315,6.54686 -3.94725,8.77324 -2.22402,1.97008 -4.82953,2.89134 -7.39961,2.95512 5.87717,0.237402 11.3469,4.90394 11.3469,11.7224l0 23.4508c0,3.36024 -1.4315,6.54567 -3.94725,8.77324 -2.22402,1.9689 -4.82953,2.89134 -7.39961,2.95512 5.87717,0.237402 11.3469,4.90276 11.3469,11.7224l0 23.4496c0,3.36024 -1.4315,6.54686 -3.94725,8.77324 -2.22402,1.97008 -4.82953,2.89134 -7.39961,2.95512 5.87717,0.237402 11.3469,4.90394 11.3469,11.7224l0 23.4508c0,3.36024 -1.4315,6.54567 -3.94725,8.77324 -7.55316,6.68623 -19.5047,1.3063 -19.5047,-8.77324l0 -23.4508c0,-3.36024 1.4315,-6.54567 3.94725,-8.77324 2.22402,-1.9689 4.82953,-2.89016 7.39961,-2.95512 -5.87717,-0.236221 -11.3469,-4.90276 -11.3469,-11.7224l0 -23.4496c0,-3.36024 1.4315,-6.54686 3.94725,-8.77324 2.22402,-1.97008 4.82953,-2.89016 7.39961,-2.95512 -5.87717,-0.236221 -11.3469,-4.90394 -11.3469,-11.7224l0 -23.4508c0,-3.36024 1.4315,-6.54567 3.94725,-8.77324 2.22402,-1.9689 4.82953,-2.89016 7.39961,-2.95512 -5.87717,-0.236221 -11.3469,-4.90276 -11.3469,-11.7224l0 -23.4496c0,-3.36024 1.4315,-6.54686 3.94725,-8.77324 2.22402,-1.97008 4.82953,-2.89016 7.39961,-2.95512 -5.87717,-0.236221 -11.3469,-4.90394 -11.3469,-11.7224l0 -23.4508c0,-3.36024 1.4315,-6.54567 3.94725,-8.77324 2.22402,-1.9689 4.82953,-2.89016 7.39961,-2.95512 -5.87717,-0.236221 -11.3469,-4.90276 -11.3469,-11.7224l0 -23.4496c0,-3.36024 1.4315,-6.54686 3.94725,-8.77324 2.22402,-1.97008 4.82953,-2.89016 7.39961,-2.95512 -5.87717,-0.236221 -11.3469,-4.90394 -11.3469,-11.7224l0 -23.4508c0,-3.36024 1.4315,-6.54567 3.94725,-8.77324 7.55316,-6.68623 19.5047,-1.3063 19.5047,8.77324l0 23.4508c0,3.36024 -1.4315,6.54567 -3.94725,8.77324 -2.22402,1.9689 -4.82953,2.89134 -7.39961,2.95512 5.87717,0.237402 11.3469,4.90276 11.3469,11.7224l0 23.4496c0,3.36024 -1.4315,6.54686 -3.94725,8.77324 -2.22402,1.97008 -4.82953,2.89134 -7.39961,2.95512 5.87717,0.237402 11.3469,4.90394 11.3469,11.7224l0 23.4508c0,3.36024 -1.4315,6.54567 -3.94725,8.77324 -2.22402,1.9689 -4.82953,2.89134 -7.39961,2.95512 5.87717,0.237402 11.3469,4.90276 11.3469,11.7224zm-297.238 443.437l26.3918 10.2898c2.04331,-2.87126 4.32166,-5.56418 6.8067,-8.0504 11.3646,-11.3634 27.0626,-18.3945 44.3989,-18.3945 17.3362,0 33.0355,7.03111 44.4,18.3945 11.3622,11.3646 18.3933,27.0626 18.3933,44.3989 0,17.3362 -7.03111,33.0355 -18.3933,44.4 -11.3646,11.3622 -27.0638,18.3933 -44.4,18.3933 -17.3362,0 -33.0343,-7.03111 -44.3989,-18.3933 -11.3634,-11.3646 -18.3945,-27.0638 -18.3945,-44.4 0,-2.49567 0.145276,-4.95709 0.42874,-7.37717l-26.0941 -19.9429 -23.739 -9.25513c-0.90945,3.89174 -2.78858,7.41142 -5.36811,10.2898l-6.38623 45.1855 2.36457 16.7303c11.941,2.60551 22.6146,8.61024 30.9532,16.9488 11.3634,11.3646 18.3945,27.065 18.3945,44.4 0,17.3362 -7.03111,33.0355 -18.3945,44.4 -11.3646,11.3634 -27.065,18.3945 -44.4,18.3945 -17.3362,0 -33.0343,-7.03111 -44.3989,-18.3945 -11.3634,-11.3646 -18.3945,-27.0638 -18.3945,-44.4 0,-17.3351 7.03111,-33.0355 18.3945,-44.4 8.33977,-8.33859 19.0134,-14.3445 30.9544,-16.95l2.36457 -16.7291 -6.38623 -45.1843c-2.19213,-2.44606 -3.87874,-5.35394 -4.89449,-8.56064l-24.2138 9.44056 -22.8331 17.4508c0.329528,2.60433 0.499607,5.25945 0.499607,7.95355 0,17.3362 -7.03111,33.0355 -18.3945,44.4 -11.3646,11.3622 -27.0638,18.3933 -44.4,18.3933 -17.3362,0 -33.0343,-7.03111 -44.3989,-18.3933 -11.3634,-11.3646 -18.3945,-27.0638 -18.3945,-44.4 0,-17.3362 7.03111,-33.0343 18.3945,-44.3989 11.3646,-11.3634 27.0626,-18.3945 44.3989,-18.3945 17.3362,0 33.0355,7.03111 44.4,18.3945 2.62441,2.62441 5.01851,5.4815 7.14686,8.53465l22.7197 -8.85827 33.9851 -25.9736 0 -853.996c0,-4.84489 1.46929,-9.34725 3.9874,-13.0854 0.52441,-12.4866 10.8142,-22.4516 23.4307,-22.4516l229.251 0c35.5099,0 67.7764,14.511 91.1528,37.8874 23.3764,23.3764 37.8874,55.643 37.8874,91.1516 0,1.68189 -0.177165,3.32126 -0.51378,4.90276 27.6142,4.41378 52.3276,17.5276 71.2394,36.4394 20.3917,20.3929 34.0418,47.5311 37.3122,77.778 0.501969,4.64292 0.761812,9.36024 0.761812,14.1366 0,12.952 -10.5,23.452 -23.4508,23.452l-106.539 0 -106.539 0c-12.9508,0 -23.452,-10.5 -23.452,-23.452 0,-4.77638 0.261024,-9.49371 0.760631,-14.1366 3.27166,-30.2469 16.9217,-57.3851 37.3158,-77.778 17.915,-17.915 41.0339,-30.6248 66.893,-35.6681 -0.451181,-1.81654 -0.690945,-3.71693 -0.690945,-5.67402 0,-22.5626 -9.24804,-43.0937 -24.1453,-57.9898 -14.8984,-14.8984 -35.4284,-24.1465 -57.9922,-24.1465l-209.766 0 0 840.714 33.9851 25.9736zm203.928 -592.914c7.55316,-6.68623 19.5047,-1.3063 19.5047,8.77324l0 23.4496c0,3.36024 -1.43268,6.54686 -3.94725,8.77324 -2.2252,1.9689 -4.82953,2.89134 -7.39961,2.95512 5.87717,0.237402 11.3469,4.90394 11.3469,11.7224l0 23.4508c0,3.36024 -1.43268,6.54567 -3.94725,8.77324 -2.2252,1.9689 -4.82953,2.89016 -7.39961,2.95512 5.87717,0.236221 11.3469,4.90276 11.3469,11.7213l0 23.4508c0,3.36024 -1.43268,6.54686 -3.94725,8.77324 -2.2252,1.9689 -4.82953,2.89134 -7.39961,2.95512 5.87717,0.237402 11.3469,4.90394 11.3469,11.7224l0 23.4508c0,3.36024 -1.43268,6.54567 -3.94725,8.77324 -7.55316,6.68623 -19.5047,1.3063 -19.5047,-8.77324l0 -23.4508c0,-3.36024 1.4315,-6.54686 3.94725,-8.77324 2.22402,-1.9689 4.82953,-2.89016 7.39961,-2.95512 -5.87717,-0.236221 -11.3469,-4.90394 -11.3469,-11.7224l0 -23.4508c0,-3.35906 1.4315,-6.54567 3.94725,-8.77324 2.22402,-1.9689 4.82953,-2.89016 7.39961,-2.95512 -5.87717,-0.236221 -11.3469,-4.90276 -11.3469,-11.7213l0 -23.4508c0,-3.36024 1.4315,-6.54686 3.94725,-8.77324 2.22402,-1.9689 4.82953,-2.89016 7.39961,-2.95512 -5.87717,-0.236221 -11.3469,-4.90394 -11.3469,-11.7224l0 -23.4496c0,-3.36024 1.4315,-6.54567 3.94725,-8.77324z"/>
   </g>
  </g>
  <path class="fil2" d="M1024 -0.0011811c565.539,0 1024,458.462 1024,1024 0,565.539 -458.462,1024 -1024,1024 -565.539,0 -1024,-458.462 -1024,-1024 0,-565.539 458.462,-1024 1024,-1024z"/>
  <path class="fil3" d="M874.639 1443.13l-6.82796 48.3107c0,9.88938 8.01851,17.9091 17.9091,17.9091 9.88938,0 17.9091,-8.01969 17.9091,-17.9091l-6.82796 -48.3107 6.82796 -48.3118c0,-9.89056 -8.01969,-17.9091 -17.9091,-17.9091 -9.89056,0 -17.9091,8.01851 -17.9091,17.9091l6.82796 48.3118z"/>
  <path class="fil3" d="M932.294 1396.91l38.765 29.628c8.62087,4.84607 19.5414,1.78583 24.3886,-6.83504 4.84607,-8.61969 1.78583,-19.5402 -6.83504,-24.3874l-45.4583 -17.7236 -38.7662 -29.628c-8.62087,-4.84725 -19.5402,-1.78701 -24.3874,6.83386 -4.84725,8.62087 -1.78701,19.5414 6.83386,24.3886l45.4595 17.7236z"/>
  <path class="fil3" d="M839.144 1398.82l-38.7662 29.628c-8.61969,4.84725 -19.5402,1.78701 -24.3874,-6.83386 -4.84725,-8.62087 -1.78583,-19.5414 6.83386,-24.3874l45.4583 -17.7236 38.7662 -29.6292c8.62087,-4.84607 19.5414,-1.78583 24.3886,6.83504 4.84607,8.62087 1.78583,19.5414 -6.83504,24.3874l-45.4583 17.7236z"/>
  <path class="fil3" d="M909.171 499.536c0,-12.952 -10.5,-23.452 -23.4508,-23.452 -12.952,0 -23.452,10.5 -23.452,23.452l0 882.758c0,12.952 10.5,23.452 23.452,23.452 12.9508,0 23.4508,-10.5 23.4508,-23.452l0 -882.758z"/>
  <path class="fil3" d="M889.686 463.999c-12.952,0 -23.452,10.5012 -23.452,23.452 0,12.9508 10.5,23.4508 23.452,23.4508l229.251 0c22.5638,0 43.0937,9.24804 57.9922,24.1465 14.8973,14.8961 24.1453,35.4272 24.1453,57.9898 0,12.952 10.5,23.452 23.4508,23.452 12.952,0 23.452,-10.5 23.452,-23.452 0,-35.5087 -14.511,-67.7752 -37.8874,-91.1516 -23.3764,-23.3764 -55.643,-37.8874 -91.1528,-37.8874l-229.251 0z"/>
  <path class="fil4" d="M754.016 1361.43c17.3362,0 33.0355,7.03111 44.4,18.3945 11.3634,11.3646 18.3945,27.0626 18.3945,44.3989 0,17.3362 -7.03111,33.0355 -18.3945,44.4 -11.3646,11.3622 -27.0638,18.3933 -44.4,18.3933 -17.3362,0 -33.0343,-7.03111 -44.3989,-18.3933 -11.3634,-11.3646 -18.3945,-27.0638 -18.3945,-44.4 0,-17.3362 7.03111,-33.0343 18.3945,-44.3989 11.3646,-11.3634 27.0626,-18.3945 44.3989,-18.3945z"/>
  <path class="fil3" d="M754.016 1398.71c7.04646,0 13.4256,2.85709 18.0449,7.4752 4.61693,4.61811 7.4752,10.9984 7.4752,18.0437 0,7.04528 -2.85827,13.4256 -7.4752,18.0437 -4.61929,4.61811 -10.9984,7.4752 -18.0449,7.4752 -7.04528,0 -13.4244,-2.85709 -18.0437,-7.4752 -4.61811,-4.61811 -7.4752,-10.9984 -7.4752,-18.0437 0,-7.04528 2.85709,-13.4256 7.4752,-18.0437 4.61929,-4.61811 10.9984,-7.4752 18.0437,-7.4752z"/>
  <path class="fil4" d="M1020.75 1361.43c17.3362,0 33.0355,7.03111 44.4,18.3945 11.3622,11.3646 18.3933,27.0626 18.3933,44.3989 0,17.3362 -7.03111,33.0355 -18.3933,44.4 -11.3646,11.3622 -27.0638,18.3933 -44.4,18.3933 -17.3362,0 -33.0343,-7.03111 -44.3989,-18.3933 -11.3634,-11.3646 -18.3945,-27.0638 -18.3945,-44.4 0,-17.3362 7.03111,-33.0343 18.3945,-44.3989 11.3646,-11.3634 27.0626,-18.3945 44.3989,-18.3945z"/>
  <path class="fil4" d="M885.719 1458.41c17.3351,0 33.0355,7.02993 44.4,18.3933 11.3634,11.3646 18.3945,27.065 18.3945,44.4 0,17.3362 -7.03111,33.0355 -18.3945,44.4 -11.3646,11.3634 -27.065,18.3945 -44.4,18.3945 -17.3362,0 -33.0343,-7.03111 -44.3989,-18.3945 -11.3634,-11.3646 -18.3945,-27.0638 -18.3945,-44.4 0,-17.3351 7.03111,-33.0355 18.3945,-44.4 11.3646,-11.3634 27.0626,-18.3933 44.3989,-18.3933z"/>
  <path class="fil5" d="M1226.79 749.747l-106.539 0c-12.9508,0 -23.452,-10.5 -23.452,-23.452 0,-35.8925 14.5512,-68.3906 38.0764,-91.9146 23.524,-23.524 56.0221,-38.0752 91.9146,-38.0752 35.8937,0 68.3918,14.5512 91.9158,38.0752 23.5229,23.524 38.074,56.0221 38.074,91.9146 0,12.952 -10.5,23.452 -23.4508,23.452l-106.539 0z"/>
  <path class="fil6" d="M1226.79 749.747l-106.539 0c-12.9508,0 -23.452,-10.5 -23.452,-23.452 0,-4.77638 0.261024,-9.49371 0.762993,-14.1366l258.456 0c0.501969,4.64292 0.761812,9.36024 0.761812,14.1366 0,12.952 -10.5,23.452 -23.4508,23.452l-106.539 0z"/>
  <path class="fil7" d="M1240.39 793.449c0,-10.0795 -11.9516,-15.4595 -19.5047,-8.77324 -2.51575,2.22756 -3.94725,5.413 -3.94725,8.77324l0 23.4508c0,6.81851 5.46969,11.4862 11.3469,11.7224 -2.57008,0.0649607 -5.17559,0.98504 -7.39961,2.95512 -2.51575,2.22638 -3.94725,5.413 -3.94725,8.77324l0 23.4496c0,6.81969 5.46969,11.4862 11.3469,11.7224 -2.57008,0.0649607 -5.17559,0.986221 -7.39961,2.95512 -2.51575,2.22756 -3.94725,5.413 -3.94725,8.77324l0 23.4508c0,6.81851 5.46969,11.4862 11.3469,11.7224 -2.57008,0.0649607 -5.17559,0.98504 -7.39961,2.95512 -2.51575,2.22638 -3.94725,5.413 -3.94725,8.77324l0 23.4496c0,6.81969 5.46969,11.4862 11.3469,11.7224 -2.57008,0.0649607 -5.17559,0.986221 -7.39961,2.95512 -2.51575,2.22756 -3.94725,5.413 -3.94725,8.77324l0 23.4508c0,6.81851 5.46969,11.4862 11.3469,11.7224 -2.57008,0.0649607 -5.17559,0.98504 -7.39961,2.95512 -2.51575,2.22638 -3.94725,5.413 -3.94725,8.77324l0 23.4496c0,6.81969 5.46969,11.4862 11.3469,11.7224 -2.57008,0.0649607 -5.17559,0.986221 -7.39961,2.95512 -2.51575,2.22756 -3.94725,5.413 -3.94725,8.77324l0 23.4508c0,10.0795 11.9516,15.4595 19.5047,8.77324 2.51575,-2.22756 3.94725,-5.413 3.94725,-8.77324l0 -23.4508c0,-6.81851 -5.46969,-11.485 -11.3469,-11.7224 2.57008,-0.0637796 5.17559,-0.98504 7.39961,-2.95512 2.51575,-2.22638 3.94725,-5.413 3.94725,-8.77324l0 -23.4496c0,-6.81969 -5.46969,-11.485 -11.3469,-11.7224 2.57008,-0.0637796 5.17559,-0.986221 7.39961,-2.95512 2.51575,-2.22756 3.94725,-5.413 3.94725,-8.77324l0 -23.4508c0,-6.81851 -5.46969,-11.485 -11.3469,-11.7224 2.57008,-0.0637796 5.17559,-0.98504 7.39961,-2.95512 2.51575,-2.22638 3.94725,-5.413 3.94725,-8.77324l0 -23.4496c0,-6.81969 -5.46969,-11.485 -11.3469,-11.7224 2.57008,-0.0637796 5.17559,-0.986221 7.39961,-2.95512 2.51575,-2.22756 3.94725,-5.413 3.94725,-8.77324l0 -23.4508c0,-6.81851 -5.46969,-11.485 -11.3469,-11.7224 2.57008,-0.0637796 5.17559,-0.98504 7.39961,-2.95512 2.51575,-2.22638 3.94725,-5.413 3.94725,-8.77324l0 -23.4496c0,-6.81969 -5.46969,-11.485 -11.3469,-11.7224 2.57008,-0.0637796 5.17559,-0.986221 7.39961,-2.95512 2.51575,-2.22756 3.94725,-5.413 3.94725,-8.77324l0 -23.4508z"/>
  <path class="fil7" d="M1166.59 793.449c0,-10.0795 -11.9516,-15.4595 -19.5047,-8.77324 -2.51575,2.22756 -3.94725,5.413 -3.94725,8.77324l0 23.4496c0,6.81851 5.46969,11.4862 11.3469,11.7224 -2.57008,0.0649607 -5.17559,0.986221 -7.39961,2.95512 -2.51575,2.22638 -3.94725,5.413 -3.94725,8.77324l0 23.4508c0,6.81851 5.46969,11.485 11.3469,11.7213 -2.57008,0.0649607 -5.17559,0.986221 -7.39961,2.95512 -2.51575,2.22756 -3.94725,5.41418 -3.94725,8.77324l0 23.4508c0,6.81851 5.46969,11.4862 11.3469,11.7224 -2.57008,0.0649607 -5.17559,0.986221 -7.39961,2.95512 -2.51575,2.22638 -3.94725,5.413 -3.94725,8.77324l0 23.4508c0,10.0795 11.9516,15.4595 19.5047,8.77324 2.51457,-2.22756 3.94725,-5.413 3.94725,-8.77324l0 -23.4508c0,-6.81851 -5.46969,-11.485 -11.3469,-11.7224 2.57008,-0.0637796 5.17441,-0.986221 7.39961,-2.95512 2.51457,-2.22638 3.94725,-5.413 3.94725,-8.77324l0 -23.4508c0,-6.81851 -5.46969,-11.485 -11.3469,-11.7213 2.57008,-0.0649607 5.17441,-0.986221 7.39961,-2.95512 2.51457,-2.22756 3.94725,-5.413 3.94725,-8.77324l0 -23.4508c0,-6.81851 -5.46969,-11.485 -11.3469,-11.7224 2.57008,-0.0637796 5.17441,-0.986221 7.39961,-2.95512 2.51457,-2.22638 3.94725,-5.413 3.94725,-8.77324l0 -23.4496z"/>
  <path class="fil7" d="M1310.44 793.449c0,-10.0795 -11.9516,-15.4595 -19.5047,-8.77324 -2.51457,2.22756 -3.94607,5.413 -3.94607,8.77324l0 23.4508c0,6.81851 5.46851,11.4862 11.3457,11.7224 -2.5689,0.0649607 -5.17441,0.98504 -7.39961,2.95512 -2.51457,2.22638 -3.94607,5.413 -3.94607,8.77324l0 23.4496c0,6.81969 5.46851,11.4862 11.3457,11.7224 -2.5689,0.0649607 -5.17441,0.986221 -7.39961,2.95512 -2.51457,2.22756 -3.94607,5.413 -3.94607,8.77324l0 23.4508c0,6.81851 5.46851,11.4862 11.3457,11.7224 -2.5689,0.0649607 -5.17441,0.98504 -7.39961,2.95512 -2.51457,2.22638 -3.94607,5.413 -3.94607,8.77324l0 23.4496c0,6.81969 5.46851,11.4862 11.3457,11.7224 -2.5689,0.0649607 -5.17441,0.986221 -7.39961,2.95512 -2.51457,2.22756 -3.94607,5.413 -3.94607,8.77324l0 23.4508c0,6.81851 5.46851,11.4862 11.3457,11.7224 -2.5689,0.0649607 -5.17441,0.98504 -7.39961,2.95512 -2.51457,2.22638 -3.94607,5.413 -3.94607,8.77324l0 10.9146c0,10.0795 11.9516,15.4595 19.5036,8.77324 2.51575,-2.22756 3.94725,-5.413 3.94725,-8.77324l0 -10.9146c0,-6.81969 -5.46969,-11.485 -11.3469,-11.7224 2.57008,-0.0637796 5.17559,-0.986221 7.39961,-2.95512 2.51575,-2.22756 3.94725,-5.413 3.94725,-8.77324l0 -23.4508c0,-6.81851 -5.46969,-11.485 -11.3469,-11.7224 2.57008,-0.0637796 5.17559,-0.98504 7.39961,-2.95512 2.51575,-2.22638 3.94725,-5.413 3.94725,-8.77324l0 -23.4496c0,-6.81969 -5.46969,-11.485 -11.3469,-11.7224 2.57008,-0.0637796 5.17559,-0.986221 7.39961,-2.95512 2.51575,-2.22756 3.94725,-5.413 3.94725,-8.77324l0 -23.4508c0,-6.81851 -5.46969,-11.485 -11.3469,-11.7224 2.57008,-0.0637796 5.17559,-0.98504 7.39961,-2.95512 2.51575,-2.22638 3.94725,-5.413 3.94725,-8.77324l0 -23.4496c0,-6.81969 -5.46969,-11.485 -11.3469,-11.7224 2.57008,-0.0637796 5.17559,-0.986221 7.39961,-2.95512 2.51575,-2.22756 3.94725,-5.413 3.94725,-8.77324l0 -23.4508z"/>
  <path class="fil3" d="M1020.75 1398.71c7.04528,0 13.4256,2.85709 18.0437,7.4752 4.61811,4.61811 7.4752,10.9984 7.4752,18.0437 0,7.04528 -2.85709,13.4256 -7.4752,18.0437 -4.61811,4.61811 -10.9984,7.4752 -18.0437,7.4752 -7.04528,0 -13.4256,-2.85709 -18.0437,-7.4752 -4.61811,-4.61811 -7.4752,-10.9984 -7.4752,-18.0437 0,-7.04528 2.85709,-13.4256 7.4752,-18.0437 4.61811,-4.61811 10.9984,-7.4752 18.0437,-7.4752z"/>
  <path class="fil3" d="M885.72 1495.69c7.04528,0 13.4256,2.85827 18.0437,7.47638 4.61811,4.61811 7.4752,10.9984 7.4752,18.0437 0,7.04528 -2.85709,13.4244 -7.4752,18.0437 -4.61811,4.61811 -10.9984,7.4752 -18.0437,7.4752 -7.04528,0 -13.4256,-2.85709 -18.0437,-7.4752 -4.61811,-4.61929 -7.4752,-10.9984 -7.4752,-18.0437 0,-7.04528 2.85709,-13.4256 7.4752,-18.0437 4.61811,-4.61811 10.9984,-7.47638 18.0437,-7.47638z"/>
 </g>
</svg>
