<?xml version="1.0" encoding="UTF-8"?>
<!DOCTYPE svg PUBLIC "-//W3C//DTD SVG 1.1//EN" "http://www.w3.org/Graphics/SVG/1.1/DTD/svg11.dtd">
<!-- Creator: CorelDRAW -->
<svg xmlns="http://www.w3.org/2000/svg" xml:space="preserve" width="2048px" height="2048px" style="shape-rendering:geometricPrecision; text-rendering:geometricPrecision; image-rendering:optimizeQuality; fill-rule:evenodd; clip-rule:evenodd"
viewBox="0 0 2048 2048"
 xmlns:xlink="http://www.w3.org/1999/xlink">
 <defs>
  <style type="text/css">
   <![CDATA[
    .fil2 {fill:none}
    .fil12 {fill:#00897B}
    .fil10 {fill:#26A69A}
    .fil11 {fill:#4DB6AC}
    .fil1 {fill:#A0C377}
    .fil8 {fill:#AD1457}
    .fil0 {fill:#C5E1A5}
    .fil7 {fill:#F06292}
    .fil6 {fill:#F48FB1}
    .fil9 {fill:#4DB6AC;fill-rule:nonzero}
    .fil13 {fill:#5D4037;fill-rule:nonzero}
    .fil3 {fill:#F06292;fill-rule:nonzero}
    .fil5 {fill:#F57F17;fill-rule:nonzero}
    .fil4 {fill:#F9A825;fill-rule:nonzero}
   ]]>
  </style>
   <clipPath id="id0">
    <path d="M1024 -0.0011811c565.539,0 1024,458.462 1024,1024 0,565.539 -458.462,1024 -1024,1024 -565.539,0 -1024,-458.462 -1024,-1024 0,-565.539 458.462,-1024 1024,-1024z"/>
   </clipPath>
 </defs>
 <g id="Layer_x0020_1">
  <metadata id="CorelCorpID_0Corel-Layer"/>
  <path class="fil0" d="M1024 -0.0011811c565.539,0 1024,458.462 1024,1024 0,565.539 -458.462,1024 -1024,1024 -565.539,0 -1024,-458.462 -1024,-1024 0,-565.539 458.462,-1024 1024,-1024z"/>
  <g style="clip-path:url(#id0)">
   <g id="_451240544">
    <g>
     <polygon id="_3337458961" class="fil1" points="1507.29,666.197 2643.17,1802.08 2644.77,1804.11 2646.3,1806.22 2647.73,1808.39 2649.08,1810.63 2650.34,1812.93 2651.5,1815.29 2652.56,1817.7 2653.53,1820.16 2654.39,1822.66 2655.14,1825.21 2655.79,1827.79 2656.33,1830.41 2656.75,1833.05 2657.06,1835.73 1521.18,699.845 1520.87,697.172 1520.45,694.525 1519.91,691.908 1519.26,689.325 1518.51,686.778 1517.65,684.273 1516.68,681.814 1515.62,679.405 1514.46,677.047 1513.2,674.748 1511.85,672.508 1510.42,670.335 1508.89,668.229 "/>
     <polygon id="_333745536" class="fil1" points="1521.18,699.845 2657.06,1835.73 2657.14,1836.61 2657.2,1837.44 2657.26,1838.21 2657.31,1838.92 2657.35,1839.58 2657.37,1840.18 2657.39,1840.72 2657.39,1841.2 1521.51,705.314 1521.51,704.833 1521.49,704.293 1521.47,703.695 1521.43,703.04 1521.38,702.325 1521.32,701.555 1521.26,700.728 "/>
     <polygon id="_333746928" class="fil1" points="1521.51,705.314 2657.39,1841.2 2657.39,1862.48 1521.51,726.597 "/>
     <polygon id="_333746688" class="fil1" points="1549,572.53 2684.88,1708.41 2683.6,1707.62 2682.38,1706.74 2681.21,1705.79 2680.11,1704.77 2679.08,1703.68 1543.2,567.794 1544.23,568.884 1545.33,569.907 1546.5,570.858 1547.72,571.733 "/>
     <polygon id="_333746280" class="fil1" points="1578.67,525.089 2714.55,1660.97 2715.9,1662.77 2717.07,1664.69 2718.05,1666.73 2718.83,1668.88 2719.41,1671.11 2719.76,1673.43 2719.88,1675.81 1584,539.931 1583.88,537.545 1583.53,535.229 1582.95,532.993 1582.17,530.848 1581.18,528.809 1580.02,526.885 "/>
     <polygon id="_333747648" class="fil1" points="1584,539.931 2719.88,1675.81 2719.88,1688.2 1584,552.318 "/>
     <polygon id="_333747120" class="fil1" points="1584,552.318 2719.88,1688.2 2719.83,1689.81 2719.67,1691.38 2719.4,1692.93 2719.04,1694.43 2718.58,1695.9 2718.03,1697.33 2717.39,1698.71 2716.66,1700.03 2715.86,1701.31 2714.97,1702.52 2714.01,1703.68 2712.98,1704.77 2711.88,1705.79 2710.72,1706.74 2709.49,1707.62 2708.21,1708.41 1572.33,572.53 1573.61,571.733 1574.84,570.858 1576,569.907 1577.1,568.884 1578.13,567.794 1579.09,566.639 1579.98,565.424 1580.78,564.149 1581.51,562.823 1582.15,561.445 1582.7,560.02 1583.16,558.552 1583.52,557.045 1583.79,555.501 1583.95,553.924 "/>
     <polygon id="_333747192" class="fil1" points="1572.33,572.53 2708.21,1708.41 2708.21,1722.48 1572.33,586.597 "/>
     <polygon id="_333747288" class="fil1" points="1572.33,586.597 2708.21,1722.48 2708.21,1722.86 2708.19,1723.23 2708.16,1723.6 2708.12,1723.96 2708.07,1724.33 2708.01,1724.69 2707.93,1725.04 2707.85,1725.39 1571.97,589.511 1572.05,589.159 1572.12,588.804 1572.19,588.445 1572.24,588.082 1572.28,587.716 1572.31,587.346 1572.33,586.973 "/>
     <polygon id="_333747600" class="fil1" points="1578.93,595.404 2714.81,1731.29 2715.72,1732.51 2716.56,1733.8 2717.31,1735.14 2717.97,1736.54 2718.54,1737.99 2719.01,1739.48 2719.39,1741.01 2719.66,1742.58 2719.83,1744.18 2719.88,1745.81 1584,609.931 1583.94,608.298 1583.78,606.694 1583.51,605.124 1583.13,603.593 1582.66,602.103 1582.09,600.657 1581.42,599.261 1580.68,597.918 1579.84,596.631 "/>
     <polygon id="_333747696" class="fil1" points="1584,609.931 2719.88,1745.81 2719.88,1885.81 1584,749.931 "/>
     <polygon id="_333747576" class="fil1" points="1584,749.931 2719.88,1885.81 2719.88,2049.15 1584,913.264 "/>
     <polygon id="_333747720" class="fil1" points="1584,913.264 2719.88,2049.15 2719.88,2382.57 1584,1246.69 "/>
     <polygon id="_333747048" class="fil1" points="964.997,717.423 2100.88,1853.31 2100.88,1862.48 964.997,726.597 "/>
     <polygon id="_333747552" class="fil1" points="475.668,572.53 1611.55,1708.41 1610.27,1707.62 1609.05,1706.74 1607.88,1705.79 1606.78,1704.77 470.902,568.884 472.002,569.907 473.164,570.858 474.388,571.733 "/>
     <polygon id="_333747528" class="fil1" points="503.835,523.432 1639.72,1659.31 1641.22,1660.97 1642.57,1662.77 1643.73,1664.69 1644.72,1666.73 1645.5,1668.88 1646.08,1671.11 1646.43,1673.43 1646.55,1675.81 510.669,539.931 510.548,537.545 510.195,535.229 509.62,532.993 508.835,530.848 507.853,528.809 506.684,526.885 505.341,525.089 "/>
     <polygon id="_333748560" class="fil1" points="510.669,539.931 1646.55,1675.81 1646.55,1688.2 510.669,552.318 "/>
     <polygon id="_333748104" class="fil1" points="510.669,552.318 1646.55,1688.2 1646.5,1689.81 1646.34,1691.38 1646.07,1692.93 1645.71,1694.43 1645.25,1695.9 1644.7,1697.33 1644.06,1698.71 1643.33,1700.03 1642.52,1701.31 1641.64,1702.52 1640.68,1703.68 1639.65,1704.77 1638.55,1705.79 1637.39,1706.74 1636.16,1707.62 1634.88,1708.41 499.002,572.53 500.282,571.733 501.506,570.858 502.668,569.907 503.768,568.884 504.799,567.794 505.758,566.639 506.644,565.424 507.45,564.149 508.177,562.823 508.817,561.445 509.367,560.02 509.827,558.552 510.189,557.045 510.454,555.501 510.615,553.924 "/>
     <polygon id="_333747912" class="fil1" points="723.145,1441.36 1859.03,2577.25 1716.4,2577.25 580.522,1441.36 "/>
     <polygon id="_333748080" class="fil1" points="746.479,1496.6 1882.36,2632.48 1882.12,2634.83 1881.44,2637.02 1880.37,2639 1878.94,2640.73 1877.22,2642.16 1875.23,2643.23 1873.04,2643.91 1870.69,2644.15 734.812,1508.27 737.163,1508.03 739.353,1507.35 741.335,1506.27 743.062,1504.85 744.486,1503.12 745.562,1501.14 746.241,1498.95 "/>
     <polygon id="_333748128" class="fil1" points="734.812,1508.27 1870.69,2644.15 1868.34,2643.91 1866.15,2643.23 1864.17,2642.16 1862.44,2640.73 726.562,1504.85 728.288,1506.27 730.27,1507.35 732.46,1508.03 "/>
     <polygon id="_333748152" class="fil1" points="746.479,1433.36 1882.36,2569.24 1882.36,2632.48 746.479,1496.6 "/>
     <polygon id="_333748416" class="fil1" points="557.188,1433.36 1693.07,2569.24 1646.55,2569.24 510.669,1433.36 "/>
     <polygon id="_333747888" class="fil1" points="510.669,1433.36 1646.55,2569.24 1646.55,2643.95 510.669,1508.07 "/>
     <polygon id="_333748488" class="fil1" points="568.855,1508.27 1704.74,2644.15 1702.38,2643.91 1700.19,2643.23 1698.21,2642.16 1696.49,2640.73 560.605,1504.85 562.332,1506.27 564.313,1507.35 566.503,1508.03 "/>
     <polygon id="_333747936" class="fil1" points="580.522,1441.36 1716.4,2577.25 1716.4,2632.48 580.522,1496.6 "/>
     <polygon id="_333748920" class="fil1" points="580.522,1496.6 1716.4,2632.48 1716.17,2634.83 1715.49,2637.02 1714.41,2639 1712.99,2640.73 1711.26,2642.16 1709.28,2643.23 1707.09,2643.91 1704.74,2644.15 568.855,1508.27 571.206,1508.03 573.396,1507.35 575.378,1506.27 577.105,1504.85 578.529,1503.12 579.605,1501.14 580.284,1498.95 "/>
     <polygon id="_333749112" class="fil1" points="510.669,1508.07 1646.55,2643.95 1646.43,2646.34 1646.08,2648.65 1645.5,2650.89 1644.72,2653.03 1643.73,2655.07 1642.57,2657 1641.22,2658.79 1639.72,2660.45 1638.06,2661.96 1636.26,2663.3 1634.34,2664.47 1632.3,2665.45 1630.16,2666.24 1627.92,2666.81 1625.6,2667.17 1623.22,2667.29 487.335,1531.4 489.721,1531.28 492.038,1530.93 494.274,1530.35 496.418,1529.57 498.457,1528.59 500.381,1527.42 502.178,1526.07 503.835,1524.57 505.341,1522.91 506.684,1521.11 507.853,1519.19 508.835,1517.15 509.62,1515.01 510.195,1512.77 510.548,1510.46 "/>
     <polygon id="_333749064" class="fil1" points="487.335,1531.4 1623.22,2667.29 1620.83,2667.17 1618.51,2666.81 1616.28,2666.24 1614.13,2665.45 1612.09,2664.47 1610.17,2663.3 1608.37,2661.96 472.492,1526.07 474.289,1527.42 476.213,1528.59 478.252,1529.57 480.396,1530.35 482.632,1530.93 484.949,1531.28 "/>
     <polygon id="_333749016" class="fil1" points="499.002,572.53 1634.88,1708.41 1634.88,1722.48 499.002,586.597 "/>
     <polygon id="_333749136" class="fil1" points="499.002,586.597 1634.88,1722.48 1634.88,1722.86 1634.86,1723.23 1634.83,1723.6 1634.79,1723.96 1634.74,1724.33 1634.67,1724.69 1634.6,1725.04 1634.52,1725.39 498.635,589.511 498.72,589.159 498.793,588.804 498.857,588.445 498.909,588.082 498.949,587.716 498.978,587.346 498.996,586.973 "/>
     <polygon id="_333748848" class="fil1" points="503.542,593.144 1639.42,1729.03 1640.49,1730.12 1641.48,1731.29 1642.39,1732.51 1643.22,1733.8 1643.97,1735.14 1644.63,1736.54 1645.2,1737.99 1645.68,1739.48 1646.05,1741.01 1646.33,1742.58 1646.49,1744.18 1646.55,1745.81 510.669,609.931 510.612,608.298 510.446,606.694 510.173,605.124 509.797,603.593 509.324,602.103 508.753,600.657 508.092,599.261 507.343,597.918 506.51,596.631 505.596,595.404 504.606,594.24 "/>
     <polygon id="_333748656" class="fil1" points="510.669,609.931 1646.55,1745.81 1646.55,1862.48 510.669,726.597 "/>
     <polygon id="_333748680" class="fil1" points="577.105,648.347 1712.99,1784.23 1714.41,1785.96 1715.49,1787.94 1716.17,1790.13 1716.4,1792.48 580.522,656.597 580.284,654.245 579.605,652.055 578.529,650.073 "/>
     <polygon id="_333749208" class="fil1" points="580.522,656.597 1716.4,1792.48 1716.4,1847.71 580.522,711.831 "/>
     <polygon id="_333749256" class="fil1" points="743.062,648.347 1878.94,1784.23 1880.37,1785.96 1881.44,1787.94 1882.12,1790.13 1882.36,1792.48 746.479,656.597 746.241,654.245 745.562,652.055 744.486,650.073 "/>
     <polygon id="_333750072" class="fil1" points="746.479,656.597 1882.36,1792.48 1882.36,1853.31 746.479,717.423 "/>
     <polygon id="_333750024" class="fil1" points="1537.33,1433.36 2673.21,2569.24 1882.36,2569.24 746.479,1433.36 "/>
     <polygon id="_333749832" class="fil1" points="1584,1508.07 2719.88,2643.95 2719.76,2646.34 2719.41,2648.65 2718.83,2650.89 2718.05,2653.03 2717.07,2655.07 2715.9,2657 2714.55,2658.79 2713.05,2660.45 2711.39,2661.96 2709.59,2663.3 2707.67,2664.47 2705.63,2665.45 2703.49,2666.24 2701.25,2666.81 2698.93,2667.17 2696.55,2667.29 1560.67,1531.4 1563.05,1531.28 1565.37,1530.93 1567.61,1530.35 1569.75,1529.57 1571.79,1528.59 1573.71,1527.42 1575.51,1526.07 1577.17,1524.57 1578.67,1522.91 1580.02,1521.11 1581.18,1519.19 1582.17,1517.15 1582.95,1515.01 1583.53,1512.77 1583.88,1510.46 "/>
     <polygon id="_333749760" class="fil1" points="1560.67,1531.4 2696.55,2667.29 2694.16,2667.17 2691.85,2666.81 2689.61,2666.24 2687.46,2665.45 2685.43,2664.47 2683.5,2663.3 2681.71,2661.96 2680.05,2660.45 1544.17,1524.57 1545.82,1526.07 1547.62,1527.42 1549.54,1528.59 1551.58,1529.57 1553.73,1530.35 1555.96,1530.93 1558.28,1531.28 "/>
     <polygon id="_333749928" class="fil1" points="1584,1410.02 2719.88,2545.91 2719.88,2643.95 1584,1508.07 "/>
     <polygon id="_333749784" class="fil1" points="1584,1246.69 2719.88,2382.57 2719.88,2545.91 1584,1410.02 "/>
    </g>
    <path id="_451240760" class="fil1" d="M964.997 726.597l316.431 0 0 -10.2083c0,-16.3654 6.53268,-30.5221 17.0835,-41.0729 10.3984,-10.4008 23.7047,-11.3917 39.4725,-12.8398 45.8705,6.37087 117.085,-17.0823 126.512,-17.0823 15.3685,0 29.1437,6.5941 39.3402,16.9701 9.61536,9.78426 16.0264,23.1638 17.341,37.4811 0.223229,2.42953 0.337796,4.26615 0.337796,5.46851l0 21.2835 15.8197 0 -0.0011811 -116.666c0,-8.78741 4.85788,-16.4398 12.0343,-20.4201 -0.239764,-0.93189 -0.367323,-1.90748 -0.367323,-2.91378l0 -14.0669c-6.97441,-4.03465 -11.6669,-11.576 -11.6669,-20.2122l0 -12.3874c0,-12.8858 10.448,-23.3339 23.3339,-23.3339 12.887,0 23.3351,10.448 23.3351,23.3339l0 12.3874c0,8.63623 -4.69252,16.1776 -11.6681,20.2122l0 14.0669c0,1.0063 -0.127559,1.98189 -0.367323,2.91378 7.17756,3.97914 12.0354,11.6327 12.0354,20.4201l0 140 0 163.334 0 333.425 0 163.334 0 98.0457c0,12.8858 -10.448,23.3339 -23.3351,23.3339 -12.8858,0 -23.3339,-10.448 -23.3339,-23.3339l0 -74.7119 -790.854 0 0 63.241c0,6.44292 -5.22402,11.6669 -11.6669,11.6669 -6.44292,0 -11.6669,-5.22402 -11.6669,-11.6669l0 -55.2343 -142.623 0 0 55.2343c0,6.44292 -5.22402,11.6669 -11.6669,11.6669 -6.44292,0 -11.6669,-5.22402 -11.6669,-11.6669l0 -63.241 -46.5189 0 0 74.7119c0,12.8858 -10.4469,23.3339 -23.3339,23.3339 -12.887,0 -23.3339,-10.448 -23.3339,-23.3339l0 -97.7103c-0.0011811,-0.112205 -0.00236221,-0.223229 -0.00236221,-0.335433l0 -163.334c0,-0.112205 0.0011811,-0.223229 0.00236221,-0.335433l0 -332.755c-0.0011811,-0.112205 -0.00236221,-0.223229 -0.00236221,-0.335433l0 -163.334c0,-0.112205 0.0011811,-0.223229 0.00236221,-0.335433l0 -139.664c0,-8.78741 4.85788,-16.4398 12.0343,-20.4201 -0.239764,-0.930709 -0.367323,-1.90748 -0.367323,-2.91378l0 -14.0669c-6.97441,-4.03465 -11.6669,-11.576 -11.6669,-20.2122l0 -12.3874c0,-12.8858 10.4469,-23.3339 23.3339,-23.3339 12.887,0 23.3339,10.448 23.3339,23.3339l0 12.3874c0,8.63623 -4.69252,16.1776 -11.6669,20.2122l0 14.0669c0,1.0063 -0.127559,1.98189 -0.367323,2.91378 7.17638,3.97914 12.0343,11.6327 12.0343,20.4201l0 116.666 46.5189 0 0 -70.0004c0,-6.44292 5.22402,-11.6669 11.6669,-11.6669 6.44292,0 11.6669,5.22402 11.6669,11.6669l0 55.2343 142.623 0 0 -55.2343c0,-6.44292 5.22402,-11.6669 11.6669,-11.6669 6.44292,0 11.6669,5.22402 11.6669,11.6669l0 60.8268 123.849 0 13.448 0 14.0433 0 30.2575 0 36.9201 0 0 9.17363z"/>
   </g>
  </g>
  <path class="fil2" d="M1024 -0.0011811c565.539,0 1024,458.462 1024,1024 0,565.539 -458.462,1024 -1024,1024 -565.539,0 -1024,-458.462 -1024,-1024 0,-565.539 458.462,-1024 1024,-1024z"/>
  <path class="fil3" d="M1337.98 662.476c45.8705,6.37087 117.085,-17.0823 126.512,-17.0823 15.3685,0 29.1437,6.5941 39.3402,16.9701 9.61536,9.78426 16.0264,23.1638 17.341,37.4811 0.223229,2.42953 0.337796,4.26615 0.337796,5.46851l0 27.5268c0,12.887 -10.4469,23.3351 -23.3339,23.3351l-193.419 0c-12.887,0 -23.3339,-10.448 -23.3339,-23.3351l0 -16.4516c0,-16.3654 6.53268,-30.5221 17.0835,-41.0729 10.3984,-10.4008 23.7047,-11.3917 39.4725,-12.8398z"/>
  <path class="fil4" d="M487.334 726.597l1073.33 0c12.887,0 23.3351,10.448 23.3351,23.3339l0 163.334c0,12.8858 -10.448,23.3339 -23.3351,23.3339l-1073.33 0c-12.887,0 -23.3351,-10.448 -23.3351,-23.3339l0 -163.334c0,-12.8858 10.448,-23.3339 23.3351,-23.3339z"/>
  <path class="fil5" d="M510.667 808.266c-6.44292,0 -11.6669,5.22402 -11.6669,11.6669 0,6.44292 5.22402,11.6669 11.6669,11.6669l1026.67 0c6.44292,0 11.6669,-5.22402 11.6669,-11.6669 0,-6.44292 -5.22402,-11.6669 -11.6669,-11.6669l-1026.67 0z"/>
  <polygon class="fil6" points="1281.43,726.597 510.669,726.597 510.667,808.266 1537.33,808.266 1537.33,726.597 1521.51,726.597 "/>
  <path class="fil7" d="M568.511 717.423l396.486 0 0 183.998c0,2.50866 -2.05158,4.56024 -4.56024,4.56024l-386.795 0c-2.82284,0 -5.13071,-2.30788 -5.13071,-5.13071l0 -183.428z"/>
  <polygon class="fil8" points="870.328,717.423 883.776,717.423 883.776,905.982 870.328,905.982 "/>
  <polygon class="fil8" points="897.819,717.423 928.077,717.423 928.077,905.982 897.819,905.982 "/>
  <path class="fil9" d="M1337.98 1159.24c45.8705,6.37087 117.085,-17.0811 126.512,-17.0811 15.3685,0 29.1437,6.59292 39.3402,16.9689 9.61536,9.78426 16.0264,23.1638 17.341,37.4811 0.223229,2.42953 0.337796,4.26615 0.337796,5.46851l0 27.528c0,12.8858 -10.4469,23.3339 -23.3339,23.3339l-193.419 0c-12.887,0 -23.3339,-10.448 -23.3339,-23.3339l0 -16.4528c0,-16.3654 6.53268,-30.5221 17.0835,-41.0729 10.3984,-10.3996 23.7047,-11.3917 39.4725,-12.8398z"/>
  <path class="fil4" d="M487.334 1223.36l1073.33 0c12.887,0 23.3351,10.448 23.3351,23.3339l0 163.334c0,12.8858 -10.448,23.3339 -23.3351,23.3339l-1073.33 0c-12.887,0 -23.3351,-10.448 -23.3351,-23.3339l0 -163.334c0,-12.8858 10.448,-23.3339 23.3351,-23.3339z"/>
  <path class="fil5" d="M510.667 1305.02c-6.44292,0 -11.6669,5.2252 -11.6669,11.6669 0,6.44292 5.22402,11.6669 11.6669,11.6669l1026.67 0c6.44292,0 11.6669,-5.22402 11.6669,-11.6669 0,-6.44174 -5.22402,-11.6669 -11.6669,-11.6669l-1026.67 0z"/>
  <polygon class="fil10" points="1281.43,1223.36 510.669,1223.36 510.667,1305.02 1537.33,1305.02 1537.33,1223.36 1521.51,1223.36 "/>
  <path class="fil11" d="M568.511 1214.18l396.486 0 0 183.998c0,2.50866 -2.05158,4.56024 -4.56024,4.56024l-386.795 0c-2.82284,0 -5.13071,-2.30788 -5.13071,-5.13071l0 -183.428z"/>
  <polygon class="fil12" points="870.328,1214.18 883.776,1214.18 883.776,1402.74 870.328,1402.74 "/>
  <polygon class="fil12" points="897.819,1214.18 928.077,1214.18 928.077,1402.74 897.819,1402.74 "/>
  <path class="fil5" d="M475.668 586.597c0,6.44292 5.22402,11.6669 11.6669,11.6669 6.44292,0 11.6669,-5.22402 11.6669,-11.6669l0 -23.3327c0,-6.44292 -5.22402,-11.6669 -11.6669,-11.6669 -6.44292,0 -11.6669,5.22402 -11.6669,11.6669l0 23.3327z"/>
  <path class="fil5" d="M510.669 539.931c0,-12.8858 -10.4469,-23.3339 -23.3339,-23.3339 -12.887,0 -23.3339,10.448 -23.3339,23.3339l0 12.3874c0,12.8858 10.4469,23.3339 23.3339,23.3339 12.887,0 23.3339,-10.448 23.3339,-23.3339l0 -12.3874z"/>
  <path class="fil5" d="M510.669 609.931c0,-12.887 -10.4469,-23.3339 -23.3339,-23.3339 -12.887,0 -23.3339,10.4469 -23.3339,23.3339l0 898.138c0,12.8858 10.4469,23.3339 23.3339,23.3339 12.887,0 23.3339,-10.448 23.3339,-23.3339l0 -898.138z"/>
  <path class="fil5" d="M1549 586.597c0,6.44292 5.2252,11.6669 11.6669,11.6669 6.44292,0 11.6669,-5.22402 11.6669,-11.6669l0 -23.3327c0,-6.44292 -5.22402,-11.6669 -11.6669,-11.6669 -6.44174,0 -11.6669,5.22402 -11.6669,11.6669l0 23.3327z"/>
  <path class="fil5" d="M1584 539.931c0,-12.8858 -10.448,-23.3339 -23.3351,-23.3339 -12.8858,0 -23.3339,10.448 -23.3339,23.3339l0 12.3874c0,12.8858 10.448,23.3339 23.3339,23.3339 12.887,0 23.3351,-10.448 23.3351,-23.3339l0 -12.3874z"/>
  <path class="fil5" d="M1584 609.931c0,-12.887 -10.448,-23.3339 -23.3351,-23.3339 -12.8858,0 -23.3339,10.4469 -23.3339,23.3339l0 898.138c0,12.8858 10.448,23.3339 23.3339,23.3339 12.887,0 23.3351,-10.448 23.3351,-23.3339l0 -898.138z"/>
  <path class="fil13" d="M580.522 656.597c0,-6.44292 -5.22402,-11.6669 -11.6669,-11.6669 -6.44292,0 -11.6669,5.22402 -11.6669,11.6669l0 840.002c0,6.44292 5.22402,11.6669 11.6669,11.6669 6.44292,0 11.6669,-5.22402 11.6669,-11.6669l0 -840.002z"/>
  <path class="fil13" d="M746.479 656.597c0,-6.44292 -5.22402,-11.6669 -11.6669,-11.6669 -6.44292,0 -11.6669,5.22402 -11.6669,11.6669l0 840.002c0,6.44292 5.22402,11.6669 11.6669,11.6669 6.44292,0 11.6669,-5.22402 11.6669,-11.6669l0 -840.002z"/>
  <path class="fil13" d="M569.076 1014.49c-6.44292,0 -11.6669,5.22402 -11.6669,11.6669 0,6.44292 5.22402,11.6669 11.6669,11.6669l165.514 0c6.44292,0 11.6669,-5.22402 11.6669,-11.6669 0,-6.44292 -5.22402,-11.6669 -11.6669,-11.6669l-165.514 0z"/>
  <path class="fil13" d="M569.076 1317.15c-6.44292,0 -11.6669,5.22402 -11.6669,11.6669 0,6.44292 5.22402,11.6669 11.6669,11.6669l165.514 0c6.44292,0 11.6669,-5.22402 11.6669,-11.6669 0,-6.44292 -5.22402,-11.6669 -11.6669,-11.6669l-165.514 0z"/>
  <path class="fil13" d="M569.076 913.602c-6.44292,0 -11.6669,5.22402 -11.6669,11.6669 0,6.44292 5.22402,11.6669 11.6669,11.6669l165.514 0c6.44292,0 11.6669,-5.22402 11.6669,-11.6669 0,-6.44292 -5.22402,-11.6669 -11.6669,-11.6669l-165.514 0z"/>
  <path class="fil13" d="M569.076 1216.26c-6.44292,0 -11.6669,5.22402 -11.6669,11.6669 0,6.44292 5.22402,11.6669 11.6669,11.6669l165.514 0c6.44292,0 11.6669,-5.22402 11.6669,-11.6669 0,-6.44292 -5.22402,-11.6669 -11.6669,-11.6669l-165.514 0z"/>
  <path class="fil13" d="M569.076 1115.37c-6.44292,0 -11.6669,5.22402 -11.6669,11.6669 0,6.44292 5.22402,11.6669 11.6669,11.6669l165.514 0c6.44292,0 11.6669,-5.22402 11.6669,-11.6669 0,-6.44292 -5.22402,-11.6669 -11.6669,-11.6669l-165.514 0z"/>
  <path class="fil13" d="M569.076 1418.03c-6.44292,0 -11.6669,5.22402 -11.6669,11.6669 0,6.44292 5.22402,11.6669 11.6669,11.6669l165.514 0c6.44292,0 11.6669,-5.22402 11.6669,-11.6669 0,-6.44292 -5.22402,-11.6669 -11.6669,-11.6669l-165.514 0z"/>
  <path class="fil13" d="M569.076 711.831c-6.44292,0 -11.6669,5.2252 -11.6669,11.6669 0,6.44292 5.22402,11.6681 11.6669,11.6681l165.514 0c6.44292,0 11.6669,-5.2252 11.6669,-11.6681 0,-6.44174 -5.22402,-11.6669 -11.6669,-11.6669l-165.514 0z"/>
  <path class="fil13" d="M569.076 812.717c-6.44292,0 -11.6669,5.22402 -11.6669,11.6669 0,6.44292 5.22402,11.6669 11.6669,11.6669l165.514 0c6.44292,0 11.6669,-5.22402 11.6669,-11.6669 0,-6.44292 -5.22402,-11.6669 -11.6669,-11.6669l-165.514 0z"/>
 </g>
</svg>
