<?xml version="1.0" encoding="UTF-8"?>
<!DOCTYPE svg PUBLIC "-//W3C//DTD SVG 1.1//EN" "http://www.w3.org/Graphics/SVG/1.1/DTD/svg11.dtd">
<!-- Creator: CorelDRAW -->
<svg xmlns="http://www.w3.org/2000/svg" xml:space="preserve" width="2048px" height="2048px" style="shape-rendering:geometricPrecision; text-rendering:geometricPrecision; image-rendering:optimizeQuality; fill-rule:evenodd; clip-rule:evenodd"
viewBox="0 0 2048 2048"
 xmlns:xlink="http://www.w3.org/1999/xlink">
 <defs>
  <style type="text/css">
   <![CDATA[
    .fil2 {fill:none}
    .fil12 {fill:#424242}
    .fil11 {fill:#6B973C}
    .fil6 {fill:#7CB342}
    .fil10 {fill:#81C784}
    .fil5 {fill:#9CCC65}
    .fil4 {fill:#9E9E9E}
    .fil7 {fill:#B3E5FC}
    .fil1 {fill:#C2185B}
    .fil0 {fill:#EC407A}
    .fil16 {fill:#ECEFF1}
    .fil9 {fill:#72AB3F;fill-rule:nonzero}
    .fil15 {fill:#77B67A;fill-rule:nonzero}
    .fil14 {fill:#7BBA7D;fill-rule:nonzero}
    .fil3 {fill:#7CB342;fill-rule:nonzero}
    .fil13 {fill:#81C784;fill-rule:nonzero}
    .fil17 {fill:#83B758;fill-rule:nonzero}
    .fil8 {fill:#9CCC65;fill-rule:nonzero}
   ]]>
  </style>
   <clipPath id="id0">
    <path d="M1024 -0.0011811c565.539,0 1024,458.462 1024,1024 0,565.539 -458.462,1024 -1024,1024 -565.539,0 -1024,-458.462 -1024,-1024 0,-565.539 458.462,-1024 1024,-1024z"/>
   </clipPath>
 </defs>
 <g id="Layer_x0020_1">
  <metadata id="CorelCorpID_0Corel-Layer"/>
  <path class="fil0" d="M1024 -0.0011811c565.539,0 1024,458.462 1024,1024 0,565.539 -458.462,1024 -1024,1024 -565.539,0 -1024,-458.462 -1024,-1024 0,-565.539 458.462,-1024 1024,-1024z"/>
  <g style="clip-path:url(#id0)">
   <g id="_451253288">
    <g>
     <polygon id="_3403321681" class="fil1" points="1566.63,509.833 2702.51,1645.72 2703.69,1647.19 2704.83,1648.69 2705.93,1650.21 2706.99,1651.76 2708.02,1653.34 2709,1654.93 2709.94,1656.55 2710.84,1658.19 2711.71,1659.85 2712.53,1661.53 2713.3,1663.23 2714.04,1664.94 2714.74,1666.68 2715.39,1668.43 2716,1670.19 2716.57,1671.98 2717.09,1673.77 2717.57,1675.58 2718,1677.41 2718.39,1679.24 2718.74,1681.09 2719.04,1682.94 2719.3,1684.81 2719.51,1686.69 2719.67,1688.57 2719.79,1690.46 2719.86,1692.36 2719.88,1694.26 2719.88,1940.71 2719.86,1942.61 2719.79,1944.51 2719.67,1946.4 2719.51,1948.29 2719.3,1950.16 2719.04,1952.03 2718.74,1953.88 2718.39,1955.73 2718,1957.57 2717.57,1959.39 2717.09,1961.2 2716.57,1962.99 2716,1964.78 2715.39,1966.54 2714.74,1968.29 2714.04,1970.03 2713.3,1971.74 2712.53,1973.44 2711.71,1975.12 2710.84,1976.78 2709.94,1978.42 2709,1980.04 2708.02,1981.63 2706.99,1983.21 2705.93,1984.76 2704.83,1986.28 2703.69,1987.78 2702.51,1989.26 2701.29,1990.7 2700.04,1992.12 2698.75,1993.52 2697.42,1994.88 1561.54,858.996 1562.87,857.633 1564.16,856.241 1565.41,854.821 1566.63,853.374 1567.81,851.899 1568.95,850.399 1570.05,848.874 1571.11,847.325 1572.14,845.753 1573.12,844.157 1574.06,842.539 1574.96,840.899 1575.83,839.24 1576.65,837.56 1577.42,835.862 1578.16,834.146 1578.86,832.411 1579.51,830.66 1580.12,828.894 1580.68,827.112 1581.21,825.316 1581.69,823.505 1582.12,821.683 1582.51,819.849 1582.86,818.001 1583.16,816.145 1583.42,814.279 1583.62,812.403 1583.79,810.518 1583.91,808.627 1583.98,806.728 1584,804.824 1584,558.381 1583.98,556.477 1583.91,554.578 1583.79,552.687 1583.62,550.803 1583.42,548.927 1583.16,547.06 1582.86,545.203 1582.51,543.357 1582.12,541.523 1581.69,539.699 1581.21,537.89 1580.68,536.093 1580.12,534.312 1579.51,532.545 1578.86,530.794 1578.16,529.06 1577.42,527.344 1576.65,525.645 1575.83,523.966 1574.96,522.306 1574.06,520.667 1573.12,519.05 1572.14,517.454 1571.11,515.881 1570.05,514.331 1568.95,512.807 1567.81,511.307 "/>
     <polygon id="_340331784" class="fil1" points="904.64,499.453 2040.52,1635.34 2042.3,1637.24 2044.03,1639.19 2045.71,1641.18 2047.35,1643.21 2048.94,1645.28 2050.48,1647.39 2051.97,1649.54 2053.41,1651.72 2054.8,1653.94 2056.13,1656.19 2057.41,1658.48 2058.64,1660.8 2059.82,1663.16 2060.93,1665.54 2061.99,1667.96 2063,1670.41 2063.94,1672.88 2064.83,1675.39 2065.66,1677.92 2066.42,1680.47 2067.12,1683.06 2067.76,1685.66 2068.34,1688.29 2068.85,1690.95 2069.3,1693.63 2069.68,1696.32 2069.99,1699.04 2070.23,1701.78 2070.41,1704.53 2070.52,1707.31 2070.55,1710.1 934.67,574.216 934.634,571.425 934.528,568.652 934.352,565.896 934.107,563.158 933.794,560.441 933.414,557.743 932.968,555.067 932.456,552.413 931.881,549.781 931.241,547.174 930.538,544.591 929.774,542.034 928.948,539.503 928.063,536.999 927.118,534.524 926.114,532.078 925.053,529.661 923.936,527.275 922.762,524.921 921.533,522.599 920.251,520.311 918.915,518.057 917.527,515.837 916.087,513.655 914.597,511.509 913.057,509.4 911.468,507.33 909.831,505.3 908.147,503.309 906.416,501.361 "/>
     <polygon id="_340332480" class="fil1" points="826.194,505.168 1962.07,1641.05 1872.6,1641.05 736.719,505.168 "/>
     <polygon id="_340333368" class="fil1" points="634.975,1039.92 1770.86,2175.81 1772.29,2177.54 1773.37,2179.53 1774.05,2181.72 1774.29,2184.08 638.404,1048.2 638.167,1045.84 637.484,1043.65 636.404,1041.66 "/>
     <polygon id="_340333320" class="fil1" points="638.404,1048.2 1774.29,2184.08 1774.22,2186.77 1774.01,2189.42 1773.68,2192.04 1773.22,2194.62 1772.63,2197.14 1771.92,2199.63 1771.09,2202.06 1770.15,2204.44 1769.1,2206.76 1767.94,2209.02 1766.68,2211.21 1765.31,2213.34 1763.85,2215.39 1762.29,2217.37 1760.64,2219.27 1758.9,2221.1 623.023,1085.21 624.759,1083.39 626.409,1081.49 627.967,1079.51 629.43,1077.45 630.795,1075.33 632.06,1073.13 633.22,1070.87 634.273,1068.55 635.213,1066.18 636.039,1063.75 636.748,1061.26 637.335,1058.73 637.798,1056.16 638.132,1053.54 638.336,1050.89 "/>
     <polygon id="_340333464" class="fil1" points="623.023,1085.21 1758.9,2221.1 1757.08,2222.83 1755.18,2224.48 1753.2,2226.04 1751.15,2227.5 1749.02,2228.87 1746.82,2230.13 1744.57,2231.29 1742.25,2232.34 1739.87,2233.29 1737.44,2234.11 1734.95,2234.82 1732.42,2235.41 1729.85,2235.87 1727.23,2236.2 1724.58,2236.41 1721.89,2236.48 586.011,1100.59 588.7,1100.52 591.352,1100.32 593.969,1099.99 596.543,1099.52 599.073,1098.94 601.557,1098.23 603.988,1097.4 606.365,1096.46 608.685,1095.41 610.943,1094.25 613.138,1092.99 615.264,1091.62 617.319,1090.16 619.299,1088.6 621.201,1086.95 "/>
     <polygon id="_340333752" class="fil1" points="736.719,505.168 1872.6,1641.05 1872.6,2347.79 736.719,1211.91 "/>
     <polygon id="_340333056" class="fil1" points="1036.57,1049.04 2172.45,2184.92 2158.9,2184.92 1023.02,1049.04 "/>
     <polygon id="_340333416" class="fil1" points="1023.02,1049.04 2158.9,2184.92 2158.9,2223.66 1023.02,1087.78 "/>
     <polygon id="_340333440" class="fil1" points="1023.02,1087.78 2158.9,2223.66 2158.83,2226.1 2158.65,2228.52 2158.35,2230.9 2157.93,2233.24 2157.39,2235.54 2156.75,2237.8 2156,2240.01 2155.14,2242.17 2154.18,2244.28 2153.13,2246.33 2151.98,2248.32 2150.74,2250.26 2149.41,2252.13 2147.99,2253.93 2146.49,2255.66 2144.91,2257.31 1009.03,1121.43 1010.61,1119.77 1012.11,1118.04 1013.53,1116.24 1014.86,1114.38 1016.1,1112.44 1017.25,1110.45 1018.3,1108.39 1019.26,1106.29 1020.12,1104.12 1020.87,1101.91 1021.51,1099.65 1022.04,1097.35 1022.46,1095.01 1022.77,1092.63 1022.95,1090.22 "/>
     <polygon id="_340333176" class="fil1" points="927.738,1049.04 2063.62,2184.92 2050.07,2184.92 914.185,1049.04 "/>
     <polygon id="_340333272" class="fil1" points="975.375,1135.41 2111.26,2271.3 2108.81,2271.23 2106.4,2271.05 2104.02,2270.74 2101.68,2270.32 2099.38,2269.79 2097.12,2269.15 2094.91,2268.4 2092.75,2267.54 2090.64,2266.58 2088.59,2265.53 2086.59,2264.38 2084.66,2263.14 2082.79,2261.81 2080.99,2260.39 2079.26,2258.89 2077.6,2257.31 941.722,1121.43 943.378,1123.01 945.107,1124.51 946.908,1125.92 948.777,1127.25 950.71,1128.5 952.705,1129.64 954.758,1130.7 956.867,1131.66 959.029,1132.51 961.24,1133.26 963.498,1133.91 965.799,1134.44 968.14,1134.86 970.518,1135.17 972.931,1135.35 "/>
     <polygon id="_340333344" class="fil1" points="914.185,1049.04 2050.07,2184.92 2047.71,2184.69 2045.51,2184 2043.52,2182.93 2041.79,2181.5 905.909,1045.61 907.641,1047.04 909.629,1048.12 911.826,1048.8 "/>
     <polygon id="_340333944" class="fil1" points="1009.03,1121.43 2144.91,2257.31 2143.26,2258.89 2141.53,2260.39 2139.73,2261.81 2137.86,2263.14 2135.92,2264.38 2133.93,2265.53 2131.88,2266.58 2129.77,2267.54 2127.61,2268.4 2125.39,2269.15 2123.14,2269.79 2120.84,2270.32 2118.49,2270.74 2116.11,2271.05 2113.7,2271.23 2111.26,2271.3 975.375,1135.41 977.82,1135.35 980.233,1135.17 982.612,1134.86 984.954,1134.44 987.255,1133.91 989.513,1133.26 991.724,1132.51 993.885,1131.66 995.995,1130.7 998.049,1129.64 1000.04,1128.5 1001.98,1127.25 1003.84,1125.92 1005.65,1124.51 1007.37,1123.01 "/>
     <polygon id="_340334328" class="fil1" points="866.011,1233.88 2001.89,2369.76 2003.73,2371.51 867.844,1235.62 "/>
     <polygon id="_340334424" class="fil1" points="867.844,1235.62 2003.73,2371.51 2005.47,2373.34 2007.13,2375.26 2008.7,2377.25 2010.17,2379.32 2011.54,2381.46 2012.82,2383.67 2013.98,2385.95 2015.04,2388.29 2015.98,2390.68 2016.81,2393.14 2017.53,2395.64 2018.12,2398.19 2018.58,2400.79 2018.92,2403.43 2019.12,2406.12 2019.19,2408.83 883.307,1272.95 883.238,1270.23 883.034,1267.55 882.699,1264.91 882.235,1262.31 881.645,1259.76 880.933,1257.25 880.103,1254.8 879.158,1252.4 878.101,1250.07 876.935,1247.79 875.663,1245.58 874.29,1243.44 872.819,1241.37 871.251,1239.37 869.592,1237.46 "/>
     <polygon id="_340334016" class="fil1" points="883.307,1272.95 2019.19,2408.83 2019.12,2411.55 2018.92,2414.23 2018.58,2416.87 2018.12,2419.47 2017.53,2422.02 2016.81,2424.53 2015.98,2426.98 2015.04,2429.37 2013.98,2431.71 2012.82,2433.99 2011.54,2436.2 2010.17,2438.34 2008.7,2440.41 2007.13,2442.41 2005.47,2444.32 2003.73,2446.15 867.844,1310.27 869.592,1308.44 871.251,1306.52 872.819,1304.53 874.29,1302.46 875.663,1300.32 876.935,1298.11 878.101,1295.83 879.158,1293.49 880.103,1291.09 880.933,1288.64 881.645,1286.14 882.235,1283.58 882.699,1280.99 883.034,1278.34 883.238,1275.66 "/>
     <polygon id="_340334088" class="fil1" points="778.093,1266.75 1913.97,2402.63 1892.04,2385.86 756.158,1249.98 "/>
     <polygon id="_340334400" class="fil1" points="756.158,1249.98 1892.04,2385.86 1872.08,2378.08 736.202,1242.2 "/>
     <polygon id="_340334256" class="fil1" points="867.844,1310.27 2003.73,2446.15 2001.89,2447.9 1999.98,2449.56 1997.98,2451.13 1995.91,2452.6 1993.77,2453.97 1991.56,2455.24 1989.28,2456.41 1986.95,2457.47 1984.55,2458.41 1982.1,2459.24 1979.59,2459.95 1977.04,2460.54 1974.44,2461.01 1971.8,2461.34 1969.12,2461.55 1966.4,2461.62 830.52,1325.73 833.235,1325.67 835.915,1325.46 838.557,1325.13 841.156,1324.66 843.709,1324.07 846.214,1323.36 848.666,1322.53 851.064,1321.58 853.403,1320.53 855.679,1319.36 857.888,1318.09 860.031,1316.72 862.1,1315.25 864.095,1313.68 866.011,1312.02 "/>
     <polygon id="_340333824" class="fil1" points="586.011,1100.59 1721.89,2236.48 1652.27,2236.48 516.394,1100.59 "/>
     <polygon id="_340334136" class="fil1" points="736.202,1242.2 1872.08,2378.08 1871.76,2379.29 1871.36,2380.47 1870.89,2381.62 1870.35,2382.73 1869.75,2383.8 1869.08,2384.82 1868.35,2385.8 1867.57,2386.73 731.688,1250.85 732.473,1249.92 733.201,1248.94 733.868,1247.91 734.471,1246.85 735.01,1245.74 735.479,1244.59 735.877,1243.41 "/>
     <polygon id="_340334208" class="fil1" points="698.207,1243.66 1834.09,2379.54 1813.73,2387.48 677.851,1251.59 "/>
     <polygon id="_340334688" class="fil1" points="516.394,1100.59 1652.27,2236.48 1649.59,2236.41 1646.93,2236.2 1644.32,2235.87 1641.74,2235.41 1639.21,2234.82 1636.73,2234.11 1634.3,2233.29 1631.92,2232.34 1629.6,2231.29 1627.34,2230.13 1625.15,2228.87 1623.02,2227.5 1620.97,2226.04 1618.99,2224.48 1617.08,2222.83 481.203,1086.95 483.104,1088.6 485.085,1090.16 487.14,1091.62 489.266,1092.99 491.459,1094.25 493.719,1095.41 496.037,1096.46 498.415,1097.4 500.847,1098.23 503.331,1098.94 505.861,1099.52 508.435,1099.99 511.052,1100.32 513.706,1100.52 "/>
     <polygon id="_340334904" class="fil1" points="641.78,1233.88 1777.66,2369.76 1779.49,2371.51 643.613,1235.62 "/>
     <polygon id="_340335096" class="fil1" points="643.613,1235.62 1779.49,2371.51 1780.31,2372.34 1781.11,2373.2 1781.89,2374.07 1782.65,2374.96 1783.4,2375.86 1784.12,2376.79 1784.82,2377.73 1785.5,2378.68 649.621,1242.8 648.939,1241.84 648.238,1240.9 647.515,1239.98 646.773,1239.08 646.012,1238.19 645.231,1237.32 644.431,1236.46 "/>
     <polygon id="_340334880" class="fil1" points="677.851,1251.59 1813.73,2387.48 1794.54,2402.14 658.658,1266.26 "/>
     <polygon id="_340335120" class="fil1" points="658.658,1266.26 1794.54,2402.14 1794.64,2402.97 1794.72,2403.79 1794.79,2404.62 1794.85,2405.46 1794.9,2406.3 1794.93,2407.14 1794.95,2407.98 1794.96,2408.83 659.077,1272.95 659.07,1272.1 659.05,1271.26 659.017,1270.41 658.971,1269.58 658.912,1268.74 658.839,1267.91 658.754,1267.09 "/>
     <polygon id="_340335144" class="fil1" points="659.077,1272.95 1794.96,2408.83 1794.89,2411.55 1794.69,2414.23 1794.35,2416.87 1793.89,2419.47 1793.3,2422.02 1792.58,2424.53 1791.75,2426.98 1790.81,2429.37 1789.75,2431.71 1788.58,2433.99 1787.31,2436.2 1785.94,2438.34 1784.47,2440.41 1782.9,2442.41 1781.24,2444.32 1779.49,2446.15 643.613,1310.27 645.361,1308.44 647.02,1306.52 648.588,1304.53 650.059,1302.46 651.433,1300.32 652.704,1298.11 653.869,1295.83 654.926,1293.49 655.873,1291.09 656.703,1288.64 657.414,1286.14 658.004,1283.58 658.469,1280.99 658.804,1278.34 659.008,1275.66 "/>
     <polygon id="_340334664" class="fil1" points="643.613,1310.27 1779.49,2446.15 1777.66,2447.9 1775.75,2449.56 1773.75,2451.13 1771.68,2452.6 1769.54,2453.97 1767.33,2455.24 1765.05,2456.41 1762.72,2457.47 1760.32,2458.41 1757.87,2459.24 1755.36,2459.95 1752.81,2460.54 1750.21,2461.01 1747.57,2461.34 1744.89,2461.55 1742.17,2461.62 606.29,1325.73 609.005,1325.67 611.685,1325.46 614.327,1325.13 616.926,1324.66 619.479,1324.07 621.984,1323.36 624.436,1322.53 626.834,1321.58 629.171,1320.53 631.447,1319.36 633.658,1318.09 635.8,1316.72 637.87,1315.25 639.864,1313.68 641.78,1312.02 "/>
     <polygon id="_340334736" class="fil1" points="698.562,1391.01 1834.44,2526.89 1833.28,2526.59 1832.14,2526.26 1831.01,2525.91 1829.89,2525.55 1828.8,2525.17 1827.71,2524.77 1826.65,2524.35 1825.61,2523.92 1824.58,2523.47 1823.58,2523 1822.59,2522.52 1821.62,2522.02 1820.67,2521.5 1819.75,2520.98 1818.84,2520.43 1817.96,2519.87 682.077,1383.99 682.96,1384.55 683.865,1385.09 684.792,1385.62 685.739,1386.14 686.706,1386.64 687.694,1387.12 688.701,1387.59 689.727,1388.04 690.772,1388.47 691.834,1388.89 692.914,1389.29 694.012,1389.67 695.125,1390.03 696.256,1390.38 697.401,1390.7 "/>
     <polygon id="_340335192" class="fil1" points="682.077,1383.99 1817.96,2519.87 1816.36,2518.78 1814.85,2517.64 1813.42,2516.46 677.538,1380.58 678.967,1381.76 680.481,1382.9 "/>
     <polygon id="_340335048" class="fil1" points="729.543,1413.06 1865.42,2548.94 1840.35,2548.94 704.466,1413.06 "/>
     <polygon id="_340334760" class="fil1" points="731.688,1250.85 1867.57,2386.73 1862.2,2424.72 726.319,1288.84 "/>
     <polygon id="_340336032" class="fil1" points="726.319,1288.84 1862.2,2424.72 1865.49,2447.98 729.608,1312.1 "/>
     <polygon id="_340335384" class="fil1" points="764.318,1361.84 1900.2,2497.72 1900.14,2499.33 1899.95,2500.92 1899.64,2502.49 1899.22,2504.03 1898.68,2505.55 1898.03,2507.03 1897.27,2508.49 1896.41,2509.91 1895.45,2511.3 1894.38,2512.65 1893.22,2513.96 1891.97,2515.23 1890.63,2516.46 1889.2,2517.64 1887.68,2518.78 1886.09,2519.87 750.205,1383.99 751.801,1382.9 753.315,1381.76 754.745,1380.58 756.088,1379.35 757.341,1378.08 758.502,1376.77 759.566,1375.42 760.531,1374.03 761.393,1372.61 762.152,1371.15 762.8,1369.67 763.339,1368.15 763.763,1366.61 764.069,1365.04 764.255,1363.45 "/>
     <polygon id="_340335552" class="fil1" points="750.205,1383.99 1886.09,2519.87 1885.25,2520.4 1884.4,2520.91 1883.53,2521.41 1882.65,2521.9 1881.74,2522.38 1880.81,2522.84 1879.87,2523.28 1878.91,2523.71 1877.94,2524.13 1876.95,2524.53 1875.94,2524.92 1874.92,2525.29 1873.88,2525.64 1872.83,2525.98 1871.76,2526.3 1870.68,2526.61 734.797,1390.73 735.878,1390.42 736.945,1390.1 737.997,1389.76 739.035,1389.41 740.058,1389.03 741.066,1388.65 742.058,1388.25 743.032,1387.83 743.991,1387.4 744.934,1386.95 745.857,1386.49 746.764,1386.02 747.653,1385.53 748.522,1385.03 749.373,1384.52 "/>
     <polygon id="_340335504" class="fil1" points="734.797,1390.73 1870.68,2526.61 1865.42,2548.94 729.543,1413.06 "/>
     <polygon id="_340335576" class="fil1" points="606.29,1325.73 1742.17,2461.62 1739.46,2461.55 1736.77,2461.34 1734.13,2461.01 1731.53,2460.54 1728.98,2459.95 1726.48,2459.24 1724.02,2458.41 1721.63,2457.47 1719.29,2456.41 1717.01,2455.24 1714.8,2453.97 1712.66,2452.6 1710.59,2451.13 1708.6,2449.56 1706.68,2447.9 570.799,1312.02 572.715,1313.68 574.709,1315.25 576.779,1316.72 578.92,1318.09 581.131,1319.36 583.407,1320.53 585.746,1321.58 588.142,1322.53 590.595,1323.36 593.099,1324.07 595.653,1324.66 598.252,1325.13 600.893,1325.46 603.574,1325.67 "/>
     <polygon id="_340335744" class="fil1" points="740.377,1318.55 1876.26,2454.43 1877.27,2455.4 1878.22,2456.41 1879.12,2457.45 1879.95,2458.53 1880.72,2459.64 1881.43,2460.79 1882.08,2461.97 1882.65,2463.18 1883.16,2464.42 1883.59,2465.68 1883.95,2466.97 1884.23,2468.28 1884.43,2469.61 1884.56,2470.96 1884.6,2472.33 748.718,1336.45 748.677,1335.08 748.553,1333.73 748.348,1332.4 748.066,1331.09 747.707,1329.8 747.275,1328.53 746.769,1327.3 746.194,1326.09 745.551,1324.91 744.842,1323.76 744.069,1322.65 743.234,1321.57 742.339,1320.52 741.386,1319.52 "/>
     <polygon id="_340335912" class="fil1" points="748.718,1336.45 1884.6,2472.33 1884.6,2472.61 1884.59,2472.9 1884.58,2473.18 1884.57,2473.46 1884.55,2473.74 1884.54,2474.02 1884.51,2474.3 1884.49,2474.58 748.605,1338.7 748.63,1338.42 748.654,1338.14 748.673,1337.86 748.69,1337.58 748.701,1337.3 748.711,1337.01 748.716,1336.73 "/>
     <polygon id="_340336632" class="fil1" points="934.67,574.216 2070.55,1710.1 2070.54,1710.63 2070.52,1711.15 2070.49,1711.67 2070.44,1712.19 2070.38,1712.7 2070.31,1713.21 2070.22,1713.72 2070.12,1714.22 934.239,578.335 934.338,577.835 934.425,577.33 934.5,576.82 934.56,576.308 934.608,575.79 934.642,575.268 934.663,574.744 "/>
     <polygon id="_340336752" class="fil1" points="997.272,612.249 2133.15,1748.13 2134.68,1749.82 2136.16,1751.54 2137.61,1753.29 2139.03,1755.07 2140.41,1756.88 2141.75,1758.72 2143.06,1760.59 2144.32,1762.49 2145.55,1764.42 2146.74,1766.37 2147.89,1768.35 2148.99,1770.35 2150.06,1772.38 2151.09,1774.44 2152.07,1776.52 2153.01,1778.62 2153.91,1780.74 2154.76,1782.89 2155.57,1785.06 2156.33,1787.26 2157.05,1789.47 2157.72,1791.7 2158.35,1793.96 2158.93,1796.23 2159.46,1798.52 2159.94,1800.83 2160.37,1803.15 2160.76,1805.5 2161.09,1807.86 2161.37,1810.23 1025.49,674.352 1025.21,671.976 1024.88,669.616 1024.49,667.273 1024.06,664.946 1023.58,662.637 1023.05,660.345 1022.47,658.073 1021.84,655.819 1021.17,653.586 1020.45,651.374 1019.69,649.182 1018.88,647.011 1018.03,644.862 1017.13,642.736 1016.19,640.633 1015.21,638.554 1014.18,636.499 1013.11,634.47 1012.01,632.464 1010.86,630.486 1009.67,628.534 1008.44,626.608 1007.18,624.712 1005.87,622.842 1004.53,621 1003.15,619.19 1001.73,617.409 1000.28,615.657 998.794,613.937 "/>
     <polygon id="_340336320" class="fil1" points="876.103,526.654 2011.98,1662.54 2010.82,1661.35 874.944,525.466 "/>
     <polygon id="_340336824" class="fil1" points="874.944,525.466 2010.82,1661.35 2009.64,1660.19 2008.42,1659.06 2007.18,1657.95 2005.91,1656.88 2004.62,1655.84 2003.3,1654.82 2001.96,1653.84 2000.59,1652.89 1999.2,1651.98 1997.79,1651.09 1996.35,1650.24 1994.9,1649.42 1993.42,1648.64 1991.92,1647.89 1990.4,1647.18 1988.87,1646.5 1987.31,1645.86 1985.73,1645.26 1984.14,1644.7 1982.53,1644.17 1980.91,1643.68 1979.26,1643.24 1977.61,1642.83 1975.93,1642.46 1974.24,1642.14 1972.54,1641.85 1970.83,1641.61 1969.1,1641.41 1967.36,1641.25 1965.61,1641.14 1963.85,1641.07 1962.07,1641.05 826.194,505.168 827.966,505.191 829.729,505.259 831.48,505.37 833.22,505.528 834.948,505.726 836.663,505.968 838.364,506.253 840.051,506.579 841.724,506.946 843.382,507.354 845.025,507.801 846.651,508.289 848.261,508.815 849.853,509.379 851.428,509.981 852.985,510.62 854.522,511.297 856.04,512.009 857.539,512.757 859.016,513.54 860.473,514.357 861.908,515.209 863.32,516.094 864.711,517.011 866.077,517.961 867.419,518.943 868.738,519.955 870.031,520.998 871.299,522.071 872.54,523.174 873.755,524.306 "/>
     <polygon id="_340336152" class="fil1" points="1025.49,674.352 2161.37,1810.23 2161.52,1811.7 2161.65,1813.17 2161.76,1814.65 2161.85,1816.13 2161.92,1817.62 2161.97,1819.12 2162,1820.62 2162.01,1822.12 1026.13,686.236 1026.12,684.733 1026.09,683.234 1026.04,681.741 1025.97,680.252 1025.88,678.769 1025.77,677.291 1025.64,675.819 "/>
     <polygon id="_340336848" class="fil1" points="1006.42,705.95 2142.3,1841.83 2052.74,1841.83 916.856,705.95 "/>
     <polygon id="_340336128" class="fil1" points="916.856,705.95 2052.74,1841.83 1963.18,1841.83 827.296,705.95 "/>
     <polygon id="_340336584" class="fil1" points="827.296,705.95 1963.18,1841.83 1961.16,1841.73 1959.2,1841.43 1957.31,1840.95 1955.5,1840.28 1953.78,1839.45 1952.15,1838.47 1950.64,1837.33 1949.24,1836.06 813.355,700.176 814.756,701.449 816.273,702.583 817.899,703.57 819.622,704.401 821.434,705.064 823.322,705.55 825.279,705.849 "/>
     <polygon id="_340336416" class="fil1" points="1026.13,686.236 2162.01,1822.12 2161.91,1824.13 2161.61,1826.09 2161.13,1827.98 2160.46,1829.79 2159.63,1831.52 2158.65,1833.14 2157.51,1834.66 2156.24,1836.06 2154.84,1837.33 2153.32,1838.47 2151.7,1839.45 2149.97,1840.28 2148.16,1840.95 2146.27,1841.43 2144.32,1841.73 2142.3,1841.83 1006.42,705.95 1008.43,705.849 1010.39,705.55 1012.28,705.064 1014.09,704.401 1015.81,703.57 1017.44,702.583 1018.96,701.449 1020.36,700.176 1021.63,698.776 1022.76,697.258 1023.75,695.633 1024.58,693.91 1025.25,692.098 1025.73,690.21 1026.03,688.252 "/>
     <polygon id="_340336488" class="fil1" points="1561.54,858.996 2697.42,1994.88 2696.05,1996.21 2694.66,1997.5 2693.24,1998.76 2691.79,1999.97 2690.32,2001.15 2688.82,2002.29 2687.3,2003.39 2685.75,2004.45 2684.17,2005.48 2682.58,2006.46 2680.96,2007.4 2679.32,2008.3 2677.66,2009.17 2675.98,2009.99 2674.28,2010.76 2672.57,2011.5 2670.83,2012.2 2669.08,2012.85 2667.32,2013.46 2665.53,2014.02 2663.74,2014.55 2661.93,2015.03 2660.11,2015.46 2658.27,2015.85 2656.42,2016.2 2654.57,2016.5 2652.7,2016.76 2650.83,2016.96 2648.94,2017.13 2647.05,2017.25 2645.15,2017.32 2643.25,2017.34 2271.7,2017.34 2269.79,2017.32 2267.89,2017.25 2266,2017.13 2264.12,2016.96 2262.24,2016.76 2260.37,2016.5 2258.52,2016.2 2256.67,2015.85 2254.84,2015.46 2253.01,2015.03 2251.2,2014.55 2249.41,2014.02 2247.63,2013.46 2245.86,2012.85 2244.11,2012.2 2242.37,2011.5 2240.66,2010.76 2238.96,2009.99 2237.28,2009.17 2235.62,2008.3 2233.98,2007.4 2232.36,2006.46 2230.77,2005.48 2229.2,2004.45 2227.65,2003.39 2226.12,2002.29 2224.62,2001.15 2223.15,1999.97 2221.7,1998.75 2220.28,1997.5 2218.89,1996.21 2217.52,1994.88 1081.64,858.995 1083.01,860.325 1084.4,861.617 1085.82,862.872 1087.26,864.089 1088.74,865.268 1090.24,866.408 1091.76,867.51 1093.31,868.572 1094.89,869.594 1096.48,870.577 1098.1,871.52 1099.74,872.422 1101.4,873.283 1103.08,874.103 1104.78,874.882 1106.49,875.619 1108.23,876.314 1109.98,876.966 1111.74,877.575 1113.53,878.142 1115.32,878.665 1117.13,879.144 1118.96,879.579 1120.79,879.97 1122.64,880.315 1124.49,880.616 1126.36,880.873 1128.24,881.082 1130.12,881.246 1132.01,881.363 1133.91,881.434 1135.81,881.457 1507.37,881.457 1509.27,881.434 1511.17,881.363 1513.06,881.246 1514.94,881.082 1516.82,880.873 1518.69,880.616 1520.54,880.315 1522.39,879.97 1524.22,879.579 1526.05,879.144 1527.86,878.665 1529.65,878.142 1531.44,877.575 1533.2,876.966 1534.95,876.314 1536.69,875.619 1538.4,874.882 1540.1,874.104 1541.78,873.283 1543.44,872.422 1545.08,871.52 1546.7,870.577 1548.29,869.594 1549.86,868.572 1551.41,867.51 1552.94,866.409 1554.44,865.268 1555.91,864.089 1557.36,862.873 1558.78,861.618 1560.17,860.326 "/>
     <polygon id="_340337328" class="fil1" points="1081.64,858.995 2217.52,1994.88 2216.19,1993.51 1080.31,857.632 "/>
     <polygon id="_340337472" class="fil1" points="1019.59,1005.1 2155.47,2140.99 2156.9,2142.72 2157.98,2144.71 2158.66,2146.9 2158.9,2149.26 1023.02,1013.38 1022.78,1011.02 1022.1,1008.83 1021.02,1006.84 "/>
     <polygon id="_340337352" class="fil1" points="1398.44,940.831 2534.32,2076.71 2535.93,2078.51 2537.52,2080.36 2539.08,2082.24 2540.6,2084.15 2542.08,2086.07 2543.53,2087.99 2544.93,2089.92 2546.28,2091.83 2547.59,2093.71 2548.85,2095.56 2550.05,2097.36 2551.2,2099.1 1415.31,963.22 1414.17,961.475 1412.96,959.674 1411.71,957.826 1410.4,955.944 1409.05,954.035 1407.64,952.112 1406.2,950.185 1404.72,948.263 1403.2,946.355 1401.64,944.475 1400.05,942.63 "/>
     <polygon id="_340337040" class="fil1" points="1415.31,963.22 2551.2,2099.1 2551.89,2100.3 2552.45,2101.54 2552.88,2102.82 2553.18,2104.11 2553.34,2105.41 2553.38,2106.72 2553.3,2108.02 2553.09,2109.31 2552.76,2110.57 2552.31,2111.79 2551.74,2112.97 2551.06,2114.09 2550.26,2115.15 2549.35,2116.14 2548.34,2117.05 2547.21,2117.86 1411.33,981.98 1412.45,981.166 1413.47,980.26 1414.38,979.272 1415.18,978.211 1415.86,977.087 1416.43,975.908 1416.88,974.684 1417.21,973.425 1417.42,972.141 1417.5,970.84 1417.46,969.532 1417.3,968.227 1417,966.934 1416.57,965.662 1416.01,964.422 "/>
     <polygon id="_340337208" class="fil1" points="1379.08,959.858 2514.97,2095.74 2513.72,2094.39 2512.47,2093.12 2511.21,2091.92 2509.96,2090.8 1374.08,954.922 1375.33,956.035 1376.59,957.235 1377.84,958.511 "/>
     <polygon id="_340337496" class="fil1" points="1374.08,954.922 2509.96,2090.8 2509.22,2090.38 2508.37,2090.24 2507.39,2090.37 2506.31,2090.76 2505.14,2091.38 2503.87,2092.23 2502.53,2093.28 2501.11,2094.52 2499.62,2095.94 2498.08,2097.51 2496.49,2099.22 2494.87,2101.06 2493.21,2103 2491.52,2105.04 2489.82,2107.15 2488.12,2109.32 2486.41,2111.54 2484.72,2113.78 2483.04,2116.03 2481.39,2118.28 2479.77,2120.51 2478.2,2122.7 2476.67,2124.83 2475.2,2126.89 2473.8,2128.87 2472.48,2130.74 2471.24,2132.49 2470.09,2134.11 2469.04,2135.58 2468.09,2136.88 2467.27,2137.99 2466.57,2138.91 1330.68,1003.02 1331.39,1002.11 1332.21,1001 1333.16,999.698 1334.21,998.231 1335.36,996.613 1336.6,994.859 1337.92,992.985 1339.32,991.009 1340.79,988.946 1342.32,986.813 1343.89,984.624 1345.51,982.399 1347.16,980.152 1348.84,977.898 1350.53,975.655 1352.24,973.441 1353.94,971.267 1355.64,969.155 1357.33,967.118 1358.98,965.173 1360.61,963.336 1362.2,961.624 1363.74,960.053 1365.22,958.638 1366.64,957.396 1367.99,956.344 1369.26,955.498 1370.43,954.874 1371.51,954.489 1372.48,954.356 1373.34,954.496 "/>
     <polygon id="_340337088" class="fil1" points="1411.33,981.98 2547.21,2117.86 2546.01,2118.56 2544.77,2119.12 2543.5,2119.55 2542.2,2119.84 2540.9,2120.01 2539.59,2120.05 2538.29,2119.96 2537.01,2119.75 2535.75,2119.42 2534.52,2118.97 2533.34,2118.41 2532.22,2117.72 2531.16,2116.93 2530.17,2116.02 1394.29,980.136 1395.28,981.044 1396.34,981.841 1397.46,982.523 1398.64,983.091 1399.86,983.541 1401.12,983.872 1402.41,984.081 1403.71,984.167 1405.02,984.128 1406.32,983.962 1407.62,983.665 1408.89,983.238 1410.13,982.677 "/>
     <polygon id="_340337280" class="fil1" points="1330.68,1003.02 2466.57,2138.91 2467.02,2162.23 1331.14,1026.35 "/>
     <polygon id="_340338312" class="fil1" points="1338.59,1045.09 2474.47,2180.97 2474.38,2180.97 2474.29,2180.98 2474.2,2180.99 2474.11,2180.99 2474.02,2180.99 2473.93,2180.99 2473.84,2181 2473.75,2181 1337.87,1045.11 1337.96,1045.11 1338.05,1045.11 1338.14,1045.11 1338.23,1045.11 1338.32,1045.1 1338.41,1045.1 1338.5,1045.09 "/>
     <polygon id="_340338240" class="fil1" points="1337.87,1045.11 2473.75,2181 2467.38,2181 1331.5,1045.11 "/>
     <polygon id="_340337928" class="fil1" points="1357.18,1017.89 2493.06,2153.78 2494.09,2154.91 2495.04,2156.18 2495.9,2157.58 2496.67,2159.09 2497.34,2160.72 2497.9,2162.44 2498.35,2164.25 2498.67,2166.14 2498.88,2168.09 2498.95,2170.1 2498.88,2172.12 2498.67,2174.07 2498.35,2175.96 2497.9,2177.77 2497.34,2179.49 2496.67,2181.11 2495.9,2182.63 2495.04,2184.03 2494.09,2185.3 2493.06,2186.43 2491.96,2187.42 2490.8,2188.25 2489.57,2188.91 2488.29,2189.39 2486.96,2189.69 2485.6,2189.79 2483.88,2189.63 2482.23,2189.16 2480.67,2188.4 2479.19,2187.37 2477.81,2186.1 1341.93,1050.21 1343.31,1051.49 1344.78,1052.52 1346.35,1053.28 1348,1053.75 1349.72,1053.91 1351.08,1053.81 1352.41,1053.51 1353.69,1053.02 1354.91,1052.36 1356.08,1051.53 1357.18,1050.55 1358.21,1049.41 1359.16,1048.14 1360.02,1046.74 1360.79,1045.23 1361.45,1043.61 1362.02,1041.88 1362.47,1040.07 1362.79,1038.19 1363,1036.23 1363.07,1034.22 1363,1032.21 1362.79,1030.25 1362.47,1028.37 1362.02,1026.56 1361.45,1024.84 1360.79,1023.21 1360.02,1021.7 1359.16,1020.3 1358.21,1019.03 "/>
     <polygon id="_340337952" class="fil1" points="1294.06,1017.83 2429.95,2153.71 2431.45,2155.43 2432.77,2157.45 2433.89,2159.73 2434.78,2162.23 1298.9,1026.35 1298.01,1023.84 1296.89,1021.57 1295.57,1019.55 "/>
     <polygon id="_340338000" class="fil1" points="1530.19,1083.23 2666.07,2219.11 2667.7,2220.89 2669.34,2222.73 2671.02,2224.65 2672.72,2226.63 2674.43,2228.69 1538.55,1092.81 1536.84,1090.75 1535.14,1088.77 1533.46,1086.85 1531.81,1085.01 "/>
     <polygon id="_340337688" class="fil1" points="1538.55,1092.81 2674.43,2228.69 2675.34,2229.8 2676.26,2230.93 2677.17,2232.08 2678.1,2233.25 2679.02,2234.44 2679.95,2235.65 2680.89,2236.88 2681.82,2238.13 2682.76,2239.4 2683.7,2240.69 2684.64,2242.01 2685.58,2243.35 2686.53,2244.7 2687.47,2246.08 2688.42,2247.48 2689.37,2248.9 2690.31,2250.34 2691.26,2251.81 2692.2,2253.29 2693.14,2254.8 2694.08,2256.33 2695.02,2257.89 2695.96,2259.46 2696.9,2261.06 2697.83,2262.68 2698.75,2264.32 2699.68,2265.99 2700.6,2267.67 2701.52,2269.38 2702.43,2271.12 2703.33,2272.87 2704.24,2274.65 1568.35,1138.77 1567.45,1136.99 1566.55,1135.24 1565.64,1133.5 1564.72,1131.79 1563.8,1130.1 1562.87,1128.44 1561.95,1126.8 1561.01,1125.18 1560.08,1123.58 1559.14,1122 1558.2,1120.45 1557.26,1118.92 1556.32,1117.41 1555.37,1115.93 1554.43,1114.46 1553.49,1113.02 1552.54,1111.6 1551.59,1110.2 1550.65,1108.82 1549.7,1107.46 1548.76,1106.13 1547.82,1104.81 1546.88,1103.52 1545.94,1102.25 1545,1100.99 1544.07,1099.76 1543.14,1098.55 1542.22,1097.37 1541.29,1096.2 1540.38,1095.05 1539.46,1093.92 "/>
     <polygon id="_340338360" class="fil1" points="1568.35,1138.77 2704.24,2274.65 2704.63,2275.48 2705.01,2276.3 2705.35,2277.13 2705.67,2277.96 2705.97,2278.8 2706.23,2279.64 2706.47,2280.48 2706.69,2281.32 2706.88,2282.16 2707.04,2283.01 2707.18,2283.86 2707.3,2284.71 2707.39,2285.57 2707.45,2286.42 2707.48,2287.28 2707.5,2288.14 1571.62,1152.26 1571.6,1151.4 1571.57,1150.54 1571.5,1149.68 1571.42,1148.83 1571.3,1147.98 1571.16,1147.13 1571,1146.28 1570.81,1145.44 1570.59,1144.59 1570.35,1143.75 1570.08,1142.92 1569.79,1142.08 1569.47,1141.25 1569.13,1140.42 1568.75,1139.6 "/>
     <polygon id="_340337760" class="fil1" points="1571.62,1152.26 2707.5,2288.14 2707.43,2290.24 2707.21,2292.34 2706.85,2294.44 2706.35,2296.54 2705.72,2298.63 2704.95,2300.72 2704.04,2302.8 2703,2304.88 2701.83,2306.95 2700.53,2309.01 2699.1,2311.06 2697.54,2313.1 2695.86,2315.13 2694.06,2317.15 2692.14,2319.15 2690.09,2321.14 1554.21,1185.26 1556.26,1183.27 1558.18,1181.26 1559.98,1179.25 1561.66,1177.22 1563.22,1175.18 1564.64,1173.12 1565.95,1171.06 1567.12,1168.99 1568.16,1166.92 1569.06,1164.84 1569.84,1162.75 1570.47,1160.66 1570.97,1158.56 1571.33,1156.46 1571.54,1154.36 "/>
     <polygon id="_340338216" class="fil1" points="1554.21,1185.26 2690.09,2321.14 2689.21,2321.97 2688.3,2322.79 2687.36,2323.62 2686.41,2324.44 2685.43,2325.27 2684.43,2326.09 2683.41,2326.92 2682.36,2327.74 2681.29,2328.56 2680.2,2329.38 2679.09,2330.2 2677.96,2331.02 2676.81,2331.83 2675.64,2332.65 2674.44,2333.46 2673.23,2334.27 2671.99,2335.08 2670.74,2335.89 2669.46,2336.69 2668.16,2337.5 2666.85,2338.3 2665.52,2339.1 2664.16,2339.89 2662.79,2340.69 2661.39,2341.48 2659.98,2342.27 2658.55,2343.05 2657.1,2343.83 2655.64,2344.61 2654.15,2345.39 2652.65,2346.16 2651.13,2346.93 1515.25,1211.05 1516.77,1210.28 1518.27,1209.5 1519.76,1208.73 1521.22,1207.95 1522.67,1207.17 1524.1,1206.38 1525.51,1205.6 1526.91,1204.8 1528.28,1204.01 1529.63,1203.21 1530.97,1202.42 1532.28,1201.62 1533.58,1200.81 1534.86,1200.01 1536.11,1199.2 1537.35,1198.39 1538.56,1197.58 1539.76,1196.76 1540.93,1195.95 1542.08,1195.13 1543.21,1194.32 1544.32,1193.5 1545.41,1192.68 1546.48,1191.85 1547.52,1191.03 1548.55,1190.21 1549.55,1189.39 1550.53,1188.56 1551.48,1187.74 1552.42,1186.91 1553.33,1186.08 "/>
     <polygon id="_340338888" class="fil1" points="1304.33,1045.11 2440.21,2181 2433.67,2181 1297.78,1045.11 "/>
     <polygon id="_340338624" class="fil1" points="1023.02,1013.38 2158.9,2149.26 2158.9,2161.52 1023.02,1025.63 "/>
     <polygon id="_340338984" class="fil1" points="1127.93,1211.05 2263.82,2346.93 2261.79,2345.9 2259.69,2344.82 2257.53,2343.67 2255.31,2342.46 2253.05,2341.2 2250.75,2339.88 2248.42,2338.5 2246.07,2337.07 2243.71,2335.58 2241.36,2334.03 2239.01,2332.44 2236.67,2330.79 2234.37,2329.09 2232.09,2327.34 2229.86,2325.54 2227.69,2323.69 2225.58,2321.8 2223.53,2319.85 1087.65,1183.97 1089.69,1185.91 1091.81,1187.81 1093.98,1189.66 1096.21,1191.46 1098.48,1193.21 1100.79,1194.91 1103.12,1196.56 1105.47,1198.15 1107.83,1199.69 1110.19,1201.18 1112.54,1202.62 1114.87,1203.99 1117.17,1205.32 1119.43,1206.58 1121.65,1207.79 1123.81,1208.93 1125.91,1210.02 "/>
     <polygon id="_340338816" class="fil1" points="1396.55,1582.24 2532.43,2718.12 2531.73,2718.14 1395.84,1582.26 "/>
     <polygon id="_340338672" class="fil1" points="1395.84,1582.26 2531.73,2718.14 2453.86,2718.14 1317.98,1582.26 "/>
     <polygon id="_340339104" class="fil1" points="1317.98,1582.26 2453.86,2718.14 2383.22,2718.14 1247.34,1582.26 "/>
     <polygon id="_340339128" class="fil1" points="1247.34,1582.26 2383.22,2718.14 2381.83,2718.07 2380.48,2717.87 2379.17,2717.53 2377.92,2717.07 2376.73,2716.5 2375.61,2715.82 2374.56,2715.04 2373.6,2714.16 1237.72,1578.27 1238.68,1579.15 1239.73,1579.94 1240.85,1580.62 1242.04,1581.19 1243.29,1581.65 1244.59,1581.98 1245.94,1582.19 "/>
     <polygon id="_340338408" class="fil1" points="1048.27,1037.34 2184.15,2173.22 2183.92,2175.58 2183.23,2177.78 2182.16,2179.76 2180.73,2181.5 2178.99,2182.93 2177.01,2184 2174.81,2184.69 2172.45,2184.92 1036.57,1049.04 1038.93,1048.8 1041.12,1048.12 1043.11,1047.04 1044.85,1045.61 1046.27,1043.88 1047.35,1041.89 1048.04,1039.7 "/>
     <polygon id="_340338552" class="fil1" points="1044.85,1029.06 2180.73,2164.94 2182.16,2166.68 2183.23,2168.67 2183.92,2170.86 2184.15,2173.22 1048.27,1037.34 1048.04,1034.98 1047.35,1032.78 1046.27,1030.79 "/>
     <polygon id="_340338768" class="fil1" points="1297.78,1045.11 2433.67,2181 2432.69,2182.9 2431.57,2184.61 2430.32,2186.11 2428.95,2187.38 2427.47,2188.41 2425.91,2189.16 2424.26,2189.63 2422.55,2189.79 2421.18,2189.69 2419.86,2189.39 2418.58,2188.91 2417.35,2188.25 2416.19,2187.42 2415.08,2186.43 1279.2,1050.55 1280.3,1051.53 1281.47,1052.36 1282.7,1053.02 1283.98,1053.51 1285.3,1053.81 1286.67,1053.91 1288.38,1053.75 1290.02,1053.28 1291.59,1052.52 1293.07,1051.5 1294.44,1050.23 1295.69,1048.73 1296.81,1047.01 "/>
     <polygon id="_340338864" class="fil1" points="1331.5,1045.11 2467.38,2181 2467.74,2199.67 1331.86,1063.78 "/>
     <polygon id="_340339272" class="fil1" points="1515.25,1211.05 2651.13,2346.93 2648.15,2348.4 2645.11,2349.85 2642,2351.3 2638.82,2352.73 2635.58,2354.14 2632.27,2355.54 2628.91,2356.93 2625.48,2358.29 2621.99,2359.64 2618.45,2360.97 2614.85,2362.28 2611.2,2363.57 2607.49,2364.84 2603.73,2366.08 2599.92,2367.31 2596.06,2368.51 2592.15,2369.68 2588.2,2370.83 2584.2,2371.95 2580.16,2373.04 2576.07,2374.11 2571.95,2375.15 2567.78,2376.16 2563.58,2377.13 2559.34,2378.08 2555.06,2378.99 2550.75,2379.88 2546.41,2380.72 2542.04,2381.54 2537.63,2382.31 2533.2,2383.05 2528.74,2383.76 1392.86,1247.87 1397.32,1247.17 1401.75,1246.43 1406.15,1245.65 1410.53,1244.84 1414.87,1243.99 1419.18,1243.11 1423.46,1242.2 1427.7,1241.25 1431.9,1240.27 1436.07,1239.27 1440.19,1238.23 1444.28,1237.16 1448.32,1236.07 1452.32,1234.95 1456.27,1233.8 1460.18,1232.62 1464.04,1231.42 1467.85,1230.2 1471.61,1228.96 1475.31,1227.69 1478.97,1226.4 1482.57,1225.09 1486.11,1223.76 1489.6,1222.41 1493.02,1221.05 1496.39,1219.66 1499.7,1218.26 1502.94,1216.85 1506.12,1215.42 1509.23,1213.97 1512.27,1212.51 "/>
     <polygon id="_340339800" class="fil1" points="1250.32,1247.87 2386.21,2383.76 2381.74,2383.05 2377.31,2382.31 2372.91,2381.54 2368.53,2380.72 2364.19,2379.88 2359.88,2378.99 2355.6,2378.08 2351.36,2377.13 2347.16,2376.16 2342.99,2375.15 2338.87,2374.11 2334.78,2373.04 2330.74,2371.95 2326.74,2370.83 2322.79,2369.68 2318.88,2368.51 2315.02,2367.31 2311.21,2366.08 2307.46,2364.84 2303.75,2363.57 2300.09,2362.28 2296.5,2360.97 2292.95,2359.64 2289.47,2358.29 2286.04,2356.93 2282.67,2355.55 2279.37,2354.15 2276.13,2352.73 2272.95,2351.3 2269.84,2349.86 2266.79,2348.4 2263.82,2346.93 1127.93,1211.05 1130.91,1212.52 1133.96,1213.97 1137.07,1215.42 1140.25,1216.85 1143.49,1218.26 1146.79,1219.66 1150.16,1221.05 1153.59,1222.41 1157.07,1223.76 1160.61,1225.09 1164.21,1226.4 1167.87,1227.69 1171.57,1228.96 1175.33,1230.2 1179.14,1231.42 1183,1232.62 1186.91,1233.8 1190.86,1234.95 1194.86,1236.07 1198.9,1237.16 1202.99,1238.23 1207.11,1239.27 1211.28,1240.27 1215.48,1241.25 1219.72,1242.2 1224,1243.11 1228.31,1243.99 1232.65,1244.84 1237.03,1245.65 1241.43,1246.43 1245.86,1247.17 "/>
     <polygon id="_340339896" class="fil1" points="1392.86,1247.87 2528.74,2383.76 2545.28,2703.84 1409.4,1567.95 "/>
     <polygon id="_340339680" class="fil1" points="1409.43,1567.95 2545.31,2703.84 2545.31,2705.23 2545.18,2706.59 2544.91,2707.91 2544.52,2709.18 2544.01,2710.4 2543.38,2711.55 2542.66,2712.64 2541.83,2713.65 2540.91,2714.57 2539.9,2715.41 2538.82,2716.15 2537.66,2716.78 2536.44,2717.3 2535.15,2717.71 2533.81,2717.98 2532.43,2718.12 1396.55,1582.24 1397.93,1582.1 1399.27,1581.82 1400.55,1581.42 1401.78,1580.9 1402.94,1580.27 1404.02,1579.53 1405.03,1578.69 1405.95,1577.76 1406.77,1576.76 1407.5,1575.67 1408.13,1574.51 1408.64,1573.3 1409.03,1572.02 1409.3,1570.71 1409.43,1569.35 "/>
     <polygon id="_340339824" class="fil1" points="830.52,1325.73 1966.4,2461.62 1963.68,2461.55 1961,2461.34 1958.36,2461.01 1955.76,2460.54 1953.21,2459.95 1950.71,2459.24 1948.25,2458.41 1945.86,2457.47 1943.52,2456.41 1941.24,2455.24 1939.03,2453.97 1936.89,2452.6 1934.82,2451.13 1932.82,2449.56 1930.91,2447.9 795.028,1312.02 796.944,1313.68 798.938,1315.25 801.008,1316.72 803.149,1318.09 805.36,1319.36 807.636,1320.53 809.975,1321.58 812.371,1322.53 814.824,1323.36 817.329,1324.07 819.883,1324.66 822.481,1325.13 825.123,1325.46 827.803,1325.67 "/>
     <polygon id="_340339320" class="fil1" points="754.745,1343.1 1890.63,2478.98 1891.97,2480.21 1893.22,2481.48 1894.38,2482.79 1895.45,2484.14 1896.41,2485.53 1897.27,2486.95 1898.03,2488.41 1898.68,2489.89 1899.22,2491.41 1899.64,2492.95 1899.95,2494.52 1900.14,2496.11 1900.2,2497.72 764.318,1361.84 764.255,1360.23 764.069,1358.64 763.763,1357.07 763.339,1355.53 762.8,1354.01 762.152,1352.53 761.393,1351.07 760.531,1349.65 759.566,1348.26 758.502,1346.91 757.341,1345.6 756.088,1344.33 "/>
    </g>
    <path id="_451253360" class="fil1" d="M1507.37 481.748c20.341,0 39.7878,8.08229 54.1689,22.4622 14.3823,14.3811 22.4646,33.828 22.4646,54.1701l0 246.443c0,20.3433 -8.08229,39.7902 -22.4646,54.1725 -14.3811,14.3788 -33.828,22.461 -54.1689,22.461l-371.553 0c-20.3421,0 -39.789,-8.08229 -54.1713,-22.4622 -14.3799,-14.3811 -22.4622,-33.8292 -22.4622,-54.1713l0 -246.443c0,-20.3421 8.08347,-39.789 22.4646,-54.1701 14.3811,-14.3799 33.8268,-22.4622 54.1689,-22.4622l371.553 0zm-496.055 519.928c6.46418,0 11.7047,5.24056 11.7047,11.7047l0 12.2528 13.5532 0c6.463,0 11.7036,5.24056 11.7036,11.7047 0,6.463 -5.24056,11.7036 -11.7036,11.7036l-13.5532 0 0 38.7343c0,13.1138 -5.3563,25.0264 -13.9854,33.6532 -8.62796,8.62796 -20.5406,13.9843 -33.6555,13.9843 -13.1114,0 -25.0252,-5.3563 -33.6532,-13.9843 -8.62796,-8.62678 -13.9843,-20.5394 -13.9843,-33.6532l0 -38.7343 -13.5532 0c-6.463,0 -11.7047,-5.24056 -11.7047,-11.7036 0,-6.46418 5.24174,-11.7047 11.7047,-11.7047l13.5532 0 0 -12.2528c0,-6.46418 5.24056,-11.7047 11.7036,-11.7047l71.8701 0zm-246.024 232.066l22.1858 8.6504c1.71732,-2.41418 3.63189,-4.67835 5.72126,-6.76772 9.55394,-9.55276 22.7504,-15.463 37.3252,-15.463 14.5725,0 27.7701,5.91024 37.324,15.463 9.55276,9.55394 15.463,22.7504 15.463,37.324 0,14.5725 -5.91024,27.7701 -15.463,37.324 -9.55394,9.55158 -22.7516,15.4618 -37.324,15.4618 -14.5748,0 -27.7713,-5.91024 -37.3252,-15.4618 -9.55158,-9.55394 -15.4618,-22.7516 -15.4618,-37.324 0,-2.09764 0.122835,-4.16693 0.360236,-6.20079l-21.9354 -16.7658 -19.9559 -7.78111c-0.764174,3.27284 -2.34449,6.2315 -4.51418,8.65158l-5.36811 37.9843 3.28819 23.2654c3.64134,1.33819 6.92717,3.22205 9.70631,5.5252 5.80867,4.81772 9.40394,11.4732 9.40394,18.8221 0,0.757087 -0.0377953,1.50591 -0.113386,2.24646 0.54567,0.322441 1.07835,0.654331 1.60039,0.993308 8.7189,5.6693 14.113,13.5024 14.113,22.1492 0,8.64804 -5.3941,16.4799 -14.113,22.1492 -4.38307,2.84882 -9.60709,5.15315 -15.4075,6.73938l-5.25473 22.3299 -25.0772 0 -5.90315 -22.0453c-6.23268,-1.58977 -11.8335,-3.99922 -16.4858,-7.02402 -8.71772,-5.6693 -14.1118,-13.5012 -14.1118,-22.1492 0,-8.64686 5.3941,-16.4799 14.1118,-22.1492 0.805512,-0.523229 1.63937,-1.02874 2.5004,-1.51417 -0.0437008,-0.570473 -0.0661418,-1.14567 -0.0661418,-1.72559 0,-7.34882 3.5941,-14.0043 9.40394,-18.8221 2.98583,-2.47559 6.55749,-4.46575 10.5284,-5.81575l3.24685 -22.9748 -5.36811 -37.9843c-1.8437,-2.05512 -3.26103,-4.5 -4.11496,-7.19646l-20.3563 7.93701 -19.1929 14.6693c0.276378,2.18977 0.419292,4.42087 0.419292,6.68623 0,14.5725 -5.91142,27.7701 -15.4642,37.324 -9.55276,9.55158 -22.7504,15.4618 -37.3229,15.4618 -14.5736,0 -27.7701,-5.91024 -37.324,-15.4618 -9.55276,-9.55394 -15.463,-22.7516 -15.463,-37.324 0,-14.5736 5.91024,-27.7701 15.463,-37.324 9.55394,-9.55276 22.7504,-15.463 37.324,-15.463 14.5725,0 27.7701,5.91024 37.3229,15.463 2.2063,2.2063 4.2189,4.60748 6.00827,7.1752l19.1008 -7.44686 28.5685 -21.8351 0 -717.904c0,-0.941339 0.0661418,-1.86614 0.193701,-2.77205 -0.923623,-2.28071 -1.4315,-4.7752 -1.4315,-7.38662 0,-10.8874 8.82757,-19.715 19.715,-19.715l110.426 0c29.8512,0 56.9752,12.1984 76.6264,31.8496 19.6512,19.6512 31.8496,46.7752 31.8496,76.6264 0,1.4126 -0.148819,2.79095 -0.431103,4.11969 23.2134,3.71103 43.9866,14.7343 59.8855,30.6331 17.1437,17.1437 28.6181,39.9567 31.3689,65.3835 0.422835,3.90355 0.638977,7.86851 0.638977,11.8843 0,10.8874 -8.82638,19.7138 -19.7138,19.7138l-89.5619 0 -89.5607 0c-10.8874,0 -19.715,-8.82638 -19.715,-19.7138 0,-4.01575 0.219685,-7.98071 0.638977,-11.8843 2.75079,-25.4268 14.2252,-48.2386 31.3701,-65.3835 15.0591,-15.0591 34.4941,-25.7445 56.2323,-29.9847 -0.380315,-1.52717 -0.581103,-3.12402 -0.581103,-4.76811 0,-18.9685 -7.77402,-36.2268 -20.2973,-48.75 -12.5244,-12.5232 -29.7827,-20.2973 -48.75,-20.2973l-89.4745 0 0 706.739 28.5685 21.8339zm584.45 -298.76c13.0571,-16.5543 28.0063,-12.6083 41.987,-0.680315 9.15827,7.81536 17.6268,19.7752 23.5902,28.9193 4.07953,6.27993 2.29606,14.6799 -3.98504,18.7595 -6.28111,4.07953 -14.6811,2.29488 -18.7595,-3.98504 -4.95118,-7.59095 -11.8264,-17.3882 -18.489,-23.0729 -7.18819,-6.13465 -36.5965,39.4819 -43.3973,48.1028l0.451181 23.3221 6.34725 0c2.05866,-6.95434 6.763,-11.8146 12.2362,-11.8146 7.37127,0 13.3465,8.81457 13.3465,19.6878 0,10.8744 -5.9752,19.6902 -13.3465,19.6902 -4.64882,0 -8.74253,-3.5067 -11.1319,-8.82402 -0.237402,0.0177165 -0.477166,0.0271654 -0.719292,0.0271654l-6.36851 0 0.361418 18.6709 173.067 0c3.93425,0 7.47993,1.67126 9.96379,4.34174 6.02245,5.43426 14.4449,13.5142 23.6622,24.6851 9.66497,11.7118 20.2181,26.8536 29.8004,45.9615 2.19803,4.38189 3.26221,8.89253 3.26221,13.487 0,11.2051 -6.19607,22.4232 -17.4024,32.9977 -9.34016,8.81457 -22.6524,17.6079 -38.9646,25.7882 -31.3807,15.737 -74.6729,29.5252 -122.393,36.8292l16.5402 320.08 0.0354331 -0.0011811c0.386221,7.50237 -5.38229,13.8992 -12.8858,14.2878l-0.701575 0.0177165 -77.8619 0 -70.6465 0c-7.513,0 -13.6051,-6.09095 -13.6051,-13.6051 0,-0.572835 0.0366142,-1.13858 0.105118,-1.69488l16.4882 -319.084c-47.7189,-7.30512 -91.0099,-21.091 -122.389,-36.828 -21.1807,-10.6217 -56.3693,-31.7469 -56.3693,-58.7871 0,-4.59449 1.06417,-9.10513 3.26221,-13.487 9.58111,-19.1079 20.1343,-34.2496 29.7992,-45.9615 9.70158,-11.7579 18.5232,-20.0906 24.5918,-25.5177l-0.0366142 -0.0437008c2.59725,-2.32323 5.83937,-3.46536 9.07087,-3.46536l166.471 0 -0.396851 -18.6709 -6.54213 0c-2.39055,5.30197 -6.47835,8.79686 -11.1189,8.79686 -7.37127,0 -13.3465,-8.81575 -13.3465,-19.6902 0,-10.8732 5.9752,-19.6878 13.3465,-19.6878 5.47323,0 10.1764,4.86024 12.235,11.8146l5.02678 0 -0.581103 -27.313c-0.13937,-3.60945 1.14095,-6.94371 3.3437,-9.46654l43.0477 -54.5859zm-874.034 101.515l150.996 0c6.463,0 11.7047,5.24056 11.7047,11.7047 0,14.4189 -5.89134,27.5209 -15.3815,37.0122 -9.49016,9.49016 -22.591,15.3803 -37.0111,15.3803l-69.6178 0c-14.4213,0 -27.5232,-5.89016 -37.0122,-15.3803 -9.49135,-9.49016 -15.3815,-22.591 -15.3815,-37.0122 0,-6.46418 5.24056,-11.7047 11.7036,-11.7047z"/>
   </g>
  </g>
  <path class="fil2" d="M1024 -0.0011811c565.539,0 1024,458.462 1024,1024 0,565.539 -458.462,1024 -1024,1024 -565.539,0 -1024,-458.462 -1024,-1024 0,-565.539 458.462,-1024 1024,-1024z"/>
  <path class="fil3" d="M1295.21 1026.35c-5.1815,0 -9.38268,4.20118 -9.38268,9.38268 0,5.1815 4.20118,9.38268 9.38268,9.38268l42.6555 0c5.18268,0 9.38268,-4.20118 9.38268,-9.38268 0,-5.1815 -4.2,-9.38268 -9.38268,-9.38268l-42.6555 0z"/>
  <polygon class="fil4" points="695.036,1377.84 737.829,1377.84 729.543,1413.06 704.466,1413.06 "/>
  <path class="fil5" d="M1135.81 481.748l371.553 0c20.341,0 39.7878,8.08229 54.1689,22.4622 14.3823,14.3811 22.4646,33.828 22.4646,54.1701l0 246.443c0,20.3433 -8.08229,39.7902 -22.4646,54.1725 -14.3811,14.3788 -33.828,22.461 -54.1689,22.461l-371.553 0c-20.3421,0 -39.789,-8.08229 -54.1713,-22.4622 -14.3799,-14.3811 -22.4622,-33.8292 -22.4622,-54.1713l0 -246.443c0,-20.3421 8.08347,-39.789 22.4646,-54.1701 14.3811,-14.3799 33.8268,-22.4622 54.1689,-22.4622zm0 23.4071l371.553 0c14.1366,0 27.626,5.61496 37.6181,15.6071 9.99213,9.99095 15.6083,23.4815 15.6083,37.6181l0 246.443c0,14.1378 -5.61496,27.6284 -15.6083,37.6193 -9.99213,9.99213 -23.4815,15.6071 -37.6181,15.6071l-371.553 0c-14.1366,0 -27.6272,-5.61496 -37.6193,-15.6071 -9.99095,-9.99095 -15.6071,-23.4827 -15.6071,-37.6193l0 -246.443c0,-14.1366 5.61615,-27.6272 15.6083,-37.6181 9.99213,-9.99213 23.4815,-15.6071 37.6181,-15.6071z"/>
  <path class="fil6" d="M1082.59 558.381l0 246.443c0,14.1366 5.61615,27.6284 15.6071,37.6193 9.99213,9.99213 23.4827,15.6071 37.6193,15.6071l371.553 0c14.1366,0 27.626,-5.61496 37.6181,-15.6071 9.99331,-9.99095 15.6083,-23.4815 15.6083,-37.6193l0 -246.443c0,-14.1366 -5.61615,-27.6272 -15.6083,-37.6181 -9.99213,-9.99213 -23.4815,-15.6071 -37.6181,-15.6071l-371.553 0c-14.1366,0 -27.626,5.61496 -37.6181,15.6071 -9.99213,9.99095 -15.6083,23.4815 -15.6083,37.6181z"/>
  <path class="fil7" d="M1135.81 517.591l371.553 0c10.839,0 21.1654,4.30512 28.8248,11.9646 7.66064,7.65945 11.9658,17.987 11.9658,28.8248l0 246.443c0,10.839 -4.30394,21.1666 -11.9658,28.826 -7.65945,7.65945 -17.9858,11.9646 -28.8248,11.9646l-371.553 0c-10.839,0 -21.1654,-4.30512 -28.826,-11.9646 -7.65945,-7.66064 -11.9646,-17.987 -11.9646,-28.826l0 -246.443c0,-10.8378 4.3063,-21.1654 11.9658,-28.8248 7.65945,-7.65945 17.9858,-11.9646 28.8248,-11.9646z"/>
  <path class="fil8" d="M939.441 1001.68l71.8701 0c6.46418,0 11.7047,5.24056 11.7047,11.7047l0 74.3953c0,13.1138 -5.3563,25.0264 -13.9854,33.6532 -8.62796,8.62796 -20.5406,13.9843 -33.6544,13.9843l-0.0011811 0c-13.1114,0 -25.0252,-5.3563 -33.6532,-13.9843 -8.62796,-8.62678 -13.9843,-20.5394 -13.9843,-33.6532l0 -74.3953c0,-6.46418 5.24056,-11.7047 11.7036,-11.7047z"/>
  <path class="fil9" d="M914.185 1025.63c-6.463,0 -11.7047,5.24056 -11.7047,11.7047 0,6.463 5.24174,11.7036 11.7047,11.7036l26.5571 0c6.463,0 11.7036,-5.24056 11.7036,-11.7036 0,-6.46418 -5.24056,-11.7047 -11.7036,-11.7047l-26.5571 0z"/>
  <path class="fil9" d="M1010.01 1025.63c-6.46418,0 -11.7047,5.24056 -11.7047,11.7047 0,6.463 5.24056,11.7036 11.7047,11.7036l26.5571 0c6.463,0 11.7036,-5.24056 11.7036,-11.7036 0,-6.46418 -5.24056,-11.7047 -11.7036,-11.7047l-26.5571 0z"/>
  <path class="fil8" d="M475.704 1036.5l150.996 0c6.463,0 11.7047,5.24056 11.7047,11.7047l0 0c0,14.4189 -5.89134,27.5209 -15.3815,37.0122 -9.49016,9.49016 -22.591,15.3803 -37.0111,15.3803l-69.6178 0c-14.4213,0 -27.5232,-5.89016 -37.0122,-15.3803 -9.49135,-9.49016 -15.3815,-22.591 -15.3815,-37.0122l0 0c0,-6.46418 5.24056,-11.7047 11.7036,-11.7047z"/>
  <path class="fil3" d="M1392.64 1243.63l-14.2429 -12.861 -113.607 0c-7.48465,-0.381496 -13.8614,5.37638 -14.2429,12.861l-16.7079 323.328c-0.068504,0.555119 -0.105118,1.12087 -0.105118,1.69488 0,7.513 6.09213,13.6039 13.6051,13.6039l148.508 0c0.232677,0 0.467717,-0.00590552 0.702756,-0.0177165 7.50355,-0.387402 13.2721,-6.78544 12.8835,-14.289l-0.034252 0.00236221 -16.7599 -324.323z"/>
  <path class="fil9" d="M1317.98 1230.77l-53.1957 0c-7.48465,-0.381496 -13.8614,5.37638 -14.2429,12.861l-16.7079 323.328c-0.068504,0.555119 -0.105118,1.12087 -0.105118,1.69488 0,7.513 6.09213,13.6039 13.6051,13.6039l70.6465 0 0 -351.488z"/>
  <path class="fil8" d="M1514.89 1068.13c6.02245,5.43308 14.4449,13.5118 23.6622,24.6839 9.66615,11.713 20.2181,26.8536 29.8004,45.9603 2.19685,4.38307 3.26221,8.89371 3.26221,13.4882 0,11.2051 -6.19607,22.4232 -17.4024,32.9977 -9.34016,8.81339 -22.6524,17.6067 -38.9658,25.7882 -46.5071,23.3244 -119.18,42.365 -193.657,42.365 -74.4756,0 -147.148,-19.0406 -193.656,-42.3638 -21.1807,-10.6217 -56.3693,-31.7469 -56.3693,-58.7871 0,-4.59449 1.06417,-9.10513 3.26221,-13.4882 9.58111,-19.1067 20.1343,-34.2473 29.7992,-45.9603 9.70158,-11.7579 18.5232,-20.0906 24.5918,-25.5189l9.03426 10.0973 -9.07087 -10.1398c2.59725,-2.32323 5.84056,-3.46536 9.07087,-3.46418l0 -0.0011811 366.675 0c3.93544,0 7.47993,1.67126 9.96379,4.34292z"/>
  <path class="fil6" d="M1499.73 1090.99l-356.28 0c-4.95827,3.04725 -11.1827,7.16575 -17.8854,12.502 -8.61142,6.85276 -18.0012,15.6992 -26.504,26.8347 -0.19252,0.252756 -0.285827,0.555119 -0.285827,0.901182 0,2.18977 3.1311,5.17914 8.79213,8.6882 7.52717,4.66536 18.6272,9.44174 32.4839,14.0055 43.2402,14.2417 111.28,25.8685 181.539,25.8685 70.2603,0 138.301,-11.628 181.541,-25.8697 13.8543,-4.56378 24.9543,-9.34016 32.4815,-14.0055 5.66103,-3.50788 8.79213,-6.49725 8.79213,-8.68701 0,-0.346063 -0.0933072,-0.648426 -0.285827,-0.901182 -8.50276,-11.1354 -17.8937,-19.9819 -26.504,-26.8347 -6.70394,-5.33622 -12.9284,-9.45473 -17.8854,-12.502z"/>
  <ellipse class="fil10" cx="1286.67" cy="1034.22" rx="13.3465" ry="19.6887"/>
  <ellipse class="fil10" cx="1349.72" cy="1034.22" rx="13.3465" ry="19.6887"/>
  <ellipse class="fil11" cx="1318.18" cy="1076.43" rx="33.1483" ry="7.51467"/>
  <path class="fil12" d="M1401.08 980.351c2.89843,2.58189 7.81182,1.7941 10.9748,-1.7563 3.16418,-3.55158 3.37914,-8.52284 0.48189,-11.1036 -2.89725,-2.58071 -7.81064,-1.7941 -10.9736,1.75748 -3.16418,3.5504 -3.37914,8.52166 -0.483071,11.1024z"/>
  <path class="fil8" d="M707.69 1288.84l-5.74016 40.6122c0,8.31379 6.74056,15.0555 15.0543,15.0555 8.31379,0 15.0555,-6.74174 15.0555,-15.0555l-5.74016 -40.6122 5.74016 -40.6122c0,-8.31379 -6.74174,-15.0555 -15.0555,-15.0555 -8.31379,0 -15.0543,6.74174 -15.0543,15.0555l5.74016 40.6122z"/>
  <path class="fil8" d="M756.158 1249.98l32.5878 24.9059c7.24607,4.07481 16.4268,1.50236 20.5016,-5.74489 4.07363,-7.24725 1.50118,-16.428 -5.74607,-20.5016l-38.2134 -14.8996 -32.589 -24.9071c-7.24725,-4.07363 -16.4268,-1.50118 -20.5016,5.74607 -4.07363,7.24725 -1.50118,16.4268 5.74489,20.5016l38.2158 14.8996z"/>
  <path class="fil8" d="M677.852 1251.59l-32.589 24.9059c-7.24607,4.07481 -16.4268,1.50118 -20.5004,-5.74489 -4.07481,-7.24725 -1.50236,-16.428 5.74489,-20.5016l38.2134 -14.8996 32.589 -24.9071c7.24725,-4.07363 16.4268,-1.50118 20.5016,5.74607 4.07481,7.24607 1.50118,16.4268 -5.74489,20.5016l-38.2146 14.8996z"/>
  <path class="fil8" d="M736.719 495.613c0,-10.8874 -8.82757,-19.715 -19.715,-19.715 -10.8874,0 -19.7138,8.82757 -19.7138,19.715l0 742.084c0,10.8874 8.82638,19.7138 19.7138,19.7138 10.8874,0 19.715,-8.82638 19.715,-19.7138l0 -742.084z"/>
  <path class="fil8" d="M715.767 465.74c-10.8874,0 -19.7138,8.82638 -19.7138,19.7138 0,10.8874 8.82638,19.715 19.7138,19.715l110.426 0c18.9673,0 36.2256,7.77402 48.75,20.2973 12.5232,12.5232 20.2973,29.7815 20.2973,48.75 0,10.8874 8.82757,19.7138 19.715,19.7138 10.8874,0 19.7138,-8.82638 19.7138,-19.7138 0,-29.8512 -12.1984,-56.9752 -31.8496,-76.6264 -19.6512,-19.6512 -46.7752,-31.8496 -76.6264,-31.8496l-110.426 0z"/>
  <path class="fil13" d="M606.29 1220.16c14.5736,0 27.7701,5.91024 37.324,15.463 9.55158,9.55276 15.463,22.7504 15.463,37.324 0,14.5736 -5.91142,27.7701 -15.463,37.324 -9.55394,9.55158 -22.7504,15.4618 -37.324,15.4618 -14.5736,0 -27.7713,-5.91024 -37.324,-15.4618 -9.55276,-9.55394 -15.463,-22.7504 -15.463,-37.324 0,-14.5736 5.91024,-27.7713 15.463,-37.324 9.55276,-9.55276 22.7504,-15.463 37.324,-15.463z"/>
  <path class="fil14" d="M606.29 1251.5c5.92205,0 11.2854,2.40118 15.1677,6.28347 3.88229,3.88229 6.28465,9.24568 6.28465,15.1689 0,5.92205 -2.40236,11.2854 -6.28465,15.1677 -3.88229,3.88229 -9.24568,6.28465 -15.1677,6.28465 -5.92323,0 -11.2866,-2.40236 -15.1689,-6.28465 -3.88229,-3.88229 -6.28347,-9.24568 -6.28347,-15.1677 0,-5.92323 2.40118,-11.2866 6.28347,-15.1689 3.88229,-3.88229 9.24568,-6.28347 15.1689,-6.28347z"/>
  <path class="fil13" d="M830.52 1220.16c14.5736,0 27.7701,5.91024 37.324,15.463 9.55158,9.55276 15.4618,22.7504 15.4618,37.324 0,14.5736 -5.91024,27.7701 -15.4618,37.324 -9.55394,9.55158 -22.7504,15.4618 -37.324,15.4618 -14.5736,0 -27.7713,-5.91024 -37.324,-15.4618 -9.55276,-9.55394 -15.463,-22.7504 -15.463,-37.324 0,-14.5736 5.91024,-27.7713 15.463,-37.324 9.55276,-9.55276 22.7504,-15.463 37.324,-15.463z"/>
  <path class="fil13" d="M716.141 1330.51c13.3004,0 25.3453,3.5067 34.0654,9.17599 8.71772,5.6693 14.1118,13.5012 14.1118,22.148 0,8.64804 -5.3941,16.4799 -14.1118,22.1492 -8.72009,5.66811 -20.765,9.17599 -34.0654,9.17599 -13.3004,0 -25.3453,-3.50788 -34.0642,-9.17599 -8.71772,-5.6693 -14.1118,-13.5012 -14.1118,-22.1492 0,-8.64686 5.3941,-16.4788 14.1118,-22.148 8.7189,-5.6693 20.7638,-9.17599 34.0642,-9.17599z"/>
  <path class="fil13" d="M916.857 705.95l-89.5619 0c-10.8874,0 -19.715,-8.82638 -19.715,-19.7138 0,-30.1736 12.2327,-57.4914 32.0091,-77.2678 19.7752,-19.7752 47.0941,-32.0067 77.2678,-32.0067 30.1725,0 57.4914,12.2327 77.2666,32.0067 19.7752,19.7752 32.0079,47.0941 32.0079,77.2678 0,10.8874 -8.82638,19.7138 -19.7138,19.7138l-89.5607 0z"/>
  <path class="fil15" d="M916.857 705.95l-89.5619 0c-10.8874,0 -19.715,-8.82638 -19.715,-19.7138 0,-4.01575 0.219685,-7.98071 0.641339,-11.8843l217.269 0c0.422835,3.90355 0.641339,7.86851 0.641339,11.8843 0,10.8874 -8.82638,19.7138 -19.7138,19.7138l-89.5607 0z"/>
  <path class="fil14" d="M830.52 1251.5c5.92205,0 11.2854,2.40118 15.1677,6.28347 3.88229,3.88229 6.28465,9.24568 6.28465,15.1689 0,5.92205 -2.40236,11.2854 -6.28465,15.1677 -3.88229,3.88229 -9.24568,6.28465 -15.1677,6.28465 -5.92323,0 -11.2866,-2.40236 -15.1689,-6.28465 -3.88229,-3.88229 -6.28347,-9.24568 -6.28347,-15.1677 0,-5.92323 2.40118,-11.2866 6.28347,-15.1689 3.88229,-3.88229 9.24568,-6.28347 15.1689,-6.28347z"/>
  <path class="fil14" d="M716.614 1309.83c8.863,0 16.8886,2.97992 22.6996,7.79646 5.80867,4.81772 9.40394,11.4721 9.40394,18.8209 0,7.34882 -3.59528,14.0032 -9.40394,18.8209 -5.81103,4.81654 -13.8366,7.79764 -22.6996,7.79764 -8.863,0 -16.8898,-2.9811 -22.6996,-7.79764 -5.80985,-4.81772 -9.40394,-11.4721 -9.40394,-18.8209 0,-7.34882 3.5941,-14.0032 9.40394,-18.8209 5.80985,-4.81654 13.8366,-7.79646 22.6996,-7.79646z"/>
  <polygon class="fil16" points="1449.24,559.639 1468.23,578.116 1244,789.662 "/>
  <polygon class="fil16" points="1183.93,803.568 1174.95,794.827 1281.02,694.758 "/>
  <path class="fil17" d="M1304.9 1072.17c0.264567,7.48465 5.88189,8.28898 13.3665,8.02442 7.48465,-0.263386 14.002,-1.49764 13.7374,-8.98111l-1.31929 -68.191c6.79961,-8.62087 36.2067,-54.2374 43.3961,-48.1028 6.6626,5.68465 13.5378,15.4819 18.489,23.0729 4.07953,6.27993 12.4784,8.06457 18.7595,3.98504 6.28111,-4.07953 8.06457,-12.4784 3.98504,-18.7595 -5.96339,-9.1441 -14.4307,-21.104 -23.5902,-28.9181 -13.9807,-11.9291 -28.9311,-15.8752 -41.987,0.679134l-43.0477 54.5859c-2.20158,2.52284 -3.48307,5.85709 -3.3437,9.46772l1.55433 73.1375zm105.892 -102.728c2.01614,1.79764 1.86614,5.25709 -0.336614,7.72914 -2.20158,2.47205 -5.62205,3.02008 -7.63938,1.22362 -2.01614,-1.79646 -1.86614,-5.25709 0.336614,-7.72914 2.20158,-2.47205 5.62205,-3.02008 7.63938,-1.22362z"/>
 </g>
</svg>
