<?xml version="1.0" encoding="UTF-8"?>
<!DOCTYPE svg PUBLIC "-//W3C//DTD SVG 1.1//EN" "http://www.w3.org/Graphics/SVG/1.1/DTD/svg11.dtd">
<!-- Creator: CorelDRAW -->
<svg xmlns="http://www.w3.org/2000/svg" xml:space="preserve" width="2048px" height="2048px" style="shape-rendering:geometricPrecision; text-rendering:geometricPrecision; image-rendering:optimizeQuality; fill-rule:evenodd; clip-rule:evenodd"
viewBox="0 0 2048 2048"
 xmlns:xlink="http://www.w3.org/1999/xlink">
 <defs>
  <style type="text/css">
   <![CDATA[
    .fil2 {fill:none}
    .fil1 {fill:#00ACC1}
    .fil0 {fill:#4DD0E1}
    .fil8 {fill:#4F1F1F}
    .fil5 {fill:#C30303}
    .fil9 {fill:#DC2423}
    .fil7 {fill:#F9A825}
    .fil3 {fill:#6D4C41;fill-rule:nonzero}
    .fil4 {fill:#DD2424;fill-rule:nonzero}
    .fil6 {fill:#F9A825;fill-rule:nonzero}
    .fil10 {fill:#FAFAFA;fill-rule:nonzero}
   ]]>
  </style>
   <clipPath id="id0">
    <path d="M1024 -0.0011811c565.539,0 1024,458.462 1024,1024 0,565.539 -458.462,1024 -1024,1024 -565.539,0 -1024,-458.462 -1024,-1024 0,-565.539 458.462,-1024 1024,-1024z"/>
   </clipPath>
 </defs>
 <g id="Layer_x0020_1">
  <metadata id="CorelCorpID_0Corel-Layer"/>
  <path class="fil0" d="M1024 -0.0011811c565.539,0 1024,458.462 1024,1024 0,565.539 -458.462,1024 -1024,1024 -565.539,0 -1024,-458.462 -1024,-1024 0,-565.539 458.462,-1024 1024,-1024z"/>
  <g style="clip-path:url(#id0)">
   <g id="_451248272">
    <g>
     <polygon id="_3342731441" class="fil1" points="1441.08,655.29 2576.96,1791.17 2585.53,1801.3 2593.87,1811.64 2601.96,1822.18 2609.8,1832.91 2617.39,1843.84 2624.72,1854.95 2631.79,1866.24 2638.59,1877.72 2645.12,1889.36 2651.37,1901.18 2657.35,1913.16 2663.04,1925.3 2668.44,1937.6 2673.55,1950.05 2678.36,1962.65 2682.87,1975.39 2687.08,1988.27 2690.97,2001.28 2694.55,2014.42 2697.8,2027.69 2700.74,2041.08 2703.34,2054.58 2705.61,2068.2 2707.55,2081.92 2709.14,2095.75 2710.39,2109.68 2711.28,2123.7 2711.82,2137.81 2712.01,2152 1576.12,1016.12 1575.94,1001.93 1575.4,987.817 1574.51,973.796 1573.26,959.871 1571.67,946.042 1569.73,932.319 1567.46,918.702 1564.86,905.198 1561.92,891.809 1558.67,878.541 1555.09,865.399 1551.2,852.386 1546.99,839.507 1542.48,826.768 1537.67,814.17 1532.56,801.72 1527.16,789.422 1521.47,777.279 1515.49,765.298 1509.24,753.481 1502.71,741.834 1495.91,730.361 1488.84,719.066 1481.51,707.954 1473.92,697.029 1466.08,686.297 1457.99,675.759 1449.65,665.422 "/>
     <polygon id="_334273000" class="fil1" points="1576.12,1016.12 2712.01,2152 2712.01,2545.45 1576.12,1409.56 "/>
     <polygon id="_334273288" class="fil1" points="1576.12,1409.56 2712.01,2545.45 2711.88,2547.85 2711.53,2550.18 2710.95,2552.42 2710.16,2554.58 2709.17,2556.63 2708,2558.57 2706.65,2560.37 2705.13,2562.04 2703.47,2563.55 2701.66,2564.9 2699.73,2566.08 2697.67,2567.07 2695.52,2567.86 2693.27,2568.43 2690.94,2568.79 2688.54,2568.91 1552.66,1433.03 1555.06,1432.91 1557.39,1432.55 1559.64,1431.97 1561.79,1431.19 1563.84,1430.2 1565.78,1429.02 1567.59,1427.67 1569.25,1426.16 1570.77,1424.49 1572.12,1422.68 1573.29,1420.75 1574.28,1418.7 1575.07,1416.54 1575.65,1414.29 1576,1411.96 "/>
     <polygon id="_334274032" class="fil1" points="1552.66,1433.03 2688.54,2568.91 2459.78,2568.91 1323.89,1433.03 "/>
     <polygon id="_334274536" class="fil1" points="1323.89,1433.03 2459.78,2568.91 2459.78,2696.1 1323.89,1560.22 "/>
     <polygon id="_334274416" class="fil1" points="1175.91,1433.03 2311.79,2568.91 2007.97,2568.91 872.089,1433.03 "/>
     <polygon id="_334274704" class="fil1" points="1249.9,1584 2385.78,2719.88 2381.98,2719.85 2378.22,2719.76 2374.52,2719.61 2370.87,2719.4 2367.29,2719.13 2363.78,2718.81 2360.34,2718.44 2356.98,2718.02 2353.71,2717.54 2350.52,2717.01 2347.42,2716.44 2344.42,2715.82 2341.51,2715.16 2338.72,2714.45 2336.03,2713.71 2333.46,2712.92 2331.01,2712.09 2328.69,2711.23 2326.49,2710.33 2324.43,2709.4 2322.5,2708.43 2320.72,2707.44 2319.09,2706.41 2317.61,2705.36 2316.28,2704.28 1180.4,1568.4 1181.73,1569.48 1183.21,1570.53 1184.84,1571.56 1186.62,1572.55 1188.55,1573.52 1190.61,1574.45 1192.81,1575.35 1195.13,1576.21 1197.58,1577.04 1200.15,1577.82 1202.84,1578.57 1205.63,1579.28 1208.53,1579.94 1211.54,1580.56 1214.63,1581.13 1217.82,1581.66 1221.1,1582.13 1224.46,1582.56 1227.9,1582.93 1231.41,1583.25 1234.99,1583.52 1238.63,1583.73 1242.34,1583.88 1246.09,1583.97 "/>
     <polygon id="_334274512" class="fil1" points="1323.89,1560.22 2459.78,2696.1 2459.68,2697.33 2459.39,2698.53 2458.92,2699.72 2458.27,2700.9 2457.45,2702.05 2456.45,2703.17 2455.28,2704.28 2453.96,2705.36 2452.48,2706.41 2450.84,2707.44 2449.06,2708.43 2447.14,2709.4 2445.08,2710.33 2442.88,2711.23 2440.55,2712.09 2438.1,2712.92 2435.53,2713.71 2432.85,2714.45 2430.05,2715.16 2427.15,2715.82 2424.15,2716.44 2421.05,2717.01 2417.86,2717.54 2414.58,2718.02 2411.22,2718.44 2407.79,2718.81 2404.28,2719.13 2400.7,2719.4 2397.05,2719.61 2393.35,2719.76 2389.59,2719.85 2385.78,2719.88 1249.9,1584 1253.71,1583.97 1257.47,1583.88 1261.17,1583.73 1264.81,1583.52 1268.39,1583.25 1271.9,1582.93 1275.34,1582.56 1278.7,1582.13 1281.98,1581.66 1285.17,1581.13 1288.27,1580.56 1291.27,1579.94 1294.17,1579.28 1296.97,1578.57 1299.65,1577.82 1302.22,1577.04 1304.67,1576.21 1307,1575.35 1309.19,1574.45 1311.26,1573.52 1313.18,1572.55 1314.96,1571.56 1316.6,1570.53 1318.08,1569.48 1319.4,1568.4 1320.57,1567.29 1321.56,1566.16 1322.39,1565.01 1323.04,1563.84 1323.51,1562.65 1323.8,1561.44 "/>
     <polygon id="_334274440" class="fil1" points="872.089,1433.03 2007.97,2568.91 2007.97,2696.1 872.089,1560.22 "/>
     <polygon id="_334274152" class="fil1" points="724.106,1433.03 1859.99,2568.91 1631.22,2568.91 495.341,1433.03 "/>
     <polygon id="_334274656" class="fil1" points="798.097,1584 1933.98,2719.88 1930.17,2719.85 1926.41,2719.76 1922.71,2719.61 1919.07,2719.4 1915.49,2719.13 1911.98,2718.81 1908.54,2718.44 1905.18,2718.02 1901.9,2717.54 1898.71,2717.01 1895.61,2716.44 1892.61,2715.82 1889.71,2715.16 1886.91,2714.45 1884.23,2713.71 1881.66,2712.92 1879.21,2712.09 1876.88,2711.23 1874.69,2710.33 1872.62,2709.4 1870.7,2708.43 1868.92,2707.44 1867.28,2706.41 1865.8,2705.36 1864.48,2704.28 728.597,1568.4 729.921,1569.48 731.403,1570.53 733.036,1571.56 734.819,1572.55 736.743,1573.52 738.806,1574.45 741.003,1575.35 743.329,1576.21 745.778,1577.04 748.348,1577.82 751.033,1578.57 753.829,1579.28 756.729,1579.94 759.731,1580.56 762.83,1581.13 766.02,1581.66 769.297,1582.13 772.658,1582.56 776.096,1582.93 779.606,1583.25 783.186,1583.52 786.83,1583.73 790.532,1583.88 794.29,1583.97 "/>
     <polygon id="_334274608" class="fil1" points="872.089,1560.22 2007.97,2696.1 2007.87,2697.33 2007.59,2698.53 2007.12,2699.72 2006.47,2700.9 2005.64,2702.05 2004.64,2703.17 2003.48,2704.28 2002.16,2705.36 2000.67,2706.41 1999.04,2707.44 1997.26,2708.43 1995.33,2709.4 1993.27,2710.33 1991.07,2711.23 1988.75,2712.09 1986.3,2712.92 1983.73,2713.71 1981.04,2714.45 1978.25,2715.16 1975.35,2715.82 1972.35,2716.44 1969.25,2717.01 1966.06,2717.54 1962.78,2718.02 1959.42,2718.44 1955.98,2718.81 1952.47,2719.13 1948.89,2719.4 1945.25,2719.61 1941.54,2719.76 1937.79,2719.85 1933.98,2719.88 798.097,1584 801.905,1583.97 805.662,1583.88 809.365,1583.73 813.009,1583.52 816.589,1583.25 820.099,1582.93 823.537,1582.56 826.897,1582.13 830.175,1581.66 833.365,1581.13 836.464,1580.56 839.466,1579.94 842.366,1579.28 845.162,1578.57 847.847,1577.82 850.417,1577.04 852.866,1576.21 855.192,1575.35 857.389,1574.45 859.452,1573.52 861.376,1572.55 863.159,1571.56 864.792,1570.53 866.274,1569.48 867.598,1568.4 868.762,1567.29 869.76,1566.16 870.585,1565.01 871.236,1563.84 871.707,1562.65 871.992,1561.44 "/>
     <polygon id="_334274272" class="fil1" points="495.341,1433.03 1631.22,2568.91 1628.82,2568.79 1626.49,2568.43 1624.24,2567.86 1622.09,2567.07 1620.04,2566.08 1618.1,2564.9 1616.3,2563.55 480.416,1427.67 482.222,1429.02 484.157,1430.2 486.208,1431.19 488.364,1431.97 490.613,1432.55 492.942,1432.91 "/>
    </g>
    <path id="_451248584" class="fil1" d="M1024 463.999c151.857,0 289.895,62.1071 389.955,162.168 100.06,100.06 162.168,238.097 162.168,389.955l0 393.442c0,12.9591 -10.5059,23.465 -23.4638,23.465l-228.767 0 0 127.192c0,13.1327 -33.1288,23.7803 -73.9914,23.7803 -40.8626,0 -73.9914,-10.6476 -73.9914,-23.7803l0 -127.192 -303.822 0 0 127.192c0,13.1327 -33.1288,23.7803 -73.9914,23.7803 -40.8626,0 -73.9914,-10.6476 -73.9914,-23.7803l0 -127.192 -228.766 0c-12.9579,0 -23.4638,-10.5059 -23.4638,-23.465l0 -393.442c0,-151.858 62.1071,-289.896 162.168,-389.955 100.061,-100.06 238.099,-162.168 389.957,-162.168z"/>
   </g>
  </g>
  <path class="fil2" d="M1024 -0.0011811c565.539,0 1024,458.462 1024,1024 0,565.539 -458.462,1024 -1024,1024 -565.539,0 -1024,-458.462 -1024,-1024 0,-565.539 458.462,-1024 1024,-1024z"/>
  <path class="fil3" d="M872.089 1415.78c0,-13.1327 -33.1288,-23.7803 -73.9914,-23.7803 -40.8626,0 -73.9902,10.6476 -73.9902,23.7803l0 144.442c0,13.1327 33.1276,23.7803 73.9902,23.7803 40.8626,0 73.9914,-10.6476 73.9914,-23.7803l0 -144.442z"/>
  <path class="fil3" d="M1323.89 1415.78c0,-13.1327 -33.1276,-23.7803 -73.9902,-23.7803 -40.8626,0 -73.9914,10.6476 -73.9914,23.7803l0 144.442c0,13.1327 33.1288,23.7803 73.9914,23.7803 40.8626,0 73.9902,-10.6476 73.9902,-23.7803l0 -144.442z"/>
  <path class="fil4" d="M1024 463.999c151.857,0 289.895,62.1071 389.955,162.168 100.06,100.06 162.168,238.097 162.168,389.955l0 393.442c0,12.9591 -10.5059,23.465 -23.4638,23.465l-1057.32 0c-12.9579,0 -23.4638,-10.5059 -23.4638,-23.465l0 -393.442c0,-151.858 62.1071,-289.896 162.168,-389.955 100.061,-100.06 238.099,-162.168 389.957,-162.168z"/>
  <path class="fil5" d="M518.542 1432.85l1010.92 0 0 -416.725c0,-134.43 -53.5335,-261.992 -148.499,-356.958 -94.9654,-94.9654 -222.529,-148.499 -356.958,-148.499 -134.43,0 -261.994,53.5347 -356.959,148.499 -94.9654,94.9654 -148.5,222.528 -148.5,356.958l0 416.725z"/>
  <path class="fil6" d="M736.149 1070.45l575.703 0c8.81694,0 15.965,7.14686 15.965,15.9638l0 207.53c0,8.81575 -7.14804,15.9638 -15.965,15.9638l-575.703 0c-8.81694,0 -15.965,-7.14804 -15.965,-15.9638l0 -207.53c0,-8.81694 7.14804,-15.9638 15.965,-15.9638zm559.739 31.9276l-543.775 0 0 175.602 543.775 0 0 -175.602z"/>
  <polygon class="fil7" points="1275.09,1100.48 772.913,1100.48 1024,1215.68 "/>
  <path class="fil7" d="M1019.99 1231.72l-273.771 -125.617 0 173.779 555.57 0 0 -173.78 -274.396 125.906 0.011811 0.0259843c-2.47087,1.13386 -5.21339,0.928347 -7.41379,-0.312992z"/>
  <path class="fil8" d="M686.304 876.957l675.393 0 0 41.928c0,21.0555 -17.2252,38.2807 -38.2819,38.2807l-597.005 0c-22.0595,0 -40.1055,-18.0461 -40.1055,-40.1044l0 -40.1044z"/>
  <rect class="fil9" x="637.085" y="866.02" width="773.828" height="30.0782"/>
  <path class="fil10" d="M918.719 658.443c-10.539,0 -21.0768,0 -31.5862,0 0,22.7669 0,45.5351 0,68.289 0,22.7528 0,45.5209 0,68.2737 7.14804,0 14.2973,0 21.4465,0 0,-8.54764 0,-17.0965 0,-25.6441 0,-8.54883 0,-17.0965 0,-25.6595 3.36024,0 6.75001,0 10.1398,0 10.7374,-0.0425197 18.7406,-2.93268 24.0673,-8.6882 5.29725,-5.75434 7.91812,-14.1071 7.91812,-25.0725 0,-5.90788 0,-11.8311 0,-17.7532 0,-10.95 -2.62087,-19.3028 -7.91812,-25.0583 -5.32678,-5.75434 -13.3299,-8.64568 -24.0673,-8.68701zm0 19.5118c2.27835,-0.0271654 4.18701,0.349607 5.75315,1.17402 1.59449,0.78189 2.77441,2.13189 3.58819,4.02284 0.809056,1.88032 1.19646,4.45512 1.19646,7.6819 0,6.83032 0,13.6606 0,20.478 0,3.22559 -0.38504,5.78859 -1.19646,7.68071 -0.811418,1.89213 -1.9937,3.21378 -3.58819,4.02402 -1.56614,0.810237 -3.47481,1.20118 -5.75315,1.17284 -3.38977,0 -6.77953,0 -10.1398,0 0,-7.69607 0,-15.4063 0,-23.1024 0,-7.69725 0,-15.4205 0,-23.1319 3.36024,0 6.75001,0 10.1398,0zm62.6315 11.9008c0.0283465,-4.84607 1.0252,-8.29725 2.99055,-10.4055 1.96536,-2.0811 4.67126,-3.12874 8.11654,-3.05906 3.44646,-0.0696851 6.15355,0.977954 8.14725,3.05906 1.93583,2.10827 2.93268,5.55945 2.98937,10.4055 0,12.2929 0,24.5977 0,36.8764 0,12.2764 0,24.5823 0,36.8611 -0.056693,4.84607 -1.05354,8.29725 -2.98937,10.4055 -1.9937,2.0811 -4.70079,3.12874 -8.14725,3.05906 -3.44528,0.0696851 -6.15119,-0.977954 -8.11654,-3.05906 -1.96536,-2.10827 -2.96221,-5.55945 -2.99055,-10.4055 0,-12.2787 0,-24.5847 0,-36.8611 0,-12.2787 0,-24.5835 0,-36.8764zm-21.476 72.3686c0,7.31812 1.27913,13.4941 3.7878,18.6047 2.50394,5.1 6.12402,9.00946 10.9949,11.7047 4.84252,2.66811 10.7941,3.99449 17.8004,4.02284 7.03583,-0.0283465 12.9886,-1.35473 17.8311,-4.02284 4.84134,-2.69528 8.50158,-6.60001 10.9937,-11.7047 2.49095,-5.10473 3.75945,-11.2866 3.75945,-18.6047 0,-11.8311 0,-23.6622 0,-35.4922 0,-11.8311 0,-23.6622 0,-35.5063 0,-7.3193 -1.27323,-13.5402 -3.75945,-18.6343 -2.49803,-5.11536 -6.15237,-8.98111 -10.9937,-11.6764 -4.84252,-2.66811 -10.7953,-3.99449 -17.8311,-4.03701 -7.0063,0.0425197 -12.9579,1.3689 -17.8004,4.03701 -4.87087,2.69528 -8.48505,6.56575 -10.9949,11.6764 -2.50276,5.1 -3.7878,11.315 -3.7878,18.6343 0,11.8441 0,23.6752 0,35.5063 0,11.8299 0,23.661 0,35.4922zm76.2745 -70.9985c0.0578741,5.55827 0.826772,10.4894 2.30788,14.8193 1.5378,4.32992 3.5315,8.22638 6.0378,11.6764 2.44961,3.43701 5.18386,6.63544 8.17442,9.52678 2.96221,2.89134 5.95276,5.68465 8.91497,8.35276 2.99055,2.66811 5.72481,5.39174 8.20276,8.19922 2.5063,2.75197 4.47166,5.78268 6.00945,8.99528 1.4811,3.22677 2.27835,6.80197 2.30788,10.7976 0,3.22559 -0.455906,5.82402 -1.36772,7.77993 -0.911812,1.94055 -2.16496,3.3378 -3.84449,4.21772 -1.65236,0.851575 -3.64607,1.29921 -5.89607,1.27087 -2.27953,0.0283465 -4.27323,-0.390945 -5.92441,-1.27087 -1.65118,-0.879922 -2.93386,-2.27717 -3.84567,-4.21772 -0.910631,-1.95591 -1.36654,-4.52599 -1.36654,-7.77993 0,-3.24095 0,-6.49607 0,-9.75001 -6.77835,0 -13.5295,0 -20.2795,0 0,2.79331 0,5.58662 0,8.38111 0,7.31812 1.20591,13.4882 3.61772,18.6047 2.40118,5.0941 5.98111,9.00946 10.7091,11.7047 4.7563,2.66811 10.6524,3.99449 17.6587,4.02284 7.03465,-0.0283465 12.9024,-1.35473 17.6587,-4.02284 4.75748,-2.69528 8.31733,-6.60591 10.7374,-11.7047 2.39292,-5.113 3.58937,-11.2866 3.58937,-18.6047 -0.0283465,-5.55945 -0.798426,-10.4906 -2.30669,-14.8205 -1.51063,-4.32992 -3.50433,-8.22638 -6.01063,-11.6764 -2.47795,-3.43701 -5.18386,-6.63544 -8.20276,-9.52678 -2.93268,-2.89134 -5.92323,-5.68465 -8.88544,-8.35276 -2.99173,-2.66811 -5.72481,-5.39174 -8.20394,-8.19922 -2.50512,-2.75197 -4.47166,-5.78268 -6.00945,-8.99528 -1.50945,-3.22677 -2.27835,-6.83032 -2.30669,-10.7976 0.0283465,-4.84607 0.940158,-8.29725 2.79095,-10.4055 1.85197,-2.0811 4.5,-3.12874 7.94646,-3.05906 3.44646,-0.0696851 6.06733,0.977954 7.91812,3.05906 1.85197,2.10827 2.7626,5.55945 2.79095,10.4055 0,1.88622 0,3.77244 0,5.65748 6.75119,0 13.5295,0 20.3079,0 0,-1.42441 0,-2.85 0,-4.2874 0,-7.3193 -1.2248,-13.5354 -3.55985,-18.6343 -2.36457,-5.11181 -5.92441,-8.98111 -10.5957,-11.6764 -4.67008,-2.66811 -10.5095,-3.99449 -17.4591,-4.03701 -6.94961,0.0425197 -12.7878,1.3689 -17.4591,4.03701 -4.67126,2.69528 -8.23111,6.56457 -10.5957,11.6764 -2.33622,5.09882 -3.56103,11.315 -3.56103,18.6343 0,0 0,0 0,0zm69.4678 -13.2709c7.46221,0 14.9244,0 22.4162,0 0,19.5142 0,39.0402 0,58.5402 0,19.4988 0,39.0118 0,58.5107 7.14804,0 14.2973,0 21.4748,0 0,-19.4988 0,-39.0118 0,-58.5107 0,-19.5 0,-39.026 0,-58.5402 7.46221,0 14.9528,0 22.4445,0 0,-6.49489 0,-13.0039 0,-19.5118 -22.1315,0 -44.2335,0 -66.3355,0 0,6.50788 0,13.0169 0,19.5118z"/>
 </g>
</svg>
