<?xml version="1.0" encoding="UTF-8"?>
<!DOCTYPE svg PUBLIC "-//W3C//DTD SVG 1.1//EN" "http://www.w3.org/Graphics/SVG/1.1/DTD/svg11.dtd">
<!-- Creator: CorelDRAW -->
<svg xmlns="http://www.w3.org/2000/svg" xml:space="preserve" width="2048px" height="2048px" style="shape-rendering:geometricPrecision; text-rendering:geometricPrecision; image-rendering:optimizeQuality; fill-rule:evenodd; clip-rule:evenodd"
viewBox="0 0 2048 2048"
 xmlns:xlink="http://www.w3.org/1999/xlink">
 <defs>
  <style type="text/css">
   <![CDATA[
    .fil2 {fill:none}
    .fil1 {fill:#00695C}
    .fil0 {fill:#00897B}
    .fil17 {fill:#382320}
    .fil24 {fill:#3B3B3B}
    .fil18 {fill:#546E7A}
    .fil10 {fill:#55979A}
    .fil26 {fill:#82ACB2}
    .fil3 {fill:#8E836A}
    .fil16 {fill:#9C846B}
    .fil6 {fill:#9EABB1}
    .fil15 {fill:#A29B8C}
    .fil12 {fill:#AA9F8A}
    .fil25 {fill:#B2EBF2}
    .fil8 {fill:#C0B5A1}
    .fil9 {fill:#D0C9B4}
    .fil23 {fill:#ECEFF1}
    .fil19 {fill:#37474F;fill-rule:nonzero}
    .fil13 {fill:#55979A;fill-rule:nonzero}
    .fil7 {fill:#AA9F8A;fill-rule:nonzero}
    .fil4 {fill:#C0B5A1;fill-rule:nonzero}
    .fil5 {fill:#D0C9B4;fill-rule:nonzero}
    .fil22 {fill:#DB8907;fill-rule:nonzero}
    .fil14 {fill:#ECEFF1;fill-rule:nonzero}
    .fil21 {fill:#FFA000;fill-rule:nonzero}
    .fil20 {fill:#FFB300;fill-rule:nonzero}
    .fil11 {fill:white;fill-rule:nonzero}
   ]]>
  </style>
   <clipPath id="id0">
    <path d="M1024 -0.0011811c565.539,0 1024,458.462 1024,1024 0,565.539 -458.462,1024 -1024,1024 -565.539,0 -1024,-458.462 -1024,-1024 0,-565.539 458.462,-1024 1024,-1024z"/>
   </clipPath>
 </defs>
 <g id="Layer_x0020_1">
  <metadata id="CorelCorpID_0Corel-Layer"/>
  <path class="fil0" d="M1024 -0.0011811c565.539,0 1024,458.462 1024,1024 0,565.539 -458.462,1024 -1024,1024 -565.539,0 -1024,-458.462 -1024,-1024 0,-565.539 458.462,-1024 1024,-1024z"/>
  <g style="clip-path:url(#id0)">
   <g id="_451246328">
    <g>
     <polygon id="_4533648721" class="fil1" points="1568.77,1055.97 2704.65,2191.85 2705.41,2192.87 2706.07,2193.95 2706.62,2195.1 2707.06,2196.31 2707.39,2197.57 2707.59,2198.87 2707.65,2200.22 2707.5,2202.23 2707.06,2204.14 2706.35,2205.94 2705.39,2207.6 2704.21,2209.09 2702.83,2210.39 2701.28,2211.49 2699.57,2212.36 1563.69,1076.48 1565.4,1075.61 1566.95,1074.51 1568.33,1073.21 1569.51,1071.71 1570.47,1070.06 1571.18,1068.26 1571.62,1066.35 1571.77,1064.34 1571.71,1062.99 1571.51,1061.69 1571.18,1060.43 1570.74,1059.22 1570.19,1058.07 1569.53,1056.98 "/>
     <polygon id="_453364680" class="fil1" points="1208.52,722.999 2344.4,1858.88 2324.1,1887.42 1188.21,751.538 "/>
     <polygon id="_453365640" class="fil1" points="1188.21,751.538 2324.1,1887.42 2305.75,1874.34 1169.86,738.455 "/>
     <polygon id="_453365688" class="fil1" points="1169.86,738.455 2305.75,1874.34 2208.71,1874.34 1072.83,738.455 "/>
     <polygon id="_453365568" class="fil1" points="1576.09,1160.23 2711.97,2296.11 2711.97,2340.28 1576.09,1204.4 "/>
     <polygon id="_453365304" class="fil1" points="1576.09,1204.4 2711.97,2340.28 2693.14,2340.28 1557.25,1204.4 "/>
     <polygon id="_453365016" class="fil1" points="1557.25,1204.4 2693.14,2340.28 2693.14,2349.66 1557.25,1213.78 "/>
     <polygon id="_453365064" class="fil1" points="1072.83,738.455 2208.71,1874.34 2208.71,2185.53 1072.83,1049.65 "/>
     <polygon id="_453365280" class="fil1" points="1225.33,1201.6 2361.21,2337.48 2306.95,2298.73 1171.06,1162.84 "/>
     <polygon id="_453365472" class="fil1" points="617.339,738.455 1753.22,1874.34 1656.44,1874.34 520.559,738.455 "/>
     <polygon id="_453366168" class="fil1" points="520.559,738.455 1656.44,1874.34 1629.26,1893.71 493.382,757.829 "/>
     <polygon id="_453366504" class="fil1" points="1203.77,1076.38 2339.65,2212.27 2337.98,2211.38 2336.46,2210.28 2335.12,2208.98 1199.24,1073.1 1200.58,1074.4 1202.1,1075.5 "/>
     <polygon id="_453366120" class="fil1" points="1218.35,1055.04 2354.23,2190.92 2355.08,2191.85 2355.83,2192.87 2356.49,2193.95 2357.05,2195.1 2357.49,2196.31 2357.81,2197.57 2358.01,2198.87 2358.08,2200.22 2357.93,2202.2 2357.5,2204.09 2356.81,2205.86 2355.88,2207.5 2354.73,2208.98 2353.39,2210.28 2351.88,2211.38 2350.21,2212.27 1214.33,1076.38 1216,1075.5 1217.51,1074.4 1218.85,1073.1 1220,1071.61 1220.93,1069.98 1221.62,1068.2 1222.05,1066.32 1222.2,1064.34 1222.13,1062.99 1221.93,1061.69 1221.61,1060.43 1221.16,1059.22 1220.61,1058.07 1219.95,1056.98 1219.2,1055.97 "/>
     <polygon id="_453366360" class="fil1" points="1171.06,1162.84 2306.95,2298.73 2275.1,2298.73 1139.22,1162.84 "/>
     <polygon id="_453366456" class="fil1" points="1139.22,1162.84 2275.1,2298.73 2275.1,2704.15 1139.22,1568.27 "/>
     <polygon id="_453366000" class="fil1" points="1425.84,1459.26 2561.72,2595.14 2459.37,2595.14 1323.49,1459.26 "/>
     <polygon id="_453366048" class="fil1" points="1151.65,1568.27 2287.53,2704.15 2287.53,2719.88 1151.65,1584 "/>
     <polygon id="_453366072" class="fil1" points="1151.65,1584 2287.53,2719.88 2191.63,2719.88 1055.75,1584 "/>
     <polygon id="_453365856" class="fil1" points="550.95,1162.84 1686.83,2298.73 1663.27,2298.73 527.387,1162.84 "/>
     <polygon id="_453365928" class="fil1" points="482.594,1162.84 1618.48,2298.73 1607.79,2298.73 471.913,1162.84 "/>
     <polygon id="_453367152" class="fil1" points="527.387,1162.84 1663.27,2298.73 1633.55,2319.91 497.668,1184.03 "/>
     <polygon id="_453367296" class="fil1" points="1055.75,1584 2191.63,2719.88 2030.61,2719.88 894.729,1584 "/>
     <polygon id="_453366888" class="fil1" points="894.729,1584 2030.61,2719.88 1674.39,2719.88 538.513,1584 "/>
     <polygon id="_453366696" class="fil1" points="1406.96,1401.04 2542.84,2536.92 2561.72,2595.14 1425.84,1459.26 "/>
     <polygon id="_453366768" class="fil1" points="1220.66,1080.61 2356.54,2216.5 2357.31,2217.33 1221.43,1081.45 "/>
     <polygon id="_453366936" class="fil1" points="1569.75,1080.59 2705.63,2216.47 2706.65,2217.61 2707.6,2218.84 2708.47,2220.16 2709.25,2221.55 2709.94,2223.02 2710.54,2224.56 2711.04,2226.17 2711.44,2227.83 2711.73,2229.54 2711.91,2231.3 2711.97,2233.1 1576.09,1097.22 1576.03,1095.42 1575.85,1093.66 1575.56,1091.95 1575.16,1090.28 1574.66,1088.68 1574.06,1087.14 1573.37,1085.67 1572.58,1084.27 1571.72,1082.96 1570.77,1081.73 "/>
     <polygon id="_453366984" class="fil1" points="1553.14,1076.29 2689.02,2212.17 2687.39,2211.28 2685.91,2210.17 2684.61,2208.87 1548.72,1072.99 1550.03,1074.29 1551.51,1075.4 "/>
     <polygon id="_453367032" class="fil1" points="1576.09,1159.15 2711.97,2295.03 2711.97,2296.11 1576.09,1160.23 "/>
     <polygon id="_453367104" class="fil1" points="1557.25,1213.78 2693.14,2349.66 2691.85,2350.16 2690.6,2350.71 2689.37,2351.3 2688.18,2351.94 2687.02,2352.62 2685.89,2353.34 2684.8,2354.11 2683.74,2354.91 2682.73,2355.76 2681.75,2356.64 2680.82,2357.56 2679.92,2358.51 2679.07,2359.5 2678.27,2360.52 2677.51,2361.57 2676.79,2362.65 1540.91,1226.76 1541.62,1225.68 1542.38,1224.63 1543.19,1223.61 1544.04,1222.63 1544.93,1221.67 1545.87,1220.76 1546.85,1219.88 1547.86,1219.03 1548.92,1218.23 1550.01,1217.46 1551.14,1216.74 1552.3,1216.06 1553.49,1215.42 1554.72,1214.83 1555.97,1214.28 "/>
     <polygon id="_453367272" class="fil1" points="1496.27,1204.4 2632.15,2340.28 2363.87,2340.28 1227.99,1204.4 "/>
     <polygon id="_453367896" class="fil1" points="1508.58,1221.67 2644.46,2357.55 2643.53,2356.64 2642.55,2355.76 2641.54,2354.91 2640.48,2354.11 2639.39,2353.34 2638.26,2352.62 2637.1,2351.94 2635.91,2351.3 2634.68,2350.71 2633.43,2350.16 2632.15,2349.66 1496.27,1213.78 1497.55,1214.28 1498.8,1214.83 1500.03,1215.42 1501.22,1216.06 1502.38,1216.74 1503.51,1217.46 1504.6,1218.23 1505.65,1219.03 1506.67,1219.87 1507.65,1220.76 "/>
     <polygon id="_453367344" class="fil1" points="1455.65,1470.58 2591.54,2606.46 2591.54,2657.79 1455.65,1521.9 "/>
     <polygon id="_453367872" class="fil1" points="1576.09,1097.22 2711.97,2233.1 2711.97,2295.03 1576.09,1159.15 "/>
     <polygon id="_453368064" class="fil1" points="1452.34,1462.58 2588.22,2598.46 2589.18,2599.55 2589.99,2600.75 2590.65,2602.06 2591.13,2603.45 2591.43,2604.92 2591.54,2606.46 1455.65,1470.58 1455.55,1469.04 1455.25,1467.57 1454.77,1466.17 1454.11,1464.87 1453.3,1463.67 "/>
     <polygon id="_453367728" class="fil1" points="1540.91,1580.93 2676.79,2716.81 2676.77,2717.65 1540.89,1581.77 "/>
     <polygon id="_453367968" class="fil1" points="1323.49,1459.26 2459.37,2595.14 2452.4,2595.14 1316.52,1459.26 "/>
     <polygon id="_453367992" class="fil1" points="1316.52,1459.26 2452.4,2595.14 2436.84,2595.14 1300.96,1459.26 "/>
     <polygon id="_453367488" class="fil1" points="1300.96,1459.26 2436.84,2595.14 2436.69,2595.23 1300.81,1459.35 "/>
     <polygon id="_453367536" class="fil1" points="1300.81,1459.35 2436.69,2595.23 2430.14,2595.23 1294.26,1459.35 "/>
     <polygon id="_453367656" class="fil1" points="1294.26,1459.35 2430.14,2595.23 2429.99,2595.14 1294.11,1459.26 "/>
     <polygon id="_453368640" class="fil1" points="1294.11,1459.26 2429.99,2595.14 2414.42,2595.14 1278.54,1459.26 "/>
     <polygon id="_453368304" class="fil1" points="1278.54,1459.26 2414.42,2595.14 2407.46,2595.14 1271.57,1459.26 "/>
     <polygon id="_453368664" class="fil1" points="1271.57,1459.26 2407.46,2595.14 2385.23,2595.14 1249.35,1459.26 "/>
     <polygon id="_453368232" class="fil1" points="1540.91,1226.76 2676.79,2362.65 2676.79,2716.81 1540.91,1580.93 "/>
     <polygon id="_453368736" class="fil1" points="1468.04,1525.22 2603.92,2661.1 2605.3,2662.77 2606.35,2664.7 2607,2666.82 2607.23,2669.1 1471.35,1533.22 1471.12,1530.94 1470.46,1528.81 1469.42,1526.89 "/>
     <polygon id="_453368088" class="fil1" points="1471.35,1533.22 2607.23,2669.1 2607,2671.38 2606.35,2673.5 2605.3,2675.42 2603.92,2677.1 2602.25,2678.48 2600.32,2679.52 2598.2,2680.18 2595.92,2680.41 1460.04,1544.53 1462.32,1544.3 1464.44,1543.64 1466.37,1542.6 1468.04,1541.22 1469.42,1539.54 1470.46,1537.62 1471.12,1535.5 "/>
     <polygon id="_453368808" class="fil1" points="1540.89,1581.77 2676.77,2717.65 2648.51,2717.65 1512.63,1581.77 "/>
     <polygon id="_453368352" class="fil1" points="1460.04,1544.53 2595.92,2680.41 2580.39,2680.41 1444.51,1544.53 "/>
     <polygon id="_453368568" class="fil1" points="1444.51,1544.53 2580.39,2680.41 2580.37,2680.41 2580.35,2680.41 2580.33,2680.41 2580.31,2680.41 2580.29,2680.41 2580.26,2680.41 2580.24,2680.41 2580.22,2680.41 1444.34,1544.53 1444.36,1544.53 1444.38,1544.53 1444.4,1544.53 1444.42,1544.53 1444.44,1544.53 1444.47,1544.53 1444.49,1544.53 "/>
     <polygon id="_453368952" class="fil1" points="1444.34,1544.53 2580.22,2680.41 2577.99,2680.41 1442.1,1544.53 "/>
     <polygon id="_453368856" class="fil1" points="1442.1,1544.53 2577.99,2680.41 2578.02,2680.7 2578.06,2680.99 2578.09,2681.28 2578.11,2681.58 2578.13,2681.87 2578.14,2682.17 2578.15,2682.46 2578.15,2682.76 1442.27,1546.88 1442.27,1546.58 1442.26,1546.28 1442.24,1545.99 1442.23,1545.69 1442.2,1545.4 1442.18,1545.11 1442.14,1544.82 "/>
     <polygon id="_453369408" class="fil1" points="1442.27,1546.88 2578.15,2682.76 2578.15,2704.79 1442.27,1568.9 "/>
     <polygon id="_453368880" class="fil1" points="1408.77,1550.25 2544.65,2686.13 2476.63,2686.13 1340.75,1550.25 "/>
     <polygon id="_453369216" class="fil1" points="1425.52,1577.36 2561.4,2713.24 2559.68,2713.25 2558.02,2713.26 2556.42,2713.25 2554.88,2713.22 2553.41,2713.14 2552.03,2713.01 2550.74,2712.79 2549.55,2712.48 2548.47,2712.07 2547.51,2711.53 2546.67,2710.85 1410.79,1574.96 1411.63,1575.64 1412.59,1576.18 1413.67,1576.6 1414.86,1576.91 1416.15,1577.12 1417.53,1577.26 1419,1577.34 1420.54,1577.37 1422.14,1577.38 1423.8,1577.37 "/>
     <polygon id="_453369600" class="fil1" points="1442.27,1568.9 2578.15,2704.79 2578.06,2706.4 2577.81,2707.81 2577.4,2709 2576.83,2710.01 2576.13,2710.85 2575.29,2711.53 2574.32,2712.07 2573.24,2712.48 2572.05,2712.79 2570.76,2713.01 2569.38,2713.14 2567.92,2713.22 2566.38,2713.25 2564.77,2713.26 2563.11,2713.25 2561.4,2713.24 1425.52,1577.36 1427.23,1577.37 1428.89,1577.38 1430.5,1577.37 1432.04,1577.34 1433.5,1577.26 1434.88,1577.12 1436.17,1576.91 1437.36,1576.6 1438.44,1576.18 1439.41,1575.64 1440.25,1574.96 1440.95,1574.13 1441.51,1573.12 1441.93,1571.92 1442.18,1570.52 "/>
     <polygon id="_453369096" class="fil1" points="1225.83,1459.41 2361.71,2595.29 2359.38,2603.31 1223.5,1467.43 "/>
     <polygon id="_453369960" class="fil1" points="1223.5,1467.43 2359.38,2603.31 2359.34,2603.3 1223.46,1467.42 "/>
     <polygon id="_453369984" class="fil1" points="1263.25,1550.25 2399.13,2686.13 2399.13,2704.79 1263.25,1568.9 "/>
     <polygon id="_453369792" class="fil1" points="1229.91,1544.53 2365.79,2680.41 2363.55,2680.41 1227.67,1544.53 "/>
     <polygon id="_453370104" class="fil1" points="1227.51,1544.53 2363.39,2680.41 2347.85,2680.41 1211.97,1544.53 "/>
     <polygon id="_453369648" class="fil1" points="1227.67,1544.53 2363.55,2680.41 2363.53,2680.41 2363.51,2680.41 2363.49,2680.41 2363.47,2680.41 2363.45,2680.41 2363.43,2680.41 2363.41,2680.41 2363.39,2680.41 1227.51,1544.53 1227.53,1544.53 1227.55,1544.53 1227.57,1544.53 1227.59,1544.53 1227.61,1544.53 1227.63,1544.53 1227.65,1544.53 "/>
     <polygon id="_453370008" class="fil1" points="1263.25,1568.9 2399.13,2704.79 2399.04,2706.4 2398.79,2707.81 2398.37,2709 2397.81,2710.01 2397.11,2710.85 2396.27,2711.53 2395.3,2712.07 2394.22,2712.48 2393.03,2712.79 2391.74,2713.01 2390.36,2713.14 2388.9,2713.22 2387.36,2713.25 2385.75,2713.26 2384.09,2713.25 2382.38,2713.24 1246.5,1577.36 1248.21,1577.37 1249.87,1577.38 1251.48,1577.37 1253.01,1577.34 1254.48,1577.26 1255.86,1577.12 1257.15,1576.91 1258.34,1576.6 1259.42,1576.18 1260.38,1575.64 1261.22,1574.96 1261.93,1574.13 1262.49,1573.12 1262.91,1571.92 1263.16,1570.52 "/>
     <polygon id="_453369720" class="fil1" points="1211.97,1544.53 2347.85,2680.41 2345.57,2680.18 2343.45,2679.52 2341.53,2678.48 2339.85,2677.1 1203.97,1541.22 1205.65,1542.6 1207.57,1543.64 1209.69,1544.3 "/>
     <polygon id="_453371112" class="fil1" points="1246.5,1577.36 2382.38,2713.24 2380.66,2713.25 2379,2713.26 2377.4,2713.25 2375.86,2713.22 2374.39,2713.14 2373.01,2713.01 2371.72,2712.79 2370.53,2712.48 2369.45,2712.07 2368.49,2711.53 2367.65,2710.85 1231.77,1574.96 1232.61,1575.64 1233.57,1576.18 1234.65,1576.6 1235.84,1576.91 1237.13,1577.12 1238.51,1577.26 1239.98,1577.34 1241.51,1577.37 1243.12,1577.38 1244.78,1577.37 "/>
     <polygon id="_453370704" class="fil1" points="1340.75,1550.25 2476.63,2686.13 2475.9,2686.62 2475.14,2687.07 2474.35,2687.51 2473.52,2687.92 2472.66,2688.3 2471.76,2688.65 2470.84,2688.97 2469.89,2689.27 2468.92,2689.53 2467.92,2689.76 2466.9,2689.96 2465.85,2690.12 2464.79,2690.25 2463.71,2690.35 2462.61,2690.4 2461.49,2690.42 2460.38,2690.4 2459.27,2690.35 2458.19,2690.25 2457.13,2690.12 2456.08,2689.96 2455.06,2689.76 2454.06,2689.53 2453.09,2689.27 2452.14,2688.97 2451.22,2688.65 2450.32,2688.3 2449.46,2687.92 2448.63,2687.51 2447.84,2687.07 2447.07,2686.62 2446.35,2686.13 1310.47,1550.25 1311.19,1550.73 1311.95,1551.19 1312.75,1551.63 1313.58,1552.03 1314.44,1552.41 1315.33,1552.77 1316.26,1553.09 1317.2,1553.38 1318.18,1553.65 1319.18,1553.88 1320.2,1554.08 1321.25,1554.24 1322.31,1554.37 1323.39,1554.46 1324.49,1554.52 1325.61,1554.54 1326.72,1554.52 1327.82,1554.46 1328.91,1554.37 1329.97,1554.24 1331.02,1554.08 1332.04,1553.88 1333.04,1553.65 1334.01,1553.38 1334.96,1553.09 1335.88,1552.77 1336.78,1552.41 1337.64,1552.03 1338.47,1551.63 1339.26,1551.19 1340.02,1550.73 "/>
     <polygon id="_453370656" class="fil1" points="1223.46,1467.42 2359.34,2603.3 2359.07,2604.43 2358.92,2605.56 2358.89,2606.67 2358.96,2607.78 2359.15,2608.86 2359.43,2609.91 2359.81,2610.93 2360.29,2611.91 2360.86,2612.83 2361.51,2613.7 2362.25,2614.51 1226.37,1478.62 1225.63,1477.82 1224.98,1476.95 1224.41,1476.02 1223.93,1475.05 1223.55,1474.03 1223.27,1472.98 1223.08,1471.9 1223.01,1470.79 1223.04,1469.67 1223.19,1468.55 "/>
     <polygon id="_453370944" class="fil1" points="1310.47,1550.25 2446.35,2686.13 2399.13,2686.13 1263.25,1550.25 "/>
    </g>
    <path id="_451246592" class="fil1" d="M1558.62 1051.19c7.26142,0 13.1492,5.8878 13.1492,13.1492 0,5.46851 -3.3378,10.1575 -8.08701,12.1406 7.19646,2.83229 12.4004,11.0469 12.4004,20.739l0 61.9347 0 1.07717 0 44.1744 -18.8327 0 0 9.37914c-6.92008,2.5311 -12.6756,7.14213 -16.3406,12.9827l0 354.164 -0.0248032 0.842127 -28.2591 0 -0.0259843 -0.842127 0 -354.167c-3.66496,-5.84056 -9.42048,-10.4492 -16.3382,-12.9803l0 -9.37914 -268.278 0 -2.66103 -2.8063 -54.2622 -38.752 -31.8473 0 0 405.428 12.4358 0 0 15.7288 -95.9044 0 -161.019 0 -356.216 0 0 -15.7288 12.437 0 0 -405.428 -23.563 0 -29.7189 21.1854 -15.0744 -21.1854 -10.6807 0 7.0878 -5.04922 -1.64055 -2.30551 139.978 -99.7855 0 -317.248 -96.7796 0 -27.1772 19.3736 -20.3079 -28.5402 362 -258.056 10.1539 -7.23308 10.1551 7.23308 353.139 251.766 -20.3079 28.539 -18.3508 -13.0831 -97.0347 0 0 311.197 118.292 84.4737 0 -36.9107c0,-9.80198 5.32323,-18.0921 12.6461,-20.8323 -4.63347,-2.03386 -7.86969,-6.6626 -7.86969,-12.0473 0,-7.26142 5.8878,-13.1492 13.1504,-13.1492 7.26142,0 13.1492,5.8878 13.1492,13.1492 0,5.38347 -3.23622,10.0122 -7.86851,12.0473 2.69055,1.0063 5.11181,2.7626 7.09725,5.06811l324.357 0c2.04803,-2.37756 4.55906,-4.17166 7.35237,-5.16142 -4.52244,-2.07992 -7.66182,-6.65079 -7.66182,-11.9539 0,-7.26142 5.8878,-13.1492 13.1504,-13.1492zm-292.361 349.851l140.694 0 18.8847 58.2248 -102.351 0 -6.96851 0 -15.5646 0 -0.15 0.0850394 -6.5504 0 -0.15 -0.0850394 -15.5646 0 -6.96851 0 -22.2272 0 16.9158 -58.2248zm-27.2799 80.8512l194.045 0 8.33977 0c6.24686,0 11.3126,-5.06575 11.3126,-11.3138 0,-1.54134 -0.308268,-3.01063 -0.868111,-4.35l-1.7563 -5.41536c3.34961,1.96417 5.59843,5.60315 5.59843,9.76536l0 51.3284 4.38544 0c6.24804,0 11.3138,5.06575 11.3138,11.3126 0,6.24804 -5.06575,11.3138 -11.3138,11.3138l-15.5327 0c-0.0555119,0.0011811 -0.109843,0.0011811 -0.165354,0.0011811l-2.23701 0c0.10748,0.766536 0.162992,1.54961 0.162992,2.34567l0 22.0264c0,9.25158 -7.50001,8.4567 -16.7516,8.4567 -9.2504,0 -16.7504,0.794883 -16.7504,-8.4567l0 -18.652 -68.0186 0c-3.76063,2.63622 -9.15001,4.28859 -15.1382,4.28859 -5.98819,0 -11.3776,-1.65236 -15.1394,-4.28859l-47.2229 0 0 18.652c0,9.25158 -7.50119,8.4567 -16.7516,8.4567 -9.25158,0 -16.7504,0.794883 -16.7504,-8.4567l0 -22.0264c0,-0.796064 0.0555119,-1.58032 0.162992,-2.34685l-2.23701 0.0011811c-0.0555119,0 -0.109843,0 -0.165354,-0.0011811l-15.5351 0c-6.24686,0 -11.3126,-5.06575 -11.3126,-11.3138 0,-6.24686 5.06575,-11.3126 11.3126,-11.3126l4.3878 0 0 -51.3284c0,-5.61969 4.09961,-10.2839 9.47009,-11.1638l-2.32914 8.01851 -0.0413386 -0.0106299c-1.74213,5.99882 1.70788,12.2764 7.70788,14.0197 1.13386,0.330709 2.27717,0.473622 3.39922,0.45l4.41851 0z"/>
   </g>
  </g>
  <path class="fil2" d="M1024 -0.0011811c565.539,0 1024,458.462 1024,1024 0,565.539 -458.462,1024 -1024,1024 -565.539,0 -1024,-458.462 -1024,-1024 0,-565.539 458.462,-1024 1024,-1024z"/>
  <path class="fil3" d="M1288.07 1107.99c1.83543,4.26024 2.9941,10.5236 2.9941,17.5087 0,6.98386 -1.15866,13.2484 -2.9941,17.5087 1.12913,1.35 1.81181,3.1004 1.81181,5.0126 0,2.85709 -1.52126,5.35276 -3.78307,6.68741 0.251575,0.549213 0.392126,1.16102 0.392126,1.80709 0,2.35394 -1.86969,4.26378 -4.17874,4.26378 -2.30788,0 -4.17874,-1.90984 -4.17874,-4.26378 0,-0.646063 0.140551,-1.25787 0.392126,-1.80709 -2.26181,-1.33465 -3.78307,-3.83032 -3.78307,-6.68741 0,-1.91221 0.682678,-3.6626 1.81299,-5.0126 -1.83543,-4.26024 -2.99528,-10.5248 -2.99528,-17.5087 0,-6.98504 1.15984,-13.2484 2.99528,-17.5087 -1.13032,-1.34882 -1.81299,-3.1004 -1.81299,-5.01378 0,-2.85709 1.52126,-5.35158 3.78307,-6.68741 -0.251575,-0.549213 -0.392126,-1.16102 -0.392126,-1.80591 0,-2.35512 1.87087,-4.26378 4.17874,-4.26378 2.30906,0 4.17874,1.90866 4.17874,4.26378 0,0.644882 -0.140551,1.25669 -0.392126,1.80591 2.26181,1.33583 3.78307,3.83032 3.78307,6.68741 0,1.91339 -0.682678,3.66496 -1.81181,5.01378z"/>
  <path class="fil3" d="M1317.13 1107.99c1.83543,4.26142 2.99528,10.5248 2.99528,17.5087 0,6.98504 -1.15984,13.2484 -2.99528,17.5099 1.13032,1.34882 1.81299,3.09921 1.81299,5.0126 0,2.85709 -1.52244,5.35276 -3.78307,6.68741 0.251575,0.549213 0.392126,1.16102 0.392126,1.80709 0,2.35394 -1.86969,4.26378 -4.17874,4.26378 -2.30788,0 -4.17992,-1.90984 -4.17992,-4.26378 0,-0.646063 0.141732,-1.25787 0.393307,-1.80709 -2.26063,-1.33465 -3.78307,-3.83032 -3.78307,-6.68741 0,-1.91339 0.682678,-3.66378 1.81299,-5.0126 -1.83662,-4.26142 -2.99528,-10.5248 -2.99528,-17.5099 0,-6.98386 1.15866,-13.2473 2.99528,-17.5087 -1.13032,-1.34882 -1.81299,-3.09921 -1.81299,-5.0126 0,-2.85827 1.52244,-5.35158 3.78307,-6.68741 -0.251575,-0.549213 -0.393307,-1.16102 -0.393307,-1.80709 0,-2.35394 1.87205,-4.2626 4.17992,-4.2626 2.30906,0 4.17874,1.90866 4.17874,4.2626 0,0.646063 -0.140551,1.25787 -0.392126,1.80709 2.26063,1.33583 3.78307,3.82914 3.78307,6.68741 0,1.91339 -0.682678,3.66378 -1.81299,5.0126z"/>
  <path class="fil3" d="M1346.2 1107.99c1.83543,4.26142 2.9941,10.5248 2.9941,17.5087 0,6.98386 -1.15866,13.2484 -2.9941,17.5099 1.13032,1.34882 1.81181,3.09921 1.81181,5.0126 0,2.85827 -1.52126,5.35276 -3.78307,6.68741 0.252756,0.548032 0.393307,1.15984 0.393307,1.80709 0,2.35276 -1.87087,4.2626 -4.17992,4.2626 -2.30788,0 -4.17874,-1.90984 -4.17874,-4.2626 0,-0.647245 0.13937,-1.25906 0.392126,-1.80709 -2.26181,-1.33465 -3.78307,-3.82914 -3.78307,-6.68741 0,-1.91339 0.682678,-3.66378 1.81299,-5.0126 -1.83543,-4.26142 -2.99528,-10.526 -2.99528,-17.5099 0,-6.98386 1.15984,-13.2473 2.99528,-17.5087 -1.13032,-1.34882 -1.81299,-3.09921 -1.81299,-5.0126 0,-2.85827 1.52126,-5.35276 3.78307,-6.68859 -0.252756,-0.548032 -0.392126,-1.15984 -0.392126,-1.80591 0,-2.35394 1.87087,-4.2626 4.17874,-4.2626 2.30906,0 4.17992,1.90866 4.17992,4.2626 0,0.646063 -0.140551,1.25787 -0.393307,1.80591 2.26181,1.33583 3.78307,3.83032 3.78307,6.68859 0,1.91339 -0.681497,3.66378 -1.81181,5.0126z"/>
  <path class="fil3" d="M1375.27 1107.99c1.83662,4.26142 2.99528,10.5236 2.99528,17.5087 0,6.98386 -1.15866,13.2484 -2.99528,17.5099 1.13032,1.34882 1.81181,3.09921 1.81181,5.01142 0,2.85827 -1.52126,5.35276 -3.78189,6.68859 0.251575,0.548032 0.392126,1.15984 0.392126,1.80591 0,2.35394 -1.86969,4.26378 -4.17874,4.26378 -2.30906,0 -4.17874,-1.90984 -4.17874,-4.26378 0,-0.646063 0.13937,-1.25787 0.392126,-1.80591 -2.26181,-1.33583 -3.78307,-3.83032 -3.78307,-6.68859 0,-1.91221 0.682678,-3.6626 1.81181,-5.01142 -1.83425,-4.26142 -2.9941,-10.526 -2.9941,-17.5099 0,-6.98504 1.15984,-13.2473 2.9941,-17.5087 -1.12913,-1.34882 -1.81181,-3.09921 -1.81181,-5.0126 0,-2.85827 1.52126,-5.35276 3.78307,-6.68859 -0.252756,-0.549213 -0.392126,-1.15984 -0.392126,-1.80591 0,-2.35512 1.86969,-4.26378 4.17874,-4.26378 2.30906,0 4.17874,1.90866 4.17874,4.26378 0,0.646063 -0.140551,1.25669 -0.392126,1.80591 2.26063,1.33583 3.78189,3.83032 3.78189,6.68859 0,1.91339 -0.681497,3.66378 -1.81181,5.0126z"/>
  <path class="fil3" d="M1404.34 1107.99c1.83543,4.26024 2.99528,10.5236 2.99528,17.5075 0,6.98504 -1.15984,13.2496 -2.99528,17.5099 1.13032,1.34882 1.81299,3.09921 1.81299,5.0126 0,2.85709 -1.52244,5.35276 -3.78307,6.68741 0.251575,0.549213 0.392126,1.16102 0.392126,1.80709 0,2.35394 -1.87087,4.26378 -4.17874,4.26378 -2.30906,0 -4.17992,-1.90984 -4.17992,-4.26378 0,-0.646063 0.141732,-1.25787 0.393307,-1.80709 -2.26181,-1.33465 -3.78307,-3.83032 -3.78307,-6.68741 0,-1.91339 0.682678,-3.66378 1.81181,-5.0126 -1.83543,-4.26024 -2.9941,-10.5248 -2.9941,-17.5099 0,-6.98386 1.15866,-13.2473 2.9941,-17.5075 -1.12913,-1.35 -1.81181,-3.1004 -1.81181,-5.01378 0,-2.85709 1.52126,-5.35158 3.78307,-6.68741 -0.251575,-0.549213 -0.393307,-1.16102 -0.393307,-1.80591 0,-2.35512 1.87087,-4.26378 4.17992,-4.26378 2.30788,0 4.17874,1.90866 4.17874,4.26378 0,0.644882 -0.140551,1.25669 -0.392126,1.80591 2.26063,1.33583 3.78307,3.83032 3.78307,6.68741 0,1.91339 -0.682678,3.66378 -1.81299,5.01378z"/>
  <path class="fil3" d="M1433.4 1107.99c1.83662,4.26142 2.99646,10.5248 2.99646,17.5087 0,6.98386 -1.15984,13.2484 -2.99646,17.5099 1.1315,1.34882 1.81417,3.09921 1.81417,5.0126 0,2.85709 -1.52244,5.35276 -3.78425,6.68741 0.252756,0.548032 0.393307,1.15984 0.393307,1.80709 0,2.35394 -1.87087,4.2626 -4.17874,4.2626 -2.30906,0 -4.17992,-1.90866 -4.17992,-4.2626 0,-0.647245 0.140551,-1.25906 0.393307,-1.80709 -2.26181,-1.33465 -3.78425,-3.83032 -3.78425,-6.68741 0,-1.91339 0.682678,-3.66378 1.81299,-5.0126 -1.83543,-4.26142 -2.99528,-10.526 -2.99528,-17.5099 0,-6.98386 1.15984,-13.2473 2.99528,-17.5087 -1.13032,-1.34882 -1.81299,-3.09921 -1.81299,-5.0126 0,-2.85827 1.52244,-5.35158 3.78425,-6.68859 -0.252756,-0.548032 -0.393307,-1.15984 -0.393307,-1.80591 0,-2.35394 1.87087,-4.2626 4.17992,-4.2626 2.30788,0 4.17874,1.90866 4.17874,4.2626 0,0.646063 -0.140551,1.25787 -0.393307,1.80591 2.26181,1.33701 3.78425,3.83032 3.78425,6.68859 0,1.91339 -0.682678,3.66378 -1.81417,5.0126z"/>
  <path class="fil3" d="M1462.47 1107.99c1.83543,4.26142 2.99528,10.5248 2.99528,17.5087 0,6.98386 -1.15984,13.2484 -2.99528,17.5099 1.13032,1.34882 1.81181,3.09921 1.81181,5.0126 0,2.85827 -1.52126,5.35276 -3.78189,6.68741 0.251575,0.548032 0.393307,1.15984 0.393307,1.80709 0,2.35276 -1.87205,4.2626 -4.17992,4.2626 -2.30906,0 -4.17992,-1.90984 -4.17992,-4.2626 0,-0.647245 0.140551,-1.25906 0.393307,-1.80709 -2.26181,-1.33465 -3.78307,-3.82914 -3.78307,-6.68741 0,-1.91339 0.682678,-3.66378 1.81181,-5.0126 -1.83425,-4.26142 -2.9941,-10.526 -2.9941,-17.5099 0,-6.98386 1.15984,-13.2473 2.9941,-17.5087 -1.12913,-1.34882 -1.81181,-3.09921 -1.81181,-5.0126 0,-2.85827 1.52126,-5.35276 3.78307,-6.68859 -0.252756,-0.548032 -0.393307,-1.15984 -0.393307,-1.80591 0,-2.35394 1.87087,-4.2626 4.17992,-4.2626 2.30788,0 4.17992,1.90866 4.17992,4.2626 0,0.646063 -0.141732,1.25787 -0.393307,1.80591 2.26063,1.33583 3.78189,3.83032 3.78189,6.68859 0,1.91339 -0.681497,3.66378 -1.81181,5.0126z"/>
  <path class="fil3" d="M1491.54 1107.99c1.83662,4.26024 2.99646,10.5236 2.99646,17.5087 0,6.98386 -1.15984,13.2484 -2.99646,17.5087 1.13032,1.35 1.81417,3.1004 1.81417,5.0126 0,2.85827 -1.52244,5.35276 -3.78307,6.68741 0.250394,0.549213 0.392126,1.16102 0.392126,1.80709 0,2.35394 -1.87087,4.26378 -4.17874,4.26378 -2.30906,0 -4.17992,-1.90984 -4.17992,-4.26378 0,-0.646063 0.141732,-1.25787 0.393307,-1.80709 -2.26181,-1.33465 -3.78307,-3.82914 -3.78307,-6.68741 0,-1.91221 0.682678,-3.6626 1.81181,-5.0126 -1.83543,-4.26024 -2.99528,-10.5248 -2.99528,-17.5087 0,-6.98504 1.15984,-13.2484 2.99528,-17.5087 -1.12913,-1.34882 -1.81181,-3.09921 -1.81181,-5.0126 0,-2.85827 1.52126,-5.35276 3.78307,-6.68859 -0.251575,-0.549213 -0.393307,-1.16102 -0.393307,-1.80591 0,-2.35512 1.87087,-4.26378 4.17992,-4.26378 2.30788,0 4.17874,1.90866 4.17874,4.26378 0,0.644882 -0.141732,1.25669 -0.392126,1.80591 2.26063,1.33583 3.78307,3.83032 3.78307,6.68859 0,1.91339 -0.683859,3.66378 -1.81417,5.0126z"/>
  <path class="fil3" d="M1259 1107.99c1.83543,4.26024 2.9941,10.5236 2.9941,17.5087 0,6.98386 -1.15866,13.2484 -2.9941,17.5099 1.12913,1.34882 1.81181,3.09921 1.81181,5.01142 0,2.85827 -1.52126,5.35276 -3.78307,6.68741 0.252756,0.549213 0.393307,1.16102 0.393307,1.80709 0,2.35394 -1.87087,4.26378 -4.17992,4.26378 -2.30788,0 -4.17874,-1.90984 -4.17874,-4.26378 0,-0.646063 0.140551,-1.25787 0.392126,-1.80709 -2.26181,-1.33465 -3.78307,-3.82914 -3.78307,-6.68741 0,-1.91221 0.682678,-3.6626 1.81299,-5.01142 -1.83543,-4.26142 -2.99528,-10.526 -2.99528,-17.5099 0,-6.98504 1.15984,-13.2484 2.99528,-17.5087 -1.13032,-1.34882 -1.81299,-3.09921 -1.81299,-5.01378 0,-2.85709 1.52126,-5.35158 3.78307,-6.68741 -0.251575,-0.549213 -0.392126,-1.15984 -0.392126,-1.80591 0,-2.35512 1.87087,-4.26378 4.17874,-4.26378 2.30906,0 4.17992,1.90866 4.17992,4.26378 0,0.646063 -0.140551,1.25669 -0.393307,1.80591 2.26181,1.33583 3.78307,3.83032 3.78307,6.68741 0,1.91457 -0.682678,3.66496 -1.81181,5.01378z"/>
  <path class="fil3" d="M1520.61 1107.99c1.83662,4.26142 2.99646,10.5248 2.99646,17.5087 0,6.98504 -1.15984,13.2484 -2.99646,17.5099 1.13032,1.34882 1.81299,3.09921 1.81299,5.0126 0,2.85827 -1.52126,5.35276 -3.78307,6.68741 0.251575,0.548032 0.393307,1.15984 0.393307,1.80709 0,2.35394 -1.87205,4.26378 -4.17992,4.26378 -2.30788,0 -4.17874,-1.90984 -4.17874,-4.26378 0,-0.647245 0.140551,-1.25906 0.392126,-1.80709 -2.26181,-1.33465 -3.78307,-3.82914 -3.78307,-6.68741 0,-1.91339 0.682678,-3.66378 1.81299,-5.0126 -1.83543,-4.26142 -2.99528,-10.5248 -2.99528,-17.5099 0,-6.98386 1.15984,-13.2473 2.99528,-17.5087 -1.13032,-1.34882 -1.81299,-3.09921 -1.81299,-5.01142 0,-2.85945 1.52126,-5.35276 3.78307,-6.68859 -0.251575,-0.549213 -0.392126,-1.16102 -0.392126,-1.80709 0,-2.35394 1.87087,-4.2626 4.17874,-4.2626 2.30788,0 4.17992,1.90866 4.17992,4.2626 0,0.646063 -0.141732,1.25787 -0.393307,1.80709 2.26181,1.33583 3.78307,3.82914 3.78307,6.68859 0,1.91221 -0.682678,3.6626 -1.81299,5.01142z"/>
  <path class="fil4" d="M1512.6 1216.74l0 364.191c0,0.282284 0.00944883,0.563386 0.0259843,0.842127l28.2591 0c0.0153543,-0.27874 0.0248032,-0.559843 0.0248032,-0.842127l0 -364.191 -28.3099 0z"/>
  <path class="fil3" d="M1496.27 1196.15l60.9886 0 0 17.6315c-7.02402,2.5689 -12.8492,7.2815 -16.5047,13.2473l-27.9803 0c-3.65433,-5.96693 -9.48072,-10.6772 -16.5036,-13.2473l0 -17.6315z"/>
  <path class="fil5" d="M1139.22 1153.1c0,142.344 0,284.69 0,427.035 -196.089,0 -392.177,0 -588.266,0 0,-142.345 0,-284.691 0,-427.035 196.089,0 392.177,0 588.266,0z"/>
  <rect class="fil6" x="538.514" y="1568.27" width="613.139" height="15.7289"/>
  <path class="fil7" d="M1576.09 1097.22c0,-12.0366 -8.0256,-21.7937 -17.9256,-21.7937 -9.90119,0 -17.9268,9.75709 -17.9268,21.7937l0 63.0119c0,12.0354 8.0256,21.7937 17.9268,21.7937 9.90001,0 17.9256,-9.75828 17.9256,-21.7937l0 -63.0119z"/>
  <polygon class="fil8" points="617.339,700.49 617.339,1073.44 1072.83,1073.07 1072.83,700.49 "/>
  <polygon class="fil8" points="517.386,738.455 1172.78,738.455 845.084,504.984 "/>
  <polygon class="fil9" points="471.913,1162.84 1218.26,1162.84 845.084,896.974 "/>
  <path class="fil10" d="M845.343 1032.49c21.8433,0 39.5504,17.7071 39.5504,39.5504 0,21.8421 -17.7071,39.5504 -39.5504,39.5504 -21.8421,0 -39.5504,-17.7083 -39.5504,-39.5504 0,-21.8433 17.7083,-39.5504 39.5504,-39.5504z"/>
  <path class="fil11" d="M845.343 1028.84c11.9303,0 22.7339,4.83662 30.5528,12.6567 7.82008,7.8189 12.6579,18.6225 12.6579,30.5528 0,11.9315 -4.8378,22.7339 -12.6579,30.5528 -7.8189,7.8189 -18.6213,12.6567 -30.5528,12.6567 -11.9315,0 -22.7339,-4.8378 -30.5528,-12.6567 -7.82008,-7.8189 -12.6567,-18.6236 -12.6567,-30.5528 0,-11.9303 4.83662,-22.7339 12.6567,-30.5528 7.8189,-7.82008 18.6213,-12.6567 30.5528,-12.6567zm25.3795 17.8311c-6.49371,-6.49489 -15.4677,-10.513 -25.3795,-10.513 -9.91064,0 -18.8858,4.01929 -25.3795,10.513 -6.49371,6.49252 -10.5118,15.4665 -10.5118,25.3784 0,9.91182 4.01811,18.8847 10.5118,25.3784 6.49371,6.49371 15.4689,10.5118 25.3795,10.5118 9.91182,0 18.8858,-4.01693 25.3795,-10.5106 6.49371,-6.49371 10.5118,-15.4677 10.5118,-25.3795 0,-9.91182 -4.01811,-18.8858 -10.5118,-25.3784z"/>
  <polygon class="fil7" points="1227.99,1159.15 1206.54,1181.78 1227.99,1204.4 1576.09,1204.4 1576.09,1159.15 "/>
  <rect class="fil12" x="1204.89" y="1081.45" width="345.736" height="9.25842"/>
  <path class="fil7" d="M1226.97 1097.22c0,-12.0366 -8.02678,-21.7937 -17.9268,-21.7937 -9.90001,0 -17.9256,9.75709 -17.9256,21.7937l0 63.0119c0,12.0354 8.0256,21.7937 17.9256,21.7937 9.90001,0 17.9268,-9.75828 17.9268,-21.7937l0 -63.0119z"/>
  <polygon class="fil10" points="794.955,779.214 794.955,813.109 845.084,813.109 845.084,779.214 "/>
  <path class="fil11" d="M798.614 782.874l0 26.5748 42.8115 0 0 -26.5748 -42.8115 0zm-7.31812 30.2351l0 -33.8953c0,-2.02087 1.63819,-3.65906 3.65906,-3.65906l50.1296 0c2.02087,0 3.66024,1.63819 3.66024,3.65906l0 33.8953c0,2.01969 -1.63937,3.65906 -3.66024,3.65906l-50.1296 0c-2.02087,0 -3.65906,-1.63937 -3.65906,-3.65906z"/>
  <polygon class="fil10" points="895.214,779.214 895.214,813.109 845.084,813.109 845.084,779.214 "/>
  <path class="fil11" d="M898.874 779.214l0 33.8953c0,2.01969 -1.63937,3.65906 -3.66024,3.65906l-50.1296 0c-2.02087,0 -3.65906,-1.63937 -3.65906,-3.65906l0 -33.8953c0,-2.02087 1.63819,-3.65906 3.65906,-3.65906l50.1296 0c2.02087,0 3.66024,1.63819 3.66024,3.65906zm-7.3193 30.2351l0 -26.5748 -42.8103 0 0 26.5748 42.8103 0z"/>
  <polygon class="fil10" points="794.955,847.003 794.955,813.108 845.084,813.108 845.084,847.003 "/>
  <path class="fil11" d="M791.295 847.003l0 -33.8941c0,-2.02087 1.63819,-3.66024 3.65906,-3.66024l50.1296 0c2.02087,0 3.66024,1.63937 3.66024,3.66024l0 33.8941c0,2.02087 -1.63937,3.65906 -3.66024,3.65906l-50.1296 0c-2.02087,0 -3.65906,-1.63819 -3.65906,-3.65906zm7.31812 -30.2351l0 26.5748 42.8115 0 0 -26.5748 -42.8115 0z"/>
  <polygon class="fil10" points="895.214,847.003 895.214,813.108 845.084,813.108 845.084,847.003 "/>
  <path class="fil11" d="M891.555 843.343l0 -26.5748 -42.8103 0 0 26.5748 42.8103 0zm7.3193 -30.2339l0 33.8941c0,2.02087 -1.63937,3.65906 -3.66024,3.65906l-50.1296 0c-2.02087,0 -3.65906,-1.63819 -3.65906,-3.65906l0 -33.8941c0,-2.02087 1.63819,-3.66024 3.65906,-3.66024l50.1296 0c2.02087,0 3.66024,1.63937 3.66024,3.66024z"/>
  <path class="fil10" d="M836.451 606.912c21.8433,0 39.5504,17.7071 39.5504,39.5504 0,21.8421 -17.7071,39.5504 -39.5504,39.5504 -21.8421,0 -39.5504,-17.7083 -39.5504,-39.5504 0,-21.8433 17.7083,-39.5504 39.5504,-39.5504z"/>
  <path class="fil11" d="M836.451 603.253c11.9315,0 22.7339,4.8378 30.5528,12.6555 7.82008,7.82008 12.6579,18.6236 12.6579,30.554 0,11.9315 -4.8378,22.7339 -12.6579,30.5528 -7.8189,7.8189 -18.6213,12.6567 -30.5528,12.6567 -11.9315,0 -22.7327,-4.8378 -30.5528,-12.6567 -7.82008,-7.8189 -12.6567,-18.6225 -12.6567,-30.5528 0,-11.9303 4.83662,-22.7339 12.6567,-30.5528 7.82008,-7.8189 18.6213,-12.6567 30.5528,-12.6567zm25.3795 17.8299c-6.49371,-6.49371 -15.4677,-10.5106 -25.3795,-10.5106 -9.91064,0 -18.8858,4.01811 -25.3784,10.5118 -6.49489,6.49371 -10.513,15.4665 -10.513,25.3784 0,9.91182 4.01811,18.8847 10.513,25.3784 6.49252,6.49371 15.4677,10.5118 25.3784,10.5118 9.91182,0 18.8858,-4.01693 25.3795,-10.5106 6.49371,-6.49371 10.5118,-15.4677 10.5118,-25.3795 0,-9.91182 -4.01811,-18.8858 -10.5118,-25.3795z"/>
  <polygon class="fil7" points="1188.21,751.538 845.228,507.007 493.382,757.829 473.074,729.289 835.074,471.233 845.228,464 855.383,471.233 1208.52,722.999 "/>
  <polygon class="fil7" points="1227.95,1203.47 849.514,933.207 497.668,1184.03 477.361,1155.49 839.36,897.433 849.514,890.2 859.67,897.433 1248.25,1174.93 "/>
  <polygon class="fil13" points="907.307,1562.13 1043.17,1562.13 1043.17,1273.25 907.307,1273.25 "/>
  <path class="fil14" d="M910.966 1558.47l128.545 0 0 -281.566 -128.545 0 0 281.566zm132.206 7.3193l-135.865 0c-2.02087,0 -3.65906,-1.63819 -3.65906,-3.65906l0 -288.886c0,-2.01969 1.63819,-3.65906 3.65906,-3.65906l135.865 0c2.02087,0 3.65906,1.63937 3.65906,3.65906l0 288.886c0,2.02087 -1.63819,3.65906 -3.65906,3.65906z"/>
  <polygon class="fil13" points="862.055,1273.25 862.055,1454.4 681.051,1454.4 681.051,1273.25 "/>
  <path class="fil11" d="M865.714 1273.25l0 181.156c0,2.02087 -1.63819,3.65906 -3.65906,3.65906l-181.004 0c-2.02087,0 -3.66024,-1.63819 -3.66024,-3.65906l0 -181.156c0,-2.01969 1.63937,-3.65906 3.66024,-3.65906l181.004 0c2.02087,0 3.65906,1.63937 3.65906,3.65906zm-7.31812 177.497l0 -173.837 -173.686 0 0 173.837 173.686 0z"/>
  <polygon class="fil11" points="862.055,1318.71 862.055,1327.97 681.051,1327.97 681.051,1318.71 "/>
  <polygon class="fil11" points="1042.33,1363.45 1042.33,1372.71 908.151,1372.71 908.151,1363.45 "/>
  <polygon class="fil11" points="1042.33,1462.67 1042.33,1471.93 908.151,1471.93 908.151,1462.67 "/>
  <polygon class="fil11" points="766.923,1273.25 776.182,1273.25 776.182,1454.25 766.923,1454.25 "/>
  <circle class="fil12" cx="1209.05" cy="1064.34" r="13.1498"/>
  <circle class="fil12" cx="1558.62" cy="1064.34" r="13.1498"/>
  <rect class="fil15" x="894.729" y="1557.7" width="161.019" height="26.2987"/>
  <rect class="fil16" x="887.195" y="1557.7" width="176.087" height="8.57667"/>
  <circle class="fil17" cx="929.569" cy="1417.69" r="6.00272"/>
  <path class="fil18" d="M1325.61 1527.95c9.76891,0 17.9469,4.39489 20.054,10.291l66.8469 0 0 12.0059 -71.7627 0c-3.76063,2.63622 -9.15001,4.28859 -15.1382,4.28859 -5.98819,0 -11.3776,-1.65236 -15.1394,-4.28859l-61.4705 0 0 -12.0059 56.5559 0c2.10709,-5.89607 10.285,-10.291 20.054,-10.291z"/>
  <path class="fil19" d="M1229.74 1568.9c0,9.25158 7.50001,8.4567 16.7516,8.4567 9.2504,0 16.7504,0.794883 16.7504,-8.4567l0 -22.0264c0,-9.25158 -7.50001,-16.7516 -16.7504,-16.7516 -9.25158,0 -16.7516,7.50001 -16.7516,16.7516l0 22.0264z"/>
  <path class="fil19" d="M1408.77 1568.9c0,9.25158 7.50001,8.4567 16.7516,8.4567 9.2504,0 16.7504,0.794883 16.7504,-8.4567l0 -22.0264c0,-9.25158 -7.50001,-16.7516 -16.7504,-16.7516 -9.25158,0 -16.7516,7.50001 -16.7516,16.7516l0 22.0264z"/>
  <path class="fil20" d="M1249.35 1459.26l176.495 0 -18.8835 -58.2248 -140.695 0 -16.9158 58.2248zm192.02 22.6264l-206.803 0c-1.12205,0.0236221 -2.26536,-0.120473 -3.39922,-0.45 -6,-1.74213 -9.45001,-8.02087 -7.70788,-14.0209l0.0401575 0.011811 23.2158 -79.9064c1.0252,-5.19449 5.60434,-9.11221 11.0988,-9.11221l157.13 0c4.84843,-0.0874016 9.39095,2.97166 10.963,7.82363l-10.761 3.48898 10.7386 -3.44646 25.9299 79.9465c0.558662,1.34055 0.86693,2.80984 0.86693,4.35118 0,6.24804 -5.06575,11.3138 -11.3126,11.3138z"/>
  <path class="fil21" d="M1227.67 1459.26l216.671 0c6.24686,0 11.3126,5.06575 11.3126,11.3126l0 62.6434c0,6.24686 -5.06575,11.3126 -11.3126,11.3126l-216.671 0c-6.24686,0 -11.3126,-5.06575 -11.3126,-11.3126l0 -62.6434c0,-6.24686 5.06575,-11.3126 11.3126,-11.3126z"/>
  <polygon class="fil22" points="1433.03,1481.89 1238.98,1481.89 1238.98,1521.9 1433.03,1521.9 "/>
  <path class="fil20" d="M1211.97 1521.9c-6.24686,0 -11.3126,5.06575 -11.3126,11.3126 0,6.24686 5.06575,11.3126 11.3126,11.3126l248.069 0c6.24804,0 11.3138,-5.06575 11.3138,-11.3126 0,-6.24686 -5.06575,-11.3126 -11.3138,-11.3126l-248.069 0z"/>
  <path class="fil23" d="M1401.94 1501.9c0,-6.01418 4.87559,-10.891 10.891,-10.891 6.01418,0 10.8898,4.87678 10.8898,10.891 0,6.01536 -4.87559,10.891 -10.8898,10.891 -6.01536,0 -10.891,-4.87559 -10.891,-10.891z"/>
  <path class="fil23" d="M1248.3 1501.9c0,-6.01418 4.87559,-10.891 10.891,-10.891 6.01418,0 10.8898,4.87678 10.8898,10.891 0,6.01536 -4.87559,10.891 -10.8898,10.891 -6.01536,0 -10.891,-4.87559 -10.891,-10.891z"/>
  <rect class="fil24" x="1281.98" y="1492.11" width="108.055" height="19.5812" rx="3.65906" ry="3.65906"/>
  <polygon class="fil25" points="1266.26,1401.04 1249.35,1459.26 1425.84,1459.26 1406.96,1401.04 "/>
  <path class="fil26" d="M1285.25 1447.11l12.2847 9.32127 12.2847 -9.32127c-3.43465,-2.87481 -7.76221,-4.4563 -12.2847,-4.4563 -4.52244,0 -8.85001,1.5815 -12.2847,4.4563zm28.6736 4.77402l-13.1138 7.45985 -6.5504 0 -13.1126 -7.45985c-1.37835,2.27126 -2.27008,4.80827 -2.6126,7.45985l-6.96615 0c0.568111,-6.02363 3.20197,-11.6516 7.52363,-15.9744 4.90867,-4.90748 11.5004,-7.64056 18.4429,-7.64056 6.94253,0 13.5343,2.73307 18.4429,7.64056 4.32166,4.32284 6.95552,9.9508 7.52363,15.9744l-6.96615 0c-0.34252,-2.65158 -1.23425,-5.18859 -2.61142,-7.45985z"/>
 </g>
</svg>
