<?xml version="1.0" encoding="UTF-8"?>
<!DOCTYPE svg PUBLIC "-//W3C//DTD SVG 1.1//EN" "http://www.w3.org/Graphics/SVG/1.1/DTD/svg11.dtd">
<!-- Creator: CorelDRAW -->
<svg xmlns="http://www.w3.org/2000/svg" xml:space="preserve" width="2048px" height="2048px" style="shape-rendering:geometricPrecision; text-rendering:geometricPrecision; image-rendering:optimizeQuality; fill-rule:evenodd; clip-rule:evenodd"
viewBox="0 0 2048 2048"
 xmlns:xlink="http://www.w3.org/1999/xlink">
 <defs>
  <style type="text/css">
   <![CDATA[
    .fil2 {fill:none}
    .fil20 {fill:#00E676}
    .fil1 {fill:#01579B}
    .fil0 {fill:#0288D1}
    .fil13 {fill:#424242}
    .fil16 {fill:#455A64}
    .fil18 {fill:#78909C}
    .fil12 {fill:#80D8FF}
    .fil6 {fill:#9A9A9A}
    .fil14 {fill:#A1B3BA}
    .fil15 {fill:#B0BDC4}
    .fil11 {fill:#CD6E0B}
    .fil19 {fill:#D50000}
    .fil17 {fill:#ECEFF1}
    .fil21 {fill:#0B84BB;fill-rule:nonzero}
    .fil7 {fill:#ABABAA;fill-rule:nonzero}
    .fil3 {fill:#BDC9CF;fill-rule:nonzero}
    .fil5 {fill:#C2CDD1;fill-rule:nonzero}
    .fil4 {fill:#D0D9DD;fill-rule:nonzero}
    .fil22 {fill:#D50000;fill-rule:nonzero}
    .fil10 {fill:#F29F29;fill-rule:nonzero}
    .fil23 {fill:#FF6F00;fill-rule:nonzero}
    .fil8 {fill:#FFA726;fill-rule:nonzero}
    .fil9 {fill:#FFB03C;fill-rule:nonzero}
   ]]>
  </style>
   <clipPath id="id0">
    <path d="M1024 -0.0011811c565.539,0 1024,458.462 1024,1024 0,565.539 -458.462,1024 -1024,1024 -565.539,0 -1024,-458.462 -1024,-1024 0,-565.539 458.462,-1024 1024,-1024z"/>
   </clipPath>
 </defs>
 <g id="Layer_x0020_1">
  <metadata id="CorelCorpID_0Corel-Layer"/>
  <path class="fil0" d="M1024 -0.0011811c565.539,0 1024,458.462 1024,1024 0,565.539 -458.462,1024 -1024,1024 -565.539,0 -1024,-458.462 -1024,-1024 0,-565.539 458.462,-1024 1024,-1024z"/>
  <g style="clip-path:url(#id0)">
   <g id="_451249808">
    <g>
     <polygon id="_2863350161" class="fil1" points="548.115,651.63 1684,1787.51 1684,1797 548.115,661.12 "/>
     <polygon id="_286334536" class="fil1" points="814.335,684.477 1950.22,1820.36 1684,1820.36 548.115,684.477 "/>
     <polygon id="_286336456" class="fil1" points="1351.86,696.154 2487.74,1832.04 1950.22,1832.04 814.335,696.154 "/>
     <polygon id="_286336216" class="fil1" points="1533.8,1073.14 2669.68,2209.02 2647.7,2209.02 1511.82,1073.14 "/>
     <polygon id="_286336384" class="fil1" points="1511.82,1073.14 2647.7,2209.02 2647.7,2534.44 1511.82,1398.56 "/>
     <polygon id="_286336264" class="fil1" points="1511.82,1398.56 2647.7,2534.44 2647.7,2534.59 2647.7,2534.74 2647.7,2534.89 2647.69,2535.04 2647.69,2535.19 2647.69,2535.35 2647.68,2535.5 2647.67,2535.65 1511.79,1399.76 1511.8,1399.61 1511.8,1399.46 1511.81,1399.31 1511.81,1399.16 1511.82,1399.01 1511.82,1398.86 1511.82,1398.71 "/>
     <polygon id="_286336072" class="fil1" points="1511.79,1399.76 2647.67,2535.65 2647.44,2537.93 2647,2540.14 2646.36,2542.27 2645.52,2544.31 2644.5,2546.25 2643.31,2548.08 2641.96,2549.78 2640.46,2551.35 2638.82,2552.77 2637.05,2554.04 2635.17,2555.14 2633.17,2556.07 2631.08,2556.81 2628.91,2557.35 2626.66,2557.68 2624.35,2557.79 1488.46,1421.91 1490.78,1421.8 1493.03,1421.47 1495.2,1420.93 1497.29,1420.19 1499.28,1419.26 1501.17,1418.16 1502.94,1416.89 1504.58,1415.46 1506.08,1413.9 1507.43,1412.19 1508.62,1410.37 1509.64,1408.43 1510.48,1406.39 1511.12,1404.26 1511.56,1402.05 "/>
     <polygon id="_286336432" class="fil1" points="548.115,684.477 1684,1820.36 1684,1829.85 548.115,693.964 "/>
     <polygon id="_286336528" class="fil1" points="487.355,1421.91 1623.24,2557.79 1620.92,2557.68 1618.67,2557.35 1616.5,2556.81 1614.41,2556.07 1612.42,2555.14 1610.53,2554.04 1608.76,2552.77 472.883,1416.89 474.65,1418.16 476.536,1419.26 478.529,1420.19 480.617,1420.93 482.791,1421.47 485.041,1421.8 "/>
     <polygon id="_286336624" class="fil1" points="1398.58,649.444 2534.46,1785.33 2534.46,1859.37 1398.58,723.491 "/>
     <polygon id="_286336720" class="fil1" points="1584,1078.1 2719.88,2213.98 2719.76,2216.37 2719.41,2218.69 2718.83,2220.93 2718.05,2223.07 2717.06,2225.12 2715.89,2227.04 2714.55,2228.84 2713.04,2230.5 2711.38,2232.01 2709.58,2233.35 2707.66,2234.52 2705.62,2235.5 2703.47,2236.29 2701.23,2236.86 2698.91,2237.22 2696.53,2237.34 1560.64,1101.46 1563.03,1101.34 1565.35,1100.98 1567.59,1100.41 1569.74,1099.62 1571.78,1098.64 1573.7,1097.47 1575.5,1096.12 1577.16,1094.62 1578.67,1092.96 1580.01,1091.16 1581.18,1089.23 1582.16,1087.19 1582.95,1085.05 1583.53,1082.81 1583.88,1080.49 "/>
     <polygon id="_286337416" class="fil1" points="548.115,693.964 1684,1829.85 1661.23,1833.49 525.348,697.604 "/>
     <polygon id="_286337296" class="fil1" points="1488.46,1421.91 2624.35,2557.79 1623.24,2557.79 487.355,1421.91 "/>
     <polygon id="_286337032" class="fil1" points="1560.64,1101.46 2696.53,2237.34 2669.68,2237.34 1533.8,1101.46 "/>
     <polygon id="_286337056" class="fil1" points="1393.24,634.588 2529.12,1770.47 2530.47,1772.27 2531.64,1774.19 2532.62,1776.24 2533.41,1778.38 2533.98,1780.62 2534.34,1782.94 2534.46,1785.33 1398.58,649.444 1398.45,647.056 1398.1,644.737 1397.53,642.499 1396.74,640.353 1395.76,638.311 1394.59,636.386 "/>
     <polygon id="_286336816" class="fil1" points="1511.82,746.847 2647.7,1882.73 2647.7,1999.19 1511.82,863.305 "/>
     <polygon id="_286337104" class="fil1" points="1506.49,731.99 2642.37,1867.87 2643.71,1869.67 2644.88,1871.6 2645.87,1873.64 2646.65,1875.78 2647.23,1878.02 2647.58,1880.34 2647.7,1882.73 1511.82,746.847 1511.7,744.459 1511.35,742.14 1510.77,739.902 1509.99,737.756 1509,735.714 1507.83,733.789 "/>
     <polygon id="_286337176" class="fil1" points="1584,858.346 2719.88,1994.23 2719.88,2213.98 1584,1078.1 "/>
     <polygon id="_286337632" class="fil1" points="1578.67,843.49 2714.55,1979.37 2715.89,1981.17 2717.06,1983.1 2718.05,1985.14 2718.83,1987.28 2719.41,1989.52 2719.76,1991.84 2719.88,1994.23 1584,858.346 1583.88,855.957 1583.53,853.639 1582.95,851.401 1582.16,849.255 1581.18,847.214 1580.01,845.288 "/>
    </g>
    <path id="_451249544" class="fil1" d="M1584 858.346l0 219.756c0,12.8976 -10.4563,23.3551 -23.3551,23.3551l-26.8488 0 0 -28.3146 -21.9756 0 0 325.414c0,0.405118 -0.0106299,0.806694 -0.0295276,1.20709 -0.628347,12.3378 -10.8331,22.148 -23.3268,22.148l-1001.11 0c-12.4937,0 -22.6961,-9.81024 -23.3244,-22.148 -0.0200788,-0.400394 -0.0307087,-0.801969 -0.0307087,-1.20709l0 -421.885 0 -229.824c0,-12.8988 10.4563,-23.3563 23.3551,-23.3563l864.509 0 0 -27.3366 -537.528 0 0 -11.6776 -266.221 0 0 9.4878 -22.7669 3.64016 0 -49.6158 22.7669 3.64134 0 9.49016 266.221 0 0 -11.6787 537.528 0.00236221c0,-12.8988 10.4575,-23.3551 23.3563,-23.3551 12.8988,0 23.3551,10.4563 23.3551,23.3551l0 74.0469 89.889 0c12.8988,0 23.3563,10.4575 23.3563,23.3563l0 116.458 21.9756 0 0 -28.3146 26.8488 0c12.8988,0 23.3551,10.4575 23.3551,23.3551z"/>
   </g>
  </g>
  <path class="fil2" d="M1024 -0.0011811c565.539,0 1024,458.462 1024,1024 0,565.539 -458.462,1024 -1024,1024 -565.539,0 -1024,-458.462 -1024,-1024 0,-565.539 458.462,-1024 1024,-1024z"/>
  <polygon class="fil3" points="849.688,684.477 534.068,684.477 534.068,661.12 849.688,661.12 "/>
  <polygon class="fil4" points="814.335,649.441 1374.87,649.441 1374.87,696.154 814.335,696.154 "/>
  <path class="fil5" d="M1398.58 649.444c0,-12.8988 -10.4563,-23.3551 -23.3551,-23.3551 -12.8988,0 -23.3563,10.4563 -23.3563,23.3551l0 85.4398c0,12.8988 10.4575,23.3563 23.3563,23.3563 12.8988,0 23.3551,-10.4575 23.3551,-23.3563l0 -85.4398z"/>
  <rect class="fil6" x="1506.44" y="863.305" width="44.8565" height="209.836"/>
  <path class="fil7" d="M1533.8 834.99l26.8488 0c12.8988,0 23.3551,10.4575 23.3551,23.3551l0 219.756c0,12.8976 -10.4563,23.3551 -23.3551,23.3551l-26.8488 0 0 -266.466z"/>
  <path class="fil8" d="M487.355 723.491l1001.11 0c12.8988,0 23.3563,10.4575 23.3563,23.3563l0 651.709c0,12.8988 -10.4575,23.3551 -23.3563,23.3551l-1001.11 0c-12.8988,0 -23.3551,-10.4563 -23.3551,-23.3551l0 -651.709c0,-12.8988 10.4563,-23.3563 23.3551,-23.3563z"/>
  <path class="fil9" d="M1511.82 976.671l0 421.885c0,12.8988 -10.4575,23.3551 -23.3563,23.3551l-1001.11 0c-12.8988,0 -23.3551,-10.4563 -23.3551,-23.3551l0 -421.885 1047.82 0z"/>
  <path class="fil10" d="M1511.79 1399.76c-0.628347,12.3378 -10.8331,22.148 -23.3268,22.148l-1001.11 0c-12.4925,0 -22.6973,-9.81024 -23.3256,-22.148l1047.76 0z"/>
  <path class="fil11" d="M646.691 1089.33l-49.904 0 0 -35.7591 49.904 0 0 35.7591zm0 53.276l-49.904 0 0 -35.7591 49.904 0 0 35.7591zm0 53.2772l-49.904 0 0 -35.7603 49.904 0 0 35.7603zm0 53.276l-49.904 0 0 -35.7603 49.904 0 0 35.7603zm0 53.276l-49.904 0 0 -35.7603 49.904 0 0 35.7603zm67.4221 -213.105l-49.9052 0 0 -35.7591 49.9052 0 0 35.7591zm0 53.276l-49.9052 0 0 -35.7591 49.9052 0 0 35.7591zm0 53.2772l-49.9052 0 0 -35.7603 49.9052 0 0 35.7603zm0 53.276l-49.9052 0 0 -35.7603 49.9052 0 0 35.7603zm0 53.276l-49.9052 0 0 -35.7603 49.9052 0 0 35.7603zm67.4197 -213.105l-49.904 0 0 -35.7591 49.904 0 0 35.7591zm0 53.276l-49.904 0 0 -35.7591 49.904 0 0 35.7591zm0 53.2772l-49.904 0 0 -35.7603 49.904 0 0 35.7603zm0 53.276l-49.904 0 0 -35.7603 49.904 0 0 35.7603zm0 53.276l-49.904 0 0 -35.7603 49.904 0 0 35.7603zm67.4209 -213.105l-49.904 0 0 -35.7591 49.904 0 0 35.7591zm0 53.276l-49.904 0 0 -35.7591 49.904 0 0 35.7591zm0 53.2772l-49.904 0 0 -35.7603 49.904 0 0 35.7603zm0 53.276l-49.904 0 0 -35.7603 49.904 0 0 35.7603zm0 53.276l-49.904 0 0 -35.7603 49.904 0 0 35.7603zm67.4197 -213.105l-49.9028 0 0 -35.7591 49.9028 0 0 35.7591zm0 53.276l-49.9028 0 0 -35.7591 49.9028 0 0 35.7591zm0 53.2772l-49.9028 0 0 -35.7603 49.9028 0 0 35.7603zm0 53.276l-49.9028 0 0 -35.7603 49.9028 0 0 35.7603zm0 53.276l-49.9028 0 0 -35.7603 49.9028 0 0 35.7603zm-378.912 0c-4.83662,0 -8.75788,3.92126 -8.75788,8.75788 0,4.83662 3.92126,8.75788 8.75788,8.75788l41.8087 0 0 31.2024c0,4.83662 3.92244,8.75788 8.75906,8.75788 4.83662,0 8.75788,-3.92126 8.75788,-8.75788l0 -31.2024 49.904 0 0 31.2024c0,4.83662 3.92126,8.75788 8.75906,8.75788 4.83662,0 8.75788,-3.92126 8.75788,-8.75788l0 -31.2024 49.9052 0 0 31.2024c0,4.83662 3.92126,8.75788 8.75788,8.75788 4.83662,0 8.75788,-3.92126 8.75788,-8.75788l0 -31.2024 49.904 0 0 31.2024c0,4.83662 3.92126,8.75788 8.75906,8.75788 4.83662,0 8.75788,-3.92126 8.75788,-8.75788l0 -31.2024 49.904 0 0 31.2024c0,4.83662 3.92126,8.75788 8.75788,8.75788 4.8378,0 8.75906,-3.92126 8.75906,-8.75788l0 -31.2024 49.9028 0 0 31.2024c0,4.83662 3.92244,8.75788 8.75906,8.75788 4.83662,0 8.75788,-3.92126 8.75788,-8.75788l0 -31.2024 41.8099 0c4.8378,0 8.75906,-3.92126 8.75906,-8.75788 0,-4.83662 -3.92126,-8.75788 -8.75906,-8.75788l-41.8099 0 0 -35.7603 41.8099 0c4.8378,0 8.75906,-3.92126 8.75906,-8.75788 0,-4.83662 -3.92126,-8.75788 -8.75906,-8.75788l-41.8099 0 0 -35.7603 41.8099 0c4.8378,0 8.75906,-3.92126 8.75906,-8.75788 0,-4.83662 -3.92126,-8.75788 -8.75906,-8.75788l-41.8099 0 0 -35.7603 41.8099 0c4.8378,0 8.75906,-3.92126 8.75906,-8.75906 0,-4.83662 -3.92126,-8.75788 -8.75906,-8.75788l-41.8099 0 0 -35.7591 41.8099 0c4.8378,0 8.75906,-3.92244 8.75906,-8.75906 0,-4.83662 -3.92126,-8.75788 -8.75906,-8.75788l-41.8099 0 0 -35.7591 41.8099 0c4.8378,0 8.75906,-3.92244 8.75906,-8.75906 0,-4.83662 -3.92126,-8.75788 -8.75906,-8.75788l-41.8099 0 0 -31.2012c0,-4.83662 -3.92126,-8.75788 -8.75788,-8.75788 -4.83662,0 -8.75906,3.92126 -8.75906,8.75788l0 31.2012 -49.9028 0 0 -31.2012c0,-4.83662 -3.92126,-8.75788 -8.75906,-8.75788 -4.83662,0 -8.75788,3.92126 -8.75788,8.75788l0 31.2012 -49.904 0 0 -31.2012c0,-4.83662 -3.92126,-8.75788 -8.75788,-8.75788 -4.8378,0 -8.75906,3.92126 -8.75906,8.75788l0 31.2012 -49.904 0 0 -31.2012c0,-4.83662 -3.92126,-8.75788 -8.75788,-8.75788 -4.83662,0 -8.75788,3.92126 -8.75788,8.75788l0 31.2012 -49.9052 0 0 -31.2012c0,-4.83662 -3.92126,-8.75788 -8.75788,-8.75788 -4.8378,0 -8.75906,3.92126 -8.75906,8.75788l0 31.2012 -49.904 0 0 -31.2012c0,-4.83662 -3.92126,-8.75788 -8.75788,-8.75788 -4.83662,0 -8.75906,3.92126 -8.75906,8.75788l0 31.2012 -41.8087 0c-4.83662,0 -8.75788,3.92126 -8.75788,8.75788 0,4.83662 3.92126,8.75906 8.75788,8.75906l41.8087 0 0 35.7591 -41.8087 0c-4.83662,0 -8.75788,3.92126 -8.75788,8.75788 0,4.83662 3.92126,8.75906 8.75788,8.75906l41.8087 0 0 35.7591 -41.8087 0c-4.83662,0 -8.75788,3.92126 -8.75788,8.75788 0,4.8378 3.92126,8.75906 8.75788,8.75906l41.8087 0 0 35.7603 -41.8087 0c-4.83662,0 -8.75788,3.92126 -8.75788,8.75788 0,4.83662 3.92126,8.75788 8.75788,8.75788l41.8087 0 0 35.7603 -41.8087 0c-4.83662,0 -8.75788,3.92126 -8.75788,8.75788 0,4.83662 3.92126,8.75788 8.75788,8.75788l41.8087 0 0 35.7603 -41.8087 0z"/>
  <polygon class="fil12" points="624.592,771.661 600.396,771.661 582.879,771.661 558.682,771.661 541.165,771.661 512.17,771.661 512.17,936.04 860.691,936.04 906.561,936.04 1463.65,936.04 1463.65,771.661 1392.94,771.661 1375.42,771.661 1351.23,771.661 1333.72,771.661 1309.52,771.661 1292,771.661 1267.81,771.661 1250.29,771.661 1226.09,771.661 1208.57,771.661 1184.38,771.661 1166.86,771.661 1142.67,771.661 1125.15,771.661 1100.95,771.661 1083.44,771.661 1059.24,771.661 1041.72,771.661 1017.53,771.661 1000.01,771.661 975.813,771.661 958.296,771.661 934.1,771.661 916.585,771.661 892.386,771.661 874.869,771.661 850.674,771.661 833.159,771.661 808.961,771.661 791.444,771.661 767.248,771.661 749.731,771.661 725.534,771.661 708.017,771.661 683.822,771.661 666.305,771.661 642.109,771.661 "/>
  <path class="fil13" d="M579.539 771.661l-17.5169 0 0 62.2678c0,4.83662 3.92126,8.75906 8.75906,8.75906 4.83662,0 8.75788,-3.92244 8.75788,-8.75906l0 -62.2678z"/>
  <path class="fil13" d="M621.253 771.661l-17.5169 0 0 28.6099c0,4.83662 3.92126,8.75788 8.75788,8.75788 4.83662,0 8.75906,-3.92126 8.75906,-8.75788l0 -28.6099z"/>
  <path class="fil13" d="M662.966 771.661l-17.5169 0 0 62.2678c0,4.83662 3.92126,8.75906 8.75906,8.75906 4.83662,0 8.75788,-3.92244 8.75788,-8.75906l0 -62.2678z"/>
  <path class="fil13" d="M704.679 771.661l-17.5158 0 0 28.6099c0,4.83662 3.92126,8.75788 8.75788,8.75788 4.83662,0 8.75788,-3.92126 8.75788,-8.75788l0 -28.6099z"/>
  <path class="fil13" d="M746.391 771.661l-17.5169 0 0 62.2678c0,4.83662 3.92244,8.75906 8.75906,8.75906 4.83662,0 8.75788,-3.92244 8.75788,-8.75906l0 -62.2678z"/>
  <path class="fil13" d="M913.243 771.661l-17.5158 0 0 62.2678c0,4.83662 3.92126,8.75906 8.75788,8.75906 4.83662,0 8.75788,-3.92244 8.75788,-8.75906l0 -62.2678z"/>
  <path class="fil13" d="M1080.1 771.661l-17.5158 0 0 62.2678c0,4.83662 3.92126,8.75906 8.75788,8.75906 4.83662,0 8.75788,-3.92244 8.75788,-8.75906l0 -62.2678z"/>
  <path class="fil13" d="M1246.95 771.661l-17.5169 0 0 62.2678c0,4.83662 3.92244,8.75906 8.75906,8.75906 4.83662,0 8.75788,-3.92244 8.75788,-8.75906l0 -62.2678z"/>
  <path class="fil13" d="M788.105 771.661l-17.5169 0 0 28.6099c0,4.83662 3.92126,8.75788 8.75788,8.75788 4.8378,0 8.75906,-3.92126 8.75906,-8.75788l0 -28.6099z"/>
  <path class="fil13" d="M954.957 771.661l-17.5158 0 0 28.6099c0,4.83662 3.92126,8.75788 8.75788,8.75788 4.83662,0 8.75788,-3.92126 8.75788,-8.75788l0 -28.6099z"/>
  <path class="fil13" d="M1121.81 771.661l-17.5169 0 0 28.6099c0,4.83662 3.92126,8.75788 8.75788,8.75788 4.83662,0 8.75906,-3.92126 8.75906,-8.75788l0 -28.6099z"/>
  <path class="fil13" d="M1288.66 771.661l-17.5169 0 0 28.6099c0,4.83662 3.92126,8.75788 8.75788,8.75788 4.83662,0 8.75906,-3.92126 8.75906,-8.75788l0 -28.6099z"/>
  <path class="fil13" d="M829.818 771.661l-17.5169 0 0 62.2678c0,4.83662 3.92126,8.75906 8.75906,8.75906 4.83662,0 8.75788,-3.92244 8.75788,-8.75906l0 -62.2678z"/>
  <path class="fil13" d="M996.67 771.661l-17.5169 0 0 62.2678c0,4.83662 3.92126,8.75906 8.75906,8.75906 4.83662,0 8.75788,-3.92244 8.75788,-8.75906l0 -62.2678z"/>
  <path class="fil13" d="M1163.52 771.661l-17.5169 0 0 62.2678c0,4.83662 3.92126,8.75906 8.75906,8.75906 4.83662,0 8.75788,-3.92244 8.75788,-8.75906l0 -62.2678z"/>
  <path class="fil13" d="M1330.38 771.661l-17.5169 0 0 62.2678c0,4.83662 3.92126,8.75906 8.75906,8.75906 4.83662,0 8.75788,-3.92244 8.75788,-8.75906l0 -62.2678z"/>
  <path class="fil13" d="M871.531 771.661l-17.5158 0 0 28.6099c0,4.83662 3.92126,8.75788 8.75788,8.75788 4.83662,0 8.75788,-3.92126 8.75788,-8.75788l0 -28.6099z"/>
  <path class="fil13" d="M1038.38 771.661l-17.5169 0 0 28.6099c0,4.83662 3.92244,8.75788 8.75906,8.75788 4.83662,0 8.75788,-3.92126 8.75788,-8.75788l0 -28.6099z"/>
  <path class="fil13" d="M1205.24 771.661l-17.5169 0 0 28.6099c0,4.83662 3.92244,8.75788 8.75906,8.75788 4.83662,0 8.75788,-3.92126 8.75788,-8.75788l0 -28.6099z"/>
  <path class="fil13" d="M1372.09 771.661l-17.5158 0 0 28.6099c0,4.83662 3.92126,8.75788 8.75788,8.75788 4.83662,0 8.75788,-3.92126 8.75788,-8.75788l0 -28.6099z"/>
  <path class="fil13" d="M1413.8 771.661l-17.5158 0 0 62.2678c0,4.83662 3.92126,8.75906 8.75788,8.75906 4.83662,0 8.75788,-3.92244 8.75788,-8.75906l0 -62.2678z"/>
  <polygon class="fil14" points="525.348,647.99 548.115,651.631 548.115,693.964 525.348,697.604 "/>
  <circle class="fil15" cx="1375.22" cy="672.798" r="10.1282"/>
  <path class="fil16" d="M1240.67 1163c-8.86654,-26.1047 -7.02638,-54.352 5.1626,-79.0831 12.1902,-24.7323 33.4701,-43.3973 59.5772,-52.265 26.1036,-8.8689 54.3544,-7.0252 79.0831,5.1626 24.7323,12.1902 43.3973,33.4701 52.265,59.5772 8.8689,26.1036 7.02638,54.3532 -5.16142,79.082 -12.189,24.7288 -33.4701,43.3985 -59.576,52.265 -26.1059,8.87009 -54.352,7.02875 -79.0843,-5.16142 -24.7299,-12.189 -43.3985,-33.4713 -52.2662,-59.5772z"/>
  <path class="fil17" d="M1260.71 1156.19c7.063,20.7921 21.887,37.6937 41.5855,47.4024 19.702,9.71103 42.1311,11.1721 62.9245,4.1067 20.7921,-7.06182 37.6925,-21.8858 47.4024,-41.5855 9.70867,-19.6996 11.1709,-42.1311 4.1067,-62.9221 -7.063,-20.7945 -21.8835,-37.6925 -41.5855,-47.4036 -19.6984,-9.70867 -42.1323,-11.1721 -62.9233,-4.10788 -20.7945,7.063 -37.6925,21.8835 -47.4036,41.5855 -9.70985,19.7008 -11.1697,42.1311 -4.1067,62.9245z"/>
  <path class="fil18" d="M1410.9 1169.42c0.595276,-1.08307 1.16811,-2.18386 1.71851,-3.29882 0.549213,-1.11496 1.07244,-2.24055 1.56969,-3.37205l-58.7445 -28.9536 -3.28937 6.67205 58.7457 28.9524z"/>
  <path class="fil16" d="M1168.26 1079.33c2.46024,16.4445 -1.66417,33.0012 -11.5536,46.3689 -9.88938,13.3665 -24.515,22.1528 -40.9595,24.6118 -16.4445,2.45906 -33.0024,-1.66417 -46.3689,-11.5536 -13.3677,-9.88938 -22.1551,-24.5162 -24.613,-40.9607 -2.46024,-16.4433 1.66417,-33.0012 11.5536,-46.3678 9.88938,-13.3677 24.5138,-22.1551 40.9607,-24.613 16.4433,-2.46024 33.0012,1.66417 46.3678,11.5536 13.3677,9.88938 22.1551,24.5162 24.613,40.9607z"/>
  <path class="fil17" d="M1151.42 1081.84c-1.79055,-11.9799 -8.1626,-22.5862 -17.902,-29.7921 -9.73938,-7.20473 -21.7453,-10.1953 -33.7252,-8.40355 -11.9811,1.79055 -22.5851,8.1626 -29.791,17.902 -7.20473,9.73938 -10.1953,21.7453 -8.40355,33.7252 1.79055,11.9787 8.1626,22.5862 17.902,29.791 9.73938,7.20473 21.7465,10.1953 33.7252,8.40237 11.9799,-1.79055 22.5851,-8.16142 29.791,-17.9008 7.20473,-9.7382 10.1953,-21.7453 8.40355,-33.724z"/>
  <path class="fil18" d="M1135.91 1053.86c-0.785434,-0.609449 -1.5815,-1.21181 -2.38583,-1.80709 -0.804331,-0.594095 -1.61339,-1.17874 -2.42599,-1.75276l-15.9225 21.5232 4.81181 3.55866 15.9225 -21.5221z"/>
  <path class="fil16" d="M1168.26 1247.03c2.46024,16.4433 -1.66417,33.0012 -11.5536,46.3678 -9.88938,13.3677 -24.515,22.154 -40.9595,24.6118 -16.4445,2.46024 -33.0024,-1.66299 -46.3689,-11.5524 -13.3677,-9.88938 -22.1551,-24.5162 -24.613,-40.9607 -2.46024,-16.4433 1.66417,-33.0012 11.5536,-46.3678 9.88938,-13.3677 24.5138,-22.1551 40.9607,-24.613 16.4433,-2.46024 33.0012,1.66417 46.3678,11.5536 13.3677,9.88938 22.1551,24.5162 24.613,40.9607z"/>
  <path class="fil17" d="M1151.42 1249.55c-1.79055,-11.9787 -8.1626,-22.5851 -17.902,-29.791 -9.73938,-7.20473 -21.7453,-10.1953 -33.7252,-8.40355 -11.9811,1.79055 -22.5851,8.1626 -29.791,17.902 -7.20473,9.7382 -10.1953,21.7453 -8.40355,33.724 1.79055,11.9799 8.1626,22.5862 17.902,29.7921 9.73938,7.20473 21.7465,10.1941 33.7252,8.40237 11.9799,-1.79055 22.5851,-8.16142 29.791,-17.9008 7.20473,-9.73938 10.1953,-21.7453 8.40355,-33.7252z"/>
  <path class="fil18" d="M1135.91 1221.57c-0.785434,-0.609449 -1.5815,-1.21181 -2.38583,-1.80709 -0.804331,-0.595276 -1.61339,-1.17874 -2.42599,-1.75276l-15.9225 21.5221 4.81181 3.55985 15.9225 -21.5221z"/>
  <rect class="fil19" x="1273.89" y="1291.34" width="59.3018" height="27.3699" rx="11.4047" ry="11.4047"/>
  <rect class="fil20" x="1365.13" y="1291.34" width="59.3018" height="27.3699" rx="11.4047" ry="11.4047"/>
  <path class="fil21" d="M568.861 904.113l-3.44055 0 0 -21.9331c-0.829134,0.790158 -1.91221,1.58032 -3.25748,2.36929 -1.35,0.790158 -2.55827,1.38425 -3.62835,1.77638l0 -3.32244c1.9252,-0.908268 3.60945,-2.00433 5.05158,-3.29055 1.43622,-1.29213 2.46142,-2.53937 3.06142,-3.75355l2.21339 0 0 28.154zm109.528 -3.30945l0 3.30945 -18.5327 0c-0.0259843,-0.829134 0.103937,-1.6252 0.398032,-2.38937 0.470079,-1.26614 1.22717,-2.50512 2.26536,-3.73347 1.0441,-1.22008 2.54528,-2.63622 4.50355,-4.24252 3.04843,-2.5004 5.11181,-4.47874 6.18189,-5.94095 1.07126,-1.45512 1.6063,-2.83937 1.6063,-4.13859 0,-1.36417 -0.490158,-2.51221 -1.46221,-3.45355 -0.979135,-0.933072 -2.25236,-1.40315 -3.81851,-1.40315 -1.65827,0 -2.98347,0.497244 -3.97559,1.49528 -0.999213,0.992127 -1.50236,2.36929 -1.51536,4.12559l-3.5374 -0.359055c0.240945,-2.64331 1.15512,-4.65473 2.73544,-6.0378 1.57914,-1.38543 3.70748,-2.07638 6.37087,-2.07638 2.68937,0 4.81772,0.751182 6.38386,2.23937 1.57323,1.4941 2.3563,3.34134 2.3563,5.54882 0,1.12205 -0.227953,2.2252 -0.692127,3.30945 -0.457087,1.08307 -1.22008,2.2252 -2.28425,3.42048 -1.06299,1.2 -2.83229,2.84646 -5.3067,4.93465 -2.06221,1.73622 -3.38859,2.91142 -3.97559,3.5315 -0.588189,0.612993 -1.07126,1.23425 -1.4563,1.86024l13.7551 0zm86.3209 -4.09252l3.44055 -0.457087c0.398032,1.95236 1.07008,3.35551 2.01732,4.21772 0.951969,0.861024 2.10827,1.29213 3.47244,1.29213 1.61811,0 2.98937,-0.561024 4.1067,-1.68425 1.10906,-1.12323 1.67008,-2.51339 1.67008,-4.17166 0,-1.57914 -0.514961,-2.88544 -1.54725,-3.91063 -1.03819,-1.02402 -2.3504,-1.54016 -3.94252,-1.54016 -0.65315,0 -1.46221,0.131102 -2.42835,0.38504l0.38504 -3.02244c0.227953,0.0259843 0.412205,0.0389764 0.555119,0.0389764 1.46221,0 2.78032,-0.383859 3.95551,-1.14803 1.1752,-0.764174 1.76339,-1.94528 1.76339,-3.53859 0,-1.26024 -0.431103,-2.31024 -1.28622,-3.13229 -0.855119,-0.830316 -1.95827,-1.24843 -3.30945,-1.24843 -1.33937,0 -2.45551,0.424016 -3.3437,1.26024 -0.892914,0.843308 -1.46811,2.10945 -1.72323,3.79252l-3.43937 -0.612993c0.418111,-2.31142 1.37717,-4.09961 2.86536,-5.36575 1.49528,-1.26614 3.34961,-1.9063 5.5689,-1.9063 1.52717,0 2.9374,0.333071 4.22363,0.98504 1.28504,0.660237 2.27126,1.55433 2.9563,2.68937 0.679134,1.13622 1.0252,2.3374 1.0252,3.61654 0,1.20827 -0.327166,2.31142 -0.979135,3.31063 -0.65315,0.992127 -1.61221,1.78228 -2.88544,2.36929 1.65827,0.379134 2.94449,1.17402 3.86457,2.38229 0.914174,1.20118 1.37126,2.70945 1.37126,4.51654 0,2.44843 -0.88819,4.52481 -2.67756,6.22914 -1.7811,1.70315 -4.04055,2.55236 -6.7689,2.55236 -2.46024,0 -4.50355,-0.732284 -6.12993,-2.2004 -1.62402,-1.46221 -2.55236,-3.36142 -2.78032,-5.69882zm115.409 7.40197l0 -6.71103 -12.1606 0 0 -3.15945 12.7949 -18.1665 2.81221 0 0 18.1665 3.78662 0 0 3.15945 -3.78662 0 0 6.71103 -3.44646 0zm0 -9.87048l0 -12.6366 -8.77205 12.6366 8.77205 0zm93.3662 2.52756l3.61536 -0.307087c0.26811,1.76221 0.88819,3.08032 1.86142,3.96851 0.979135,0.88819 2.15315,1.33228 3.5315,1.33228 1.65709,0 3.06142,-0.627166 4.20355,-1.87323 1.14921,-1.25315 1.72323,-2.9126 1.72323,-4.97481 0,-1.96536 -0.549213,-3.5126 -1.65118,-4.64764 -1.10315,-1.13622 -2.54646,-1.70433 -4.33583,-1.70433 -1.10906,0 -2.10709,0.255118 -3.00236,0.758268 -0.894095,0.501969 -1.59213,1.15512 -2.10118,1.95709l-3.2315 -0.416929 2.71536 -14.4 13.9429 0 0 3.28937 -11.1886 0 -1.51417 7.53308c1.68425,-1.1752 3.45355,-1.76221 5.30079,-1.76221 2.44843,0 4.51063,0.848032 6.19489,2.54528 1.68425,1.69843 2.52638,3.87756 2.52638,6.54095 0,2.53937 -0.744095,4.73386 -2.21929,6.58111 -1.80236,2.26417 -4.2567,3.4004 -7.363,3.4004 -2.55236,0 -4.63583,-0.712205 -6.24804,-2.14134 -1.61221,-1.42913 -2.53229,-3.32244 -2.76024,-5.67874zm122.256 -13.8272l-3.42048 0.26811c-0.305906,-1.35118 -0.737008,-2.33622 -1.29921,-2.94331 -0.933072,-0.986221 -2.08229,-1.47638 -3.44646,-1.47638 -1.09606,0 -2.0563,0.307087 -2.88425,0.921261 -1.08425,0.788977 -1.93937,1.94528 -2.56536,3.45945 -0.62126,1.51417 -0.947245,3.67559 -0.973229,6.48189 0.829134,-1.26024 1.84134,-2.19921 3.04134,-2.81339 1.19528,-0.607087 2.45433,-0.914174 3.76654,-0.914174 2.29843,0 4.24961,0.843308 5.863,2.53347 1.61221,1.69016 2.42126,3.87166 2.42126,6.54686 0,1.76339 -0.38504,3.39449 -1.14213,4.90985 -0.758268,1.50709 -1.80236,2.66929 -3.12638,3.47244 -1.32638,0.80315 -2.82756,1.20118 -4.51181,1.20118 -2.87244,0 -5.20867,-1.05118 -7.01693,-3.16654 -1.81536,-2.10827 -2.71654,-5.5878 -2.71654,-10.4315 0,-5.41772 0.999213,-9.35434 3.00355,-11.8146 1.74331,-2.14134 4.0937,-3.21851 7.05709,-3.21851 2.2004,0 4.00748,0.620079 5.41772,1.86024 1.40906,1.23425 2.25236,2.94449 2.53229,5.12363zm-14.0539 12.0839c0,1.18819 0.255118,2.32441 0.757087,3.40748 0.50315,1.08425 1.20827,1.9063 2.10945,2.47441 0.905906,0.568111 1.86024,0.855119 2.85236,0.855119 1.45512,0 2.70236,-0.588189 3.74646,-1.76339 1.0441,-1.1752 1.56732,-2.76732 1.56732,-4.77756 0,-1.93937 -0.516142,-3.46654 -1.54843,-4.58268 -1.02992,-1.11732 -2.32914,-1.67126 -3.89646,-1.67126 -1.56024,0 -2.87835,0.553937 -3.9626,1.67126 -1.08307,1.11614 -1.6252,2.57835 -1.6252,4.38662zm100.82 -15.2752l0 -3.30945 18.1465 0 0 2.67638c-1.7811,1.89921 -3.5504,4.42559 -5.3067,7.57205 -1.74921,3.14646 -3.10748,6.39095 -4.05945,9.71339 -0.692127,2.3504 -1.12913,4.91575 -1.31929,7.70906l-3.5374 0c0.0377953,-2.2063 0.468898,-4.86969 1.29921,-7.99607 0.827953,-3.12047 2.01614,-6.13583 3.56339,-9.03544 1.55315,-2.89725 3.19843,-5.34567 4.94764,-7.32993l-13.7339 0zm109.468 9.15946c-1.42913,-0.523229 -2.48622,-1.26732 -3.17835,-2.24055 -0.68504,-0.964961 -1.0311,-2.12717 -1.0311,-3.47835 0,-2.04331 0.731103,-3.75355 2.19921,-5.1437 1.46929,-1.39134 3.41457,-2.08937 5.84882,-2.08937 2.44843,0 4.41969,0.711024 5.91497,2.13425 1.48819,1.42323 2.23229,3.15355 2.23229,5.19685 0,1.29921 -0.338977,2.42835 -1.01811,3.39331 -0.686221,0.960237 -1.71732,1.70433 -3.10748,2.22756 1.71614,0.561024 3.02835,1.46102 3.92953,2.71536 0.894095,1.24606 1.3441,2.74134 1.3441,4.47048 0,2.40355 -0.848032,4.41378 -2.53819,6.04489 -1.69725,1.63228 -3.92953,2.44843 -6.69804,2.44843 -2.76851,0 -4.9937,-0.816142 -6.69095,-2.45433 -1.69725,-1.63819 -2.54646,-3.6815 -2.54646,-6.12993 0,-1.82126 0.464174,-3.34843 1.39134,-4.58268 0.920079,-1.22717 2.23819,-2.06929 3.94843,-2.51221zm-0.690945 -5.83701c0,1.3252 0.431103,2.40945 1.27913,3.25158 0.855119,0.842127 1.96417,1.26614 3.32953,1.26614 1.3252,0 2.41536,-0.418111 3.26339,-1.25315 0.849213,-0.836221 1.26614,-1.86024 1.26614,-3.06851 0,-1.26614 -0.431103,-2.32441 -1.30512,-3.18544 -0.875198,-0.862205 -1.95827,-1.29331 -3.26457,-1.29331 -1.31221,0 -2.40118,0.424016 -3.26929,1.26024 -0.868111,0.843308 -1.29921,1.85433 -1.29921,3.02244zm-1.11024 12.952c0,0.979135 0.23504,1.9311 0.699213,2.84528 0.462992,0.921261 1.15512,1.63228 2.0752,2.13425 0.920079,0.50315 1.9063,0.758268 2.96457,0.758268 1.6441,0 3.00236,-0.529134 4.07244,-1.59331 1.07126,-1.05827 1.6063,-2.40118 1.6063,-4.03465 0,-1.65709 -0.548032,-3.02835 -1.65236,-4.11142 -1.10315,-1.08425 -2.48622,-1.62638 -4.14449,-1.62638 -1.61929,0 -2.95748,0.536221 -4.02166,1.6063 -1.06417,1.07717 -1.59921,2.41536 -1.59921,4.02166zm101.414 1.6063l3.30945 -0.307087c0.281103,1.55315 0.816142,2.68229 1.6063,3.3874 0.788977,0.698032 1.80118,1.05118 3.04134,1.05118 1.05709,0 1.98425,-0.242126 2.7815,-0.731103 0.796064,-0.484252 1.44921,-1.12913 1.95709,-1.93937 0.517323,-0.809056 0.941339,-1.90512 1.28622,-3.27756 0.340158,-1.37599 0.516142,-2.78032 0.516142,-4.20945 0,-0.15 -0.00590552,-0.38504 -0.0188977,-0.68504 -0.692127,1.09016 -1.63347,1.98425 -2.82047,2.66339 -1.19528,0.68504 -2.4874,1.02402 -3.87048,1.02402 -2.32441,0 -4.28977,-0.840946 -5.89489,-2.52638 -1.6063,-1.68425 -2.40945,-3.89646 -2.40945,-6.65079 0,-2.84646 0.836221,-5.13071 2.51339,-6.86812 1.67717,-1.73622 3.77953,-2.60433 6.30591,-2.60433 1.82126,0 3.48662,0.496063 5.00079,1.4752 1.50709,0.979135 2.6563,2.38229 3.43937,4.19764 0.784253,1.81417 1.1752,4.44449 1.1752,7.89095 0,3.57756 -0.38504,6.43111 -1.16221,8.55946 -0.783071,2.12126 -1.93819,3.73347 -3.47244,4.8437 -1.54016,1.10906 -3.33544,1.66417 -5.40473,1.66417 -2.19449,0 -3.9815,-0.607087 -5.37284,-1.82835 -1.39016,-1.21417 -2.22638,-2.92441 -2.5063,-5.12953zm14.0929 -12.378c0,-1.97126 -0.522048,-3.54449 -1.57323,-4.69961 -1.05709,-1.16221 -2.31614,-1.74331 -3.79843,-1.74331 -1.52717,0 -2.85945,0.627166 -3.99567,1.87323 -1.13504,1.25315 -1.70315,2.87244 -1.70315,4.8567 0,1.78937 0.540945,3.23859 1.61929,4.35473 1.07599,1.11614 2.40236,1.67126 3.9815,1.67126 1.59921,0 2.90433,-0.555119 3.92953,-1.67126 1.0311,-1.11614 1.54016,-2.66339 1.54016,-4.64174z"/>
  <path class="fil22" d="M880.429 821.483c0,-5.56654 -4.513,-10.0795 -10.0795,-10.0795 -5.56654,0 -10.0795,4.513 -10.0795,10.0795l0 111.417c0,5.56654 4.513,10.0795 10.0795,10.0795 5.56654,0 10.0795,-4.513 10.0795,-10.0795l0 -111.417z"/>
  <path class="fil23" d="M624.592 778.96l-24.1961 0 -17.5169 0 -24.1973 0 -17.5169 0 -21.6969 0 0 149.78 341.223 0 45.8693 0 549.791 0 0 -149.78 -63.4111 0 -17.5158 0 -24.1925 0 -17.5158 0 -24.1973 0 -17.5169 0 -24.1961 0 -17.5169 0 -24.1973 0 -17.5169 0 -24.1949 0 -17.5169 0 -24.1961 0 -17.5169 0 -24.1973 0 -17.5158 0 -24.1984 0 -17.5158 0 -24.1949 0 -17.5169 0 -24.1973 0 -17.5169 0 -24.1961 0 -17.5158 0 -24.1984 0 -17.5169 0 -24.1949 0 -17.5158 0 -24.1973 0 -17.5169 0 -24.1961 0 -17.5169 0 -24.1973 0 -17.5169 0 -24.1949 0 -17.5169 0 -24.1961 0 -17.5169 0zm-24.1961 -14.5984l24.1961 0 17.5169 0 24.1961 0 17.5169 0 24.1949 0 17.5169 0 24.1973 0 17.5169 0 24.1961 0 17.5169 0 24.1973 0 17.5158 0 24.1949 0 17.5169 0 24.1984 0 17.5158 0 24.1961 0 17.5169 0 24.1973 0 17.5169 0 24.1949 0 17.5158 0 24.1984 0 17.5158 0 24.1973 0 17.5169 0 24.1961 0 17.5169 0 24.1949 0 17.5169 0 24.1973 0 17.5169 0 24.1961 0 17.5169 0 24.1973 0 17.5158 0 24.1925 0 17.5158 0 70.7103 0c4.03111,0 7.29922,3.26811 7.29922,7.29922l0 164.379c0,4.03111 -3.26811,7.29922 -7.29922,7.29922l-557.09 0 -45.8693 0 -348.521 0c-4.03111,0 -7.29922,-3.26811 -7.29922,-7.29922l0 -164.379c0,-4.03111 3.26811,-7.29922 7.29922,-7.29922l28.9949 0 17.5169 0 24.1973 0 17.5169 0z"/>
 </g>
</svg>
