<?xml version="1.0" encoding="UTF-8"?>
<!DOCTYPE svg PUBLIC "-//W3C//DTD SVG 1.1//EN" "http://www.w3.org/Graphics/SVG/1.1/DTD/svg11.dtd">
<!-- Creator: CorelDRAW -->
<svg xmlns="http://www.w3.org/2000/svg" xml:space="preserve" width="2048px" height="2048px" style="shape-rendering:geometricPrecision; text-rendering:geometricPrecision; image-rendering:optimizeQuality; fill-rule:evenodd; clip-rule:evenodd"
viewBox="0 0 2048 2048"
 xmlns:xlink="http://www.w3.org/1999/xlink">
 <defs>
  <style type="text/css">
   <![CDATA[
    .fil2 {fill:none}
    .fil1 {fill:#5D4037}
    .fil0 {fill:#8D6E63}
    .fil5 {fill:#DBB98C}
    .fil3 {fill:black;fill-rule:nonzero}
    .fil9 {fill:#CCAD85;fill-rule:nonzero}
    .fil8 {fill:#DBB98C;fill-rule:nonzero}
    .fil7 {fill:#DD2C00;fill-rule:nonzero}
    .fil6 {fill:#FF3D00;fill-rule:nonzero}
    .fil4 {fill:#FFFFFE;fill-rule:nonzero}
   ]]>
  </style>
   <clipPath id="id0">
    <path d="M1024 -0.0011811c565.539,0 1024,458.462 1024,1024 0,565.539 -458.462,1024 -1024,1024 -565.539,0 -1024,-458.462 -1024,-1024 0,-565.539 458.462,-1024 1024,-1024z"/>
   </clipPath>
 </defs>
 <g id="Layer_x0020_1">
  <metadata id="CorelCorpID_0Corel-Layer"/>
  <path class="fil0" d="M1024 -0.0011811c565.539,0 1024,458.462 1024,1024 0,565.539 -458.462,1024 -1024,1024 -565.539,0 -1024,-458.462 -1024,-1024 0,-565.539 458.462,-1024 1024,-1024z"/>
  <g style="clip-path:url(#id0)">
   <g id="_451251752">
    <g>
     <polygon id="_3370701361" class="fil1" points="1197.96,1055.89 2333.84,2191.77 2185.37,2191.77 1049.49,1055.89 "/>
     <polygon id="_337070448" class="fil1" points="975.008,1055.89 2110.89,2191.77 1675.17,2191.77 539.293,1055.89 "/>
     <polygon id="_337070880" class="fil1" points="1049.49,1055.89 2185.37,2191.77 2202.17,2581.58 1066.29,1445.7 "/>
     <polygon id="_337071096" class="fil1" points="1409.23,1540.61 2545.11,2676.49 2540.84,2679.42 2536.71,2682.05 2532.71,2684.38 2528.84,2686.42 2525.1,2688.19 2521.48,2689.7 2517.97,2690.95 2514.58,2691.95 2511.29,2692.72 2508.1,2693.26 2505.02,2693.59 2502.03,2693.71 2499.13,2693.64 2496.31,2693.38 2493.58,2692.95 2490.92,2692.35 2488.34,2691.6 2485.83,2690.7 2483.38,2689.66 2480.99,2688.5 2478.65,2687.22 2476.37,2685.84 2474.13,2684.36 2471.94,2682.8 2469.79,2681.16 2467.67,2679.45 2465.58,2677.69 2463.51,2675.88 2461.47,2674.04 2459.44,2672.17 2457.43,2670.28 2455.42,2668.39 1319.54,1532.51 1321.55,1534.4 1323.56,1536.29 1325.59,1538.16 1327.63,1540 1329.7,1541.81 1331.79,1543.57 1333.91,1545.28 1336.06,1546.92 1338.25,1548.48 1340.49,1549.96 1342.77,1551.34 1345.11,1552.62 1347.49,1553.78 1349.95,1554.81 1352.46,1555.71 1355.04,1556.47 1357.7,1557.07 1360.43,1557.5 1363.25,1557.76 1366.15,1557.83 1369.14,1557.71 1372.22,1557.38 1375.41,1556.84 1378.69,1556.07 1382.09,1555.06 1385.6,1553.81 1389.22,1552.31 1392.96,1550.54 1396.83,1548.49 1400.83,1546.16 1404.96,1543.54 "/>
     <polygon id="_337071144" class="fil1" points="1237.42,1474.07 2373.3,2609.95 2374.51,2611.25 2375.63,2612.63 2376.64,2614.1 2377.54,2615.65 2378.31,2617.27 2378.97,2618.96 1243.09,1483.07 1242.43,1481.39 1241.65,1479.77 1240.76,1478.22 1239.75,1476.75 1238.63,1475.36 "/>
     <polygon id="_337070712" class="fil1" points="1262.2,1528.95 2398.08,2664.83 2407.6,2687.57 1271.72,1551.69 "/>
     <polygon id="_337070832" class="fil1" points="1271.72,1551.69 2407.6,2687.57 2408.41,2689.82 2408.97,2692.09 2409.3,2694.38 2409.4,2696.66 2409.28,2698.92 2408.94,2701.15 2408.39,2703.32 2407.64,2705.43 2406.69,2707.46 2405.55,2709.39 2404.22,2711.21 2402.71,2712.9 2401.04,2714.45 2399.2,2715.84 2397.19,2717.05 2395.04,2718.08 1259.16,1582.2 1261.31,1581.17 1263.31,1579.96 1265.16,1578.56 1266.83,1577.02 1268.34,1575.32 1269.67,1573.51 1270.81,1571.57 1271.76,1569.55 1272.51,1567.44 1273.06,1565.26 1273.4,1563.04 1273.52,1560.78 1273.42,1558.5 1273.09,1556.21 1272.53,1553.94 "/>
     <polygon id="_337070520" class="fil1" points="1259.16,1582.2 2395.04,2718.08 2393.88,2718.53 2392.72,2718.91 2391.55,2719.23 2390.37,2719.48 2389.19,2719.67 2388.01,2719.8 2386.84,2719.87 2385.66,2719.88 1249.78,1584 1250.96,1583.99 1252.13,1583.92 1253.31,1583.79 1254.49,1583.6 1255.67,1583.35 1256.84,1583.03 1258,1582.65 "/>
     <polygon id="_337071216" class="fil1" points="539.293,1055.89 1675.17,2191.77 1672.94,2191.66 1670.78,2191.33 1668.69,2190.79 1666.69,2190.06 1664.78,2189.14 1662.98,2188.05 1661.3,2186.79 1659.75,2185.39 523.874,1049.51 525.423,1050.91 527.102,1052.17 528.899,1053.26 530.806,1054.18 532.809,1054.91 534.898,1055.45 537.063,1055.78 "/>
     <polygon id="_337070856" class="fil1" points="774.31,1584 1910.19,2719.88 1907.81,2719.76 1905.49,2719.41 1903.25,2718.83 1901.11,2718.04 1899.07,2717.06 1897.14,2715.89 1895.35,2714.55 759.467,1578.67 761.264,1580.01 763.188,1581.18 765.227,1582.16 767.371,1582.95 769.607,1583.52 771.924,1583.88 "/>
     <polygon id="_337070640" class="fil1" points="1205.26,1055.89 2341.14,2191.77 2341.14,2374.14 1205.26,1238.26 "/>
     <polygon id="_337071576" class="fil1" points="1249.78,1584 2385.66,2719.88 1910.19,2719.88 774.31,1584 "/>
     <polygon id="_337071480" class="fil1" points="762.103,484.442 1897.98,1620.32 1897.95,1620.3 762.064,484.414 "/>
     <polygon id="_337071528" class="fil1" points="1257.42,471.845 2393.3,1607.73 2394.56,1609.39 2395.65,1611.17 2396.58,1613.06 2397.32,1615.04 2397.87,1617.11 2398.22,1619.26 2398.35,1621.47 1262.47,485.583 1262.34,483.374 1261.99,481.228 1261.44,479.157 1260.7,477.173 1259.77,475.287 1258.68,473.507 "/>
     <polygon id="_337071744" class="fil1" points="1262.47,485.583 2398.35,1621.47 2399.39,1633.89 2400.83,1646.34 2402.66,1658.83 2404.86,1671.34 2407.43,1683.89 2410.35,1696.47 2413.61,1709.07 2417.2,1721.71 2421.1,1734.37 2425.31,1747.06 2429.8,1759.78 2434.57,1772.53 2439.6,1785.31 2444.89,1798.12 2450.41,1810.95 2456.16,1823.81 2462.13,1836.69 2468.29,1849.61 2474.65,1862.55 2481.18,1875.51 2487.87,1888.5 2494.72,1901.52 2501.7,1914.56 2508.81,1927.62 2516.03,1940.71 2523.35,1953.83 2530.76,1966.97 2538.25,1980.13 2545.8,1993.31 2553.4,2006.52 2561.04,2019.75 2568.7,2033 1432.82,897.12 1425.16,883.867 1417.52,870.637 1409.92,857.429 1402.37,844.244 1394.88,831.083 1387.47,817.945 1380.15,804.831 1372.93,791.741 1365.82,778.675 1358.83,765.635 1351.99,752.619 1345.3,739.629 1338.77,726.664 1332.41,713.725 1326.25,700.812 1320.28,687.927 1314.53,675.067 1309.01,662.234 1303.72,649.43 1298.69,636.651 1293.92,623.902 1289.43,611.181 1285.22,598.487 1281.32,585.824 1277.73,573.189 1274.47,560.584 1271.55,548.007 1268.98,535.461 1266.77,522.946 1264.95,510.461 1263.51,498.006 "/>
     <polygon id="_337071432" class="fil1" points="1432.82,897.12 2568.7,2033 2570.98,2036.94 2573.25,2040.87 2575.53,2044.81 2577.8,2048.74 2580.08,2052.68 2582.36,2056.63 2584.63,2060.57 2586.9,2064.52 2589.17,2068.46 2591.44,2072.41 2593.71,2076.36 2595.98,2080.31 2598.24,2084.27 2600.5,2088.22 2602.75,2092.18 2605.01,2096.14 2607.25,2100.1 2609.5,2104.06 2611.74,2108.02 2613.97,2111.99 2616.2,2115.95 2618.42,2119.92 2620.63,2123.89 2622.84,2127.86 2625.05,2131.83 2627.24,2135.8 2629.43,2139.78 2631.61,2143.75 2633.78,2147.73 2635.95,2151.7 2638.1,2155.68 2640.25,2159.66 1504.37,1023.78 1502.22,1019.8 1500.06,1015.82 1497.9,1011.84 1495.73,1007.87 1493.55,1003.89 1491.36,999.918 1489.17,995.946 1486.96,991.976 1484.75,988.005 1482.54,984.036 1480.32,980.07 1478.09,976.104 1475.85,972.139 1473.62,968.176 1471.37,964.215 1469.12,960.255 1466.87,956.297 1464.62,952.34 1462.36,948.385 1460.1,944.43 1457.83,940.478 1455.56,936.529 1453.29,932.579 1451.02,928.633 1448.75,924.687 1446.47,920.743 1444.2,916.802 1441.92,912.862 1439.65,908.924 1437.37,904.987 1435.1,901.053 "/>
     <polygon id="_337071816" class="fil1" points="1504.4,1023.76 2640.29,2159.64 2641.24,2161.66 2641.98,2163.72 2642.49,2165.81 2642.8,2167.93 2642.89,2170.04 2642.78,2172.14 2642.47,2174.21 2641.97,2176.24 2641.27,2178.22 2640.38,2180.12 2639.32,2181.93 2638.08,2183.64 2636.66,2185.24 2635.07,2186.7 2633.32,2188.02 2631.41,2189.17 1495.53,1053.29 1497.44,1052.14 1499.19,1050.82 1500.78,1049.35 1502.19,1047.76 1503.44,1046.05 1504.5,1044.23 1505.39,1042.33 1506.08,1040.36 1506.59,1038.33 1506.9,1036.26 1507.01,1034.16 1506.92,1032.04 1506.61,1029.93 1506.1,1027.84 1505.36,1025.77 "/>
     <polygon id="_337071624" class="fil1" points="1495.53,1053.29 2631.41,2189.17 2630.14,2189.81 2628.84,2190.35 2627.52,2190.8 2626.19,2191.17 2624.85,2191.45 2623.51,2191.64 2622.17,2191.75 2620.82,2191.77 1484.94,1055.89 1486.28,1055.87 1487.63,1055.76 1488.97,1055.57 1490.31,1055.29 1491.64,1054.92 1492.96,1054.47 1494.25,1053.92 "/>
     <polygon id="_337071936" class="fil1" points="1484.94,1055.89 2620.82,2191.77 2341.14,2191.77 1205.26,1055.89 "/>
     <polygon id="_337071840" class="fil1" points="1209.89,1241.58 2345.77,2377.47 2346.87,2378.64 2347.95,2379.93 2349.01,2381.33 2350.04,2382.84 2351.05,2384.43 2352.02,2386.11 2352.97,2387.87 2353.88,2389.69 2354.76,2391.57 2355.61,2393.5 2356.43,2395.47 2357.2,2397.47 2357.94,2399.49 2358.65,2401.52 2359.31,2403.56 2359.93,2405.6 2360.51,2407.62 2361.04,2409.62 2361.53,2411.59 2361.97,2413.53 2362.37,2415.41 2362.72,2417.23 2363.01,2419 2363.26,2420.68 2363.45,2422.28 2363.59,2423.79 2363.68,2425.2 2363.71,2426.5 2363.57,2428.98 2363.17,2431.02 2362.53,2432.66 2361.65,2433.94 2360.54,2434.89 2359.23,2435.55 2357.72,2435.97 2356.03,2436.18 2354.17,2436.22 2352.15,2436.12 2349.99,2435.94 2347.69,2435.7 2345.29,2435.45 2342.77,2435.22 2340.17,2435.06 2337.49,2434.99 2334.81,2435.06 2332.21,2435.22 2329.69,2435.45 2327.29,2435.7 2324.99,2435.94 2322.83,2436.12 2320.81,2436.22 2318.95,2436.18 2317.26,2435.97 2315.75,2435.55 2314.44,2434.89 2313.33,2433.94 1177.45,1298.05 1178.56,1299 1179.87,1299.67 1181.38,1300.09 1183.07,1300.29 1184.93,1300.33 1186.95,1300.24 1189.11,1300.06 1191.4,1299.82 1193.81,1299.57 1196.33,1299.34 1198.93,1299.17 1201.61,1299.11 1204.29,1299.17 1206.89,1299.34 1209.4,1299.57 1211.81,1299.82 1214.11,1300.06 1216.27,1300.24 1218.29,1300.33 1220.15,1300.29 1221.84,1300.09 1223.35,1299.67 1224.66,1299 1225.77,1298.05 1226.65,1296.78 1227.29,1295.14 1227.69,1293.1 1227.83,1290.62 1227.8,1289.32 1227.71,1287.91 1227.57,1286.4 1227.38,1284.8 1227.13,1283.11 1226.84,1281.35 1226.49,1279.53 1226.09,1277.64 1225.65,1275.71 1225.16,1273.74 1224.62,1271.74 1224.05,1269.72 1223.43,1267.68 1222.76,1265.64 1222.06,1263.61 1221.32,1261.58 1220.55,1259.59 1219.73,1257.62 1218.88,1255.69 1218,1253.81 1217.09,1251.99 1216.14,1250.23 1215.17,1248.55 1214.16,1246.95 1213.13,1245.45 1212.07,1244.05 1210.99,1242.76 "/>
     <polygon id="_337071984" class="fil1" points="1442.84,1557.12 2578.72,2693 2575.77,2691.14 2572.86,2689.32 2570.03,2687.55 2567.27,2685.86 2564.6,2684.24 2562.03,2682.73 2559.59,2681.34 2557.27,2680.07 2555.1,2678.95 2553.09,2677.99 2551.25,2677.21 2549.6,2676.62 2548.14,2676.24 2546.9,2676.08 2545.89,2676.16 2545.11,2676.49 1409.23,1540.61 1410,1540.28 1411.02,1540.2 1412.26,1540.36 1413.72,1540.74 1415.37,1541.33 1417.21,1542.11 1419.22,1543.07 1421.39,1544.19 1423.71,1545.45 1426.15,1546.85 1428.72,1548.36 1431.38,1549.97 1434.15,1551.67 1436.98,1553.44 1439.89,1555.26 "/>
     <polygon id="_337072032" class="fil1" points="1529.1,1568.86 2664.98,2704.74 2663.07,2707.41 2661.07,2709.78 2658.99,2711.86 2656.83,2713.67 2654.59,2715.21 2652.28,2716.5 2649.91,2717.53 2647.46,2718.34 2644.96,2718.91 2642.4,2719.27 2639.78,2719.43 2637.11,2719.38 2634.4,2719.16 2631.64,2718.75 2628.84,2718.19 2626,2717.46 2623.14,2716.59 2620.24,2715.59 2617.32,2714.46 2614.38,2713.22 2611.42,2711.87 2608.44,2710.42 2605.46,2708.89 2602.47,2707.29 2599.47,2705.63 2596.48,2703.9 2593.49,2702.14 2590.5,2700.34 2587.53,2698.51 2584.57,2696.68 2581.64,2694.83 2578.72,2693 1442.84,1557.12 1445.75,1558.95 1448.69,1560.79 1451.65,1562.63 1454.62,1564.46 1457.6,1566.26 1460.59,1568.02 1463.59,1569.74 1466.59,1571.41 1469.58,1573.01 1472.56,1574.54 1475.54,1575.98 1478.5,1577.33 1481.44,1578.58 1484.36,1579.71 1487.26,1580.71 1490.12,1581.58 1492.96,1582.3 1495.76,1582.87 1498.51,1583.27 1501.23,1583.5 1503.9,1583.54 1506.51,1583.39 1509.08,1583.03 1511.58,1582.45 1514.03,1581.65 1516.4,1580.61 1518.71,1579.33 1520.95,1577.79 1523.11,1575.98 1525.19,1573.9 1527.19,1571.53 "/>
     <polygon id="_337072104" class="fil1" points="1527.17,1555.79 2663.05,2691.67 2663.76,2692.51 2664.39,2693.39 2664.94,2694.31 2665.41,2695.26 2665.78,2696.23 2666.07,2697.22 2666.27,2698.21 2666.37,2699.2 2666.39,2700.19 2666.3,2701.16 2666.12,2702.11 2665.84,2703.02 2665.46,2703.9 2664.98,2704.74 1529.1,1568.86 1529.58,1568.02 1529.96,1567.14 1530.24,1566.22 1530.42,1565.28 1530.51,1564.31 1530.49,1563.32 1530.39,1562.33 1530.19,1561.34 1529.9,1560.35 1529.53,1559.38 1529.06,1558.43 1528.51,1557.51 1527.88,1556.63 "/>
     <polygon id="_337056504" class="fil1" points="1243.09,1483.07 2378.97,2618.96 2389.28,2643.69 1253.39,1507.81 "/>
     <polygon id="_337056360" class="fil1" points="1319.54,1532.51 2455.42,2668.39 2454.1,2667.14 2452.78,2665.91 2451.46,2664.69 2450.13,2663.49 2448.79,2662.32 2447.44,2661.18 2446.07,2660.09 2444.69,2659.04 2443.28,2658.04 2441.85,2657.11 2440.39,2656.24 2438.9,2655.45 2437.38,2654.74 2435.82,2654.11 2434.22,2653.57 2432.58,2653.14 2430.89,2652.8 2429.16,2652.58 2427.37,2652.48 2425.53,2652.51 2423.63,2652.66 2421.67,2652.95 2419.65,2653.38 2417.56,2653.97 2415.4,2654.71 2413.16,2655.62 2410.86,2656.69 2408.47,2657.94 2406,2659.37 2403.45,2660.99 2400.81,2662.81 2398.08,2664.83 1262.2,1528.95 1264.93,1526.93 1267.57,1525.11 1270.12,1523.49 1272.59,1522.06 1274.98,1520.81 1277.28,1519.73 1279.52,1518.83 1281.67,1518.09 1283.76,1517.5 1285.79,1517.07 1287.75,1516.78 1289.65,1516.62 1291.49,1516.6 1293.28,1516.7 1295.01,1516.92 1296.7,1517.25 1298.34,1517.69 1299.94,1518.23 1301.5,1518.85 1303.02,1519.57 1304.51,1520.36 1305.97,1521.23 1307.4,1522.16 1308.81,1523.16 1310.19,1524.2 1311.56,1525.3 1312.91,1526.44 1314.25,1527.61 1315.58,1528.8 1316.9,1530.03 1318.22,1531.26 "/>
    </g>
    <path id="_451252208" class="fil1" d="M1253.39 1507.81c38.491,-27.0827 58.1977,-8.4756 78.5032,10.7114 14.8028,13.9878 30.0803,28.4197 63.7796,4.45512 13.3654,-9.50552 33.3355,3.07323 55.5308,17.0551 23.2217,14.628 49.7658,31.3477 60.3508,15.3473 2.86063,-4.33465 9.10749,-4.83071 13.9488,-1.10787 4.84252,3.72284 6.44882,10.2543 3.58819,14.5878 -19.8886,30.0662 -55.2863,7.76694 -86.2572,-11.7437 -15.8599,-9.99095 -30.1299,-18.9791 -33.6107,-16.5047 -46.2768,32.9091 -68.3221,12.0815 -89.6859,-8.10473 -14.0776,-13.3016 -27.7252,-26.1862 -57.3414,-3.55985l9.52087 22.7421c4.95473,11.8949 -0.669686,25.5579 -12.5658,30.5126 -3.06614,1.27795 -6.2504,1.85079 -9.37205,1.79528l-475.473 0c-12.887,0 -23.3339,-10.448 -23.3339,-23.3339 0,-3.69922 0.862205,-7.19646 2.3941,-10.3039l28.5662 -68.6705c3.80197,-9.12402 12.7264,-14.5606 22.0477,-14.3599 51.593,-11.4154 102.998,-18.5788 154.217,-21.5587l16.8071 -389.877 -435.715 0c-12.0425,0 -21.8055,-9.76182 -21.8055,-21.8043 0,-4.24961 1.21654,-8.21339 3.31772,-11.5654 22.6441,-42.0319 46.8485,-83.876 70.8674,-125.4 82.0701,-141.887 161.949,-279.983 170.431,-412.68l-0.0389764 -0.0283465c0.629528,-9.8752 21.7595,-20.4142 21.7595,-20.4154l230.594 0 226.251 0c11.9681,0 21.6827,9.64371 21.8032,21.5847 8.86536,132.346 88.5131,270.056 170.349,411.537 24.2575,41.9374 48.7052,84.2032 71.5441,126.659l0.0389764 -0.022441c5.70473,10.6051 1.73268,23.8288 -8.87245,29.5335 -3.37559,1.81417 -7.01457,2.64803 -10.5921,2.60197l-279.684 0 0 182.369c12.7512,5.62796 22.5697,39.1158 22.5697,52.3571 0,14.4791 -11.7378,8.49213 -26.2158,8.49213 -14.4791,0 -26.2169,5.98701 -26.2169,-8.49213 0,-13.2413 9.81851,-46.7292 22.5709,-52.3571l0 -182.369 -148.473 0 16.8024 389.803c51.763,2.94803 103.337,10.1787 154.723,21.6331 10.2295,0 18.9225,6.58465 22.0713,15.7465l10.3063 24.7358z"/>
   </g>
  </g>
  <path class="fil2" d="M1024 -0.0011811c565.539,0 1024,458.462 1024,1024 0,565.539 -458.462,1024 -1024,1024 -565.539,0 -1024,-458.462 -1024,-1024 0,-565.539 458.462,-1024 1024,-1024z"/>
  <path class="fil3" d="M1242.46 1516.32c-3.91654,3.33071 -3.82796,9.78898 0.199606,14.4225 4.02874,4.63465 10.4705,5.69056 14.3882,2.35984 33.2351,-28.2366 47.6221,-14.6433 62.491,-0.594095 21.3638,20.1862 43.4091,41.015 89.6859,8.10473 3.48071,-2.47441 17.7508,6.51378 33.6095,16.5047 30.9721,19.5106 66.3709,41.8099 86.2583,11.7437 2.86063,-4.33347 1.25433,-10.865 -3.58819,-14.5878 -4.84134,-3.72166 -11.0882,-3.22677 -13.9488,1.10669 -10.585,16.0028 -37.1292,-0.718111 -60.352,-15.3461 -22.1941,-13.9819 -42.1642,-26.5607 -55.5296,-17.0551 -33.6992,23.9646 -48.9768,9.5315 -63.7796,-4.45512 -22.1445,-20.9244 -43.5721,-41.1697 -89.4343,-2.20394z"/>
  <path class="fil4" d="M1205.26 1012.32c0,-2.01378 -1.63228,-3.64607 -3.64607,-3.64607 -2.01378,0 -3.64607,1.63228 -3.64607,3.64607l0 242.447c0,2.01378 1.63228,3.64607 3.64607,3.64607 2.01378,0 3.64607,-1.63228 3.64607,-3.64607l0 -242.447z"/>
  <path class="fil5" d="M1201.61 1237.45c14.478,0 26.2158,38.6929 26.2158,53.1721 0,14.478 -11.7378,8.49213 -26.2158,8.49213 -14.4791,0 -26.2169,5.98583 -26.2169,-8.49213 0,-14.4791 11.7378,-53.1721 26.2169,-53.1721z"/>
  <path class="fil6" d="M1046.22 980.076c0,-16.3819 -15.2114,-29.6634 -33.9733,-29.6634 -18.763,0 -33.9733,13.2815 -33.9733,29.6634l-20.9492 485.966c0,26.4827 24.5906,47.954 54.9225,47.954 30.3319,0 54.9213,-21.4713 54.9213,-47.954l-20.948 -485.966z"/>
  <path class="fil7" d="M803.984 1467.33c140.389,-31.063 279.382,-30.6851 417.032,0 10.2295,0 18.9225,6.58465 22.0713,15.7465l28.5945 68.6304 0.0389764 -0.0165354c4.95473,11.8949 -0.669686,25.5579 -12.5658,30.5126 -3.06614,1.27795 -6.2504,1.85079 -9.37205,1.79528l-475.473 0c-12.887,0 -23.3339,-10.448 -23.3339,-23.3339 0,-3.69922 0.862205,-7.19646 2.3941,-10.3039l28.5945 -68.6292 -0.0283465 -0.0413386c3.80197,-9.12402 12.7264,-14.5606 22.0477,-14.3599z"/>
  <path class="fil8" d="M783.824 463.999l228.423 0 228.422 0c11.9681,0 21.6827,9.64371 21.8032,21.5835 8.86536,132.347 88.5131,270.057 170.349,411.538 24.2575,41.9374 48.7063,84.2032 71.5441,126.658l0.0389764 -0.0200788c5.70473,10.6051 1.73268,23.8276 -8.87245,29.5323 -3.37441,1.81417 -7.01457,2.64803 -10.5921,2.60315l-472.693 0 -472.954 0c-12.0425,0 -21.8055,-9.76418 -21.8055,-21.8067 0,-4.24843 1.21654,-8.21221 3.31772,-11.5642 22.6441,-42.0319 46.8485,-83.876 70.8674,-125.4 82.0701,-141.887 161.948,-279.983 170.431,-412.68l21.7205 1.36299 -21.7606 -1.39134c0.73819,-11.5512 10.3441,-20.4236 21.7606,-20.413l0 -0.00236221z"/>
  <path class="fil9" d="M783.824 463.999l228.423 0 2.17087 0 0 591.893 -2.17087 0 -472.954 0c-12.0425,0 -21.8055,-9.76182 -21.8055,-21.8043 0,-4.24961 1.21654,-8.21339 3.31772,-11.5654 22.6441,-42.0319 46.8485,-83.876 70.8674,-125.4 82.0701,-141.887 161.949,-279.983 170.431,-412.68l21.7205 1.36181 -21.7595 -1.39016c0.737008,-11.5512 10.3429,-20.4236 21.7595,-20.413l0 -0.00236221z"/>
 </g>
</svg>
