<?xml version="1.0" encoding="UTF-8"?>
<!DOCTYPE svg PUBLIC "-//W3C//DTD SVG 1.1//EN" "http://www.w3.org/Graphics/SVG/1.1/DTD/svg11.dtd">
<!-- Creator: CorelDRAW -->
<svg xmlns="http://www.w3.org/2000/svg" xml:space="preserve" width="2048px" height="2048px" style="shape-rendering:geometricPrecision; text-rendering:geometricPrecision; image-rendering:optimizeQuality; fill-rule:evenodd; clip-rule:evenodd"
viewBox="0 0 2048 2048"
 xmlns:xlink="http://www.w3.org/1999/xlink">
 <defs>
  <style type="text/css">
   <![CDATA[
    .fil2 {fill:none}
    .fil1 {fill:#BA68C8}
    .fil0 {fill:#CE93D8}
    .fil3 {fill:#30201E;fill-rule:nonzero}
    .fil5 {fill:#3E2723;fill-rule:nonzero}
    .fil6 {fill:#4E342E;fill-rule:nonzero}
    .fil4 {fill:#5D4037;fill-rule:nonzero}
   ]]>
  </style>
   <clipPath id="id0">
    <path d="M1024 -0.0011811c565.539,0 1024,458.462 1024,1024 0,565.539 -458.462,1024 -1024,1024 -565.539,0 -1024,-458.462 -1024,-1024 0,-565.539 458.462,-1024 1024,-1024z"/>
   </clipPath>
 </defs>
 <g id="Layer_x0020_1">
  <metadata id="CorelCorpID_0Corel-Layer"/>
  <path class="fil0" d="M1024 -0.0011811c565.539,0 1024,458.462 1024,1024 0,565.539 -458.462,1024 -1024,1024 -565.539,0 -1024,-458.462 -1024,-1024 0,-565.539 458.462,-1024 1024,-1024z"/>
  <g style="clip-path:url(#id0)">
   <g id="_451242368">
    <g>
     <polygon id="_3337624321" class="fil1" points="1574.58,718.869 2710.46,1854.75 2712.93,1858.08 2715.04,1861.46 2716.77,1864.89 2718.12,1868.37 2719.1,1871.9 2719.68,1875.47 2719.88,1879.09 1584,743.205 1583.8,739.587 1583.22,736.014 1582.24,732.488 1580.89,729.011 1579.16,725.581 1577.05,722.2 "/>
     <polygon id="_333762720" class="fil1" points="1584,743.205 2719.88,1879.09 2719.87,1880.11 2719.82,1881.13 2719.74,1882.15 2719.63,1883.16 2719.49,1884.17 2719.32,1885.18 2719.12,1886.18 2718.89,1887.18 1583,751.295 1583.24,750.297 1583.44,749.294 1583.61,748.289 1583.75,747.279 1583.86,746.266 1583.94,745.249 1583.98,744.229 "/>
     <polygon id="_333763944" class="fil1" points="1584,750.38 2719.88,1886.26 2719.88,1920.32 1584,784.438 "/>
     <polygon id="_333764856" class="fil1" points="1584,784.438 2719.88,1920.32 2719.87,1920.87 1583.99,784.99 "/>
     <polygon id="_333764760" class="fil1" points="1583.99,784.99 2719.87,1920.87 2719.88,1921.21 1584,785.329 "/>
     <polygon id="_333765432" class="fil1" points="1584,785.329 2719.88,1921.21 2719.68,1924.83 2719.1,1928.4 2718.12,1931.93 2716.77,1935.4 2715.04,1938.83 2712.93,1942.22 2710.46,1945.55 2707.63,1948.83 2704.44,1952.05 2700.9,1955.23 2697.01,1958.35 2692.77,1961.42 2688.2,1964.44 2683.29,1967.39 2678.06,1970.3 2672.5,1973.14 2666.62,1975.93 2660.42,1978.65 2653.92,1981.32 2647.11,1983.93 2640,1986.47 2632.59,1988.96 2624.89,1991.37 2616.91,1993.73 2608.64,1996.02 2600.1,1998.25 2591.28,2000.41 2582.2,2002.5 2572.85,2004.52 2563.25,2006.48 2553.39,2008.36 2543.28,2010.18 1407.4,874.293 1417.51,872.479 1427.36,870.594 1436.97,868.639 1446.32,866.616 1455.4,864.524 1464.21,862.365 1472.76,860.14 1481.03,857.848 1489.01,855.492 1496.71,853.073 1504.12,850.59 1511.23,848.045 1518.04,845.438 1524.54,842.772 1530.74,840.044 1536.62,837.258 1542.18,834.414 1547.41,831.512 1552.32,828.553 1556.89,825.54 1561.13,822.471 1565.02,819.348 1568.56,816.172 1571.75,812.944 1574.58,809.664 1577.05,806.333 1579.16,802.952 1580.89,799.522 1582.24,796.045 1583.22,792.519 1583.8,788.946 "/>
     <polygon id="_333765288" class="fil1" points="1407.4,874.293 2543.28,2010.18 2538.17,2011.05 2532.99,2011.92 2527.75,2012.77 2522.45,2013.61 2517.08,2014.44 2511.65,2015.26 2506.15,2016.07 2500.6,2016.86 2494.99,2017.64 2489.31,2018.41 2483.58,2019.16 2477.79,2019.9 2471.94,2020.63 2466.04,2021.35 2460.08,2022.05 2454.06,2022.74 2447.99,2023.41 2441.87,2024.08 2435.69,2024.72 2429.46,2025.36 2423.18,2025.98 2416.85,2026.58 2410.46,2027.17 2404.03,2027.75 2397.55,2028.31 2391.02,2028.86 2384.44,2029.39 2377.82,2029.91 2371.15,2030.41 2364.44,2030.9 2357.68,2031.37 2350.87,2031.83 1214.99,895.946 1221.79,895.489 1228.55,895.018 1235.27,894.53 1241.94,894.027 1248.56,893.509 1255.14,892.977 1261.67,892.43 1268.15,891.868 1274.58,891.291 1280.97,890.7 1287.3,890.095 1293.58,889.475 1299.81,888.842 1305.99,888.193 1312.11,887.532 1318.18,886.857 1324.2,886.169 1330.16,885.466 1336.06,884.75 1341.91,884.022 1347.7,883.28 1353.43,882.525 1359.11,881.757 1364.72,880.978 1370.27,880.184 1375.77,879.38 1381.2,878.561 1386.57,877.732 1391.87,876.89 1397.11,876.036 1402.29,875.17 "/>
     <polygon id="_333765456" class="fil1" points="833.009,895.946 1968.89,2031.83 1962.09,2031.37 1955.33,2030.9 1948.61,2030.41 1941.94,2029.91 1935.32,2029.39 1928.74,2028.86 1922.21,2028.31 1915.73,2027.75 1909.3,2027.17 1902.92,2026.58 1896.58,2025.98 1890.3,2025.36 1884.07,2024.72 1877.89,2024.08 1871.77,2023.41 1865.7,2022.74 1859.68,2022.05 1853.72,2021.35 1847.82,2020.63 1841.97,2019.9 1836.18,2019.16 1830.45,2018.41 1824.78,2017.64 1819.16,2016.86 1813.61,2016.07 1808.12,2015.26 1802.68,2014.44 1797.32,2013.61 1792.01,2012.77 1786.77,2011.92 1781.59,2011.05 1776.48,2010.18 640.6,874.293 645.712,875.17 650.888,876.036 656.13,876.89 661.434,877.732 666.802,878.561 672.234,879.38 677.727,880.184 683.28,880.978 688.894,881.757 694.567,882.525 700.299,883.28 706.09,884.022 711.937,884.75 717.841,885.466 723.803,886.169 729.818,886.857 735.889,887.532 742.013,888.193 748.19,888.842 754.42,889.475 760.701,890.095 767.034,890.7 773.417,891.291 779.849,891.868 786.33,892.43 792.86,892.977 799.437,893.509 806.06,894.027 812.73,894.53 819.446,895.018 826.205,895.489 "/>
     <polygon id="_333765024" class="fil1" points="640.6,874.293 1776.48,2010.18 1766.37,2008.36 1756.52,2006.48 1746.91,2004.52 1737.57,2002.5 1728.48,2000.41 1719.67,1998.25 1711.12,1996.02 1702.86,1993.73 1694.87,1991.37 1687.17,1988.96 1679.77,1986.47 1672.65,1983.93 1665.84,1981.32 1659.34,1978.65 1653.14,1975.93 1647.26,1973.14 1641.7,1970.3 1636.47,1967.39 1631.56,1964.44 1626.99,1961.42 1622.75,1958.35 1618.86,1955.23 1615.32,1952.05 479.439,816.172 482.983,819.348 486.873,822.471 491.107,825.54 495.681,828.553 500.587,831.512 505.823,834.414 511.383,837.258 517.263,840.044 523.458,842.772 529.962,845.438 536.774,848.045 543.884,850.59 551.292,853.073 558.99,855.492 566.974,857.848 575.241,860.14 583.785,862.365 592.601,864.524 601.685,866.616 611.031,868.639 620.636,870.594 630.493,872.479 "/>
     <polygon id="_333765000" class="fil1" points="1168.32,1150.33 2304.2,2286.21 2015.56,2286.21 879.676,1150.33 "/>
     <polygon id="_333765048" class="fil1" points="1214.99,895.946 2350.87,2031.83 2350.87,2388.18 1214.99,1252.3 "/>
     <polygon id="_333765144" class="fil1" points="1214.99,1252.3 2350.87,2388.18 2350.91,2391.32 2351.03,2394.45 2351.23,2397.56 2351.51,2400.65 2351.86,2403.71 2352.29,2406.76 2352.8,2409.78 2353.37,2412.77 2354.03,2415.74 2354.75,2418.68 2355.54,2421.6 2356.41,2424.48 2357.34,2427.34 2358.34,2430.16 2359.41,2432.96 2360.54,2435.72 2361.74,2438.45 2363.01,2441.14 2364.33,2443.8 2365.72,2446.42 2367.17,2449 2368.68,2451.55 2370.25,2454.06 2371.88,2456.52 2373.56,2458.95 2375.3,2461.33 2377.1,2463.67 2378.95,2465.96 2380.85,2468.21 2382.81,2470.41 2384.82,2472.57 2386.88,2474.67 1250.99,1338.79 1248.94,1336.69 1246.93,1334.53 1244.97,1332.33 1243.07,1330.08 1241.22,1327.78 1239.42,1325.45 1237.68,1323.06 1236,1320.64 1234.37,1318.17 1232.8,1315.67 1231.29,1313.12 1229.84,1310.54 1228.45,1307.92 1227.13,1305.26 1225.86,1302.57 1224.66,1299.84 1223.53,1297.08 1222.46,1294.28 1221.46,1291.46 1220.53,1288.6 1219.66,1285.71 1218.87,1282.8 1218.14,1279.86 1217.49,1276.89 1216.91,1273.89 1216.41,1270.88 1215.98,1267.83 1215.63,1264.77 1215.35,1261.68 1215.15,1258.57 1215.03,1255.44 "/>
     <polygon id="_333765216" class="fil1" points="1337.49,1421.46 2473.37,2557.34 2469.02,2557.29 2464.7,2557.12 2460.4,2556.85 2456.13,2556.47 2451.89,2555.98 2447.69,2555.39 2443.51,2554.69 2439.38,2553.89 2435.27,2552.99 2431.21,2552 2427.18,2550.9 2423.19,2549.71 2419.25,2548.42 2415.34,2547.04 2411.48,2545.57 2407.67,2544 2403.9,2542.35 2400.18,2540.6 2396.51,2538.77 2392.88,2536.86 2389.32,2534.86 2385.8,2532.77 2382.34,2530.61 2378.94,2528.36 2375.59,2526.04 2372.3,2523.64 2369.07,2521.16 2365.91,2518.6 2362.8,2515.98 2359.76,2513.28 2356.79,2510.51 1220.91,1374.63 1223.88,1377.4 1226.92,1380.1 1230.02,1382.72 1233.19,1385.27 1236.42,1387.75 1239.71,1390.16 1243.05,1392.48 1246.46,1394.72 1249.92,1396.89 1253.44,1398.97 1257,1400.97 1260.62,1402.89 1264.3,1404.72 1268.02,1406.46 1271.78,1408.12 1275.6,1409.68 1279.46,1411.16 1283.36,1412.54 1287.31,1413.83 1291.3,1415.02 1295.33,1416.11 1299.39,1417.11 1303.5,1418.01 1307.63,1418.81 1311.81,1419.5 1316.01,1420.1 1320.25,1420.58 1324.52,1420.97 1328.82,1421.24 1333.14,1421.41 "/>
     <polygon id="_333756432" class="fil1" points="1453.16,1381.63 2589.04,2517.51 2590.54,2519.17 2591.89,2520.96 2593.06,2522.89 2594.04,2524.93 2594.82,2527.07 2595.4,2529.31 2595.75,2531.63 2595.87,2534.01 1459.99,1398.13 1459.87,1395.74 1459.52,1393.43 1458.94,1391.19 1458.16,1389.05 1457.18,1387.01 1456.01,1385.08 1454.66,1383.29 "/>
     <polygon id="_330505096" class="fil1" points="879.676,1150.33 2015.56,2286.21 2015.56,2388.18 879.676,1252.3 "/>
     <polygon id="_330505456" class="fil1" points="879.676,1252.3 2015.56,2388.18 2015.5,2392.53 2015.34,2396.85 2015.06,2401.15 2014.68,2405.42 2014.19,2409.66 2013.6,2413.86 2012.9,2418.04 2012.11,2422.17 2011.21,2426.28 2010.21,2430.34 2009.11,2434.37 2007.92,2438.36 2006.63,2442.31 2005.25,2446.21 2003.78,2450.07 2002.21,2453.88 2000.56,2457.65 1998.82,2461.37 1996.99,2465.05 1995.07,2468.67 1993.07,2472.23 1990.99,2475.75 1988.82,2479.21 1986.57,2482.61 1984.25,2485.96 1981.85,2489.25 1979.37,2492.48 1976.82,2495.65 1974.19,2498.75 1971.49,2501.79 1968.72,2504.76 1965.88,2507.67 830.001,1371.79 832.841,1368.88 835.61,1365.91 838.309,1362.87 840.936,1359.76 843.488,1356.6 845.968,1353.37 848.369,1350.08 850.693,1346.73 852.938,1343.33 855.105,1339.87 857.188,1336.35 859.188,1332.78 861.105,1329.16 862.934,1325.49 864.677,1321.77 866.332,1318 867.897,1314.19 869.371,1310.33 870.753,1306.42 872.04,1302.48 873.232,1298.49 874.328,1294.46 875.326,1290.4 876.225,1286.29 877.022,1282.15 877.718,1277.98 878.311,1273.77 878.799,1269.54 879.18,1265.27 879.455,1260.97 879.621,1256.65 "/>
     <polygon id="_330505000" class="fil1" points="830.001,1371.79 1965.88,2507.67 1962.97,2510.51 1960,2513.28 1956.96,2515.98 1953.86,2518.6 1950.69,2521.16 1947.46,2523.64 1944.17,2526.04 1940.83,2528.36 1937.42,2530.61 1933.96,2532.77 1930.45,2534.86 1926.88,2536.86 1923.26,2538.77 1919.59,2540.6 1915.87,2542.35 1912.1,2544 1908.28,2545.57 1904.42,2547.04 1900.52,2548.42 1896.57,2549.71 1892.58,2550.9 1888.56,2552 1884.49,2552.99 1880.39,2553.89 1876.25,2554.69 1872.07,2555.39 1867.87,2555.98 1863.63,2556.47 1859.36,2556.85 1855.07,2557.12 1850.74,2557.29 1846.39,2557.34 710.509,1421.46 714.86,1421.41 719.184,1421.24 723.482,1420.97 727.75,1420.58 731.988,1420.1 736.193,1419.5 740.367,1418.81 744.506,1418.01 748.609,1417.11 752.675,1416.11 756.702,1415.02 760.691,1413.83 764.637,1412.54 768.54,1411.16 772.401,1409.68 776.216,1408.12 779.984,1406.46 783.705,1404.72 787.377,1402.89 790.997,1400.97 794.566,1398.97 798.081,1396.89 801.542,1394.72 804.946,1392.48 808.293,1390.16 811.581,1387.75 814.81,1385.27 817.977,1382.72 821.081,1380.1 824.12,1377.4 827.094,1374.63 "/>
     <polygon id="_330505144" class="fil1" points="710.509,1421.46 1846.39,2557.34 1747.22,2557.34 611.343,1421.46 "/>
     <polygon id="_330505528" class="fil1" points="611.343,1421.46 1747.22,2557.34 1744.84,2557.22 1742.52,2556.87 1740.28,2556.3 1738.14,2555.51 1736.1,2554.53 1734.18,2553.36 1732.38,2552.02 596.5,1416.13 598.296,1417.48 600.22,1418.65 602.26,1419.63 604.404,1420.41 606.639,1420.99 608.957,1421.34 "/>
     <polygon id="_330505168" class="fil1" points="1436.66,1421.46 2572.54,2557.34 2473.37,2557.34 1337.49,1421.46 "/>
     <polygon id="_330504880" class="fil1" points="1459.99,1398.13 2595.87,2534.01 2595.75,2536.4 2595.4,2538.71 2594.82,2540.95 2594.04,2543.09 2593.06,2545.13 2591.89,2547.06 2590.54,2548.85 2589.04,2550.51 2587.38,2552.02 2585.59,2553.36 2583.66,2554.53 2581.62,2555.51 2579.48,2556.3 2577.24,2556.87 2574.92,2557.22 2572.54,2557.34 1436.66,1421.46 1439.04,1421.34 1441.36,1420.99 1443.6,1420.41 1445.74,1419.63 1447.78,1418.65 1449.7,1417.48 1451.5,1416.13 1453.16,1414.63 1454.66,1412.97 1456.01,1411.17 1457.18,1409.25 1458.16,1407.21 1458.94,1405.07 1459.52,1402.83 1459.87,1400.51 "/>
    </g>
    <path id="_451242200" class="fil1" d="M1024 626.537c149.408,0 284.986,10.5874 383.399,27.7016 109.112,18.9756 176.601,50.1319 176.601,88.9654 0,2.73544 -0.335433,5.43308 -0.99567,8.09056 0.334252,-0.303544 0.666142,-0.608268 0.99567,-0.915355l0 34.0583 -0.00708662 0.551575 0.00708662 0.338977c0,38.8335 -67.4882,69.9898 -176.6,88.9642 -54.1725,9.42166 -119.607,16.865 -192.409,21.6532l0 356.349c0,33.6638 13.7894,64.2839 36.0024,86.4969 22.213,22.213 52.8343,36.0024 86.4969,36.0024l99.1666 0c12.887,0 23.3339,10.4469 23.3339,23.3339 0,12.8858 -10.4469,23.3339 -23.3339,23.3339l-99.1666 0c-46.5437,0 -88.8426,-19.0252 -119.491,-49.6748 -30.6508,-30.6496 -49.676,-72.9473 -49.676,-119.492l0 -101.969 -288.647 0 0 101.969c0,46.5449 -19.0252,88.8426 -49.6748,119.492 -30.6496,30.6496 -72.9473,49.6748 -119.492,49.6748l-99.1666 0c-12.887,0 -23.3339,-10.448 -23.3339,-23.3339 0,-12.887 10.4469,-23.3339 23.3339,-23.3339l99.1666 0c33.6626,0 64.2839,-13.7894 86.4969,-36.0012 22.213,-22.2142 36.0024,-52.8343 36.0024,-86.4981l0 -356.349c-72.802,-4.78819 -138.236,-12.2315 -192.409,-21.6532 -109.112,-18.9744 -176.6,-50.1307 -176.6,-88.9642l0.00708662 -0.338977 -0.00708662 -0.551575 0 -34.0583c0.329528,0.307087 0.661418,0.611811 0.99567,0.915355 -0.660237,-2.65748 -0.99567,-5.35512 -0.99567,-8.09056 0,-38.8335 67.4894,-69.9898 176.601,-88.9654 98.4131,-17.1142 233.991,-27.7016 383.399,-27.7016z"/>
   </g>
  </g>
  <path class="fil2" d="M1024 -0.0011811c565.539,0 1024,458.462 1024,1024 0,565.539 -458.462,1024 -1024,1024 -565.539,0 -1024,-458.462 -1024,-1024 0,-565.539 458.462,-1024 1024,-1024z"/>
  <path class="fil3" d="M860.668 1080.33c-12.887,0 -23.3339,15.6709 -23.3339,34.9996 0,19.3288 10.4469,34.9996 23.3339,34.9996l326.666 0c12.887,0 23.3339,-15.6709 23.3339,-34.9996 0,-19.3288 -10.4469,-34.9996 -23.3339,-34.9996l-326.666 0z"/>
  <path class="fil4" d="M1024 626.537c149.408,0 284.986,10.5874 383.399,27.7016 109.112,18.9756 176.601,50.1319 176.601,88.9654 0,38.8335 -67.4894,69.9898 -176.601,88.9642 -98.4131,17.1154 -233.991,27.7028 -383.399,27.7028 -149.408,0 -284.986,-10.5874 -383.399,-27.7028 -109.112,-18.9744 -176.601,-50.1307 -176.601,-88.9642 0,-38.8335 67.4894,-69.9898 176.601,-88.9654 98.4131,-17.1142 233.991,-27.7016 383.399,-27.7016z"/>
  <path class="fil5" d="M611.343 1374.79c-12.887,0 -23.3339,10.4469 -23.3339,23.3339 0,12.8858 10.4469,23.3339 23.3339,23.3339l99.1666 0c46.5449,0 88.8426,-19.0252 119.492,-49.6748 30.6496,-30.6496 49.6748,-72.9473 49.6748,-119.492l0 -370.575c0,-12.8858 -10.448,-23.3339 -23.3339,-23.3339 -12.887,0 -23.3339,10.448 -23.3339,23.3339l0 370.575c0,33.6638 -13.7894,64.2839 -36.0024,86.4981 -22.213,22.2118 -52.8343,36.0012 -86.4969,36.0012l-99.1666 0z"/>
  <path class="fil5" d="M1436.66 1421.46c12.887,0 23.3339,-10.448 23.3339,-23.3339 0,-12.887 -10.4469,-23.3339 -23.3339,-23.3339l-99.1666 0c-33.6626,0 -64.2839,-13.7894 -86.4969,-36.0024 -22.213,-22.213 -36.0024,-52.8331 -36.0024,-86.4969l0 -370.575c0,-12.8858 -10.4469,-23.3339 -23.3339,-23.3339 -12.8858,0 -23.3339,10.448 -23.3339,23.3339l0 370.575c0,46.5449 19.0252,88.8426 49.676,119.492 30.6484,30.6496 72.9473,49.6748 119.491,49.6748l99.1666 0z"/>
  <path class="fil6" d="M1583.99 784.99l0.00708662 0.338977c0,38.8335 -67.4882,69.9898 -176.6,88.9642 -98.4142,17.1154 -233.991,27.7028 -383.4,27.7028 -149.41,0 -284.986,-10.5874 -383.4,-27.7028 -109.112,-18.9744 -176.6,-50.1307 -176.6,-88.9642l0.00708662 -0.338977c-0.00472441,-0.183071 -0.00708662,-0.367323 -0.00708662,-0.551575l0 -34.0583c42.515,39.6024 131.955,56.6918 172.603,63.7607 57.6674,10.0287 116.503,16.2461 174.858,20.5512 70.669,5.21457 141.684,7.49646 212.54,7.49646 70.8556,0 141.871,-2.28189 212.54,-7.49646 58.3548,-4.30512 117.19,-10.5224 174.858,-20.5512 40.6477,-7.0689 130.088,-24.1583 172.603,-63.7607l0 34.0583 -0.00708662 0.551575z"/>
 </g>
</svg>
