<?xml version="1.0" encoding="UTF-8"?>
<!DOCTYPE svg PUBLIC "-//W3C//DTD SVG 1.1//EN" "http://www.w3.org/Graphics/SVG/1.1/DTD/svg11.dtd">
<!-- Creator: CorelDRAW -->
<svg xmlns="http://www.w3.org/2000/svg" xml:space="preserve" width="2048px" height="2048px" style="shape-rendering:geometricPrecision; text-rendering:geometricPrecision; image-rendering:optimizeQuality; fill-rule:evenodd; clip-rule:evenodd"
viewBox="0 0 2048 2048"
 xmlns:xlink="http://www.w3.org/1999/xlink">
 <defs>
  <style type="text/css">
   <![CDATA[
    .fil2 {fill:none}
    .fil1 {fill:#5E35B1}
    .fil0 {fill:#7E57C2}
    .fil4 {fill:#B0B0B0;fill-rule:nonzero}
    .fil3 {fill:#BDBDBD;fill-rule:nonzero}
    .fil6 {fill:#E65100;fill-rule:nonzero}
    .fil5 {fill:#EF6C00;fill-rule:nonzero}
   ]]>
  </style>
   <clipPath id="id0">
    <path d="M1024 -0.0011811c565.539,0 1024,458.462 1024,1024 0,565.539 -458.462,1024 -1024,1024 -565.539,0 -1024,-458.462 -1024,-1024 0,-565.539 458.462,-1024 1024,-1024z"/>
   </clipPath>
 </defs>
 <g id="Layer_x0020_1">
  <metadata id="CorelCorpID_0Corel-Layer"/>
  <path class="fil0" d="M1024 -0.0011811c565.539,0 1024,458.462 1024,1024 0,565.539 -458.462,1024 -1024,1024 -565.539,0 -1024,-458.462 -1024,-1024 0,-565.539 458.462,-1024 1024,-1024z"/>
  <g style="clip-path:url(#id0)">
   <g id="_451272008">
    <g>
     <polygon id="_3325965601" class="fil1" points="662.918,499.401 1798.8,1635.28 1800.33,1636.88 1801.88,1638.54 1803.45,1640.26 1805.04,1642.04 1806.66,1643.88 1808.3,1645.78 1809.96,1647.74 1811.64,1649.76 1813.34,1651.83 1815.07,1653.96 1816.81,1656.14 1818.58,1658.38 1820.37,1660.66 1822.18,1662.99 1824.01,1665.38 1825.87,1667.81 1827.74,1670.28 1829.64,1672.81 1831.55,1675.37 1833.49,1677.98 1835.45,1680.63 1837.43,1683.32 1839.43,1686.05 1841.46,1688.82 1843.5,1691.63 1845.57,1694.47 1847.65,1697.35 1849.76,1700.26 1851.89,1703.2 1854.03,1706.17 1856.2,1709.17 720.322,573.29 718.152,570.287 716.005,567.315 713.877,564.374 711.771,561.463 709.685,558.587 707.619,555.747 705.576,552.941 703.553,550.172 701.551,547.441 699.57,544.751 697.61,542.1 695.672,539.491 693.754,536.925 691.858,534.402 689.984,531.925 688.131,529.495 686.299,527.112 684.488,524.777 682.699,522.493 680.931,520.259 679.185,518.078 677.461,515.951 675.758,513.878 674.077,511.861 672.417,509.9 670.779,507.998 669.164,506.156 667.569,504.374 665.997,502.653 664.446,500.994 "/>
     <polygon id="_332597016" class="fil1" points="720.322,573.29 1856.2,1709.17 1859.19,1713.31 1862.22,1717.5 1865.29,1721.74 1868.4,1726.03 1871.55,1730.35 1874.74,1734.72 1877.96,1739.12 1881.23,1743.55 1884.53,1748.01 1887.87,1752.5 1891.25,1757 1894.66,1761.53 1898.11,1766.06 1901.6,1770.61 1905.12,1775.16 1908.68,1779.71 1912.27,1784.27 1915.9,1788.82 1919.56,1793.36 1923.26,1797.9 1926.98,1802.41 1930.75,1806.91 1934.54,1811.39 1938.37,1815.84 1942.23,1820.26 1946.12,1824.65 1950.05,1829 1954,1833.32 1957.99,1837.59 1962.01,1841.81 1966.05,1845.99 830.173,710.105 826.126,705.931 822.109,701.708 818.123,697.437 814.168,693.122 810.243,688.769 806.351,684.38 802.49,679.956 798.662,675.506 794.866,671.028 791.103,666.53 787.374,662.013 783.679,657.481 780.016,652.939 776.389,648.388 772.796,643.832 769.238,639.277 765.716,634.725 762.231,630.179 758.781,625.643 755.366,621.121 751.99,616.615 748.651,612.132 745.348,607.671 742.084,603.239 738.857,598.837 735.669,594.472 732.52,590.144 729.412,585.859 726.342,581.619 723.311,577.428 "/>
     <polygon id="_332598048" class="fil1" points="965.13,845.104 2101.01,1980.99 2101.17,1981.14 2101.32,1981.31 2101.47,1981.47 2101.62,1981.63 2101.77,1981.79 2101.91,1981.96 2102.06,1982.12 966.176,846.242 966.031,846.076 965.886,845.911 965.739,845.748 965.589,845.585 965.437,845.423 965.285,845.262 "/>
     <polygon id="_332598528" class="fil1" points="975.329,855.471 2111.21,1991.35 2112.39,1992.56 2113.57,1993.77 2114.75,1995 2115.94,1996.23 2117.12,1997.47 2118.3,1998.71 2119.48,1999.96 2120.65,2001.22 984.767,865.338 983.594,864.082 982.418,862.83 981.237,861.585 980.055,860.346 978.871,859.116 977.689,857.891 976.508,856.677 "/>
     <polygon id="_332598096" class="fil1" points="984.767,865.338 2120.65,2001.22 2123.73,2004.57 2126.8,2007.98 2129.85,2011.46 2132.87,2014.99 2135.85,2018.58 2138.77,2022.22 2141.62,2025.92 2144.4,2029.66 2147.09,2033.44 2149.69,2037.27 2152.17,2041.14 2154.54,2045.04 2156.78,2048.99 2158.87,2052.96 2160.81,2056.96 2162.59,2060.98 2164.19,2065.04 2165.61,2069.11 2166.83,2073.2 2167.85,2077.31 2168.64,2081.43 2169.21,2085.56 2169.54,2089.7 2169.61,2093.85 2169.43,2097.99 2168.97,2102.14 2168.23,2106.29 2167.19,2110.43 2165.85,2114.56 2164.19,2118.68 2162.2,2122.79 2159.88,2126.89 1024,991.004 1026.32,986.91 1028.31,982.801 1029.97,978.679 1031.31,974.545 1032.35,970.405 1033.09,966.259 1033.55,962.111 1033.73,957.963 1033.66,953.818 1033.33,949.678 1032.76,945.546 1031.96,941.426 1030.95,937.318 1029.73,933.226 1028.31,929.154 1026.71,925.101 1024.93,921.075 1022.99,917.074 1020.89,913.103 1018.66,909.163 1016.29,905.258 1013.81,901.39 1011.21,897.562 1008.52,893.775 1005.74,890.035 1002.89,886.342 999.965,882.7 996.991,879.111 993.972,875.578 990.921,872.102 987.85,868.688 "/>
     <polygon id="_332598384" class="fil1" points="1550.24,1284.24 2686.13,2420.12 2689.02,2423.26 2691.77,2426.41 2694.38,2429.58 2696.86,2432.77 2699.2,2435.98 2701.41,2439.21 2703.48,2442.46 2705.43,2445.73 2707.25,2449.01 2708.93,2452.31 2710.49,2455.63 2711.93,2458.96 2713.24,2462.31 2714.43,2465.67 2715.5,2469.05 2716.45,2472.44 2717.28,2475.85 2717.99,2479.27 2718.59,2482.7 2719.07,2486.14 2719.44,2489.6 2719.7,2493.07 2719.84,2496.55 2719.88,2500.04 2719.81,2503.54 2719.64,2507.05 2719.35,2510.57 2718.97,2514.1 2718.48,2517.64 2717.9,2521.18 2717.21,2524.74 1581.33,1388.86 1582.02,1385.3 1582.6,1381.76 1583.09,1378.22 1583.47,1374.69 1583.75,1371.17 1583.93,1367.66 1584,1364.16 1583.96,1360.67 1583.81,1357.19 1583.56,1353.72 1583.19,1350.26 1582.71,1346.82 1582.11,1343.38 1581.4,1339.97 1580.57,1336.56 1579.62,1333.17 1578.55,1329.79 1577.36,1326.43 1576.05,1323.08 1574.61,1319.74 1573.05,1316.43 1571.36,1313.13 1569.55,1309.84 1567.6,1306.58 1565.53,1303.33 1563.32,1300.1 1560.98,1296.89 1558.5,1293.7 1555.89,1290.53 1553.13,1287.37 "/>
     <polygon id="_332598240" class="fil1" points="1581.33,1388.86 2717.21,2524.74 2716.37,2528.53 2715.41,2532.32 2714.34,2536.11 2713.16,2539.9 2711.88,2543.68 2710.49,2547.46 2708.99,2551.24 2707.39,2555.02 2705.69,2558.79 2703.89,2562.55 2701.99,2566.31 2700,2570.06 2697.92,2573.81 2695.74,2577.55 2693.48,2581.28 2691.12,2585.01 2688.69,2588.72 2686.17,2592.43 2683.56,2596.13 2680.88,2599.82 2678.12,2603.5 2675.28,2607.16 2672.37,2610.82 2669.38,2614.46 2666.33,2618.09 2663.2,2621.71 2660.01,2625.32 2656.76,2628.91 2653.44,2632.49 2650.06,2636.05 2646.62,2639.6 2643.13,2643.13 1507.25,1507.25 1510.74,1503.72 1514.18,1500.17 1517.56,1496.61 1520.88,1493.03 1524.13,1489.44 1527.32,1485.83 1530.45,1482.21 1533.5,1478.58 1536.49,1474.94 1539.4,1471.28 1542.24,1467.61 1545,1463.94 1547.68,1460.25 1550.28,1456.55 1552.81,1452.84 1555.24,1449.13 1557.6,1445.4 1559.86,1441.67 1562.04,1437.93 1564.12,1434.18 1566.11,1430.43 1568.01,1426.67 1569.81,1422.9 1571.51,1419.13 1573.11,1415.36 1574.6,1411.58 1576,1407.8 1577.28,1404.02 1578.46,1400.23 1579.53,1396.44 1580.49,1392.65 "/>
     <polygon id="_332598720" class="fil1" points="990.154,1023.15 2126.04,2159.03 2123.58,2160.31 2121.12,2161.47 2118.65,2162.52 2116.18,2163.47 2113.71,2164.31 2111.23,2165.05 2108.75,2165.69 2106.27,2166.23 2103.78,2166.67 2101.29,2167.01 2098.81,2167.27 2096.32,2167.43 2093.83,2167.5 2091.34,2167.49 2088.85,2167.39 2086.36,2167.2 2083.88,2166.94 2081.4,2166.59 2078.92,2166.17 2076.44,2165.68 2073.97,2165.11 2071.51,2164.47 2069.04,2163.76 2066.59,2162.98 2064.14,2162.14 2061.69,2161.23 2059.26,2160.27 2056.83,2159.24 2054.41,2158.16 2051.99,2157.02 2049.59,2155.83 2047.2,2154.59 911.314,1018.71 913.709,1019.95 916.112,1021.14 918.525,1022.28 920.946,1023.36 923.376,1024.38 925.813,1025.35 928.256,1026.26 930.707,1027.1 933.163,1027.88 935.625,1028.59 938.091,1029.23 940.563,1029.79 943.039,1030.29 945.517,1030.71 948,1031.05 950.483,1031.32 952.97,1031.5 955.457,1031.6 957.946,1031.62 960.435,1031.55 962.924,1031.38 965.413,1031.13 967.9,1030.79 970.385,1030.34 972.869,1029.81 975.35,1029.17 977.828,1028.43 980.303,1027.59 982.774,1026.64 985.239,1025.59 987.699,1024.42 "/>
     <polygon id="_332598288" class="fil1" points="1388.86,1581.33 2524.74,2717.21 2521.18,2717.9 2517.64,2718.49 2514.1,2718.97 2510.57,2719.36 2507.05,2719.64 2503.54,2719.81 2500.04,2719.88 2496.55,2719.84 2493.07,2719.7 2489.6,2719.44 2486.14,2719.07 2482.7,2718.59 2479.27,2717.99 2475.85,2717.28 2472.44,2716.45 2469.05,2715.5 2465.67,2714.43 2462.31,2713.24 2458.96,2711.93 2455.63,2710.5 2452.31,2708.93 2449.01,2707.25 2445.73,2705.43 2442.46,2703.49 2439.21,2701.41 2435.98,2699.2 2432.77,2696.86 2429.58,2694.38 2426.41,2691.77 2423.25,2689.02 2420.12,2686.13 1284.24,1550.24 1287.37,1553.13 1290.53,1555.89 1293.7,1558.5 1296.89,1560.98 1300.1,1563.32 1303.33,1565.53 1306.58,1567.6 1309.84,1569.55 1313.13,1571.36 1316.43,1573.05 1319.74,1574.61 1323.08,1576.05 1326.43,1577.36 1329.79,1578.55 1333.17,1579.62 1336.56,1580.57 1339.97,1581.4 1343.38,1582.11 1346.82,1582.71 1350.26,1583.19 1353.72,1583.56 1357.19,1583.81 1360.67,1583.96 1364.16,1584 1367.66,1583.93 1371.17,1583.75 1374.69,1583.47 1378.22,1583.09 1381.76,1582.6 1385.3,1582.02 "/>
     <polygon id="_332598216" class="fil1" points="911.314,1018.71 2047.2,2154.59 2044.73,2153.25 2042.28,2151.86 2039.86,2150.43 2037.46,2148.95 2035.08,2147.44 2032.72,2145.88 2030.38,2144.29 2028.07,2142.67 2025.78,2141.02 2023.52,2139.34 2021.28,2137.64 2019.07,2135.91 2016.89,2134.17 2014.73,2132.41 2012.6,2130.64 2010.49,2128.85 2008.42,2127.06 2006.37,2125.27 2004.35,2123.47 2002.37,2121.67 2000.41,2119.87 1998.48,2118.08 1996.59,2116.29 1994.73,2114.52 1992.89,2112.76 1991.1,2111.02 1989.33,2109.3 853.451,973.413 855.216,975.137 857.013,976.88 858.844,978.64 860.708,980.411 862.602,982.196 864.529,983.987 866.486,985.784 868.474,987.584 870.491,989.384 872.538,991.181 874.613,992.972 876.716,994.756 878.847,996.529 881.006,998.289 883.191,1000.03 885.402,1001.76 887.64,1003.46 889.902,1005.14 892.19,1006.79 894.501,1008.41 896.837,1010 899.194,1011.55 901.575,1013.07 903.977,1014.55 906.402,1015.98 908.848,1017.37 "/>
     <polygon id="_332599272" class="fil1" points="709.369,829.436 1845.25,1965.32 1841.08,1961.28 1836.87,1957.27 1832.6,1953.29 1828.3,1949.34 1823.95,1945.43 1819.57,1941.54 1815.15,1937.69 1810.71,1933.87 1806.24,1930.09 1801.75,1926.33 1797.25,1922.61 1792.72,1918.93 1788.19,1915.28 1783.65,1911.66 1779.11,1908.08 1774.56,1904.54 1770.02,1901.03 1765.48,1897.55 1760.96,1894.11 1756.45,1890.71 1751.96,1887.35 1747.48,1884.02 1743.03,1880.73 1738.61,1877.48 1734.23,1874.27 1729.87,1871.1 1725.56,1867.96 1721.29,1864.87 1717.06,1861.81 1712.88,1858.79 1708.76,1855.82 572.875,719.936 577,722.911 581.177,725.927 585.404,728.983 589.676,732.079 593.991,735.214 598.345,738.388 602.734,741.601 607.153,744.851 611.601,748.14 616.074,751.468 620.567,754.831 625.079,758.232 629.602,761.67 634.138,765.144 638.679,768.654 643.224,772.199 647.769,775.781 652.309,779.397 656.842,783.047 661.365,786.732 665.873,790.451 670.362,794.203 674.83,797.99 679.273,801.808 683.686,805.66 688.068,809.544 692.415,813.46 696.721,817.407 700.985,821.386 705.203,825.396 "/>
     <polygon id="_332599104" class="fil1" points="572.875,719.936 1708.76,1855.82 1705.77,1853.66 1702.81,1851.53 1699.89,1849.42 1696.99,1847.32 1694.13,1845.25 1691.3,1843.2 1688.51,1841.17 1685.76,1839.16 1683.04,1837.17 1680.37,1835.2 1677.73,1833.26 1675.14,1831.33 1672.58,1829.43 1670.08,1827.54 1667.61,1825.68 1665.19,1823.84 1662.83,1822.02 1660.5,1820.22 1658.23,1818.45 1656.01,1816.69 1653.84,1814.96 1651.73,1813.24 1649.67,1811.55 1647.66,1809.88 1645.71,1808.23 1643.82,1806.6 1641.99,1805 1640.22,1803.41 1638.51,1801.85 1636.86,1800.31 1635.27,1798.79 499.392,662.908 500.976,664.427 502.624,665.969 504.335,667.531 506.106,669.116 507.939,670.721 509.83,672.349 511.779,673.998 513.785,675.668 515.847,677.36 517.962,679.073 520.131,680.808 522.351,682.563 524.624,684.341 526.944,686.14 529.314,687.958 531.732,689.8 534.195,691.662 536.703,693.545 539.255,695.449 541.85,697.375 544.486,699.322 547.163,701.288 549.879,703.277 552.632,705.286 555.423,707.317 558.25,709.368 561.11,711.44 564.005,713.533 566.931,715.646 569.888,717.78 "/>
     <polygon id="_332599056" class="fil1" points="1507.25,1507.25 2643.13,2643.13 2639.6,2646.63 2636.05,2650.06 2632.49,2653.44 2628.91,2656.76 2625.32,2660.02 2621.71,2663.21 2618.09,2666.33 2614.46,2669.38 2610.82,2672.37 2607.16,2675.28 2603.5,2678.12 2599.82,2680.88 2596.13,2683.56 2592.43,2686.17 2588.72,2688.69 2585.01,2691.13 2581.28,2693.48 2577.55,2695.74 2573.81,2697.92 2570.06,2700 2566.31,2701.99 2562.55,2703.89 2558.78,2705.69 2555.01,2707.39 2551.24,2708.99 2547.46,2710.49 2543.68,2711.88 2539.9,2713.17 2536.11,2714.34 2532.32,2715.41 2528.53,2716.37 2524.74,2717.21 1388.86,1581.33 1392.65,1580.49 1396.44,1579.53 1400.23,1578.46 1404.02,1577.28 1407.8,1576 1411.58,1574.6 1415.36,1573.11 1419.13,1571.51 1422.9,1569.81 1426.67,1568.01 1430.43,1566.11 1434.18,1564.12 1437.93,1562.04 1441.67,1559.86 1445.4,1557.6 1449.13,1555.24 1452.84,1552.81 1456.55,1550.28 1460.25,1547.68 1463.94,1545 1467.61,1542.24 1471.28,1539.4 1474.94,1536.49 1478.58,1533.5 1482.21,1530.45 1485.83,1527.32 1489.44,1524.13 1493.03,1520.88 1496.61,1517.56 1500.17,1514.18 1503.72,1510.74 "/>
    </g>
    <path id="_451271744" class="fil1" d="M661.412 497.873c15.9508,15.9508 35.6622,43.2355 58.9099,75.417 31.6736,43.8461 70.2827,97.2898 113.928,140.935l129.55 129.55 1.17284 1.17047c0.420473,0.419292 0.820867,0.852757 1.20236,1.29567 5.85945,5.85945 12.3543,12.385 18.5917,19.0961 32.8949,35.3894 65.8678,82.0938 39.2303,125.666l163.069 163.069c35.8217,-18.4193 88.6867,-12.5091 143.901,5.53819 85.5768,27.9732 180.395,85.6666 216.247,121.519 33.0744,33.0744 41.9658,69.7819 34.1138,107.726 -8.37166,40.4504 -36.4937,80.8052 -74.0812,118.391 -37.5862,37.5874 -77.941,65.7095 -118.391,74.0812 -37.9441,7.85197 -74.6516,-1.03937 -107.726,-34.1138 -35.8524,-35.8524 -93.5457,-130.67 -121.519,-216.247 -18.0473,-55.2142 -23.9575,-108.079 -5.53819,-143.901l-163.918 -163.918c-26.1544,14.1992 -53.3552,9.07205 -78.8398,-4.44331 -26.4154,-14.0091 -49.4008,-36.7666 -66.1678,-53.5347l-131.663 -131.663c-43.5815,-43.5815 -96.906,-82.0477 -140.608,-113.571 -32.0173,-23.0977 -59.1437,-42.665 -75.0036,-58.5248 -22.5803,-22.5803 -33.8717,-52.1764 -33.8717,-81.769 0,-29.5925 11.2913,-59.1874 33.8729,-81.769 22.5803,-22.5815 52.1776,-33.8729 81.769,-33.8729 29.5925,0 59.1886,11.2913 81.7701,33.8729z"/>
   </g>
  </g>
  <path class="fil2" d="M1024 -0.0011811c565.539,0 1024,458.462 1024,1024 0,565.539 -458.462,1024 -1024,1024 -565.539,0 -1024,-458.462 -1024,-1024 0,-565.539 458.462,-1024 1024,-1024z"/>
  <path class="fil3" d="M1009.49 976.491c-9.11103,-9.11103 -23.8843,-9.11103 -32.9953,0 -9.11103,9.11103 -9.11103,23.8843 0,32.9953l191.446 191.445c9.10985,9.11103 23.8831,9.11103 32.9941,0 9.11103,-9.11103 9.11103,-23.8843 0,-32.9941l-191.445 -191.446z"/>
  <path class="fil4" d="M1167.94 1167.94c20.8311,-20.8299 70.9371,-0.422835 126.763,36.1441 67.2567,44.054 149.08,110.923 183.859,145.703l0.00590552 0.00590552c32.8229,32.824 48.587,61.7823 52.5355,87.0603 4.52953,29.0032 -5.59725,52.1422 -23.8512,70.3949l-0.00236221 0.0011811 -0.0011811 0.00236221c-18.254,18.254 -41.3918,28.3819 -70.3949,23.8512 -25.278,-3.94843 -54.2363,-19.7114 -87.0603,-52.5355l-0.00590552 -0.00590552c-34.7799,-34.7788 -101.649,-116.602 -145.703,-183.859 -36.567,-55.826 -56.9741,-105.932 -36.1441,-126.763zm101.242 75.1536c-37.8355,-24.7819 -67.1174,-43.2886 -68.2465,-42.1583 -1.13032,1.12913 17.3764,30.411 42.1583,68.2465 42.3685,64.6843 106.449,143.146 139.688,176.385l0.00590552 0.00590552c25.3217,25.3217 45.3744,37.1268 61.1764,39.5941 12.0768,1.88504 22.0984,-2.71772 30.2906,-10.9099l0.0011811 -0.0011811 0.0011811 -0.0011811c8.19331,-8.19331 12.7961,-18.2138 10.9099,-30.2906 -2.46732,-15.802 -14.2713,-35.8536 -39.5941,-61.1764l-0.00590552 -0.00590552c-33.2386,-33.2386 -111.7,-97.3194 -176.385,-139.688z"/>
  <path class="fil4" d="M1167.94 1167.94c34.1469,-34.1457 96.9036,-29.941 163.03,-8.32678 85.5768,27.9732 180.395,85.6666 216.247,121.519 33.0744,33.0744 41.9658,69.7819 34.1138,107.726 -8.37166,40.4504 -36.4937,80.8052 -74.0812,118.391 -37.5862,37.5874 -77.941,65.7095 -118.391,74.0812 -37.9441,7.85197 -74.6516,-1.03937 -107.726,-34.1138 -35.8524,-35.8524 -93.5457,-130.67 -121.519,-216.247 -21.6142,-66.1264 -25.8189,-128.883 8.32678,-163.03zm148.629 35.9705c-50.6989,-16.5721 -96.3367,-22.2721 -115.634,-2.9752 -19.2969,19.2969 -13.5969,64.9347 2.9752,115.634 25.8201,78.991 78.0485,165.486 110.217,197.654 20.5677,20.5677 42.8067,26.2181 65.4331,21.5362 30.3,-6.27048 62.9256,-29.7343 94.695,-61.5036 31.7693,-31.7693 55.2331,-64.3949 61.5036,-94.695 4.68189,-22.6264 -0.968505,-44.8654 -21.5362,-65.4331 -32.1685,-32.1685 -118.663,-84.3969 -197.654,-110.217z"/>
  <path class="fil5" d="M497.873 497.873c22.5803,-22.5815 52.1776,-33.8729 81.769,-33.8729 29.5925,0 59.1886,11.2913 81.7701,33.8729 15.9508,15.9508 35.6622,43.2355 58.9099,75.417 31.6736,43.8461 70.2827,97.2898 113.928,140.935l129.55 129.55 1.17165 1.17165 0.0011811 -0.0011811c0.420473,0.419292 0.820867,0.852757 1.20236,1.29567 5.85945,5.85945 12.3543,12.385 18.5917,19.0961 37.7528,40.6158 75.6071,96.1335 23.3386,144.717 -31.428,29.2158 -65.4107,25.2921 -96.7914,8.6504 -26.4154,-14.0091 -49.4008,-36.7666 -66.1678,-53.5347l-131.663 -131.663c-43.5815,-43.5815 -96.906,-82.0477 -140.608,-113.571 -32.0173,-23.0977 -59.1437,-42.665 -75.0024,-58.5237l-0.0011811 -0.0011811c-22.5803,-22.5803 -33.8717,-52.1764 -33.8717,-81.769 0,-29.5925 11.2913,-59.1874 33.8717,-81.7678l0.0011811 -0.0011811z"/>
  <path class="fil6" d="M589.767 573.981c-4.55552,-4.55552 -11.9421,-4.55552 -16.4977,0 -4.55433,4.55433 -4.55433,11.9421 0,16.4965l179.099 177.96c4.55433,4.55433 11.9421,4.55433 16.4965,0 4.55552,-4.55552 4.55552,-11.9421 0,-16.4977l-179.098 -177.959z"/>
  <path class="fil6" d="M634.564 536.387c-4.30985,-4.78701 -11.687,-5.17441 -16.474,-0.864568 -4.78819,4.30985 -5.17441,11.6882 -0.864568,16.4752l169.528 187.099c4.30985,4.78819 11.687,5.17441 16.474,0.864568 4.78701,-4.30985 5.17441,-11.687 0.864568,-16.474l-169.528 -187.1z"/>
  <path class="fil6" d="M546.506 611.417c-4.76693,-4.33347 -12.1453,-3.98268 -16.4788,0.783071 -4.33347,4.76693 -3.98268,12.1453 0.783071,16.4788l187.345 169.257c4.76575,4.33347 12.1453,3.98268 16.4788,-0.783071 4.33347,-4.76693 3.98268,-12.1453 -0.783071,-16.4788l-187.345 -169.257z"/>
 </g>
</svg>
