<?xml version="1.0" encoding="UTF-8"?>
<!DOCTYPE svg PUBLIC "-//W3C//DTD SVG 1.1//EN" "http://www.w3.org/Graphics/SVG/1.1/DTD/svg11.dtd">
<!-- Creator: CorelDRAW -->
<svg xmlns="http://www.w3.org/2000/svg" xml:space="preserve" width="2048px" height="2048px" style="shape-rendering:geometricPrecision; text-rendering:geometricPrecision; image-rendering:optimizeQuality; fill-rule:evenodd; clip-rule:evenodd"
viewBox="0 0 2048 2048"
 xmlns:xlink="http://www.w3.org/1999/xlink">
 <defs>
  <style type="text/css">
   <![CDATA[
    .fil2 {fill:none}
    .fil3 {fill:#2B1D1B}
    .fil1 {fill:#3949AB}
    .fil4 {fill:#3E2723}
    .fil0 {fill:#7986CB}
    .fil6 {fill:#CDDC39}
    .fil7 {fill:#D7CCC8}
    .fil5 {fill:#3E2723;fill-rule:nonzero}
   ]]>
  </style>
   <clipPath id="id0">
    <path d="M1024 -0.0011811c565.539,0 1024,458.462 1024,1024 0,565.539 -458.462,1024 -1024,1024 -565.539,0 -1024,-458.462 -1024,-1024 0,-565.539 458.462,-1024 1024,-1024z"/>
   </clipPath>
 </defs>
 <g id="Layer_x0020_1">
  <metadata id="CorelCorpID_0Corel-Layer"/>
  <path class="fil0" d="M1024 -0.0011811c565.539,0 1024,458.462 1024,1024 0,565.539 -458.462,1024 -1024,1024 -565.539,0 -1024,-458.462 -1024,-1024 0,-565.539 458.462,-1024 1024,-1024z"/>
  <g style="clip-path:url(#id0)">
   <g id="_451245128">
    <g>
     <path id="_3305012561" class="fil1" d="M2159.88 1608.34l0 0zm-1135.88 -1135.88l0 0z"/>
     <polygon id="_330501208" class="fil1" points="1444.75,663.873 2580.63,1799.76 2588.65,1809.09 2596.47,1818.61 2604.08,1828.29 2611.48,1838.14 2618.67,1848.16 2625.64,1858.34 2632.39,1868.68 2638.92,1879.17 2645.22,1889.81 2651.3,1900.6 2657.14,1911.53 2662.74,1922.6 2668.11,1933.82 2673.23,1945.16 2678.1,1956.64 2682.73,1968.24 2687.1,1979.96 2691.21,1991.81 2695.06,2003.77 2698.65,2015.85 2701.97,2028.03 2705.03,2040.33 2707.8,2052.72 2710.3,2065.21 2712.52,2077.81 2714.45,2090.49 2716.1,2103.26 2717.45,2116.12 2718.51,2129.06 1582.63,993.177 1581.57,980.237 1580.21,967.378 1578.57,954.605 1576.64,941.923 1574.42,929.332 1571.92,916.837 1569.14,904.443 1566.09,892.151 1562.77,879.966 1559.18,867.89 1555.33,855.928 1551.22,844.081 1546.85,832.355 1542.22,820.753 1537.35,809.278 1532.23,797.933 1526.86,786.722 1521.26,775.648 1515.42,764.715 1509.34,753.925 1503.04,743.285 1496.51,732.794 1489.76,722.457 1482.78,712.279 1475.6,702.262 1468.2,692.409 1460.59,682.725 1452.77,673.211 "/>
     <polygon id="_330501856" class="fil1" points="1582.63,993.177 2718.51,2129.06 2718.82,2129.99 2719.1,2130.93 2719.33,2131.89 2719.53,2132.86 2719.68,2133.86 2719.79,2134.86 2719.86,2135.87 2719.88,2136.9 1584,1001.02 1583.98,999.992 1583.91,998.976 1583.8,997.973 1583.65,996.982 1583.45,996.008 1583.22,995.048 1582.94,994.104 "/>
     <polygon id="_330502048" class="fil1" points="1584,1001.02 2719.88,2136.9 2719.87,2137.58 2719.84,2138.25 2719.79,2138.92 2719.73,2139.58 2719.64,2140.24 2719.54,2140.89 2719.41,2141.54 2719.27,2142.18 1583.39,1006.29 1583.53,1005.65 1583.66,1005.01 1583.76,1004.36 1583.85,1003.7 1583.91,1003.04 1583.96,1002.37 1583.99,1001.7 "/>
     <polygon id="_330502552" class="fil1" points="1583.39,1006.29 2719.27,2142.18 2719.35,2143.8 2719.41,2145.43 2719.48,2147.06 2719.54,2148.69 2719.59,2150.32 2719.64,2151.95 2719.69,2153.59 2719.73,2155.22 2719.76,2156.86 2719.8,2158.5 2719.82,2160.14 2719.84,2161.78 2719.86,2163.42 2719.87,2165.06 2719.88,2166.7 2719.88,2168.34 1584,1032.46 1584,1030.82 1583.99,1029.17 1583.98,1027.53 1583.96,1025.89 1583.94,1024.25 1583.91,1022.61 1583.88,1020.98 1583.85,1019.34 1583.81,1017.71 1583.76,1016.07 1583.71,1014.44 1583.66,1012.81 1583.6,1011.18 1583.53,1009.55 1583.46,1007.92 "/>
     <polygon id="_330502648" class="fil1" points="1584,1032.46 2719.88,2168.34 2719.88,2329.07 1584,1193.18 "/>
     <polygon id="_330502936" class="fil1" points="1584,1193.18 2719.88,2329.07 2719.88,2521.23 1584,1385.35 "/>
     <polygon id="_330503032" class="fil1" points="1584,1385.35 2719.88,2521.23 2719.88,2688.44 1584,1552.56 "/>
     <polygon id="_330503080" class="fil1" points="1584,1552.56 2719.88,2688.44 2719.76,2690.79 2719.41,2693.07 2718.85,2695.27 2718.08,2697.38 2717.11,2699.39 2715.96,2701.29 2714.63,2703.06 2713.15,2704.69 2711.52,2706.17 2709.75,2707.49 2707.85,2708.65 2705.84,2709.61 2703.73,2710.39 2701.53,2710.95 2699.25,2711.3 2696.9,2711.42 1561.02,1575.54 1563.37,1575.42 1565.65,1575.07 1567.85,1574.5 1569.96,1573.73 1571.97,1572.76 1573.87,1571.61 1575.64,1570.29 1577.27,1568.81 1578.75,1567.18 1580.08,1565.41 1581.23,1563.51 1582.19,1561.5 1582.97,1559.39 1583.53,1557.19 1583.88,1554.91 "/>
     <polygon id="_330502864" class="fil1" points="1561.02,1575.54 2696.9,2711.42 2467.85,2711.42 1331.97,1575.54 "/>
     <polygon id="_330503152" class="fil1" points="1331.97,1575.54 2467.85,2711.42 2467.09,2711.42 1331.21,1575.54 "/>
     <polygon id="_330502960" class="fil1" points="1331.21,1575.54 2467.09,2711.42 1851.9,2711.42 716.024,1575.54 "/>
     <polygon id="_330502576" class="fil1" points="716.024,1575.54 1851.9,2711.42 1851.2,2711.4 1850.51,2711.35 1849.83,2711.27 1849.16,2711.16 1848.51,2711.02 1847.86,2710.85 1847.23,2710.65 1846.61,2710.43 710.732,1574.54 711.349,1574.77 711.981,1574.97 712.626,1575.14 713.284,1575.28 713.953,1575.39 714.634,1575.47 715.323,1575.52 "/>
     <polygon id="_330502672" class="fil1" points="710.732,1574.54 1846.61,2710.43 1846.61,2711.42 710.732,1575.54 "/>
     <polygon id="_330503920" class="fil1" points="710.732,1575.54 1846.61,2711.42 1622.86,2711.42 486.981,1575.54 "/>
     <polygon id="_330503968" class="fil1" points="486.981,1575.54 1622.86,2711.42 1620.51,2711.3 1618.23,2710.95 1616.03,2710.39 1613.92,2709.61 1611.91,2708.65 1610.01,2707.49 1608.24,2706.17 472.363,1570.29 474.133,1571.61 476.027,1572.76 478.036,1573.73 480.147,1574.5 482.35,1575.07 484.631,1575.42 "/>
    </g>
    <path id="_451245224" class="fil1" d="M1024 472.463l0 0zm395.517 164.48c92.7887,92.7887 153.399,217.774 163.108,356.234 0.889371,2.44725 1.37362,5.08819 1.37362,7.84253 0,1.81417 -0.210236,3.57992 -0.608268,5.27363 0.403937,8.6752 0.608268,17.3988 0.608268,26.1685l0 160.723 0 192.166 0 167.206c0,12.6921 -10.2898,22.9807 -22.9807,22.9807l-229.048 0 -0.759449 0 -615.188 0c-1.87795,0 -3.66614,-0.35315 -5.29134,-0.993308l0 0.993308 -223.752 0c-12.691,0 -22.9807,-10.2886 -22.9807,-22.9807l0 -166.971c-0.0011811,-0.0779528 -0.0011811,-0.157087 -0.0011811,-0.23504l0.0011811 -0.23504 0 -191.695c-0.0011811,-0.0779528 -0.0011811,-0.157087 -0.0011811,-0.23504l0.0011811 -0.23504 0 -160.488c0,-8.76851 0.204331,-17.491 0.608268,-26.1638 -0.399213,-1.69488 -0.609449,-3.46181 -0.609449,-5.27835 0,-2.75551 0.485433,-5.39764 1.3748,-7.84607 9.70985,-138.458 70.3193,-263.442 163.108,-356.23 101.487,-101.487 241.493,-164.48 395.52,-164.48 154.024,0 294.03,62.993 395.517,164.48z"/>
   </g>
  </g>
  <path class="fil2" d="M1024 -0.0011811c565.539,0 1024,458.462 1024,1024 0,565.539 -458.462,1024 -1024,1024 -565.539,0 -1024,-458.462 -1024,-1024 0,-565.539 458.462,-1024 1024,-1024z"/>
  <path class="fil3" d="M709.926 1558.98l624.789 0 0 -513.474c0,-171.819 -140.577,-312.396 -312.396,-312.396l0 0c-171.816,0 -312.394,140.577 -312.394,312.396l0 513.474z"/>
  <polygon class="fil4" points="1013.95,1037.86 1013.95,1509.41 746.288,1509.41 746.288,1037.86 "/>
  <path class="fil5" d="M1024 472.463l0.00236221 0c154.024,0 294.03,62.993 395.517,164.48 101.489,101.489 164.482,241.494 164.482,395.518l0 520.095c0,12.6921 -10.2898,22.9807 -22.9807,22.9807l-229.807 0 0 -45.9615 206.825 0 0 -497.115c0,-141.337 -57.8363,-269.843 -151.016,-363.022 -93.1784,-93.1784 -221.684,-151.016 -363.02,-151.016l-0.00236221 0c-141.337,0 -269.842,57.8374 -363.02,151.016 -93.1796,93.1784 -151.016,221.685 -151.016,363.022l0 497.115 200.77 0 0 45.9615 -223.752 0c-12.691,0 -22.9807,-10.2886 -22.9807,-22.9807l0 -520.095c0,-154.024 62.993,-294.03 164.482,-395.518 101.487,-101.487 241.493,-164.48 395.517,-164.48z"/>
  <path class="fil5" d="M1046.98 495.443c0,-12.6921 -10.2898,-22.9807 -22.9807,-22.9807 -12.6921,0 -22.9819,10.2886 -22.9819,22.9807l0 229.807c0,12.691 10.2898,22.9807 22.9819,22.9807 12.691,0 22.9807,-10.2898 22.9807,-22.9807l0 -229.807z"/>
  <path class="fil5" d="M782.383 554.684c-6.59292,-10.8083 -20.7012,-14.224 -31.5095,-7.63111 -10.8083,6.59292 -14.224,20.7012 -7.63111,31.5095l116.887 191.321c6.59292,10.8071 20.7012,14.2228 31.5095,7.62993 10.8071,-6.59292 14.2228,-20.7012 7.62993,-31.5095l-116.886 -191.32z"/>
  <path class="fil5" d="M586.343 729.469c-10.3606,-7.2378 -24.6307,-4.7067 -31.8685,5.65512 -7.23662,10.3606 -4.70552,24.6295 5.65512,31.8673l177.841 124.526c10.3606,7.2378 24.6307,4.70552 31.8685,-5.65512 7.2378,-10.3606 4.70552,-24.6295 -5.65512,-31.8673l-177.841 -124.526z"/>
  <path class="fil5" d="M486.981 978.039c-12.6921,0 -22.9819,10.2898 -22.9819,22.9807 0,12.6921 10.2898,22.9819 22.9819,22.9819l217.103 0c12.6921,0 22.9819,-10.2898 22.9819,-22.9819 0,-12.691 -10.2898,-22.9807 -22.9819,-22.9807l-217.103 0z"/>
  <path class="fil5" d="M486.981 1170.2c-12.6921,0 -22.9819,10.2886 -22.9819,22.9807 0,12.6921 10.2898,22.9807 22.9819,22.9807l217.103 0c12.6921,0 22.9819,-10.2886 22.9819,-22.9807 0,-12.6921 -10.2898,-22.9807 -22.9819,-22.9807l-217.103 0z"/>
  <path class="fil5" d="M486.981 1362.37c-12.6921,0 -22.9819,10.2898 -22.9819,22.9819 0,12.691 10.2898,22.9807 22.9819,22.9807l217.103 0c12.6921,0 22.9819,-10.2898 22.9819,-22.9807 0,-12.6921 -10.2898,-22.9819 -22.9819,-22.9819l-217.103 0z"/>
  <path class="fil5" d="M1304.76 578.562c6.59292,-10.8083 3.17717,-24.9166 -7.63111,-31.5095 -10.8071,-6.59292 -24.9154,-3.17717 -31.5083,7.63111l-116.887 191.32c-6.59292,10.8083 -3.17717,24.9166 7.62993,31.5095 10.8083,6.59292 24.9166,3.17717 31.5095,-7.62993l116.887 -191.321z"/>
  <path class="fil5" d="M1487.87 766.992c10.3606,-7.2378 12.8929,-21.5067 5.65512,-31.8673 -7.2378,-10.3618 -21.5079,-12.8929 -31.8685,-5.65512l-177.841 124.526c-10.3606,7.2378 -12.8917,21.5067 -5.65394,31.8673 7.2378,10.3606 21.5067,12.8929 31.8673,5.65512l177.841 -124.526z"/>
  <path class="fil5" d="M1561.02 1024c12.691,0 22.9807,-10.2898 22.9807,-22.9819 0,-12.691 -10.2898,-22.9807 -22.9807,-22.9807l-217.104 0c-12.6921,0 -22.9819,10.2898 -22.9819,22.9807 0,12.6921 10.2898,22.9819 22.9819,22.9819l217.104 0z"/>
  <path class="fil5" d="M1561.02 1216.17c12.691,0 22.9807,-10.2886 22.9807,-22.9807 0,-12.6921 -10.2898,-22.9807 -22.9807,-22.9807l-217.104 0c-12.6921,0 -22.9819,10.2886 -22.9819,22.9807 0,12.6921 10.2898,22.9807 22.9819,22.9807l217.104 0z"/>
  <path class="fil5" d="M1561.02 1408.33c12.691,0 22.9807,-10.2898 22.9807,-22.9807 0,-12.6921 -10.2898,-22.9819 -22.9807,-22.9819l-217.104 0c-12.6921,0 -22.9819,10.2898 -22.9819,22.9819 0,12.691 10.2898,22.9807 22.9819,22.9807l217.104 0z"/>
  <path class="fil5" d="M729.553 1529.66l588.889 0 0 -507.258c0,-74.8264 -33.1299,-142.859 -86.5028,-192.19 -53.3741,-49.33 -126.983,-79.9501 -207.941,-79.9501l-0.0011811 0c-80.9575,0 -154.566,30.6201 -207.94,79.9501 -53.3729,49.3311 -86.5028,117.364 -86.5028,192.19l0 507.258zm602.418 45.88l-615.948 0c-7.47048,0 -13.5295,-5.59961 -13.5295,-12.5043l0 -540.633c0,-81.73 36.1666,-156.02 94.4316,-209.871 58.265,-53.8512 138.644,-87.2776 227.071,-87.2776l0.0011811 0c88.428,0 168.807,33.4264 227.072,87.2776 58.265,53.8512 94.4304,128.141 94.4304,209.871l0 540.633c0,6.90473 -6.05788,12.5043 -13.5284,12.5043z"/>
  <polygon class="fil4" points="1026.91,1037.86 1026.91,1509.41 1294.58,1509.41 1294.58,1037.86 "/>
  <path class="fil6" d="M1027.29 1018.57l171.559 -188.399c-48.9201,-36.887 -111.245,-59.0693 -178.885,-59.0693 -67.2071,0 -129.168,21.9 -177.944,58.363l172.46 189.105 12.8102 0z"/>
  <path class="fil6" d="M992.767 1018.58l-163.151 -178.886c-0.0377953,0.034252 -0.0744095,0.068504 -0.112205,0.102756 -49.8981,46.1185 -81.4052,109.219 -83.1438,178.784l246.406 0z"/>
  <path class="fil6" d="M1048.17 1018.58l163.151 -178.886c0.0377953,0.034252 0.0744095,0.068504 0.112205,0.102756 49.8981,46.1185 81.4052,109.219 83.1438,178.784l-246.406 0z"/>
  <polygon class="fil6" points="702.495,1408.33 509.963,1408.33 509.963,1529.58 702.495,1529.58 "/>
  <polygon class="fil6" points="509.963,1362.37 702.495,1362.37 702.495,1216.17 509.963,1216.17 "/>
  <path class="fil6" d="M509.963 1170.2l192.533 0 0 -146.203 -192.463 0c-0.0472441,2.81457 -0.0696851,5.63386 -0.0696851,8.46024l0 137.743z"/>
  <path class="fil6" d="M512.846 978.039l191.238 0c0.673229,0 1.33819,0.0283465 1.99606,0.0850394 5.07874,-31.0855 15.4146,-60.6319 30.1382,-87.8327l-158.952 -111.3c-34.2532,59.9552 -56.7863,127.364 -64.4209,199.048z"/>
  <path class="fil6" d="M601.741 740.251l159.366 111.589c10.7126,-14.0398 22.7055,-27.1937 35.817,-39.3118 18.5433,-17.1378 39.326,-32.2087 61.8945,-44.7898l-105.078 -171.992c-33.6945,20.9811 -64.8178,45.7477 -92.7627,73.6938 -21.7713,21.7713 -41.6126,45.4701 -59.2371,70.8107z"/>
  <path class="fil6" d="M793.726 573.252l105.542 172.752c0.435827,0.715749 0.829134,1.44449 1.17756,2.18504 31.3583,-12.1606 65.2016,-19.8473 100.583,-22.1823 -0.00708662,-0.251575 -0.011811,-0.50315 -0.011811,-0.755906l0 -206.315c-74.1674,3.30709 -144.382,22.5295 -207.291,54.3166z"/>
  <path class="fil6" d="M1046.98 518.935l0 206.315c0,0.252756 -0.00472441,0.504331 -0.011811,0.755906 35.3811,2.33504 69.2268,10.0228 100.585,22.1835 0.348425,-0.741733 0.741733,-1.47047 1.17756,-2.18622l105.542 -172.752c-62.9091,-31.7882 -133.125,-51.0107 -207.293,-54.3166z"/>
  <path class="fil6" d="M1294.26 595.746l-105.079 171.993c22.5673,12.5823 43.35,27.6508 61.891,44.7886 13.1126,12.1193 25.1055,25.2732 35.8193,39.3142l159.37 -111.593c-17.6244,-25.3394 -37.4658,-49.0382 -59.2371,-70.8095 -27.9449,-27.9461 -59.0693,-52.7126 -92.7639,-73.6938z"/>
  <path class="fil6" d="M1470.73 778.991l-158.955 111.301c14.7225,27.2008 25.0595,56.7473 30.137,87.8316 0.659056,-0.056693 1.32638,-0.0850394 1.99961,-0.0850394l191.24 0c-7.63465,-71.6835 -30.1677,-139.093 -64.4209,-199.048z"/>
  <path class="fil6" d="M1537.97 1024l-192.467 0 0 146.203 192.536 0 0 -137.743c0,-2.82638 -0.022441,-5.64567 -0.0696851,-8.46024z"/>
  <polygon class="fil6" points="1538.04,1216.17 1345.5,1216.17 1345.5,1362.37 1538.04,1362.37 "/>
  <polygon class="fil6" points="1538.04,1408.33 1345.5,1408.33 1345.5,1529.58 1538.04,1529.58 "/>
  <rect class="fil3" x="785.218" y="1083.46" width="189.804" height="8.38027"/>
  <rect class="fil3" x="785.218" y="1112.07" width="189.804" height="8.38027"/>
  <rect class="fil3" x="785.218" y="1140.68" width="189.804" height="8.38027"/>
  <rect class="fil3" x="785.218" y="1169.3" width="189.804" height="8.38027"/>
  <rect class="fil3" x="785.218" y="1197.91" width="189.804" height="8.38027"/>
  <rect class="fil3" x="785.218" y="1226.52" width="189.804" height="8.38027"/>
  <rect class="fil3" x="785.218" y="1255.14" width="189.804" height="8.38027"/>
  <rect class="fil3" x="785.218" y="1283.75" width="189.804" height="8.38027"/>
  <rect class="fil3" x="785.218" y="1312.36" width="189.804" height="8.38027"/>
  <rect class="fil3" x="785.218" y="1340.98" width="189.804" height="8.38027"/>
  <rect class="fil3" x="785.218" y="1369.59" width="189.804" height="8.38027"/>
  <rect class="fil3" x="785.218" y="1398.2" width="189.804" height="8.38027"/>
  <rect class="fil3" x="785.218" y="1426.82" width="189.804" height="8.38027"/>
  <rect class="fil3" x="785.218" y="1455.43" width="189.804" height="8.38027"/>
  <rect class="fil3" x="1065.84" y="1083.46" width="189.804" height="8.38027"/>
  <rect class="fil3" x="1065.84" y="1112.07" width="189.804" height="8.38027"/>
  <rect class="fil3" x="1065.84" y="1140.68" width="189.804" height="8.38027"/>
  <rect class="fil3" x="1065.84" y="1169.3" width="189.804" height="8.38027"/>
  <rect class="fil3" x="1065.84" y="1197.91" width="189.804" height="8.38027"/>
  <rect class="fil3" x="1065.84" y="1226.52" width="189.804" height="8.38027"/>
  <rect class="fil3" x="1065.84" y="1255.14" width="189.804" height="8.38027"/>
  <rect class="fil3" x="1065.84" y="1283.75" width="189.804" height="8.38027"/>
  <rect class="fil3" x="1065.84" y="1312.36" width="189.804" height="8.38027"/>
  <rect class="fil3" x="1065.84" y="1340.98" width="189.804" height="8.38027"/>
  <rect class="fil3" x="1065.84" y="1369.59" width="189.804" height="8.38027"/>
  <rect class="fil3" x="1065.84" y="1398.2" width="189.804" height="8.38027"/>
  <rect class="fil3" x="1065.84" y="1426.82" width="189.804" height="8.38027"/>
  <rect class="fil3" x="1065.84" y="1455.43" width="189.804" height="8.38027"/>
  <path class="fil7" d="M1073.33 1223.95c4.1374,0 7.49056,2.57953 7.49056,5.76024l0 87.8493c0,3.18071 -3.35315,5.76024 -7.49056,5.76024 -4.13504,0 -7.48938,-2.57953 -7.48938,-5.76024l0 -87.8493c0,-3.18071 3.35433,-5.76024 7.48938,-5.76024z"/>
  <path class="fil7" d="M967.533 1223.95c-4.1374,0 -7.49056,2.57953 -7.49056,5.76024l0 87.8493c0,3.18071 3.35315,5.76024 7.49056,5.76024 4.13504,0 7.48938,-2.57953 7.48938,-5.76024l0 -87.8493c0,-3.18071 -3.35433,-5.76024 -7.48938,-5.76024z"/>
 </g>
</svg>
