<?xml version="1.0" encoding="UTF-8"?>
<!DOCTYPE svg PUBLIC "-//W3C//DTD SVG 1.1//EN" "http://www.w3.org/Graphics/SVG/1.1/DTD/svg11.dtd">
<!-- Creator: CorelDRAW -->
<svg xmlns="http://www.w3.org/2000/svg" xml:space="preserve" width="2048px" height="2048px" style="shape-rendering:geometricPrecision; text-rendering:geometricPrecision; image-rendering:optimizeQuality; fill-rule:evenodd; clip-rule:evenodd"
viewBox="0 0 2048 2048"
 xmlns:xlink="http://www.w3.org/1999/xlink">
 <defs>
  <style type="text/css">
   <![CDATA[
    .fil2 {fill:none}
    .fil11 {fill:#263238}
    .fil1 {fill:#303F9F}
    .fil9 {fill:#37474F}
    .fil0 {fill:#5C6BC0}
    .fil6 {fill:#B0BEC5}
    .fil4 {fill:#B1C1C5}
    .fil3 {fill:#CFD8DC}
    .fil7 {fill:#D50000}
    .fil15 {fill:#EE6F02}
    .fil16 {fill:#F37E02}
    .fil19 {fill:#F38A08}
    .fil17 {fill:#F97C00}
    .fil14 {fill:#FF6F00}
    .fil10 {fill:#FF8F00}
    .fil18 {fill:#FF9800}
    .fil13 {fill:#FFCC00}
    .fil8 {fill:#FFD600}
    .fil5 {fill:white}
    .fil12 {fill:#FF8F00;fill-rule:nonzero}
   ]]>
  </style>
   <clipPath id="id0">
    <path d="M1024 -0.0011811c565.539,0 1024,458.462 1024,1024 0,565.539 -458.462,1024 -1024,1024 -565.539,0 -1024,-458.462 -1024,-1024 0,-565.539 458.462,-1024 1024,-1024z"/>
   </clipPath>
 </defs>
 <g id="Layer_x0020_1">
  <metadata id="CorelCorpID_0Corel-Layer"/>
  <path class="fil0" d="M1024 -0.0011811c565.539,0 1024,458.462 1024,1024 0,565.539 -458.462,1024 -1024,1024 -565.539,0 -1024,-458.462 -1024,-1024 0,-565.539 458.462,-1024 1024,-1024z"/>
  <g style="clip-path:url(#id0)">
   <g id="_451252664">
    <g>
     <polygon id="_3370623841" class="fil1" points="1578.56,472.672 2714.44,1608.55 2715.81,1610.39 2717.01,1612.35 2718.01,1614.44 2718.81,1616.63 2719.4,1618.91 2719.76,1621.28 2719.88,1623.71 1584,487.83 1583.88,485.393 1583.52,483.028 1582.93,480.743 1582.13,478.554 1581.13,476.471 1579.93,474.506 "/>
     <polygon id="_337062072" class="fil1" points="1584,487.83 2719.88,1623.71 2719.88,2654.15 1584,1518.27 "/>
     <polygon id="_337063128" class="fil1" points="1584,1518.27 2719.88,2654.15 2719.88,2696.05 1584,1560.17 "/>
     <polygon id="_337063152" class="fil1" points="1584,1560.17 2719.88,2696.05 2719.76,2698.49 2719.4,2700.85 2718.81,2703.14 2718.01,2705.33 2717.01,2707.41 2715.81,2709.38 2714.44,2711.21 2712.9,2712.9 2711.21,2714.44 2709.38,2715.81 2707.41,2717.01 2705.33,2718.01 2703.14,2718.81 2700.85,2719.4 2698.49,2719.76 2696.05,2719.88 1560.17,1584 1562.61,1583.88 1564.97,1583.52 1567.26,1582.93 1569.45,1582.13 1571.53,1581.13 1573.49,1579.93 1575.33,1578.56 1577.02,1577.02 1578.56,1575.33 1579.93,1573.49 1581.13,1571.53 1582.13,1569.45 1582.93,1567.26 1583.52,1564.97 1583.88,1562.61 "/>
     <polygon id="_337063224" class="fil1" points="1560.17,1584 2696.05,2719.88 1623.71,2719.88 487.83,1584 "/>
     <polygon id="_337064280" class="fil1" points="487.83,1584 1623.71,2719.88 1621.27,2719.76 1618.91,2719.4 1616.62,2718.81 1614.43,2718.01 1612.35,2717.01 1610.39,2715.81 1608.55,2714.44 472.672,1578.56 474.506,1579.93 476.471,1581.13 478.554,1582.13 480.743,1582.93 483.028,1583.52 485.393,1583.88 "/>
    </g>
    <path id="_451253720" class="fil1" d="M487.83 463.999l1072.34 0c13.161,0 23.8311,10.6701 23.8311,23.8311l0 1030.44 0 41.9032c0,13.161 -10.6701,23.8311 -23.8311,23.8311l-1072.34 0c-13.161,0 -23.8311,-10.6701 -23.8311,-23.8311l0 -41.9032 0 -1030.44c0,-13.161 10.6701,-23.8311 23.8311,-23.8311z"/>
   </g>
  </g>
  <path class="fil2" d="M1024 -0.0011811c565.539,0 1024,458.462 1024,1024 0,565.539 -458.462,1024 -1024,1024 -565.539,0 -1024,-458.462 -1024,-1024 0,-565.539 458.462,-1024 1024,-1024z"/>
  <path class="fil3" d="M487.83 463.999l1072.34 0c13.161,0 23.8311,10.6701 23.8311,23.8311l0 1072.34c0,13.161 -10.6701,23.8311 -23.8311,23.8311l-1072.34 0c-13.161,0 -23.8311,-10.6701 -23.8311,-23.8311l0 -1072.34c0,-13.161 10.6701,-23.8311 23.8311,-23.8311z"/>
  <path class="fil4" d="M1584 1518.27l0 41.9032c0,13.161 -10.6701,23.8311 -23.8311,23.8311l-1072.34 0c-13.161,0 -23.8311,-10.6701 -23.8311,-23.8311l0 -41.9032 1120 0z"/>
  <path class="fil5" d="M756.615 687.335c-17.25,17.25 -41.0811,27.9213 -67.3997,27.9213 -26.3185,0 -50.1485,-10.6713 -67.3997,-27.9213 -17.25,-17.2512 -27.9201,-41.0811 -27.9201,-67.3997 0,-26.3185 10.6701,-50.1496 27.9201,-67.3997 17.2512,-17.25 41.0811,-27.9213 67.3997,-27.9213 26.3185,0 50.1496,10.6713 67.3997,27.9213 11.8571,11.8571 20.6067,26.824 24.9177,43.5697l408.108 0c5.1437,0 9.90591,1.62992 13.8012,4.40079l238.655 137.789c11.361,6.52796 15.2788,21.0319 8.74961,32.3929 -6.52914,11.3622 -21.0319,15.2788 -32.3929,8.74961l-234.991 -135.671 -401.931 0c-4.31103,16.7457 -13.0595,31.7114 -24.9166,43.5685z"/>
  <path class="fil6" d="M1391.61 1331.1l39.9969 0c5.52166,0 9.99922,4.47756 9.99922,9.99922l0 39.9957c0,5.52166 -4.47756,9.99922 -9.99922,9.99922l-39.9969 0c-5.52166,0 -9.99804,-4.47756 -9.99804,-9.99922l0 -39.9957c0,-5.52166 4.47638,-9.99922 9.99804,-9.99922z"/>
  <path class="fil6" d="M1465.06 1331.1l39.9957 0c5.52284,0 9.99922,4.47756 9.99922,9.99922l0 39.9957c0,5.52166 -4.47638,9.99922 -9.99922,9.99922l-39.9957 0c-5.52166,0 -9.99922,-4.47756 -9.99922,-9.99922l0 -39.9957c0,-5.52166 4.47756,-9.99922 9.99922,-9.99922z"/>
  <path class="fil6" d="M640.57 1098.45c0,-105.878 42.9177,-201.736 112.306,-271.123 69.3875,-69.3875 165.246,-112.305 271.123,-112.305 105.878,0 201.736,42.9177 271.123,112.305 69.3886,69.3875 112.306,165.246 112.306,271.123 0,105.878 -42.9177,201.736 -112.306,271.123 -69.3875,69.3886 -165.246,112.306 -271.123,112.306 -105.878,0 -201.736,-42.9177 -271.123,-112.306 -69.3886,-69.3875 -112.306,-165.246 -112.306,-271.123z"/>
  <polygon class="fil7" points="1421.61,1351.1 1401.61,1351.1 1401.61,1371.1 1421.61,1371.1 "/>
  <polygon class="fil8" points="1475.06,1351.1 1475.06,1371.1 1495.06,1371.1 1495.06,1351.1 "/>
  <path class="fil9" d="M1268.33 854.122c64.9961,64.9949 101.202,152.397 101.202,244.329 0,91.9324 -36.2055,179.333 -101.202,244.329 -64.9961,64.9961 -152.397,101.202 -244.329,101.202 -91.9324,0 -179.333,-36.2055 -244.329,-101.202 -64.9961,-64.9961 -101.202,-152.397 -101.202,-244.329 0,-91.9324 36.2055,-179.334 101.202,-244.329 64.9961,-64.9961 152.397,-101.202 244.329,-101.202 91.9324,0 179.333,36.2055 244.329,101.202z"/>
  <path class="fil6" d="M1071.57 913.774c-6.47717,-1.12913 -12.6461,3.20433 -13.7776,9.6815 -1.13032,6.47717 3.20433,12.6461 9.6815,13.7764 39.117,6.89764 72.9319,27.3343 96.9591,55.9678 24.0355,28.6441 38.2937,65.5087 38.2937,105.252 0,6.57993 5.33504,11.915 11.915,11.915 6.57993,0 11.9162,-5.33504 11.9162,-11.915 0,-45.4807 -16.3394,-87.6946 -43.8792,-120.516 -27.5492,-32.8323 -66.2989,-56.2595 -111.109,-64.1611z"/>
  <path class="fil6" d="M1071.57 828.576c-6.47717,-1.13032 -12.6461,3.20433 -13.7776,9.6815 -1.13032,6.47717 3.20433,12.6461 9.6815,13.7752 59.7922,10.5437 111.477,41.7839 148.208,85.5579 36.7394,43.7847 58.5331,100.126 58.5331,160.86 0,6.57993 5.33622,11.915 11.9162,11.915 6.57993,0 11.915,-5.33504 11.915,-11.915 0,-66.4725 -23.8725,-128.163 -64.1186,-176.125 -40.2532,-47.9729 -96.8741,-82.2036 -162.358,-93.7501z"/>
  <path class="fil10" d="M1048.29 1074.16c-6.21497,-6.21497 -14.8028,-10.0595 -24.2882,-10.0595 -9.48544,0 -18.0732,3.84449 -24.2882,10.0595 -6.21378,6.21378 -10.0583,14.8016 -10.0583,24.287 0,9.48662 3.84449,18.0732 10.0583,24.2882 6.21497,6.21378 14.8028,10.0583 24.2882,10.0583 9.48544,0 18.0732,-3.84449 24.2882,-10.0583 6.21378,-6.21497 10.0583,-14.8016 10.0583,-24.2882 0,-9.48544 -3.84449,-18.0732 -10.0583,-24.287zm-24.2882 -44.4071c18.9662,0 36.1406,7.69016 48.5717,20.1225 12.4323,12.4311 20.1225,29.6055 20.1225,48.5717 0,18.9662 -7.69016,36.1406 -20.1225,48.5717 -12.4311,12.4323 -29.6055,20.1225 -48.5717,20.1225 -18.9662,0 -36.1406,-7.69016 -48.5717,-20.1225 -12.4323,-12.4311 -20.1225,-29.6055 -20.1225,-48.5717 0,-18.9662 7.69016,-36.1406 20.1225,-48.5717 12.4311,-12.4323 29.6055,-20.1225 48.5717,-20.1225z"/>
  <path class="fil11" d="M1048.29 1074.16c-6.21497,-6.21497 -14.8028,-10.0595 -24.2882,-10.0595 -9.48544,0 -18.0732,3.84449 -24.2882,10.0595 -6.21378,6.21378 -10.0583,14.8016 -10.0583,24.287 0,9.48662 3.84449,18.0732 10.0583,24.2882 6.21497,6.21378 14.8028,10.0583 24.2882,10.0583 9.48544,0 18.0732,-3.84449 24.2882,-10.0583 6.21378,-6.21497 10.0583,-14.8016 10.0583,-24.2882 0,-9.48544 -3.84449,-18.0732 -10.0583,-24.287z"/>
  <path class="fil12" d="M689.215 554.67c18.0201,0 34.337,7.30512 46.1481,19.1173 11.8122,11.811 19.1185,28.128 19.1185,46.1481 0,18.0201 -7.3063,34.337 -19.1185,46.1481 -11.811,11.811 -28.128,19.1173 -46.1481,19.1173 -18.0201,0 -34.3359,-7.3063 -46.1481,-19.1173 -11.811,-11.811 -19.1173,-28.128 -19.1173,-46.1481 0,-18.0201 7.3063,-34.337 19.1173,-46.1481 11.8122,-11.8122 28.128,-19.1173 46.1481,-19.1173zm23.0764 42.189c-5.90434,-5.90434 -14.0634,-9.55631 -23.0764,-9.55631 -9.01182,0 -17.1709,3.65197 -23.0752,9.55631 -5.90434,5.90434 -9.55749,14.0634 -9.55749,23.0764 0,9.01182 3.65315,17.1709 9.55749,23.0752 5.90434,5.90434 14.0634,9.55749 23.0752,9.55749 9.013,0 17.1721,-3.65315 23.0764,-9.55749 5.90434,-5.90434 9.55631,-14.0634 9.55631,-23.0752 0,-9.013 -3.65197,-17.1721 -9.55631,-23.0764z"/>
  <path class="fil13" d="M689.215 587.302c-9.01182,0 -17.1709,3.65197 -23.0764,9.55631 -5.90315,5.90434 -9.55513,14.0646 -9.55513,23.0764 0,9.01182 3.65197,17.1721 9.55513,23.0764 5.90552,5.90315 14.0646,9.55631 23.0764,9.55631 9.01182,0 17.1721,-3.65315 23.0764,-9.55631 5.90434,-5.90434 9.55631,-14.0646 9.55631,-23.0764 0,-9.01182 -3.65197,-17.1721 -9.55631,-23.0764 -5.90434,-5.90434 -14.0646,-9.55631 -23.0764,-9.55631z"/>
  <polygon class="fil14" points="1405.74,700.925 1479.6,748.353 1491.7,793.504 1491.7,793.504 1446.55,805.602 1368.13,766.072 1360.71,738.381 1378.05,708.345 "/>
  <rect class="fil6" x="1381.47" y="1406.17" width="133.32" height="71.227"/>
  <path class="fil15" d="M1447.95 1415.68l0.543308 0 47.1544 0c5.28307,0 9.56694,3.89764 9.56694,8.70473l0 34.8177c0,4.80709 -4.28386,8.70473 -9.56694,8.70473l-47.5489 0 -0.148819 0 0 -52.2272z"/>
  <path class="fil16" d="M1447.95 1415.68l-0.543308 0 -47.1544 0c-5.28307,0 -9.56694,3.89764 -9.56694,8.70473l0 34.8177c0,4.80709 4.28386,8.70473 9.56694,8.70473l47.5489 0 0.148819 0 0 -52.2272z"/>
  <path class="fil10" d="M1404.55 1415.68l43.3961 0 0 52.2272 -43.3961 0c-4.80709,0 -8.70473,-3.89764 -8.70473,-8.70473l0 -34.8177c0,-4.80709 3.89764,-8.70473 8.70473,-8.70473z"/>
  <path class="fil17" d="M1447.95 1415.68l0.493701 0 42.9036 0c4.80709,0 8.70473,3.89764 8.70473,8.70473l0 34.8177c0,4.80709 -3.89764,8.70473 -8.70473,8.70473l-43.2615 0 -0.135827 0 0 -52.2272z"/>
  <rect class="fil6" x="495.269" y="1257.38" width="128.281" height="230.7"/>
  <rect class="fil11" transform="matrix(2.98239E-014 0.818396 0.369878 -7.11937E-015 581.057 1272.13)" width="245.835" height="61.4587"/>
  <polygon class="fil18" points="577.539,1380.38 580.922,1398.18 580.922,1413.04 577.539,1430.84 607.307,1430.84 603.924,1413.04 603.924,1398.18 607.307,1380.38 "/>
  <polygon class="fil19" points="577.539,1380.38 580.791,1397.49 604.054,1397.49 607.307,1380.38 "/>
  <polygon class="fil19" points="580.922,1412.92 580.922,1413.04 577.539,1430.84 607.307,1430.84 603.924,1413.04 603.924,1412.92 "/>
  <rect class="fil11" transform="matrix(2.98239E-014 0.818396 0.369878 -7.11937E-015 515.029 1272.13)" width="245.835" height="61.4587"/>
  <polygon class="fil18" points="511.511,1318.22 514.894,1336.01 514.894,1350.88 511.511,1368.67 541.278,1368.67 537.896,1350.88 537.896,1336.01 541.278,1318.22 "/>
  <polygon class="fil19" points="511.511,1318.22 514.764,1335.33 538.026,1335.33 541.278,1318.22 "/>
  <polygon class="fil19" points="514.894,1350.76 514.894,1350.88 511.511,1368.67 541.278,1368.67 537.896,1350.88 537.896,1350.76 "/>
 </g>
</svg>
