<?xml version="1.0" encoding="utf-8"?>
<!-- Generator: Adobe Illustrator 24.1.2, SVG Export Plug-In . SVG Version: 6.00 Build 0)  -->
<svg version="1.1" id="Food_Delivery_Part_2" xmlns="http://www.w3.org/2000/svg" xmlns:xlink="http://www.w3.org/1999/xlink"
	 x="0px" y="0px" viewBox="0 0 24 24" style="enable-background:new 0 0 24 24;" xml:space="preserve">
<g>
	<path d="M12,22C6.486,22,2,17.514,2,12S6.486,2,12,2s10,4.486,10,10S17.514,22,12,22z M12,4c-4.411,0-8,3.589-8,8s3.589,8,8,8
		s8-3.589,8-8S16.411,4,12,4z"/>
</g>
<g>
	<path d="M13,17h-2c-1.103,0-2-0.897-2-2v-1h2v1h2v-2h-2c-1.103,0-2-0.897-2-2V9c0-1.103,0.897-2,2-2h2c1.103,0,2,0.897,2,2v1h-2V9
		h-2v2h2c1.103,0,2,0.897,2,2v2C15,16.103,14.103,17,13,17z"/>
</g>
<g>
	<rect x="11" y="6" width="2" height="2"/>
</g>
<g>
	<rect x="11" y="16" width="2" height="2"/>
</g>
</svg>
