<?xml version="1.0" encoding="utf-8"?>
<!-- Generator: Adobe Illustrator 24.1.2, SVG Export Plug-In . SVG Version: 6.00 Build 0)  -->
<svg version="1.1" id="Food_Delivery_Part_2" xmlns="http://www.w3.org/2000/svg" xmlns:xlink="http://www.w3.org/1999/xlink"
	 x="0px" y="0px" viewBox="0 0 24 24" style="enable-background:new 0 0 24 24;" xml:space="preserve">
<g>
	<path d="M10,22c-1.772,0-3.185-0.529-4.197-1.573c-2.021-2.086-1.911-5.667-1.83-8.281C3.986,11.688,4,11.259,4,10.875
		C4,5.317,6.243,2,10,2c4.433,0,5.367,3.058,6.05,5.29c0.377,1.232,0.702,2.298,1.44,2.714c2.012,1.132,4.51,2.537,4.51,6.495
		C22,22,16.967,22,10,22z M10,4c-3.712,0-4,5.262-4,6.875c0,0.402-0.014,0.853-0.028,1.332c-0.07,2.258-0.166,5.35,1.267,6.827
		C7.868,19.685,8.771,20,10,20c7.431,0,10-0.17,10-3.501c0-2.788-1.539-3.654-3.486-4.75c-1.44-0.811-1.916-2.368-2.377-3.875
		C13.402,5.472,12.811,4,10,4z"/>
</g>
<g>
	<circle cx="16.5" cy="16.5" r="1.5"/>
</g>
<g>
	<rect x="7.379" y="7.5" transform="matrix(0.7071 -0.7071 0.7071 0.7071 -3.2279 9.2071)" width="4.243" height="2"/>
</g>
<g>
	<rect x="6.964" y="11.5" transform="matrix(0.7071 -0.7071 0.7071 0.7071 -5.7635 11.0858)" width="7.071" height="2"/>
</g>
<g>
	<rect x="9.172" y="15" transform="matrix(0.7071 -0.7071 0.7071 0.7071 -7.799 13.1716)" width="5.657" height="2"/>
</g>
</svg>
