<?xml version="1.0" encoding="utf-8"?>
<!-- Generator: Adobe Illustrator 24.1.2, SVG Export Plug-In . SVG Version: 6.00 Build 0)  -->
<svg version="1.1" id="Food_Delivery_Part_2" xmlns="http://www.w3.org/2000/svg" xmlns:xlink="http://www.w3.org/1999/xlink"
	 x="0px" y="0px" viewBox="0 0 24 24" style="enable-background:new 0 0 24 24;" xml:space="preserve">
<g>
	<path d="M19,11h-2V8c0-1.746-1.455-4-3-4h-4C8.455,4,7,6.254,7,8v3H5V8c0-2.774,2.185-6,5-6h4c2.815,0,5,3.226,5,6V11z"/>
</g>
<g>
	<path d="M13,22h-2c-3.309,0-6-2.691-6-6v-3h2v3c0,2.206,1.794,4,4,4h2c2.206,0,4-1.794,4-4v-3h2v3C19,19.309,16.309,22,13,22z"/>
</g>
<g>
	<path d="M12,16c-7.909,0-8-4.796-8-5c0-0.553,0.447-1,1-1h14c0.553,0,1,0.447,1,1C20,11.204,19.909,16,12,16z M6.371,12
		c0.568,0.877,2.004,2,5.629,2s5.061-1.123,5.629-2H6.371z"/>
</g>
<g>
	<rect x="10" y="7" width="4" height="2"/>
</g>
</svg>
