<?xml version="1.0" encoding="utf-8"?>
<!-- Generator: Adobe Illustrator 24.1.2, SVG Export Plug-In . SVG Version: 6.00 Build 0)  -->
<svg version="1.1" id="Food_Delivery_Part_2" xmlns="http://www.w3.org/2000/svg" xmlns:xlink="http://www.w3.org/1999/xlink"
	 x="0px" y="0px" viewBox="0 0 24 24" style="enable-background:new 0 0 24 24;" xml:space="preserve">
<g>
	<path d="M16.926,22H7.074L5.92,7h12.16L16.926,22z M8.926,20h6.148L15.92,9H8.08L8.926,20z"/>
</g>
<g>
	<path d="M7,12c-2.757,0-5-2.243-5-5s2.243-5,5-5s5,2.243,5,5h-2c0-1.654-1.346-3-3-3S4,5.346,4,7s1.346,3,3,3V12z"/>
</g>
<g>
	<polygon points="15.98,8.196 14.02,7.804 15.181,2 21,2 21,4 16.819,4 	"/>
</g>
</svg>
