<?xml version="1.0" encoding="utf-8"?>
<!-- Generator: Adobe Illustrator 24.1.2, SVG Export Plug-In . SVG Version: 6.00 Build 0)  -->
<svg version="1.1" id="Food_Delivery_Part_2" xmlns="http://www.w3.org/2000/svg" xmlns:xlink="http://www.w3.org/1999/xlink"
	 x="0px" y="0px" viewBox="0 0 24 24" style="enable-background:new 0 0 24 24;" xml:space="preserve">
<g>
	<path d="M17.852,21.634c-2.274,0-5.266-1.977-9.388-6.099l0,0l0,0C2.517,9.588,1.037,5.993,3.515,3.515
		c2.321-2.319,7.805,0.733,12.021,4.95c4.216,4.217,7.27,9.699,4.95,12.021C19.725,21.246,18.858,21.634,17.852,21.634z
		 M5.653,4.707c-0.33,0-0.577,0.074-0.724,0.222c-0.524,0.524-2.121,2.122,4.95,9.192l0,0c7.072,7.071,8.67,5.476,9.193,4.95
		c0.844-0.845-0.7-4.941-4.95-9.192C10.614,6.371,7.21,4.707,5.653,4.707z"/>
</g>
<g>
	<path d="M9.171,9.172L7.757,7.758c1.659-1.66,4.596-1.722,4.945-1.699l-0.004,2C12.026,8.06,10.083,8.26,9.171,9.172z"/>
</g>
<g>
	<path d="M12,12l-1.414-1.414c1.66-1.659,4.577-1.688,4.945-1.699l-0.004,2C14.855,10.888,12.911,11.089,12,12z"/>
</g>
<g>
	<path d="M14.828,14.828l-1.414-1.414c1.66-1.659,4.578-1.686,4.945-1.699l-0.004,2C17.683,13.716,15.74,13.917,14.828,14.828z"/>
</g>
</svg>
