<?xml version="1.0" encoding="utf-8"?>
<!-- Generator: Adobe Illustrator 24.1.2, SVG Export Plug-In . SVG Version: 6.00 Build 0)  -->
<svg version="1.1" id="Food_Delivery_Part_2" xmlns="http://www.w3.org/2000/svg" xmlns:xlink="http://www.w3.org/1999/xlink"
	 x="0px" y="0px" viewBox="0 0 24 24" style="enable-background:new 0 0 24 24;" xml:space="preserve">
<g>
	<path d="M16.889,21H5.921c-0.935,0-1.833-0.448-2.401-1.199C2.953,19.05,2,17.427,2,15c0-3.455,2.444-6.872,5.685-7.949
		c1.586-0.527,4.216-0.366,5.742,0.353l-0.853,1.809c-1.055-0.496-3.163-0.628-4.258-0.263C5.896,9.753,4,12.411,4,15
		c0,1.912,0.78,3.15,1.116,3.594C5.311,18.852,5.604,19,5.921,19h10.967c0.43,0,0.828-0.34,1.028-0.543
		c0.64-0.648,1.095-1.71,1.082-2.523c-0.007-0.505-0.007-0.505-0.452-0.836c-0.538-0.399-1.352-1.002-2.379-2.543l1.664-1.109
		c0.834,1.251,1.454,1.711,1.906,2.047c0.726,0.538,1.24,1.026,1.261,2.412c0.02,1.34-0.646,2.93-1.657,3.956
		C18.607,20.606,17.759,21,16.889,21z"/>
</g>
<g>
	<path d="M15.001,17L15.001,17L15,15c0.001,0,0.001,0,0.002,0c0.322,0,0.746-0.046,0.938-0.264c0.327-0.371,0.203-1.361,0.129-1.952
		C16.03,12.474,16,12.202,16,12c0-0.455,0.176-0.945,0.399-1.565c0.604-1.679,0.641-2.296,0.153-2.54
		c-0.478-0.237-0.791-0.049-1.873,1.119c-0.616,0.667-1.314,1.422-2.232,1.881C10.572,11.832,10,12.558,10,14c0,0.448,0.551,1,1,1v2
		c-1.542,0-3-1.458-3-3c0-2.588,1.42-3.828,3.553-4.895c0.592-0.296,1.134-0.882,1.658-1.449c0.978-1.059,2.316-2.511,4.236-1.551
		c2.232,1.116,1.323,3.646,0.834,5.006C18.167,11.43,18.01,11.866,18,12.01c0,0.128,0.027,0.312,0.054,0.525
		c0.124,0.986,0.311,2.477-0.613,3.524C16.89,16.684,16.068,17,15.001,17z"/>
</g>
<g>
	<path d="M16.999,8c-0.19,0-0.383-0.055-0.554-0.168c-0.46-0.307-0.584-0.927-0.277-1.387l2-3c0.306-0.46,0.926-0.584,1.387-0.277
		c0.46,0.307,0.584,0.927,0.277,1.387l-2,3C17.64,7.844,17.322,8,16.999,8z"/>
</g>
<g>
	<circle cx="17.5" cy="3.5" r="1.5"/>
</g>
<g>
	<circle cx="19.5" cy="4.5" r="1.5"/>
</g>
</svg>
