<?xml version="1.0" encoding="utf-8"?>
<!-- Generator: Adobe Illustrator 24.1.2, SVG Export Plug-In . SVG Version: 6.00 Build 0)  -->
<svg version="1.1" id="Food_Delivery_Part_2" xmlns="http://www.w3.org/2000/svg" xmlns:xlink="http://www.w3.org/1999/xlink"
	 x="0px" y="0px" viewBox="0 0 24 24" style="enable-background:new 0 0 24 24;" xml:space="preserve">
<g>
	<path d="M12,21c-6.448,0-10,0-10-3c0-2.813,2.663-7,10-7s10,4.187,10,7C22,21,18.448,21,12,21z M12,13c-6.563,0-8,3.609-8,5
		c0,1,3.53,1,8,1s8,0,8-1C20,16.609,18.563,13,12,13z"/>
</g>
<g>
	<path d="M8,16.01L6,16c0-1.176,1.515-3.577,2.167-4.555l1.664,1.109C8.888,13.971,8.032,15.586,8,16.01z"/>
</g>
<g>
	<path d="M10.001,16.001c-0.001-2.348,2.057-4.474,2.292-4.708l1.416,1.413c-0.475,0.479-1.708,2.004-1.708,3.293L10.001,16.001z"/>
</g>
<g>
	<path d="M16,16.018L14.001,16c0-1.276,1.603-3.018,2.292-3.707l1.415,1.414C16.859,14.557,16.045,15.658,16,16.018z"/>
</g>
<g>
	<path d="M11.895,9.447l-1.789-0.895l0.553-1.105c0.14-0.28,0.14-0.614,0-0.895l-0.105-0.211c-0.42-0.84-0.42-1.844,0-2.684
		l0.553-1.105l1.789,0.895l-0.553,1.105c-0.14,0.28-0.14,0.614,0,0.895l0.105,0.211c0.42,0.84,0.42,1.844,0,2.684L11.895,9.447z"/>
</g>
<g>
	<path d="M15.895,9.447l-1.789-0.895l0.553-1.105c0.14-0.28,0.14-0.614,0-0.895l-0.105-0.211c-0.42-0.84-0.42-1.844,0-2.684
		l0.553-1.105l1.789,0.895l-0.553,1.105c-0.14,0.28-0.14,0.614,0,0.895l0.105,0.211c0.42,0.84,0.42,1.844,0,2.684L15.895,9.447z"/>
</g>
<g>
	<path d="M7.895,9.447L6.105,8.553l0.553-1.105c0.14-0.28,0.14-0.614,0-0.895L6.553,6.342c-0.42-0.84-0.42-1.844,0-2.684
		l0.553-1.105l1.789,0.895L8.342,4.553c-0.14,0.28-0.14,0.614,0,0.895l0.105,0.211c0.42,0.84,0.42,1.844,0,2.684L7.895,9.447z"/>
</g>
</svg>
