<?xml version="1.0" encoding="utf-8"?>
<!-- Generator: Adobe Illustrator 24.1.2, SVG Export Plug-In . SVG Version: 6.00 Build 0)  -->
<svg version="1.1" id="Food_Delivery_Part_2" xmlns="http://www.w3.org/2000/svg" xmlns:xlink="http://www.w3.org/1999/xlink"
	 x="0px" y="0px" viewBox="0 0 24 24" style="enable-background:new 0 0 24 24;" xml:space="preserve">
<g>
	<path d="M20,21H4V10.792c-0.719-0.295-2-1.19-2-3.757C2,4.259,6.486,2,12,2s10,2.259,10,5.035c0,2.566-1.281,3.462-2.046,3.768
		L20,21z M6,19h12v-8.208c0-0.815,0.487-1.558,1.213-1.847C19.897,8.671,20,7.631,20,7.035C20,5.993,16.885,4,12,4S4,5.993,4,7.035
		c0,0.596,0.103,1.636,0.788,1.91C5.513,9.234,6,9.977,6,10.792V19z"/>
</g>
<g>
	<rect x="10" y="7.203" width="2" height="1.797"/>
</g>
<g>
	<rect x="14" y="12" width="2" height="2"/>
</g>
<g>
	<rect x="8" y="15" width="2" height="2"/>
</g>
</svg>
