<?xml version="1.0" encoding="utf-8"?>
<!-- Generator: Adobe Illustrator 24.1.2, SVG Export Plug-In . SVG Version: 6.00 Build 0)  -->
<svg version="1.1" id="Food_Delivery_Part_2" xmlns="http://www.w3.org/2000/svg" xmlns:xlink="http://www.w3.org/1999/xlink"
	 x="0px" y="0px" viewBox="0 0 24 24" style="enable-background:new 0 0 24 24;" xml:space="preserve">
<g>
	<path d="M16.597,22.753c-0.096,0-0.192-0.014-0.286-0.042c-0.353-0.105-0.618-0.396-0.693-0.756l-0.747-3.611
		c-2.387-0.21-6.357-1.845-10.295-5.783c-1.85-1.849-2.237-3.809-2.237-5.127c0-1.587,0.572-3.107,1.53-4.065
		c1.779-1.779,5.964-2.522,9.192,0.707c2.938,2.938,5.265,7.149,5.669,10.257l3.729,0.786c0.359,0.075,0.648,0.342,0.753,0.693
		s0.008,0.732-0.252,0.992l-5.656,5.656C17.113,22.65,16.858,22.753,16.597,22.753z M7.946,3.829c-1.178,0-2.164,0.453-2.664,0.953
		C4.825,5.239,4.338,6.176,4.338,7.435c0,0.939,0.286,2.347,1.651,3.712c3.567,3.568,7.123,5.038,9.085,5.213
		c0.782,0.068,1.45,0.601,1.701,1.354c0.012,0.037,0.022,0.074,0.03,0.113l0.395,1.908l3.04-3.041l-2.036-0.429
		c-0.037-0.008-0.074-0.018-0.111-0.03c-0.723-0.241-1.25-0.878-1.344-1.62c-0.288-2.287-2.134-6.157-5.103-9.126
		C10.415,4.258,9.09,3.829,7.946,3.829z"/>
</g>
<g>
	<path d="M17.304,11.146L15.89,9.732c0.823-0.824,1.675-2.225,2.181-3.126c-2.845-1.335-5.495-0.85-5.524-0.843l-0.389-1.962
		c0.161-0.032,3.956-0.758,7.782,1.537c0.448,0.269,0.613,0.837,0.38,1.305C20.259,6.765,18.815,9.635,17.304,11.146z"/>
</g>
<g>
	<path d="M7,19c-0.347,0-0.675-0.181-0.857-0.485c-2.281-3.802-1.867-6.692-1.849-6.813l1.977,0.305l-0.988-0.152l0.989,0.145
		c-0.003,0.021-0.257,2.036,1.223,4.843c0.758-0.227,1.972-0.685,2.738-1.451l1.414,1.414c-1.612,1.612-4.341,2.155-4.456,2.178
		C7.127,18.994,7.062,19,7,19z"/>
</g>
<g>
	<path d="M5.246,12.229c-0.544,0-0.894-0.103-0.987-0.134l0.607-1.905c0.069,0.023,1.662,0.418,3.952-1.871
		C9.126,8.011,9.4,7.699,9.634,7.394l1.59,1.213c-0.287,0.377-0.62,0.756-0.991,1.126C8.129,11.834,6.313,12.229,5.246,12.229z"/>
</g>
<g>
	<circle cx="8" cy="6" r="1"/>
</g>
</svg>
