<?xml version="1.0" encoding="utf-8"?>
<!-- Generator: Adobe Illustrator 24.1.2, SVG Export Plug-In . SVG Version: 6.00 Build 0)  -->
<svg version="1.1" id="Food_Delivery_Part_2" xmlns="http://www.w3.org/2000/svg" xmlns:xlink="http://www.w3.org/1999/xlink"
	 x="0px" y="0px" viewBox="0 0 24 24" style="enable-background:new 0 0 24 24;" xml:space="preserve">
<g>
	<rect x="2" y="16" width="20" height="2"/>
</g>
<g>
	<path d="M18,21H6c-1.654,0-3-1.346-3-3v-1h2v1c0,0.552,0.449,1,1,1h12c0.552,0,1-0.448,1-1v-1h2v1C21,19.654,19.654,21,18,21z"/>
</g>
<g>
	<rect x="3" y="5" width="18" height="2"/>
</g>
<g>
	<path d="M8,10H3V8h5V4H3V2h5c1.103,0,2,0.897,2,2v4C10,9.103,9.103,10,8,10z"/>
</g>
<g>
	<path d="M19,18c-0.553,0-1-0.447-1-1v-3c0-1.103-0.897-2-2-2h-6c-0.552,0-1-0.447-1-1s0.448-1,1-1h6c2.206,0,4,1.794,4,4v3
		C20,17.553,19.553,18,19,18z"/>
</g>
<g>
	<path d="M16,17c-0.553,0-1-0.447-1-1v-1h-5c-0.552,0-1-0.447-1-1s0.448-1,1-1h5c1.103,0,2,0.897,2,2v1C17,16.553,16.553,17,16,17z"
		/>
</g>
<g>
	<path d="M8.282,17.315l-1.897-0.631l0.245-0.735c0.204-0.612,0.204-1.286,0-1.897L6.473,13.58c-0.339-1.019-0.339-2.142,0-3.161
		l0.578-1.735l1.897,0.633l-0.578,1.735c-0.204,0.611-0.204,1.285,0,1.896l0.157,0.472c0.339,1.019,0.339,2.142,0,3.161
		L8.282,17.315z"/>
</g>
<g>
	<path d="M5.282,17.315l-1.897-0.631l0.245-0.735c0.204-0.612,0.204-1.286,0-1.897L3.473,13.58c-0.339-1.019-0.339-2.142,0-3.161
		l0.578-1.735l1.897,0.633l-0.578,1.735c-0.204,0.611-0.204,1.285,0,1.896l0.157,0.472c0.339,1.019,0.339,2.142,0,3.161
		L5.282,17.315z"/>
</g>
</svg>
