<?xml version="1.0" encoding="utf-8"?>
<!-- Generator: Adobe Illustrator 24.1.2, SVG Export Plug-In . SVG Version: 6.00 Build 0)  -->
<svg version="1.1" id="Food_Delivery_Part_2" xmlns="http://www.w3.org/2000/svg" xmlns:xlink="http://www.w3.org/1999/xlink"
	 x="0px" y="0px" viewBox="0 0 24 24" style="enable-background:new 0 0 24 24;" xml:space="preserve">
<g>
	<path d="M20,19H4c-1.103,0-2-0.897-2-2V7c0-1.103,0.897-2,2-2h16c1.103,0,2,0.897,2,2v10C22,18.103,21.103,19,20,19z M4,7v10
		h16.002L20,7H4z"/>
</g>
<g>
	<path d="M10,16c-2.206,0-4-1.794-4-4s1.794-4,4-4s4,1.794,4,4h-2c0-1.103-0.897-2-2-2s-2,0.897-2,2s0.897,2,2,2
		c0.493,0,0.967-0.181,1.333-0.509l1.334,1.49C11.933,15.639,10.986,16,10,16z"/>
</g>
<g>
	<path d="M14,16c-2.206,0-4-1.794-4-4h2c0,1.103,0.897,2,2,2s2-0.897,2-2s-0.897-2-2-2c-0.493,0-0.967,0.181-1.333,0.509
		l-1.334-1.49C12.067,8.361,13.014,8,14,8c2.206,0,4,1.794,4,4S16.206,16,14,16z"/>
</g>
</svg>
