<?xml version="1.0" encoding="utf-8"?>
<!-- Generator: Adobe Illustrator 24.1.2, SVG Export Plug-In . SVG Version: 6.00 Build 0)  -->
<svg version="1.1" id="Food_Delivery_Part_2" xmlns="http://www.w3.org/2000/svg" xmlns:xlink="http://www.w3.org/1999/xlink"
	 x="0px" y="0px" viewBox="0 0 24 24" style="enable-background:new 0 0 24 24;" xml:space="preserve">
<g>
	<path d="M6.5,20C4.57,20,3,18.43,3,16.5S4.57,13,6.5,13s3.5,1.57,3.5,3.5S8.43,20,6.5,20z M6.5,15C5.673,15,5,15.673,5,16.5
		S5.673,18,6.5,18S8,17.327,8,16.5S7.327,15,6.5,15z"/>
</g>
<g>
	<path d="M19.5,20c-1.93,0-3.5-1.57-3.5-3.5s1.57-3.5,3.5-3.5s3.5,1.57,3.5,3.5S21.43,20,19.5,20z M19.5,15
		c-0.827,0-1.5,0.673-1.5,1.5s0.673,1.5,1.5,1.5s1.5-0.673,1.5-1.5S20.327,15,19.5,15z"/>
</g>
<g>
	<rect x="8" y="16" width="9" height="2"/>
</g>
<g>
	<path d="M10,12H2V4h8V12z M4,10h4V6H4V10z"/>
</g>
<g>
	<rect x="5" y="12" width="2" height="3"/>
</g>
<g>
	<path d="M15.333,14H13c-1.103,0-2-0.897-2-2H8v-2h3c1.103,0,2,0.897,2,2h1.667L18.4,9.2l1.2,1.6L15.333,14z"/>
</g>
<g>
	<path d="M18.97,14.235L17.4,8.54C17.349,8.362,17.324,8.181,17.324,8H16V6h3.326v2l1.572,5.704L18.97,14.235z"/>
</g>
<g>
	<rect x="19" y="9" width="2" height="2"/>
</g>
</svg>
