<?xml version="1.0" encoding="utf-8"?>
<!-- Generator: Adobe Illustrator 24.1.2, SVG Export Plug-In . SVG Version: 6.00 Build 0)  -->
<svg version="1.1" id="Food_Delivery_Part_2" xmlns="http://www.w3.org/2000/svg" xmlns:xlink="http://www.w3.org/1999/xlink"
	 x="0px" y="0px" viewBox="0 0 24 24" style="enable-background:new 0 0 24 24;" xml:space="preserve">
<g>
	<path d="M12,21c-4.411,0-8-3.589-8-8h2c0,3.309,2.691,6,6,6s6-2.691,6-6h2C20,17.411,16.411,21,12,21z"/>
</g>
<g>
	<rect x="3" y="12" width="18" height="2"/>
</g>
<g>
	<rect x="3.768" y="4" transform="matrix(0.9734 -0.229 0.229 0.9734 -0.8127 2.9948)" width="17.464" height="2"/>
</g>
<g>
	<rect x="4" y="6" width="17" height="2"/>
</g>
<g>
	<path d="M9.051,13.316l-0.578-1.735c-0.34-1.02-0.34-2.143,0-3.162l0.578-1.735l1.897,0.633l-0.578,1.735
		c-0.204,0.611-0.204,1.285,0,1.896l0.578,1.735L9.051,13.316z"/>
</g>
<g>
	<path d="M12.051,13.316l-0.578-1.735c-0.34-1.02-0.34-2.143,0-3.162l0.578-1.735l1.897,0.633l-0.578,1.735
		c-0.204,0.611-0.204,1.285,0,1.896l0.578,1.735L12.051,13.316z"/>
</g>
<g>
	<path d="M6.051,13.316l-0.578-1.735c-0.34-1.02-0.34-2.143,0-3.162l0.578-1.735l1.897,0.633L7.371,9.052
		c-0.204,0.611-0.204,1.285,0,1.896l0.578,1.735L6.051,13.316z"/>
</g>
</svg>
